<svg width="14" height="14" viewBox="0 0 14 14" fill="none" xmlns="http://www.w3.org/2000/svg">
<path d="M9.47333 7.47374C10.1269 6.95951 10.604 6.25436 10.8382 5.45637C11.0723 4.65838 11.0519 3.80725 10.7799 3.02139C10.5078 2.23552 9.9975 1.554 9.32005 1.07165C8.64259 0.589288 7.83163 0.330078 7 0.330078C6.16836 0.330078 5.35741 0.589288 4.67995 1.07165C4.0025 1.554 3.49223 2.23552 3.22014 3.02139C2.94805 3.80725 2.92767 4.65838 3.16184 5.45637C3.396 6.25436 3.87307 6.95951 4.52666 7.47374C3.40672 7.92244 2.42952 8.66664 1.69926 9.62702C0.968996 10.5874 0.51304 11.7279 0.379998 12.9271C0.370368 13.0146 0.378075 13.1032 0.402681 13.1878C0.427287 13.2723 0.468309 13.3512 0.523405 13.42C0.634677 13.5587 0.79652 13.6476 0.973331 13.6671C1.15014 13.6865 1.32744 13.6349 1.46621 13.5237C1.60499 13.4124 1.69388 13.2506 1.71333 13.0737C1.85972 11.7705 2.48112 10.5669 3.45881 9.69294C4.4365 8.81892 5.70193 8.33576 7.01333 8.33576C8.32473 8.33576 9.59016 8.81892 10.5679 9.69294C11.5455 10.5669 12.1669 11.7705 12.3133 13.0737C12.3315 13.2376 12.4096 13.3888 12.5327 13.4984C12.6559 13.608 12.8152 13.6681 12.98 13.6671H13.0533C13.2281 13.647 13.3878 13.5586 13.4977 13.4212C13.6076 13.2839 13.6587 13.1086 13.64 12.9337C13.5063 11.7312 13.0479 10.5877 12.3139 9.62588C11.5799 8.66402 10.5979 7.92006 9.47333 7.47374ZM7 7.00041C6.47258 7.00041 5.95701 6.84401 5.51848 6.55099C5.07995 6.25798 4.73815 5.8415 4.53632 5.35423C4.33449 4.86696 4.28168 4.33078 4.38457 3.8135C4.48746 3.29622 4.74144 2.82106 5.11438 2.44812C5.48732 2.07518 5.96247 1.82121 6.47976 1.71831C6.99704 1.61542 7.53322 1.66823 8.02049 1.87006C8.50776 2.0719 8.92423 2.41369 9.21725 2.85222C9.51027 3.29075 9.66667 3.80633 9.66667 4.33374C9.66667 5.04099 9.38571 5.71926 8.88562 6.21936C8.38552 6.71946 7.70724 7.00041 7 7.00041Z" fill="#ADBCC7"/>
</svg>
