<svg width="14" height="18" viewBox="0 0 14 18" fill="none" xmlns="http://www.w3.org/2000/svg">
<path d="M12.8335 4.83366H10.3335V4.00033C10.3335 3.11627 9.98231 2.26842 9.35718 1.6433C8.73206 1.01818 7.88422 0.666992 7.00016 0.666992C6.11611 0.666992 5.26826 1.01818 4.64314 1.6433C4.01802 2.26842 3.66683 3.11627 3.66683 4.00033V4.83366H1.16683C0.945816 4.83366 0.733854 4.92146 0.577574 5.07774C0.421294 5.23402 0.333496 5.44598 0.333496 5.66699V14.8337C0.333496 15.4967 0.596888 16.1326 1.06573 16.6014C1.53457 17.0703 2.17045 17.3337 2.8335 17.3337H11.1668C11.8299 17.3337 12.4658 17.0703 12.9346 16.6014C13.4034 16.1326 13.6668 15.4967 13.6668 14.8337V5.66699C13.6668 5.44598 13.579 5.23402 13.4228 5.07774C13.2665 4.92146 13.0545 4.83366 12.8335 4.83366ZM5.3335 4.00033C5.3335 3.5583 5.50909 3.13437 5.82165 2.82181C6.13421 2.50925 6.55813 2.33366 7.00016 2.33366C7.44219 2.33366 7.86611 2.50925 8.17867 2.82181C8.49123 3.13437 8.66683 3.5583 8.66683 4.00033V4.83366H5.3335V4.00033ZM12.0002 14.8337C12.0002 15.0547 11.9124 15.2666 11.7561 15.4229C11.5998 15.5792 11.3878 15.667 11.1668 15.667H2.8335C2.61248 15.667 2.40052 15.5792 2.24424 15.4229C2.08796 15.2666 2.00016 15.0547 2.00016 14.8337V6.50033H3.66683V7.33366C3.66683 7.55467 3.75463 7.76663 3.91091 7.92291C4.06719 8.0792 4.27915 8.16699 4.50016 8.16699C4.72118 8.16699 4.93314 8.0792 5.08942 7.92291C5.2457 7.76663 5.3335 7.55467 5.3335 7.33366V6.50033H8.66683V7.33366C8.66683 7.55467 8.75463 7.76663 8.91091 7.92291C9.06719 8.0792 9.27915 8.16699 9.50016 8.16699C9.72118 8.16699 9.93314 8.0792 10.0894 7.92291C10.2457 7.76663 10.3335 7.55467 10.3335 7.33366V6.50033H12.0002V14.8337Z" fill="#ADBCC7"/>
</svg>
