<svg width="15" height="15" viewBox="0 0 15 15" fill="none" xmlns="http://www.w3.org/2000/svg">
<path d="M6.08366 8.20866H1.12533C0.937464 8.20866 0.757297 8.28329 0.624458 8.41613C0.49162 8.54896 0.416992 8.72913 0.416992 8.91699V13.8753C0.416992 14.0632 0.49162 14.2434 0.624458 14.3762C0.757297 14.509 0.937464 14.5837 1.12533 14.5837H6.08366C6.27152 14.5837 6.45169 14.509 6.58453 14.3762C6.71737 14.2434 6.79199 14.0632 6.79199 13.8753V8.91699C6.79199 8.72913 6.71737 8.54896 6.58453 8.41613C6.45169 8.28329 6.27152 8.20866 6.08366 8.20866ZM5.37533 13.167H1.83366V9.62533H5.37533V13.167ZM13.8753 0.416992H8.91699C8.72913 0.416992 8.54896 0.49162 8.41613 0.624458C8.28329 0.757297 8.20866 0.937464 8.20866 1.12533V6.08366C8.20866 6.27152 8.28329 6.45169 8.41613 6.58453C8.54896 6.71737 8.72913 6.79199 8.91699 6.79199H13.8753C14.0632 6.79199 14.2434 6.71737 14.3762 6.58453C14.509 6.45169 14.5837 6.27152 14.5837 6.08366V1.12533C14.5837 0.937464 14.509 0.757297 14.3762 0.624458C14.2434 0.49162 14.0632 0.416992 13.8753 0.416992ZM13.167 5.37533H9.62533V1.83366H13.167V5.37533ZM13.8753 8.20866H8.91699C8.72913 8.20866 8.54896 8.28329 8.41613 8.41613C8.28329 8.54896 8.20866 8.72913 8.20866 8.91699V13.8753C8.20866 14.0632 8.28329 14.2434 8.41613 14.3762C8.54896 14.509 8.72913 14.5837 8.91699 14.5837H13.8753C14.0632 14.5837 14.2434 14.509 14.3762 14.3762C14.509 14.2434 14.5837 14.0632 14.5837 13.8753V8.91699C14.5837 8.72913 14.509 8.54896 14.3762 8.41613C14.2434 8.28329 14.0632 8.20866 13.8753 8.20866ZM13.167 13.167H9.62533V9.62533H13.167V13.167ZM6.08366 0.416992H1.12533C0.937464 0.416992 0.757297 0.49162 0.624458 0.624458C0.49162 0.757297 0.416992 0.937464 0.416992 1.12533V6.08366C0.416992 6.27152 0.49162 6.45169 0.624458 6.58453C0.757297 6.71737 0.937464 6.79199 1.12533 6.79199H6.08366C6.27152 6.79199 6.45169 6.71737 6.58453 6.58453C6.71737 6.45169 6.79199 6.27152 6.79199 6.08366V1.12533C6.79199 0.937464 6.71737 0.757297 6.58453 0.624458C6.45169 0.49162 6.27152 0.416992 6.08366 0.416992ZM5.37533 5.37533H1.83366V1.83366H5.37533V5.37533Z" fill="#ADBCC7"/>
</svg>
