<svg width="16" height="16" viewBox="0 0 16 16" fill="none" xmlns="http://www.w3.org/2000/svg">
<path d="M13.5 3.5V3C13.4988 2.60253 13.3404 2.22167 13.0594 1.94061C12.7783 1.65956 12.3975 1.50115 12 1.5H2C1.60253 1.50115 1.22167 1.65956 0.940615 1.94061C0.65956 2.22167 0.501154 2.60253 0.5 3V11C0.501154 11.3975 0.65956 11.7783 0.940615 12.0594C1.22167 12.3404 1.60253 12.4988 2 12.5H2.5" stroke="#93ACBE" stroke-linejoin="round"/>
<path d="M14.0628 4H4.43719C3.64345 4 3 4.64345 3 5.43719V13.0628C3 13.8565 3.64345 14.5 4.43719 14.5H14.0628C14.8565 14.5 15.5 13.8565 15.5 13.0628V5.43719C15.5 4.64345 14.8565 4 14.0628 4Z" stroke="#93ACBE" stroke-linejoin="round"/>
<path d="M11.6539 7.81758C12.185 7.81758 12.6155 7.39015 12.6155 6.86289C12.6155 6.33563 12.185 5.9082 11.6539 5.9082C11.1229 5.9082 10.6924 6.33563 10.6924 6.86289C10.6924 7.39015 11.1229 7.81758 11.6539 7.81758Z" stroke="#93ACBE" stroke-miterlimit="10"/>
<path d="M10.6922 11.631L7.96875 8.93133C7.79465 8.75932 7.56178 8.65976 7.31714 8.65274C7.0725 8.64572 6.8343 8.73177 6.65063 8.89352L3 12.1145" stroke="#93ACBE" stroke-linecap="round" stroke-linejoin="round"/>
<path d="M8.28906 14.4991L11.995 10.82C12.1655 10.6518 12.3923 10.5528 12.6316 10.542C12.8709 10.5312 13.1056 10.6094 13.2906 10.7616L15.5006 12.59" stroke="#93ACBE" stroke-linecap="round" stroke-linejoin="round"/>
</svg>
