<svg width="12" height="12" viewBox="0 0 12 12" fill="none" xmlns="http://www.w3.org/2000/svg">
<path d="M5.99935 7.16797C5.85513 7.16797 5.71416 7.21074 5.59425 7.29086C5.47434 7.37098 5.38088 7.48486 5.32569 7.6181C5.2705 7.75134 5.25606 7.89795 5.28419 8.03939C5.31233 8.18084 5.38177 8.31076 5.48375 8.41274C5.58573 8.51471 5.71565 8.58416 5.8571 8.61229C5.99854 8.64043 6.14515 8.62599 6.27839 8.5708C6.41163 8.51561 6.52551 8.42215 6.60563 8.30224C6.68575 8.18233 6.72852 8.04135 6.72852 7.89714C6.72852 7.70375 6.65169 7.51828 6.51495 7.38154C6.3782 7.24479 6.19274 7.16797 5.99935 7.16797ZM5.99935 6.29297C6.15406 6.29297 6.30243 6.23151 6.41183 6.12212C6.52122 6.01272 6.58268 5.86435 6.58268 5.70964L6.58268 3.95964C6.58268 3.80493 6.52123 3.65655 6.41183 3.54716C6.30243 3.43776 6.15406 3.3763 5.99935 3.3763C5.84464 3.3763 5.69627 3.43776 5.58687 3.54716C5.47748 3.65655 5.41602 3.80493 5.41602 3.95964L5.41602 5.70964C5.41602 5.86435 5.47748 6.01272 5.58687 6.12212C5.69627 6.23151 5.84464 6.29297 5.99935 6.29297ZM5.99935 0.16797C4.84563 0.16797 3.71781 0.510088 2.75852 1.15106C1.79924 1.79204 1.05156 2.70308 0.610054 3.76898C0.168542 4.83489 0.0530227 6.00777 0.278103 7.13933C0.503183 8.27089 1.05875 9.31029 1.87456 10.1261C2.69037 10.9419 3.72977 11.4975 4.86132 11.7226C5.99288 11.9476 7.16577 11.8321 8.23167 11.3906C9.29757 10.9491 10.2086 10.2014 10.8496 9.24213C11.4906 8.28284 11.8327 7.15503 11.8327 6.00131C11.831 4.45473 11.2159 2.97199 10.1223 1.87839C9.02867 0.784796 7.54593 0.169668 5.99935 0.16797ZM5.99935 10.668C5.07637 10.668 4.17412 10.3943 3.40669 9.8815C2.63926 9.36872 2.04112 8.63988 1.68791 7.78716C1.3347 6.93444 1.24229 5.99613 1.42235 5.09088C1.60242 4.18564 2.04687 3.35412 2.69952 2.70147C3.35216 2.04883 4.18369 1.60437 5.08893 1.42431C5.99417 1.24424 6.93248 1.33666 7.78521 1.68987C8.63793 2.04308 9.36676 2.64121 9.87954 3.40864C10.3923 4.17607 10.666 5.07833 10.666 6.00131C10.6645 7.23851 10.1723 8.4246 9.29748 9.29943C8.42264 10.1743 7.23655 10.6664 5.99935 10.668Z" fill="#F95252"/>
</svg>
