<svg width="18" height="16" viewBox="0 0 18 16" fill="none" xmlns="http://www.w3.org/2000/svg">
<path d="M14.8332 3H12.3332V2.16667C12.3332 1.72464 12.1576 1.30072 11.845 0.988155C11.5325 0.675595 11.1085 0.5 10.6665 0.5H7.33317C6.89114 0.5 6.46722 0.675595 6.15466 0.988155C5.8421 1.30072 5.6665 1.72464 5.6665 2.16667V3H3.1665C2.50346 3 1.86758 3.26339 1.39874 3.73223C0.929896 4.20107 0.666504 4.83696 0.666504 5.5V13C0.666504 13.663 0.929896 14.2989 1.39874 14.7678C1.86758 15.2366 2.50346 15.5 3.1665 15.5H14.8332C15.4962 15.5 16.1321 15.2366 16.6009 14.7678C17.0698 14.2989 17.3332 13.663 17.3332 13V5.5C17.3332 4.83696 17.0698 4.20107 16.6009 3.73223C16.1321 3.26339 15.4962 3 14.8332 3ZM7.33317 2.16667H10.6665V3H7.33317V2.16667ZM15.6665 13C15.6665 13.221 15.5787 13.433 15.4224 13.5893C15.2661 13.7455 15.0542 13.8333 14.8332 13.8333H3.1665C2.94549 13.8333 2.73353 13.7455 2.57725 13.5893C2.42097 13.433 2.33317 13.221 2.33317 13V8.325L6.23317 9.66667C6.32165 9.67867 6.41135 9.67867 6.49984 9.66667H11.4998C11.5902 9.665 11.6799 9.65098 11.7665 9.625L15.6665 8.325V13ZM15.6665 6.56667L11.3665 8H6.63317L2.33317 6.56667V5.5C2.33317 5.27899 2.42097 5.06702 2.57725 4.91074C2.73353 4.75446 2.94549 4.66667 3.1665 4.66667H14.8332C15.0542 4.66667 15.2661 4.75446 15.4224 4.91074C15.5787 5.06702 15.6665 5.27899 15.6665 5.5V6.56667Z" fill="#ADBCC7"/>
</svg>
