<svg width="12" height="14" viewBox="0 0 12 14" fill="none" xmlns="http://www.w3.org/2000/svg">
<path d="M4.66667 11.0007C4.84348 11.0007 5.01305 10.9304 5.13807 10.8054C5.2631 10.6804 5.33333 10.5108 5.33333 10.334V6.33398C5.33333 6.15717 5.2631 5.9876 5.13807 5.86258C5.01305 5.73756 4.84348 5.66732 4.66667 5.66732C4.48986 5.66732 4.32029 5.73756 4.19526 5.86258C4.07024 5.9876 4 6.15717 4 6.33398V10.334C4 10.5108 4.07024 10.6804 4.19526 10.8054C4.32029 10.9304 4.48986 11.0007 4.66667 11.0007ZM11.3333 3.00065H8.66667V2.33398C8.66667 1.80355 8.45595 1.29484 8.08088 0.919771C7.70581 0.544698 7.1971 0.333984 6.66667 0.333984H5.33333C4.8029 0.333984 4.29419 0.544698 3.91912 0.919771C3.54405 1.29484 3.33333 1.80355 3.33333 2.33398V3.00065H0.666667C0.489856 3.00065 0.320286 3.07089 0.195262 3.19591C0.0702379 3.32094 0 3.49051 0 3.66732C0 3.84413 0.0702379 4.0137 0.195262 4.13872C0.320286 4.26375 0.489856 4.33398 0.666667 4.33398H1.33333V11.6673C1.33333 12.1978 1.54405 12.7065 1.91912 13.0815C2.29419 13.4566 2.8029 13.6673 3.33333 13.6673H8.66667C9.1971 13.6673 9.70581 13.4566 10.0809 13.0815C10.456 12.7065 10.6667 12.1978 10.6667 11.6673V4.33398H11.3333C11.5101 4.33398 11.6797 4.26375 11.8047 4.13872C11.9298 4.0137 12 3.84413 12 3.66732C12 3.49051 11.9298 3.32094 11.8047 3.19591C11.6797 3.07089 11.5101 3.00065 11.3333 3.00065ZM4.66667 2.33398C4.66667 2.15717 4.7369 1.9876 4.86193 1.86258C4.98695 1.73756 5.15652 1.66732 5.33333 1.66732H6.66667C6.84348 1.66732 7.01305 1.73756 7.13807 1.86258C7.2631 1.9876 7.33333 2.15717 7.33333 2.33398V3.00065H4.66667V2.33398ZM9.33333 11.6673C9.33333 11.8441 9.2631 12.0137 9.13807 12.1387C9.01305 12.2637 8.84348 12.334 8.66667 12.334H3.33333C3.15652 12.334 2.98695 12.2637 2.86193 12.1387C2.7369 12.0137 2.66667 11.8441 2.66667 11.6673V4.33398H9.33333V11.6673ZM7.33333 11.0007C7.51014 11.0007 7.67971 10.9304 7.80474 10.8054C7.92976 10.6804 8 10.5108 8 10.334V6.33398C8 6.15717 7.92976 5.9876 7.80474 5.86258C7.67971 5.73756 7.51014 5.66732 7.33333 5.66732C7.15652 5.66732 6.98695 5.73756 6.86193 5.86258C6.73691 5.9876 6.66667 6.15717 6.66667 6.33398V10.334C6.66667 10.5108 6.73691 10.6804 6.86193 10.8054C6.98695 10.9304 7.15652 11.0007 7.33333 11.0007Z" fill="#ADBCC7"/>
</svg>
