<svg width="12" height="16" viewBox="0 0 12 16" fill="none" xmlns="http://www.w3.org/2000/svg">
<path d="M11.25 14.5455H10.5001V13.3331C10.4977 12.9168 10.4216 12.504 10.2751 12.1127C10.2671 12.092 10.2581 12.0716 10.2481 12.0516C10.1268 11.7304 9.95913 11.4276 9.75014 11.152L8.70021 9.79418C8.40894 9.41583 8.25115 8.95652 8.25023 8.48436V7.74982C8.25207 7.1719 8.48865 6.61796 8.90869 6.208L9.40141 5.72945C9.97435 5.17103 10.3424 4.44565 10.4491 3.66473C10.4491 3.65527 10.4551 3.64655 10.4551 3.63564L10.4528 3.62618C10.4789 3.47145 10.4947 3.31525 10.5001 3.15855V1.45455H11.25C11.4489 1.45455 11.6397 1.37792 11.7803 1.24153C11.921 1.10514 12 0.920158 12 0.727273C12 0.534388 11.921 0.349403 11.7803 0.213013C11.6397 0.0766232 11.4489 0 11.25 0H0.750703C0.551803 0 0.36105 0.0766232 0.220406 0.213013C0.0797626 0.349403 0.000750078 0.534388 0.000750078 0.727273C0.000750078 0.920158 0.0797626 1.10514 0.220406 1.24153C0.36105 1.37792 0.551803 1.45455 0.750703 1.45455H1.50066V3.15855C1.50603 3.31525 1.52181 3.47145 1.5479 3.62618L1.54565 3.63636C1.54565 3.64655 1.5509 3.65527 1.55165 3.66545C1.65828 4.44603 2.02607 5.17112 2.59859 5.72945L3.09131 6.20727C3.51181 6.61729 3.74867 7.17154 3.75051 7.74982V8.48436C3.74933 8.95626 3.59157 9.41525 3.30054 9.79346L2.25061 11.152C2.0414 11.4275 1.87349 11.7304 1.75189 12.0516C1.74191 12.0716 1.7329 12.092 1.72489 12.1127C1.57846 12.504 1.50236 12.9168 1.49991 13.3331V14.5455H0.749953C0.551053 14.5455 0.3603 14.6221 0.219656 14.7585C0.0790127 14.8949 0 15.0798 0 15.2727C0 15.4656 0.0790127 15.6506 0.219656 15.787C0.3603 15.9234 0.551053 16 0.749953 16H11.2493C11.4482 16 11.6389 15.9234 11.7796 15.787C11.9202 15.6506 11.9992 15.4656 11.9992 15.2727C11.9992 15.0798 11.9202 14.8949 11.7796 14.7585C11.6389 14.6221 11.4482 14.5455 11.2493 14.5455H11.25ZM3.00056 2.90909V1.45455H9.00019V2.90909H3.00056ZM3.65902 4.70109C3.55331 4.59811 3.45859 4.48506 3.37629 4.36364H8.62371C8.54141 4.48506 8.44669 4.59811 8.34098 4.70109L7.84826 5.17891C7.26321 5.74287 6.88806 6.47942 6.78183 7.27273H5.21892C5.11269 6.47942 4.73754 5.74287 4.15249 5.17891L3.65902 4.70109ZM4.50047 10.6662C4.93433 10.1023 5.19156 9.42917 5.24142 8.72727H6.75858C6.80849 9.42928 7.066 10.1025 7.50028 10.6662L8.25023 11.6364H3.75051L4.50047 10.6662ZM9.00019 14.5455H3.00056V13.3331C3.0026 13.2521 3.00936 13.1712 3.02081 13.0909H8.97919C8.99089 13.1712 8.9979 13.252 9.00019 13.3331V14.5455Z" fill="#ADBCC7"/>
</svg>
