<svg width="50" height="16" viewBox="0 0 50 16" fill="none" xmlns="http://www.w3.org/2000/svg">
<path d="M0 8C0 3.58172 3.58172 0 8 0H50V7.66667C50 12.269 46.269 16 41.6667 16H8C3.58172 16 0 12.4183 0 8Z" fill="#D12467"/>
<path d="M19.5774 6.81889H21.0511C21.0298 5.52273 19.9645 4.62784 18.3452 4.62784C16.7507 4.62784 15.5824 5.50852 15.5895 6.82955C15.5859 7.90199 16.3423 8.51634 17.571 8.81108L18.3629 9.00994C19.1548 9.2017 19.5952 9.42898 19.5987 9.91903C19.5952 10.4517 19.0909 10.8139 18.3097 10.8139C17.5107 10.8139 16.9354 10.4446 16.8857 9.71662H15.3977C15.4368 11.2898 16.5625 12.103 18.3274 12.103C20.103 12.103 21.147 11.2543 21.1506 9.92259C21.147 8.71165 20.2344 8.06889 18.9702 7.7848L18.3168 7.62855C17.6847 7.48295 17.1555 7.24858 17.1662 6.72656C17.1662 6.25781 17.5817 5.91335 18.3345 5.91335C19.0696 5.91335 19.5206 6.24716 19.5774 6.81889ZM28.8681 8.36364C28.8681 5.98438 27.3908 4.62784 25.4625 4.62784C23.5236 4.62784 22.057 5.98438 22.057 8.36364C22.057 10.7322 23.5236 12.0994 25.4625 12.0994C27.3908 12.0994 28.8681 10.7429 28.8681 8.36364ZM27.3091 8.36364C27.3091 9.90483 26.5776 10.7393 25.4625 10.7393C24.3439 10.7393 23.6159 9.90483 23.6159 8.36364C23.6159 6.82244 24.3439 5.98793 25.4625 5.98793C26.5776 5.98793 27.3091 6.82244 27.3091 8.36364ZM36.6903 8.36364C36.6903 5.98438 35.2131 4.62784 33.2848 4.62784C31.3459 4.62784 29.8793 5.98438 29.8793 8.36364C29.8793 10.7322 31.3459 12.0994 33.2848 12.0994C35.2131 12.0994 36.6903 10.7429 36.6903 8.36364ZM35.1314 8.36364C35.1314 9.90483 34.3999 10.7393 33.2848 10.7393C32.1662 10.7393 31.4382 9.90483 31.4382 8.36364C31.4382 6.82244 32.1662 5.98793 33.2848 5.98793C34.3999 5.98793 35.1314 6.82244 35.1314 8.36364ZM43.9125 4.72727H42.3819V9.30114H42.318L39.1788 4.72727H37.8294V12H39.367V7.42259H39.4203L42.5843 12H43.9125V4.72727Z" fill="white"/>
<path d="M12.3949 7.99724C12.3949 10.4535 10.4037 12.4447 7.94744 12.4447C5.49119 12.4447 3.5 10.4535 3.5 7.99724C3.5 5.54099 5.49118 3.5498 7.94744 3.5498C10.4037 3.5498 12.3949 5.54099 12.3949 7.99724Z" fill="#F44C55" stroke="white"/>
<path d="M8 5.5V8.5H10.5" stroke="white" stroke-linecap="round"/>
</svg>
