<svg width="16" height="16" viewBox="0 0 16 16" fill="none" xmlns="http://www.w3.org/2000/svg">
<g clip-path="url(#clip0)">
<path d="M14.3319 7.99751L15.769 6.59111C16.1973 6.18558 15.9976 5.46489 15.4357 5.33051L13.4779 4.83083L14.0298 2.89286C14.1858 2.33542 13.6602 1.80964 13.1029 1.96564L11.1656 2.51773L10.6661 0.559264C10.5339 0.00617015 9.80515 -0.196111 9.40594 0.225889L8 1.67408L6.59409 0.22592C6.19941 -0.191299 5.46762 -0.000142395 5.33394 0.559295L4.83444 2.51776L2.89709 1.96567C2.33969 1.80961 1.81425 2.33558 1.97019 2.89289L2.52209 4.83086L0.56428 5.33054C0.00215518 5.46495 -0.197188 6.18576 0.230999 6.59111L1.66803 7.99751L0.230999 9.40389C-0.197376 9.80942 0.00237399 10.5301 0.564249 10.6645L2.52206 11.1642L1.97016 13.1021C1.81419 13.6596 2.33981 14.1854 2.89706 14.0294L4.83437 13.4773L5.33387 15.4357C5.47259 16.0162 6.19937 16.1863 6.59403 15.7691L8 14.3316L9.40591 15.7691C9.79653 16.1906 10.5305 16.003 10.6661 15.4357L11.1656 13.4773L13.1029 14.0294C13.6602 14.1854 14.1857 13.6595 14.0298 13.1021L13.4779 11.1642L15.4357 10.6645C15.9978 10.53 16.1971 9.80927 15.7689 9.40389L14.3319 7.99751Z" fill="#80AAF3"/>
<g filter="url(#filter0_d)">
<path d="M5.53033 7.46967C5.23744 7.17678 4.76256 7.17678 4.46967 7.46967C4.17678 7.76256 4.17678 8.23744 4.46967 8.53033L5.53033 7.46967ZM7 10L6.46967 10.5303L6.99078 11.0514L7.52095 10.5396L7 10ZM11.6638 6.53955C11.9618 6.25184 11.9701 5.77704 11.6824 5.47905C11.3947 5.18107 10.9199 5.17274 10.6219 5.46045L11.6638 6.53955ZM4.46967 8.53033L6.46967 10.5303L7.53033 9.46967L5.53033 7.46967L4.46967 8.53033ZM7.52095 10.5396L11.6638 6.53955L10.6219 5.46045L6.47905 9.46045L7.52095 10.5396Z" fill="white"/>
</g>
</g>
<defs>
<filter id="filter0_d" x="0.25" y="5.25" width="15.6429" height="13.8014" filterUnits="userSpaceOnUse" color-interpolation-filters="sRGB">
<feFlood flood-opacity="0" result="BackgroundImageFix"/>
<feColorMatrix in="SourceAlpha" type="matrix" values="0 0 0 0 0 0 0 0 0 0 0 0 0 0 0 0 0 0 127 0"/>
<feOffset dy="4"/>
<feGaussianBlur stdDeviation="2"/>
<feColorMatrix type="matrix" values="0 0 0 0 0 0 0 0 0 0 0 0 0 0 0 0 0 0 0.25 0"/>
<feBlend mode="normal" in2="BackgroundImageFix" result="effect1_dropShadow"/>
<feBlend mode="normal" in="SourceGraphic" in2="effect1_dropShadow" result="shape"/>
</filter>
<clipPath id="clip0">
<rect width="16" height="16" fill="white"/>
</clipPath>
</defs>
</svg>
