<svg width="24" height="24" viewBox="0 0 24 24" fill="none" xmlns="http://www.w3.org/2000/svg">
<path d="M18.5 9H21.5V21H18.5V9Z" fill="#00BCD4"/>
<path d="M14.5 13H17.5V21H14.5V13Z" fill="#00BCD4"/>
<path d="M10.5 11H13.5V21H10.5V11Z" fill="#00BCD4"/>
<path d="M6.5 16H9.5V21H6.5V16Z" fill="#00BCD4"/>
<path d="M2.5 14H5.5V21H2.5V14Z" fill="#00BCD4"/>
<path d="M4 9.5C4.82843 9.5 5.5 8.82843 5.5 8C5.5 7.17157 4.82843 6.5 4 6.5C3.17157 6.5 2.5 7.17157 2.5 8C2.5 8.82843 3.17157 9.5 4 9.5Z" fill="#3F51B5"/>
<path d="M8 10.5C8.82843 10.5 9.5 9.82843 9.5 9C9.5 8.17157 8.82843 7.5 8 7.5C7.17157 7.5 6.5 8.17157 6.5 9C6.5 9.82843 7.17157 10.5 8 10.5Z" fill="#3F51B5"/>
<path d="M12 7C12.8284 7 13.5 6.32843 13.5 5.5C13.5 4.67157 12.8284 4 12 4C11.1716 4 10.5 4.67157 10.5 5.5C10.5 6.32843 11.1716 7 12 7Z" fill="#3F51B5"/>
<path d="M16 8C16.8284 8 17.5 7.32843 17.5 6.5C17.5 5.67157 16.8284 5 16 5C15.1716 5 14.5 5.67157 14.5 6.5C14.5 7.32843 15.1716 8 16 8Z" fill="#3F51B5"/>
<path d="M20 6C20.8284 6 21.5 5.32843 21.5 4.5C21.5 3.67157 20.8284 3 20 3C19.1716 3 18.5 3.67157 18.5 4.5C18.5 5.32843 19.1716 6 20 6Z" fill="#3F51B5"/>
<path d="M19.55 3.59998L15.9 5.44998L11.75 4.39998L7.75 7.89998L4.25 7.04998L3.75 8.94998L8.25 10.1L12.25 6.59998L16.1 7.54998L20.45 5.39998L19.55 3.59998Z" fill="#3F51B5"/>
</svg>
