<svg width="24" height="24" viewBox="0 0 24 24" fill="none" xmlns="http://www.w3.org/2000/svg">
<path d="M6 20V10H22V20C22 21.1 21.1 22 20 22H8C6.9 22 6 21.1 6 20Z" fill="#CFD8DC"/>
<path d="M22 8V11H6V8C6 6.9 6.9 6 8 6H20C21.1 6 22 6.9 22 8Z" fill="#78909C"/>
<path d="M18.5 9.5C19.3284 9.5 20 8.82843 20 8C20 7.17157 19.3284 6.5 18.5 6.5C17.6716 6.5 17 7.17157 17 8C17 8.82843 17.6716 9.5 18.5 9.5Z" fill="#37474F"/>
<path d="M10 9.5C10.8284 9.5 11.5 8.82843 11.5 8C11.5 7.17157 10.8284 6.5 10 6.5C9.17157 6.5 8.5 7.17157 8.5 8C8.5 8.82843 9.17157 9.5 10 9.5Z" fill="#37474F"/>
<path d="M18.5 5C17.95 5 17.5 5.45 17.5 6V8C17.5 8.55 17.95 9 18.5 9C19.05 9 19.5 8.55 19.5 8V6C19.5 5.45 19.05 5 18.5 5Z" fill="#B0BEC5"/>
<path d="M10 5C9.45 5 9 5.45 9 6V8C9 8.55 9.45 9 10 9C10.55 9 11 8.55 11 8V6C11 5.45 10.55 5 10 5Z" fill="#B0BEC5"/>
<path d="M16 17H18V19H16V17Z" fill="#90A4AE"/>
<path d="M13 17H15V19H13V17Z" fill="#90A4AE"/>
<path d="M10 17H12V19H10V17Z" fill="#90A4AE"/>
<path d="M16 14H18V16H16V14Z" fill="#90A4AE"/>
<path d="M13 14H15V16H13V14Z" fill="#90A4AE"/>
<path d="M10 14H12V16H10V14Z" fill="#90A4AE"/>
<path d="M8 13.5C11.3137 13.5 14 10.8137 14 7.5C14 4.18629 11.3137 1.5 8 1.5C4.68629 1.5 2 4.18629 2 7.5C2 10.8137 4.68629 13.5 8 13.5Z" fill="#F44336"/>
<path d="M8 12C10.4853 12 12.5 9.98528 12.5 7.5C12.5 5.01472 10.4853 3 8 3C5.51472 3 3.5 5.01472 3.5 7.5C3.5 9.98528 5.51472 12 8 12Z" fill="#EEEEEE"/>
<path d="M7.5 4H8.5V7.5H7.5V4Z" fill="black"/>
<path d="M10.259 9.04998L9.58747 9.72198L7.67847 7.81298L8.35047 7.14148L10.259 9.04998Z" fill="black"/>
<path d="M8 8.25C8.41421 8.25 8.75 7.91421 8.75 7.5C8.75 7.08579 8.41421 6.75 8 6.75C7.58579 6.75 7.25 7.08579 7.25 7.5C7.25 7.91421 7.58579 8.25 8 8.25Z" fill="black"/>
</svg>
