<svg width="24" height="24" viewBox="0 0 24 24" fill="none" xmlns="http://www.w3.org/2000/svg">
<path d="M10.6 22.4L1.6 13.4C0.8 12.6 0.8 11.35 1.6 10.55L10.6 1.54995C11.4 0.749951 12.65 0.749951 13.45 1.54995L22.45 10.55C23.25 11.35 23.25 12.6 22.45 13.4L13.45 22.4C12.65 23.1999 11.35 23.1999 10.6 22.4Z" fill="#F44336"/>
<path d="M10.8 16.35C10.8 16.2 10.85 16.05 10.9 15.9C10.95 15.75 11.05 15.65 11.15 15.55C11.25 15.45 11.4 15.35 11.55 15.3C11.7 15.25 11.85 15.2 12.05 15.2C12.25 15.2 12.4 15.25 12.55 15.3C12.7 15.35 12.85 15.45 12.95 15.55C13.05 15.65 13.15 15.75 13.2 15.9C13.25 16.05 13.3 16.2 13.3 16.35C13.3 16.5 13.25 16.65 13.2 16.8C13.15 16.95 13.05 17.05 12.95 17.15C12.85 17.25 12.7 17.35 12.55 17.4C12.4 17.45 12.25 17.5 12.05 17.5C11.85 17.5 11.7 17.45 11.55 17.4C11.4 17.35 11.3 17.25 11.15 17.15C11.05 17.05 10.95 16.95 10.9 16.8C10.85 16.65 10.8 16.55 10.8 16.35ZM12.9 14.05H11.1L10.85 6.5H13.15L12.9 14.05Z" fill="white"/>
</svg>
