<svg width="24" height="24" viewBox="0 0 24 24" fill="none" xmlns="http://www.w3.org/2000/svg">
<path d="M12 21C17.5228 21 22 16.5228 22 11C22 5.47715 17.5228 1 12 1C6.47715 1 2 5.47715 2 11C2 16.5228 6.47715 21 12 21Z" fill="#FFF59D"/>
<path d="M18.5 11C18.5 7.15 15.2 4.1 11.25 4.55C8.24996 4.9 5.84996 7.3 5.54996 10.3C5.29996 12.6 6.24996 14.65 7.84996 15.95C8.54996 16.55 8.99996 17.4 8.99996 18.35V18.5H15V18.45C15 17.55 15.4 16.65 16.1 16.05C17.55 14.85 18.5 13.05 18.5 11Z" fill="#FBC02D"/>
<path d="M15.3 10.1L13.8 9.10002C13.65 9.00002 13.4 9.00002 13.25 9.10002L12 9.90002L10.8 9.10002C10.65 9.00002 10.4 9.00002 10.25 9.10002L8.75005 10.1C8.65005 10.2 8.55005 10.3 8.55005 10.45C8.55005 10.6 8.55005 10.75 8.65005 10.85L10.55 13.2V18.5H11.55V13C11.55 12.9 11.5 12.8 11.45 12.7L9.80005 10.65L10.55 10.15L11.75 10.95C11.9 11.05 12.15 11.05 12.3 10.95L13.5 10.15L14.25 10.65L12.6 12.7C12.55 12.8 12.5 12.9 12.5 13V18.5H13.5V13.2L15.4 10.85C15.5 10.75 15.55 10.6 15.5 10.45C15.45 10.3 15.4 10.15 15.3 10.1Z" fill="#FFF59D"/>
<path d="M12 23.5C12.8284 23.5 13.5 22.8284 13.5 22C13.5 21.1716 12.8284 20.5 12 20.5C11.1716 20.5 10.5 21.1716 10.5 22C10.5 22.8284 11.1716 23.5 12 23.5Z" fill="#5C6BC0"/>
<path d="M13 22.5H11C9.9 22.5 9 21.6 9 20.5V18H15V20.5C15 21.6 14.1 22.5 13 22.5Z" fill="#9FA8DA"/>
<path d="M15 20.5L9.19995 21.3C9.34995 21.65 9.64995 22 9.99995 22.2L14.7 21.55C14.9 21.25 15 20.9 15 20.5Z" fill="#5C6BC0"/>
<path d="M9 19.35V20.35L15 19.5V18.5L9 19.35Z" fill="#5C6BC0"/>
</svg>
