<svg width="20" height="20" viewBox="0 0 20 20" fill="none" xmlns="http://www.w3.org/2000/svg">
<path d="M9.99984 18.3337C14.6022 18.3337 18.3332 14.6027 18.3332 10.0003C18.3332 5.39795 14.6022 1.66699 9.99984 1.66699C5.39746 1.66699 1.6665 5.39795 1.6665 10.0003C1.6665 14.6027 5.39746 18.3337 9.99984 18.3337Z" fill="#755BCF"/>
<path d="M10.0002 16.6663C13.6821 16.6663 16.6668 13.6816 16.6668 9.99967C16.6668 6.31778 13.6821 3.33301 10.0002 3.33301C6.31826 3.33301 3.3335 6.31778 3.3335 9.99967C3.3335 13.6816 6.31826 16.6663 10.0002 16.6663Z" fill="#EEEEEE"/>
<path d="M9.5835 4.58301H10.4168V9.99967H9.5835V4.58301Z" fill="black"/>
<path d="M13.0355 12.3559L12.3584 13.0334L9.64844 10.3234L10.3259 9.64551L13.0355 12.3559Z" fill="black"/>
<path d="M9.99984 10.8337C10.4601 10.8337 10.8332 10.4606 10.8332 10.0003C10.8332 9.54009 10.4601 9.16699 9.99984 9.16699C9.5396 9.16699 9.1665 9.54009 9.1665 10.0003C9.1665 10.4606 9.5396 10.8337 9.99984 10.8337Z" fill="black"/>
<path d="M10.0002 10.4163C10.2303 10.4163 10.4168 10.2298 10.4168 9.99967C10.4168 9.76956 10.2303 9.58301 10.0002 9.58301C9.77004 9.58301 9.5835 9.76956 9.5835 9.99967C9.5835 10.2298 9.77004 10.4163 10.0002 10.4163Z" fill="#755BCF"/>
</svg>
