<svg width="12" height="14" viewBox="0 0 12 14" fill="none" xmlns="http://www.w3.org/2000/svg">
<path d="M12 4.95967C11.9931 4.89843 11.9796 4.8381 11.96 4.77967V4.71967C11.9279 4.65113 11.8852 4.58812 11.8333 4.53301L7.83333 0.533008C7.77822 0.481152 7.71521 0.438395 7.64667 0.406341C7.62677 0.403515 7.60657 0.403515 7.58667 0.406341C7.51894 0.367502 7.44415 0.342571 7.36667 0.333008H4.66667C4.13623 0.333008 3.62753 0.543722 3.25245 0.918794C2.87738 1.29387 2.66667 1.80257 2.66667 2.33301V2.99967H2C1.46957 2.99967 0.960859 3.21039 0.585787 3.58546C0.210714 3.96053 0 4.46924 0 4.99967V11.6663C0 12.1968 0.210714 12.7055 0.585787 13.0806C0.960859 13.4556 1.46957 13.6663 2 13.6663H7.33333C7.86377 13.6663 8.37247 13.4556 8.74755 13.0806C9.12262 12.7055 9.33333 12.1968 9.33333 11.6663V10.9997H10C10.5304 10.9997 11.0391 10.789 11.4142 10.4139C11.7893 10.0388 12 9.53011 12 8.99967V4.99967V4.95967ZM8 2.60634L9.72667 4.33301H8.66667C8.48986 4.33301 8.32029 4.26277 8.19526 4.13775C8.07024 4.01272 8 3.84315 8 3.66634V2.60634ZM8 11.6663C8 11.8432 7.92976 12.0127 7.80474 12.1377C7.67971 12.2628 7.51014 12.333 7.33333 12.333H2C1.82319 12.333 1.65362 12.2628 1.5286 12.1377C1.40357 12.0127 1.33333 11.8432 1.33333 11.6663V4.99967C1.33333 4.82286 1.40357 4.65329 1.5286 4.52827C1.65362 4.40325 1.82319 4.33301 2 4.33301H2.66667V8.99967C2.66667 9.53011 2.87738 10.0388 3.25245 10.4139C3.62753 10.789 4.13623 10.9997 4.66667 10.9997H8V11.6663ZM10.6667 8.99967C10.6667 9.17649 10.5964 9.34606 10.4714 9.47108C10.3464 9.5961 10.1768 9.66634 10 9.66634H4.66667C4.48986 9.66634 4.32029 9.5961 4.19526 9.47108C4.07024 9.34606 4 9.17649 4 8.99967V2.33301C4 2.1562 4.07024 1.98663 4.19526 1.8616C4.32029 1.73658 4.48986 1.66634 4.66667 1.66634H6.66667V3.66634C6.66667 4.19677 6.87738 4.70548 7.25245 5.08055C7.62753 5.45563 8.13623 5.66634 8.66667 5.66634H10.6667V8.99967Z" fill="#9568FF"/>
</svg>
