<svg width="14" height="14" viewBox="0 0 14 14" fill="none" xmlns="http://www.w3.org/2000/svg">
<path d="M11 6.21301C10.8232 6.21301 10.6537 6.28325 10.5286 6.40827C10.4036 6.53329 10.3334 6.70286 10.3334 6.87967V11.6663C10.3334 11.8432 10.2631 12.0127 10.1381 12.1377C10.0131 12.2628 9.84352 12.333 9.66671 12.333H2.33337C2.15656 12.333 1.98699 12.2628 1.86197 12.1377C1.73695 12.0127 1.66671 11.8432 1.66671 11.6663V4.33301C1.66671 4.1562 1.73695 3.98663 1.86197 3.8616C1.98699 3.73658 2.15656 3.66634 2.33337 3.66634H7.12004C7.29685 3.66634 7.46642 3.5961 7.59145 3.47108C7.71647 3.34605 7.78671 3.17649 7.78671 2.99967C7.78671 2.82286 7.71647 2.65329 7.59145 2.52827C7.46642 2.40325 7.29685 2.33301 7.12004 2.33301H2.33337C1.80294 2.33301 1.29423 2.54372 0.919161 2.91879C0.544088 3.29387 0.333374 3.80257 0.333374 4.33301V11.6663C0.333374 12.1968 0.544088 12.7055 0.919161 13.0806C1.29423 13.4556 1.80294 13.6663 2.33337 13.6663H9.66671C10.1971 13.6663 10.7058 13.4556 11.0809 13.0806C11.456 12.7055 11.6667 12.1968 11.6667 11.6663V6.87967C11.6667 6.70286 11.5965 6.53329 11.4714 6.40827C11.3464 6.28325 11.1769 6.21301 11 6.21301ZM13.6134 0.746341C13.5457 0.583442 13.4163 0.453991 13.2534 0.386341C13.1732 0.35218 13.0872 0.334061 13 0.333008H9.00004C8.82323 0.333008 8.65366 0.403246 8.52864 0.52827C8.40361 0.653294 8.33337 0.822863 8.33337 0.999674C8.33337 1.17649 8.40361 1.34605 8.52864 1.47108C8.65366 1.5961 8.82323 1.66634 9.00004 1.66634H11.3934L4.52671 8.52634C4.46422 8.58832 4.41463 8.66205 4.38078 8.74329C4.34693 8.82453 4.32951 8.91167 4.32951 8.99967C4.32951 9.08768 4.34693 9.17482 4.38078 9.25606C4.41463 9.3373 4.46422 9.41103 4.52671 9.47301C4.58868 9.53549 4.66242 9.58509 4.74366 9.61894C4.8249 9.65278 4.91203 9.67021 5.00004 9.67021C5.08805 9.67021 5.17519 9.65278 5.25643 9.61894C5.33767 9.58509 5.4114 9.53549 5.47337 9.47301L12.3334 2.60634V4.99967C12.3334 5.17649 12.4036 5.34605 12.5286 5.47108C12.6537 5.5961 12.8232 5.66634 13 5.66634C13.1769 5.66634 13.3464 5.5961 13.4714 5.47108C13.5965 5.34605 13.6667 5.17649 13.6667 4.99967V0.999674C13.6657 0.912556 13.6475 0.826489 13.6134 0.746341Z" fill="#9568FF"/>
</svg>
