<svg width="47" height="39" viewBox="0 0 47 39" fill="none" xmlns="http://www.w3.org/2000/svg">
<circle opacity="0.1" cx="18.5" cy="18.5" r="18.5" fill="url(#paint0_linear)"/>
<circle cx="18.4997" cy="18.5002" r="13.1731" fill="white" stroke="white" stroke-width="5"/>
<path d="M21.2578 11H18.0781L14.1172 13.5078V16.5078L17.7813 14.2109H17.875V27H21.2578V11Z" fill="url(#paint1_linear)"/>
<g clip-path="url(#clip0)">
<path d="M28.5567 23.2275H44.1451C45 23.2275 45.7018 23.9294 45.7018 24.7843V26.6523C45.7018 27.5072 45 28.2091 44.1451 28.2091H28.5567C27.7018 28.2196 27 27.5178 27 26.6576V24.7895C27 23.9294 27.7018 23.2275 28.5567 23.2275Z" fill="#755BCF"/>
<path d="M31.9714 24.9L41.7286 22.3143C42.0558 22.2193 42.3988 22.4251 42.4938 22.7523L44.1138 28.7364C44.2088 29.0636 44.003 29.4066 43.6758 29.5016L30.974 32.8789C30.6468 32.9739 30.3038 32.7681 30.2088 32.4409L29.0215 28.0451L31.9714 24.9Z" fill="#3DB39E"/>
<path d="M42.4145 28.5467L40.3089 29.1061C40.1401 29.1536 39.9659 29.0586 39.9343 28.8898C39.8868 28.7209 39.9818 28.5467 40.1506 28.5151L41.9606 28.0296L40.9949 24.4148L39.1902 24.9003C39.0213 24.9478 38.8472 24.8528 38.8155 24.6839C38.768 24.5151 38.863 24.3409 39.0319 24.3093L41.1374 23.7446C41.3063 23.6971 41.4804 23.7921 41.5121 23.961L42.6361 28.1721C42.6836 28.3409 42.5886 28.5151 42.4145 28.5467ZM33.6863 30.9003L31.5807 31.4597C31.4118 31.5072 31.2377 31.4122 31.206 31.2433L30.082 27.0322C30.0345 26.8634 30.1295 26.6892 30.2984 26.6576L32.4039 26.0982C32.5728 26.0507 32.7469 26.1457 32.7786 26.3146C32.8261 26.4834 32.7311 26.6576 32.5622 26.6892L30.7575 27.1747L31.7232 30.7895L33.5332 30.304C33.7021 30.2565 33.8762 30.3515 33.9079 30.5204C33.9501 30.6787 33.8604 30.8528 33.6863 30.9003Z" fill="#78CABB"/>
<path d="M27.1266 27.0793C29.897 25.491 37.3799 21.111 37.3799 21.111C37.6754 20.9421 38.0659 21.0319 38.2348 21.3274L41.3535 26.6888C41.5224 26.9844 41.4168 27.359 41.1213 27.5332L29.7123 34.0767C29.4168 34.2456 29.0263 34.1559 28.8522 33.8604C28.8522 33.8604 27.9815 32.082 27.1055 30.5886C27.1107 27.0793 27.1266 28.235 27.1266 27.0793Z" fill="#5ABEAC"/>
<path d="M39.7652 26.5201L37.5805 22.7471C37.4855 22.5887 37.3008 22.5465 37.1583 22.6362L35.2744 23.7286C35.1161 23.8236 35.0739 24.0083 35.1636 24.1508C35.2586 24.3091 35.4433 24.3513 35.5857 24.2616L37.2111 23.3223L39.0791 26.5624L37.4591 27.4964C37.3008 27.5914 37.2586 27.7761 37.3483 27.9186C37.4433 28.0769 37.628 28.1191 37.7704 28.0294L39.6543 26.937C39.7968 26.8632 39.8602 26.6732 39.7652 26.5201ZM31.5066 30.9318L29.8865 31.8658L28.0184 28.6257L29.6385 27.6917C29.7968 27.5967 29.839 27.412 29.7493 27.2695C29.6543 27.1112 29.4696 27.069 29.3272 27.1587L27.438 28.251C27.2797 28.346 27.2374 28.5307 27.3272 28.6732L29.5119 32.4463C29.6068 32.6046 29.7915 32.6468 29.934 32.5571L31.8179 31.4647C31.9762 31.3698 32.0185 31.1851 31.9287 31.0426C31.8496 30.9001 31.6596 30.8368 31.5066 30.9318ZM32.2981 25.4278C31.1002 26.1138 30.6939 27.6389 31.3799 28.8421C32.0818 30.0399 33.591 30.4463 34.7942 29.7603C35.9921 29.0742 36.3984 27.5492 35.7124 26.346C35.0105 25.1639 33.5013 24.7418 32.2981 25.4278ZM39.7652 26.5201L37.5805 22.7471C37.4855 22.5887 37.3008 22.5465 37.1583 22.6362L35.2744 23.7286C35.1161 23.8236 35.0739 24.0083 35.1636 24.1508C35.2586 24.3091 35.4433 24.3513 35.5857 24.2616L37.2111 23.3223L39.0791 26.5624L37.4591 27.4964C37.3008 27.5914 37.2586 27.7761 37.3483 27.9186C37.4433 28.0769 37.628 28.1191 37.7704 28.0294L39.6543 26.937C39.7968 26.8632 39.8602 26.6732 39.7652 26.5201ZM31.5066 30.9318L29.8865 31.8658L28.0184 28.6257L29.6385 27.6917C29.7968 27.5967 29.839 27.412 29.7493 27.2695C29.6543 27.1112 29.4696 27.069 29.3272 27.1587L27.438 28.251C27.2797 28.346 27.2374 28.5307 27.3272 28.6732L29.5119 32.4463C29.6068 32.6046 29.7915 32.6468 29.934 32.5571L31.8179 31.4647C31.9762 31.3698 32.0185 31.1851 31.9287 31.0426C31.8496 30.9001 31.6596 30.8368 31.5066 30.9318ZM32.2981 25.4278C31.1002 26.1138 30.6939 27.6389 31.3799 28.8421C32.0818 30.0399 33.591 30.4463 34.7942 29.7603C35.9921 29.0742 36.3984 27.5492 35.7124 26.346C35.0105 25.1639 33.5013 24.7418 32.2981 25.4278Z" fill="#8CD2C5"/>
<path d="M44.7678 38.8154H28.5567C27.7018 38.8154 27 38.1136 27 37.2587V26.0344H44.7678C45.6227 26.0344 46.3245 26.7363 46.3245 27.5912V37.2534C46.3298 38.1136 45.628 38.8154 44.7678 38.8154ZM28.2454 26.0344H27V24.7891C27 25.4751 27.5594 26.0344 28.2454 26.0344Z" fill="#755BCF"/>
<path d="M46.3297 34.9212H43.8336C42.6357 34.9212 41.6489 33.9396 41.6489 32.7365C41.6489 31.5386 42.6305 30.5518 43.8336 30.5518H46.3297C46.6727 30.5518 46.9524 30.8314 46.9524 31.1744V34.2985C46.9524 34.6415 46.6727 34.9212 46.3297 34.9212Z" fill="#5738C2"/>
<path d="M43.8338 31.4912C44.5198 31.4912 45.0791 32.0506 45.0791 32.7366C45.0791 33.4226 44.5198 33.982 43.8338 33.982C43.1477 33.982 42.5884 33.4226 42.5884 32.7366C42.5884 32.0506 43.1477 31.4912 43.8338 31.4912Z" fill="white"/>
<path d="M44.1451 33.676C43.4591 33.676 42.8997 33.1166 42.8997 32.4306C42.8997 32.1667 42.9789 31.9134 43.1161 31.7129C42.7889 31.9293 42.5884 32.3039 42.5884 32.7419C42.5884 33.4279 43.1477 33.9873 43.8338 33.9873C44.2559 33.9873 44.6306 33.771 44.8628 33.4596C44.6623 33.5968 44.409 33.676 44.1451 33.676Z" fill="white"/>
<path d="M44.7678 38.1934H28.5567C27.7018 38.1934 27 37.4916 27 36.6367V37.2594C27 38.1143 27.7018 38.8161 28.5567 38.8161H44.7678C45.6227 38.8161 46.3245 38.1143 46.3245 37.2594V36.6367C46.3298 37.4916 45.628 38.1934 44.7678 38.1934Z" fill="#5738C2"/>
<path d="M44.7678 26.0344H28.2454C27.5594 26.0344 27 25.4751 27 24.7891V25.4118C27 26.0978 27.5594 26.6571 28.2454 26.6571H44.7678C45.6227 26.6571 46.3245 27.359 46.3245 28.2139V27.5964C46.3298 26.7363 45.628 26.0344 44.7678 26.0344Z" fill="#5738C2"/>
</g>
<defs>
<linearGradient id="paint0_linear" x1="0.0307773" y1="18.4876" x2="36.9938" y2="18.4876" gradientUnits="userSpaceOnUse">
<stop stop-color="#5A39BF"/>
<stop offset="1" stop-color="#A036EE"/>
</linearGradient>
<linearGradient id="paint1_linear" x1="30.7467" y1="32" x2="12.7345" y2="31.031" gradientUnits="userSpaceOnUse">
<stop stop-color="#236BFE"/>
<stop offset="1" stop-color="#D856FF"/>
</linearGradient>
<clipPath id="clip0">
<rect width="20" height="17.8364" fill="white" transform="translate(27 21)"/>
</clipPath>
</defs>
</svg>
