<svg width="47" height="39" viewBox="0 0 47 39" fill="none" xmlns="http://www.w3.org/2000/svg">
<circle opacity="0.1" cx="18.5" cy="18.5" r="18.5" fill="url(#paint0_linear)"/>
<circle cx="18.4997" cy="18.5002" r="13.1731" fill="white" stroke="white" stroke-width="5"/>
<path d="M13.2969 26H24.7031V23.2344H17.9844V23.125L20.3203 20.8359C23.6094 17.8359 24.4922 16.3359 24.4922 14.5156C24.4922 11.7422 22.2266 9.78125 18.7969 9.78125C15.4375 9.78125 13.1328 11.7891 13.1406 14.9297H16.3516C16.3438 13.3984 17.3125 12.4609 18.7734 12.4609C20.1797 12.4609 21.2266 13.3359 21.2266 14.7422C21.2266 16.0156 20.4453 16.8906 18.9922 18.2891L13.2969 23.5625V26Z" fill="url(#paint1_linear)"/>
<path d="M47 28.9974C47 34.5197 42.525 38.9947 37.0026 38.9947C34.3526 38.9947 31.8083 37.9421 29.9304 36.0643C28.0526 34.1865 27 31.6527 27 28.9974C27 23.475 31.475 19 36.9974 19C42.525 19 47 23.475 47 28.9974Z" fill="#755BCF"/>
<path fill-rule="evenodd" clip-rule="evenodd" d="M38.916 34H35.084C34.3445 34 33.7731 33.82 33.3866 33.46C33 33.118 32.8151 32.596 32.8151 31.912V29.5H35.4706V31.156C35.4706 31.714 35.7563 31.984 36.3109 31.984H37.7731C38.2437 31.966 38.5126 31.75 38.5798 31.354V29.5H41.2017V31.876C41.2017 32.218 41.1345 32.524 41.0336 32.776C40.916 33.046 40.7647 33.262 40.563 33.442C40.3613 33.622 40.1261 33.766 39.8403 33.856C39.5714 33.964 39.2521 34 38.916 34ZM41.2017 28.222V29.5H43V28.222H41.2017ZM38.5798 28.222H41.2017V25H38.5798V28.222ZM32.7983 28.222V29.5H31V28.222H32.7983ZM32.7983 28.222V25H35.4538V28.222H32.7983Z" fill="white"/>
<defs>
<linearGradient id="paint0_linear" x1="0.0307773" y1="18.4876" x2="36.9938" y2="18.4876" gradientUnits="userSpaceOnUse">
<stop stop-color="#5A39BF"/>
<stop offset="1" stop-color="#A036EE"/>
</linearGradient>
<linearGradient id="paint1_linear" x1="34.5867" y1="31" x2="11.703" y2="29.4331" gradientUnits="userSpaceOnUse">
<stop stop-color="#236BFE"/>
<stop offset="1" stop-color="#D856FF"/>
</linearGradient>
</defs>
</svg>
