<svg width="47" height="39" viewBox="0 0 47 39" fill="none" xmlns="http://www.w3.org/2000/svg">
<circle opacity="0.1" cx="18.5" cy="18.5" r="18.5" fill="url(#paint0_linear)"/>
<circle cx="18.4997" cy="18.5002" r="13.1731" fill="white" stroke="white" stroke-width="5"/>
<path d="M19.2109 27.2187C22.8047 27.2187 25.375 25.2422 25.3672 22.5078C25.375 20.5156 24.1094 19.0938 21.7578 18.7969V18.6719C23.5469 18.3516 24.7813 17.0859 24.7734 15.2891C24.7813 12.7656 22.5703 10.7812 19.2578 10.7812C15.9766 10.7812 13.5078 12.7031 13.4609 15.4687H16.7031C16.7422 14.25 17.8594 13.4609 19.2422 13.4609C20.6094 13.4609 21.5234 14.2891 21.5156 15.4922C21.5234 16.75 20.4531 17.6016 18.9141 17.6016H17.4219V20.0859H18.9141C20.7266 20.0859 21.8594 20.9922 21.8516 22.2812C21.8594 23.5547 20.7656 24.4297 19.2188 24.4297C17.7266 24.4297 16.6094 23.6484 16.5469 22.4766H13.1406C13.1953 25.2734 15.6953 27.2187 19.2109 27.2187Z" fill="url(#paint1_linear)"/>
<g clip-path="url(#clip0)">
<path d="M27.9497 19H46.0289V34.5726H27.9655L27.9497 19Z" fill="#5738C2"/>
<path d="M27.0161 22.7414V37.8127C27.0161 38.5462 27.6071 38.9525 28.3407 38.9525H45.6441C46.3776 38.9525 46.9686 38.5462 46.9686 37.8127V22.7414C46.9686 22.7573 27.0319 22.7414 27.0161 22.7414ZM29.8235 20.2612L27.9502 19V22.1187H29.8182V20.2612H29.8235ZM46.0346 19L44.1665 20.2454V22.1135H46.0346V19Z" fill="#755BCF"/>
<path d="M29.8232 22.7421V20.2461L27 22.7421H29.8232ZM44.1609 20.2461V22.7421H47L44.1609 20.2461Z" fill="#5738C2"/>
<path d="M31.4433 26.3252C30.9736 26.3252 30.5884 26.7157 30.5884 27.1801C30.5884 27.6497 30.963 28.035 31.4433 28.035C31.9129 28.035 32.2981 27.6445 32.2981 27.1801C32.314 26.7157 31.9235 26.3252 31.4433 26.3252ZM41.8865 26.3252C41.4169 26.3252 41.0317 26.7157 41.0317 27.1801C41.0317 27.6497 41.4063 28.035 41.8865 28.035C42.3562 28.035 42.7414 27.6445 42.7414 27.1801C42.7573 26.7157 42.3668 26.3252 41.8865 26.3252Z" fill="#5738C2"/>
<path d="M36.6779 33.4961C33.575 33.4961 31.0684 30.752 31.0684 27.3694C31.0684 27.1372 31.2425 26.9473 31.4589 26.9473C31.6752 26.9473 31.8494 27.132 31.8494 27.3694C31.8494 30.2824 34.0182 32.6359 36.6831 32.6359C39.348 32.6359 41.5169 30.2665 41.5169 27.3694C41.5169 27.1372 41.6911 26.9473 41.9074 26.9473C42.1238 26.9473 42.2979 27.132 42.2979 27.3694C42.2926 30.752 39.7649 33.4961 36.6779 33.4961Z" fill="#5738C2"/>
<path d="M36.6779 33.0155C33.575 33.0155 31.0684 30.4772 31.0684 27.3427C31.0684 27.1263 31.2425 26.9521 31.4589 26.9521C31.6752 26.9521 31.8494 27.121 31.8494 27.3427C31.8494 30.0392 34.0182 32.2398 36.6831 32.2398C39.348 32.2398 41.5169 30.0445 41.5169 27.3427C41.5169 27.1263 41.6911 26.9521 41.9074 26.9521C42.1238 26.9521 42.2979 27.121 42.2979 27.3427C42.2926 30.4719 39.7649 33.0155 36.6779 33.0155Z" fill="white"/>
</g>
<defs>
<linearGradient id="paint0_linear" x1="0.0307773" y1="18.4876" x2="36.9938" y2="18.4876" gradientUnits="userSpaceOnUse">
<stop stop-color="#5A39BF"/>
<stop offset="1" stop-color="#A036EE"/>
</linearGradient>
<linearGradient id="paint1_linear" x1="36.2" y1="32" x2="11.6987" y2="30.2025" gradientUnits="userSpaceOnUse">
<stop stop-color="#236BFE"/>
<stop offset="1" stop-color="#D856FF"/>
</linearGradient>
<clipPath id="clip0">
<rect width="20" height="19.9525" fill="white" transform="translate(27 19)"/>
</clipPath>
</defs>
</svg>
