<svg width="47" height="40" viewBox="0 0 47 40" fill="none" xmlns="http://www.w3.org/2000/svg">
<circle opacity="0.1" cx="18.5" cy="18.5" r="18.5" fill="url(#paint0_linear)"/>
<circle cx="18.4997" cy="18.5002" r="13.1731" fill="white" stroke="white" stroke-width="5"/>
<path d="M12.0547 23.1875H19.7344V26H22.9688V23.1875H24.9531V20.4766H22.9688V10H18.7344L12.0547 20.5234V23.1875ZM19.7969 20.4766H15.4609V20.3516L19.6719 13.6875H19.7969V20.4766Z" fill="url(#paint1_linear)"/>
<g clip-path="url(#clip0)">
<path d="M33.2219 34.0945C34.0949 34.9675 34.0949 36.4067 33.2219 37.285C32.3489 38.158 29.7669 39.3009 28.8939 38.4278C28.0208 37.5548 29.1584 34.9728 30.0367 34.0998C30.9097 33.2215 32.3277 33.2215 33.2219 34.0945Z" fill="#F04758"/>
<path d="M30.6084 33.6718V33.7671C30.6084 35.3914 31.9364 36.7194 33.5608 36.7194H33.6243C34.0634 35.8782 33.9206 34.8147 33.201 34.0951C32.5185 33.3914 31.455 33.2538 30.6084 33.6718Z" fill="#C82A3A"/>
<path d="M37.8147 29.1901C40.4866 31.8621 41.021 35.661 38.4866 38.1901L37.2856 39.3912C34.7512 41.9256 36.5025 35.8409 33.8305 33.169C31.1586 30.497 25.0633 32.2642 27.6083 29.714L28.8147 28.5182C31.3438 25.9838 35.1427 26.5129 37.8147 29.1901Z" fill="#6339C5"/>
<path d="M46.6609 20.3436C47.4757 21.1584 47.1159 26.3118 42.1265 31.3171C38.8779 34.5499 36.8302 35.6928 36.8302 35.6928C34.6556 37.1637 33.6133 36.1637 32.2376 34.788C30.862 33.4124 29.8461 32.3647 31.3329 30.1954C31.3329 30.1954 32.4916 28.1319 35.7244 24.8833C40.7085 19.8885 45.8461 19.5129 46.6609 20.3436Z" fill="#E4D9EE"/>
<path d="M37.6927 34.9839C35.4281 36.5024 34.3329 35.4707 32.9096 34.0474C31.4704 32.6082 30.4228 31.5289 31.9731 29.2643L32.2059 28.8887C31.5974 29.7194 31.3329 30.185 31.3329 30.185C29.8461 32.3596 30.862 33.4072 32.2376 34.7829C33.6133 36.1585 34.6609 37.1426 36.8302 35.6876C36.8302 35.6876 37.7985 35.1426 39.4705 33.7511C38.3329 34.6294 37.6927 34.9839 37.6927 34.9839Z" fill="#755BCF"/>
<path d="M41.4231 25.5763C42.1903 26.3435 42.1903 27.5763 41.4231 28.3435C40.656 29.1107 39.4232 29.1107 38.656 28.3435C37.8888 27.5763 37.8888 26.3435 38.656 25.5763C39.4232 24.8144 40.6771 24.8144 41.4231 25.5763Z" fill="white"/>
<path d="M36.9102 30.4229C37.3017 30.8144 36.5504 32.206 34.6456 34.1107C32.7409 36.0155 31.5821 36.534 31.1906 36.1266C30.7991 35.735 31.3017 34.5816 33.2065 32.6716C35.1271 30.7668 36.5028 30.0155 36.9102 30.4229Z" fill="#6339C5"/>
<path d="M40.0526 25.4709C40.4442 25.4709 40.8198 25.6296 41.1003 25.9101C41.3807 26.1905 41.5394 26.5661 41.5394 26.9577C41.5394 27.3492 41.3807 27.7249 41.1003 28.0053C40.8198 28.2857 40.4442 28.4444 40.0526 28.4444C39.6611 28.4444 39.2854 28.2857 39.005 28.0053C38.7246 27.7249 38.5659 27.3492 38.5659 26.9577C38.5659 26.5661 38.7246 26.1905 39.005 25.9101C39.2854 25.6243 39.6611 25.4709 40.0526 25.4709ZM40.0526 25C39.55 25 39.0526 25.1852 38.677 25.5767C37.9098 26.3439 37.9098 27.5767 38.677 28.3439C39.0526 28.7196 39.55 28.9206 40.0526 28.9206C40.55 28.9206 41.0526 28.7354 41.4283 28.3439C42.1955 27.5767 42.1955 26.3439 41.4283 25.5767C41.0526 25.1852 40.55 25 40.0526 25Z" fill="#324D5B"/>
<path d="M41.8779 20.735C42.0208 21.7827 42.5816 22.8938 43.5023 23.8144C44.3171 24.6133 45.2536 25.1424 46.1742 25.3594C47.206 22.7985 47.1266 20.825 46.661 20.3435C46.206 19.8726 44.333 19.7932 41.8779 20.735Z" fill="#6339C5"/>
</g>
<defs>
<linearGradient id="paint0_linear" x1="0.0307773" y1="18.4876" x2="36.9938" y2="18.4876" gradientUnits="userSpaceOnUse">
<stop stop-color="#5A39BF"/>
<stop offset="1" stop-color="#A036EE"/>
</linearGradient>
<linearGradient id="paint1_linear" x1="35.2" y1="31" x2="10.6987" y2="29.2025" gradientUnits="userSpaceOnUse">
<stop stop-color="#236BFE"/>
<stop offset="1" stop-color="#D856FF"/>
</linearGradient>
<clipPath id="clip0">
<rect width="20" height="20" fill="white" transform="translate(27 20)"/>
</clipPath>
</defs>
</svg>
