<svg width="47" height="38" viewBox="0 0 47 38" fill="none" xmlns="http://www.w3.org/2000/svg">
<circle opacity="0.1" cx="18.5" cy="18.5" r="18.5" fill="url(#paint0_linear)"/>
<circle cx="18.4997" cy="18.5002" r="13.1731" fill="white" stroke="white" stroke-width="5"/>
<path d="M18.1406 26.2187C21.7031 26.2187 24.125 23.8984 24.1172 20.6641C24.125 17.6016 21.9844 15.3984 19.1016 15.3984C17.6953 15.3984 16.4844 15.9844 15.9219 16.7734H15.8281L16.2422 12.7656H23.2344V10H13.4531L12.6953 18.4375L15.7031 18.9766C16.1953 18.3125 17.1484 17.8984 18.0938 17.8984C19.7031 17.9062 20.8594 19.0703 20.8594 20.75C20.8594 22.4141 19.7266 23.5625 18.1406 23.5625C16.7969 23.5625 15.7109 22.7187 15.6328 21.4766H12.3516C12.4141 24.2422 14.8281 26.2187 18.1406 26.2187Z" fill="url(#paint1_linear)"/>
<path d="M45.3337 35.2223C45.3337 36.4446 44.3337 37.4446 43.1114 37.4446H30.8892C29.667 37.4446 28.667 36.4446 28.667 35.2223V25.7779C28.667 24.5557 29.667 23.5557 30.8892 23.5557H43.1114C44.3337 23.5557 45.3337 24.5557 45.3337 25.7779V35.2223Z" fill="#FDD888"/>
<path d="M47 24.1109C47 25.3331 46 26.3331 44.7778 26.3331H29.2222C28 26.3331 27 25.3331 27 24.1109C27 22.8887 28 21.8887 29.2222 21.8887H44.7778C46 21.8887 47 22.8887 47 24.1109Z" fill="#FDD888"/>
<path d="M28.667 26.334H45.3337V27.4451H28.667V26.334Z" fill="#FCAB40"/>
<path d="M37.5556 19.666H36.4445C36.0025 19.666 35.5785 19.8416 35.266 20.1542C34.9534 20.4667 34.7778 20.8907 34.7778 21.3327V37.4438H39.2223V21.3327C39.2223 20.8907 39.0467 20.4667 38.7341 20.1542C38.4216 19.8416 37.9976 19.666 37.5556 19.666Z" fill="url(#paint2_linear)"/>
<path d="M35.8891 21.889C36.5002 21.889 36.5908 21.6023 36.0897 21.2518L32.3552 18.6373C32.2406 18.5539 32.1096 18.4959 31.9708 18.4671C31.832 18.4383 31.6887 18.4394 31.5504 18.4704C31.4121 18.5013 31.2819 18.5614 31.1687 18.6467C31.0554 18.7319 30.9616 18.8402 30.8936 18.9646L29.7736 20.9246C29.4702 21.4551 29.7224 21.889 30.3336 21.889H35.8891ZM38.1113 21.889C37.5002 21.889 37.4097 21.6023 37.9108 21.2518L41.6458 18.6373C41.7604 18.554 41.8914 18.496 42.0302 18.4673C42.169 18.4386 42.3123 18.4397 42.4506 18.4707C42.5888 18.5016 42.7189 18.5617 42.8322 18.6468C42.9455 18.732 43.0393 18.8403 43.1074 18.9646L44.2274 20.924C44.5302 21.4551 44.278 21.889 43.6669 21.889H38.1113Z" fill="url(#paint3_linear)"/>
<defs>
<linearGradient id="paint0_linear" x1="0.0307773" y1="18.4876" x2="36.9938" y2="18.4876" gradientUnits="userSpaceOnUse">
<stop stop-color="#5A39BF"/>
<stop offset="1" stop-color="#A036EE"/>
</linearGradient>
<linearGradient id="paint1_linear" x1="35.2" y1="31" x2="10.6987" y2="29.2025" gradientUnits="userSpaceOnUse">
<stop stop-color="#236BFE"/>
<stop offset="1" stop-color="#D856FF"/>
</linearGradient>
<linearGradient id="paint2_linear" x1="34.7815" y1="28.5489" x2="39.2215" y2="28.5489" gradientUnits="userSpaceOnUse">
<stop stop-color="#5A39BF"/>
<stop offset="1" stop-color="#A036EE"/>
</linearGradient>
<linearGradient id="paint3_linear" x1="29.6573" y1="20.1665" x2="44.3532" y2="20.1665" gradientUnits="userSpaceOnUse">
<stop stop-color="#5A39BF"/>
<stop offset="1" stop-color="#A036EE"/>
</linearGradient>
</defs>
</svg>
