<svg width="47" height="39" viewBox="0 0 47 39" fill="none" xmlns="http://www.w3.org/2000/svg">
<circle opacity="0.1" cx="18.5" cy="18.5" r="18.5" fill="url(#paint0_linear)"/>
<circle cx="18.4997" cy="18.5002" r="13.1731" fill="white" stroke="white" stroke-width="5"/>
<path d="M19.4375 27.2187C23 27.2344 25.4297 24.8984 25.4219 21.6406C25.4297 18.6406 23.3359 16.4766 20.5 16.4766C18.7422 16.4766 17.1875 17.3203 16.4688 18.7344H16.3594C16.375 15.6172 17.4688 13.6797 19.5547 13.6797C20.7813 13.6797 21.6641 14.3516 21.9219 15.4687H25.2578C24.9375 12.8359 22.75 10.7812 19.5547 10.7812C15.6016 10.7812 13.0625 13.9844 13.0469 19.3594C13.0391 25.2187 16.1484 27.2031 19.4375 27.2187ZM19.4219 24.5625C17.8594 24.5625 16.7031 23.3047 16.7031 21.7422C16.7109 20.1875 17.8906 18.9219 19.4453 18.9219C21.0078 18.9219 22.1484 20.1484 22.1406 21.7344C22.1484 23.3359 20.9844 24.5625 19.4219 24.5625Z" fill="url(#paint1_linear)"/>
<g clip-path="url(#clip0)">
<path d="M28.9839 28.5645H45.0167C45.7679 28.5645 46.3762 29.1886 46.3762 29.9556V37.488C46.3762 38.255 45.7679 38.8792 45.0167 38.8792H28.9839C28.2328 38.8792 27.6245 38.255 27.6245 37.488V29.9556C27.6245 29.1886 28.2328 28.5645 28.9839 28.5645Z" fill="#755BCF"/>
<path d="M46.3762 30.4365H27.6245V31.0607H46.3762V30.4365Z" fill="#6339C5"/>
<path d="M46.7831 25.2791C46.36 24.8559 46.0796 24.6073 45.6723 24.1842C45.5295 24.0413 45.2809 23.8721 45.1433 23.8721H28.8725C28.7033 23.8721 28.4811 24.0413 28.3436 24.1842C27.9839 24.5438 27.6559 24.8559 27.2327 25.2791C27.0952 25.4061 27 25.7181 27 25.9191V29.807C27 30.1508 27.2803 30.4312 27.6242 30.4312H37H46.3758C46.7197 30.4312 47 30.1508 47 29.807V25.9191C47 25.7499 46.9048 25.4219 46.7831 25.2791Z" fill="#755BCF"/>
<path d="M46.3758 29.8123H27.6242C27.2803 29.8123 27 29.532 27 29.1881V29.8123C27 30.1561 27.2803 30.4365 27.6242 30.4365H46.3758C46.7197 30.4365 47 30.1561 47 29.8123V29.204C47 29.532 46.7197 29.8123 46.3758 29.8123ZM46.9365 25.5912C46.9048 25.4642 46.8413 25.3426 46.7673 25.2791C46.3441 24.8559 46.0637 24.6073 45.6564 24.1842C45.5136 24.0413 45.265 23.8721 45.1275 23.8721H28.8725C28.7033 23.8721 28.4811 24.0413 28.3436 24.1842C27.9839 24.5439 27.6559 24.8559 27.2327 25.2791C27.1534 25.3426 27.0899 25.4642 27.0635 25.5912H46.9365Z" fill="#755BCF"/>
<path d="M30.2798 25.5912V34.4354C30.2798 34.8903 30.6236 35.578 31.0468 35.578C31.4699 35.578 31.8455 34.8903 31.8455 34.4354V25.5912L32.7818 23.8721H31.2478L30.2798 25.5912ZM42.7474 23.8721H41.2187L42.155 25.5912V34.4354C42.155 34.8903 42.5305 35.578 42.9537 35.578C43.3769 35.578 43.7207 34.8903 43.7207 34.4354V25.5912L42.7474 23.8721Z" fill="#F54E55"/>
<path d="M31.0626 27.7812C30.8933 27.7812 30.7505 27.9241 30.7505 28.0933C30.7505 28.2626 30.8933 28.4054 31.0626 28.4054C31.2371 28.4054 31.3747 28.2626 31.3747 28.0933C31.3747 27.9188 31.2371 27.7812 31.0626 27.7812ZM31.0626 29.3417C30.8933 29.3417 30.7505 29.4845 30.7505 29.6538C30.7505 29.823 30.8933 29.9659 31.0626 29.9659C31.2371 29.9659 31.3747 29.823 31.3747 29.6538C31.3747 29.4845 31.2371 29.3417 31.0626 29.3417ZM31.0626 30.9074C30.8933 30.9074 30.7505 31.0502 30.7505 31.2195C30.7505 31.3888 30.8933 31.5316 31.0626 31.5316C31.2371 31.5316 31.3747 31.3888 31.3747 31.2195C31.3747 31.0449 31.2371 30.9074 31.0626 30.9074ZM42.9377 28.4054C43.107 28.4054 43.2498 28.2626 43.2498 28.0933C43.2498 27.9188 43.107 27.7812 42.9377 27.7812C42.7685 27.7812 42.6257 27.9241 42.6257 28.0933C42.6257 28.2626 42.7632 28.4054 42.9377 28.4054ZM42.9377 29.3417C42.7685 29.3417 42.6257 29.4845 42.6257 29.6538C42.6257 29.823 42.7685 29.9659 42.9377 29.9659C43.107 29.9659 43.2498 29.823 43.2498 29.6538C43.2498 29.4845 43.107 29.3417 42.9377 29.3417ZM42.9377 30.9074C42.7685 30.9074 42.6257 31.0502 42.6257 31.2195C42.6257 31.3888 42.7685 31.5316 42.9377 31.5316C43.107 31.5316 43.2498 31.3888 43.2498 31.2195C43.2498 31.0449 43.107 30.9074 42.9377 30.9074Z" fill="#622A02"/>
<path d="M31.9986 32.626H30.1261C29.9568 32.626 29.814 32.7688 29.814 32.9381V33.5622C29.814 33.7315 29.9568 33.8743 30.1261 33.8743H31.9986C32.1678 33.8743 32.3107 33.7315 32.3107 33.5622V32.9381C32.3107 32.7635 32.1731 32.626 31.9986 32.626ZM43.8737 32.626H42.0012C41.8319 32.626 41.6891 32.7688 41.6891 32.9381V33.5622C41.6891 33.7315 41.8319 33.8743 42.0012 33.8743H43.8737C44.043 33.8743 44.1858 33.7315 44.1858 33.5622V32.9381C44.1858 32.7635 44.0483 32.626 43.8737 32.626Z" fill="white"/>
<path d="M34.5801 24.1895C34.1093 24.1895 33.7231 24.3905 33.7231 24.6602C33.7231 24.9247 34.1146 25.131 34.5801 25.131C35.0508 25.131 35.437 24.93 35.437 24.6602C35.437 24.4063 35.0455 24.1895 34.5801 24.1895ZM39.42 24.1895C38.9493 24.1895 38.5631 24.3905 38.5631 24.6602C38.5631 24.9247 38.9546 25.131 39.42 25.131C39.8908 25.131 40.2769 24.93 40.2769 24.6602C40.2822 24.4063 39.8908 24.1895 39.42 24.1895Z" fill="#6339C5"/>
<path d="M39.4199 22H34.5746C34.2784 22 34.0298 22.2486 34.0298 22.5448V24.4967C34.0298 24.6713 34.2784 24.8088 34.5746 24.8088C34.8708 24.8088 35.1194 24.666 35.1194 24.4967V23.0949H38.8698V24.502C38.8698 24.6765 39.1184 24.8141 39.4146 24.8141C39.7108 24.8141 39.9594 24.6713 39.9594 24.502V22.5448C39.97 22.2486 39.7161 22 39.4199 22Z" fill="#E4D9EE"/>
<path d="M30.2798 25.5912H31.8402L32.7765 23.8721H31.2478L30.2798 25.5912ZM42.7474 23.8721H41.2187L42.155 25.5912H43.7154L42.7474 23.8721Z" fill="#C11270"/>
</g>
<defs>
<linearGradient id="paint0_linear" x1="0.0307773" y1="18.4876" x2="36.9938" y2="18.4876" gradientUnits="userSpaceOnUse">
<stop stop-color="#5A39BF"/>
<stop offset="1" stop-color="#A036EE"/>
</linearGradient>
<linearGradient id="paint1_linear" x1="36.2" y1="32" x2="11.6987" y2="30.2025" gradientUnits="userSpaceOnUse">
<stop stop-color="#236BFE"/>
<stop offset="1" stop-color="#D856FF"/>
</linearGradient>
<clipPath id="clip0">
<rect width="20" height="16.8738" fill="white" transform="translate(27 22)"/>
</clipPath>
</defs>
</svg>
