<svg width="20" height="20" viewBox="0 0 20 20" fill="none" xmlns="http://www.w3.org/2000/svg">
<path d="M10.0002 1.66699C7.7085 1.66699 5.8335 3.54199 5.8335 5.83366V7.50033H7.50016V5.83366C7.50016 4.45866 8.62516 3.33366 10.0002 3.33366C11.3752 3.33366 12.5002 4.45866 12.5002 5.83366V7.50033H14.1668V5.83366C14.1668 3.54199 12.2918 1.66699 10.0002 1.66699Z" fill="#424242"/>
<path d="M15.0002 18.3333H5.00016C4.0835 18.3333 3.3335 17.5833 3.3335 16.6667V9.16667C3.3335 8.25 4.0835 7.5 5.00016 7.5H15.0002C15.9168 7.5 16.6668 8.25 16.6668 9.16667V16.6667C16.6668 17.5833 15.9168 18.3333 15.0002 18.3333Z" fill="#755BCF"/>
<path d="M10 14.167C10.6904 14.167 11.25 13.6073 11.25 12.917C11.25 12.2266 10.6904 11.667 10 11.667C9.30964 11.667 8.75 12.2266 8.75 12.917C8.75 13.6073 9.30964 14.167 10 14.167Z" fill="white"/>
</svg>
