<svg width="308" height="130" viewBox="0 0 308 130" fill="none" xmlns="http://www.w3.org/2000/svg">
<path d="M68.4398 124.474C46.2831 124.143 22.8096 122.029 5.262 111.654C3.38543 110.531 1.50886 109.276 0.587037 107.591C-0.894464 104.848 0.587037 101.577 3.25374 99.4629C5.95336 97.3483 9.64066 96.1259 13.328 95.2007C38.9085 88.6589 66.9254 91.9629 93.6582 89.0884C98.3003 88.5928 104.16 86.6435 103.436 83.1082C103.107 81.4893 101.329 80.2338 101 78.6148C100.21 75.1126 105.905 73.0312 110.482 72.3373C141.396 67.4805 173.725 68.0091 204.343 73.8241C208.491 74.6171 212.87 75.6413 215.635 78.1193C217.676 79.9695 218.532 82.4144 220.178 84.5289C223.537 88.8571 229.923 91.3682 236.409 92.3263C242.862 93.3175 249.512 92.9871 256.097 92.921C265.875 92.8549 275.685 93.3836 285.332 94.5069C293.628 95.4981 303.11 97.7118 306.138 103.692C308.674 108.681 305.447 114.397 300.575 118.229C290.5 126.093 274.961 127.811 260.574 128.472C234.994 129.661 209.248 128.934 183.832 126.324C177.544 125.663 171.322 124.903 165.067 124.044C160.523 123.417 156.145 121.864 151.667 121.335C145.675 120.641 138.334 122.062 132.309 122.425C125.856 122.822 119.436 123.218 112.984 123.549C98.1686 124.243 83.3207 124.672 68.4398 124.474Z" fill="#C6E279"/>
<g clip-path="url(#clip0)">
<path d="M24.7315 101.798C27.0127 101.53 29.3566 101.839 31.4913 102.684C28.2474 106.102 25.736 110.2 24.1455 114.628C32.0982 111.333 41.2647 110.941 49.4895 113.536C47.5641 114.813 45.8061 116.337 44.2784 118.046C46.7479 117.49 49.343 117.49 51.8125 118.067C50.9126 119.076 50.1382 120.188 49.5104 121.362C55.0982 119.632 60.9371 118.726 66.797 118.726C67.9062 118.726 69.2875 118.952 69.5805 119.982C69.9362 118.726 71.6105 118.458 72.9499 118.479C78.747 118.623 84.5022 119.817 89.8389 122C90.09 119.673 89.9017 117.305 89.2738 115.04C92.0991 115.843 94.7779 117.161 97.1219 118.891C98.4403 115.966 99.2147 112.815 99.403 109.603C102.396 110.777 105.326 112.074 108.172 113.536C108.067 109.253 107.816 104.578 104.928 101.345C101.6 97.6176 95.9499 97.144 90.9062 97.1852C79.04 97.2676 67.1528 98.6473 55.3075 97.9471C49.4685 97.6176 43.6924 96.7733 37.8534 96.485C35.4258 96.3614 32.8725 95.9908 30.696 97.1028C28.4148 98.3178 26.3639 99.8417 24.7315 101.798Z" fill="#A86B42"/>
<path d="M25.778 96.8554C29.3149 97.1025 32.8099 97.8027 36.1793 98.9147C29.6707 100.047 23.8526 104.434 21.0273 110.303C28.2266 108.058 35.97 107.44 43.4414 108.532C39.8417 109.891 36.7653 112.527 34.9445 115.863C43.0228 113.989 51.4778 113.68 59.6816 114.957C57.9864 115.719 56.5633 117.037 55.7052 118.643C65.8344 115.101 77.0519 114.627 87.4323 117.305C86.4486 116.131 85.2557 115.122 83.9163 114.36C89.5879 113.598 95.4268 114.195 100.805 116.11C98.7125 113.248 96.1593 110.715 93.2712 108.635C99.8426 107.152 106.937 107.914 113.006 110.776C110.286 105.155 104.112 102.045 98.2312 99.7385C101.935 98.5647 105.933 98.3793 109.721 99.1825C106.791 96.3818 102.835 94.8167 98.9218 93.6635C91.6807 91.5424 84.1047 90.5333 76.5706 90.698C69.4341 90.8628 62.4022 92.0572 55.3495 93.0251C51.8126 93.5193 48.2339 93.9724 44.6552 94.1577C41.9764 94.3019 39.3185 93.9106 36.6397 94.0753C32.8936 94.3224 29.1893 95.2491 25.778 96.8554Z" fill="#C17A49"/>
<path d="M42.3741 104.269C43.6507 105.855 45.5761 106.761 47.4596 107.523C59.2422 112.301 72.9082 113.248 84.7117 108.553C86.9091 107.688 89.1066 106.555 90.5506 104.702C91.9947 102.848 92.476 100.089 91.1157 98.1736C90.2786 96.9997 88.8973 96.2996 87.516 95.8465C85.486 95.1875 83.3304 95.0022 81.1748 94.858C73.3896 94.3844 65.5625 94.8374 57.9028 96.176C53.759 96.8968 49.6571 97.8853 45.4924 98.4207C44.2995 98.5854 42.3113 98.3589 41.4951 99.4092C40.5115 100.748 41.516 103.198 42.3741 104.269Z" fill="#A86B42"/>
<path d="M57.9024 112.074C58.1117 113.021 58.8023 113.824 59.6395 114.36C61.0417 115.266 62.8205 115.533 64.4739 115.245C66.1272 114.977 67.6759 114.195 69.0362 113.206C69.1199 113.145 69.2245 113.083 69.3292 113.042C69.4966 113 69.685 113.062 69.8733 113.124C72.3638 114.009 75.1053 114.03 77.7423 113.639C79.9397 113.33 82.3046 112.589 83.4975 110.756C83.937 110.076 84.2091 109.232 84.0207 108.449C83.9161 107.955 83.644 107.502 83.3301 107.111C82.0326 105.525 79.9397 104.804 77.9097 104.454C74.5821 103.878 71.1499 104.063 67.7805 104.351C66.19 104.495 64.5785 104.66 63.0298 105.072C62.2764 105.278 61.4811 105.566 60.9789 106.163C60.5394 106.719 60.3929 107.44 60.1417 108.099C59.8069 108.944 59.2209 109.17 58.5931 109.705C57.9443 110.303 57.7141 111.271 57.9024 112.074Z" fill="#A86B42"/>
<path d="M76.4663 48.1318C76.1734 47.2874 75.8804 46.4019 75.9431 45.4958C76.0059 44.5897 76.4663 43.663 77.3035 43.2923C77.9313 43.0246 78.6638 43.107 79.3335 43.21C78.7266 41.9538 78.9149 40.3475 79.8358 39.2766C80.7357 38.2058 82.3053 37.7321 83.6656 38.1028C85.0259 38.4735 86.1142 39.6679 86.3444 41.0477C86.2816 40.3475 86.7839 39.6885 87.4536 39.4414C88.1233 39.2149 88.8976 39.3796 89.4627 39.7915C90.0487 40.2239 90.4254 40.9035 90.7184 41.5831C91.2207 42.7775 91.5555 44.0337 91.702 45.3105C92.0369 47.8846 91.5974 50.7883 89.6092 52.5181C88.0396 53.8773 85.7375 54.248 83.6865 53.7743C82.7866 53.5684 81.9286 53.2183 81.1124 52.7858C80.338 52.374 79.6265 51.5091 78.8312 51.2002C78.7266 51.159 78.5592 51.056 78.4754 51.0148C78.4336 50.9942 78.3289 51.2413 78.2662 51.2002C77.9732 51.0766 77.722 50.7059 77.5337 50.4176C77.0523 49.7586 76.7384 48.9349 76.4663 48.1318Z" fill="#E03E36"/>
<path d="M75.4407 52.9095C73.4107 56.2044 70.983 59.5199 67.4671 61.2292C65.2068 62.3412 61.7119 64.3182 56.7728 64.5241C51.3524 64.7506 47.2924 62.0323 44.7182 60.6114C42.7928 59.5611 36.2005 66.9541 34.9029 68.7046C33.3124 70.8257 32.852 70.249 32.8311 72.885C32.8311 76.9419 33.7937 80.937 34.9657 84.8085C37.1841 92.1603 40.4907 99.6769 46.832 104.146C50.7664 106.905 55.5799 108.264 60.3725 108.861C66.4625 109.644 72.6782 109.294 78.6427 107.832C81.8028 107.07 84.9421 105.958 87.4744 103.96C89.902 102.045 91.6181 99.3885 93.104 96.7114C95.1759 92.984 96.892 89.0507 97.8756 84.9115C99.7801 76.9007 98.8593 68.4986 97.4152 60.3849C96.9129 57.6048 96.3479 54.7835 95.1131 52.2299C93.5854 49.1409 89.8811 45.1046 86.114 44.7957C80.7355 44.3839 77.8474 48.9968 75.4407 52.9095Z" fill="#FFAF00"/>
<path d="M27.2636 72.0817C26.6357 70.4342 26.0497 68.6632 26.4683 66.9539C26.8869 65.2447 28.7285 63.762 30.4028 64.3386C30.047 63.2266 29.6703 62.0733 29.8168 60.9201C29.9424 59.7669 30.6748 58.5931 31.8259 58.3048C33.4583 57.9135 34.8814 59.3344 35.9069 60.6524C35.3837 59.7051 35.2162 58.5313 35.6139 57.5016C35.9906 56.4926 36.9742 55.6688 38.0834 55.6071C40.0088 55.5041 41.3063 57.3987 42.6039 58.799C43.5875 59.8699 44.7804 60.776 46.0989 61.435C47.1243 61.9498 48.2545 62.3205 49.1125 63.0618C50.5984 64.3386 51.0379 66.4185 51.2053 68.3543C51.4774 71.3403 51.289 74.3881 50.6821 77.333C49.9915 80.6073 48.7149 83.8816 46.35 86.291C43.6712 89.0299 42.9387 100.748 40.1971 97.0407C36.7649 92.3455 29.3355 77.4771 27.2636 72.0817Z" fill="#FFAF00"/>
<path d="M97.3944 60.426C96.9758 58.099 96.4945 55.7513 95.6364 53.5479C95.7201 53.9803 95.8038 54.3922 95.8666 54.8246C97.3316 62.9384 98.2524 71.3404 96.327 79.3512C95.3434 83.4905 93.6273 87.4238 91.5554 91.1512C90.0695 93.8489 88.3534 96.4848 85.9258 98.4C83.3935 100.398 80.2542 101.51 77.0941 102.272C71.1296 103.713 64.9139 104.063 58.8239 103.301C54.0313 102.683 49.2178 101.345 45.2834 98.5854C39.1305 94.2608 35.8448 87.0531 33.6055 79.9278C33.9612 81.5959 34.4217 83.2228 34.9239 84.8496C37.1423 92.2014 40.449 99.718 46.7902 104.187C50.7247 106.946 55.5381 108.305 60.3307 108.903C66.4208 109.685 72.6364 109.335 78.6009 107.873C81.7611 107.111 84.9003 105.999 87.4326 104.001C89.8602 102.086 91.5764 99.4297 93.0623 96.7526C95.1341 93.0252 96.8502 89.0919 97.8339 84.9526C99.7802 76.9418 98.8593 68.5398 97.3944 60.426Z" fill="#EA9C00"/>
<path d="M77.2194 69.6103C73.264 68.766 69.3713 70.9901 66.0438 73.2553C62.7162 75.5206 59.1375 78.033 55.0984 77.827C54.3031 77.7858 53.5078 77.6417 52.7335 77.7858C51.9591 77.93 51.1848 78.5066 51.122 79.2686C51.0383 80.1541 51.8545 80.8337 52.6079 81.3279C51.0383 81.7604 49.2385 82.4399 48.8408 83.9844C48.5479 85.1171 49.2176 86.3527 50.2012 87.0116C51.1848 87.6912 52.4196 87.8972 53.6125 87.9795C52.587 88.4738 51.3941 89.4417 51.8545 90.4713C51.9801 90.7596 52.2312 90.9862 52.5033 91.1715C53.6543 91.9952 55.1193 92.3659 56.5215 92.2012C55.6216 92.0776 55.1193 93.375 55.6006 94.1369C56.082 94.8989 57.0656 95.1666 57.9446 95.3107C59.4095 95.5579 60.9164 95.6402 62.4023 95.5991C70.5433 95.3725 78.4541 90.9862 82.87 84.2521C84.021 82.4811 84.9628 80.5248 85.0674 78.4242C85.2349 74.0585 81.3632 70.4958 77.2194 69.6103Z" fill="#EA9C00"/>
<path d="M75.9635 66.748C72.0081 65.9037 68.1155 68.1278 64.7879 70.393C61.4603 72.6583 57.8816 75.1707 53.8425 74.9647C53.0472 74.9235 52.252 74.7794 51.4776 74.9235C50.7033 75.0677 49.9289 75.6443 49.8662 76.4063C49.7824 77.2918 50.5986 77.9713 51.352 78.4656C49.8034 78.898 47.9826 79.5776 47.585 81.1221C47.292 82.2547 47.9617 83.4903 48.9453 84.1493C49.9289 84.8289 51.1637 85.0348 52.3566 85.1172C51.3311 85.6115 50.1382 86.5793 50.5986 87.609C50.7242 87.8973 50.9753 88.1238 51.2474 88.3092C52.3985 89.1329 53.8634 89.5036 55.2656 89.3388C54.3657 89.2153 53.8634 90.5127 54.3448 91.2746C54.8261 92.0366 55.8097 92.3043 56.6887 92.4484C58.1537 92.6955 59.6605 92.7779 61.1464 92.7367C69.2874 92.5102 77.1983 88.1238 81.6141 81.3898C82.7651 79.6188 83.7069 77.6624 83.8115 75.5619C83.979 71.1962 80.1073 67.6335 75.9635 66.748Z" fill="#FFE8AE"/>
<path d="M97.4987 60.4261C96.9965 57.646 96.4105 54.8247 95.1757 52.2711C93.6689 49.1615 89.9437 45.1047 86.1348 44.8164C80.6934 44.3839 77.8054 48.9968 75.3777 52.9301C74.2476 54.7423 73.0128 56.5339 71.5479 58.0784C72.4687 60.4055 74.415 61.5793 77.1566 60.076C77.5961 61.3939 78.7262 62.4648 80.0865 62.8561C81.4469 63.2473 82.9955 62.959 84.1047 62.0941C85.7371 64.5035 89.7553 64.8742 91.8272 62.7943C92.8318 63.4533 93.8991 64.0711 95.092 64.3388C96.0965 64.5653 97.2057 64.5447 98.1475 64.0917C97.9382 62.8767 97.7289 61.6411 97.4987 60.4261Z" fill="#FFE8AE"/>
<path d="M70.1041 89.4622C69.7902 88.9268 69.9367 88.1237 70.5017 87.8765C69.853 87.9177 69.1833 87.9589 68.5554 87.7942C67.9276 87.6294 67.3207 87.2175 67.1323 86.5997C66.8184 85.6319 67.5509 84.6846 68.2415 83.9432C67.0695 84.0668 65.6255 84.0668 64.9767 83.0783C64.2861 82.028 65.0186 80.6483 65.9185 79.7834C64.9558 79.8246 63.8466 79.804 63.2397 79.0832C62.7793 78.5272 62.7793 77.7241 63.0513 77.0857C63.3234 76.4267 63.8466 75.9118 64.3698 75.4382C63.428 75.8295 62.2979 75.0881 61.9421 74.1408C61.7119 73.523 61.7538 72.9258 61.8793 72.3286C61.0422 72.8434 60.2051 73.3171 59.3261 73.729C59.0959 75.0263 60.0167 76.2001 61.5445 75.9324C61.0213 76.3443 60.4772 76.7562 60.1005 77.2916C59.7237 77.827 59.4935 78.5272 59.6819 79.1656C59.8912 79.9069 60.6027 80.4218 61.3561 80.6277C62.1096 80.8336 62.9048 80.7719 63.6792 80.7101C62.842 81.4514 62.1933 82.4193 61.8166 83.4902C61.7328 83.7579 61.6491 84.0668 61.7538 84.3345C61.8375 84.5816 62.0677 84.7464 62.2979 84.8905C63.2815 85.4877 64.5163 85.6525 65.6255 85.323C64.7674 85.776 64.2442 86.8057 64.5163 87.7324C64.7884 88.6385 65.9394 89.2357 66.8184 88.8444C66.065 89.4622 66.337 90.7802 67.1323 91.3568C67.3207 91.4804 67.509 91.5833 67.7183 91.6657C68.8903 91.295 70.0413 90.8626 71.1505 90.3271C70.7529 90.1418 70.3343 89.8741 70.1041 89.4622Z" fill="#B77165"/>
<path d="M92.3714 48.2967C92.3714 48.2967 100.219 47.6171 100.596 48.2967C100.973 48.9762 95.6571 53.5274 95.6571 53.5274C95.6571 53.5274 93.083 53.1567 92.3714 52.1682C91.6808 51.2003 92.3714 48.2967 92.3714 48.2967Z" fill="#B77165"/>
<path d="M88.8346 49.8206C88.8137 49.4705 88.6881 49.141 88.5416 48.8115C88.7927 49.1822 89.0439 49.5529 89.295 49.9236C89.4624 50.1707 89.6299 50.4384 89.7345 50.7267C89.8182 51.015 89.8182 51.3445 89.6717 51.5916C89.4834 51.8799 89.1276 52.0241 88.7927 52.0241C88.4579 52.0241 88.123 51.9005 87.8091 51.7358C87.3906 51.5092 86.8883 51.2209 86.6162 50.8503C87.4115 50.562 88.9183 51.4475 88.8346 49.8206Z" fill="#231F20"/>
<path opacity="0.32" d="M81.2585 39.5239C81.1538 39.6475 81.0283 39.7916 81.0492 39.9358C81.0701 40.1005 81.1957 40.2241 81.3631 40.2653C81.5096 40.327 81.677 40.327 81.8445 40.3476C82.5979 40.4506 83.2676 40.986 83.4978 41.7068C83.5396 41.8715 83.5815 42.0363 83.6861 42.1599C83.8326 42.3452 84.0838 42.407 84.293 42.3452C84.5232 42.304 84.7116 42.1599 84.8372 41.9745C85.172 41.5421 85.2139 40.9654 85.0255 40.4506C84.8372 39.9564 84.4395 39.5445 84 39.2562C83.142 38.762 81.9491 38.7414 81.2585 39.5239Z" fill="white"/>
<path opacity="0.32" d="M88.6461 41.5215C89.0019 41.8716 88.9391 42.4276 89.0228 42.9219C89.0647 43.1072 89.1484 43.3131 89.3368 43.3337C89.3995 43.3337 89.4833 43.3131 89.546 43.272C89.86 43.1072 89.9855 42.7159 89.9855 42.3453C89.9855 41.5215 89.2949 40.6566 88.4368 40.4919C87.0975 40.2036 88.2904 41.1714 88.6461 41.5215Z" fill="white"/>
<path d="M87.5156 68.7047C87.5156 69.7549 87.5575 71.0111 88.4574 71.7525C88.8341 72.0614 89.3154 72.2261 89.8177 72.1438C90.3409 72.082 90.7176 71.7319 90.9478 71.2994C91.2199 70.764 91.492 70.105 91.3873 69.4872C91.3455 69.2401 90.9478 69.3431 90.9897 69.5902C91.0525 69.8991 90.9478 70.208 90.8432 70.4963C90.7385 70.764 90.6548 71.0111 90.5083 71.2583C90.2153 71.7319 89.6712 71.8761 89.1689 71.6907C88.6667 71.526 88.3109 71.0317 88.1435 70.5581C87.9342 69.9609 87.9342 69.3225 87.9342 68.7047C87.9133 68.437 87.5156 68.437 87.5156 68.7047Z" fill="#EA9C00"/>
<path d="M91.3664 72.926C91.3245 73.5438 91.471 74.1822 91.7849 74.7176C92.0779 75.2119 92.5802 75.7679 93.1662 75.8914C93.815 76.015 94.4219 75.5619 94.8404 75.1295C95.2799 74.6764 95.5729 74.1204 95.6985 73.5232C95.7613 73.2761 95.3636 73.1731 95.3009 73.4202C95.1962 73.9145 94.966 74.3881 94.6102 74.7588C94.2754 75.1295 93.7313 75.6237 93.1871 75.5002C92.6848 75.3766 92.2872 74.8824 92.057 74.4499C91.8059 73.9763 91.7012 73.4614 91.7222 72.9466C91.8059 72.6789 91.3873 72.6789 91.3664 72.926Z" fill="#EA9C00"/>
<path d="M87.7461 77.5182C87.7461 78.0124 87.8089 78.5272 87.9554 79.0009C88.0809 79.4128 88.2484 79.8246 88.5414 80.1335C88.8134 80.4218 89.1692 80.6072 89.5878 80.566C90.0273 80.5042 90.3621 80.2365 90.6342 79.907C90.969 79.4745 91.1783 78.9803 91.262 78.4449C91.283 78.3419 91.2411 78.2389 91.1155 78.1977C91.0109 78.1772 90.8853 78.2389 90.8644 78.3419C90.7807 78.8361 90.5923 79.3304 90.2784 79.7217C90.0063 80.0306 89.5878 80.3189 89.1692 80.1129C88.7716 79.9276 88.5623 79.4745 88.4367 79.1039C88.2484 78.589 88.1647 78.0536 88.1647 77.5182C88.1437 77.2505 87.7461 77.2505 87.7461 77.5182Z" fill="#EA9C00"/>
<path d="M91.6594 81.7604C91.5339 82.5841 91.6176 83.4696 92.0152 84.211C92.1617 84.5199 92.4547 84.8288 92.8314 84.7876C93.2081 84.7464 93.522 84.3758 93.7313 84.108C94.0034 83.758 94.1917 83.3461 94.2964 82.9136C94.3592 82.6665 93.9615 82.5635 93.8988 82.8107C93.7941 83.2019 93.6267 83.5726 93.3755 83.9021C93.2081 84.1286 92.8523 84.5817 92.5593 84.2934C92.2873 84.0257 92.1826 83.5726 92.0989 83.2019C92.0152 82.7695 91.9943 82.2958 92.0571 81.8634C92.078 81.7604 92.0361 81.6574 91.9106 81.6163C91.8269 81.5957 91.6804 81.6574 91.6594 81.7604Z" fill="#EA9C00"/>
<path d="M87.3485 82.4196C86.9299 83.2021 86.7834 84.2318 87.1392 85.0761C87.2857 85.4262 87.5159 85.7763 87.8926 85.941C88.3321 86.1264 88.7716 85.941 89.1274 85.6939C89.5878 85.385 89.9645 84.9937 90.2994 84.5613C90.3622 84.4789 90.3203 84.3347 90.2366 84.2936C90.1319 84.2318 90.0273 84.273 89.9645 84.3553C89.6506 84.7466 89.2739 85.1173 88.8553 85.385C88.667 85.5086 88.4368 85.6321 88.1856 85.6115C87.9973 85.5909 87.8298 85.4468 87.7252 85.3026C87.4531 84.9525 87.3694 84.4995 87.3694 84.067C87.3694 83.5728 87.4741 83.0785 87.7043 82.6255C87.8089 82.399 87.4741 82.193 87.3485 82.4196Z" fill="#EA9C00"/>
<path d="M93.3129 68.0661C92.999 68.478 93.2711 69.0752 93.6896 69.3017C94.1082 69.5489 94.6523 69.4871 94.9872 69.137C95.1755 68.9517 95.3011 68.6839 95.3011 68.4162C95.3011 68.3133 95.1965 68.2103 95.0918 68.2103C94.9872 68.2103 94.9035 68.2927 94.8825 68.4162C94.8825 68.6016 94.7779 68.7869 94.6105 68.9105C94.5477 68.9722 94.464 69.0134 94.3803 69.034C94.3593 69.034 94.3384 69.0546 94.3175 69.0546C94.2966 69.0546 94.2966 69.0546 94.2966 69.0546C94.2756 69.0546 94.2756 69.0546 94.2547 69.0546C94.2338 69.0546 94.2128 69.0546 94.1919 69.0546C94.1919 69.0546 94.1082 69.0546 94.1291 69.0546C93.9408 69.034 93.7734 68.9311 93.6687 68.7869C93.5432 68.6222 93.5222 68.4162 93.6478 68.2721C93.7106 68.1897 93.6687 68.0455 93.585 68.0044C93.4804 67.9426 93.3757 67.9838 93.3129 68.0661Z" fill="#EA9C00"/>
<path d="M82.87 91.0894C81.9701 91.8102 81.3004 92.9016 81.1748 94.0549C81.112 94.6109 81.3213 95.1257 81.8864 95.311C82.4933 95.4964 83.1211 95.1669 83.6234 94.858C84.2722 94.4873 84.8372 94.0137 85.3604 93.4782C85.5279 93.2929 85.2558 93.0046 85.0674 93.1899C84.5652 93.7048 84.021 94.1578 83.3932 94.5285C83.1002 94.7138 82.7653 94.8992 82.4305 94.9404C82.1375 94.9816 81.7817 94.9198 81.6352 94.6315C81.4887 94.3638 81.5724 94.0137 81.6352 93.746C81.698 93.4371 81.8027 93.1488 81.9491 92.8604C82.2421 92.2838 82.6398 91.769 83.142 91.3571C83.3513 91.213 83.0793 90.9247 82.87 91.0894Z" fill="#EA9C00"/>
<path d="M86.386 89.6478C86.093 89.9567 85.8 90.2862 85.6535 90.6981C85.5488 91.0275 85.5698 91.4188 85.7581 91.7277C86.2604 92.5309 87.3068 92.0572 87.9137 91.6659C88.3323 91.3982 88.7299 91.0893 89.0857 90.7392C89.274 90.5539 88.981 90.2656 88.7927 90.4509C88.4788 90.7804 88.123 91.0687 87.7254 91.2953C87.3696 91.5218 86.951 91.7689 86.5115 91.7483C86.1139 91.7277 85.9465 91.357 85.9883 91.007C86.0302 90.5745 86.386 90.2244 86.658 89.9155C86.8464 89.7302 86.5743 89.4419 86.386 89.6478Z" fill="#EA9C00"/>
<path d="M65.521 64.0917C65.2489 64.5036 64.9978 64.9566 65.1024 65.4509C65.207 65.9039 65.6256 66.1716 66.086 66.1304C66.5883 66.0893 67.0906 65.9039 67.5301 65.698C68.0114 65.4921 68.4718 65.2038 68.8904 64.8949C69.0997 64.7301 68.8067 64.4624 68.5974 64.6065C67.9277 65.1008 67.1743 65.4715 66.3581 65.6774C66.0023 65.7598 65.6047 65.7804 65.4791 65.3685C65.3745 64.9772 65.6465 64.6065 65.8349 64.2771C66.0232 64.0711 65.6675 63.8858 65.521 64.0917Z" fill="#EA9C00"/>
<path d="M70.3127 62.7531C70.0197 62.8354 69.7477 62.9796 69.5803 63.2267C69.4128 63.4532 69.3919 63.7827 69.5384 64.0298C69.664 64.2564 69.936 64.4211 70.2081 64.4829C70.522 64.5447 70.815 64.4829 71.0871 64.3387C71.401 64.174 71.6731 63.8857 71.9033 63.618C72.0707 63.4326 71.7987 63.1443 71.6103 63.3297C71.2545 63.7209 70.7522 64.2976 70.1662 64.0298C69.9779 63.9475 69.8105 63.7621 69.8523 63.5562C69.9151 63.3091 70.2081 63.1649 70.4383 63.1031C70.6685 63.062 70.5639 62.6707 70.3127 62.7531Z" fill="#EA9C00"/>
<path d="M72.1761 96.7732C71.4854 96.9379 71.0041 97.5146 70.6693 98.0912C70.3135 98.6884 70.1879 99.4915 70.8785 99.924C71.5482 100.336 72.4691 100.048 73.1388 99.8004C73.8713 99.5327 74.5619 99.1414 75.1688 98.6472C75.3781 98.4824 75.0851 98.2147 74.8758 98.3589C74.3735 98.7502 73.8294 99.0796 73.2225 99.3268C72.9295 99.4503 72.6365 99.5327 72.3226 99.6151C71.9877 99.6974 71.6319 99.7798 71.2971 99.6769C71.025 99.5945 70.7739 99.4091 70.732 99.1208C70.6902 98.8119 70.8576 98.4824 71.0041 98.2147C71.2971 97.7411 71.6738 97.288 72.2389 97.1439C72.5528 97.1027 72.4481 96.7114 72.1761 96.7732Z" fill="#EA9C00"/>
<path d="M76.4454 97.2675C76.2152 97.8441 75.9849 98.4619 76.2361 99.0592C76.4663 99.5946 76.9686 99.8211 77.5336 99.7593C78.1615 99.677 78.7684 99.3681 79.3334 99.1003C79.9613 98.7914 80.5263 98.4208 81.0914 98.0089C81.3007 97.8647 81.0914 97.5147 80.8821 97.6588C80.0031 98.3178 78.9986 98.915 77.9313 99.2651C77.4499 99.4298 76.8639 99.471 76.6128 98.9356C76.3826 98.4208 76.6337 97.8441 76.843 97.3705C76.9476 97.144 76.55 97.041 76.4454 97.2675Z" fill="#EA9C00"/>
<path opacity="0.6" d="M71.2964 68.7043C69.9779 69.2397 68.8687 70.1458 67.8642 71.1549C67.5293 71.5049 67.1736 71.855 67.0061 72.3081C66.8178 72.7611 66.8387 73.2966 67.1526 73.6672C67.5921 74.1821 68.4502 74.1615 69.0571 73.8114C69.664 73.4819 70.1035 72.9259 70.6476 72.4934C71.8615 71.5049 73.5566 71.1137 75.0844 71.4844C75.7332 71.6491 76.3819 71.9374 77.0516 71.8756C79.6049 71.6491 77.1144 69.0543 76.0889 68.5601C74.7077 67.9011 72.6358 68.1482 71.2964 68.7043Z" fill="white"/>
<path d="M82.9117 106.823C82.9535 103.507 77.5541 101.159 74.959 100.48C72.3639 99.7796 68.3666 100.83 67.3621 104.66C66.3575 108.491 67.9062 111.765 71.1291 112.197C75.4822 112.753 82.8698 110.797 82.9117 106.823Z" fill="#FFE8AE"/>
<path d="M71.1291 112.177C74.4986 112.63 79.7097 111.538 81.8862 109.17C79.333 110.467 75.7542 111.003 73.2219 110.673C69.999 110.241 68.4503 106.987 69.4549 103.136C69.706 102.189 70.1246 101.427 70.6687 100.809C69.1828 101.447 67.8853 102.683 67.3621 104.639C66.3575 108.49 67.9062 111.765 71.1291 112.177Z" fill="#EDD7A4"/>
<path opacity="0.6" d="M80.9448 105.134C80.5891 104.64 80.0659 104.31 79.5217 104.042C79.0613 103.816 78.58 103.61 78.0777 103.445C77.5754 103.28 77.0522 103.157 76.5499 103.26C76.0477 103.363 75.5663 103.754 75.5244 104.269C75.5035 104.392 75.5245 104.537 75.5872 104.64C75.6709 104.784 75.8174 104.866 75.9639 104.948C76.7801 105.36 77.7428 105.546 78.3707 106.184C78.7892 106.596 79.0822 107.214 79.6682 107.337C81.0285 107.646 81.6145 106.081 80.9448 105.134Z" fill="white"/>
<path d="M61.2926 98.5236C58.1743 99.7386 58.0069 105.546 58.3417 108.182C58.6766 110.797 61.167 114.051 65.1643 113.495C69.1616 112.959 71.6311 110.303 70.8149 107.214C69.7057 103.054 65.0387 97.0615 61.2926 98.5236Z" fill="#FFE8AE"/>
<path d="M70.8149 107.214C69.9569 103.981 66.9642 99.6564 63.9087 98.5649C66.0852 100.398 67.9478 103.446 68.5966 105.896C69.4128 108.985 66.9432 111.642 62.946 112.177C61.9623 112.301 61.0834 112.218 60.2881 111.971C61.4601 113.083 63.1134 113.804 65.1434 113.516C69.1407 112.96 71.6311 110.303 70.8149 107.214Z" fill="#EDD7A4"/>
<path opacity="0.6" d="M60.4559 100.974C60.121 101.468 60.0164 102.086 59.9536 102.683C59.9118 103.198 59.9118 103.713 59.9327 104.228C59.9745 104.743 60.0583 105.258 60.3513 105.69C60.6442 106.123 61.1884 106.39 61.6907 106.246C61.8162 106.205 61.9418 106.143 62.0255 106.04C62.1301 105.917 62.1511 105.752 62.172 105.587C62.2557 104.702 62.0464 103.754 62.4022 102.931C62.6324 102.395 63.0928 101.88 63.0091 101.304C62.7998 99.924 61.1047 99.9858 60.4559 100.974Z" fill="white"/>
</g>
<path d="M286.027 108.926C287.942 109.519 289.818 110.351 291.541 111.38C291.464 108.253 291.541 105.127 291.809 102C293.187 104.652 294.604 107.264 295.982 109.915C297.82 107.501 300.271 105.601 303.027 104.454C302.108 107.501 301.649 110.707 301.611 113.873C301.611 113.556 292.115 114.071 291.273 113.992C288.21 113.596 288.248 111.023 286.027 108.926Z" fill="#9CAD5E"/>
<path d="M122.027 114.926C123.942 115.519 125.818 116.351 127.541 117.38C127.464 114.253 127.541 111.127 127.809 108C129.187 110.652 130.604 113.264 131.982 115.915C133.82 113.501 136.271 111.601 139.027 110.454C138.108 113.501 137.649 116.707 137.611 119.873C137.611 119.556 128.115 120.071 127.273 119.992C124.21 119.596 124.248 117.023 122.027 114.926Z" fill="#9CAD5E"/>
<path d="M193.027 83.9258C194.942 84.5195 196.818 85.3506 198.541 86.3796C198.464 83.253 198.541 80.1265 198.809 77C200.187 79.6516 201.604 82.2636 202.982 84.9152C204.82 82.5011 207.271 80.6014 210.027 79.4537C209.108 82.5011 208.649 85.7068 208.611 88.8729C208.611 88.5563 199.115 89.0708 198.273 88.9916C195.21 88.5958 195.248 86.0234 193.027 83.9258Z" fill="#9CAD5E"/>
<path d="M205.027 32.5156V35.6156L182.995 14.5356L182.04 13.7089L155.027 3.1L128.083 13.64L105.164 34.4444H105.027V31.4133L128.083 10.54L155.027 0L182.04 10.6089L182.995 11.4356L205.027 32.5156Z" fill="#C17A49"/>
<path d="M205.028 35.6157L105.164 34.4445L128.084 13.6401L155.028 3.1001L182.04 13.709L182.995 14.5357L205.028 35.6157Z" fill="#A86B42"/>
<path d="M199.57 34.3065V92.9999H110.484V33.2732L130.948 15.3621L155.027 5.92432L179.106 15.3621L179.243 15.431L199.57 34.3065Z" fill="#CB1E6A"/>
<path d="M179.243 15.431V92.9999H130.948V15.3621L155.027 5.92432L179.106 15.3621L179.243 15.431Z" fill="#EC4359"/>
<path d="M175.218 57.6602H134.973V93.0002H175.218V57.6602Z" fill="white"/>
<path d="M173.172 59.7266H137.02V92.9999H173.172V59.7266Z" fill="#C17A49"/>
<path d="M229.484 99.6938C230.042 102.665 231.179 106.518 230.668 109.558C230.436 110.974 228.626 110.649 227.372 110.789C225.678 110.974 223.984 111.183 222.312 111.369C221.964 111.415 221.593 111.462 221.314 111.671C221.036 111.88 220.873 112.297 221.082 112.576C221.268 112.831 221.616 112.854 221.941 112.878C223.798 112.924 225.655 112.878 227.512 112.785C227.813 112.762 228.231 112.808 228.301 113.11C228.417 113.481 227.906 113.713 227.535 113.783C225.748 114.154 224.03 114.874 222.521 115.872C221.895 116.29 221.268 116.777 221.059 117.497C221.802 117.868 222.707 117.659 223.496 117.427C225.562 116.823 227.558 116.011 229.484 115.013C228.904 115.756 228.347 116.522 227.767 117.264C227.512 117.613 227.256 117.961 227.187 118.379C227.117 118.796 227.396 119.284 227.813 119.33C228.069 119.353 228.324 119.214 228.533 119.052C230.181 117.775 230.854 115.593 232.247 114.061C233.129 113.086 234.336 112.39 235.612 112.112C236.1 111.996 236.633 111.926 237.028 111.624C237.423 111.322 237.632 110.673 237.283 110.324C237.074 110.115 236.75 110.069 236.471 110.046C235.009 109.93 232.896 109.721 231.527 110.324C230.343 110.835 230.645 112.785 232.014 112.506C232.734 112.367 232.943 111.415 232.943 110.673C232.943 107.33 232.177 104.011 232.548 100.692C232.641 99.8563 232.804 98.9743 232.502 98.1851C232.223 97.4656 231.04 96.7228 230.25 96.9781C229.183 97.3727 229.322 98.835 229.484 99.6938Z" fill="#E03E36"/>
<path d="M250.235 103.361C250.793 106.332 251.93 110.185 251.419 113.225C251.187 114.641 249.377 114.316 248.123 114.456C246.429 114.641 244.734 114.85 243.063 115.036C242.715 115.082 242.344 115.129 242.065 115.338C241.787 115.547 241.624 115.964 241.833 116.243C242.019 116.498 242.367 116.521 242.692 116.545C244.549 116.591 246.406 116.545 248.263 116.452C248.564 116.429 248.982 116.475 249.052 116.777C249.168 117.148 248.657 117.38 248.286 117.45C246.499 117.821 244.781 118.541 243.272 119.539C242.646 119.957 242.019 120.444 241.81 121.164C242.553 121.535 243.458 121.326 244.247 121.094C246.313 120.49 248.309 119.678 250.235 118.68C249.655 119.423 249.098 120.189 248.518 120.931C248.263 121.28 248.007 121.628 247.938 122.046C247.891 122.463 248.146 122.951 248.564 122.997C248.82 123.02 249.075 122.881 249.284 122.719C250.932 121.442 251.605 119.26 252.998 117.728C253.88 116.753 255.087 116.057 256.363 115.779C256.851 115.663 257.384 115.593 257.779 115.291C258.174 114.989 258.382 114.34 258.034 113.991C257.825 113.782 257.5 113.736 257.222 113.713C255.76 113.597 253.647 113.388 252.278 113.991C251.094 114.502 251.396 116.452 252.765 116.173C253.485 116.034 253.694 115.082 253.694 114.34C253.694 110.997 252.928 107.678 253.299 104.359C253.392 103.523 253.555 102.641 253.253 101.852C252.974 101.133 251.791 100.39 251.001 100.645C249.934 101.04 250.096 102.502 250.235 103.361Z" fill="#E03E36"/>
<path d="M209.616 24.3742C207.225 25.5348 204.904 26.881 202.862 28.7379C202.026 29.5038 201.237 30.3626 200.703 31.4071C200.146 32.4748 199.867 33.7514 200.123 34.9584C200.355 36.0957 201.028 37.0474 201.724 37.8598C204.881 41.5503 209.361 43.6857 213.84 43.5929C215.233 43.5696 216.649 43.3375 217.902 42.5948C219.736 41.5039 221.036 39.4381 221.779 37.1866C222.452 35.1905 222.753 32.9855 222.498 30.8501C222.243 28.7147 221.43 26.6489 220.107 25.1402C219.411 24.351 218.622 23.7475 217.763 23.2369C217.09 22.8423 216.138 22.1228 215.396 22.0299C214.537 21.9139 213.376 22.6798 212.564 23.0048C211.566 23.4458 210.591 23.8868 209.616 24.3742Z" fill="#E03E36"/>
<path d="M222.521 20.591C223.682 17.2254 226.398 14.4169 229.717 13.1635C230.761 12.7689 231.991 12.5368 232.989 13.0474C233.988 13.5581 234.498 15.09 233.663 15.8559C234.73 15.3917 235.937 15.1132 237.075 15.3453C238.212 15.5542 239.303 16.3666 239.605 17.4807C239.93 18.5948 239.256 19.9875 238.119 20.2428C239.28 19.6857 240.579 21.1016 240.44 22.3782C240.301 23.6548 239.28 24.6297 238.282 25.442C236.355 27.0204 234.22 28.4362 231.852 29.2022C229.461 29.945 226.792 29.9914 224.541 28.8773C223.171 28.2041 221.941 27.0204 221.593 25.5349C221.036 23.1674 222.707 20.9159 224.285 19.059L222.521 20.591Z" fill="#E03E36"/>
<path d="M267.666 37.2562C270.591 31.5928 275.697 26.8577 281.894 25.2794C288.092 23.7243 295.264 25.7436 299.047 30.9196C301.113 33.7514 302.065 37.2562 302.715 40.6914C300.393 37.5348 296.239 35.8404 292.386 36.5135C296.169 38.2311 298.699 42.0609 299.72 46.0996C300.742 50.1383 300.463 54.3859 299.952 58.5174C298.397 51.6702 291.457 46.4942 284.448 46.9584C287.697 49.6973 290.018 53.5271 290.9 57.705C288.927 55.8017 286.281 54.4555 283.542 54.4555C280.803 54.4555 277.972 55.941 276.811 58.4246C275.14 61.9991 276.834 66.9662 273.956 69.6354C271.542 71.8637 267.643 70.796 264.834 69.1248C259.542 65.9449 254.668 59.2137 257.755 52.854C258.776 50.7882 260.796 49.2331 262.212 47.4458C264.672 44.3588 265.879 40.7379 267.666 37.2562Z" fill="#FFAF00"/>
<path d="M224.866 94.8427C225.701 96.6068 226.723 98.3708 228.324 99.5081C229.902 100.645 232.177 101.04 233.825 99.9955C234.777 99.3689 235.403 98.3708 235.937 97.3727C238.235 93.1251 239.628 88.3669 239.953 83.5622C240.115 81.1483 239.976 78.6183 238.792 76.5061C238.05 75.1599 236.889 74.069 235.543 73.303C232.827 71.7479 229.369 71.5622 226.537 72.862C217.601 76.9471 221.639 88.158 224.866 94.8427Z" fill="#BF6725"/>
<path d="M218.019 22.5874C214.63 25.4887 212.518 29.6203 211.032 33.8447C207.225 44.661 207.086 56.7074 210.591 67.6165C212.216 72.6301 214.653 77.5044 218.506 81.1021C221.082 83.4928 224.193 85.2568 227.373 86.7191C232.874 89.2723 238.792 91.0828 244.85 91.1988C252.626 91.3381 260.402 88.5528 266.32 83.516C272.239 78.4792 276.231 71.2374 277.346 63.5546C278.181 57.7519 276.974 51.0207 272.1 47.748C269.872 46.2625 267.179 45.6822 264.51 45.2644C255.272 43.8486 245.407 43.9878 237.33 39.276C235.311 38.0923 233.361 36.5139 232.665 34.2625C231.318 29.8524 235.079 23.6551 230.506 20.127C227.001 17.4346 220.897 20.127 218.019 22.5874Z" fill="#E07B28"/>
<path d="M232.688 28.4361C232.897 26.6488 233.059 24.8384 232.618 23.2368C232.386 25.0705 232.223 26.8577 232.688 28.4361Z" fill="#D8712B"/>
<path d="M277.368 57.7978C276.277 65.4806 272.262 72.7224 266.343 77.7591C260.424 82.7959 252.626 85.5812 244.873 85.442C238.815 85.3259 232.896 83.5154 227.395 80.9622C224.215 79.4767 221.105 77.7359 218.529 75.3452C214.676 71.7475 212.239 66.8732 210.614 61.8597C209.221 57.5425 208.409 53.0627 208.153 48.5366C207.805 54.9893 208.618 61.5347 210.614 67.6856C212.239 72.6992 214.676 77.5735 218.529 81.1711C221.105 83.5619 224.215 85.3259 227.395 86.7882C232.896 89.3414 238.815 91.1518 244.873 91.2679C252.649 91.4072 260.424 88.6218 266.343 83.5851C272.262 78.5483 276.254 71.3065 277.368 63.6237C277.647 61.6044 277.693 59.469 277.415 57.4032C277.392 57.5192 277.392 57.6585 277.368 57.7978Z" fill="#D8712B"/>
<path d="M244.919 98.4638C245.755 100.228 246.776 101.992 248.378 103.129C249.956 104.267 252.231 104.661 253.879 103.617C254.83 102.99 255.457 101.992 255.991 100.994C258.289 96.7462 259.682 91.988 260.007 87.1833C260.169 84.7694 260.03 82.2394 258.846 80.1272C258.103 78.781 256.943 77.6901 255.596 76.9241C252.881 75.369 249.422 75.1833 246.591 76.4831C237.654 80.5682 241.693 91.7559 244.919 98.4638Z" fill="#E07B28"/>
<path d="M225.678 56.1269C225.028 58.7265 225.376 61.4654 226.188 64.0186C228.231 70.3784 233.268 75.6937 239.511 78.038C245.755 80.4055 253.066 79.7556 258.776 76.3204C259.682 75.7866 260.587 75.1134 260.935 74.1386C261.283 73.1637 260.773 71.8175 259.728 71.7014C260.633 71.6318 261.538 71.2604 262.235 70.657C263.163 69.891 263.767 68.6608 263.511 67.4771C263.256 66.3165 261.979 65.3649 260.842 65.7362C262.142 65.5506 263.372 65.0631 264.44 64.2972C265.322 63.6705 266.157 62.6028 265.832 61.5583C265.531 60.5834 264.417 60.1424 263.419 59.9335C259.194 59.0747 254.668 60.1192 250.583 58.7033C246.962 57.4499 244.27 54.4557 240.927 52.5757C238.026 50.9509 234.475 50.1617 231.132 50.2778C228.277 50.4403 226.328 53.5969 225.678 56.1269Z" fill="#D8712B"/>
<path d="M273.005 37.6976C276 34.4713 279.876 31.9181 284.193 31.0593C288.51 30.2237 293.315 31.2449 296.518 34.2624C292.665 32.4055 288 32.2894 284.1 34.007C280.178 35.7014 277.067 39.1831 275.814 43.2682C277.346 40.715 280.526 39.6705 283.497 39.4384C286.143 39.2295 288.905 39.508 291.272 40.6918C293.663 41.8755 295.636 44.0574 296.147 46.657C293.547 43.9877 289.787 42.479 286.073 42.6183C282.359 42.7575 278.715 44.5216 276.301 47.3533C280.038 47.2605 283.775 49.0245 286.073 51.9723C283.334 51.0438 280.154 50.185 277.717 51.7402C276.51 52.5061 275.721 53.7363 274.769 54.7808C272.68 57.0323 269.176 58.3553 266.53 56.8234C265.09 55.9878 264.139 54.3398 264.139 52.6918C264.116 50.3243 266.46 47.7711 267.551 45.7285C269.036 42.804 270.8 40.0651 273.005 37.6976Z" fill="#E07B28"/>
<path d="M221.523 20.6606C221.523 20.6606 216.927 10.7495 216.533 11.0048C216.138 11.2834 216.533 21.9372 216.533 21.9372C216.533 21.9372 207.759 18.5716 207.434 18.943C207.086 19.3144 215.024 25.7902 215.024 25.7902C215.024 25.7902 220.061 26.4633 220.85 25.7902C221.662 25.1171 221.523 20.6606 221.523 20.6606Z" fill="#B77165"/>
<path d="M225.678 53.4111C225.028 56.0107 225.376 58.7496 226.188 61.3028C228.231 67.6626 233.268 72.9779 239.511 75.3222C245.755 77.6897 253.066 77.0398 258.776 73.6046C259.682 73.0707 260.587 72.3976 260.935 71.4228C261.283 70.4479 260.773 69.1017 259.728 68.9856C260.633 68.916 261.538 68.5446 262.235 67.9411C263.163 67.1752 263.767 65.945 263.511 64.7612C263.256 63.6007 261.979 62.649 260.842 63.0204C262.142 62.8347 263.372 62.3473 264.44 61.5813C265.322 60.9546 266.157 59.8869 265.832 58.8425C265.531 57.8676 264.417 57.4266 263.419 57.2177C259.194 56.3589 254.668 57.4034 250.583 55.9875C246.962 54.7341 244.27 51.7399 240.927 49.8598C238.026 48.2351 234.475 47.4459 231.132 47.562C228.277 47.7244 226.328 50.8579 225.678 53.4111Z" fill="#FFAF00"/>
<path d="M253.369 57.7518C252.742 59.0284 251.094 59.6783 249.771 59.2141C250.676 59.7712 250.584 61.2567 249.771 61.9762C248.982 62.6957 247.798 62.7654 246.731 62.6029C247.334 63.276 247.45 64.2973 247.148 65.1561C246.847 66.0149 246.173 66.688 245.384 67.1522C244.177 67.8486 242.692 68.0342 241.369 67.6397C241.531 68.4753 241.137 69.3108 240.603 69.9608C238.7 72.2818 236.286 71.9337 233.732 71.9801C235.473 73.3495 237.423 74.4637 239.512 75.2528C240.301 75.5546 241.09 75.7867 241.903 75.9956C242.46 75.6474 242.97 75.2528 243.458 74.835C244.131 74.2316 244.734 73.5352 245.083 72.7228C245.431 71.8873 245.454 70.8892 244.99 70.1232C246.173 70.5178 247.496 70.5178 248.703 70.1232C249.516 69.8447 250.305 69.3573 250.769 68.6145C251.512 67.3843 251.048 65.6203 249.794 64.9008C250.676 64.9936 251.558 65.0168 252.394 64.7615C253.23 64.5062 253.996 63.9259 254.32 63.1135C254.622 62.3012 254.367 61.2335 253.601 60.8157C254.831 60.5835 256.154 60.2818 256.943 59.3302C257.524 58.6338 257.663 57.6822 257.477 56.8002C256.201 56.8002 254.924 56.777 253.694 56.6377C253.647 57.0091 253.555 57.4037 253.369 57.7518Z" fill="#FFE8AE"/>
<path d="M231.411 42.6644C233.43 42.5251 235.357 41.3646 236.424 39.647C236.564 39.4149 236.703 39.1828 236.796 38.9274C235.357 38.0222 234.01 36.8849 233.198 35.4458C232.571 35.5154 231.945 35.6547 231.341 35.8172C230.227 36.1189 229.09 36.4671 227.929 36.4207C226.49 36.351 225.097 35.6547 223.658 35.8636C222.683 36.0029 221.801 36.5367 220.85 36.8152C219.527 37.1866 218.134 37.0474 216.788 37.2098C215.14 37.4187 213.585 38.1151 212.076 38.8114C211.217 39.206 210.173 39.7166 209.198 40.3433C208.432 43.941 208.061 47.6083 208.061 51.2988C208.548 51.8095 209.151 52.1576 209.894 52.2041C210.776 52.2505 211.612 51.8559 212.355 51.3917C215.093 49.6741 217.136 46.9352 218.018 43.8249C218.064 44.8926 218.575 45.9835 219.527 46.4478C220.85 47.0977 222.451 46.2853 223.496 45.2408C224.796 43.941 225.678 42.2234 225.979 40.4129C227.326 41.9681 229.391 42.8269 231.411 42.6644Z" fill="#FFE8AE"/>
<path d="M232.479 36.7459C232.85 36.4905 233.175 36.1656 233.453 35.8174C233.128 35.33 232.873 34.7961 232.687 34.2159C232.571 33.8213 232.479 33.4267 232.432 33.0089C231.782 33.5892 230.97 34.0302 230.111 34.2159C228.138 34.6569 225.91 33.8445 224.703 32.2197C224.494 33.3106 223.566 34.2391 222.451 34.4248C221.361 34.6104 220.154 34.0534 219.597 33.0785C217.879 34.4944 215.813 35.7246 213.585 35.5853C212.61 35.5157 211.728 34.7961 210.869 34.1462C209.732 37.4654 208.943 40.9006 208.479 44.3822C209.802 44.684 211.264 44.3358 212.54 43.7788C215.233 42.595 217.554 40.5292 219.016 37.976C219.132 39.6008 221.221 40.506 222.753 39.9257C224.262 39.3223 225.19 37.7439 225.585 36.1656C227.372 37.9296 230.436 38.1849 232.479 36.7459Z" fill="#FFAF00"/>
<path d="M226.606 22.355C226.072 22.5407 225.585 22.8656 225.19 23.2602C224.981 23.4691 224.796 23.7244 224.842 24.003C224.865 24.2815 225.121 24.5136 225.399 24.56C225.678 24.6296 225.956 24.56 226.235 24.4672C226.815 24.2583 227.349 23.8869 227.744 23.4227C227.86 23.3066 227.952 23.1442 227.952 22.9817C227.976 22.7031 227.697 22.4478 227.419 22.4014C227.14 22.3318 226.838 22.4246 226.56 22.4942L226.606 22.355Z" fill="#231F20"/>
<path d="M210.939 57.1016C210.986 58.5871 211.45 60.2815 212.587 61.326C213.005 61.7206 213.841 62.3008 214.142 61.4885C214.421 60.7225 214.537 59.8637 214.537 59.0513C214.537 58.7728 214.096 58.7728 214.096 59.0513C214.096 59.7244 214.003 60.3975 213.818 61.0707C213.794 61.1635 213.748 61.442 213.655 61.4885C213.539 61.5581 213.307 61.3724 213.214 61.3028C212.982 61.1403 212.75 60.9314 212.564 60.7225C211.752 59.7476 211.38 58.3782 211.357 57.1248C211.357 56.8231 210.916 56.8231 210.939 57.1016Z" fill="#BF6725"/>
<path d="M213.654 53.504C214.165 54.5717 214.142 55.8715 214.908 56.8232C215.256 57.2642 215.883 57.6123 216.44 57.3802C217.02 57.1249 217.182 56.3357 217.252 55.7787C217.275 55.5698 217.298 55.3609 217.298 55.152C217.298 54.9663 217.298 54.7342 217.252 54.5717C217.136 54.2235 216.625 54.4092 216.788 54.7342C216.834 54.827 216.95 54.8502 217.043 54.827C217.043 54.827 217.043 54.827 217.066 54.827C217.345 54.7574 217.229 54.3396 216.95 54.4092C216.95 54.4092 216.95 54.4092 216.927 54.4092C217.02 54.4324 217.09 54.4789 217.182 54.5021C217.182 54.5253 217.206 54.5485 217.206 54.5717C217.159 54.6413 217.136 54.6878 217.09 54.7574H217.113C217.043 54.7574 216.973 54.7574 216.904 54.7574C216.857 54.711 216.834 54.711 216.881 54.8038C216.881 54.8502 216.881 54.8967 216.881 54.9431C216.881 55.0359 216.881 55.1288 216.881 55.2216C216.881 55.4073 216.857 55.593 216.834 55.7787C216.788 56.0804 216.718 56.4054 216.579 56.6839C216.231 57.2874 215.581 56.9392 215.233 56.5214C214.884 56.0804 214.722 55.5001 214.583 54.9663C214.443 54.386 214.304 53.8289 214.049 53.2719C213.91 53.0398 213.515 53.2487 213.654 53.504Z" fill="#BF6725"/>
<path d="M216.858 60.7923C217.067 61.9529 217.624 63.067 218.436 63.9258C218.622 64.1115 218.854 64.4132 219.11 64.4597C219.388 64.5061 219.551 64.274 219.643 64.0419C219.876 63.392 219.945 62.6724 219.899 61.9993C219.876 61.7208 219.434 61.7208 219.458 61.9993C219.504 62.5564 219.458 63.1366 219.295 63.6705C219.272 63.7401 219.249 63.9722 219.179 64.0187C219.133 64.0419 219.017 63.9026 218.97 63.8562C218.785 63.6937 218.622 63.508 218.46 63.3223C217.833 62.5564 217.415 61.6512 217.253 60.6763C217.229 60.3978 216.812 60.5138 216.858 60.7923Z" fill="#BF6725"/>
<path d="M219.736 54.1073C219.968 55.0821 220.224 56.1034 220.804 56.9622C221.059 57.3568 221.407 57.7514 221.918 57.7746C222.359 57.7978 222.684 57.4729 222.893 57.1015C223.148 56.5909 223.195 55.9642 223.148 55.3839C223.125 55.1054 222.684 55.1054 222.707 55.3839C222.754 55.9177 222.731 56.5212 222.452 56.9854C222.359 57.1479 222.197 57.3104 221.988 57.3336C221.732 57.3568 221.524 57.1711 221.384 57.0087C220.665 56.1963 220.409 55.0125 220.154 53.9912C220.084 53.7127 219.667 53.8288 219.736 54.1073Z" fill="#BF6725"/>
<path d="M213.655 67.3146C213.864 68.6144 214.421 69.8678 215.257 70.8891C215.628 71.3533 216.139 71.8408 216.742 71.9336C217.462 72.0497 217.694 71.3069 217.833 70.7498C218.042 69.9839 218.065 69.2179 217.926 68.4288C217.879 68.1502 217.462 68.2663 217.508 68.5448C217.647 69.2876 217.578 70.0535 217.369 70.7731C217.322 70.9355 217.253 71.1212 217.16 71.2837C217.067 71.4694 216.951 71.5158 216.742 71.4694C216.417 71.3997 216.115 71.1676 215.883 70.9355C214.885 69.9607 214.282 68.5448 214.05 67.1754C214.026 66.92 213.609 67.0361 213.655 67.3146Z" fill="#BF6725"/>
<path d="M220.317 71.4692C220.618 71.8638 220.943 72.212 221.315 72.5369C221.663 72.8387 222.058 73.1404 222.499 73.3493C222.916 73.535 223.427 73.5118 223.659 73.0476C223.868 72.6298 223.868 72.0959 223.891 71.6549C223.891 71.3068 223.984 70.2623 223.357 70.4248C223.079 70.4944 223.195 70.9122 223.473 70.8425C223.404 70.8193 223.404 70.8193 223.404 70.8425C223.404 70.8658 223.427 70.889 223.427 70.9122C223.427 70.9586 223.427 71.005 223.45 71.0514C223.45 71.1907 223.473 71.3068 223.473 71.446C223.473 71.7246 223.473 72.0031 223.427 72.2584C223.404 72.6066 223.334 73.1404 222.847 73.0012C222.638 72.9315 222.429 72.8155 222.243 72.6762C222.058 72.5602 221.872 72.4209 221.686 72.2584C221.315 71.9567 220.99 71.6085 220.688 71.2371C220.618 71.1443 220.502 71.0979 220.386 71.1675C220.294 71.2371 220.247 71.3764 220.317 71.4692Z" fill="#BF6725"/>
<path d="M219.62 77.4811C219.968 77.8061 220.339 78.1078 220.734 78.3863C221.105 78.6649 221.5 78.9666 221.941 79.1291C222.126 79.1987 222.335 79.2451 222.544 79.1755C222.753 79.1059 222.892 78.897 222.916 78.6881C223.008 78.2007 222.985 77.6436 222.962 77.1562C222.939 76.8776 222.521 76.8776 222.521 77.1562C222.544 77.5972 222.544 78.0382 222.498 78.4792C222.475 78.6185 222.475 78.7809 222.289 78.7809C222.126 78.7809 221.964 78.6649 221.825 78.5952C221.128 78.1774 220.502 77.7132 219.898 77.1562C219.736 76.9705 219.411 77.2722 219.62 77.4811Z" fill="#BF6725"/>
<path d="M229.067 75.0901C229.462 75.5776 229.926 76.0186 230.483 76.3203C230.994 76.6221 231.597 76.9006 232.201 76.9238C232.804 76.947 233.315 76.6221 233.547 76.065C233.825 75.4151 233.663 74.7188 233.477 74.0689C233.408 73.7903 232.99 73.9064 233.059 74.1849C233.199 74.7188 233.384 75.3223 233.152 75.8561C232.943 76.39 232.433 76.5524 231.899 76.4132C230.901 76.1811 229.996 75.5312 229.369 74.742C229.206 74.5795 228.905 74.8813 229.067 75.0901Z" fill="#BF6725"/>
<path d="M229.903 82.6571C230.088 82.6107 230.297 82.6803 230.46 82.7732C230.645 82.866 230.831 82.9356 231.04 83.0285C231.411 83.1677 231.829 83.2606 232.224 83.1445C232.827 82.9821 233.291 82.2857 232.967 81.6822C232.827 81.4269 232.456 81.659 232.595 81.8911C232.711 82.0768 232.618 82.3089 232.479 82.4714C232.293 82.6803 232.038 82.7499 231.76 82.7499C231.435 82.7267 231.11 82.5875 230.808 82.4482C230.483 82.3089 230.158 82.1465 229.787 82.2393C229.508 82.2857 229.624 82.7035 229.903 82.6571Z" fill="#BF6725"/>
<path d="M250.026 47.1675C251.047 47.8639 252.393 48.3049 253.647 48.1888C254.181 48.1424 254.761 47.9335 255.016 47.4229C255.225 47.0051 255.225 46.448 254.831 46.123C254.622 45.9374 254.297 46.2623 254.529 46.4248C254.831 46.6801 254.761 47.1443 254.482 47.3996C254.134 47.7478 253.577 47.771 253.136 47.7478C252.092 47.7014 251.094 47.3532 250.235 46.7729C250.003 46.6337 249.794 47.0051 250.026 47.1675Z" fill="#BF6725"/>
<path d="M257.569 49.6742C258.405 49.9527 259.357 50.0455 260.146 49.5581C260.471 49.3724 260.749 49.0939 260.912 48.7457C261.051 48.4672 261.051 48.003 260.68 47.9101C260.401 47.8405 260.285 48.2583 260.564 48.3279C260.633 48.3511 260.564 48.3279 260.564 48.3047C260.564 48.3047 260.587 48.3279 260.587 48.3511C260.587 48.3976 260.587 48.444 260.564 48.4904C260.517 48.6065 260.448 48.7225 260.378 48.8154C260.192 49.0243 259.96 49.21 259.705 49.3028C259.055 49.5813 258.335 49.4653 257.709 49.2332C257.407 49.1635 257.291 49.6045 257.569 49.6742Z" fill="#BF6725"/>
<path opacity="0.32" d="M228.301 14.3705C227.93 14.6026 227.558 14.9044 227.396 15.3222C227.233 15.74 227.372 16.297 227.767 16.4827C228.092 16.622 228.463 16.5059 228.765 16.3434C229.067 16.1578 229.345 15.9257 229.67 15.7864C230.065 15.6239 230.506 15.6239 230.947 15.5775C231.945 15.4382 232.688 14.3009 231.597 13.651C230.738 13.1636 228.997 13.9527 228.301 14.3705Z" fill="white"/>
<path opacity="0.32" d="M204.092 29.0397C203.233 29.7592 202.421 30.6412 202.305 31.7553C202.212 32.5445 202.491 33.3337 202.908 34.0068C203.466 34.8888 204.348 35.6316 205.369 35.6316C205.74 35.6316 206.135 35.5387 206.413 35.2602C207.017 34.6567 206.715 33.6586 206.645 32.7998C206.576 31.8714 206.901 30.8965 207.504 30.2002C207.968 29.6431 208.618 29.2486 209.152 28.7379C209.686 28.2273 210.15 27.5542 210.081 26.8346C207.713 26.3472 205.833 27.6006 204.092 29.0397Z" fill="white"/>
<path opacity="0.32" d="M227.906 56.7534C228.254 57.2408 228.765 57.6586 229.345 57.7979C230.483 58.0532 231.55 57.2176 232.432 56.4284C233.825 55.1982 235.519 53.8984 237.33 54.2698C238.049 54.4091 238.676 54.8036 239.396 55.0125C240.092 55.2214 240.951 55.1982 241.438 54.6412C242.111 53.8288 241.508 52.5986 240.765 51.8327C239.187 50.2079 237.028 49.1402 234.753 49.0241C231.318 48.8152 224.912 52.4826 227.906 56.7534Z" fill="white"/>
<path d="M139.027 32.5C139.027 23.3873 146.415 16 155.527 16C164.64 16 172.027 23.3873 172.027 32.5C172.027 41.6127 164.64 49 155.527 49C146.415 49 139.027 41.6127 139.027 32.5Z" fill="white"/>
<path fill-rule="evenodd" clip-rule="evenodd" d="M159.088 41.185H152.308C150.993 41.185 149.993 40.9009 149.308 40.3136C148.622 39.7453 148.289 38.8929 148.289 37.7752V33.8035H152.975V36.506C152.975 37.4153 153.475 37.851 154.475 37.851H157.069C157.902 37.8131 158.384 37.4721 158.495 36.8281V33.8035H163.144V37.6995C163.144 38.2678 163.033 38.7603 162.848 39.177C162.644 39.6127 162.366 39.9727 162.014 40.2758C161.662 40.5788 161.236 40.8062 160.736 40.9577C160.236 41.1093 159.68 41.185 159.088 41.185ZM163.144 31.6944V33.8035H166.328V31.6944H163.144ZM158.495 31.6944H163.144V26.4219H158.495V31.6944ZM148.289 31.6944V33.8035H145.105V31.6944H148.289ZM148.289 31.6944V26.4219H152.975V31.6944H148.289Z" fill="url(#paint0_linear)"/>
<path d="M154.099 91.8877C154.099 91.9607 154.113 92.0483 154.07 92.1068C154.013 92.209 153.856 92.2236 153.742 92.2236C153.284 92.2236 152.827 92.2382 152.37 92.2382C152.256 92.2382 152.113 92.2528 152.07 92.3696C151.999 92.5449 152.227 92.6763 152.399 92.7055C152.756 92.7639 153.127 92.7639 153.484 92.7055C153.113 92.8808 152.742 93.056 152.37 93.2167C152.299 93.2459 152.213 93.2897 152.156 93.3627C152.113 93.4357 152.099 93.538 152.17 93.5964C152.213 93.6402 152.284 93.6256 152.342 93.6256C152.842 93.5672 153.313 93.3627 153.727 93.0706C153.527 93.2459 153.356 93.4357 153.213 93.6548C153.156 93.7424 153.084 93.8593 153.142 93.9469C153.213 94.0637 153.399 94.0199 153.513 93.9323C154.042 93.5672 154.327 92.8224 154.942 92.6617C155.256 92.5741 155.656 92.6325 155.842 92.355C155.599 91.9461 154.799 92.428 154.556 92.0045C154.513 91.9315 154.499 91.8293 154.499 91.7417C154.399 90.5003 154.484 89.2443 154.742 88.0322C154.813 87.6671 154.899 87.2436 154.656 86.9661C154.384 86.6448 153.842 86.747 153.699 87.1413C153.556 87.4918 153.756 88.076 153.799 88.4265C153.913 89.5802 154.027 90.734 154.099 91.8877Z" fill="#E03E36"/>
<path d="M158.984 91.8877C158.984 91.9607 158.999 92.0483 158.956 92.1068C158.899 92.209 158.742 92.2236 158.627 92.2236C158.17 92.2236 157.713 92.2382 157.256 92.2382C157.142 92.2382 156.999 92.2528 156.956 92.3696C156.884 92.5449 157.113 92.6763 157.284 92.7055C157.642 92.7639 158.013 92.7639 158.37 92.7055C157.999 92.8808 157.627 93.056 157.256 93.2167C157.184 93.2459 157.099 93.2897 157.042 93.3627C156.999 93.4357 156.984 93.538 157.056 93.5964C157.099 93.6402 157.17 93.6256 157.227 93.6256C157.727 93.5672 158.199 93.3627 158.613 93.0706C158.413 93.2459 158.242 93.4357 158.099 93.6548C158.042 93.7424 157.97 93.8593 158.027 93.9469C158.099 94.0637 158.284 94.0199 158.399 93.9323C158.927 93.5672 159.213 92.8224 159.827 92.6617C160.142 92.5741 160.542 92.6325 160.727 92.355C160.484 91.9461 159.684 92.428 159.442 92.0045C159.399 91.9315 159.384 91.8293 159.384 91.7417C159.284 90.5003 159.37 89.2443 159.627 88.0322C159.699 87.6671 159.784 87.2436 159.542 86.9661C159.27 86.6448 158.727 86.747 158.584 87.1413C158.442 87.4918 158.642 88.076 158.684 88.4265C158.799 89.5802 158.913 90.734 158.984 91.8877Z" fill="#E03E36"/>
<path d="M161.285 79.4302C161.642 79.1235 162.085 78.8752 162.542 78.9775C162.985 79.0797 163.299 79.7077 162.985 80.0436C163.356 80.1458 163.713 79.7515 164.085 79.8391C164.356 79.8975 164.513 80.2042 164.513 80.4963C164.513 80.7884 164.385 81.0513 164.256 81.2995C164.485 81.1535 164.799 81.3287 164.928 81.577C165.042 81.8253 165.013 82.1174 164.97 82.3948C164.799 83.534 164.47 84.6439 163.97 85.6662C163.699 86.2211 163.385 86.7761 162.942 87.2142C161.985 88.1781 160.499 88.5432 159.199 88.1781C157.899 87.813 156.828 86.7615 156.342 85.4763C156.013 84.5124 155.999 83.4025 156.413 82.4679C156.828 81.5186 157.656 80.9052 158.613 80.6277C159.028 80.5109 159.47 80.5401 159.885 80.4233C160.47 80.2626 160.842 79.8099 161.285 79.4302Z" fill="#FFAF00"/>
<path d="M149.642 78.9336C148.742 81.1827 148.97 83.8406 150.085 85.9874C150.613 87.0097 151.356 87.9298 152.313 88.5285C153.156 89.0543 154.127 89.3318 155.099 89.5216C156.442 89.7991 157.842 89.9597 159.185 89.6677C161.142 89.2587 162.87 87.8714 163.713 86.0312C164.27 84.8191 164.413 83.2272 163.527 82.2341C163.142 81.8106 162.627 81.5478 162.113 81.2849C161.399 80.9344 160.685 80.5693 159.97 80.2188C159.585 80.0289 159.185 79.8245 158.885 79.4886C158.57 79.1235 158.413 78.6415 158.213 78.2034C157.499 76.5385 155.813 74.6254 153.213 75.0635C151.27 75.4286 150.385 77.0789 149.642 78.9336Z" fill="#FFAF00"/>
<path d="M149.027 75.6914C149.284 76.1587 149.799 77.7798 149.899 78.3202C149.913 78.4224 150.67 78.0573 151.17 77.3709C151.613 76.7575 151.656 76.1295 151.67 75.7644C151.67 75.7644 149.67 75.8667 149.027 75.6914Z" fill="#E03E36"/>
<path d="M153.498 76.6699C153.37 76.6991 153.256 76.8014 153.198 76.9182C153.141 77.035 153.127 77.1811 153.127 77.3271C153.127 77.3855 153.127 77.4293 153.156 77.4732C153.198 77.5316 153.284 77.5462 153.356 77.517C153.427 77.4878 153.484 77.4439 153.527 77.3855C153.613 77.2979 153.684 77.2249 153.741 77.108C153.784 77.0058 153.798 76.8744 153.727 76.7722C153.656 76.6699 153.513 76.6407 153.427 76.7137L153.498 76.6699Z" fill="#231F20"/>
<path d="M151.228 80.9782C151.228 81.4455 151.299 81.8982 151.47 82.3364C151.499 82.424 151.585 82.4824 151.685 82.4678C151.77 82.4386 151.842 82.3364 151.813 82.2487C151.656 81.8398 151.585 81.4163 151.585 80.9928C151.585 80.8905 151.499 80.8175 151.413 80.8175C151.313 80.8029 151.228 80.8905 151.228 80.9782Z" fill="#EA9C00"/>
<path d="M150.842 83.9286C150.899 84.6296 151.228 85.2576 151.556 85.871C151.67 86.0754 151.97 85.8856 151.856 85.6957C151.556 85.1554 151.242 84.5712 151.185 83.9432C151.17 83.841 151.113 83.768 151.013 83.768C150.928 83.7534 150.842 83.8264 150.842 83.9286Z" fill="#EA9C00"/>
<path d="M153.656 85.8997C153.913 86.2356 154.213 86.5569 154.541 86.8344C154.613 86.8928 154.727 86.9074 154.784 86.8344C154.841 86.7614 154.856 86.6445 154.784 86.5861C154.456 86.3086 154.156 85.9873 153.899 85.6514C153.841 85.5784 153.713 85.5784 153.656 85.6514C153.584 85.7245 153.599 85.8121 153.656 85.8997Z" fill="#EA9C00"/>
<path d="M154.027 82.5262C154.327 82.8475 154.627 83.1688 154.927 83.4901C154.984 83.5631 155.113 83.5631 155.17 83.4901C155.241 83.417 155.241 83.3148 155.17 83.2418C154.87 82.9205 154.57 82.5992 154.27 82.2779C154.213 82.2049 154.084 82.2049 154.027 82.2779C153.956 82.3363 153.956 82.4532 154.027 82.5262Z" fill="#EA9C00"/>
<path d="M155.756 79.4302C155.941 79.7223 156.198 79.9705 156.484 80.1604C156.556 80.2042 156.684 80.175 156.727 80.102C156.77 80.0143 156.741 79.9121 156.67 79.8537C156.641 79.8391 156.598 79.8099 156.57 79.7953C156.556 79.7807 156.541 79.7807 156.527 79.7661C156.513 79.7661 156.513 79.7515 156.498 79.7515C156.47 79.7223 156.527 79.7807 156.498 79.7515C156.441 79.7076 156.384 79.6492 156.327 79.6054C156.27 79.547 156.227 79.4886 156.17 79.4302C156.17 79.4156 156.141 79.3864 156.141 79.3864C156.156 79.401 156.156 79.4156 156.156 79.401C156.156 79.401 156.156 79.401 156.156 79.3864C156.156 79.3718 156.141 79.3718 156.141 79.3571C156.113 79.3279 156.098 79.2841 156.07 79.2549C156.013 79.1819 155.913 79.1381 155.827 79.1965C155.741 79.2403 155.698 79.3571 155.756 79.4302Z" fill="#EA9C00"/>
<path d="M158.471 80.9779C158.828 81.2992 159.271 81.4744 159.742 81.489C159.828 81.489 159.928 81.4014 159.913 81.3138C159.913 81.2116 159.842 81.1385 159.742 81.1385C159.371 81.1239 158.999 80.9779 158.713 80.7296C158.642 80.6712 158.542 80.6566 158.471 80.7296C158.399 80.788 158.399 80.9195 158.471 80.9779Z" fill="#EA9C00"/>
<path d="M157.856 83.1691C158.199 83.3735 158.57 83.5342 158.941 83.6656C159.027 83.6948 159.141 83.6364 159.156 83.5342C159.184 83.4319 159.127 83.3443 159.027 83.3151C158.67 83.1983 158.356 83.0522 158.027 82.8624C157.941 82.8186 157.827 82.8478 157.784 82.9208C157.741 83.0084 157.77 83.1253 157.856 83.1691Z" fill="#EA9C00"/>
<path d="M157.142 86.9952C157.542 87.1705 157.97 87.2727 158.413 87.2581C158.513 87.2581 158.585 87.1705 158.585 87.0828C158.585 86.9806 158.499 86.893 158.413 86.9076C158.042 86.9222 157.656 86.8492 157.313 86.7031C157.228 86.6593 157.128 86.6739 157.07 86.7615C157.028 86.82 157.056 86.9514 157.142 86.9952Z" fill="#EA9C00"/>
<path d="M158.227 89.0394C158.57 89.0832 158.927 89.054 159.27 88.9518C159.356 88.9226 159.427 88.8203 159.399 88.7327C159.37 88.6451 159.27 88.5721 159.184 88.6013C159.027 88.6451 158.87 88.6743 158.727 88.6889C158.57 88.7035 158.399 88.7035 158.242 88.6743C158.156 88.6597 158.056 88.7619 158.07 88.8495C158.056 88.9664 158.127 89.0248 158.227 89.0394Z" fill="#EA9C00"/>
<path d="M161.556 87.6377C161.956 87.3018 162.342 86.9367 162.713 86.5569C162.784 86.4839 162.784 86.3671 162.713 86.3087C162.642 86.2357 162.527 86.2357 162.47 86.3087C162.099 86.6884 161.713 87.0535 161.313 87.3894C161.242 87.4478 161.256 87.5792 161.313 87.6377C161.384 87.7107 161.484 87.6961 161.556 87.6377Z" fill="#EA9C00"/>
<path d="M160.856 85.3884C161.185 85.1548 161.499 84.8773 161.756 84.556C161.813 84.483 161.828 84.3662 161.756 84.3077C161.685 84.2493 161.571 84.2347 161.513 84.3077C161.385 84.4538 161.256 84.5998 161.113 84.7313C161.042 84.7897 160.971 84.8627 160.899 84.9211C160.885 84.9357 160.856 84.9503 160.842 84.9649C160.828 84.9795 160.856 84.9503 160.828 84.9649C160.813 84.9649 160.813 84.9795 160.799 84.9795C160.756 85.0087 160.713 85.0379 160.671 85.0672C160.599 85.1256 160.556 85.2278 160.613 85.3154C160.671 85.4031 160.785 85.4469 160.856 85.3884Z" fill="#EA9C00"/>
<path d="M162.07 82.1029C162.084 82.0736 162.084 82.0298 162.098 82.0006C162.098 81.986 162.113 81.9714 162.113 81.9422C162.113 81.9276 162.113 81.9276 162.127 81.913C162.141 81.8838 162.127 81.913 162.127 81.9276C162.155 81.8692 162.184 81.7962 162.227 81.7377C162.241 81.7231 162.241 81.7085 162.255 81.6939C162.255 81.6939 162.284 81.6647 162.255 81.6793C162.241 81.7085 162.255 81.6793 162.255 81.6647C162.284 81.6355 162.298 81.6063 162.327 81.5917C162.355 81.5625 162.37 81.5479 162.398 81.5187L162.413 81.5041C162.427 81.4895 162.441 81.4895 162.413 81.5041C162.427 81.4895 162.441 81.4749 162.455 81.4749C162.527 81.4165 162.57 81.3142 162.513 81.2266C162.47 81.1536 162.355 81.1098 162.27 81.1682C161.984 81.358 161.784 81.6647 161.713 82.0006C161.698 82.0882 161.741 82.2051 161.841 82.2197C161.941 82.2489 162.055 82.1905 162.07 82.1029Z" fill="#EA9C00"/>
<path d="M163.427 83.4901C163.57 83.2272 163.713 82.9789 163.855 82.716C163.898 82.6284 163.884 82.5116 163.798 82.4678C163.713 82.424 163.613 82.4386 163.555 82.5262C163.413 82.7891 163.27 83.0373 163.127 83.3002C163.084 83.3878 163.098 83.5047 163.184 83.5485C163.27 83.5923 163.384 83.5777 163.427 83.4901Z" fill="#EA9C00"/>
<path d="M155.056 88.3972C155.156 88.4556 155.27 88.4848 155.385 88.4848C155.499 88.4848 155.613 88.4556 155.713 88.4118C155.756 88.3972 155.785 88.3387 155.799 88.3095C155.813 88.2657 155.799 88.2073 155.785 88.1781C155.756 88.1343 155.728 88.1051 155.685 88.0905C155.642 88.0759 155.599 88.0905 155.556 88.1051H155.542C155.556 88.1051 155.57 88.0905 155.585 88.0905C155.542 88.1051 155.485 88.1197 155.442 88.1343C155.456 88.1343 155.47 88.1343 155.485 88.1343C155.442 88.1343 155.385 88.1343 155.342 88.1343C155.356 88.1343 155.37 88.1343 155.385 88.1343C155.342 88.1343 155.285 88.1197 155.242 88.0905C155.256 88.0905 155.27 88.1051 155.285 88.1051C155.27 88.1051 155.27 88.0905 155.256 88.0905C155.213 88.0759 155.17 88.0613 155.128 88.0759C155.085 88.0905 155.042 88.1197 155.028 88.1635C154.999 88.2073 154.999 88.2511 155.013 88.2949C154.999 88.3241 155.028 88.368 155.056 88.3972Z" fill="#EA9C00"/>
<path d="M156.099 76.9332C156.127 76.9478 156.17 76.9478 156.199 76.9624C156.227 76.977 156.184 76.9624 156.184 76.9624C156.184 76.9624 156.199 76.977 156.213 76.977C156.227 76.977 156.241 76.9916 156.256 77.0062C156.284 77.0208 156.313 77.0354 156.341 77.0647L156.356 77.0793C156.384 77.0939 156.356 77.0793 156.341 77.0647C156.356 77.0793 156.37 77.0939 156.384 77.0939C156.413 77.1231 156.427 77.1377 156.456 77.1669C156.47 77.1815 156.484 77.1961 156.484 77.2107C156.513 77.2399 156.47 77.1815 156.484 77.1961L156.499 77.2107C156.513 77.2399 156.541 77.2691 156.556 77.2983C156.57 77.3129 156.57 77.3275 156.584 77.3421C156.584 77.3567 156.599 77.3567 156.599 77.3713C156.599 77.3567 156.599 77.3567 156.584 77.3421V77.3567C156.599 77.4005 156.627 77.4444 156.67 77.459C156.713 77.4882 156.77 77.4882 156.799 77.4736C156.884 77.4444 156.956 77.3421 156.927 77.2545C156.87 77.0939 156.77 76.9478 156.641 76.831C156.513 76.7142 156.37 76.6265 156.199 76.5827C156.113 76.5535 155.999 76.6119 155.984 76.7142C155.956 76.8164 155.999 76.9186 156.099 76.9332Z" fill="#EA9C00"/>
<path d="M152.47 87.3018C152.599 87.4186 152.727 87.5354 152.842 87.6377C152.87 87.6669 152.913 87.6961 152.97 87.6961C153.013 87.6961 153.07 87.6815 153.099 87.6377C153.127 87.6084 153.156 87.5646 153.156 87.5062C153.156 87.4624 153.142 87.404 153.099 87.3748C152.97 87.2579 152.842 87.1411 152.727 87.0389C152.699 87.0097 152.656 86.9805 152.599 86.9805C152.556 86.9805 152.499 86.9951 152.47 87.0389C152.442 87.0681 152.413 87.1119 152.413 87.1703C152.413 87.2287 152.427 87.2726 152.47 87.3018Z" fill="#EA9C00"/>
<path d="M104.027 89.9258C105.942 90.5195 107.818 91.3506 109.541 92.3796C109.464 89.253 109.541 86.1265 109.809 83C111.187 85.6516 112.604 88.2636 113.982 90.9152C115.82 88.5011 118.271 86.6014 121.027 85.4537C120.108 88.5011 119.649 91.7068 119.611 94.8729C119.611 94.5563 110.115 95.0708 109.273 94.9916C106.21 94.5958 106.248 92.0234 104.027 89.9258Z" fill="#9CAD5E"/>
<defs>
<linearGradient id="paint0_linear" x1="166.328" y1="35.746" x2="145.105" y2="35.746" gradientUnits="userSpaceOnUse">
<stop stop-color="#F95252"/>
<stop offset="0.984776" stop-color="#B90973"/>
</linearGradient>
<clipPath id="clip0">
<rect width="92" height="84" fill="white" transform="translate(21.0273 38)"/>
</clipPath>
</defs>
</svg>
