<svg width="26" height="26" viewBox="0 0 26 26" fill="none" xmlns="http://www.w3.org/2000/svg">
<g opacity="0.3">
<path opacity="0.3" d="M22.749 5.59636C22.8699 5.5601 23.0069 5.60442 23.0794 5.71724C23.2164 5.92675 23.3453 6.14029 23.4702 6.35786C23.5508 6.49887 23.5024 6.67615 23.3614 6.75673C23.2204 6.83731 23.0431 6.78896 22.9626 6.64795C22.8457 6.44247 22.7208 6.23698 22.5879 6.03956C22.4992 5.90257 22.5355 5.72126 22.6725 5.63263C22.6967 5.61651 22.7208 5.60442 22.749 5.59636Z" fill="#7D97F4"/>
<path opacity="0.3" d="M23.8046 7.58718C23.9456 7.54286 24.1028 7.61538 24.1592 7.7564C24.3244 8.15125 24.4694 8.56221 24.5943 8.96915C24.6185 9.05376 24.6467 9.1424 24.6709 9.23104C24.7152 9.38817 24.6145 9.5453 24.4694 9.59365C24.3123 9.63797 24.1511 9.5453 24.1068 9.3922C24.0826 9.30759 24.0585 9.22701 24.0343 9.1424C23.9174 8.75158 23.7764 8.36076 23.6193 7.98606C23.5589 7.83698 23.6274 7.66373 23.7764 7.6033C23.7845 7.59524 23.7925 7.59121 23.8046 7.58718ZM24.6225 10.5203C24.6346 10.5163 24.6507 10.5123 24.6628 10.5123C24.824 10.4881 24.9731 10.5969 24.9972 10.758C25.0738 11.2697 25.1221 11.7935 25.1342 12.3133C25.1382 12.4744 25.0093 12.6114 24.8482 12.6154C24.687 12.6195 24.55 12.4905 24.546 12.3294C24.5339 11.8338 24.4896 11.3382 24.413 10.8467C24.3969 10.6976 24.4855 10.5606 24.6225 10.5203ZM24.7031 13.5623C24.7394 13.5502 24.7756 13.5462 24.8159 13.5502C24.9771 13.5663 25.0939 13.7114 25.0778 13.8685C25.0254 14.3842 24.9448 14.904 24.832 15.4116C24.7958 15.5687 24.6386 15.6695 24.4815 15.6332C24.3244 15.597 24.2237 15.4398 24.2599 15.2827C24.3687 14.7992 24.4493 14.3036 24.4976 13.8121C24.5097 13.6912 24.5943 13.5945 24.7031 13.5623ZM24.0383 16.5317C24.0947 16.5156 24.1592 16.5156 24.2237 16.5357C24.3768 16.5921 24.4533 16.7573 24.4009 16.9104C24.2237 17.3979 24.0182 17.8814 23.7845 18.3448C23.712 18.4898 23.5347 18.5462 23.3896 18.4737C23.2446 18.4012 23.1882 18.2239 23.2607 18.0789C23.4823 17.6397 23.6797 17.1763 23.8489 16.713C23.8772 16.6203 23.9497 16.5559 24.0383 16.5317ZM22.6644 19.2473C22.745 19.2231 22.8377 19.2352 22.9142 19.2835C23.0472 19.3722 23.0834 19.5575 22.9948 19.6905C22.7047 20.1216 22.3864 20.5366 22.048 20.9314C21.9432 21.0523 21.7579 21.0684 21.633 20.9596C21.5121 20.8549 21.496 20.6695 21.6048 20.5446C21.9271 20.1699 22.2333 19.7711 22.5073 19.3601C22.5435 19.3077 22.604 19.2674 22.6644 19.2473ZM20.6741 21.5479C20.7788 21.5156 20.8997 21.5438 20.9762 21.6325C21.085 21.7534 21.077 21.9387 20.9561 22.0475C20.5693 22.394 20.1624 22.7203 19.7353 23.0185C19.6023 23.1112 19.421 23.0789 19.3284 22.946C19.2357 22.813 19.2679 22.6317 19.4009 22.539C19.8038 22.257 20.1986 21.9427 20.5653 21.6123C20.5975 21.5801 20.6338 21.56 20.6741 21.5479ZM18.1841 23.2925C18.3171 23.2522 18.4621 23.3086 18.5266 23.4375C18.6031 23.5826 18.5467 23.7598 18.4057 23.8324C17.9504 24.0741 17.471 24.2917 16.9834 24.477C16.8303 24.5334 16.6611 24.4569 16.6047 24.3078C16.5483 24.1547 16.6249 23.9855 16.7739 23.9291C17.2373 23.7518 17.6926 23.5463 18.1317 23.3166C18.1478 23.3045 18.164 23.2965 18.1841 23.2925ZM13.8368 24.6422C13.8529 24.6382 13.869 24.6341 13.8891 24.6301C14.3122 24.5818 14.7433 24.5052 15.1663 24.4085C15.2308 24.3924 15.2912 24.3803 15.3557 24.3642C15.5128 24.3239 15.67 24.4206 15.7103 24.5777C15.7506 24.7349 15.6539 24.9001 15.4967 24.9323C15.4282 24.9484 15.3638 24.9645 15.2953 24.9806C14.8561 25.0814 14.4049 25.1579 13.9576 25.2103C13.7965 25.2304 13.6514 25.1136 13.6313 24.9524C13.6152 24.8154 13.7038 24.6825 13.8368 24.6422Z" fill="#7D97F4"/>
</g>
<g opacity="0.3">
<path opacity="0.3" d="M8.65498 0.576156C8.80808 0.531836 8.96924 0.616446 9.01759 0.769551C9.06594 0.922655 8.98133 1.08785 8.82823 1.1362C8.36488 1.28124 7.90557 1.45852 7.46238 1.65997C7.31733 1.72444 7.14005 1.664 7.07559 1.51493C7.00709 1.36585 7.07559 1.1926 7.22063 1.12814C7.67995 0.914597 8.16343 0.72926 8.65498 0.576156C8.65095 0.576156 8.65095 0.576156 8.65498 0.576156ZM10.1095 0.209511C10.1216 0.205482 10.1296 0.205482 10.1417 0.201453C10.6413 0.108785 11.157 0.0402905 11.6647 0.008058C11.8258 -0.00402918 11.9669 0.120872 11.9749 0.282034C11.987 0.443197 11.8621 0.584214 11.7009 0.592272C11.2134 0.624504 10.7259 0.68494 10.2465 0.777609C10.0893 0.805812 9.93219 0.701057 9.90399 0.543923C9.87578 0.394848 9.96845 0.249802 10.1095 0.209511ZM5.93133 1.81711C6.05623 1.78084 6.19322 1.82919 6.26574 1.94604C6.35036 2.08302 6.30603 2.26433 6.16905 2.34894C5.75405 2.60277 5.35115 2.88481 4.96839 3.18699C4.83946 3.28771 4.65815 3.26757 4.55742 3.13864C4.4567 3.01374 4.47684 2.8284 4.60577 2.72767C5.00465 2.40938 5.4277 2.11526 5.86284 1.84934C5.88298 1.83322 5.90716 1.82114 5.93133 1.81711ZM13.095 0.0120873C13.1272 0.00402918 13.1595 0 13.1957 0C13.7074 0.0282034 14.2191 0.0886393 14.7227 0.181308C14.8839 0.209511 14.9887 0.362615 14.9605 0.523778C14.9323 0.680911 14.7792 0.789696 14.618 0.761493C14.1385 0.676882 13.651 0.616446 13.1635 0.588243C13.0023 0.580185 12.8774 0.439168 12.8855 0.278005C12.8935 0.149075 12.9822 0.0483489 13.095 0.0120873ZM3.58642 3.67853C3.68715 3.65033 3.79996 3.67047 3.87651 3.75106C3.99335 3.86387 3.99335 4.04921 3.88054 4.16605C3.53807 4.51255 3.21574 4.88322 2.91759 5.27001C2.81687 5.39894 2.63556 5.42312 2.50663 5.32239C2.3777 5.22166 2.35352 5.04035 2.45425 4.91143C2.76449 4.50852 3.10293 4.1177 3.46152 3.75508C3.50181 3.71479 3.5421 3.69062 3.58642 3.67853ZM1.76125 6.04762C1.83781 6.02345 1.92242 6.0315 1.99494 6.07582C2.13596 6.16043 2.18028 6.33771 2.09567 6.47873C1.84586 6.89775 1.62024 7.33692 1.42684 7.78012C1.36238 7.92919 1.18913 7.99366 1.04005 7.92919C0.890977 7.86473 0.826511 7.69148 0.890976 7.5424C1.09646 7.07503 1.33417 6.61572 1.59203 6.17655C1.63232 6.11209 1.69276 6.06777 1.76125 6.04762ZM0.552536 8.78738C0.604914 8.77127 0.665348 8.77127 0.721755 8.78738C0.874859 8.83573 0.9635 8.99689 0.91918 9.15403C0.778163 9.6214 0.665348 10.1009 0.580738 10.5803C0.552535 10.7374 0.399432 10.8462 0.242298 10.818C0.0811358 10.7898 -0.0236208 10.6367 0.00458267 10.4796C0.093222 9.97596 0.210064 9.47635 0.35914 8.98481C0.387343 8.88408 0.463897 8.81559 0.552536 8.78738Z" fill="#7D97F4"/>
<path opacity="0.3" d="M16.0561 0.54822C16.1085 0.532104 16.1689 0.532104 16.2294 0.54822C16.4671 0.620743 16.7088 0.705353 16.9385 0.789963C17.0916 0.84637 17.1682 1.01559 17.1077 1.16869C17.0513 1.31777 16.8821 1.39835 16.729 1.33791C16.5074 1.2533 16.2817 1.17675 16.0521 1.10423C15.899 1.05588 15.8103 0.89069 15.8587 0.737586C15.8909 0.644917 15.9634 0.576423 16.0561 0.54822Z" fill="#7D97F4"/>
</g>
<path d="M16.9184 4.24282C16.866 4.20656 16.7975 4.21059 16.7452 4.24685L15.3028 5.3347C14.5131 5.03655 13.671 4.85927 12.8047 4.82704L11.9022 3.26376C11.87 3.20735 11.8096 3.17915 11.7451 3.19124L9.61776 3.60623C9.55732 3.61832 9.50897 3.66667 9.50092 3.73113L9.25111 5.52003C8.45739 5.87459 7.74424 6.35405 7.1278 6.9302L5.38321 6.46283C5.32278 6.44672 5.25831 6.47089 5.22205 6.52327L4.00527 8.32023C3.96901 8.37261 3.97304 8.4411 4.0093 8.49348L5.09715 9.93588C4.799 10.7256 4.62172 11.5676 4.58949 12.4339L3.02621 13.3364C2.96981 13.3686 2.9416 13.4291 2.95369 13.4935L3.36868 15.6209C3.38077 15.6813 3.42912 15.7297 3.49358 15.7377L5.28249 15.9875C5.63704 16.7812 6.1165 17.4944 6.69266 18.1108L6.22529 19.8554C6.20917 19.9159 6.23335 19.9803 6.28572 20.0166L8.08268 21.2293C8.13506 21.2656 8.20356 21.2616 8.25593 21.2253L9.69834 20.1375C10.488 20.4356 11.3301 20.6129 12.1964 20.6451L13.0989 22.2084C13.1311 22.2648 13.1915 22.293 13.256 22.2809L15.3833 21.8659C15.4438 21.8538 15.4921 21.8055 15.5002 21.741L15.75 19.9521C16.5437 19.5976 17.2569 19.1181 17.8733 18.5419L19.6179 19.0093C19.6783 19.0254 19.7428 19.0013 19.7791 18.9489L20.9918 17.1519C21.0281 17.0995 21.024 17.031 20.9878 16.9787L19.8999 15.5363C20.1981 14.7466 20.3754 13.9045 20.4076 13.0383L21.9709 12.1357C22.0273 12.1035 22.0555 12.039 22.0434 11.9786L21.6284 9.85127C21.6163 9.79083 21.568 9.74249 21.5035 9.73443L19.7146 9.48463C19.36 8.6909 18.8806 7.97776 18.3044 7.36131L18.7718 5.61673C18.7879 5.55629 18.7637 5.49183 18.7113 5.45557L16.9184 4.24282Z" fill="#91B3FA"/>
<path d="M11.8626 10.613C12.3139 10.476 12.7974 10.4881 13.2526 10.6492C13.8087 10.8507 14.2559 11.2576 14.5057 11.7935C15.0254 12.8974 14.55 14.223 13.442 14.7427C12.334 15.2625 11.0125 14.7871 10.4928 13.6791C10.2389 13.1432 10.2107 12.5429 10.4122 11.9828C10.6136 11.4268 11.0165 10.9796 11.5564 10.7298C11.6571 10.6855 11.7579 10.6452 11.8626 10.613ZM12.9706 14.2995C13.0472 14.2754 13.1197 14.2472 13.1922 14.2149C14.0061 13.8322 14.3566 12.8571 13.9738 12.0433C13.7885 11.6484 13.4622 11.3503 13.0512 11.2012C12.6402 11.0521 12.197 11.0763 11.8062 11.2616C11.4114 11.447 11.1132 11.7733 10.9642 12.1843C10.8151 12.5953 10.8393 13.0385 11.0246 13.4333C11.3711 14.1706 12.2091 14.5292 12.9706 14.2995Z" fill="#BDD0FB"/>
<path d="M10.8749 7.49391C11.0522 7.44153 11.2335 7.39721 11.4189 7.35692C11.7895 7.2844 12.1642 7.25217 12.5389 7.25619C12.555 7.25619 12.5712 7.25619 12.5913 7.25619C12.7202 7.26022 12.829 7.34483 12.8653 7.46571C12.8733 7.49391 12.8774 7.52614 12.8774 7.55837C12.8733 7.71954 12.7404 7.84847 12.5792 7.84444C12.2287 7.83638 11.8782 7.86861 11.5317 7.93711C11.5115 7.94113 11.4954 7.94516 11.4753 7.94919C10.6614 8.11438 9.92005 8.48103 9.29958 9.00078C8.96517 9.28281 8.66299 9.61319 8.40916 9.9879C8.40513 9.99193 8.40513 9.99193 8.4011 9.99596C8.39304 10.004 8.38901 10.0161 8.38095 10.0242C7.64364 11.116 7.37772 12.4335 7.62752 13.7269C7.65975 13.8961 7.70004 14.0572 7.74839 14.2184C8.07475 15.3022 8.75968 16.2329 9.71054 16.8736C10.8024 17.6109 12.1199 17.8768 13.4132 17.623C14.7066 17.3691 15.8266 16.6318 16.564 15.5359C17.3013 14.444 17.5672 13.1265 17.3174 11.8332C17.2852 11.668 17.2449 11.5069 17.1965 11.3457C16.987 10.6527 16.6284 10.0161 16.1449 9.48024C16.1167 9.448 16.0926 9.40771 16.0805 9.36742C16.0482 9.26267 16.0764 9.14179 16.1651 9.06524C16.2859 8.95646 16.4713 8.96855 16.5801 9.08539C17.12 9.68572 17.5229 10.3989 17.7566 11.1724C17.8089 11.3497 17.8573 11.531 17.8935 11.7164C18.1756 13.1628 17.8774 14.6334 17.0515 15.8582C16.2255 17.079 14.9765 17.909 13.5301 18.1911C12.0836 18.4731 10.613 18.175 9.38822 17.349C8.32455 16.6318 7.55903 15.5923 7.19239 14.3796C7.14001 14.1983 7.09166 14.017 7.0554 13.8276C6.51147 11.0314 8.19965 8.30375 10.8749 7.49391Z" fill="#BDD0FB"/>
</svg>
