<svg width="16" height="16" viewBox="0 0 16 16" fill="none" xmlns="http://www.w3.org/2000/svg">
<path d="M10.5 13H2C1.73478 13 1.48043 12.8946 1.29289 12.7071C1.10536 12.5196 1 12.2652 1 12V4C1 3.73478 1.10536 3.48043 1.29289 3.29289C1.48043 3.10536 1.73478 3 2 3H10.5C10.7652 3 11.0196 3.10536 11.2071 3.29289C11.3946 3.48043 11.5 3.73478 11.5 4V6.03L14.21 4.095C14.2846 4.04187 14.3724 4.01025 14.4638 4.00362C14.5552 3.99698 14.6466 4.01557 14.7281 4.05737C14.8096 4.09916 14.8781 4.16254 14.926 4.2406C14.974 4.31866 14.9996 4.40839 15 4.5V11.5C14.9996 11.5916 14.974 11.6813 14.926 11.7594C14.8781 11.8375 14.8096 11.9008 14.7281 11.9426C14.6466 11.9844 14.5552 12.003 14.4638 11.9964C14.3724 11.9897 14.2846 11.9581 14.21 11.905L11.5 9.97V12C11.5 12.2652 11.3946 12.5196 11.2071 12.7071C11.0196 12.8946 10.7652 13 10.5 13Z" fill="white"/>
</svg>
