<svg width="66" height="73" viewBox="0 0 66 73" fill="none" xmlns="http://www.w3.org/2000/svg">
<path opacity="0.3" d="M62.9449 51.633C56.2895 66.8485 38.7219 73.3829 24.956 72.2694C21.1967 71.9644 13.6357 71.3521 7.73029 65.891C-3.60886 55.4038 -1.86365 33.479 8.99202 20.5709C10.3905 18.9089 20.067 7.77393 35.1442 7.92287C46.1838 8.03162 53.9335 14.131 54.8745 14.8899C56.0655 15.8498 58.6904 18.1311 61.0559 21.7506C66.6146 30.2543 67.1051 42.1246 62.9449 51.633Z" fill="#FF8A83"/>
<path d="M23.0782 52.1817C23.1065 51.8437 23.4508 51.5505 24.0357 51.3141C23.4013 50.9642 23.0499 50.5859 23.0782 50.2171C23.1678 49.1013 26.6936 48.4748 30.9552 48.82C35.2145 49.1651 38.5964 50.3472 38.5068 51.4654C38.4785 51.8035 38.1342 52.0966 37.5493 52.333C38.1837 52.6829 38.5351 53.0612 38.5068 53.43C38.4785 53.768 38.1342 54.0612 37.5493 54.2976C38.1837 54.6475 38.5351 55.0258 38.5068 55.3946C38.4785 55.7326 38.1342 56.0258 37.5493 56.2622C38.1837 56.6121 38.5351 56.9903 38.5068 57.3591C38.4667 57.8532 37.7545 58.2504 36.6036 58.5105C36.6177 58.8745 36.6107 59.2741 36.5753 59.7162C36.4078 61.7729 34.1013 63.3853 31.0472 63.3853C27.9954 63.3853 25.3517 61.1866 25.3234 59.1228C25.3163 58.6168 25.3375 58.1724 25.3823 57.7776C23.9225 57.2882 23.0334 56.6925 23.0782 56.1133C23.1065 55.7752 23.4508 55.482 24.0357 55.2456C23.4013 54.8957 23.0499 54.5175 23.0782 54.1487C23.1065 53.8106 23.4508 53.5175 24.0357 53.281C23.3989 52.9264 23.0475 52.5505 23.0782 52.1817Z" fill="url(#paint0_linear)"/>
<path d="M32.9237 58.9504C34.1878 58.9504 35.3458 58.8582 36.3033 58.6738C36.3599 58.6644 36.3953 58.61 36.3835 58.5533C36.374 58.4965 36.3198 58.461 36.2632 58.4729C34.7656 58.7613 32.7681 58.8228 30.6337 58.6502C28.8885 58.5083 27.2565 58.227 25.9122 57.8346C25.858 57.818 25.8014 57.8487 25.7849 57.9031C25.7684 57.9575 25.799 58.0142 25.8533 58.0308C27.2093 58.428 28.8555 58.7116 30.6149 58.8535C31.412 58.9173 32.1855 58.9504 32.9237 58.9504Z" fill="#7D97F4"/>
<path d="M32.9031 56.9859C34.5469 56.9859 36.0162 56.8299 37.0515 56.5344C37.1058 56.5178 37.1364 56.4611 37.1223 56.4067C37.1058 56.3523 37.0492 56.3216 36.9949 56.3358C35.5186 56.7566 33.1413 56.889 30.6344 56.6857C28.1557 56.4847 25.8445 55.9812 24.4507 55.3358C24.3988 55.3121 24.3375 55.3334 24.3139 55.3854C24.2903 55.4374 24.3115 55.4989 24.3634 55.5225C25.7784 56.1774 28.1156 56.688 30.6178 56.889C31.4008 56.9552 32.1697 56.9859 32.9031 56.9859Z" fill="#7D97F4"/>
<path d="M32.9238 55.0235C34.6996 55.0235 36.2515 54.8415 37.2962 54.4963C37.3505 54.4798 37.3788 54.4207 37.3623 54.3663C37.3457 54.3119 37.2868 54.2836 37.2325 54.3001C35.7774 54.78 33.3105 54.9384 30.6361 54.7233C28.1575 54.5223 25.8462 54.0188 24.4524 53.3734C24.4005 53.3497 24.3392 53.371 24.3156 53.423C24.2921 53.475 24.3133 53.5365 24.3652 53.5601C25.7802 54.215 28.1174 54.7256 30.6196 54.9266C31.412 54.9928 32.1879 55.0235 32.9238 55.0235Z" fill="#7D97F4"/>
<path d="M32.9107 53.0613C34.3186 53.0613 35.5992 52.9478 36.5945 52.7256C36.6487 52.7137 36.6841 52.6594 36.6723 52.6026C36.6605 52.5482 36.6063 52.5128 36.5497 52.5246C35.0521 52.8579 32.8965 52.9454 30.6348 52.761C28.1774 52.5624 25.8779 52.0636 24.4818 51.4276C24.4299 51.404 24.3686 51.4276 24.3473 51.4797C24.3238 51.5317 24.3473 51.5931 24.3992 51.6144C25.8166 52.2598 28.142 52.7657 30.6207 52.9667C31.4036 53.0305 32.1748 53.0613 32.9107 53.0613Z" fill="#7D97F4"/>
<path d="M41.3645 42.2762C41.8809 40.4393 42.7606 38.7229 43.9445 37.2264C46.4798 34.023 50.6188 27.5052 51.1282 18.6114C51.8664 5.67727 40.4211 -0.800413 29.9781 0.0790388C19.5352 0.958491 9.22902 8.75299 10.3563 20.7887C11.0497 28.1931 15.184 33.8103 18.264 37.0349C20.2191 39.0823 21.6129 41.5929 22.3676 44.3235C23.2921 47.6664 25.4901 51.8343 30.7163 52.0873C37.4778 52.4159 40.2867 46.099 41.3645 42.2762Z" fill="url(#paint1_linear)"/>
<path d="M28.9894 49.5082L25.3363 25.6826C25.2608 25.1909 25.0203 24.8599 24.7962 24.945C24.5745 25.0301 24.4542 25.4958 24.5297 25.9899C24.5321 26.0041 24.5344 26.0183 24.5368 26.0325L28.6993 49.6358C28.73 49.8131 28.8196 49.9242 28.8998 49.8864C28.9753 49.8486 29.0154 49.6807 28.9894 49.5082Z" fill="url(#paint2_linear)"/>
<path d="M32.7821 49.6971L36.4353 25.8716C36.5108 25.3798 36.7513 25.0488 36.9754 25.1339C37.197 25.2191 37.3173 25.6848 37.2419 26.1789C37.2395 26.1931 37.2371 26.2073 37.2348 26.2214L33.0722 49.8248C33.0416 50.0021 32.9519 50.1156 32.8718 50.0754C32.7963 50.0376 32.7562 49.8697 32.7821 49.6971Z" fill="url(#paint3_linear)"/>
<path opacity="0.7" d="M25.3604 23.6376C25.4523 23.4886 25.6669 23.4319 25.8391 23.5123L27.8744 24.465L28.5796 22.4484C28.6173 22.342 28.7046 22.2498 28.8272 22.1978C29.0607 22.1009 29.3413 22.1884 29.4522 22.3917L29.4569 22.3988L31.1313 25.4579L32.6832 21.1032L32.6855 21.0961C32.7233 20.9898 32.8034 20.8952 32.9214 20.8314C33.1808 20.6895 33.5251 20.7557 33.6902 20.9827L36.0297 24.2121C36.1241 24.3444 36.091 24.5218 35.9472 24.6187C35.7915 24.7227 35.5698 24.6991 35.4496 24.5643L33.3907 22.2617L31.537 26.4036L31.5346 26.406C31.504 26.4722 31.4497 26.5289 31.3719 26.5667C31.1974 26.6495 30.9804 26.5927 30.8861 26.4414L29.0961 23.5619L28.4216 25.0182L28.4145 25.03C28.4098 25.0395 28.405 25.0513 28.398 25.0608C28.306 25.2097 28.0914 25.2665 27.9192 25.1861L25.5042 24.0537C25.3321 23.9733 25.2684 23.7865 25.3604 23.6376Z" fill="white"/>
<defs>
<linearGradient id="paint0_linear" x1="25.1057" y1="36.9673" x2="30.0189" y2="51.4321" gradientUnits="userSpaceOnUse">
<stop stop-color="#09005D"/>
<stop offset="1" stop-color="#1A0F91"/>
</linearGradient>
<linearGradient id="paint1_linear" x1="30.3271" y1="2.19847" x2="31.5261" y2="51.2361" gradientUnits="userSpaceOnUse">
<stop stop-color="#FF928E"/>
<stop offset="1" stop-color="#FE7062"/>
</linearGradient>
<linearGradient id="paint2_linear" x1="26.9124" y1="32.514" x2="25.4045" y2="80.3098" gradientUnits="userSpaceOnUse">
<stop stop-color="#E1473D"/>
<stop offset="1" stop-color="#E9605A"/>
</linearGradient>
<linearGradient id="paint3_linear" x1="35.1793" y1="32.7747" x2="33.6713" y2="80.5706" gradientUnits="userSpaceOnUse">
<stop stop-color="#E1473D"/>
<stop offset="1" stop-color="#E9605A"/>
</linearGradient>
</defs>
</svg>
