<svg width="15" height="15" viewBox="0 0 15 15" fill="none" xmlns="http://www.w3.org/2000/svg">
<path d="M7.5 13.75C8.73613 13.75 9.9445 13.3834 10.9723 12.6967C12.0001 12.0099 12.8012 11.0338 13.2742 9.89177C13.7473 8.74973 13.8711 7.49307 13.6299 6.28069C13.3887 5.0683 12.7935 3.95466 11.9194 3.08058C11.0453 2.2065 9.93169 1.61125 8.71931 1.37009C7.50693 1.12893 6.25026 1.2527 5.10823 1.72575C3.96619 2.1988 2.99007 2.99988 2.30331 4.02769C1.61656 5.05549 1.25 6.26387 1.25 7.5C1.25182 9.15704 1.91088 10.7457 3.08259 11.9174C4.2543 13.0891 5.84295 13.7482 7.5 13.75ZM7.5 2.5C8.4889 2.5 9.4556 2.79324 10.2778 3.34265C11.1001 3.89206 11.741 4.67295 12.1194 5.58658C12.4978 6.50021 12.5969 7.50555 12.4039 8.47545C12.211 9.44536 11.7348 10.3363 11.0355 11.0355C10.3363 11.7348 9.44535 12.211 8.47545 12.4039C7.50554 12.5969 6.50021 12.4978 5.58658 12.1194C4.67295 11.741 3.89206 11.1001 3.34265 10.2779C2.79324 9.4556 2.5 8.48891 2.5 7.5C2.50165 6.17442 3.02897 4.90362 3.96629 3.96629C4.90361 3.02897 6.17442 2.50165 7.5 2.5ZM7.5 7.8125C7.66576 7.8125 7.82473 7.74665 7.94194 7.62944C8.05915 7.51223 8.125 7.35326 8.125 7.1875L8.125 5.3125C8.125 5.14674 8.05915 4.98777 7.94194 4.87056C7.82473 4.75335 7.66576 4.6875 7.5 4.6875C7.33424 4.6875 7.17527 4.75335 7.05806 4.87056C6.94085 4.98777 6.875 5.14674 6.875 5.3125L6.875 7.1875C6.875 7.35326 6.94085 7.51223 7.05806 7.62944C7.17527 7.74665 7.33424 7.8125 7.5 7.8125ZM7.5 10.3125C7.65451 10.3125 7.80556 10.2667 7.93404 10.1808C8.06251 10.095 8.16265 9.97298 8.22178 9.83022C8.28091 9.68747 8.29638 9.53038 8.26624 9.37884C8.23609 9.22729 8.16168 9.08808 8.05242 8.97882C7.94316 8.86956 7.80396 8.79516 7.65241 8.76501C7.50086 8.73487 7.34378 8.75034 7.20103 8.80947C7.05827 8.8686 6.93626 8.96873 6.85041 9.09721C6.76457 9.22569 6.71875 9.37673 6.71875 9.53125C6.71875 9.73845 6.80106 9.93716 6.94757 10.0837C7.09408 10.2302 7.2928 10.3125 7.5 10.3125Z" fill="#E44E46"/>
</svg>
