<svg width="26" height="26" viewBox="0 0 26 26" fill="none" xmlns="http://www.w3.org/2000/svg">
<path d="M23.5192 21.9809L19.5 17.9942C21.0601 16.049 21.8156 13.5799 21.6112 11.0948C21.4068 8.6096 20.258 6.2972 18.401 4.63305C16.544 2.9689 14.12 2.07949 11.6274 2.14769C9.13473 2.2159 6.76297 3.23654 4.99976 4.99976C3.23654 6.76297 2.2159 9.13473 2.14769 11.6274C2.07949 14.12 2.9689 16.544 4.63305 18.401C6.2972 20.258 8.6096 21.4068 11.0948 21.6112C13.5799 21.8156 16.049 21.0601 17.9942 19.5L21.9809 23.4867C22.0816 23.5882 22.2014 23.6688 22.3334 23.7238C22.4654 23.7788 22.607 23.8071 22.75 23.8071C22.893 23.8071 23.0346 23.7788 23.1666 23.7238C23.2987 23.6688 23.4185 23.5882 23.5192 23.4867C23.7144 23.2847 23.8236 23.0147 23.8236 22.7338C23.8236 22.4528 23.7144 22.1829 23.5192 21.9809ZM11.9167 19.5C10.4168 19.5 8.95068 19.0553 7.70361 18.222C6.45654 17.3887 5.48456 16.2044 4.9106 14.8187C4.33663 13.433 4.18646 11.9083 4.47906 10.4373C4.77167 8.96623 5.49391 7.61501 6.55446 6.55446C7.61501 5.49391 8.96623 4.77167 10.4373 4.47906C11.9083 4.18646 13.433 4.33663 14.8187 4.9106C16.2044 5.48456 17.3887 6.45654 18.222 7.70361C19.0553 8.95068 19.5 10.4168 19.5 11.9167C19.5 13.9279 18.7011 15.8568 17.2789 17.2789C15.8568 18.7011 13.9279 19.5 11.9167 19.5Z" fill="#FF928E"/>
</svg>
