<svg width="66" height="72" viewBox="0 0 66 72" fill="none" xmlns="http://www.w3.org/2000/svg">
<path opacity="0.3" d="M62.9449 50.6335C56.2895 65.849 38.7219 72.3834 24.956 71.2699C21.1967 70.9649 13.6357 70.3526 7.73029 64.8915C-3.60886 54.4043 -1.86365 32.4795 8.99202 19.5714C10.3905 17.9094 20.067 6.77442 35.1442 6.92336C46.1838 7.0321 53.9335 13.1315 54.8745 13.8904C56.0655 14.8502 58.6904 17.1316 61.0559 20.7511C66.6146 29.2548 67.1051 41.125 62.9449 50.6335Z" fill="#BDD0FB"/>
<g clip-path="url(#clip0)">
<path d="M13.6665 51.6568C13.6665 51.6568 28.7297 64.1702 32.5087 66.3867C36.8928 68.969 41.9033 62.7715 39.759 59.7265C37.6041 56.6815 22.5409 47.6865 22.5409 47.6865L13.6665 51.6568Z" fill="url(#paint0_linear)"/>
<path d="M15.1421 35.2911L44.9287 0.537598L64.5989 36.1303L21.9253 49.6229L15.1421 35.2911Z" fill="#91B3FA"/>
<path d="M58.7072 16.1716C64.4076 26.2103 67.3799 35.3021 65.363 36.4749C63.3461 37.6477 57.0936 30.4711 51.3932 20.4216C45.7034 10.3937 42.7205 1.30179 44.7374 0.128992C46.7543 -1.05456 53.0067 6.13285 58.7072 16.1716Z" fill="#BDD0FB"/>
<path d="M64.9381 35.0761C64.4179 34.9255 62.953 34.0324 60.4053 30.9982C57.9426 28.0609 55.2038 23.9937 52.6774 19.55C50.1509 15.1063 48.0703 10.6518 46.8071 7.02586C45.5014 3.27076 45.4696 1.53847 45.6076 1.00049C46.1277 1.15112 47.5926 2.04417 50.1403 5.07837C52.6031 8.01574 55.3418 12.0829 57.8683 16.5266C60.3947 20.9703 62.4753 25.4248 63.7492 29.0508C65.0442 32.8166 65.0761 34.5489 64.9381 35.0761Z" fill="#91B3FA"/>
<path d="M59.875 15.1706C61.6265 18.2586 61.4036 21.7232 58.1553 23.6169C54.907 25.5106 50.852 24.5422 49.1004 21.4542C47.3489 18.3662 48.5591 14.3314 51.8074 12.4377C55.0663 10.5332 58.1235 12.0826 59.875 15.1706Z" fill="url(#paint1_linear)"/>
<path d="M8.71956 38.0241C10.3543 36.7975 12.8171 35.2589 15.8849 34.312C17.6789 39.5627 20.6087 44.4153 24.5364 48.9235L16.8828 53.3888C15.662 54.0989 14.1122 53.8084 13.2311 52.7002C11.4583 50.4729 8.65587 46.6317 7.28649 43.038C6.5965 41.2197 7.18034 39.1753 8.71956 38.0241Z" fill="url(#paint2_linear)"/>
<path d="M15.3649 38.9709L9.39904 42.4462C9.19735 42.5646 8.9532 42.5646 8.76212 42.4354C8.56043 42.3063 8.45428 42.1019 8.46489 41.8652C8.46489 41.7683 8.54982 41.693 8.65597 41.693C8.75151 41.693 8.82582 41.7791 8.82582 41.8867C8.8152 41.9943 8.86828 42.0804 8.9532 42.1342C9.03812 42.188 9.14428 42.188 9.2292 42.1342L15.195 38.6588C15.3224 38.5835 15.3755 38.4114 15.2905 38.2822L15.0464 37.8519C14.9721 37.7227 14.8022 37.6689 14.6749 37.755L8.66659 41.2519C8.58166 41.3057 8.47551 41.2734 8.42243 41.1873C8.36936 41.1013 8.4012 40.9937 8.48612 40.9399L14.4944 37.443C14.7916 37.2708 15.1738 37.3784 15.3542 37.6797L15.5984 38.1101C15.7682 38.4114 15.6621 38.7987 15.3649 38.9709Z" fill="#BDD0FB"/>
<path d="M16.3522 41.9513L10.3863 45.4267C10.1847 45.545 9.9405 45.545 9.74943 45.4159C9.54774 45.2868 9.44158 45.0824 9.4522 44.8457C9.4522 44.7488 9.53712 44.6735 9.64327 44.6735C9.73881 44.6735 9.81312 44.7596 9.81312 44.8672C9.8025 44.9748 9.85558 45.0609 9.9405 45.1147C10.0254 45.1685 10.1316 45.1685 10.2165 45.1147L16.1823 41.6393C16.3097 41.564 16.3628 41.3918 16.2779 41.2627L16.0337 40.8323C15.9594 40.7032 15.7896 40.6494 15.6622 40.7355L9.65389 44.2324C9.56897 44.2862 9.46281 44.2539 9.40974 44.1678C9.35666 44.0817 9.38851 43.9741 9.47343 43.9203L15.4817 40.4235C15.7789 40.2513 16.1611 40.3589 16.3415 40.6602L16.5857 41.0906C16.7555 41.3918 16.6494 41.7792 16.3522 41.9513Z" fill="#BDD0FB"/>
<path opacity="0.53" d="M20.0038 31.1812C19.9401 31.2242 19.8552 31.2134 19.7915 31.1596C19.7172 31.0951 19.7172 30.9767 19.7809 30.9014L42.8055 5.40117C42.8692 5.32586 42.986 5.32585 43.0603 5.39041C43.1346 5.45497 43.1346 5.57333 43.0709 5.64864L20.0463 31.1489C20.0357 31.1596 20.025 31.1704 20.0038 31.1812Z" fill="white"/>
<path opacity="0.53" d="M17.095 34.9795C17.0313 35.0118 16.957 35.0118 16.8933 34.9688C16.819 34.9042 16.7978 34.7966 16.8614 34.7213L17.9654 33.2795C18.0291 33.2042 18.1353 33.1827 18.2096 33.2472C18.2839 33.3118 18.3051 33.4194 18.2414 33.4947L17.1374 34.9365C17.1268 34.9472 17.1162 34.9688 17.095 34.9795Z" fill="white"/>
<path d="M18.6554 44.7814L12.6896 48.2568C12.4879 48.3751 12.2437 48.3751 12.0527 48.246C11.851 48.1169 11.7448 47.9125 11.7554 47.6757C11.7554 47.5789 11.8403 47.5036 11.9465 47.5036C12.042 47.5036 12.1163 47.5897 12.1163 47.6973C12.1163 47.8049 12.1588 47.8909 12.2437 47.9447C12.3286 47.9985 12.4348 47.9985 12.5197 47.9447L18.4855 44.4694C18.6129 44.3941 18.666 44.2219 18.5811 44.0928L18.3369 43.6624C18.2626 43.5333 18.0928 43.4795 17.9654 43.5656L11.9571 47.0624C11.8722 47.1162 11.766 47.084 11.713 46.9979C11.6599 46.9118 11.6917 46.8042 11.7767 46.7504L17.7849 43.2535C18.0822 43.0814 18.4643 43.189 18.6448 43.4903L18.8889 43.9206C19.0588 44.2219 18.9632 44.6093 18.6554 44.7814Z" fill="#BDD0FB"/>
<path d="M21.1925 47.9338L15.2267 51.4091C15.025 51.5275 14.7808 51.5275 14.5898 51.3984C14.3881 51.2692 14.2819 51.0648 14.2925 50.8281C14.2925 50.7313 14.3775 50.6559 14.4836 50.6559C14.5791 50.6559 14.6535 50.742 14.6535 50.8496C14.6535 50.9572 14.6959 51.0433 14.7808 51.0971C14.8658 51.1509 14.9719 51.1509 15.0568 51.0971L21.0226 47.6217C21.15 47.5464 21.2031 47.3743 21.1182 47.2451L20.874 46.8148C20.7997 46.6856 20.6299 46.6318 20.5025 46.7179L14.4942 50.2148C14.4093 50.2686 14.3031 50.2363 14.2501 50.1502C14.197 50.0642 14.2288 49.9566 14.3138 49.9028L20.322 46.4059C20.6193 46.2337 21.0014 46.3413 21.1819 46.6426L21.426 47.073C21.5959 47.3743 21.4897 47.7616 21.1925 47.9338Z" fill="#BDD0FB"/>
<path d="M37.2432 63.7395C36.9672 63.9008 36.67 64.03 36.3621 64.1268C35.0034 64.5679 33.5491 64.3312 32.392 63.4812L21.5431 55.5299C21.4688 55.4761 21.4476 55.3577 21.5007 55.2824C21.5538 55.2071 21.6705 55.1856 21.7448 55.2394L32.5937 63.1907C33.6552 63.9762 34.9928 64.1914 36.2454 63.7825C37.4767 63.3844 38.4215 62.4483 38.8461 61.2217C38.8673 61.1571 38.8886 61.0926 38.9098 61.0173C38.9417 60.9204 39.0372 60.8666 39.1327 60.8989C39.2283 60.9312 39.2813 61.028 39.2495 61.1249C39.2283 61.2002 39.207 61.2647 39.1858 61.3293C38.8461 62.373 38.1561 63.2122 37.2432 63.7395Z" fill="#BDD0FB"/>
<path d="M20.1416 54.379C20.0779 54.4113 20.0036 54.4113 19.9505 54.3682L18.7404 53.4859C18.6661 53.4321 18.6449 53.3138 18.6979 53.2385C18.751 53.1631 18.8678 53.1416 18.9421 53.1954L20.1522 54.0777C20.2265 54.1315 20.2478 54.2499 20.1947 54.3252C20.1735 54.3467 20.1629 54.3682 20.1416 54.379Z" fill="#BDD0FB"/>
<path d="M58.9194 15.5261C58.8345 15.5691 58.739 15.5476 58.6859 15.4723C57.7199 14.0197 56.5628 13.1912 55.2465 13.0191C52.9642 12.707 50.9473 14.4501 50.9261 14.4716C50.8518 14.5362 50.7456 14.5254 50.682 14.4501C50.6183 14.3748 50.6289 14.2672 50.7032 14.2026C50.7881 14.1273 52.8581 12.3412 55.2996 12.6748C56.7221 12.8684 57.9641 13.7507 58.9831 15.2893C59.0362 15.3754 59.015 15.483 58.9301 15.5368C58.9194 15.5153 58.9194 15.5153 58.9194 15.5261Z" fill="white"/>
</g>
<defs>
<linearGradient id="paint0_linear" x1="30.968" y1="59.9176" x2="65.5022" y2="93.6704" gradientUnits="userSpaceOnUse">
<stop stop-color="#09005D"/>
<stop offset="1" stop-color="#1A0F91"/>
</linearGradient>
<linearGradient id="paint1_linear" x1="37.4828" y1="25.4778" x2="69.4596" y2="12.2276" gradientUnits="userSpaceOnUse">
<stop stop-color="#09005D"/>
<stop offset="1" stop-color="#1A0F91"/>
</linearGradient>
<linearGradient id="paint2_linear" x1="9.82997" y1="21.3751" x2="18.977" y2="57.4729" gradientUnits="userSpaceOnUse">
<stop stop-color="#09005D"/>
<stop offset="1" stop-color="#1A0F91"/>
</linearGradient>
<clipPath id="clip0">
<rect width="59" height="67" fill="white" transform="translate(7)"/>
</clipPath>
</defs>
</svg>
