<svg width="32" height="28" viewBox="0 0 32 28" fill="none" xmlns="http://www.w3.org/2000/svg">
<mask id="mask0" mask-type="alpha" maskUnits="userSpaceOnUse" x="0" y="0" width="32" height="28">
<rect width="31.6129" height="28" fill="#C4C4C4"/>
</mask>
<g mask="url(#mask0)">
<path d="M25.0098 24.1356C24.4605 24.7134 23.9405 25.0871 23.5305 25.3814C18.704 28.8443 12.9917 27.8349 11.7782 27.5887C9.98598 27.2247 6.52113 26.5213 4.01568 23.5754C0.22612 19.1188 0.815695 12.0969 3.75572 7.46172C4.2933 6.61414 7.13424 1.90834 12.9074 1.15396C16.4016 0.69682 20.4737 1.61797 23.4236 4.08908C29.6136 9.27557 29.1722 19.7535 25.0098 24.1356Z" fill="url(#paint0_linear)"/>
<g opacity="0.3">
<path opacity="0.3" d="M9.63176 6.70113C9.68767 6.68446 9.7485 6.71192 9.77106 6.76686C9.82207 6.88752 9.8672 7.01113 9.9084 7.13669C9.92802 7.19751 9.89466 7.26226 9.83384 7.28188C9.83286 7.28188 9.83286 7.28188 9.83188 7.28286C9.77204 7.3015 9.70828 7.26815 9.68866 7.20732C9.6504 7.08862 9.60625 6.97091 9.55818 6.85613C9.53366 6.79727 9.56113 6.72958 9.61999 6.70506C9.62391 6.70408 9.62783 6.70211 9.63176 6.70113ZM9.91527 7.66741C9.91919 7.66643 9.92409 7.66545 9.929 7.66447C9.99178 7.65367 10.0516 7.69488 10.0634 7.75766C10.086 7.88715 10.1036 8.01762 10.1154 8.14809C10.1213 8.21186 10.0742 8.26777 10.0104 8.27366C9.94666 8.27955 9.89074 8.23246 9.88485 8.16869C9.87406 8.04509 9.85739 7.9205 9.83482 7.79788C9.82501 7.74 9.86033 7.68409 9.91527 7.66741ZM9.98001 8.67096C9.99276 8.66704 10.0055 8.66507 10.0192 8.66606C10.083 8.669 10.1321 8.72295 10.1291 8.78672C10.1232 8.91719 10.1105 9.04962 10.0928 9.17911C10.084 9.2419 10.0261 9.28702 9.96235 9.27819C9.89957 9.26936 9.85444 9.21149 9.86327 9.14772C9.87995 9.02412 9.89172 8.89953 9.89761 8.77495C9.90055 8.7259 9.9339 8.68469 9.98001 8.67096ZM9.81815 9.6647C9.83875 9.65882 9.86033 9.65784 9.88289 9.66372C9.94469 9.68138 9.98001 9.74514 9.96235 9.80597C9.92704 9.93153 9.88584 10.0581 9.83973 10.1807C9.81717 10.2405 9.75046 10.271 9.69062 10.2484C9.63078 10.2258 9.60037 10.1591 9.62293 10.0993C9.66707 9.98254 9.70631 9.86384 9.73967 9.74318C9.75144 9.70492 9.78087 9.67549 9.81815 9.6647ZM9.4385 10.5976C9.46695 10.5888 9.49932 10.5917 9.52679 10.6065C9.58271 10.6369 9.60331 10.7075 9.5729 10.7634C9.51012 10.8782 9.44243 10.992 9.36983 11.1009C9.33452 11.1538 9.26291 11.1686 9.20993 11.1342C9.15696 11.0989 9.14225 11.0273 9.17658 10.9743C9.24525 10.8703 9.30999 10.7624 9.36885 10.6535C9.38553 10.6251 9.41006 10.6055 9.4385 10.5976ZM8.86168 11.4226C8.89896 11.4118 8.94016 11.4187 8.97155 11.4462C9.01962 11.4884 9.02453 11.561 8.98234 11.609C8.89602 11.7071 8.80478 11.8033 8.70963 11.8935C8.66352 11.9377 8.58995 11.9357 8.5458 11.8906C8.50166 11.8445 8.50362 11.7719 8.54875 11.7267C8.63802 11.6404 8.72532 11.5502 8.80773 11.456C8.82342 11.4403 8.84206 11.4285 8.86168 11.4226ZM4.88867 12.9098C4.90437 12.9049 4.92007 12.9039 4.93772 12.9059C5.06035 12.9226 5.18591 12.9334 5.3105 12.9392C5.37426 12.9422 5.42331 12.9961 5.42037 13.0599C5.41743 13.1237 5.36347 13.1727 5.29971 13.1698C5.16924 13.1639 5.0368 13.1521 4.90731 13.1345C4.84453 13.1256 4.7994 13.0678 4.80823 13.005C4.81412 12.9589 4.84649 12.9226 4.88867 12.9098ZM8.11809 12.0995C8.1642 12.0858 8.21521 12.1015 8.24562 12.1427C8.2829 12.1947 8.27113 12.2663 8.21913 12.3036C8.11319 12.3801 8.00234 12.4527 7.8905 12.5204C7.83557 12.5527 7.76494 12.5351 7.73158 12.4801C7.69921 12.4252 7.71687 12.3546 7.7718 12.3212C7.87873 12.2575 7.9837 12.1878 8.08376 12.1152C8.09455 12.1083 8.10632 12.1025 8.11809 12.0995ZM5.89517 12.9304C5.90204 12.9285 5.90988 12.9265 5.91773 12.9255C6.04134 12.9137 6.16592 12.8971 6.28855 12.8755C6.35133 12.8647 6.41117 12.9059 6.42294 12.9687C6.43373 13.0315 6.39253 13.0923 6.32975 13.1031C6.20124 13.1266 6.06979 13.1443 5.93931 13.156C5.87555 13.1619 5.81963 13.1148 5.81375 13.0521C5.80786 12.9961 5.84318 12.9461 5.89517 12.9304ZM7.24109 12.593C7.297 12.5763 7.35783 12.6037 7.38039 12.6587C7.40491 12.7175 7.37744 12.7852 7.31859 12.8098C7.19792 12.8608 7.07432 12.9069 6.94973 12.9471C6.94875 12.9471 6.94777 12.9481 6.94777 12.9481C6.88793 12.9657 6.82417 12.9334 6.80455 12.8735C6.78493 12.8127 6.81828 12.748 6.8791 12.7283C6.9978 12.6901 7.11552 12.6459 7.22932 12.5979C7.23324 12.5949 7.23716 12.5939 7.24109 12.593Z" fill="#7D97F4"/>
<path opacity="0.3" d="M4.09813 12.7301C4.11971 12.7233 4.14424 12.7233 4.1668 12.7311C4.2237 12.7498 4.28158 12.7674 4.33946 12.7831C4.40126 12.8008 4.43657 12.8645 4.4199 12.9254C4.40224 12.9872 4.33847 13.0225 4.27765 13.0058C4.21683 12.9891 4.15601 12.9705 4.09617 12.9509C4.03535 12.9312 4.002 12.8655 4.02162 12.8057C4.03339 12.7674 4.06282 12.7409 4.09813 12.7301Z" fill="#7D97F4"/>
</g>
<g opacity="0.3">
<path opacity="0.3" d="M1.43854 10.4193C1.49151 10.4036 1.55037 10.4281 1.57588 10.4791C1.60237 10.533 1.62983 10.587 1.65828 10.639C1.68869 10.6949 1.66711 10.7655 1.61119 10.796C1.5543 10.8264 1.48465 10.8048 1.45424 10.7489C1.42481 10.693 1.39538 10.6361 1.36791 10.5801C1.34044 10.5223 1.36399 10.4536 1.42088 10.4261C1.42775 10.4232 1.43265 10.4212 1.43854 10.4193Z" fill="#7D97F4"/>
<path opacity="0.3" d="M4.17948 4.14358C4.23049 4.12789 4.2815 4.11317 4.33349 4.09944C4.39529 4.08276 4.45808 4.12004 4.47475 4.18184C4.49143 4.24364 4.45415 4.30741 4.39235 4.3231C4.27267 4.35449 4.15495 4.39177 4.04018 4.43199C3.98034 4.45357 3.91363 4.42218 3.89303 4.36234C3.87145 4.3025 3.90284 4.2358 3.96268 4.21421C4.03429 4.18969 4.10688 4.16516 4.17948 4.14358ZM4.93288 3.98368C4.93876 3.98172 4.94563 3.98074 4.9525 3.97976C5.08002 3.96406 5.2105 3.95327 5.339 3.94837C5.40277 3.94542 5.45672 3.99545 5.45869 4.05922C5.46163 4.12298 5.4116 4.17694 5.34783 4.1789C5.22619 4.1838 5.10259 4.19361 4.98094 4.20931C4.91718 4.21716 4.86028 4.17203 4.85243 4.10925C4.84459 4.05235 4.8799 3.99938 4.93288 3.98368ZM3.40646 4.4575C3.45845 4.4418 3.51633 4.46437 3.54183 4.5144C3.57126 4.57129 3.54968 4.64094 3.49278 4.67037C3.38488 4.72629 3.27697 4.78809 3.17396 4.85382C3.12001 4.88815 3.0484 4.87148 3.01406 4.81752C2.97973 4.76357 2.9964 4.69196 3.05036 4.65762C3.15925 4.58895 3.27206 4.52323 3.38684 4.46437C3.39272 4.4624 3.39959 4.45946 3.40646 4.4575ZM5.92269 3.96995C5.93643 3.96602 5.95212 3.96406 5.96684 3.96602C6.09535 3.97878 6.22386 3.99643 6.3504 4.01998C6.41319 4.03175 6.45439 4.09159 6.44262 4.15437C6.43085 4.21716 6.37101 4.25836 6.30822 4.24757C6.18756 4.225 6.06494 4.20833 5.94329 4.19656C5.87953 4.19067 5.83342 4.13377 5.83931 4.07001C5.84618 4.02194 5.87953 3.98368 5.92269 3.96995ZM2.58439 5.00881C2.62755 4.99606 2.67562 5.00881 2.70603 5.04511C2.74723 5.09416 2.74135 5.16675 2.6923 5.20796C2.5991 5.28643 2.50787 5.3708 2.42154 5.45713C2.37642 5.50225 2.30285 5.50225 2.25772 5.45713C2.21259 5.412 2.21259 5.33843 2.25772 5.2933C2.34895 5.20207 2.44509 5.11378 2.54319 5.03138C2.55496 5.02059 2.56967 5.01372 2.58439 5.00881ZM1.9026 5.7269C1.93694 5.71611 1.97519 5.72199 2.00561 5.74554C2.05662 5.7838 2.06643 5.85639 2.02817 5.9074C1.95459 6.00452 1.88396 6.10654 1.81824 6.20954C1.7839 6.2635 1.71229 6.2792 1.65834 6.24486C1.60438 6.21053 1.58869 6.13891 1.62302 6.08496C1.69169 5.97607 1.76624 5.86914 1.84472 5.76712C1.85944 5.7475 1.88004 5.73377 1.9026 5.7269ZM1.39347 6.57643C1.41996 6.56859 1.4484 6.56957 1.47489 6.58232C1.53277 6.60881 1.55827 6.67748 1.53179 6.73535C1.48078 6.84719 1.43369 6.96098 1.39249 7.07674C1.37091 7.13658 1.30518 7.16797 1.24436 7.14639C1.18452 7.12481 1.15313 7.0581 1.17471 6.99826C1.21787 6.8776 1.2679 6.75694 1.32088 6.63922C1.33657 6.60783 1.36306 6.58624 1.39347 6.57643ZM1.08249 7.5172C1.10015 7.51132 1.11977 7.51034 1.13939 7.51524C1.20218 7.52897 1.24142 7.5898 1.22866 7.65258C1.20316 7.77226 1.18256 7.89488 1.16784 8.01555C1.15999 8.07931 1.10211 8.12345 1.03933 8.11561C0.975567 8.10776 0.931423 8.04988 0.939271 7.98612C0.954966 7.85859 0.976548 7.73008 1.00402 7.60353C1.01186 7.56135 1.04326 7.52897 1.08249 7.5172ZM0.985377 8.5031C0.995187 8.50015 1.00598 8.49819 1.01775 8.49819C1.08151 8.49721 1.13351 8.54822 1.13449 8.61199C1.13645 8.73363 1.14332 8.85723 1.15509 8.97986C1.16097 9.04362 1.11487 9.09954 1.0511 9.10641C0.987339 9.11229 0.931423 9.06618 0.924556 9.00242C0.911803 8.87391 0.904936 8.74442 0.902974 8.61591C0.901993 8.56294 0.937309 8.51781 0.985377 8.5031ZM1.10702 9.48605C1.10898 9.48507 1.11192 9.48507 1.11389 9.48409C1.17569 9.46937 1.23847 9.50763 1.25319 9.56943C1.27379 9.65674 1.29733 9.74503 1.32382 9.83136C1.33363 9.86275 1.34344 9.89316 1.35325 9.92455C1.37287 9.98537 1.33951 10.0501 1.27967 10.0697C1.21885 10.0913 1.15411 10.056 1.13449 9.99616C1.1237 9.96379 1.11389 9.93142 1.10408 9.89806C1.07661 9.80781 1.05208 9.71462 1.02952 9.62241C1.01383 9.56355 1.04914 9.50371 1.10702 9.48605Z" fill="#7D97F4"/>
<path opacity="0.3" d="M6.89474 4.17593C6.91632 4.16907 6.94085 4.16907 6.96439 4.17691C7.02423 4.19653 7.08407 4.21811 7.14293 4.2397C7.20277 4.26226 7.23318 4.32897 7.21062 4.38881C7.18805 4.44865 7.12135 4.47906 7.06151 4.45649C7.00559 4.43491 6.94869 4.41529 6.8918 4.39665C6.83097 4.37703 6.7986 4.31131 6.81822 4.25049C6.83097 4.21321 6.8604 4.18672 6.89474 4.17593Z" fill="#7D97F4"/>
</g>
<path d="M7.13323 5.50436C7.11459 5.49161 7.08908 5.49259 7.07044 5.50633L6.54562 5.90167C6.25819 5.79278 5.95212 5.72901 5.63624 5.71724L5.30761 5.14827C5.29584 5.12865 5.27327 5.11785 5.25071 5.12276L4.47671 5.27383C4.45415 5.27776 4.43649 5.29639 4.43355 5.31896L4.34231 5.96935C4.0539 6.09884 3.79394 6.27346 3.5693 6.48143L2.9346 6.31172C2.91203 6.30583 2.88849 6.31466 2.87574 6.3333L2.43527 6.98664C2.42252 7.00528 2.4235 7.03078 2.43723 7.04942L2.83257 7.57425C2.72368 7.8607 2.65992 8.16775 2.64815 8.48363L2.07917 8.81226C2.05955 8.82403 2.04876 8.8466 2.05367 8.86916L2.20474 9.64316C2.20866 9.66572 2.2273 9.68338 2.24987 9.68632L2.90026 9.77756C3.02975 10.066 3.20437 10.3259 3.41234 10.5506L3.24263 11.1853C3.23674 11.2078 3.24557 11.2314 3.26421 11.2441L3.91755 11.6846C3.93618 11.6974 3.96169 11.6964 3.98033 11.6826L4.50516 11.2873C4.79161 11.3962 5.09866 11.46 5.41454 11.4717L5.74317 12.0407C5.75494 12.0603 5.7775 12.0711 5.80006 12.0662L6.57406 11.9151C6.59663 11.9112 6.61428 11.8926 6.61723 11.87L6.70846 11.2196C6.99687 11.0901 7.25683 10.9155 7.48148 10.7075L8.11618 10.8772C8.13874 10.8831 8.16228 10.8743 8.17504 10.8557L8.6155 10.2023C8.62825 10.1837 8.62727 10.1582 8.61354 10.1395L8.2182 9.61471C8.32709 9.32826 8.39086 9.02121 8.40263 8.70533L8.9716 8.3767C8.99122 8.36493 9.00201 8.34237 8.99711 8.31981L8.84603 7.5458C8.84211 7.52324 8.82347 7.50558 8.80091 7.50264L8.15051 7.41141C8.02102 7.123 7.84641 6.86304 7.63844 6.63839L7.80815 6.00369C7.81403 5.98113 7.8052 5.95758 7.78657 5.94483L7.13323 5.50436Z" fill="#91B3FA"/>
<path d="M5.29683 7.83589C5.66666 7.72406 6.07377 7.89769 6.2425 8.25771C6.42889 8.65305 6.2582 9.12589 5.86286 9.31228C5.67157 9.40253 5.45575 9.41234 5.25661 9.34072C5.05747 9.26911 4.89855 9.12393 4.8083 8.93263C4.62191 8.5373 4.7926 8.06446 5.18794 7.87807C5.22424 7.86041 5.26054 7.84668 5.29683 7.83589ZM5.70002 9.1769C5.72847 9.16807 5.75692 9.15728 5.78438 9.14453C6.08751 9.00228 6.21798 8.63932 6.07574 8.33619C5.93349 8.03307 5.57053 7.9026 5.2674 8.04484C4.96428 8.18708 4.83381 8.55005 4.97605 8.85317C5.04472 9.00032 5.16734 9.11117 5.32038 9.16611C5.44398 9.21123 5.57641 9.21418 5.70002 9.1769Z" fill="#BDD0FB"/>
<path d="M4.95062 6.74501C5.01439 6.72539 5.07913 6.70969 5.14486 6.69694C5.16546 6.69302 5.18606 6.68909 5.20764 6.68615C5.31065 6.66947 5.41463 6.66064 5.51862 6.66064C5.5196 6.66064 5.52156 6.66064 5.52254 6.66064C5.52646 6.66064 5.53039 6.66064 5.53431 6.66064C5.54216 6.66064 5.55001 6.66064 5.55786 6.66064C5.57846 6.66064 5.59513 6.67438 5.60102 6.69302C5.602 6.69792 5.60298 6.70283 5.60298 6.70773C5.602 6.73324 5.5814 6.75384 5.55589 6.75286C5.42444 6.74991 5.29201 6.76169 5.16252 6.78719C4.51703 6.91276 4.01476 7.36107 3.79011 7.93201C3.66553 8.24985 3.62629 8.60496 3.69594 8.964C3.70771 9.02679 3.7234 9.08859 3.74204 9.14941C3.86565 9.5575 4.12267 9.90673 4.48073 10.1481C4.89176 10.4247 5.38618 10.5257 5.87275 10.4306C6.87729 10.2354 7.53553 9.25928 7.33933 8.25475C7.32756 8.19295 7.31187 8.13213 7.29421 8.07131C7.21573 7.81134 7.08133 7.571 6.89887 7.36892C6.89396 7.36401 6.89102 7.35813 6.88906 7.35126C6.88415 7.33458 6.88906 7.31594 6.90279 7.30319C6.92143 7.28651 6.95086 7.2875 6.96852 7.30712C7.15981 7.51901 7.30107 7.77112 7.38348 8.04384C7.40212 8.10662 7.41879 8.17137 7.43155 8.23611C7.63657 9.29067 6.94596 10.3158 5.89139 10.5208C5.3803 10.6199 4.86135 10.5149 4.42972 10.2236C4.054 9.9705 3.78325 9.60263 3.65474 9.17492C3.63512 9.11115 3.61942 9.04641 3.60667 8.98068C3.50759 8.46959 3.61255 7.95064 3.90293 7.51901C4.15504 7.14427 4.52291 6.8745 4.95062 6.74501Z" fill="#BDD0FB"/>
<g opacity="0.3">
<path opacity="0.3" d="M12.5259 2.64657C12.5553 2.63774 12.5886 2.64853 12.6063 2.676C12.6396 2.72701 12.671 2.779 12.7015 2.83198C12.7211 2.86631 12.7093 2.90947 12.675 2.92909C12.6406 2.94871 12.5975 2.93694 12.5778 2.90261C12.5494 2.85258 12.519 2.80255 12.4866 2.75448C12.465 2.72112 12.4739 2.67698 12.5072 2.6554C12.5131 2.65147 12.519 2.64853 12.5259 2.64657Z" fill="#7D97F4"/>
<path opacity="0.3" d="M12.7829 3.13108C12.8172 3.12029 12.8555 3.13795 12.8692 3.17229C12.9094 3.26842 12.9447 3.36848 12.9751 3.46756C12.981 3.48817 12.9879 3.50975 12.9938 3.53133C13.0046 3.56959 12.98 3.60785 12.9447 3.61962C12.9065 3.63041 12.8672 3.60785 12.8564 3.57057C12.8506 3.54997 12.8447 3.53035 12.8388 3.50975C12.8103 3.41459 12.776 3.31944 12.7377 3.2282C12.723 3.19191 12.7397 3.14972 12.776 3.13501C12.778 3.13305 12.7799 3.13207 12.7829 3.13108ZM12.982 3.84524C12.985 3.84426 12.9889 3.84328 12.9918 3.84328C13.0311 3.8374 13.0674 3.86388 13.0732 3.90312C13.0919 4.02771 13.1037 4.15524 13.1066 4.28179C13.1076 4.32102 13.0762 4.35438 13.0369 4.35536C12.9977 4.35634 12.9644 4.32495 12.9634 4.28571C12.9604 4.16505 12.9496 4.04439 12.931 3.92471C12.9271 3.88841 12.9487 3.85505 12.982 3.84524ZM13.0016 4.58589C13.0105 4.58295 13.0193 4.58197 13.0291 4.58295C13.0683 4.58687 13.0968 4.62219 13.0929 4.66045C13.0801 4.78601 13.0605 4.91256 13.033 5.03617C13.0242 5.07442 12.9859 5.09895 12.9477 5.09012C12.9094 5.08129 12.8849 5.04303 12.8937 5.00477C12.9202 4.88705 12.9398 4.76639 12.9516 4.64671C12.9545 4.61728 12.9751 4.59374 13.0016 4.58589ZM12.8398 5.30888C12.8535 5.30496 12.8692 5.30496 12.8849 5.30986C12.9222 5.3236 12.9408 5.36382 12.9281 5.40109C12.8849 5.51979 12.8349 5.63751 12.778 5.75032C12.7603 5.78564 12.7171 5.79937 12.6818 5.78172C12.6465 5.76406 12.6328 5.7209 12.6504 5.68558C12.7044 5.57865 12.7525 5.46584 12.7937 5.35302C12.8005 5.33046 12.8182 5.31477 12.8398 5.30888ZM12.5052 5.97007C12.5249 5.96418 12.5474 5.96712 12.5661 5.9789C12.5984 6.00048 12.6073 6.0456 12.5857 6.07798C12.5151 6.18294 12.4376 6.28398 12.3552 6.38012C12.3297 6.40955 12.2845 6.41347 12.2541 6.38699C12.2247 6.36148 12.2208 6.31636 12.2473 6.28595C12.3257 6.19471 12.4003 6.09759 12.467 5.99753C12.4758 5.98478 12.4905 5.97497 12.5052 5.97007ZM12.0206 6.53021C12.0461 6.52236 12.0756 6.52923 12.0942 6.55081C12.1207 6.58024 12.1187 6.62537 12.0893 6.65185C11.9951 6.73622 11.8961 6.81568 11.7921 6.88827C11.7597 6.91083 11.7156 6.90299 11.693 6.87061C11.6704 6.83824 11.6783 6.7941 11.7107 6.77153C11.8087 6.70287 11.9049 6.62635 11.9942 6.54591C12.002 6.53806 12.0108 6.53315 12.0206 6.53021ZM11.4144 6.95498C11.4468 6.94517 11.4821 6.9589 11.4978 6.99029C11.5164 7.02561 11.5027 7.06877 11.4683 7.08643C11.3575 7.14529 11.2408 7.19826 11.1221 7.24339C11.0848 7.25712 11.0436 7.23848 11.0298 7.20219C11.0161 7.16491 11.0348 7.12371 11.071 7.10998C11.1839 7.06681 11.2947 7.01678 11.4016 6.96087C11.4056 6.95792 11.4095 6.95596 11.4144 6.95498ZM10.3559 7.28361C10.3598 7.28263 10.3638 7.28165 10.3687 7.28067C10.4717 7.2689 10.5766 7.25026 10.6796 7.22671C10.6953 7.22279 10.71 7.21985 10.7257 7.21592C10.764 7.20611 10.8023 7.22966 10.8121 7.26791C10.8219 7.30617 10.7983 7.34639 10.7601 7.35424C10.7434 7.35817 10.7277 7.36209 10.711 7.36601C10.6041 7.39054 10.4942 7.40918 10.3853 7.42193C10.3461 7.42684 10.3108 7.39839 10.3059 7.35915C10.302 7.32579 10.3235 7.29342 10.3559 7.28361Z" fill="#7D97F4"/>
</g>
<g opacity="0.3">
<path opacity="0.3" d="M9.09424 1.42397C9.13151 1.41318 9.17075 1.43378 9.18253 1.47106C9.1943 1.50834 9.1737 1.54856 9.13642 1.56033C9.02361 1.59565 8.91177 1.63881 8.80386 1.68786C8.76855 1.70355 8.72539 1.68884 8.70969 1.65254C8.69301 1.61625 8.70969 1.57406 8.74501 1.55837C8.85684 1.50638 8.97456 1.46125 9.09424 1.42397C9.09326 1.42397 9.09326 1.42397 9.09424 1.42397ZM9.44837 1.3347C9.45132 1.33372 9.45328 1.33372 9.45622 1.33274C9.57787 1.31018 9.70343 1.2935 9.82704 1.28565C9.86628 1.28271 9.90061 1.31312 9.90257 1.35236C9.90552 1.3916 9.8751 1.42593 9.83586 1.4279C9.71716 1.43574 9.59847 1.45046 9.48173 1.47302C9.44347 1.47989 9.40521 1.45438 9.39834 1.41612C9.39148 1.37983 9.41404 1.34451 9.44837 1.3347ZM8.43109 1.72612C8.4615 1.71729 8.49485 1.72906 8.51251 1.75751C8.53311 1.79086 8.52232 1.83501 8.48897 1.85561C8.38793 1.91741 8.28983 1.98608 8.19663 2.05965C8.16524 2.08418 8.1211 2.07927 8.09657 2.04788C8.07205 2.01747 8.07695 1.97235 8.10834 1.94782C8.20546 1.87032 8.30847 1.79871 8.41441 1.73397C8.41932 1.73004 8.4252 1.7271 8.43109 1.72612ZM10.1753 1.28663C10.1831 1.28467 10.191 1.28369 10.1998 1.28369C10.3244 1.29056 10.449 1.30527 10.5716 1.32784C10.6108 1.3347 10.6364 1.37198 10.6295 1.41122C10.6226 1.44948 10.5853 1.47597 10.5461 1.4691C10.4294 1.4485 10.3107 1.43378 10.192 1.42692C10.1527 1.42495 10.1223 1.39062 10.1243 1.35138C10.1262 1.31999 10.1478 1.29546 10.1753 1.28663ZM7.86015 2.17933C7.88468 2.17247 7.91215 2.17737 7.93078 2.19699C7.95923 2.22446 7.95923 2.26959 7.93177 2.29803C7.84838 2.3824 7.7699 2.47265 7.69731 2.56682C7.67278 2.59822 7.62864 2.6041 7.59725 2.57958C7.56586 2.55505 7.55997 2.51091 7.5845 2.47952C7.66003 2.38142 7.74243 2.28626 7.82974 2.19797C7.83955 2.18816 7.84936 2.18228 7.86015 2.17933ZM7.41577 2.75616C7.4344 2.75027 7.45501 2.75223 7.47266 2.76302C7.507 2.78362 7.51779 2.82679 7.49719 2.86112C7.43637 2.96314 7.38143 3.07007 7.33434 3.17798C7.31865 3.21428 7.27647 3.22997 7.24017 3.21428C7.20387 3.19858 7.18818 3.1564 7.20387 3.1201C7.2539 3.00631 7.31178 2.89447 7.37456 2.78755C7.38437 2.77185 7.39909 2.76106 7.41577 2.75616ZM7.12147 3.42323C7.13422 3.4193 7.14894 3.4193 7.16267 3.42323C7.19995 3.435 7.22153 3.47424 7.21074 3.5125C7.1764 3.62629 7.14894 3.74303 7.12834 3.85977C7.12147 3.89803 7.08419 3.92451 7.04593 3.91765C7.00669 3.91078 6.98119 3.8735 6.98805 3.83524C7.00964 3.71262 7.03808 3.59098 7.07438 3.4713C7.08125 3.44677 7.09989 3.43009 7.12147 3.42323Z" fill="#7D97F4"/>
<path opacity="0.3" d="M10.8963 1.41749C10.909 1.41357 10.9237 1.41357 10.9384 1.41749C10.9963 1.43515 11.0552 1.45575 11.1111 1.47635C11.1484 1.49009 11.167 1.53129 11.1523 1.56857C11.1386 1.60486 11.0974 1.62448 11.0601 1.60977C11.0061 1.58917 10.9512 1.57053 10.8953 1.55287C10.858 1.5411 10.8364 1.50088 10.8482 1.4636C10.856 1.44104 10.8737 1.42436 10.8963 1.41749Z" fill="#7D97F4"/>
</g>
<path d="M11.1062 2.31677C11.0935 2.30794 11.0768 2.30892 11.064 2.31775L10.7128 2.58262C10.5206 2.51002 10.3155 2.46686 10.1046 2.45901L9.88489 2.07839C9.87705 2.06466 9.86233 2.05779 9.84664 2.06073L9.32867 2.16177C9.31396 2.16472 9.30219 2.17649 9.30022 2.19218L9.2394 2.62774C9.04615 2.71407 8.87251 2.83081 8.72242 2.97109L8.29765 2.85729C8.28294 2.85337 8.26724 2.85926 8.25841 2.87201L7.96215 3.30953C7.95333 3.32228 7.95431 3.33896 7.96314 3.35171L8.228 3.7029C8.15541 3.89518 8.11225 4.1002 8.1044 4.31112L7.72377 4.53086C7.71004 4.53871 7.70317 4.55342 7.70612 4.56912L7.80716 5.08708C7.8101 5.10179 7.82187 5.11357 7.83757 5.11553L8.27313 5.17635C8.35946 5.3696 8.47619 5.54324 8.61647 5.69333L8.50268 6.1181C8.49876 6.13281 8.50464 6.14851 8.51739 6.15734L8.95492 6.45261C8.96767 6.46144 8.98435 6.46046 8.9971 6.45163L9.34829 6.18677C9.54057 6.25936 9.74559 6.30252 9.95651 6.31037L10.1762 6.69099C10.1841 6.70473 10.1988 6.71159 10.2145 6.70865L10.7325 6.60761C10.7472 6.60467 10.759 6.5929 10.7609 6.5772L10.8217 6.14164C11.015 6.05531 11.1886 5.93858 11.3387 5.7983L11.7635 5.91209C11.7782 5.91601 11.7939 5.91013 11.8027 5.89737L12.098 5.45985C12.1068 5.4471 12.1059 5.43042 12.097 5.41767L11.8322 5.06648C11.9047 4.8742 11.9479 4.66918 11.9558 4.45827L12.3364 4.23852C12.3501 4.23068 12.357 4.21498 12.354 4.20027L12.253 3.6823C12.2501 3.66759 12.2383 3.65582 12.2226 3.65386L11.787 3.59303C11.7007 3.39978 11.584 3.22614 11.4437 3.07605L11.5575 2.65129C11.5614 2.63657 11.5555 2.62088 11.5428 2.61205L11.1062 2.31677Z" fill="#91B3FA"/>
<path d="M9.87525 3.86771C9.98512 3.83436 10.1028 3.8373 10.2137 3.87654C10.3491 3.92559 10.458 4.02467 10.5188 4.15514C10.6453 4.42393 10.5296 4.74668 10.2598 4.87322C9.99003 4.99977 9.66827 4.88402 9.54172 4.61424C9.47992 4.48377 9.47305 4.33761 9.5221 4.20125C9.57115 4.06587 9.66925 3.95698 9.8007 3.89616C9.82522 3.88537 9.84975 3.87556 9.87525 3.86771ZM10.145 4.76532C10.1637 4.75943 10.1813 4.75256 10.199 4.74472C10.3971 4.65152 10.4825 4.41412 10.3893 4.21596C10.3442 4.11983 10.2647 4.04723 10.1646 4.01094C10.0646 3.97464 9.95667 3.98053 9.86152 4.02565C9.76538 4.07078 9.69279 4.15024 9.65649 4.2503C9.6202 4.35036 9.62608 4.45827 9.67121 4.5544C9.75557 4.73392 9.95962 4.82123 10.145 4.76532Z" fill="#BDD0FB"/>
<path d="M9.63469 3.10874C9.67785 3.09599 9.722 3.0852 9.76712 3.07539C9.85737 3.05773 9.9486 3.04988 10.0398 3.05086C10.0438 3.05086 10.0477 3.05086 10.0526 3.05086C10.084 3.05184 10.1105 3.07244 10.1193 3.10187C10.1213 3.10874 10.1222 3.11659 10.1222 3.12444C10.1213 3.16368 10.0889 3.19507 10.0496 3.19409C9.9643 3.19213 9.87895 3.19997 9.79459 3.21665C9.78968 3.21763 9.78576 3.21861 9.78086 3.21959C9.5827 3.25981 9.40219 3.34908 9.25112 3.47563C9.1697 3.5443 9.09613 3.62474 9.03433 3.71597C9.03334 3.71695 9.03334 3.71695 9.03236 3.71794C9.0304 3.7199 9.02942 3.72284 9.02746 3.7248C8.84794 3.99065 8.78319 4.31143 8.84401 4.62633C8.85186 4.66753 8.86167 4.70677 8.87344 4.74601C8.9529 5.0099 9.11967 5.23651 9.35118 5.39248C9.61703 5.572 9.93781 5.63675 10.2527 5.57495C10.5676 5.51314 10.8403 5.33362 11.0198 5.06679C11.1994 4.80095 11.2641 4.48016 11.2033 4.16527C11.1954 4.12505 11.1856 4.08581 11.1739 4.04657C11.1228 3.87784 11.0355 3.72284 10.9178 3.59237C10.911 3.58452 10.9051 3.57471 10.9021 3.5649C10.8943 3.5394 10.9011 3.50997 10.9227 3.49133C10.9522 3.46484 10.9973 3.46778 11.0238 3.49623C11.1552 3.6424 11.2533 3.81603 11.3102 4.00438C11.323 4.04755 11.3347 4.09169 11.3436 4.13682C11.4122 4.48899 11.3396 4.84705 11.1385 5.14527C10.9374 5.44251 10.6333 5.6446 10.2812 5.71327C9.92898 5.78194 9.57092 5.70934 9.2727 5.50824C9.01372 5.33362 8.82734 5.08053 8.73807 4.78525C8.72531 4.74111 8.71354 4.69696 8.70471 4.65086C8.57228 3.97005 8.98331 3.30592 9.63469 3.10874Z" fill="#BDD0FB"/>
<path d="M25.6828 41.02C23.5786 38.7137 18.398 33.6911 12.7083 31.6065C12.2344 31.4328 11.8499 31.0787 11.6311 30.6245L10.7796 28.8499C10.7796 28.8499 6.63104 27.8777 4.07458 30.5539C4.07458 30.5539 4.23056 33.0995 7.44134 34.0305C10.4383 34.8996 19.3191 38.4273 24.5576 42.3797C24.6773 42.4699 24.8441 42.4749 24.9638 42.3826C25.3807 42.0599 25.6406 41.6567 25.7525 41.3722C25.7996 41.2516 25.7701 41.1152 25.6828 41.02Z" fill="url(#paint1_linear)"/>
<path d="M3.62428 30.5191C3.62428 30.5191 4.47088 30.8899 5.92176 30.2189C7.37264 29.5479 11.3182 29.4812 11.3182 29.4812C11.3182 29.4812 10.0399 24.6979 12.8799 21.2753C12.8799 21.2753 15.1676 25.5573 16.7754 26.1959L17.4955 26.2292V23.1745C17.4955 23.1745 16.8843 19.4035 13.0222 16.5871L11.8195 15.5031C11.8195 15.5031 7.59042 14.6507 4.71416 19.6949C1.83888 24.7411 3.62428 30.5191 3.62428 30.5191Z" fill="url(#paint2_linear)"/>
<path d="M17.7388 17.329C17.7791 17.1171 17.7938 16.6207 17.2827 16.0165C16.5979 15.2081 15.7209 15.6201 15.7209 15.6201C14.943 16.0557 14.6144 17.4781 14.6144 17.4781L15.4364 17.0396C15.561 17.4016 16.7755 17.7911 16.7755 17.7911L16.7824 17.7881C16.7941 18.5749 16.7755 20.8694 16.2173 22.4645C15.9986 23.0894 15.5542 24.2509 17.0217 26.2413L17.8301 26.2079C17.831 26.2089 19.6429 23.1325 17.7388 17.329Z" fill="url(#paint3_linear)"/>
<path d="M13.6276 12.6654L11.3762 15.8458C11.2301 16.0528 11.2497 16.3324 11.4233 16.5178C11.7265 16.8415 12.2385 17.2977 12.7899 17.4026C12.9615 17.435 13.1352 17.3634 13.2303 17.2172L14.4281 15.3788C14.4281 15.3779 14.6567 12.4898 13.6276 12.6654Z" fill="url(#paint4_linear)"/>
<path d="M15.1236 10.5985C15.1609 10.6485 16.3793 14.599 16.3793 14.599L14.1093 15.2464L12.3984 11.6737C12.3975 11.6747 14.4948 9.76173 15.1236 10.5985Z" fill="url(#paint5_linear)"/>
<path d="M13.2989 12.2604L14.0219 14.1321C14.0375 14.1733 14.0591 14.2106 14.0866 14.2449C14.2082 14.397 14.5604 14.756 14.9518 14.3725C15.2481 14.0821 15.5267 13.8143 15.7925 13.6809C16.027 13.5631 16.3105 13.6917 16.3851 13.9428C16.4969 14.3195 16.6735 14.966 16.7657 15.582C16.799 15.8047 16.6529 16.0156 16.4321 16.0617C15.9701 16.1588 15.1637 16.2991 14.4564 16.2834C14.2995 16.2795 14.1592 16.1873 14.0895 16.047C13.8276 15.5183 13.1713 14.2067 12.9241 13.8565C12.6965 13.5347 12.1835 13.5367 11.9225 13.5612C11.8009 13.573 11.6812 13.5318 11.5919 13.4484C11.383 13.2522 11.1034 12.8578 11.5017 12.3673C11.64 12.1966 11.6282 11.9543 11.4762 11.7964C11.2555 11.5678 11.073 11.2029 11.4213 10.7438C11.7901 10.2582 12.2884 10.2847 12.6239 10.3808C12.7878 10.4279 12.9545 10.3563 13.0624 10.2239C13.0938 10.1856 13.138 10.1562 13.2008 10.1454C13.4058 10.112 13.5637 9.9541 13.5696 9.74711C13.5784 9.44006 13.7109 9.08298 14.2171 8.90935C15.2069 8.56895 15.8583 9.51658 15.9416 10.2347C16.0241 10.9527 14.9302 11.2608 14.2799 11.2313C13.8296 11.2107 13.497 11.6237 13.3361 11.8788C13.2645 11.9936 13.2498 12.1348 13.2989 12.2604Z" fill="url(#paint6_linear)"/>
<path d="M13.2047 14.5638C13.2047 14.5638 13.0065 13.318 12.4847 13.2718C11.9628 13.2257 11.4684 13.6682 12.0059 14.3549C12.676 15.2093 13.2047 14.5638 13.2047 14.5638Z" fill="url(#paint7_linear)"/>
<path d="M7.55515 15.9658C7.55515 15.9658 3.01513 18.8607 2.02139 22.2226C1.02765 25.5844 3.25155 26.2456 5.36951 26.5428L5.52843 23.9756C5.52843 23.9756 4.04517 23.9756 4.99084 22.5728C5.9375 21.17 8.48022 20.2341 8.48022 20.2341C8.48022 20.2341 14.9253 14.1549 7.55515 15.9658Z" fill="url(#paint8_linear)"/>
<path d="M5.52956 24.035C5.50405 24.035 4.88995 24.0301 4.68394 23.6416C4.54268 23.3767 4.62999 23.0059 4.94391 22.5409C5.88958 21.1381 8.35677 20.2189 8.46174 20.1807C8.49215 20.1699 8.5255 20.1856 8.53629 20.215C8.54708 20.2454 8.53237 20.2788 8.50196 20.2895C8.47645 20.2984 5.96512 21.2342 5.04102 22.6057C4.75359 23.0324 4.66825 23.362 4.78695 23.5857C4.96058 23.9123 5.52367 23.9172 5.52956 23.9172C5.56193 23.9172 5.58842 23.9437 5.58842 23.9761C5.58744 24.0085 5.56095 24.035 5.52956 24.035Z" fill="url(#paint9_linear)"/>
<path d="M5.36957 26.5441C5.36957 26.5441 4.70642 25.4483 5.5795 24.1387L11.4419 25.1089C11.4419 25.1089 14.2485 24.6341 14.3829 24.6439C14.5173 24.6537 16.3488 25.7818 16.3488 25.7818C16.3488 25.7818 16.287 25.9123 15.8514 25.8888C15.4159 25.8642 15.7014 25.9417 15.7014 25.9417L15.6857 26.1615C15.6857 26.1615 15.3825 26.2311 15.1392 25.9721C14.896 25.7132 14.2191 25.5876 14.2191 25.5876C14.2191 25.5876 12.781 26.65 11.3683 26.136L5.36957 26.5441Z" fill="url(#paint10_linear)"/>
<path d="M13.8993 45.0372C13.8532 45.0372 13.8071 45.0274 13.7619 45.0078C13.5853 44.9303 13.5039 44.7204 13.5795 44.5389L20.8819 27.1489C20.9575 26.9684 21.1625 26.884 21.3391 26.9625C21.5157 27.04 21.5971 27.2499 21.5215 27.4314L14.2191 44.8214C14.1632 44.9558 14.0346 45.0372 13.8993 45.0372Z" fill="url(#paint11_linear)"/>
<path d="M22.1268 45.0369C21.9914 45.0369 21.8639 44.9564 21.807 44.821L14.5035 27.431C14.428 27.2505 14.5094 27.0405 14.686 26.9621C14.8626 26.8846 15.0676 26.968 15.1431 27.1485L22.4456 44.5385C22.5212 44.719 22.4397 44.9289 22.2632 45.0074C22.219 45.027 22.1729 45.0369 22.1268 45.0369Z" fill="url(#paint12_linear)"/>
<path d="M27.528 26.6299C27.5388 26.522 27.5241 26.4102 27.4887 26.3258C27.4534 26.2414 27.4004 26.1924 27.3445 26.1924H8.42128C8.3477 26.1924 8.27904 26.266 8.2398 26.3876C8.20056 26.5092 8.19467 26.6623 8.22606 26.7937L8.43109 27.6659C8.47818 27.866 8.5802 27.9935 8.69203 27.9935H27.215C27.319 27.9935 27.4083 27.8483 27.4289 27.6472L27.528 26.6299Z" fill="url(#paint13_linear)"/>
<path d="M19.3437 5.62656C16.8667 6.80963 15.2392 9.27093 17.163 9.15616C20.775 8.94034 18.3372 10.9523 20.2364 10.8925C22.1356 10.8336 25.0756 10.4285 27.0003 8.43513C28.9241 6.44176 27.0543 5.965 26.2744 6.04249C23.7062 6.29657 27.1033 1.92234 19.3437 5.62656Z" fill="#BDD0FB"/>
<path d="M18.5041 11.8722C18.509 12.1528 18.716 12.6129 19.179 12.605C19.643 12.5962 20.1875 12.1224 20.1826 11.8418C20.1777 11.5613 19.797 11.3405 19.334 11.3494C18.871 11.3572 18.4992 11.5917 18.5041 11.8722Z" fill="#BDD0FB"/>
<path d="M17.8084 13.0024C17.8113 13.1378 17.93 13.2467 18.0752 13.2437C18.2204 13.2408 18.5068 13.0966 18.5039 12.9612C18.5009 12.8258 18.3214 12.6895 18.1772 12.6924C18.032 12.6944 17.8064 12.867 17.8084 13.0024Z" fill="#BDD0FB"/>
<path d="M23.1558 7.85467C23.1519 7.80758 23.1038 7.76736 23.0224 7.73401C23.1107 7.68496 23.1597 7.63297 23.1558 7.58195C23.143 7.42696 22.6516 7.33965 22.0581 7.38772C21.4646 7.43579 20.9937 7.60059 21.0055 7.75559C21.0094 7.80268 21.0575 7.8429 21.1389 7.87625C21.0506 7.9253 21.0015 7.97729 21.0055 8.02831C21.0094 8.07539 21.0575 8.11561 21.1389 8.14897C21.0506 8.19802 21.0015 8.25001 21.0055 8.30102C21.0094 8.34811 21.0575 8.38833 21.1389 8.42168C21.0506 8.47073 21.0015 8.52272 21.0055 8.57374C21.0114 8.6424 21.1104 8.69734 21.2703 8.73364C21.2684 8.78465 21.2694 8.83958 21.2743 8.90139C21.2978 9.18685 21.6186 9.4115 22.0443 9.4115C22.4701 9.4115 22.8379 9.10543 22.8419 8.81898C22.8428 8.74835 22.8399 8.68655 22.834 8.63161C23.0371 8.56393 23.1617 8.48054 23.1548 8.4001C23.1509 8.35301 23.1028 8.31279 23.0214 8.27944C23.1097 8.23039 23.1587 8.1784 23.1548 8.12739C23.1509 8.0803 23.1028 8.04008 23.0214 8.00672C23.1107 7.95767 23.1597 7.90568 23.1558 7.85467Z" fill="url(#paint14_linear)"/>
<path d="M21.7833 8.79613C21.6067 8.79613 21.4458 8.78337 21.3124 8.75787C21.3046 8.7559 21.2997 8.74904 21.3007 8.74119C21.3026 8.73334 21.3095 8.72844 21.3173 8.72942C21.5263 8.76964 21.8049 8.77847 22.1021 8.75394C22.3454 8.73432 22.573 8.69508 22.7604 8.64015C22.7682 8.63819 22.7761 8.64211 22.778 8.64996C22.78 8.65781 22.7761 8.66565 22.7682 8.66762C22.5789 8.72255 22.3503 8.76277 22.1051 8.78239C21.9942 8.79122 21.8863 8.79613 21.7833 8.79613Z" fill="url(#paint15_linear)"/>
<path d="M21.7861 8.5222C21.5575 8.5222 21.3525 8.50061 21.2083 8.45941C21.2005 8.45745 21.1965 8.4496 21.1985 8.44175C21.2005 8.4339 21.2083 8.42998 21.2162 8.43194C21.4222 8.4908 21.7528 8.50846 22.102 8.48099C22.4473 8.45352 22.7691 8.38289 22.9633 8.29362C22.9702 8.29067 22.979 8.29362 22.9819 8.30048C22.9849 8.30735 22.9819 8.31618 22.9751 8.31912C22.7779 8.41036 22.4522 8.48099 22.104 8.50944C21.996 8.51827 21.8891 8.5222 21.7861 8.5222Z" fill="url(#paint16_linear)"/>
<path d="M21.7833 8.25021C21.5361 8.25021 21.3193 8.22471 21.1741 8.17664C21.1663 8.1737 21.1623 8.16585 21.1653 8.15898C21.1682 8.15113 21.1761 8.14721 21.1829 8.15015C21.386 8.21686 21.7294 8.23942 22.1021 8.20901C22.4475 8.18154 22.7692 8.11091 22.9635 8.02164C22.9703 8.0187 22.9792 8.02164 22.9821 8.02851C22.985 8.03538 22.9821 8.04421 22.9752 8.04715C22.778 8.13838 22.4524 8.20901 22.1041 8.23746C21.9942 8.24531 21.8863 8.25021 21.7833 8.25021Z" fill="url(#paint17_linear)"/>
<path d="M21.7853 7.97677C21.5891 7.97677 21.4105 7.96107 21.2722 7.92968C21.2644 7.92772 21.2595 7.91987 21.2614 7.913C21.2634 7.90516 21.2712 7.90025 21.2781 7.90221C21.487 7.94832 21.7872 7.96009 22.1021 7.93557C22.4445 7.9081 22.7653 7.83845 22.9595 7.75016C22.9664 7.74722 22.9752 7.75016 22.9782 7.75703C22.9811 7.76389 22.9782 7.77272 22.9713 7.77567C22.7741 7.86592 22.4504 7.93557 22.1041 7.96401C21.9952 7.97284 21.8883 7.97677 21.7853 7.97677Z" fill="url(#paint18_linear)"/>
<path d="M20.6082 6.4778C20.5366 6.22274 20.414 5.98338 20.2492 5.77639C19.8961 5.33102 19.3192 4.42556 19.2486 3.18952C19.1446 1.39038 20.7387 0.490813 22.1945 0.612456C23.6493 0.735079 25.0855 1.81809 24.9285 3.49068C24.8314 4.51974 24.2555 5.30061 23.8269 5.74892C23.5541 6.03341 23.3599 6.38264 23.2549 6.76228C23.1264 7.22727 22.8204 7.80606 22.0915 7.84137C21.1488 7.88748 20.7583 7.00949 20.6082 6.4778Z" fill="url(#paint19_linear)"/>
<path d="M22.3318 7.48355L22.8409 4.17173C22.8517 4.10306 22.8851 4.05696 22.9165 4.06873C22.9479 4.0805 22.9645 4.14525 22.9537 4.21392C22.9537 4.21588 22.9528 4.21784 22.9528 4.2198L22.373 7.50023C22.3691 7.52475 22.3563 7.54045 22.3445 7.53456C22.3337 7.53064 22.3279 7.50709 22.3318 7.48355Z" fill="url(#paint20_linear)"/>
<path d="M21.8031 7.50944L21.294 4.19761C21.2832 4.12894 21.2498 4.08284 21.2184 4.09461C21.187 4.10638 21.1703 4.17113 21.1811 4.23979C21.1811 4.24176 21.1821 4.24372 21.1821 4.24568L21.7619 7.52612C21.7658 7.55064 21.7786 7.56634 21.7903 7.56045C21.8021 7.55653 21.807 7.53298 21.8031 7.50944Z" fill="url(#paint21_linear)"/>
<path opacity="0.79" d="M22.8379 3.88668C22.8252 3.86608 22.7948 3.85823 22.7712 3.86902L22.4877 4.00146L22.3896 3.72089C22.3847 3.70618 22.372 3.69343 22.3553 3.68656C22.3229 3.67283 22.2837 3.68558 22.268 3.71305L22.267 3.71403L22.0335 4.1388L21.8167 3.53353V3.53254C21.8118 3.51783 21.8001 3.5041 21.7844 3.49527C21.7481 3.47565 21.7 3.48448 21.6774 3.51587L21.3517 3.96418C21.338 3.98282 21.3429 4.00734 21.3635 4.02108C21.3851 4.03579 21.4165 4.03187 21.4332 4.01323L21.7206 3.69343L21.9786 4.26927C21.9825 4.2781 21.9904 4.28693 22.0012 4.29183C22.0257 4.3036 22.0561 4.29575 22.0688 4.27417L22.318 3.87393L22.4122 4.07601L22.4132 4.07797C22.4141 4.07896 22.4141 4.08092 22.4151 4.0819C22.4279 4.1025 22.4583 4.11035 22.4818 4.09956L22.8183 3.9426C22.8419 3.93377 22.8507 3.90728 22.8379 3.88668Z" fill="white"/>
<path opacity="0.79" d="M23.8375 5.30746C23.8277 5.30746 23.8169 5.30451 23.8081 5.29765C23.7865 5.28097 23.7816 5.25056 23.7983 5.228C23.8856 5.11028 23.9651 4.98962 24.0357 4.86798C24.0494 4.84443 24.0798 4.83658 24.1034 4.84934C24.1269 4.86307 24.1348 4.89348 24.122 4.91702C24.0494 5.04161 23.968 5.1662 23.8787 5.28686C23.8679 5.30059 23.8523 5.30746 23.8375 5.30746Z" fill="white"/>
<path opacity="0.79" d="M24.2566 4.58802C24.2497 4.58802 24.2428 4.58704 24.2369 4.58409C24.2114 4.5733 24.2006 4.54387 24.2114 4.51837C24.751 3.27545 24.285 2.22678 24.2801 2.21697C24.2683 2.19244 24.2801 2.16301 24.3046 2.15124C24.3292 2.13947 24.3586 2.15026 24.3704 2.17577C24.3753 2.18656 24.8599 3.27349 24.3017 4.55859C24.2938 4.57723 24.2752 4.58802 24.2566 4.58802Z" fill="white"/>
<path d="M23.8817 16.725C23.4795 15.7676 22.0237 12.8638 19.4486 13.7605C19.4104 13.7732 19.4153 13.8291 19.4545 13.836C20.0225 13.941 22.1267 14.4727 23.814 16.7633C23.8415 16.8005 23.8994 16.7682 23.8817 16.725Z" fill="#91B3FA"/>
<path d="M23.8592 16.7848C23.2804 16.2394 21.5559 14.1283 19.2672 15.0926C19.2417 15.1034 19.2476 15.1407 19.2741 15.1436C19.8401 15.2035 22.6497 15.5596 23.8484 16.8309C23.8798 16.8653 23.8926 16.8172 23.8592 16.7848Z" fill="#91B3FA"/>
<path d="M23.8052 16.5456C23.7503 15.8236 23.4275 13.0984 21.6725 12.5353C21.6598 12.5314 21.649 12.5461 21.6568 12.5569C21.8687 12.8551 23.4069 15.0594 23.7787 16.5495C23.7817 16.5662 23.8062 16.5623 23.8052 16.5456Z" fill="#91B3FA"/>
<path d="M23.9799 17.3725C23.9956 17.3813 24.0103 17.3607 23.9975 17.3489C23.6876 17.0399 22.4034 15.9049 20.774 16.4641C18.9268 17.0968 22.1602 16.3856 23.9799 17.3725Z" fill="#91B3FA"/>
<path d="M23.9366 16.8075C23.9326 16.8615 23.8561 16.8683 23.8443 16.8154C23.6501 15.959 23.2371 13.5977 24.4378 12.9974C25.8593 12.2861 24.1298 14.0078 23.9366 16.8075Z" fill="#91B3FA"/>
<path d="M23.8542 16.8004C24.0563 16.2746 24.8342 14.6423 26.4528 15.5242C26.4803 15.5389 26.4715 15.5811 26.4401 15.583C26.0761 15.6056 24.8646 15.7635 23.9062 16.8318C23.8826 16.8573 23.8414 16.8328 23.8542 16.8004Z" fill="#91B3FA"/>
<path d="M23.8974 16.9332C23.972 16.6085 24.3595 15.9571 26.3293 16.5535C26.3411 16.5575 26.3382 16.5751 26.3254 16.5732C25.9379 16.5329 24.6302 16.4437 23.9887 16.9881C23.9485 17.0244 23.8857 16.9862 23.8974 16.9332Z" fill="#91B3FA"/>
<path d="M24.4644 25.8194L24.4654 25.7527V25.6811L24.4644 25.5379L24.4625 25.2514L24.4546 24.6785C24.4497 24.2969 24.4419 23.9153 24.434 23.5337C24.4164 22.7705 24.3948 22.0083 24.3604 21.247C24.3261 20.4858 24.279 19.7245 24.2054 18.9662C24.1682 18.5876 24.123 18.2089 24.0612 17.8342C24.0014 17.4584 23.9239 17.0857 23.7983 16.7266L23.8327 16.7129C23.9072 16.8895 23.973 17.071 24.022 17.2573L24.0603 17.3966C24.072 17.4427 24.0828 17.4898 24.0936 17.5369L24.127 17.6772L24.1564 17.8175C24.2329 18.1932 24.2918 18.5728 24.3379 18.9525C24.385 19.3321 24.4203 19.7137 24.4517 20.0953C24.4811 20.4769 24.5027 20.8585 24.5213 21.2411C24.538 21.6227 24.5498 22.0053 24.5596 22.3879C24.5655 22.7705 24.5713 23.1521 24.5694 23.5347C24.5694 23.9173 24.5635 24.2989 24.5537 24.6815L24.5331 25.2544L24.5203 25.5408L24.5115 25.684L24.5066 25.7556C24.5046 25.7802 24.5037 25.8018 24.4988 25.8322L24.4644 25.8194Z" fill="#91B3FA"/>
<path d="M25.1308 19.0712C25.3996 18.4297 26.3757 16.4844 28.1003 17.0847C28.1258 17.0936 28.1229 17.1308 28.0964 17.1357C27.7157 17.2064 26.3061 17.5625 25.176 19.0967C25.1583 19.1222 25.1191 19.0997 25.1308 19.0712Z" fill="#91B3FA"/>
<path d="M25.1464 19.1111C25.5339 18.7452 26.6895 17.3316 28.2228 17.9771C28.2395 17.984 28.2366 18.0095 28.2179 18.0114C27.8393 18.0517 25.9567 18.29 25.1533 19.1425C25.1317 19.1651 25.1229 19.1327 25.1464 19.1111Z" fill="#91B3FA"/>
<path d="M25.1827 18.9511C25.2199 18.4675 25.4358 16.6419 26.612 16.2652C26.6208 16.2622 26.6277 16.272 26.6228 16.2799C26.4815 16.48 25.4505 17.9564 25.2013 18.9551C25.1984 18.9649 25.1817 18.9619 25.1827 18.9511Z" fill="#91B3FA"/>
<path d="M25.065 19.5049C25.0542 19.5108 25.0444 19.4971 25.0532 19.4892C25.2612 19.2823 26.1205 18.522 27.2134 18.8967C28.4504 19.3205 26.2844 18.8437 25.065 19.5049Z" fill="#91B3FA"/>
<path d="M25.0934 19.1261C25.0964 19.1624 25.1474 19.1663 25.1552 19.131C25.2857 18.5571 25.5623 16.9758 24.7579 16.5736C23.8054 16.0978 24.9649 17.2505 25.0934 19.1261Z" fill="#91B3FA"/>
<path d="M25.1494 19.1224C25.014 18.7702 24.4931 17.6764 23.4091 18.2679C23.3905 18.2777 23.3964 18.3062 23.4179 18.3072C23.6622 18.3229 24.4735 18.4278 25.115 19.144C25.1298 19.1606 25.1582 19.144 25.1494 19.1224Z" fill="#91B3FA"/>
<path d="M25.12 19.2099C25.07 18.9922 24.811 18.5566 23.4906 18.9559C23.4827 18.9578 23.4847 18.9706 23.4926 18.9696C23.7515 18.9431 24.6285 18.8833 25.0582 19.2482C25.0866 19.2708 25.1279 19.2453 25.12 19.2099Z" fill="#91B3FA"/>
<path d="M24.8657 25.8306C24.8618 25.8061 24.8618 25.7904 24.8598 25.7717L24.8569 25.7178L24.851 25.6109C24.8471 25.5392 24.8441 25.4676 24.8422 25.397L24.8284 24.9683C24.8186 24.6828 24.8186 24.3964 24.8167 24.1109C24.8157 23.8255 24.8157 23.539 24.8206 23.2535C24.8265 22.9681 24.8334 22.6816 24.8461 22.3962C24.8589 22.1107 24.8736 21.8242 24.8942 21.5388C24.9158 21.2533 24.9413 20.9678 24.9766 20.6833L25.004 20.4705L25.0364 20.2576C25.059 20.1163 25.0835 19.9741 25.1139 19.8338C25.1276 19.7632 25.1443 19.6935 25.162 19.6239C25.1708 19.5886 25.1787 19.5542 25.1885 19.5189L25.2189 19.4149C25.2581 19.2766 25.3072 19.1402 25.366 19.0088L25.4004 19.0225C25.3572 19.1579 25.318 19.2933 25.2895 19.4326L25.2669 19.5366C25.2601 19.5709 25.2542 19.6062 25.2483 19.6415L25.2297 19.7465L25.213 19.8515C25.2022 19.9211 25.1914 19.9917 25.1826 20.0624C25.1738 20.133 25.162 20.2027 25.1551 20.2733C25.1384 20.4145 25.1227 20.5558 25.108 20.6971C25.0531 21.2631 25.0139 21.8321 24.9864 22.4011C24.9589 22.97 24.9393 23.54 24.9246 24.1109C24.9167 24.3964 24.9148 24.6819 24.9089 24.9663L24.904 25.3941L24.903 25.6079V25.7148L24.904 25.8169L24.8657 25.8306Z" fill="#91B3FA"/>
<path d="M23.2164 20.2577C22.8721 19.6966 21.6958 18.0201 20.3528 18.8687C20.3332 18.8814 20.342 18.9157 20.3656 18.9157C20.6991 18.9206 21.9509 19.0266 23.183 20.2891C23.2026 20.3097 23.2321 20.2832 23.2164 20.2577Z" fill="#91B3FA"/>
<path d="M23.2114 20.2982C22.818 20.0166 21.5869 18.8708 20.4136 19.7302C20.4009 19.74 20.4077 19.7625 20.4234 19.7616C20.7501 19.737 22.3785 19.6556 23.2104 20.3286C23.233 20.3462 23.234 20.3149 23.2114 20.2982Z" fill="#91B3FA"/>
<path d="M23.1508 20.1526C23.0311 19.7023 22.5151 18.015 21.4567 17.8511C21.4488 17.8502 21.4449 17.86 21.4498 17.8668C21.6058 18.0326 22.7437 19.2569 23.1351 20.1584C23.141 20.1683 23.1538 20.1633 23.1508 20.1526Z" fill="#91B3FA"/>
<path d="M23.3508 20.6562C23.3606 20.6602 23.3665 20.6455 23.3576 20.6396C23.1447 20.4787 22.2815 19.9009 21.4309 20.4326C20.4676 21.0339 22.204 20.2315 23.3508 20.6562Z" fill="#91B3FA"/>
<path d="M23.2575 20.3039C23.2624 20.3383 23.2192 20.351 23.2065 20.3186C22.9916 19.7987 22.4697 18.3518 23.074 17.8407C23.7882 17.2354 23.024 18.5127 23.2575 20.3039Z" fill="#91B3FA"/>
<path d="M23.2106 20.3085C23.2596 19.9544 23.499 18.837 24.5202 19.2177C24.5378 19.2245 24.5378 19.251 24.5202 19.2559C24.3171 19.3099 23.654 19.5424 23.2439 20.3222C23.2341 20.3409 23.2076 20.3301 23.2106 20.3085Z" fill="#91B3FA"/>
<path d="M23.2506 20.3875C23.2526 20.1746 23.3919 19.7205 24.5759 19.8823C24.5828 19.8833 24.5838 19.8951 24.5759 19.8951C24.3522 19.9117 23.6038 19.999 23.3085 20.413C23.2908 20.4395 23.2506 20.4218 23.2506 20.3875Z" fill="#91B3FA"/>
<path d="M24.6517 25.9417L24.6184 25.7651L24.5831 25.5846L24.5095 25.2236L24.3584 24.5036C24.3074 24.2632 24.2535 24.0239 24.1995 23.7855C24.1465 23.5461 24.0916 23.3068 24.0347 23.0684C23.9199 22.5916 23.7953 22.1178 23.66 21.6469L23.608 21.4703L23.554 21.2947C23.5177 21.178 23.4814 21.0613 23.4412 20.9455C23.3598 20.715 23.2764 20.4854 23.1626 20.2696L23.194 20.251C23.2607 20.355 23.3215 20.4639 23.3735 20.5757C23.401 20.6316 23.4275 20.6875 23.45 20.7444C23.4745 20.8013 23.4981 20.8582 23.5197 20.9161C23.6099 21.1456 23.6904 21.3791 23.763 21.6146C23.9072 22.0854 24.0259 22.5632 24.1377 23.0419C24.1926 23.2813 24.2466 23.5216 24.2986 23.7619C24.3476 24.0023 24.3957 24.2436 24.4418 24.4849C24.4879 24.7262 24.533 24.9676 24.5733 25.2099L24.6331 25.5738L24.6615 25.7563L24.6743 25.8475L24.6802 25.8936C24.6821 25.9093 24.6851 25.9231 24.6861 25.9437L24.6517 25.9417Z" fill="#91B3FA"/>
<path d="M23.7984 23.5547H25.367C25.47 23.5547 25.5455 23.7097 25.523 23.8715C25.4229 24.5759 25.3023 25.2901 25.056 26.016C25.0109 26.1504 24.9236 26.2338 24.8294 26.2338H24.3173C24.2241 26.2338 24.1388 26.1514 24.0946 26.0189C23.8975 25.4254 23.7081 24.7181 23.614 23.9147C23.5934 23.7273 23.6816 23.5547 23.7984 23.5547Z" fill="url(#paint22_linear)"/>
</g>
<defs>
<linearGradient id="paint0_linear" x1="31.5889" y1="35.8482" x2="7.67492" y2="6.14851" gradientUnits="userSpaceOnUse">
<stop stop-color="#DAE3FE"/>
<stop offset="1" stop-color="#E9EFFD"/>
</linearGradient>
<linearGradient id="paint1_linear" x1="24.3954" y1="33.292" x2="9.70642" y2="37.4199" gradientUnits="userSpaceOnUse">
<stop stop-color="#CB236D"/>
<stop offset="1" stop-color="#4C246D"/>
</linearGradient>
<linearGradient id="paint2_linear" x1="4.75429" y1="28.2148" x2="15.7341" y2="18.4917" gradientUnits="userSpaceOnUse">
<stop stop-color="#4F52FF"/>
<stop offset="1" stop-color="#4042E2"/>
</linearGradient>
<linearGradient id="paint3_linear" x1="14.6143" y1="20.8788" x2="18.6097" y2="20.8788" gradientUnits="userSpaceOnUse">
<stop stop-color="#FEBBBA"/>
<stop offset="1" stop-color="#FF928E"/>
</linearGradient>
<linearGradient id="paint4_linear" x1="10.3102" y1="16.7744" x2="14.9538" y2="14.0838" gradientUnits="userSpaceOnUse">
<stop stop-color="#FEBBBA"/>
<stop offset="1" stop-color="#FF928E"/>
</linearGradient>
<linearGradient id="paint5_linear" x1="14.3955" y1="11.1793" x2="14.3676" y2="19.0444" gradientUnits="userSpaceOnUse">
<stop stop-color="#FEBBBA"/>
<stop offset="1" stop-color="#FF928E"/>
</linearGradient>
<linearGradient id="paint6_linear" x1="12.3946" y1="14.5481" x2="16.9261" y2="11.1479" gradientUnits="userSpaceOnUse">
<stop stop-color="#09005D"/>
<stop offset="1" stop-color="#1A0F91"/>
</linearGradient>
<linearGradient id="paint7_linear" x1="11.8215" y1="19.3228" x2="12.5218" y2="13.9179" gradientUnits="userSpaceOnUse">
<stop stop-color="#FEBBBA"/>
<stop offset="1" stop-color="#FF928E"/>
</linearGradient>
<linearGradient id="paint8_linear" x1="1.98707" y1="25.0905" x2="12.967" y2="15.3674" gradientUnits="userSpaceOnUse">
<stop stop-color="#4F52FF"/>
<stop offset="1" stop-color="#4042E2"/>
</linearGradient>
<linearGradient id="paint9_linear" x1="7.64449" y1="-4.13406" x2="6.85076" y2="15.1799" gradientUnits="userSpaceOnUse">
<stop stop-color="#09005D"/>
<stop offset="1" stop-color="#1A0F91"/>
</linearGradient>
<linearGradient id="paint10_linear" x1="10.6453" y1="26.9223" x2="10.8272" y2="24.388" gradientUnits="userSpaceOnUse">
<stop stop-color="#FEBBBA"/>
<stop offset="1" stop-color="#FF928E"/>
</linearGradient>
<linearGradient id="paint11_linear" x1="13.5516" y1="35.9853" x2="21.5511" y2="35.9853" gradientUnits="userSpaceOnUse">
<stop stop-color="#9CFFFB"/>
<stop offset="1" stop-color="#9BFFFA"/>
</linearGradient>
<linearGradient id="paint12_linear" x1="14.4753" y1="35.9848" x2="22.4748" y2="35.9848" gradientUnits="userSpaceOnUse">
<stop stop-color="#9CFFFB"/>
<stop offset="1" stop-color="#9BFFFA"/>
</linearGradient>
<linearGradient id="paint13_linear" x1="5.18" y1="42.0385" x2="27.9909" y2="15.0648" gradientUnits="userSpaceOnUse">
<stop stop-color="#09005D"/>
<stop offset="1" stop-color="#1A0F91"/>
</linearGradient>
<linearGradient id="paint14_linear" x1="23.2558" y1="7.12522" x2="27.2995" y2="3.38919" gradientUnits="userSpaceOnUse">
<stop stop-color="#09005D"/>
<stop offset="1" stop-color="#1A0F91"/>
</linearGradient>
<linearGradient id="paint15_linear" x1="20.9441" y1="11.2051" x2="26.6986" y2="-1.95746" gradientUnits="userSpaceOnUse">
<stop stop-color="#4F52FF"/>
<stop offset="1" stop-color="#4042E2"/>
</linearGradient>
<linearGradient id="paint16_linear" x1="20.8688" y1="11.1721" x2="26.6237" y2="-1.99083" gradientUnits="userSpaceOnUse">
<stop stop-color="#4F52FF"/>
<stop offset="1" stop-color="#4042E2"/>
</linearGradient>
<linearGradient id="paint17_linear" x1="20.7528" y1="11.121" x2="26.5073" y2="-2.04162" gradientUnits="userSpaceOnUse">
<stop stop-color="#4F52FF"/>
<stop offset="1" stop-color="#4042E2"/>
</linearGradient>
<linearGradient id="paint18_linear" x1="20.6966" y1="11.0967" x2="26.451" y2="-2.06592" gradientUnits="userSpaceOnUse">
<stop stop-color="#4F52FF"/>
<stop offset="1" stop-color="#4042E2"/>
</linearGradient>
<linearGradient id="paint19_linear" x1="22.1272" y1="2.39962" x2="21.7799" y2="9.49319" gradientUnits="userSpaceOnUse">
<stop stop-color="#FF928E"/>
<stop offset="1" stop-color="#FE7062"/>
</linearGradient>
<linearGradient id="paint20_linear" x1="28.7482" y1="0.439031" x2="20.3648" y2="7.78076" gradientUnits="userSpaceOnUse">
<stop stop-color="#E1473D"/>
<stop offset="1" stop-color="#E9605A"/>
</linearGradient>
<linearGradient id="paint21_linear" x1="28.2753" y1="-0.101698" x2="19.892" y2="7.2401" gradientUnits="userSpaceOnUse">
<stop stop-color="#E1473D"/>
<stop offset="1" stop-color="#E9605A"/>
</linearGradient>
<linearGradient id="paint22_linear" x1="25.3989" y1="28.2726" x2="24.8166" y2="25.2023" gradientUnits="userSpaceOnUse">
<stop stop-color="#4F52FF"/>
<stop offset="1" stop-color="#4042E2"/>
</linearGradient>
</defs>
</svg>
