<svg width="130" height="115" viewBox="0 0 130 115" fill="none" xmlns="http://www.w3.org/2000/svg">
<mask id="mask0" mask-type="alpha" maskUnits="userSpaceOnUse" x="0" y="0" width="130" height="115">
<rect width="129.839" height="115" fill="#C4C4C4"/>
</mask>
<g mask="url(#mask0)">
<path d="M102.72 99.1305C100.463 101.504 98.3279 103.039 96.6438 104.247C76.8208 118.47 53.3596 114.324 48.3756 113.313C41.0145 111.818 26.7839 108.929 16.4937 96.8299C0.929416 78.5259 3.35088 49.6859 15.426 30.6486C17.6339 27.1675 29.3021 7.84006 53.0131 4.74171C67.3646 2.86417 84.0892 6.64746 96.2046 16.7967C121.628 38.0983 119.815 81.1327 102.72 99.1305Z" fill="url(#paint0_linear)"/>
<g opacity="0.3">
<path opacity="0.3" d="M39.5591 27.5218C39.7888 27.4534 40.0386 27.5662 40.1312 27.7918C40.3407 28.2874 40.5261 28.795 40.6953 29.3108C40.7759 29.5606 40.6389 29.8265 40.3891 29.9071C40.3851 29.9071 40.3851 29.9071 40.381 29.9111C40.1353 29.9876 39.8734 29.8506 39.7928 29.6008C39.6356 29.1133 39.4543 28.6298 39.2569 28.1584C39.1562 27.9167 39.269 27.6387 39.5107 27.538C39.5269 27.5339 39.543 27.5259 39.5591 27.5218ZM40.7235 31.4905C40.7396 31.4864 40.7598 31.4824 40.7799 31.4784C41.0378 31.4341 41.2835 31.6033 41.3319 31.8612C41.4246 32.393 41.4971 32.9289 41.5454 33.4647C41.5696 33.7266 41.3762 33.9563 41.1143 33.9804C40.8524 34.0046 40.6228 33.8112 40.5986 33.5493C40.5543 33.0417 40.4858 32.53 40.3931 32.0263C40.3528 31.7886 40.4979 31.559 40.7235 31.4905ZM40.9894 35.6122C41.0418 35.5961 41.0942 35.588 41.1506 35.5921C41.4125 35.6042 41.6139 35.8258 41.6018 36.0876C41.5777 36.6235 41.5253 37.1674 41.4528 37.6993C41.4165 37.9571 41.1788 38.1425 40.9169 38.1062C40.659 38.0699 40.4737 37.8322 40.51 37.5703C40.5784 37.0627 40.6268 36.551 40.651 36.0393C40.6631 35.8378 40.8 35.6686 40.9894 35.6122ZM40.3246 39.6937C40.4092 39.6695 40.4979 39.6655 40.5905 39.6896C40.8444 39.7622 40.9894 40.024 40.9169 40.2738C40.7718 40.7896 40.6026 41.3093 40.4133 41.8129C40.3206 42.0587 40.0466 42.1836 39.8008 42.091C39.5551 41.9983 39.4302 41.7243 39.5228 41.4785C39.7041 40.9991 39.8653 40.5116 40.0023 40.016C40.0506 39.8588 40.1715 39.738 40.3246 39.6937ZM38.7654 43.5253C38.8822 43.489 39.0152 43.5011 39.128 43.5616C39.3576 43.6865 39.4423 43.9766 39.3174 44.2062C39.0595 44.6776 38.7815 45.145 38.4833 45.5922C38.3383 45.8098 38.0442 45.8702 37.8266 45.7292C37.609 45.5842 37.5486 45.29 37.6896 45.0725C37.9716 44.6454 38.2376 44.2022 38.4793 43.755C38.5478 43.6381 38.6485 43.5575 38.7654 43.5253ZM36.3963 46.9137C36.5494 46.8694 36.7186 46.8976 36.8475 47.0104C37.045 47.1837 37.0651 47.4818 36.8919 47.6793C36.5373 48.0822 36.1626 48.477 35.7718 48.8477C35.5824 49.029 35.2802 49.0209 35.0989 48.8356C34.9176 48.6462 34.9257 48.3481 35.111 48.1628C35.4777 47.8082 35.8362 47.4375 36.1747 47.0507C36.2391 46.9863 36.3157 46.9379 36.3963 46.9137ZM20.0786 53.0218C20.143 53.0017 20.2075 52.9976 20.28 53.0057C20.7837 53.0742 21.2994 53.1185 21.8111 53.1427C22.073 53.1548 22.2744 53.3764 22.2623 53.6383C22.2502 53.9001 22.0286 54.1016 21.7667 54.0895C21.2309 54.0653 20.687 54.017 20.1551 53.9445C19.8973 53.9082 19.7119 53.6705 19.7482 53.4126C19.7724 53.2233 19.9053 53.0742 20.0786 53.0218ZM33.3422 49.6938C33.5316 49.6374 33.7411 49.7019 33.866 49.8711C34.0191 50.0846 33.9708 50.3787 33.7572 50.5318C33.3221 50.8461 32.8668 51.1443 32.4075 51.4223C32.1819 51.5552 31.8918 51.4827 31.7548 51.2571C31.6218 51.0315 31.6944 50.7414 31.92 50.6044C32.3592 50.3425 32.7903 50.0564 33.2012 49.7583C33.2456 49.7301 33.2939 49.7059 33.3422 49.6938ZM24.2124 53.1064C24.2406 53.0984 24.2728 53.0903 24.3051 53.0863C24.8127 53.0379 25.3244 52.9694 25.828 52.8808C26.0859 52.8365 26.3317 53.0057 26.38 53.2635C26.4243 53.5214 26.2551 53.7712 25.9973 53.8155C25.4695 53.9122 24.9296 53.9848 24.3937 54.0331C24.1318 54.0573 23.9022 53.8639 23.878 53.606C23.8538 53.3764 23.9988 53.1709 24.2124 53.1064ZM29.7403 51.7204C29.9699 51.6519 30.2197 51.7647 30.3124 51.9904C30.4131 52.2321 30.3003 52.5101 30.0586 52.6108C29.563 52.8204 29.0553 53.0097 28.5436 53.1749C28.5396 53.1749 28.5356 53.1789 28.5356 53.1789C28.2898 53.2515 28.0279 53.1185 27.9473 52.8727C27.8667 52.6229 28.0037 52.357 28.2535 52.2764C28.7411 52.1193 29.2245 51.938 29.6919 51.7406C29.708 51.7285 29.7241 51.7244 29.7403 51.7204Z" fill="#7D97F4"/>
<path opacity="0.3" d="M16.8315 52.2843C16.9201 52.2561 17.0209 52.2561 17.1135 52.2884C17.3472 52.3649 17.5849 52.4374 17.8227 52.5019C18.0765 52.5744 18.2215 52.8363 18.153 53.0861C18.0805 53.34 17.8186 53.485 17.5688 53.4165C17.319 53.348 17.0692 53.2715 16.8234 53.1909C16.5736 53.1103 16.4367 52.8404 16.5172 52.5946C16.5656 52.4375 16.6865 52.3287 16.8315 52.2843Z" fill="#7D97F4"/>
</g>
<g opacity="0.3">
<path opacity="0.3" d="M5.90847 42.7918C6.12603 42.7273 6.36778 42.828 6.47253 43.0375C6.58132 43.2592 6.69413 43.4808 6.81098 43.6943C6.93588 43.924 6.84724 44.2141 6.61758 44.339C6.38389 44.4639 6.09783 44.3752 5.97293 44.1456C5.85206 43.9159 5.73119 43.6822 5.61837 43.4525C5.50556 43.2148 5.60226 42.9328 5.83594 42.82C5.86415 42.8079 5.88429 42.7998 5.90847 42.7918Z" fill="#7D97F4"/>
<path opacity="0.3" d="M17.1661 17.0181C17.3756 16.9536 17.5852 16.8932 17.7987 16.8368C18.0525 16.7683 18.3104 16.9214 18.3789 17.1752C18.4474 17.4291 18.2943 17.691 18.0404 17.7554C17.5489 17.8844 17.0654 18.0375 16.594 18.2027C16.3482 18.2913 16.0743 18.1624 15.9896 17.9166C15.901 17.6708 16.0299 17.3968 16.2757 17.3082C16.5698 17.2075 16.868 17.1067 17.1661 17.0181ZM20.2604 16.3614C20.2846 16.3533 20.3128 16.3493 20.341 16.3453C20.8648 16.2808 21.4007 16.2365 21.9285 16.2163C22.1904 16.2042 22.412 16.4097 22.42 16.6716C22.4321 16.9335 22.2266 17.1551 21.9647 17.1632C21.4651 17.1833 20.9575 17.2236 20.4579 17.2881C20.196 17.3203 19.9623 17.135 19.9301 16.8771C19.8978 16.6434 20.0429 16.4258 20.2604 16.3614ZM13.9912 18.3074C14.2048 18.2429 14.4425 18.3356 14.5472 18.5411C14.6681 18.7748 14.5795 19.0608 14.3458 19.1817C13.9026 19.4114 13.4594 19.6652 13.0363 19.9352C12.8147 20.0762 12.5206 20.0077 12.3796 19.7861C12.2386 19.5645 12.3071 19.2704 12.5287 19.1293C12.9759 18.8473 13.4392 18.5774 13.9106 18.3356C13.9348 18.3276 13.963 18.3155 13.9912 18.3074ZM24.3258 16.305C24.3822 16.2888 24.4466 16.2808 24.5071 16.2889C25.0349 16.3412 25.5627 16.4138 26.0824 16.5104C26.3403 16.5588 26.5095 16.8046 26.4612 17.0624C26.4128 17.3203 26.1671 17.4895 25.9092 17.4452C25.4136 17.3525 24.91 17.284 24.4104 17.2357C24.1485 17.2115 23.9591 16.9778 23.9833 16.7159C24.0115 16.5185 24.1485 16.3614 24.3258 16.305ZM10.6149 20.5717C10.7922 20.5194 10.9896 20.5717 11.1145 20.7208C11.2837 20.9223 11.2595 21.2204 11.0581 21.3896C10.6753 21.712 10.3006 22.0585 9.94605 22.413C9.76072 22.5984 9.45854 22.5984 9.2732 22.413C9.08786 22.2277 9.08786 21.9255 9.2732 21.7402C9.6479 21.3655 10.0427 21.0029 10.4457 20.6644C10.494 20.6201 10.5544 20.5919 10.6149 20.5717ZM7.81468 23.521C7.9557 23.4767 8.11283 23.5009 8.23773 23.5976C8.44724 23.7547 8.48753 24.0529 8.3304 24.2624C8.02822 24.6612 7.73813 25.0803 7.46818 25.5033C7.32716 25.7249 7.03304 25.7894 6.81144 25.6484C6.58984 25.5073 6.52538 25.2132 6.6664 24.9916C6.94843 24.5444 7.25464 24.1052 7.57696 23.6862C7.6374 23.6056 7.72201 23.5492 7.81468 23.521ZM5.7236 27.0102C5.83238 26.9779 5.94922 26.982 6.05801 27.0344C6.29572 27.1431 6.40048 27.4252 6.29169 27.6629C6.08218 28.1222 5.88879 28.5896 5.71957 29.065C5.63093 29.3108 5.36098 29.4397 5.11118 29.3511C4.86541 29.2624 4.73648 28.9885 4.82512 28.7427C5.00239 28.2471 5.20788 27.7515 5.42545 27.268C5.48991 27.1391 5.5987 27.0505 5.7236 27.0102ZM4.44638 30.8741C4.51891 30.8499 4.59949 30.8458 4.68007 30.866C4.93793 30.9224 5.09909 31.1722 5.04671 31.4301C4.94196 31.9216 4.85735 32.4252 4.79691 32.9208C4.76468 33.1827 4.52697 33.364 4.26911 33.3318C4.00722 33.2995 3.82591 33.0618 3.85814 32.7999C3.92261 32.2762 4.01125 31.7484 4.12406 31.2286C4.15629 31.0554 4.28522 30.9224 4.44638 30.8741ZM4.04751 34.9233C4.0878 34.9112 4.13212 34.9031 4.18047 34.9031C4.44236 34.8991 4.6559 35.1086 4.65992 35.3705C4.66798 35.8701 4.69619 36.3777 4.74453 36.8814C4.76871 37.1433 4.57934 37.3729 4.31745 37.4011C4.05557 37.4253 3.82591 37.2359 3.79771 36.974C3.74533 36.4462 3.71712 35.9144 3.70907 35.3866C3.70504 35.169 3.85008 34.9837 4.04751 34.9233ZM4.54711 38.9604C4.55517 38.9563 4.56726 38.9563 4.57531 38.9523C4.82915 38.8919 5.08701 39.049 5.14744 39.3028C5.23205 39.6614 5.32875 40.024 5.43753 40.3786C5.47782 40.5075 5.51811 40.6324 5.55841 40.7614C5.63899 41.0112 5.502 41.2771 5.25623 41.3577C5.00642 41.4463 4.74051 41.3013 4.65992 41.0555C4.6156 40.9225 4.57531 40.7896 4.53502 40.6526C4.42221 40.2819 4.32148 39.8991 4.22882 39.5204C4.16435 39.2787 4.3094 39.0329 4.54711 38.9604Z" fill="#7D97F4"/>
<path opacity="0.3" d="M28.3182 17.151C28.4069 17.1228 28.5076 17.1228 28.6043 17.1551C28.8501 17.2357 29.0958 17.3243 29.3376 17.4129C29.5834 17.5056 29.7083 17.7796 29.6156 18.0253C29.5229 18.2711 29.2489 18.396 29.0032 18.3034C28.7735 18.2147 28.5398 18.1341 28.3061 18.0576C28.0563 17.977 27.9234 17.7071 28.004 17.4573C28.0563 17.3041 28.1772 17.1954 28.3182 17.151Z" fill="#7D97F4"/>
</g>
<path d="M29.2975 22.6063C29.2209 22.5539 29.1162 22.558 29.0396 22.6144L26.8841 24.2381C25.7036 23.7909 24.4465 23.529 23.1491 23.4806L21.7994 21.1438C21.7511 21.0632 21.6584 21.0189 21.5657 21.039L18.3868 21.6595C18.2941 21.6756 18.2216 21.7522 18.2095 21.8448L17.8348 24.5161C16.6503 25.0479 15.5826 25.7651 14.6599 26.6193L12.0531 25.9222C11.9604 25.8981 11.8637 25.9343 11.8114 26.0109L10.0023 28.6942C9.94994 28.7708 9.95397 28.8755 10.0104 28.9521L11.6341 31.1077C11.1869 32.2841 10.925 33.5452 10.8766 34.8426L8.53977 36.1923C8.45919 36.2407 8.41487 36.3333 8.43501 36.426L9.05549 39.6049C9.0716 39.6976 9.14815 39.7701 9.24082 39.7822L11.9121 40.1569C12.4439 41.3415 13.1611 42.4092 14.0153 43.3318L13.3182 45.9386C13.2941 46.0313 13.3303 46.128 13.4069 46.1804L16.0902 47.9894C16.1668 48.0418 16.2715 48.0378 16.3481 47.9814L18.5036 46.3577C19.6801 46.8049 20.9412 47.0668 22.2386 47.1151L23.5883 49.452C23.6367 49.5326 23.7293 49.5769 23.822 49.5567L27.0009 48.9363C27.0936 48.9201 27.1661 48.8436 27.1782 48.7509L27.5529 46.0797C28.7374 45.5478 29.8051 44.8306 30.7278 43.9765L33.3346 44.6735C33.4273 44.6977 33.524 44.6614 33.5764 44.5849L35.3854 41.9015C35.4378 41.825 35.4337 41.7202 35.3773 41.6437L33.7536 39.4881C34.2009 38.3116 34.4627 37.0505 34.5111 35.7532L36.8479 34.4034C36.9285 34.3551 36.9728 34.2624 36.9527 34.1697L36.3322 30.9908C36.3161 30.8981 36.2396 30.8256 36.1469 30.8135L33.4756 30.4388C32.9438 29.2543 32.2266 28.1866 31.3725 27.2639L32.0695 24.6571C32.0937 24.5644 32.0574 24.4677 31.9808 24.4154L29.2975 22.6063Z" fill="#91B3FA"/>
<path d="M21.7551 32.1831C23.274 31.7238 24.9461 32.4369 25.6391 33.9156C26.4046 35.5393 25.7036 37.4813 24.0799 38.2468C23.2942 38.6175 22.4078 38.6578 21.5899 38.3637C20.772 38.0695 20.1193 37.4732 19.7486 36.6876C18.9831 35.0639 19.6841 33.1219 21.3079 32.3563C21.4569 32.2838 21.606 32.2274 21.7551 32.1831ZM23.411 37.6908C23.5279 37.6546 23.6447 37.6102 23.7575 37.5579C25.0025 36.9736 25.5384 35.4829 24.9542 34.2379C24.3699 32.9929 22.8792 32.4571 21.6342 33.0413C20.3892 33.6255 19.8534 35.1163 20.4376 36.3612C20.7196 36.9656 21.2232 37.4209 21.8518 37.6465C22.3594 37.8318 22.9034 37.8439 23.411 37.6908Z" fill="#BDD0FB"/>
<path d="M20.3332 27.7029C20.5951 27.6224 20.861 27.5579 21.131 27.5055C21.2156 27.4894 21.3002 27.4733 21.3888 27.4612C21.8119 27.3927 22.2389 27.3564 22.666 27.3564C22.6701 27.3564 22.6781 27.3564 22.6821 27.3564C22.6983 27.3564 22.7144 27.3564 22.7305 27.3564C22.7627 27.3564 22.795 27.3564 22.8272 27.3564C22.9118 27.3564 22.9803 27.4129 23.0045 27.4894C23.0085 27.5096 23.0125 27.5297 23.0125 27.5498C23.0085 27.6546 22.9239 27.7392 22.8191 27.7352C22.2792 27.7231 21.7353 27.7714 21.2035 27.8762C18.5523 28.3919 16.4895 30.2332 15.5668 32.5781C15.0551 33.8835 14.894 35.342 15.18 36.8167C15.2284 37.0745 15.2928 37.3284 15.3694 37.5782C15.877 39.2543 16.9327 40.6886 18.4033 41.6797C20.0915 42.8159 22.1221 43.2309 24.1205 42.8401C28.2463 42.0383 30.9498 38.0294 30.144 33.9037C30.0956 33.6498 30.0312 33.4 29.9586 33.1502C29.6363 32.0825 29.0843 31.0954 28.3349 30.2654C28.3148 30.2453 28.3027 30.2211 28.2946 30.1929C28.2745 30.1244 28.2946 30.0479 28.351 29.9955C28.4276 29.927 28.5485 29.931 28.621 30.0116C29.4067 30.8819 29.9868 31.9173 30.3253 33.0374C30.4018 33.2953 30.4703 33.5612 30.5227 33.8271C31.3648 38.1583 28.5283 42.3687 24.1971 43.2108C22.0979 43.6177 19.9666 43.1866 18.1938 41.99C16.6506 40.9505 15.5386 39.4396 15.0108 37.6829C14.9302 37.421 14.8658 37.1551 14.8134 36.8852C14.4064 34.786 14.8375 32.6547 16.0302 30.8819C17.0656 29.3428 18.5765 28.2348 20.3332 27.7029Z" fill="#BDD0FB"/>
<g opacity="0.3">
<path opacity="0.3" d="M51.4458 10.8698C51.5667 10.8335 51.7037 10.8779 51.7762 10.9907C51.9132 11.2002 52.0421 11.4137 52.167 11.6313C52.2476 11.7723 52.1992 11.9496 52.0582 12.0302C51.9172 12.1107 51.7399 12.0624 51.6593 11.9214C51.5425 11.7159 51.4176 11.5104 51.2846 11.313C51.196 11.176 51.2323 10.9947 51.3693 10.9061C51.3934 10.8899 51.4176 10.8779 51.4458 10.8698Z" fill="#7D97F4"/>
<path opacity="0.3" d="M52.5014 12.8601C52.6424 12.8158 52.7996 12.8883 52.856 13.0293C53.0212 13.4242 53.1662 13.8352 53.2911 14.2421C53.3153 14.3267 53.3435 14.4153 53.3677 14.504C53.412 14.6611 53.3112 14.8183 53.1662 14.8666C53.0091 14.9109 52.8479 14.8183 52.8036 14.6651C52.7794 14.5805 52.7552 14.5 52.7311 14.4153C52.6142 14.0245 52.4732 13.6337 52.3161 13.259C52.2556 13.1099 52.3241 12.9367 52.4732 12.8762C52.4813 12.8682 52.4893 12.8642 52.5014 12.8601ZM53.3193 15.7933C53.3314 15.7893 53.3475 15.7852 53.3596 15.7852C53.5208 15.7611 53.6698 15.8698 53.694 16.031C53.7706 16.5427 53.8189 17.0665 53.831 17.5862C53.835 17.7474 53.7061 17.8844 53.5449 17.8884C53.3838 17.8924 53.2468 17.7635 53.2428 17.6023C53.2307 17.1068 53.1863 16.6112 53.1098 16.1196C53.0937 15.9706 53.1823 15.8336 53.3193 15.7933ZM53.3999 18.8352C53.4361 18.8231 53.4724 18.8191 53.5127 18.8231C53.6739 18.8393 53.7907 18.9843 53.7746 19.1414C53.7222 19.6572 53.6416 20.1769 53.5288 20.6846C53.4926 20.8417 53.3354 20.9424 53.1783 20.9062C53.0212 20.8699 52.9204 20.7128 52.9567 20.5556C53.0655 20.0721 53.1461 19.5766 53.1944 19.085C53.2065 18.9642 53.2911 18.8675 53.3999 18.8352ZM52.7351 21.8046C52.7915 21.7885 52.856 21.7885 52.9204 21.8087C53.0735 21.8651 53.1501 22.0303 53.0977 22.1834C52.9204 22.6709 52.7149 23.1544 52.4813 23.6177C52.4087 23.7628 52.2315 23.8192 52.0864 23.7467C51.9414 23.6741 51.885 23.4968 51.9575 23.3518C52.1791 22.9126 52.3765 22.4493 52.5457 21.986C52.5739 21.8933 52.6465 21.8288 52.7351 21.8046ZM51.3612 24.5202C51.4418 24.4961 51.5344 24.5081 51.611 24.5565C51.7439 24.6451 51.7802 24.8305 51.6916 24.9634C51.4015 25.3945 51.0832 25.8095 50.7447 26.2044C50.64 26.3252 50.4546 26.3414 50.3297 26.2326C50.2089 26.1278 50.1928 25.9425 50.3015 25.8176C50.6239 25.4429 50.9301 25.044 51.2041 24.633C51.2403 24.5807 51.3007 24.5404 51.3612 24.5202ZM49.3708 26.8208C49.4756 26.7886 49.5965 26.8168 49.673 26.9054C49.7818 27.0263 49.7737 27.2116 49.6529 27.3204C49.2661 27.6669 48.8591 27.9933 48.4321 28.2914C48.2991 28.3841 48.1178 28.3519 48.0251 28.2189C47.9325 28.0859 47.9647 27.9046 48.0977 27.812C48.5006 27.5299 48.8954 27.2157 49.2621 26.8853C49.2943 26.8531 49.3305 26.8329 49.3708 26.8208ZM46.8809 28.5654C47.0138 28.5251 47.1589 28.5815 47.2234 28.7105C47.2999 28.8555 47.2435 29.0328 47.1025 29.1053C46.6472 29.347 46.1677 29.5646 45.6802 29.75C45.5271 29.8064 45.3579 29.7298 45.3015 29.5807C45.2451 29.4276 45.3216 29.2584 45.4707 29.202C45.9341 29.0247 46.3893 28.8192 46.8285 28.5896C46.8446 28.5775 46.8607 28.5694 46.8809 28.5654ZM42.5335 29.9151C42.5497 29.9111 42.5658 29.9071 42.5859 29.9031C43.009 29.8547 43.4401 29.7782 43.8631 29.6815C43.9276 29.6653 43.988 29.6533 44.0525 29.6371C44.2096 29.5968 44.3668 29.6935 44.407 29.8507C44.4473 30.0078 44.3506 30.173 44.1935 30.2052C44.125 30.2214 44.0605 30.2375 43.9921 30.2536C43.5529 30.3543 43.1016 30.4309 42.6544 30.4832C42.4932 30.5034 42.3482 30.3865 42.3281 30.2254C42.3119 30.0884 42.4006 29.9554 42.5335 29.9151Z" fill="#7D97F4"/>
</g>
<g opacity="0.3">
<path opacity="0.3" d="M37.3518 5.84959C37.5049 5.80527 37.666 5.88988 37.7144 6.04299C37.7627 6.19609 37.6781 6.36128 37.525 6.40963C37.0617 6.55468 36.6024 6.73196 36.1592 6.93341C36.0141 6.99788 35.8368 6.93744 35.7724 6.78836C35.7039 6.63929 35.7724 6.46604 35.9174 6.40157C36.3767 6.18803 36.8602 6.0027 37.3518 5.84959C37.3477 5.84959 37.3477 5.84959 37.3518 5.84959ZM38.8062 5.48295C38.8183 5.47892 38.8264 5.47892 38.8385 5.47489C39.3381 5.38222 39.8538 5.31373 40.3615 5.2815C40.5226 5.26941 40.6636 5.39431 40.6717 5.55547C40.6838 5.71663 40.5589 5.85765 40.3977 5.86571C39.9102 5.89794 39.4227 5.95838 38.9432 6.05105C38.7861 6.07925 38.629 5.97449 38.6008 5.81736C38.5726 5.66829 38.6652 5.52324 38.8062 5.48295ZM34.6281 7.09054C34.753 7.05428 34.89 7.10263 34.9625 7.21947C35.0471 7.35646 35.0028 7.53777 34.8658 7.62238C34.4508 7.87621 34.0479 8.15825 33.6652 8.46042C33.5362 8.56115 33.3549 8.54101 33.2542 8.41208C33.1535 8.28717 33.1736 8.10184 33.3025 8.00111C33.7014 7.68282 34.1245 7.38869 34.5596 7.12278C34.5798 7.10666 34.6039 7.09457 34.6281 7.09054ZM41.7918 5.28552C41.824 5.27747 41.8562 5.27344 41.8925 5.27344C42.4042 5.30164 42.9159 5.36208 43.4195 5.45475C43.5807 5.48295 43.6854 5.63605 43.6572 5.79722C43.629 5.95435 43.4759 6.06313 43.3148 6.03493C42.8353 5.95032 42.3478 5.88988 41.8603 5.86168C41.6991 5.85362 41.5742 5.71261 41.5823 5.55144C41.5903 5.42251 41.679 5.32179 41.7918 5.28552ZM32.2832 8.95197C32.3839 8.92377 32.4967 8.94391 32.5733 9.02449C32.6901 9.13731 32.6901 9.32264 32.5773 9.43949C32.2348 9.78599 31.9125 10.1567 31.6144 10.5434C31.5136 10.6724 31.3323 10.6966 31.2034 10.5958C31.0745 10.4951 31.0503 10.3138 31.151 10.1849C31.4613 9.78196 31.7997 9.39114 32.1583 9.02852C32.1986 8.98823 32.2389 8.96406 32.2832 8.95197ZM30.458 11.3211C30.5346 11.2969 30.6192 11.3049 30.6917 11.3493C30.8327 11.4339 30.8771 11.6112 30.7924 11.7522C30.5426 12.1712 30.317 12.6104 30.1236 13.0536C30.0592 13.2026 29.8859 13.2671 29.7368 13.2026C29.5878 13.1382 29.5233 12.9649 29.5878 12.8158C29.7932 12.3485 30.031 11.8892 30.2888 11.45C30.3291 11.3855 30.3895 11.3412 30.458 11.3211ZM29.2493 14.0608C29.3017 14.0447 29.3621 14.0447 29.4185 14.0608C29.5716 14.1092 29.6603 14.2703 29.616 14.4275C29.4749 14.8948 29.3621 15.3743 29.2775 15.8538C29.2493 16.0109 29.0962 16.1197 28.9391 16.0915C28.7779 16.0633 28.6732 15.9102 28.7014 15.753C28.79 15.2494 28.9068 14.7498 29.0559 14.2582C29.0841 14.1575 29.1607 14.089 29.2493 14.0608Z" fill="#7D97F4"/>
<path opacity="0.3" d="M44.7526 5.82166C44.805 5.80554 44.8655 5.80554 44.9259 5.82166C45.1636 5.89418 45.4054 5.97879 45.635 6.0634C45.7881 6.11981 45.8647 6.28903 45.8043 6.44213C45.7478 6.59121 45.5786 6.67179 45.4255 6.61135C45.2039 6.52674 44.9783 6.45019 44.7486 6.37767C44.5955 6.32932 44.5069 6.16413 44.5552 6.01102C44.5875 5.91835 44.66 5.84986 44.7526 5.82166Z" fill="#7D97F4"/>
</g>
<path d="M45.6154 9.51626C45.5631 9.48 45.4946 9.48403 45.4422 9.52029L43.9998 10.6081C43.2101 10.31 42.368 10.1327 41.5018 10.1005L40.5993 8.5372C40.567 8.48079 40.5066 8.45259 40.4421 8.46468L38.3148 8.87967C38.2543 8.89176 38.206 8.94011 38.1979 9.00457L37.9481 10.7935C37.1544 11.148 36.4413 11.6275 35.8248 12.2036L34.0802 11.7363C34.0198 11.7202 33.9553 11.7443 33.9191 11.7967L32.7023 13.5937C32.666 13.646 32.6701 13.7145 32.7063 13.7669L33.7942 15.2093C33.496 15.999 33.3187 16.8411 33.2865 17.7073L31.7232 18.6098C31.6668 18.6421 31.6386 18.7025 31.6507 18.767L32.0657 20.8943C32.0778 20.9548 32.1261 21.0031 32.1906 21.0112L33.9795 21.261C34.3341 22.0547 34.8135 22.7678 35.3897 23.3843L34.9223 25.1289C34.9062 25.1893 34.9304 25.2538 34.9827 25.29L36.7797 26.5028C36.8321 26.539 36.9006 26.535 36.953 26.4987L38.3954 25.4109C39.1851 25.709 40.0271 25.8863 40.8934 25.9186L41.7959 27.4818C41.8281 27.5382 41.8886 27.5664 41.953 27.5543L44.0804 27.1394C44.1408 27.1273 44.1892 27.0789 44.1972 27.0145L44.447 25.2256C45.2407 24.871 45.9539 24.3915 46.5703 23.8154L48.3149 24.2828C48.3753 24.2989 48.4398 24.2747 48.4761 24.2223L49.6888 22.4254C49.7251 22.373 49.7211 22.3045 49.6848 22.2521L48.5969 20.8097C48.8951 20.02 49.0724 19.1779 49.1046 18.3117L50.6679 17.4092C50.7243 17.377 50.7525 17.3125 50.7404 17.252L50.3254 15.1247C50.3133 15.0643 50.265 15.0159 50.2005 15.0079L48.4116 14.7581C48.0571 13.9643 47.5776 13.2512 47.0014 12.6348L47.4688 10.8902C47.4849 10.8297 47.4607 10.7653 47.4084 10.729L45.6154 9.51626Z" fill="#91B3FA"/>
<path d="M40.5594 15.8864C41.0107 15.7494 41.4941 15.7615 41.9494 15.9227C42.5054 16.1241 42.9527 16.5311 43.2025 17.0669C43.7222 18.1709 43.2468 19.4964 42.1388 20.0162C41.0308 20.5359 39.7093 20.0605 39.1895 18.9525C38.9357 18.4166 38.9075 17.8163 39.109 17.2563C39.3104 16.7003 39.7133 16.253 40.2532 16.0032C40.3539 15.9589 40.4546 15.9186 40.5594 15.8864ZM41.6674 19.573C41.7439 19.5488 41.8165 19.5206 41.889 19.4884C42.7029 19.1056 43.0534 18.1306 42.6706 17.3167C42.4853 16.9219 42.1589 16.6237 41.748 16.4746C41.337 16.3256 40.8938 16.3497 40.503 16.5351C40.1082 16.7204 39.81 17.0468 39.6609 17.4577C39.5119 17.8687 39.536 18.3119 39.7214 18.7067C40.0679 19.4441 40.9059 19.8026 41.6674 19.573Z" fill="#BDD0FB"/>
<path d="M39.5717 12.7678C39.749 12.7155 39.9303 12.6711 40.1156 12.6308C40.4863 12.5583 40.861 12.5261 41.2357 12.5301C41.2518 12.5301 41.2679 12.5301 41.2881 12.5301C41.417 12.5341 41.5258 12.6188 41.5621 12.7396C41.5701 12.7678 41.5741 12.8001 41.5741 12.8323C41.5701 12.9935 41.4372 13.1224 41.276 13.1184C40.9255 13.1103 40.5749 13.1425 40.2284 13.211C40.2083 13.2151 40.1922 13.2191 40.172 13.2231C39.3582 13.3883 38.6168 13.755 37.9964 14.2747C37.6619 14.5567 37.3598 14.8871 37.1059 15.2618C37.1019 15.2659 37.1019 15.2659 37.0979 15.2699C37.0898 15.2779 37.0858 15.29 37.0777 15.2981C36.3404 16.39 36.0745 17.7075 36.3243 19.0008C36.3565 19.17 36.3968 19.3312 36.4452 19.4923C36.7715 20.5762 37.4565 21.5069 38.4073 22.1475C39.4992 22.8848 40.8167 23.1507 42.11 22.8969C43.4033 22.6431 44.5234 21.9057 45.2607 20.8098C45.998 19.718 46.264 18.4005 46.0142 17.1071C45.9819 16.9419 45.9416 16.7808 45.8933 16.6196C45.6838 15.9266 45.3252 15.29 44.8417 14.7542C44.8135 14.7219 44.7893 14.6816 44.7772 14.6413C44.745 14.5366 44.7732 14.4157 44.8619 14.3392C44.9827 14.2304 45.1681 14.2425 45.2768 14.3593C45.8167 14.9596 46.2196 15.6728 46.4533 16.4464C46.5057 16.6236 46.5541 16.805 46.5903 16.9903C46.8723 18.4367 46.5742 19.9073 45.7482 21.1322C44.9223 22.353 43.6733 23.183 42.2269 23.465C40.7804 23.747 39.3098 23.4489 38.085 22.6229C37.0213 21.9057 36.2558 20.8662 35.8892 19.6535C35.8368 19.4722 35.7884 19.2909 35.7522 19.1015C35.2083 16.3054 36.8964 13.5777 39.5717 12.7678Z" fill="#BDD0FB"/>
<path d="M105.483 168.479C96.8411 159.007 75.5637 138.378 52.1951 129.816C50.2491 129.103 48.6697 127.649 47.7712 125.783L44.274 118.495C44.274 118.495 27.2351 114.502 16.7354 125.493C16.7354 125.493 17.376 135.949 30.5631 139.772C42.8719 143.342 79.347 157.83 100.862 174.064C101.354 174.434 102.039 174.454 102.53 174.076C104.243 172.75 105.31 171.094 105.77 169.926C105.963 169.43 105.842 168.87 105.483 168.479Z" fill="url(#paint1_linear)"/>
<path d="M14.8859 125.352C14.8859 125.352 18.363 126.875 24.322 124.119C30.281 121.363 46.4858 121.089 46.4858 121.089C46.4858 121.089 41.236 101.443 52.9001 87.386C52.9001 87.386 62.2959 104.973 68.8995 107.596L71.8568 107.733V95.1862C71.8568 95.1862 69.3467 79.6985 53.4843 68.1311L48.5447 63.679C48.5447 63.679 31.1754 60.1777 19.3622 80.8952C7.55302 101.621 14.8859 125.352 14.8859 125.352Z" fill="url(#paint2_linear)"/>
<path d="M72.8565 71.1769C73.0217 70.3066 73.0821 68.2679 70.983 65.786C68.1707 62.4661 64.5687 64.1583 64.5687 64.1583C61.3737 65.9472 60.0239 71.7893 60.0239 71.7893L63.4003 69.9883C63.912 71.475 68.9 73.0746 68.9 73.0746L68.9282 73.0625C68.9765 76.2938 68.9 85.7178 66.6074 92.269C65.7089 94.8355 63.8838 99.6059 69.9113 107.781L73.2312 107.644C73.2352 107.648 80.6769 95.0128 72.8565 71.1769Z" fill="url(#paint3_linear)"/>
<path d="M55.9707 52.0233L46.724 65.0856C46.1236 65.9357 46.2042 67.084 46.9174 67.8455C48.1623 69.1751 50.2655 71.0486 52.5298 71.4797C53.2349 71.6126 53.9481 71.3185 54.3389 70.7182L59.2584 63.1677C59.2584 63.1637 60.1972 51.3021 55.9707 52.0233Z" fill="url(#paint4_linear)"/>
<path d="M62.1151 43.5339C62.2682 43.7394 67.2723 59.9644 67.2723 59.9644L57.9491 62.6236L50.9224 47.9498C50.9183 47.9538 59.5325 40.0971 62.1151 43.5339Z" fill="url(#paint5_linear)"/>
<path d="M54.6206 50.359L57.59 58.0464C57.6545 58.2156 57.7431 58.3687 57.856 58.5098C58.3556 59.1343 59.802 60.6089 61.4096 59.0335C62.6264 57.8409 63.7706 56.741 64.8625 56.193C65.8254 55.7096 66.9898 56.2374 67.296 57.2688C67.7554 58.816 68.4806 61.4711 68.8593 64.0013C68.9963 64.9159 68.396 65.7822 67.4894 65.9715C65.5917 66.3704 62.2799 66.9466 59.3749 66.8821C58.7303 66.866 58.1541 66.4873 57.868 65.9111C56.7923 63.7395 54.0968 58.3526 53.0815 56.9142C52.1468 55.5927 50.0396 55.6008 48.9678 55.7015C48.4682 55.7498 47.9767 55.5806 47.61 55.2382C46.7519 54.4323 45.6036 52.8127 47.2394 50.7981C47.8075 50.0971 47.7591 49.1019 47.1346 48.4532C46.2281 47.5145 45.4787 46.0157 46.909 44.1301C48.4239 42.1357 50.4707 42.2445 51.8486 42.6393C52.5215 42.8327 53.2064 42.5386 53.6496 41.9947C53.7785 41.8375 53.9598 41.7167 54.2177 41.6723C55.0598 41.5354 55.7085 40.8867 55.7326 40.0365C55.7689 38.7755 56.3128 37.3089 58.3918 36.5957C62.4571 35.1977 65.1324 39.0897 65.4749 42.039C65.8133 44.9883 61.3209 46.2534 58.6497 46.1325C56.8003 46.0479 55.4345 47.7441 54.7737 48.7917C54.4796 49.2631 54.4192 49.8433 54.6206 50.359Z" fill="url(#paint6_linear)"/>
<path d="M54.2334 59.8198C54.2334 59.8198 53.4195 54.7029 51.2761 54.5135C49.1326 54.3241 47.102 56.1413 49.3099 58.9616C52.0617 62.471 54.2334 59.8198 54.2334 59.8198Z" fill="url(#paint7_linear)"/>
<path d="M31.0306 65.5766C31.0306 65.5766 12.3841 77.4664 8.30265 91.274C4.22122 105.082 13.3551 107.797 22.0538 109.018L22.7065 98.4739C22.7065 98.4739 16.6146 98.4739 20.4986 92.7124C24.3867 86.9508 34.83 83.1071 34.83 83.1071C34.83 83.1071 61.3009 58.139 31.0306 65.5766Z" fill="url(#paint8_linear)"/>
<path d="M22.711 98.7197C22.6062 98.7197 20.084 98.6995 19.2379 97.104C18.6577 96.0162 19.0163 94.4932 20.3056 92.5834C24.1896 86.8219 34.3227 83.0466 34.7538 82.8895C34.8787 82.8452 35.0157 82.9097 35.0601 83.0305C35.1044 83.1554 35.0439 83.2924 34.919 83.3367C34.8143 83.373 24.4999 87.2167 20.7045 92.8493C19.524 94.602 19.1735 95.9557 19.661 96.8744C20.3741 98.216 22.6868 98.2362 22.711 98.2362C22.8439 98.2362 22.9527 98.345 22.9527 98.4779C22.9487 98.6109 22.8399 98.7197 22.711 98.7197Z" fill="url(#paint9_linear)"/>
<path d="M22.0539 109.022C22.0539 109.022 19.3303 104.522 22.9161 99.1431L46.9938 103.128C46.9938 103.128 58.521 101.178 59.073 101.218C59.625 101.258 67.1472 105.892 67.1472 105.892C67.1472 105.892 66.8934 106.428 65.1045 106.331C63.3156 106.23 64.4881 106.548 64.4881 106.548L64.4236 107.451C64.4236 107.451 63.1786 107.737 62.1794 106.673C61.1802 105.61 58.4001 105.094 58.4001 105.094C58.4001 105.094 52.4935 109.457 46.6917 107.346L22.0539 109.022Z" fill="url(#paint10_linear)"/>
<path d="M57.0865 184.978C56.8971 184.978 56.7078 184.938 56.5224 184.857C55.7972 184.539 55.4628 183.677 55.773 182.931L85.7653 111.508C86.0755 110.767 86.9176 110.42 87.6428 110.743C88.3681 111.061 88.7025 111.923 88.3923 112.669L58.4 184.092C58.1703 184.644 57.6425 184.978 57.0865 184.978Z" fill="url(#paint11_linear)"/>
<path d="M90.8783 184.978C90.3223 184.978 89.7985 184.648 89.5648 184.092L59.5684 112.668C59.2582 111.927 59.5926 111.065 60.3178 110.742C61.0431 110.424 61.8851 110.767 62.1954 111.508L92.1878 182.931C92.498 183.673 92.1636 184.535 91.4384 184.857C91.257 184.938 91.0677 184.978 90.8783 184.978Z" fill="url(#paint12_linear)"/>
<path d="M113.062 109.377C113.106 108.933 113.046 108.474 112.901 108.128C112.756 107.781 112.538 107.58 112.309 107.58H34.5881C34.2859 107.58 34.0039 107.882 33.8427 108.381C33.6815 108.881 33.6574 109.51 33.7863 110.049L34.6284 113.631C34.8218 114.453 35.2408 114.977 35.7001 114.977H111.777C112.204 114.977 112.57 114.381 112.655 113.555L113.062 109.377Z" fill="url(#paint13_linear)"/>
<path d="M79.4477 23.1098C69.2743 27.9689 62.59 38.0778 70.491 37.6064C85.3261 36.72 75.3138 44.9836 83.1141 44.7378C90.9144 44.4961 102.989 42.8321 110.895 34.645C118.796 26.458 111.116 24.4999 107.913 24.8182C97.3649 25.8617 111.318 7.89609 79.4477 23.1098Z" fill="#BDD0FB"/>
<path d="M75.9992 48.7628C76.0194 49.9151 76.8695 51.8047 78.7712 51.7725C80.677 51.7362 82.9131 49.7902 82.893 48.6379C82.8728 47.4856 81.3096 46.579 79.4078 46.6153C77.5061 46.6475 75.9791 47.6105 75.9992 48.7628Z" fill="#BDD0FB"/>
<path d="M73.1417 53.4047C73.1537 53.9607 73.6413 54.4079 74.2376 54.3959C74.8339 54.3838 76.0104 53.7915 75.9983 53.2355C75.9862 52.6795 75.2489 52.1195 74.6566 52.1315C74.0603 52.1396 73.1336 52.8487 73.1417 53.4047Z" fill="#BDD0FB"/>
<path d="M95.104 32.2641C95.0879 32.0707 94.8905 31.9055 94.5561 31.7685C94.9187 31.567 95.1201 31.3535 95.104 31.144C95.0516 30.5074 93.0331 30.1488 90.5955 30.3462C88.158 30.5437 86.224 31.2205 86.2724 31.8571C86.2885 32.0505 86.4859 32.2157 86.8203 32.3527C86.4577 32.5542 86.2563 32.7677 86.2724 32.9772C86.2885 33.1706 86.4859 33.3358 86.8203 33.4728C86.4577 33.6742 86.2563 33.8878 86.2724 34.0973C86.2885 34.2907 86.4859 34.4559 86.8203 34.5929C86.4577 34.7943 86.2563 35.0079 86.2724 35.2174C86.2966 35.4994 86.7035 35.725 87.3602 35.8741C87.3522 36.0836 87.3562 36.3093 87.3763 36.5631C87.473 37.7355 88.7905 38.6582 90.5391 38.6582C92.2877 38.6582 93.7986 37.4011 93.8147 36.2246C93.8188 35.9345 93.8067 35.6807 93.7825 35.4551C94.6165 35.1771 95.1282 34.8346 95.1 34.5042C95.0839 34.3108 94.8865 34.1456 94.552 34.0087C94.9147 33.8072 95.1161 33.5937 95.1 33.3842C95.0839 33.1908 94.8865 33.0256 94.552 32.8886C94.9187 32.6871 95.1201 32.4736 95.104 32.2641Z" fill="url(#paint14_linear)"/>
<path d="M89.4677 36.1275C88.7424 36.1275 88.0817 36.0752 87.5337 35.9704C87.5015 35.9623 87.4813 35.9341 87.4854 35.9019C87.4934 35.8697 87.5216 35.8495 87.5539 35.8536C88.412 36.0188 89.5563 36.055 90.7771 35.9543C91.7763 35.8737 92.711 35.7125 93.4806 35.4869C93.5128 35.4789 93.545 35.495 93.5531 35.5272C93.5611 35.5594 93.545 35.5917 93.5128 35.5997C92.7352 35.8254 91.7964 35.9905 90.7892 36.0711C90.3339 36.1074 89.8907 36.1275 89.4677 36.1275Z" fill="url(#paint15_linear)"/>
<path d="M89.4794 35.0035C88.5407 35.0035 87.6986 34.9149 87.1063 34.7457C87.0741 34.7376 87.058 34.7054 87.066 34.6731C87.0741 34.6409 87.1063 34.6248 87.1385 34.6328C87.9847 34.8746 89.3425 34.9471 90.7768 34.8343C92.195 34.7215 93.5166 34.4314 94.3143 34.0647C94.3425 34.0526 94.3788 34.0647 94.3909 34.0929C94.403 34.1211 94.3909 34.1574 94.3627 34.1695C93.5528 34.5442 92.2152 34.8343 90.7849 34.9511C90.3417 34.9874 89.9025 35.0035 89.4794 35.0035Z" fill="url(#paint16_linear)"/>
<path d="M89.4676 33.8873C88.4523 33.8873 87.5619 33.7825 86.9656 33.5851C86.9333 33.573 86.9172 33.5408 86.9293 33.5126C86.9414 33.4804 86.9736 33.4642 87.0018 33.4763C87.8359 33.7503 89.246 33.843 90.7771 33.7181C92.1953 33.6052 93.5169 33.3152 94.3147 32.9485C94.3429 32.9364 94.3791 32.9485 94.3912 32.9767C94.4033 33.0049 94.3912 33.0412 94.363 33.0533C93.5532 33.428 92.2155 33.7181 90.7852 33.8349C90.3339 33.8671 89.8907 33.8873 89.4676 33.8873Z" fill="url(#paint17_linear)"/>
<path d="M89.4761 32.7635C88.6702 32.7635 87.9369 32.699 87.3688 32.5701C87.3366 32.562 87.3165 32.5298 87.3245 32.5016C87.3326 32.4694 87.3648 32.4492 87.393 32.4573C88.2512 32.6467 89.4841 32.695 90.7775 32.5943C92.1836 32.4815 93.5011 32.1954 94.2989 31.8328C94.3271 31.8207 94.3633 31.8328 94.3754 31.861C94.3875 31.8892 94.3754 31.9255 94.3472 31.9375C93.5374 32.3082 92.2078 32.5943 90.7855 32.7111C90.3383 32.7474 89.8991 32.7635 89.4761 32.7635Z" fill="url(#paint18_linear)"/>
<path d="M84.6412 26.6072C84.3471 25.5596 83.8434 24.5765 83.1666 23.7264C81.7161 21.8972 79.347 18.1784 79.0569 13.1018C78.6299 5.71244 85.1771 2.01779 91.1562 2.5174C97.1312 3.02103 103.03 7.46912 102.385 14.3387C101.986 18.5652 99.6212 21.7723 97.8605 23.6136C96.7404 24.782 95.9427 26.2164 95.5116 27.7756C94.9837 29.6854 93.7267 32.0625 90.7331 32.2076C86.8612 32.397 85.2576 28.7909 84.6412 26.6072Z" fill="url(#paint19_linear)"/>
<path d="M91.7203 30.7368L93.8115 17.1347C93.8558 16.8527 93.9928 16.6633 94.1217 16.7116C94.2506 16.76 94.3191 17.0259 94.2748 17.3079C94.2748 17.316 94.2708 17.3241 94.2708 17.3321L91.8896 30.8053C91.8735 30.906 91.8211 30.9705 91.7727 30.9463C91.7284 30.9302 91.7042 30.8335 91.7203 30.7368Z" fill="url(#paint20_linear)"/>
<path d="M89.5484 30.8457L87.4573 17.2436C87.413 16.9615 87.276 16.7722 87.1471 16.8205C87.0181 16.8689 86.9496 17.1348 86.994 17.4168C86.994 17.4249 86.998 17.4329 86.998 17.441L89.3792 30.9142C89.3953 31.0149 89.4477 31.0794 89.4961 31.0552C89.5444 31.0391 89.5646 30.9424 89.5484 30.8457Z" fill="url(#paint21_linear)"/>
<path opacity="0.79" d="M93.7989 15.9667C93.7465 15.8821 93.6216 15.8499 93.5249 15.8942L92.3605 16.4381L91.9576 15.2858C91.9375 15.2254 91.8851 15.173 91.8166 15.1448C91.6837 15.0884 91.5225 15.1408 91.458 15.2536L91.454 15.2576L90.4951 17.0022L89.6047 14.5163V14.5122C89.5845 14.4518 89.5362 14.3954 89.4717 14.3591C89.3226 14.2786 89.1252 14.3148 89.0325 14.4437L87.6949 16.285C87.6385 16.3616 87.6586 16.4623 87.7432 16.5187C87.8319 16.5792 87.9608 16.563 88.0293 16.4865L89.2098 15.173L90.2695 17.5381C90.2856 17.5743 90.3178 17.6106 90.3621 17.6307C90.4629 17.6791 90.5878 17.6469 90.6401 17.5582L91.6635 15.9144L92.0503 16.7443L92.0543 16.7524C92.0584 16.7564 92.0584 16.7645 92.0624 16.7685C92.1148 16.8531 92.2397 16.8854 92.3364 16.841L93.7183 16.1964C93.815 16.1601 93.8513 16.0513 93.7989 15.9667Z" fill="white"/>
<path opacity="0.79" d="M97.9047 21.8006C97.8644 21.8006 97.8201 21.7885 97.7839 21.7603C97.6952 21.6918 97.6751 21.5669 97.7436 21.4742C98.1022 20.9907 98.4285 20.4951 98.7186 19.9955C98.775 19.8988 98.8999 19.8666 98.9966 19.919C99.0933 19.9754 99.1255 20.1003 99.0731 20.197C98.775 20.7087 98.4406 21.2204 98.074 21.716C98.0296 21.7724 97.9652 21.8006 97.9047 21.8006Z" fill="white"/>
<path opacity="0.79" d="M99.6253 18.8475C99.5971 18.8475 99.5689 18.8435 99.5447 18.8314C99.4399 18.7871 99.3956 18.6662 99.4399 18.5615C101.656 13.4567 99.7421 9.1496 99.722 9.10931C99.6736 9.00858 99.722 8.88771 99.8227 8.83936C99.9234 8.79101 100.044 8.83533 100.093 8.94008C100.113 8.9844 102.103 13.4486 99.8106 18.7267C99.7784 18.8032 99.7018 18.8475 99.6253 18.8475Z" fill="white"/>
<path d="M98.0862 68.6948C96.4343 64.7625 90.4552 52.8364 79.8788 56.519C79.7217 56.5714 79.7419 56.801 79.903 56.8292C82.2359 57.2603 90.8782 59.4441 97.8082 68.852C97.9211 69.0051 98.1588 68.8721 98.0862 68.6948Z" fill="#91B3FA"/>
<path d="M97.9936 68.9406C95.6164 66.7004 88.5334 58.0299 79.1336 61.9905C79.0288 62.0348 79.053 62.1879 79.1618 62.2C81.4865 62.4458 93.0258 63.9083 97.9493 69.1299C98.0782 69.271 98.1306 69.0735 97.9936 68.9406Z" fill="#91B3FA"/>
<path d="M97.7716 67.9573C97.546 64.992 96.2204 53.7992 89.0124 51.4866C88.96 51.4704 88.9157 51.5309 88.9479 51.5752C89.8182 52.8 96.1358 61.8533 97.6628 67.9735C97.6749 68.0419 97.7756 68.0258 97.7716 67.9573Z" fill="#91B3FA"/>
<path d="M98.4891 71.3536C98.5536 71.3898 98.614 71.3052 98.5617 71.2569C97.2885 69.9877 92.0144 65.3261 85.3222 67.6227C77.7354 70.2214 91.0152 67.3003 98.4891 71.3536Z" fill="#91B3FA"/>
<path d="M98.3118 69.0334C98.2957 69.255 97.9815 69.2832 97.9331 69.0656C97.1354 65.5483 95.4391 55.8504 100.371 53.3846C106.209 50.4635 99.1056 57.5345 98.3118 69.0334Z" fill="#91B3FA"/>
<path d="M97.9732 69.0046C98.8032 66.845 101.998 60.1407 108.646 63.7628C108.759 63.8232 108.723 63.9965 108.594 64.0046C107.099 64.0972 102.123 64.7459 98.1867 69.1335C98.0901 69.2383 97.9208 69.1376 97.9732 69.0046Z" fill="#91B3FA"/>
<path d="M98.1505 69.5484C98.4567 68.2148 100.048 65.5395 108.139 67.9892C108.187 68.0053 108.175 68.0778 108.122 68.0698C106.531 67.9046 101.16 67.5379 98.5252 69.7741C98.36 69.9231 98.1021 69.766 98.1505 69.5484Z" fill="#91B3FA"/>
<path d="M100.479 106.044L100.483 105.77V105.476L100.479 104.888L100.471 103.712L100.439 101.359C100.418 99.7913 100.386 98.224 100.354 96.6566C100.281 93.522 100.193 90.3915 100.052 87.2649C99.9108 84.1383 99.7174 81.0118 99.4152 77.8973C99.2621 76.3421 99.0768 74.7869 98.8229 73.2478C98.5772 71.7047 98.2589 70.1736 97.7432 68.699L97.8842 68.6426C98.1904 69.3678 98.4603 70.1132 98.6618 70.8787L98.8189 71.4508C98.8673 71.6402 98.9116 71.8336 98.9559 72.027L99.0929 72.6031L99.2138 73.1793C99.528 74.7224 99.7698 76.2817 99.9591 77.8409C100.153 79.4002 100.298 80.9675 100.426 82.5348C100.547 84.1021 100.636 85.6694 100.713 87.2407C100.781 88.808 100.829 90.3794 100.87 91.9507C100.894 93.522 100.918 95.0893 100.91 96.6607C100.91 98.232 100.886 99.7993 100.845 101.371L100.761 103.724L100.709 104.9L100.672 105.488L100.652 105.782C100.644 105.883 100.64 105.972 100.62 106.097L100.479 106.044Z" fill="#91B3FA"/>
<path d="M103.216 78.3283C104.32 75.6933 108.329 67.7037 115.412 70.1694C115.517 70.2057 115.505 70.3588 115.396 70.379C113.833 70.669 108.043 72.1316 103.401 78.433C103.329 78.5378 103.168 78.4451 103.216 78.3283Z" fill="#91B3FA"/>
<path d="M103.28 78.493C104.871 76.9902 109.617 71.1843 115.915 73.8354C115.983 73.8636 115.971 73.9684 115.895 73.9764C114.339 74.1416 106.608 75.1207 103.308 78.6219C103.219 78.7146 103.183 78.5816 103.28 78.493Z" fill="#91B3FA"/>
<path d="M103.429 77.8366C103.582 75.8502 104.468 68.3521 109.299 66.8049C109.336 66.7928 109.364 66.8331 109.344 66.8654C108.763 67.6873 104.529 73.7511 103.505 77.8527C103.493 77.893 103.425 77.8809 103.429 77.8366Z" fill="#91B3FA"/>
<path d="M102.945 80.1091C102.901 80.1333 102.861 80.0769 102.897 80.0446C103.751 79.1945 107.28 76.0719 111.769 77.611C116.849 79.3516 107.953 77.3934 102.945 80.1091Z" fill="#91B3FA"/>
<path d="M103.062 78.5541C103.074 78.7031 103.284 78.7193 103.316 78.5742C103.852 76.2172 104.988 69.7224 101.684 68.0704C97.7721 66.1163 102.535 70.8505 103.062 78.5541Z" fill="#91B3FA"/>
<path d="M103.292 78.538C102.736 77.0915 100.597 72.5991 96.1445 75.0287C96.0679 75.0689 96.0921 75.1858 96.1808 75.1898C97.184 75.2543 100.516 75.6854 103.151 78.6266C103.211 78.6951 103.328 78.6266 103.292 78.538Z" fill="#91B3FA"/>
<path d="M103.171 78.9C102.966 78.0056 101.902 76.2167 96.479 77.8565C96.4468 77.8646 96.4548 77.917 96.4871 77.9129C97.5507 77.8042 101.153 77.5584 102.917 79.0572C103.034 79.1498 103.203 79.0451 103.171 78.9Z" fill="#91B3FA"/>
<path d="M102.127 106.092C102.111 105.992 102.111 105.927 102.103 105.851L102.091 105.629L102.067 105.19C102.051 104.896 102.039 104.602 102.031 104.312L101.974 102.551C101.934 101.378 101.934 100.202 101.926 99.0294C101.922 97.857 101.922 96.6805 101.942 95.508C101.966 94.3355 101.994 93.1591 102.047 91.9866C102.099 90.8141 102.16 89.6377 102.244 88.4652C102.333 87.2927 102.438 86.1203 102.583 84.9518L102.695 84.0775L102.828 83.2032C102.921 82.623 103.022 82.0388 103.147 81.4627C103.203 81.1726 103.272 80.8865 103.344 80.6004C103.38 80.4554 103.413 80.3144 103.453 80.1693L103.578 79.7423C103.739 79.1742 103.94 78.6141 104.182 78.0742L104.323 78.1306C104.146 78.6866 103.985 79.2426 103.868 79.8148L103.775 80.2419C103.747 80.3829 103.723 80.5279 103.699 80.673L103.622 81.1041L103.554 81.5352C103.509 81.8213 103.465 82.1113 103.429 82.4014C103.393 82.6915 103.344 82.9776 103.316 83.2677C103.247 83.8479 103.183 84.4281 103.123 85.0082C102.897 87.333 102.736 89.6699 102.623 92.0067C102.51 94.3436 102.43 96.6845 102.369 99.0294C102.337 100.202 102.329 101.374 102.305 102.543L102.285 104.299L102.28 105.178V105.617L102.285 106.036L102.127 106.092Z" fill="#91B3FA"/>
<path d="M95.3542 83.2025C93.9399 80.8979 89.109 74.0123 83.5932 77.4974C83.5126 77.5498 83.5489 77.6908 83.6456 77.6908C85.0154 77.7109 90.1566 78.1461 95.2172 83.3315C95.2978 83.4161 95.4186 83.3073 95.3542 83.2025Z" fill="#91B3FA"/>
<path d="M95.3336 83.3678C93.718 82.2114 88.6615 77.5054 83.8427 81.0349C83.7904 81.0752 83.8186 81.1679 83.883 81.1638C85.2247 81.0631 91.9129 80.7287 95.3296 83.4927C95.4222 83.5652 95.4263 83.4363 95.3336 83.3678Z" fill="#91B3FA"/>
<path d="M95.0846 82.7714C94.5931 80.922 92.4738 73.992 88.1264 73.3191C88.0942 73.3151 88.0781 73.3554 88.0982 73.3836C88.7389 74.0645 93.4126 79.0928 95.0202 82.7955C95.0443 82.8358 95.0967 82.8157 95.0846 82.7714Z" fill="#91B3FA"/>
<path d="M95.9059 84.8385C95.9462 84.8547 95.9703 84.7942 95.9341 84.7701C95.0598 84.1093 91.5142 81.7363 88.0209 83.9199C84.0644 86.3897 91.1959 83.094 95.9059 84.8385Z" fill="#91B3FA"/>
<path d="M95.5232 83.392C95.5433 83.533 95.3661 83.5853 95.3137 83.4524C94.4313 81.317 92.2878 75.3742 94.7698 73.275C97.7029 70.7891 94.5643 76.0349 95.5232 83.392Z" fill="#91B3FA"/>
<path d="M95.33 83.412C95.5315 81.9575 96.5146 77.3684 100.709 78.9317C100.781 78.9599 100.781 79.0687 100.709 79.0888C99.8749 79.3104 97.1512 80.2653 95.467 83.4684C95.4267 83.545 95.3179 83.5006 95.33 83.412Z" fill="#91B3FA"/>
<path d="M95.4951 83.7348C95.5032 82.8605 96.0753 80.9951 100.938 81.6599C100.967 81.6639 100.971 81.7122 100.938 81.7122C100.02 81.7807 96.9456 82.1393 95.7328 83.8396C95.6603 83.9483 95.4951 83.8758 95.4951 83.7348Z" fill="#91B3FA"/>
<path d="M101.248 106.548L101.111 105.823L100.966 105.081L100.664 103.599L100.044 100.641C99.8342 99.6542 99.6126 98.6711 99.391 97.692C99.1735 96.7089 98.9478 95.7258 98.7142 94.7468C98.2428 92.7886 97.7311 90.8426 97.1751 88.9087L96.9615 88.1834L96.7399 87.4622C96.5908 86.9828 96.4418 86.5033 96.2766 86.0279C95.9422 85.081 95.5997 84.1382 95.1323 83.2518L95.2613 83.1753C95.5352 83.6024 95.785 84.0496 95.9986 84.5089C96.1114 84.7386 96.2202 84.9682 96.3128 85.2019C96.4136 85.4356 96.5103 85.6693 96.5989 85.907C96.9696 86.8498 97.3 87.8087 97.5981 88.7757C98.1904 90.7096 98.6779 92.6718 99.1372 94.638C99.3628 95.6211 99.5844 96.6082 99.798 97.5953C99.9994 98.5824 100.197 99.5736 100.386 100.565C100.576 101.556 100.761 102.547 100.926 103.542L101.172 105.037L101.289 105.786L101.341 106.161L101.365 106.35C101.373 106.415 101.385 106.471 101.389 106.556L101.248 106.548Z" fill="#91B3FA"/>
<path d="M97.7439 96.7451H104.186C104.609 96.7451 104.92 97.3817 104.827 98.0465C104.416 100.939 103.921 103.873 102.909 106.854C102.724 107.406 102.365 107.748 101.978 107.748H99.8753C99.4925 107.748 99.142 107.41 98.9607 106.866C98.1508 104.429 97.3732 101.524 96.9864 98.2238C96.9018 97.4542 97.2644 96.7451 97.7439 96.7451Z" fill="url(#paint22_linear)"/>
</g>
<defs>
<linearGradient id="paint0_linear" x1="129.741" y1="147.236" x2="31.5227" y2="25.2551" gradientUnits="userSpaceOnUse">
<stop stop-color="#DAE3FE"/>
<stop offset="1" stop-color="#E9EFFD"/>
</linearGradient>
<linearGradient id="paint1_linear" x1="100.196" y1="136.739" x2="39.8661" y2="153.693" gradientUnits="userSpaceOnUse">
<stop stop-color="#CB236D"/>
<stop offset="1" stop-color="#4C246D"/>
</linearGradient>
<linearGradient id="paint2_linear" x1="19.527" y1="115.888" x2="64.6229" y2="75.9533" gradientUnits="userSpaceOnUse">
<stop stop-color="#4F52FF"/>
<stop offset="1" stop-color="#4042E2"/>
</linearGradient>
<linearGradient id="paint3_linear" x1="60.0235" y1="85.7563" x2="76.4331" y2="85.7563" gradientUnits="userSpaceOnUse">
<stop stop-color="#FEBBBA"/>
<stop offset="1" stop-color="#FF928E"/>
</linearGradient>
<linearGradient id="paint4_linear" x1="42.3456" y1="68.8997" x2="61.4177" y2="57.8489" gradientUnits="userSpaceOnUse">
<stop stop-color="#FEBBBA"/>
<stop offset="1" stop-color="#FF928E"/>
</linearGradient>
<linearGradient id="paint5_linear" x1="59.1247" y1="45.9191" x2="59.0101" y2="78.2223" gradientUnits="userSpaceOnUse">
<stop stop-color="#FEBBBA"/>
<stop offset="1" stop-color="#FF928E"/>
</linearGradient>
<linearGradient id="paint6_linear" x1="50.9068" y1="59.7548" x2="69.5182" y2="45.7898" gradientUnits="userSpaceOnUse">
<stop stop-color="#09005D"/>
<stop offset="1" stop-color="#1A0F91"/>
</linearGradient>
<linearGradient id="paint7_linear" x1="48.5522" y1="79.3657" x2="51.4287" y2="57.1669" gradientUnits="userSpaceOnUse">
<stop stop-color="#FEBBBA"/>
<stop offset="1" stop-color="#FF928E"/>
</linearGradient>
<linearGradient id="paint8_linear" x1="8.16168" y1="103.053" x2="53.2576" y2="63.1188" gradientUnits="userSpaceOnUse">
<stop stop-color="#4F52FF"/>
<stop offset="1" stop-color="#4042E2"/>
</linearGradient>
<linearGradient id="paint9_linear" x1="31.3973" y1="-16.9745" x2="28.1373" y2="62.3507" gradientUnits="userSpaceOnUse">
<stop stop-color="#09005D"/>
<stop offset="1" stop-color="#1A0F91"/>
</linearGradient>
<linearGradient id="paint10_linear" x1="43.722" y1="110.576" x2="44.4692" y2="100.167" gradientUnits="userSpaceOnUse">
<stop stop-color="#FEBBBA"/>
<stop offset="1" stop-color="#FF928E"/>
</linearGradient>
<linearGradient id="paint11_linear" x1="55.6586" y1="147.801" x2="88.5136" y2="147.801" gradientUnits="userSpaceOnUse">
<stop stop-color="#9CFFFB"/>
<stop offset="1" stop-color="#9BFFFA"/>
</linearGradient>
<linearGradient id="paint12_linear" x1="59.4526" y1="147.8" x2="92.3076" y2="147.8" gradientUnits="userSpaceOnUse">
<stop stop-color="#9CFFFB"/>
<stop offset="1" stop-color="#9BFFFA"/>
</linearGradient>
<linearGradient id="paint13_linear" x1="21.2757" y1="172.662" x2="114.963" y2="61.877" gradientUnits="userSpaceOnUse">
<stop stop-color="#09005D"/>
<stop offset="1" stop-color="#1A0F91"/>
</linearGradient>
<linearGradient id="paint14_linear" x1="95.5148" y1="29.2681" x2="112.123" y2="13.9237" gradientUnits="userSpaceOnUse">
<stop stop-color="#09005D"/>
<stop offset="1" stop-color="#1A0F91"/>
</linearGradient>
<linearGradient id="paint15_linear" x1="86.0209" y1="46.0216" x2="109.656" y2="-8.03897" gradientUnits="userSpaceOnUse">
<stop stop-color="#4F52FF"/>
<stop offset="1" stop-color="#4042E2"/>
</linearGradient>
<linearGradient id="paint16_linear" x1="85.712" y1="45.8872" x2="109.348" y2="-8.17496" gradientUnits="userSpaceOnUse">
<stop stop-color="#4F52FF"/>
<stop offset="1" stop-color="#4042E2"/>
</linearGradient>
<linearGradient id="paint17_linear" x1="85.2353" y1="45.6781" x2="108.87" y2="-8.38274" gradientUnits="userSpaceOnUse">
<stop stop-color="#4F52FF"/>
<stop offset="1" stop-color="#4042E2"/>
</linearGradient>
<linearGradient id="paint18_linear" x1="85.0045" y1="45.5773" x2="108.639" y2="-8.48326" gradientUnits="userSpaceOnUse">
<stop stop-color="#4F52FF"/>
<stop offset="1" stop-color="#4042E2"/>
</linearGradient>
<linearGradient id="paint19_linear" x1="90.8797" y1="9.85752" x2="89.4535" y2="38.9918" gradientUnits="userSpaceOnUse">
<stop stop-color="#FF928E"/>
<stop offset="1" stop-color="#FE7062"/>
</linearGradient>
<linearGradient id="paint20_linear" x1="118.073" y1="1.80395" x2="83.6418" y2="31.9575" gradientUnits="userSpaceOnUse">
<stop stop-color="#E1473D"/>
<stop offset="1" stop-color="#E9605A"/>
</linearGradient>
<linearGradient id="paint21_linear" x1="116.131" y1="-0.414304" x2="81.6991" y2="29.7395" gradientUnits="userSpaceOnUse">
<stop stop-color="#E1473D"/>
<stop offset="1" stop-color="#E9605A"/>
</linearGradient>
<linearGradient id="paint22_linear" x1="104.317" y1="116.122" x2="101.926" y2="103.512" gradientUnits="userSpaceOnUse">
<stop stop-color="#4F52FF"/>
<stop offset="1" stop-color="#4042E2"/>
</linearGradient>
</defs>
</svg>
