<svg width="320" height="315" viewBox="0 0 320 315" fill="none" xmlns="http://www.w3.org/2000/svg">
<g clip-path="url(#clip0)">
<path d="M150.011 149.629C151.259 129.145 145.671 110.257 135.721 96.5637C126.817 84.3204 122.871 69.1091 125.007 54.1339C125.232 52.5599 125.401 50.9634 125.491 49.3332C126.997 24.6893 113.112 3.80046 94.4946 2.66495C75.8655 1.52944 59.5524 20.5745 58.0572 45.2184C57.7536 50.2551 58.0909 55.1345 58.9791 59.7215C61.801 74.3594 59.2489 89.6045 51.2666 102.208C44.1387 113.473 39.4955 127.47 38.5511 142.827C37.1571 165.74 44.2961 186.64 56.5506 200.525C61.1826 205.775 64.8477 211.846 67.2986 218.4C71.3572 229.295 80.0253 237.041 90.481 237.682C101.757 238.367 111.966 230.599 117.014 218.85C119.869 212.206 123.995 206.213 128.976 200.963C140.747 188.574 148.752 170.338 150.011 149.629Z" fill="#BDD0FB"/>
<path d="M99.4189 29.2651C100.858 45.7019 101.769 62.1612 102.511 78.6429C102.702 82.7577 102.814 86.8838 102.949 90.9986L103.151 97.1821L103.298 103.366C103.376 107.492 103.522 111.606 103.556 115.732L103.669 128.099C103.635 136.352 103.669 144.592 103.489 152.845C103.399 156.971 103.399 161.097 103.219 165.211L102.758 177.578C101.982 194.06 100.791 210.519 98.7669 226.9L98.0586 226.821L99.1041 214.511L99.374 211.43L99.5651 208.35L99.9361 202.189L100.318 196.028C100.453 193.97 100.509 191.913 100.599 189.855C100.768 185.741 100.959 181.626 101.105 177.511C101.555 161.052 101.791 144.581 101.679 128.111C101.566 119.881 101.51 111.64 101.341 103.411L101.229 97.2383L101.06 91.0661C100.948 86.9513 100.847 82.8364 100.701 78.7216C100.476 70.492 100.183 62.2511 99.8349 54.0215C99.5201 45.7919 99.1379 37.5622 98.7219 29.3326L99.4189 29.2651Z" fill="url(#paint0_linear)"/>
<path d="M95.8323 124.074C94.0784 106.491 86.7482 91.2008 76.4275 80.9363C67.1972 71.751 61.7558 59.3616 61.5197 46.3426C61.4972 44.971 61.4185 43.5881 61.2723 42.1941C59.1587 21.0466 44.5208 5.19445 28.5787 6.77966C12.6253 8.36488 1.40514 26.8028 3.51876 47.9503C3.94598 52.2787 4.90161 56.3823 6.28446 60.1486C10.7028 72.2007 10.6241 85.512 5.58741 97.3168C1.09035 107.874 -0.922092 120.409 0.3933 133.586C2.34952 153.249 11.2874 170.034 23.5869 180.153C28.2414 183.987 32.1763 188.63 35.1556 193.869C40.1024 202.571 48.5007 207.967 57.4611 207.079C67.1185 206.112 74.7073 198.107 77.3718 187.427C78.8784 181.389 81.5541 175.723 85.0618 170.574C93.3252 158.443 97.5974 141.849 95.8323 124.074Z" fill="#91B3FA"/>
<path opacity="0.57" d="M36.4035 28.7144C39.8774 42.4866 42.913 56.3488 45.8023 70.256C46.5218 73.73 47.1964 77.2152 47.871 80.7004L48.8941 85.9283L49.8722 91.1674C50.513 94.6638 51.1876 98.149 51.7834 101.646L53.571 112.146C54.6728 119.162 55.842 126.166 56.8089 133.204C57.3036 136.723 57.8657 140.23 58.2817 143.749L59.5971 154.317C61.2048 168.427 62.4527 182.593 62.9924 196.781L62.3853 196.815L61.5758 186.213L61.3847 183.56L61.1261 180.918L60.5977 175.622L60.0805 170.327C59.9119 168.562 59.6758 166.808 59.4734 165.043C59.0462 161.524 58.6527 158.005 58.203 154.486C56.3255 140.433 54.2568 126.402 51.9071 112.416C50.6816 105.434 49.5124 98.4414 48.2307 91.4597L47.2864 86.2206L46.297 80.9927C45.6449 77.5075 44.9816 74.0223 44.2958 70.5483C42.9692 63.5779 41.5976 56.6186 40.1697 49.6707C38.7757 42.7115 37.3141 35.7747 35.8301 28.838L36.4035 28.7144Z" fill="white"/>
<path d="M316.031 261.369C316.031 264.303 313.625 266.709 310.691 266.709H21.6646C18.7303 266.709 16.3244 264.303 16.3244 261.369L13.9185 95.2699C13.9185 92.3356 17.3812 86.6018 23.7221 87.029L306.183 79.7213C309.87 79.6314 313.434 81.048 316.054 83.645C318.662 86.2533 320.09 89.806 320.011 93.4936L316.031 261.369Z" fill="url(#paint1_linear)"/>
<path d="M310.748 256.243C310.748 259.02 308.477 261.302 305.688 261.302H28.6354C25.8585 261.302 23.5762 259.031 23.5762 256.243L21.3052 105.467C21.575 96.3943 29.5236 93.1339 34.3467 93.325L305.07 86.0623C307.656 85.9948 310.163 86.9954 312.007 88.8167C313.839 90.6493 314.84 93.1564 314.784 95.7422L310.748 256.243Z" fill="#91B3FA"/>
<path d="M26.5661 184.345C26.3076 184.345 26.0939 184.132 26.0939 183.873L25.9141 171.641C25.9141 171.382 26.1164 171.158 26.3863 171.158C26.6448 171.146 26.8697 171.36 26.8697 171.63L27.0496 183.862C27.0496 184.12 26.8472 184.345 26.5661 184.345C26.5774 184.345 26.5774 184.345 26.5661 184.345Z" fill="url(#paint2_linear)"/>
<path d="M26.1277 154.384C25.8691 154.384 25.6555 154.171 25.6555 153.912L24.9697 107.075C24.981 103.927 25.9591 101.409 27.8591 99.5875C31.3106 96.2822 36.7071 96.4508 36.9432 96.4508L123.388 94.1349C123.647 94.1124 123.871 94.3372 123.883 94.5958C123.894 94.8544 123.68 95.0792 123.422 95.0905L36.9432 97.4065C36.6958 97.3952 31.6928 97.2378 28.5224 100.273C26.8135 101.904 25.9478 104.197 25.9366 107.064L26.6224 153.89C26.6112 154.159 26.3975 154.373 26.1277 154.384C26.139 154.384 26.139 154.384 26.1277 154.384Z" fill="url(#paint3_linear)"/>
<path opacity="0.17" d="M35.7854 247.878C36.0777 235.421 35.9653 125.063 35.257 115.529C34.5374 105.996 49.389 104.208 72.1779 103.14C94.9668 102.072 287.25 97.8221 292.197 97.4174C303.327 96.518 305.632 113.146 304.519 149.257C303.687 176.386 302.293 221.075 301.663 241.627C301.472 247.743 296.469 252.6 290.353 252.622C244.078 252.746 66.7364 253.263 54.9316 253.612C41.328 254.016 35.6729 252.814 35.7854 247.878Z" fill="white"/>
<g opacity="0.4">
<path opacity="0.4" d="M54.909 212.733H38.7983V249.947H54.909V212.733Z" fill="white"/>
<path opacity="0.4" d="M81.8353 179.893H65.7246V249.946H81.8353V179.893Z" fill="white"/>
<path opacity="0.4" d="M108.75 211.216H92.6396V249.947H108.75V211.216Z" fill="white"/>
<path opacity="0.4" d="M135.677 192.113H119.566V249.934H135.677V192.113Z" fill="white"/>
<path opacity="0.4" d="M162.603 196.622H146.492V249.946H162.603V196.622Z" fill="white"/>
<path opacity="0.4" d="M189.529 191.237H173.418V249.946H189.529V191.237Z" fill="white"/>
<path opacity="0.4" d="M216.455 153.562H200.344V249.946H216.455V153.562Z" fill="white"/>
<path opacity="0.4" d="M243.381 169.999H227.271V249.934H243.381V169.999Z" fill="white"/>
<path opacity="0.4" d="M270.296 187.481H254.186V249.946H270.296V187.481Z" fill="white"/>
<path opacity="0.4" d="M297.222 143.703H281.111V249.946H297.222V143.703Z" fill="white"/>
</g>
<path d="M289.645 151.033C290.241 151.044 290.713 151.1 290.713 151.168V185.671C290.713 185.739 290.23 185.795 289.645 185.806C289.049 185.817 288.577 185.761 288.577 185.694V151.145C288.577 151.078 289.049 151.021 289.645 151.033Z" fill="#7D97F4"/>
<path d="M280.965 125.591L297.492 125.827V160.96L280.965 161.095V125.591Z" fill="#7D97F4"/>
<path d="M262.291 147.773C262.865 147.784 263.337 147.829 263.337 147.885V174.62C263.337 174.676 262.865 174.71 262.291 174.71C261.718 174.71 261.246 174.665 261.246 174.62V147.84C261.246 147.795 261.718 147.761 262.291 147.773Z" fill="#7D97F4"/>
<path d="M254.186 140.499L270.308 140.814V161.568L254.186 161.478V140.499Z" fill="#7D97F4"/>
<path d="M235.342 188.291C235.916 188.291 236.388 188.336 236.388 188.381V214.003C236.388 214.048 235.916 214.104 235.342 214.104C234.769 214.116 234.297 214.082 234.297 214.026V188.37C234.297 188.325 234.769 188.291 235.342 188.291Z" fill="#7D97F4"/>
<path d="M227.214 158.656L243.37 158.555V189.27L227.214 189.708V158.656Z" fill="#7D97F4"/>
<path d="M208.349 157.194C208.866 157.194 209.282 157.228 209.282 157.284V182.423C209.282 182.468 208.866 182.513 208.349 182.524C207.832 182.535 207.405 182.502 207.405 182.457V157.284C207.405 157.239 207.832 157.194 208.349 157.194Z" fill="#7D97F4"/>
<path d="M200.344 149.403L216.455 149.269V169.494L200.344 169.854V149.403Z" fill="#7D97F4"/>
<path d="M181.254 145.221C181.782 145.221 182.221 145.277 182.221 145.333V177.543C182.221 177.6 181.794 177.667 181.254 177.678C180.726 177.69 180.287 177.645 180.287 177.588V145.333C180.287 145.266 180.714 145.221 181.254 145.221Z" fill="#7D97F4"/>
<path d="M173.767 139.554L189.529 139.521V162.759L173.767 163.051V139.554Z" fill="#7D97F4"/>
<path d="M154.924 195.835C155.475 195.835 155.925 195.869 155.925 195.902V216.96C155.925 217.005 155.475 217.039 154.924 217.05C154.373 217.061 153.923 217.039 153.923 216.994V195.902C153.923 195.869 154.373 195.835 154.924 195.835Z" fill="#7D97F4"/>
<path d="M145.604 169.774L162.602 169.538V196.34L145.604 196.903V169.774Z" fill="#7D97F4"/>
<path d="M119.554 177.914L135.665 177.847V193.294L119.554 193.541V177.914Z" fill="#7D97F4"/>
<path d="M92.3696 172.799L108.492 172.282V195.296L92.3696 196.105V172.799Z" fill="#7D97F4"/>
<path d="M72.6051 205.312C73.156 205.301 73.6057 205.324 73.6057 205.369V230.08C73.6057 230.125 73.156 230.181 72.6051 230.215C72.0542 230.237 71.6045 230.226 71.6045 230.17V205.414C71.6045 205.38 72.0542 205.324 72.6051 205.312Z" fill="#7D97F4"/>
<path d="M65.2749 214.881L82.004 214.139V231.149L65.2749 232.116V214.881Z" fill="#7D97F4"/>
<path d="M38.7646 171.225L54.763 170.865V186.65L38.7646 187.212V171.225Z" fill="#7D97F4"/>
<path d="M46.8141 242.358C46.2407 242.403 45.7798 242.324 45.7798 242.178V164.109C45.7798 163.962 46.2407 163.827 46.8141 163.816C47.3875 163.805 47.8484 163.917 47.8484 164.064V242.009C47.8484 242.155 47.3875 242.313 46.8141 242.358Z" fill="url(#paint4_linear)"/>
<path d="M54.763 216.601L38.7646 217.691V186.482L54.763 185.796V216.601Z" fill="url(#paint5_linear)"/>
<path d="M74.3815 240.368C73.8306 240.413 73.3809 240.368 73.3809 240.267V185.38C73.3809 185.279 73.8306 185.166 74.3815 185.144C74.9323 185.121 75.382 185.189 75.382 185.29V240.087C75.382 240.188 74.9323 240.323 74.3815 240.368Z" fill="url(#paint6_linear)"/>
<path d="M82.0377 220.681L65.7246 221.794V203.424L82.0377 202.547V220.681Z" fill="url(#paint7_linear)"/>
<path d="M100.746 249.441C100.217 249.508 99.7788 249.418 99.7788 249.261V163.401C99.7788 163.232 100.206 163.086 100.746 163.063C101.274 163.041 101.701 163.153 101.701 163.322V249.036C101.713 249.194 101.274 249.373 100.746 249.441Z" fill="url(#paint8_linear)"/>
<path d="M108.492 225.944L91.9648 227.349V189.922L108.492 188.978V225.944Z" fill="url(#paint9_linear)"/>
<path d="M126.828 228.316C126.255 228.394 125.794 228.372 125.794 228.271V174.272C125.794 174.171 126.255 174.036 126.828 173.98C127.402 173.924 127.863 173.957 127.863 174.07V227.978C127.863 228.091 127.402 228.237 126.828 228.316Z" fill="url(#paint10_linear)"/>
<path d="M135.665 203.66L118.79 204.661V192.845L135.665 191.99V203.66Z" fill="url(#paint11_linear)"/>
<path d="M154.823 185.83C154.261 185.852 153.811 185.773 153.811 185.639V120.476C153.811 120.353 154.272 120.251 154.823 120.263C155.385 120.263 155.835 120.375 155.835 120.499V185.56C155.835 185.695 155.374 185.807 154.823 185.83Z" fill="url(#paint12_linear)"/>
<path d="M162.603 169.685L146.29 170.146V137.25L162.603 137.183V169.685Z" fill="url(#paint13_linear)"/>
<path d="M181.31 217.478C180.782 217.511 180.354 217.399 180.354 217.23V127.705C180.354 127.536 180.782 127.401 181.31 127.401C181.839 127.401 182.266 127.548 182.266 127.716V217.107C182.266 217.275 181.839 217.444 181.31 217.478Z" fill="url(#paint14_linear)"/>
<path d="M189.529 191.608L173.418 192.283V151.933L189.529 151.73V191.608Z" fill="url(#paint15_linear)"/>
<path d="M208.236 208.754C207.73 208.799 207.314 208.72 207.314 208.585V137.295C207.314 137.16 207.73 137.037 208.236 137.025C208.742 137.014 209.158 137.104 209.158 137.25V208.439C209.169 208.562 208.753 208.709 208.236 208.754Z" fill="url(#paint16_linear)"/>
<path d="M216.455 192.822L200.344 193.609V168.122L216.455 167.616V192.822Z" fill="url(#paint17_linear)"/>
<path d="M235.342 157.194C234.769 157.205 234.297 157.138 234.297 157.036V106.804C234.297 106.703 234.769 106.635 235.342 106.647C235.916 106.658 236.388 106.737 236.388 106.838V157.014C236.388 157.093 235.927 157.183 235.342 157.194Z" fill="url(#paint18_linear)"/>
<path d="M243.381 159.354L227.226 159.691V121.083L243.381 121.162V159.354Z" fill="url(#paint19_linear)"/>
<path d="M262.291 207.966C261.718 207.978 261.246 207.854 261.246 207.697V125.839C261.246 125.681 261.718 125.569 262.291 125.603C262.865 125.625 263.337 125.771 263.337 125.929V207.674C263.337 207.831 262.865 207.966 262.291 207.966Z" fill="url(#paint20_linear)"/>
<path d="M270.308 189.394L254.186 189.383V158.915L270.308 159.252V189.394Z" fill="url(#paint21_linear)"/>
<path d="M289.645 147.593C289.049 147.604 288.577 147.537 288.577 147.436V95.2361C288.577 95.1349 289.061 95.0562 289.645 95.0675C290.241 95.0787 290.713 95.1574 290.713 95.2586V147.391C290.713 147.492 290.23 147.582 289.645 147.593Z" fill="url(#paint22_linear)"/>
<path d="M297.863 127.357L281.336 127.537V108.042L297.863 108.053V127.357Z" fill="url(#paint23_linear)"/>
<path d="M214.015 153.721C249.681 153.721 278.593 124.809 278.593 89.1433C278.593 53.4779 249.681 24.5654 214.015 24.5654C178.35 24.5654 149.438 53.4779 149.438 89.1433C149.438 124.809 178.35 153.721 214.015 153.721Z" fill="url(#paint24_linear)"/>
<path d="M214.015 151.573C248.495 151.573 276.446 123.622 276.446 89.1424C276.446 54.663 248.495 26.7119 214.015 26.7119C179.536 26.7119 151.585 54.663 151.585 89.1424C151.585 123.622 179.536 151.573 214.015 151.573Z" fill="url(#paint25_linear)"/>
<path d="M162.535 63.588C162.479 63.588 162.423 63.5767 162.367 63.543C162.176 63.4418 162.097 63.2169 162.198 63.0258C166.965 53.582 174.228 45.6109 183.199 39.9784C192.418 34.1884 203.077 31.1191 214.027 31.1191C217.546 31.1191 221.065 31.4339 224.494 32.0635C224.707 32.0973 224.842 32.2996 224.809 32.5132C224.775 32.7268 224.573 32.8618 224.359 32.828C220.975 32.2097 217.501 31.8949 214.027 31.8949C192.284 31.8949 172.699 43.9583 162.895 63.3744C162.816 63.5093 162.682 63.588 162.535 63.588Z" fill="white"/>
<path opacity="0.78" d="M252.742 127.868C273.377 107.233 273.377 73.7762 252.742 53.1409C232.106 32.5055 198.65 32.5055 178.014 53.1409C157.379 73.7762 157.379 107.233 178.014 127.868C198.65 148.503 232.106 148.503 252.742 127.868Z" fill="white"/>
<path d="M55.5161 305.103C55.5161 305.103 54.9427 308.374 54.6504 311.612C54.538 312.883 55.5161 313.973 56.7865 314.029C61.1037 314.209 70.3339 314.558 73.6392 314.412C74.1339 314.389 74.46 313.883 74.2801 313.411C74.1227 313.017 73.8304 312.714 73.4481 312.534L58.2031 305.53L55.5161 305.103Z" fill="url(#paint26_linear)"/>
<path d="M55.0439 303.18L55.5049 307.093C55.5049 307.093 58.1807 308.341 60.002 306.935L58.9002 302.573L55.0439 303.18Z" fill="url(#paint27_linear)"/>
<path d="M55.3921 229.563C55.1897 230.587 54.3128 280.583 59.6643 303.001C59.7542 303.372 59.5631 303.743 59.2146 303.889C58.3939 304.226 56.7862 304.709 54.8637 304.777C54.2678 304.799 53.7282 304.406 53.5595 303.833C52.0305 298.638 44.7116 272.589 43.7559 247.698C42.6879 219.895 43.7559 246.754 43.7559 246.754L44.3855 229.563H55.3921Z" fill="url(#paint28_linear)"/>
<path d="M37.9776 306.812C37.9776 306.812 37.0557 308.465 36.1675 312.861C36.0101 313.659 36.561 314.413 37.3705 314.491C38.7983 314.626 40.9906 314.806 42.7445 314.795C43.5539 314.795 44.1835 314.087 44.0936 313.277C43.9025 311.669 43.2954 309.05 41.4178 306.992L37.9776 306.812Z" fill="url(#paint29_linear)"/>
<path d="M37.168 301.775L38.2585 307.7C38.2585 307.7 39.3266 308.498 41.4514 307.924L40.9343 301.55L37.168 301.775Z" fill="url(#paint30_linear)"/>
<path d="M34.2336 231.104C29.8602 257.49 35.178 296.311 36.9768 303.911C37.0893 304.372 37.4603 304.732 37.9325 304.81C38.7307 304.945 40.0573 305.047 41.3502 304.676C41.7999 304.541 42.1147 304.136 42.126 303.675C42.3621 297.536 41.9349 259.817 46.0047 244.91C46.2071 244.156 46.668 243.493 47.3089 243.043L55.2125 237.422L55.8196 228.338L34.2336 231.104Z" fill="url(#paint31_linear)"/>
<path d="M62.0927 181.118C48.995 180.904 34.5369 184.558 34.5369 184.558C30.6357 207.347 33.8511 233.621 33.8511 233.621C43.992 236.286 55.437 231.991 55.437 231.991C57.1234 222.469 64.9821 195.666 64.9821 195.666C71.3791 194.868 76.6519 193.024 81.0029 190.584C77.6863 186.751 76.1348 181.86 75.449 178.971C70.817 180.41 66.1288 181.186 62.0927 181.118Z" fill="url(#paint32_linear)"/>
<path d="M100.79 161.815C99.5085 160.263 97.8783 160.994 97.8783 160.994C95.9558 169.134 85.8374 175.745 75.4604 178.971C76.135 181.861 77.6977 186.74 81.0143 190.585C98.2381 180.894 100.79 161.815 100.79 161.815Z" fill="url(#paint33_linear)"/>
<path d="M100.476 162.22C100.611 162.647 99.0479 163.299 98.1372 161.545C98.1035 160.702 97.5976 157.116 98.0923 156.43C100.768 152.787 105.94 148.223 105.94 148.223C106.817 149.088 106.097 149.932 106.097 149.932L103.59 152.551C104.118 153.495 104.759 154.305 105.051 155.452C105.276 156.317 105.141 157.25 104.703 158.037C104.264 158.836 103.657 159.859 103.095 160.668C102.005 162.208 100.476 162.22 100.476 162.22Z" fill="url(#paint34_linear)"/>
<path d="M102.477 154.249L100.183 156.194L99.4639 158.128L101.51 160.388C101.51 160.388 102.196 156.554 102.702 155.722C103.219 154.89 102.96 154.496 102.477 154.249Z" fill="url(#paint35_linear)"/>
<path d="M39.5624 197.24L34.5369 184.559C34.5369 184.559 22.3049 192.878 20.2925 203.413C22.6085 203.581 26.8132 204.188 30.928 206.268C31.8274 201.288 39.5624 197.24 39.5624 197.24Z" fill="url(#paint36_linear)"/>
<path d="M50.2545 209.18C50.2545 209.18 36.5159 216.948 31.8839 210.315C30.9171 208.944 30.6922 207.572 30.9283 206.268C26.8135 204.188 22.6087 203.592 20.2927 203.412C19.6856 206.594 20.0117 209.967 21.878 213.384C29.9952 228.236 52.0758 212.564 52.0758 212.564L50.2545 209.18Z" fill="url(#paint37_linear)"/>
<path d="M48.6018 218.995L56.1007 192.811C56.1906 192.519 56.4379 192.294 56.7415 192.26C58.1018 192.103 62.0368 191.653 66.5788 191.271C72.054 190.81 78.4061 190.428 82.2061 190.754C82.7458 190.799 83.0718 191.372 82.8357 191.855C80.6771 196.229 71.7842 214.003 67.3433 219.827C67.1972 220.018 66.9723 220.131 66.725 220.131L49.3326 219.973C48.8266 219.973 48.4669 219.49 48.6018 218.995Z" fill="url(#paint38_linear)"/>
<path d="M67.3658 189.011L72.8073 188.101C73.0996 188.056 73.3357 188.325 73.2457 188.607L72.7061 190.237C72.6611 190.383 72.5374 190.484 72.3913 190.507L67.1634 191.204C66.8936 191.237 66.6688 190.99 66.7362 190.731L67.0735 189.304C67.0847 189.146 67.2084 189.034 67.3658 189.011Z" fill="#7D97F4"/>
<path d="M63.296 193.609L63.7457 191.282C63.7907 191.046 63.9818 190.866 64.2179 190.844L75.202 189.731C75.573 189.697 75.8653 190.034 75.7753 190.394L75.0783 193.306C75.0221 193.542 74.8197 193.711 74.5836 193.722L63.8582 194.262C63.4984 194.262 63.2286 193.958 63.296 193.609Z" fill="#7D97F4"/>
<path d="M50.4118 212.677C50.4118 212.677 49.3663 208.382 49.7935 206.853C50.2095 205.324 51.0302 203.368 53.7509 203.807C56.4716 204.245 59.6757 205.392 59.6757 205.392C59.6757 205.392 59.5184 207.382 57.4497 206.741L58.7314 207.73C58.7314 207.73 58.5515 209.316 56.7976 208.472L57.9894 209.788C57.9894 209.788 57.2361 211.092 55.9544 210.26C54.6728 209.417 54.0544 213.194 50.4118 212.677Z" fill="url(#paint39_linear)"/>
<path d="M48.8266 170.483L44.6556 182.536C44.5882 182.738 44.6669 182.952 44.858 183.064C45.9935 183.694 50.0858 185.504 55.0213 182.378C55.5385 182.052 55.887 181.524 55.9657 180.917L57.3148 170.483H48.8266Z" fill="url(#paint40_linear)"/>
<path d="M57.8886 159.319C57.8886 159.319 62.4643 167.931 61.8797 171.416C61.2951 174.902 55.6175 174.643 50.6708 171.821L47.208 162.512L57.8886 159.319Z" fill="url(#paint41_linear)"/>
<path d="M50.8843 167.245C51.0866 167.155 51.1653 166.908 51.0416 166.728C50.6706 166.166 49.9848 165.03 49.7712 164.03C49.7712 164.03 48.9505 163.501 51.8624 162.804C54.7742 162.107 59.1251 161.017 60.047 158.543C60.9352 156.126 58.5967 150.033 54.8642 154.89C54.718 155.069 54.4482 155.081 54.302 154.89C53.6949 154.091 52.076 152.439 49.8387 153.439C47.7475 154.384 47.5114 155.913 47.5339 156.688C47.5452 156.913 47.3428 157.093 47.118 157.048C46.0611 156.846 43.5203 156.677 42.3398 159.274C41.3617 161.422 42.0025 162.636 42.5759 163.232C42.767 163.423 42.6771 163.738 42.4298 163.816C41.7327 164.03 40.8333 164.615 40.9232 166.245C41.0469 168.493 43.5653 168.302 44.2848 168.201C44.3972 168.19 44.5209 168.223 44.5996 168.313C45.2179 168.999 47.9836 171.877 50.9854 172.226C51.244 172.26 51.4464 172.001 51.3564 171.754L50.0635 167.987C50.0073 167.807 50.086 167.616 50.2547 167.549L50.8843 167.245Z" fill="url(#paint42_linear)"/>
<path d="M51.4128 167.786C51.4128 167.786 48.1524 165.549 47.9163 167.437C47.6802 169.315 50.8506 170.169 52.4246 169.461L51.4128 167.786Z" fill="url(#paint43_linear)"/>
<path d="M265.833 275.469H263.112V304.913H265.833V275.469Z" fill="url(#paint44_linear)"/>
<path d="M276.39 305.475H252.544V304.002C252.544 303.845 252.679 303.71 252.836 303.71H276.097C276.255 303.71 276.39 303.845 276.39 304.002V305.475Z" fill="url(#paint45_linear)"/>
<path d="M279.931 274.445C279.931 276.053 278.616 277.368 277.008 277.368H252.881C251.273 277.368 249.958 276.053 249.958 274.445V271.803C249.958 270.195 251.273 268.88 252.881 268.88H277.008C278.616 268.88 279.931 270.195 279.931 271.803V274.445Z" fill="url(#paint46_linear)"/>
<path d="M244.371 255.839C244.371 255.839 240.323 256.468 235.781 259.504C235.062 259.987 234.668 260.819 234.781 261.674C235.32 265.991 237.569 279.954 244.944 293.592C245.338 294.311 245.45 295.143 245.27 295.953L243.988 301.923L241.605 304.149H247.732L251.813 293.108L250.071 292.557C248.722 292.13 247.788 290.882 247.766 289.466L247.564 277.616C247.743 272.343 244.326 268.7 244.326 268.7L254.118 268.228L244.371 255.839Z" fill="url(#paint47_linear)"/>
<path d="M239.221 305.217C238.659 305.948 245.225 306.915 248.542 305.318C248.542 305.318 253.14 297.314 253.14 293.199C253.14 293.199 252.78 292.356 250.071 292.547C250.071 292.547 248.53 302.013 246.9 303.081C245.27 304.138 242.336 303.193 242.336 303.193C242.336 303.193 240.042 304.138 239.221 305.217Z" fill="url(#paint48_linear)"/>
<path d="M252.882 268.869C252.825 268.779 242.347 267.61 242.347 267.61C242.347 267.61 242.696 270.803 241.616 275.188C240.548 279.572 225.146 298.595 225.146 298.595L226.765 303.71C221.773 305.453 216.86 305.723 212.037 304.599L222.043 298.595C222.043 298.595 231.408 266.688 237.142 261L247.654 257.368L252.882 268.869Z" fill="url(#paint49_linear)"/>
<path d="M276.39 250.308C276.39 250.308 282.427 259.291 282.922 263.394C283.416 267.498 281.269 269.162 274.928 269.431C268.587 269.701 251.667 269.701 251.667 269.701L237.22 257.357C237.22 257.357 247.743 253.602 250.487 252.545C253.23 251.477 276.39 250.308 276.39 250.308Z" fill="url(#paint50_linear)"/>
<path d="M226.146 301.979C226.146 301.979 227.889 303.665 226.708 305.531C226.708 305.531 212.947 307.971 209.204 306.869C209.204 306.869 209.979 305.093 214.184 303.08L213.869 303.316C213.476 303.62 213.712 304.249 214.207 304.216C216.995 304.058 222.728 303.552 226.146 301.979Z" fill="url(#paint51_linear)"/>
<path d="M260.054 249.115C260.054 249.115 253.016 242.415 249.553 237.985C247.687 235.59 247.091 232.431 247.957 229.508C249.542 224.179 252.352 218.67 252.6 217.804C252.993 216.489 260.886 216.545 260.886 216.545C260.886 216.545 276.412 226.619 282.505 243.685L275.658 245.821C275.658 245.821 271.611 239.019 267.597 234.702C267.597 234.702 274.523 243.854 274.77 247.598L260.054 249.115Z" fill="url(#paint52_linear)"/>
<path d="M251.655 210.451C251.734 210.721 253.791 217.546 253.96 217.692C254.117 217.838 258.48 218.063 260.526 216.669L257.052 209.395L251.655 210.451Z" fill="url(#paint53_linear)"/>
<path d="M255.039 196.118C255.039 196.118 251.318 197.692 248.8 203.055C246.27 208.429 248.159 210.902 250.531 211.251C252.903 211.588 256.445 211.543 260.2 208.069C263.944 204.595 259.874 194.252 255.039 196.118Z" fill="url(#paint54_linear)"/>
<path d="M257.67 205.201C257.67 205.201 260.47 197.343 253.511 197.253L251.869 198.4C251.869 198.4 249.317 194.049 253.511 191.969C257.704 189.889 263.966 191.744 265.754 197.388C267.542 203.043 266.496 206.685 263.528 209.395C260.56 212.104 259.334 209.035 259.334 209.035C259.334 209.035 260.953 206.506 260.29 205.156C259.627 203.807 258.109 205.437 258.109 205.437L257.67 205.201Z" fill="url(#paint55_linear)"/>
<path d="M258.446 206.079C258.446 206.079 259.862 202.032 261.751 203.639C263.64 205.247 260.211 207.383 258.873 208.069L258.446 206.079Z" fill="url(#paint56_linear)"/>
<path d="M245.719 249.609L250.891 244.629L258.041 247.653C258.041 247.653 265.158 248.755 269.228 247.653C273.297 246.551 273.297 246.551 273.297 246.551L282.505 243.685L283.955 247.766C284.326 248.8 283.955 249.958 283.056 250.588C282.258 251.15 281.325 251.779 280.729 252.038C279.515 252.566 250.846 251.667 250.846 251.667L245.719 249.609Z" fill="url(#paint57_linear)"/>
<path d="M265.203 198.264C264.303 197.354 264.888 195.802 266.158 195.611C270.24 194.97 276.468 195.622 279.087 204.369C282.033 214.218 283.955 219.142 285.923 220.008C287.216 220.57 287.295 222.369 286.013 222.942C285.057 223.369 283.697 223.527 281.752 223.088C266.687 219.783 270.453 203.638 265.203 198.264Z" fill="url(#paint58_linear)"/>
<path d="M265.281 251.961C265.259 251.961 265.236 251.961 265.214 251.961L235.229 251.927C234.487 251.927 233.892 251.32 233.892 250.589C233.892 249.847 234.499 249.24 235.229 249.251L265.214 249.285C265.956 249.285 266.552 249.892 266.552 250.623C266.552 251.342 265.989 251.927 265.281 251.961Z" fill="url(#paint59_linear)"/>
<path d="M208.281 224.741H233.251C235.095 224.741 236.77 225.809 237.557 227.473L249.103 251.948H218.073C216.881 251.948 215.825 251.218 215.386 250.116L206.437 227.462C205.909 226.158 206.875 224.741 208.281 224.741Z" fill="url(#paint60_linear)"/>
<path d="M225.876 237.289C226.415 238.975 226.022 240.605 224.987 240.931C223.953 241.268 222.671 240.167 222.132 238.492C221.592 236.805 221.986 235.175 223.02 234.849C224.054 234.512 225.325 235.613 225.876 237.289Z" fill="#91B3FA"/>
<path d="M307.183 253.05C307.25 252.713 307.16 252.353 306.924 252.094C306.688 251.824 306.34 251.667 305.969 251.667H180.86C180.377 251.667 179.927 251.903 179.657 252.285C179.399 252.668 179.365 253.151 179.568 253.567L180.928 256.321C181.243 256.951 181.906 257.356 182.648 257.356H305.114C305.8 257.356 306.396 256.895 306.531 256.265L307.183 253.05Z" fill="#7D97F4"/>
<path d="M187.876 311.028C187.73 311.028 187.584 310.994 187.437 310.938C186.875 310.691 186.628 310.027 186.864 309.465L209.889 254.691C210.125 254.118 210.777 253.859 211.328 254.106C211.89 254.354 212.138 255.017 211.901 255.579L188.876 310.353C188.708 310.769 188.303 311.028 187.876 311.028Z" fill="#7D97F4"/>
<path d="M213.813 311.028C213.385 311.028 212.981 310.77 212.801 310.354L189.776 255.58C189.54 255.006 189.798 254.354 190.349 254.107C190.911 253.859 191.552 254.129 191.788 254.691L214.813 309.466C215.049 310.039 214.791 310.691 214.24 310.938C214.105 310.995 213.959 311.028 213.813 311.028Z" fill="#7D97F4"/>
<path d="M278.548 311.028C278.402 311.028 278.256 310.994 278.11 310.938C277.548 310.691 277.3 310.027 277.536 309.465L300.561 254.691C300.797 254.118 301.449 253.859 302 254.106C302.562 254.354 302.81 255.017 302.574 255.579L279.549 310.353C279.38 310.769 278.975 311.028 278.548 311.028Z" fill="#7D97F4"/>
<path d="M304.496 311.028C304.069 311.028 303.664 310.77 303.484 310.354L280.459 255.58C280.223 255.006 280.482 254.354 281.032 254.107C281.595 253.859 282.235 254.129 282.471 254.691L305.496 309.466C305.732 310.039 305.474 310.691 304.923 310.938C304.788 310.995 304.631 311.028 304.496 311.028Z" fill="#7D97F4"/>
<path fill-rule="evenodd" clip-rule="evenodd" d="M227.692 117.334H204.18C199.619 117.334 196.15 116.328 193.773 114.249C191.397 112.237 190.24 109.219 190.24 105.262V91.2002H206.493V100.768C206.493 103.987 208.227 105.53 211.696 105.53H220.69C223.58 105.396 225.251 104.189 225.636 101.908V91.2002H241.76V104.993C241.76 107.005 241.375 108.749 240.732 110.225C240.026 111.767 239.062 113.041 237.842 114.114C236.621 115.187 235.144 115.992 233.409 116.529C231.675 117.065 229.747 117.334 227.692 117.334ZM241.76 83.7336V91.2002H252.8V83.7336H241.76ZM225.636 83.7336H241.76V65.0669H225.636V83.7336ZM190.24 83.7336V91.2002H179.2V83.7336H190.24ZM190.24 83.7336V65.0669H206.493V83.7336H190.24Z" fill="#FF7A6E"/>
</g>
<defs>
<linearGradient id="paint0_linear" x1="124.359" y1="135.196" x2="73.1411" y2="120.898" gradientUnits="userSpaceOnUse">
<stop stop-color="#DAE3FE"/>
<stop offset="1" stop-color="#E9EFFD"/>
</linearGradient>
<linearGradient id="paint1_linear" x1="139.775" y1="253.935" x2="208.036" y2="49.1537" gradientUnits="userSpaceOnUse">
<stop stop-color="#09005D"/>
<stop offset="1" stop-color="#1A0F91"/>
</linearGradient>
<linearGradient id="paint2_linear" x1="25.9148" y1="177.754" x2="27.0488" y2="177.754" gradientUnits="userSpaceOnUse">
<stop stop-color="#DAE3FE"/>
<stop offset="1" stop-color="#E9EFFD"/>
</linearGradient>
<linearGradient id="paint3_linear" x1="24.9667" y1="124.26" x2="123.868" y2="124.26" gradientUnits="userSpaceOnUse">
<stop stop-color="#DAE3FE"/>
<stop offset="1" stop-color="#E9EFFD"/>
</linearGradient>
<linearGradient id="paint4_linear" x1="45.7765" y1="203.093" x2="47.8507" y2="203.093" gradientUnits="userSpaceOnUse">
<stop stop-color="#4F52FF"/>
<stop offset="1" stop-color="#4042E2"/>
</linearGradient>
<linearGradient id="paint5_linear" x1="52.8896" y1="180.971" x2="38.0343" y2="230.854" gradientUnits="userSpaceOnUse">
<stop stop-color="#4F52FF"/>
<stop offset="1" stop-color="#4042E2"/>
</linearGradient>
<linearGradient id="paint6_linear" x1="73.3867" y1="212.761" x2="75.3832" y2="212.761" gradientUnits="userSpaceOnUse">
<stop stop-color="#4F52FF"/>
<stop offset="1" stop-color="#4042E2"/>
</linearGradient>
<linearGradient id="paint7_linear" x1="77.9131" y1="198.511" x2="68.1422" y2="231.321" gradientUnits="userSpaceOnUse">
<stop stop-color="#4F52FF"/>
<stop offset="1" stop-color="#4042E2"/>
</linearGradient>
<linearGradient id="paint8_linear" x1="99.7853" y1="206.258" x2="101.708" y2="206.258" gradientUnits="userSpaceOnUse">
<stop stop-color="#4F52FF"/>
<stop offset="1" stop-color="#4042E2"/>
</linearGradient>
<linearGradient id="paint9_linear" x1="107.464" y1="183.631" x2="89.9191" y2="242.544" gradientUnits="userSpaceOnUse">
<stop stop-color="#4F52FF"/>
<stop offset="1" stop-color="#4042E2"/>
</linearGradient>
<linearGradient id="paint10_linear" x1="125.795" y1="201.163" x2="127.867" y2="201.163" gradientUnits="userSpaceOnUse">
<stop stop-color="#4F52FF"/>
<stop offset="1" stop-color="#4042E2"/>
</linearGradient>
<linearGradient id="paint11_linear" x1="130.195" y1="188.297" x2="123.023" y2="212.381" gradientUnits="userSpaceOnUse">
<stop stop-color="#4F52FF"/>
<stop offset="1" stop-color="#4042E2"/>
</linearGradient>
<linearGradient id="paint12_linear" x1="153.802" y1="153.053" x2="155.833" y2="153.053" gradientUnits="userSpaceOnUse">
<stop stop-color="#4F52FF"/>
<stop offset="1" stop-color="#4042E2"/>
</linearGradient>
<linearGradient id="paint13_linear" x1="160.773" y1="132.223" x2="145.44" y2="183.71" gradientUnits="userSpaceOnUse">
<stop stop-color="#4F52FF"/>
<stop offset="1" stop-color="#4042E2"/>
</linearGradient>
<linearGradient id="paint14_linear" x1="180.355" y1="172.443" x2="182.268" y2="172.443" gradientUnits="userSpaceOnUse">
<stop stop-color="#4F52FF"/>
<stop offset="1" stop-color="#4042E2"/>
</linearGradient>
<linearGradient id="paint15_linear" x1="189.059" y1="146.3" x2="170.676" y2="208.029" gradientUnits="userSpaceOnUse">
<stop stop-color="#4F52FF"/>
<stop offset="1" stop-color="#4042E2"/>
</linearGradient>
<linearGradient id="paint16_linear" x1="207.315" y1="172.891" x2="209.165" y2="172.891" gradientUnits="userSpaceOnUse">
<stop stop-color="#4F52FF"/>
<stop offset="1" stop-color="#4042E2"/>
</linearGradient>
<linearGradient id="paint17_linear" x1="213.552" y1="163.165" x2="201.07" y2="205.078" gradientUnits="userSpaceOnUse">
<stop stop-color="#4F52FF"/>
<stop offset="1" stop-color="#4042E2"/>
</linearGradient>
<linearGradient id="paint18_linear" x1="234.297" y1="131.919" x2="236.391" y2="131.919" gradientUnits="userSpaceOnUse">
<stop stop-color="#4F52FF"/>
<stop offset="1" stop-color="#4042E2"/>
</linearGradient>
<linearGradient id="paint19_linear" x1="242.552" y1="115.87" x2="224.989" y2="174.844" gradientUnits="userSpaceOnUse">
<stop stop-color="#4F52FF"/>
<stop offset="1" stop-color="#4042E2"/>
</linearGradient>
<linearGradient id="paint20_linear" x1="261.244" y1="166.782" x2="263.333" y2="166.782" gradientUnits="userSpaceOnUse">
<stop stop-color="#4F52FF"/>
<stop offset="1" stop-color="#4042E2"/>
</linearGradient>
<linearGradient id="paint21_linear" x1="268.093" y1="154.521" x2="253.936" y2="202.058" gradientUnits="userSpaceOnUse">
<stop stop-color="#4F52FF"/>
<stop offset="1" stop-color="#4042E2"/>
</linearGradient>
<linearGradient id="paint22_linear" x1="288.571" y1="121.334" x2="290.714" y2="121.334" gradientUnits="userSpaceOnUse">
<stop stop-color="#4F52FF"/>
<stop offset="1" stop-color="#4042E2"/>
</linearGradient>
<linearGradient id="paint23_linear" x1="293.689" y1="103.969" x2="283.797" y2="137.187" gradientUnits="userSpaceOnUse">
<stop stop-color="#4F52FF"/>
<stop offset="1" stop-color="#4042E2"/>
</linearGradient>
<linearGradient id="paint24_linear" x1="277.187" y1="-29.8295" x2="242.489" y2="35.5174" gradientUnits="userSpaceOnUse">
<stop stop-color="#E1473D"/>
<stop offset="1" stop-color="#E9605A"/>
</linearGradient>
<linearGradient id="paint25_linear" x1="219.997" y1="34.6367" x2="204.961" y2="171.691" gradientUnits="userSpaceOnUse">
<stop stop-color="#FF928E"/>
<stop offset="1" stop-color="#FE7062"/>
</linearGradient>
<linearGradient id="paint26_linear" x1="73.1653" y1="300.578" x2="17.3322" y2="361.309" gradientUnits="userSpaceOnUse">
<stop stop-color="#09005D"/>
<stop offset="1" stop-color="#1A0F91"/>
</linearGradient>
<linearGradient id="paint27_linear" x1="55.043" y1="305.089" x2="60.0023" y2="305.089" gradientUnits="userSpaceOnUse">
<stop stop-color="#FEBBBA"/>
<stop offset="1" stop-color="#FF928E"/>
</linearGradient>
<linearGradient id="paint28_linear" x1="43.2829" y1="267.169" x2="59.6808" y2="267.169" gradientUnits="userSpaceOnUse">
<stop stop-color="#09005D"/>
<stop offset="1" stop-color="#1A0F91"/>
</linearGradient>
<linearGradient id="paint29_linear" x1="60.6402" y1="289.064" x2="4.80732" y2="349.795" gradientUnits="userSpaceOnUse">
<stop stop-color="#09005D"/>
<stop offset="1" stop-color="#1A0F91"/>
</linearGradient>
<linearGradient id="paint30_linear" x1="37.1695" y1="304.835" x2="41.4514" y2="304.835" gradientUnits="userSpaceOnUse">
<stop stop-color="#FEBBBA"/>
<stop offset="1" stop-color="#FF928E"/>
</linearGradient>
<linearGradient id="paint31_linear" x1="32.5542" y1="266.632" x2="55.8341" y2="266.632" gradientUnits="userSpaceOnUse">
<stop stop-color="#09005D"/>
<stop offset="1" stop-color="#1A0F91"/>
</linearGradient>
<linearGradient id="paint32_linear" x1="179.427" y1="65.1035" x2="134.898" y2="112.523" gradientUnits="userSpaceOnUse">
<stop stop-color="#FF928E"/>
<stop offset="1" stop-color="#FE7062"/>
</linearGradient>
<linearGradient id="paint33_linear" x1="75.4503" y1="175.707" x2="100.787" y2="175.707" gradientUnits="userSpaceOnUse">
<stop stop-color="#FEBBBA"/>
<stop offset="1" stop-color="#FF928E"/>
</linearGradient>
<linearGradient id="paint34_linear" x1="95.1427" y1="171.46" x2="78.1416" y2="210.141" gradientUnits="userSpaceOnUse">
<stop stop-color="#FEBBBA"/>
<stop offset="1" stop-color="#FF928E"/>
</linearGradient>
<linearGradient id="paint35_linear" x1="100.665" y1="158.578" x2="107.759" y2="147.671" gradientUnits="userSpaceOnUse">
<stop stop-color="#FEBBBA"/>
<stop offset="1" stop-color="#FF928E"/>
</linearGradient>
<linearGradient id="paint36_linear" x1="166.208" y1="52.6904" x2="121.679" y2="100.11" gradientUnits="userSpaceOnUse">
<stop stop-color="#FF928E"/>
<stop offset="1" stop-color="#FE7062"/>
</linearGradient>
<linearGradient id="paint37_linear" x1="20.0094" y1="211.594" x2="52.0727" y2="211.594" gradientUnits="userSpaceOnUse">
<stop stop-color="#FEBBBA"/>
<stop offset="1" stop-color="#FF928E"/>
</linearGradient>
<linearGradient id="paint38_linear" x1="61.7729" y1="188.799" x2="79.4032" y2="262.259" gradientUnits="userSpaceOnUse">
<stop stop-color="#09005D"/>
<stop offset="1" stop-color="#1A0F91"/>
</linearGradient>
<linearGradient id="paint39_linear" x1="49.6921" y1="208.233" x2="59.681" y2="208.233" gradientUnits="userSpaceOnUse">
<stop stop-color="#FEBBBA"/>
<stop offset="1" stop-color="#FF928E"/>
</linearGradient>
<linearGradient id="paint40_linear" x1="44.6295" y1="177.318" x2="57.3063" y2="177.318" gradientUnits="userSpaceOnUse">
<stop stop-color="#FEBBBA"/>
<stop offset="1" stop-color="#FF928E"/>
</linearGradient>
<linearGradient id="paint41_linear" x1="60.3216" y1="169.253" x2="46.3834" y2="160.752" gradientUnits="userSpaceOnUse">
<stop stop-color="#FEBBBA"/>
<stop offset="1" stop-color="#FF928E"/>
</linearGradient>
<linearGradient id="paint42_linear" x1="39.0054" y1="151.79" x2="57.0118" y2="166.012" gradientUnits="userSpaceOnUse">
<stop stop-color="#09005D"/>
<stop offset="1" stop-color="#1A0F91"/>
</linearGradient>
<linearGradient id="paint43_linear" x1="56.6607" y1="172.424" x2="44.1204" y2="164.775" gradientUnits="userSpaceOnUse">
<stop stop-color="#FEBBBA"/>
<stop offset="1" stop-color="#FF928E"/>
</linearGradient>
<linearGradient id="paint44_linear" x1="276.376" y1="244.325" x2="235.775" y2="400.715" gradientUnits="userSpaceOnUse">
<stop stop-color="#09005D"/>
<stop offset="1" stop-color="#1A0F91"/>
</linearGradient>
<linearGradient id="paint45_linear" x1="280.58" y1="242.665" x2="238.32" y2="405.446" gradientUnits="userSpaceOnUse">
<stop stop-color="#09005D"/>
<stop offset="1" stop-color="#1A0F91"/>
</linearGradient>
<linearGradient id="paint46_linear" x1="272.667" y1="243.362" x2="232.065" y2="399.753" gradientUnits="userSpaceOnUse">
<stop stop-color="#09005D"/>
<stop offset="1" stop-color="#1A0F91"/>
</linearGradient>
<linearGradient id="paint47_linear" x1="234.759" y1="279.988" x2="254.117" y2="279.988" gradientUnits="userSpaceOnUse">
<stop stop-color="#FEBBBA"/>
<stop offset="1" stop-color="#FF928E"/>
</linearGradient>
<linearGradient id="paint48_linear" x1="246.603" y1="292.603" x2="243.756" y2="336.261" gradientUnits="userSpaceOnUse">
<stop stop-color="#4F52FF"/>
<stop offset="1" stop-color="#4042E2"/>
</linearGradient>
<linearGradient id="paint49_linear" x1="212.029" y1="281.311" x2="252.879" y2="281.311" gradientUnits="userSpaceOnUse">
<stop stop-color="#FEBBBA"/>
<stop offset="1" stop-color="#FF928E"/>
</linearGradient>
<linearGradient id="paint50_linear" x1="266.097" y1="234.754" x2="245.857" y2="324.389" gradientUnits="userSpaceOnUse">
<stop stop-color="#4F52FF"/>
<stop offset="1" stop-color="#4042E2"/>
</linearGradient>
<linearGradient id="paint51_linear" x1="219.127" y1="290.81" x2="216.28" y2="334.467" gradientUnits="userSpaceOnUse">
<stop stop-color="#4F52FF"/>
<stop offset="1" stop-color="#4042E2"/>
</linearGradient>
<linearGradient id="paint52_linear" x1="377.603" y1="23.4889" x2="342.906" y2="88.8357" gradientUnits="userSpaceOnUse">
<stop stop-color="#FF928E"/>
<stop offset="1" stop-color="#FE7062"/>
</linearGradient>
<linearGradient id="paint53_linear" x1="257.911" y1="225.245" x2="255.868" y2="212.134" gradientUnits="userSpaceOnUse">
<stop stop-color="#FEBBBA"/>
<stop offset="1" stop-color="#FF928E"/>
</linearGradient>
<linearGradient id="paint54_linear" x1="249.08" y1="200.537" x2="267.128" y2="212.796" gradientUnits="userSpaceOnUse">
<stop stop-color="#FEBBBA"/>
<stop offset="1" stop-color="#FF928E"/>
</linearGradient>
<linearGradient id="paint55_linear" x1="280.578" y1="177.506" x2="250.307" y2="209.002" gradientUnits="userSpaceOnUse">
<stop stop-color="#09005D"/>
<stop offset="1" stop-color="#1A0F91"/>
</linearGradient>
<linearGradient id="paint56_linear" x1="250.161" y1="198.944" x2="268.21" y2="211.204" gradientUnits="userSpaceOnUse">
<stop stop-color="#FEBBBA"/>
<stop offset="1" stop-color="#FF928E"/>
</linearGradient>
<linearGradient id="paint57_linear" x1="269.641" y1="247.946" x2="308.014" y2="247.946" gradientUnits="userSpaceOnUse">
<stop stop-color="#FEBBBA"/>
<stop offset="1" stop-color="#FF928E"/>
</linearGradient>
<linearGradient id="paint58_linear" x1="294.033" y1="190.438" x2="263.761" y2="221.933" gradientUnits="userSpaceOnUse">
<stop stop-color="#09005D"/>
<stop offset="1" stop-color="#1A0F91"/>
</linearGradient>
<linearGradient id="paint59_linear" x1="270.37" y1="243.995" x2="246.569" y2="251.802" gradientUnits="userSpaceOnUse">
<stop stop-color="#09005D"/>
<stop offset="1" stop-color="#1A0F91"/>
</linearGradient>
<linearGradient id="paint60_linear" x1="237.675" y1="228.389" x2="220.535" y2="246.505" gradientUnits="userSpaceOnUse">
<stop stop-color="#09005D"/>
<stop offset="1" stop-color="#1A0F91"/>
</linearGradient>
<clipPath id="clip0">
<rect width="320" height="314.795" fill="white"/>
</clipPath>
</defs>
</svg>
