<svg width="300" height="298" viewBox="0 0 300 298" fill="none" xmlns="http://www.w3.org/2000/svg">
<g clip-path="url(#clip0)">
<path d="M58.6565 147.89C58.6565 147.89 59.31 120.281 46.593 112.899C33.8761 105.507 9.70638 100.889 8.79574 61.2493C8.26006 38.0331 7.69224 27.8874 7.30656 23.4628C7.15657 21.7379 8.6886 20.3451 10.3921 20.6665C22.434 22.9378 61.5598 32.2693 69.7557 58.9781C79.4835 90.6258 58.6565 147.89 58.6565 147.89Z" fill="url(#paint0_linear)"/>
<g opacity="0.7">
<path opacity="0.7" d="M19.7023 31.6907C32.9227 43.4863 48.211 64.3455 56.3532 85.2155C57.4032 88.6545 60.4565 95.9718 61.785 108.957C62.9742 119.788 62.3849 131.241 60.9386 138.826C60.8529 139.308 60.3815 139.619 59.9101 139.533C59.0852 139.372 59.1923 138.494 59.203 138.515C60.8422 125.563 60.1672 109.449 56.3961 94.9005C51.5857 77.041 40.8615 59.728 29.7623 45.0398L28.6159 43.5934C20.0237 32.5478 18.2131 32.4728 19.0166 31.7014C19.2094 31.5193 19.5094 31.5193 19.7023 31.6907Z" fill="#7D97F4"/>
</g>
<path d="M79.0873 200.964C80.8122 201.81 62.8028 179.162 57.1567 143.604C54.4998 126.848 54.4676 105.85 44.9219 97.7609C36.9725 91.0221 9.94225 95.2753 1.09288 96.8931C-0.0106122 97.0966 -0.385585 98.4894 0.471496 99.2179C4.71405 102.785 13.7884 111.185 16.1561 119.649C19.2737 130.812 29.8908 137.915 39.383 139.833C48.8859 141.751 54.1677 143.615 58.7959 158.817C63.4349 174.009 74.202 198.564 79.0873 200.964Z" fill="#7D97F4"/>
<path d="M13.5314 101.607C24.8127 102.079 36.9297 107.232 43.0793 116.885L43.6578 117.806C44.997 119.97 52.5929 135.333 56.814 148.061C56.8676 148.222 56.7819 148.393 56.6212 148.447C56.3534 148.532 56.2141 148.243 56.2462 148.265C53.3107 141.076 49.0896 131.948 45.7255 125.134C42.1151 117.688 39.5974 112.653 31.3694 107.821C22.2201 102.625 13.4671 102.089 13.4992 102.089C13.3707 102.079 13.2635 101.961 13.285 101.822C13.2957 101.693 13.4028 101.597 13.5314 101.607Z" fill="#91B3FA"/>
<path d="M279.495 269.135C279.495 271.706 277.395 273.806 274.824 273.806H22.0595C19.4883 273.806 17.3884 271.706 17.3884 269.135L15.2886 123.881C15.2886 121.31 18.3098 116.296 23.8594 116.671L270.892 110.275C274.117 110.189 277.234 111.432 279.516 113.714C281.798 115.996 283.052 119.103 282.977 122.327L279.495 269.135Z" fill="url(#paint1_linear)"/>
<path d="M274.877 264.657C274.877 267.089 272.885 269.082 270.453 269.082H28.1557C25.7237 269.082 23.731 267.089 23.731 264.657L21.749 132.795C21.9847 124.856 28.9378 122.006 33.1589 122.178L269.917 115.825C272.188 115.76 274.374 116.639 275.981 118.235C277.588 119.831 278.466 122.028 278.402 124.288L274.877 264.657Z" fill="url(#paint2_linear)"/>
<path d="M26.3446 201.779C26.1197 201.779 25.9268 201.597 25.9268 201.372L25.7661 190.68C25.7661 190.444 25.9482 190.262 26.1732 190.251C26.3982 190.241 26.5911 190.434 26.6018 190.659L26.7625 201.351C26.7732 201.586 26.5803 201.779 26.3446 201.779Z" fill="white"/>
<path d="M25.9592 175.574C25.7342 175.574 25.5414 175.391 25.5414 175.166L24.9414 134.209C24.9521 131.455 25.7985 129.259 27.4698 127.663C30.491 124.77 35.2157 124.92 35.4085 124.92L111.014 122.895C111.239 122.874 111.432 123.067 111.442 123.302C111.453 123.538 111.271 123.72 111.035 123.731L35.4085 125.756C35.1943 125.745 30.8124 125.616 28.0483 128.263C26.5591 129.688 25.7985 131.691 25.7771 134.198L26.377 175.145C26.3877 175.381 26.1949 175.574 25.9592 175.574C25.9699 175.574 25.9699 175.574 25.9592 175.574Z" fill="white"/>
<path opacity="0.23" d="M34.4015 257.339C34.6586 246.444 34.5622 149.925 33.9301 141.59C33.3087 133.255 46.2828 131.691 66.2206 130.759C86.1478 129.816 254.318 126.109 258.646 125.756C268.374 124.963 270.388 139.512 269.424 171.095C268.695 194.826 267.485 233.909 266.917 251.875C266.746 257.232 262.374 261.475 257.018 261.485C216.553 261.592 61.4531 262.042 51.1253 262.353C39.2547 262.707 34.305 261.667 34.4015 257.339Z" fill="white"/>
<path d="M293.615 285.858H8.37842C4.86439 285.858 1.99316 282.987 1.99316 279.473C1.99316 275.959 4.86439 273.087 8.37842 273.087H293.615C297.129 273.087 300 275.959 300 279.473C300 282.987 297.129 285.858 293.615 285.858Z" fill="url(#paint3_linear)"/>
<path d="M237.144 21.9949L67.5918 20.9557C62.0207 20.9236 57.5639 25.5733 57.8425 31.1443L69.5095 272.049H258.196L268.674 56.8139L237.144 21.9949Z" fill="#91B3FA"/>
<path d="M244.193 55.7859C238.665 55.5931 234.423 50.8363 234.862 45.3188L236.683 22.3169L268.695 56.6752L244.193 55.7859Z" fill="url(#paint4_linear)"/>
<path opacity="0.78" d="M155.047 68.2448C168.985 68.1805 222.478 67.8162 235.987 67.7305C237.691 67.7198 239.041 69.4875 238.966 71.641C238.891 73.6873 237.552 75.3264 235.934 75.3479L155.025 76.3549C153.472 76.3764 152.175 74.8872 152.036 72.9373L152.004 72.4445C151.854 70.2053 153.268 68.2555 155.047 68.2448Z" fill="white"/>
<path opacity="0.78" d="M154.361 85.1398C168.299 85.0755 221.792 84.7112 235.301 84.6255C237.005 84.6148 238.355 86.3825 238.28 88.536C238.205 90.5822 236.865 92.2214 235.248 92.2428L154.339 93.2499C152.786 93.2713 151.489 91.7821 151.35 89.8323L151.318 89.3395C151.168 87.1004 152.582 85.1505 154.361 85.1398Z" fill="white"/>
<path opacity="0.78" d="M93.8188 108.956C117.324 108.977 207.564 108.945 230.352 108.935C233.223 108.935 235.559 110.713 235.505 112.866C235.451 114.913 233.255 116.541 230.513 116.552L94.0653 117.066C91.4404 117.077 89.2013 115.588 88.9121 113.627L88.8371 113.134C88.5049 110.895 90.8084 108.956 93.8188 108.956Z" fill="white"/>
<path opacity="0.78" d="M92.7366 126.698C111.035 126.623 181.284 126.216 199.015 126.119C201.254 126.108 203.054 127.876 203 130.03C202.947 132.076 201.222 133.715 199.09 133.737L92.8652 134.808C90.8189 134.829 89.094 133.351 88.8798 131.39L88.8262 130.897C88.5798 128.648 90.3904 126.698 92.7366 126.698Z" fill="white"/>
<path opacity="0.78" d="M93.5829 149.914C117.088 149.935 207.328 149.903 230.116 149.893C232.987 149.893 235.323 151.671 235.269 153.824C235.216 155.871 233.019 157.499 230.277 157.51L93.8293 158.024C91.2045 158.035 88.9654 156.546 88.6761 154.585L88.6011 154.092C88.269 151.853 90.5831 149.914 93.5829 149.914Z" fill="white"/>
<path opacity="0.78" d="M91.5369 167.944C109.921 167.977 180.502 168.009 198.319 168.019C200.568 168.019 202.368 169.798 202.304 171.951C202.24 173.997 200.493 175.626 198.351 175.637L91.6227 176.054C89.5657 176.065 87.8408 174.565 87.6372 172.615L87.5837 172.123C87.3587 169.873 89.1907 167.934 91.5369 167.944Z" fill="white"/>
<path opacity="0.78" d="M92.4257 191.697C115.931 191.718 206.171 191.686 228.959 191.675C231.83 191.675 234.166 193.454 234.112 195.607C234.058 197.653 231.862 199.282 229.12 199.293L92.6721 199.818C90.0473 199.828 87.8081 198.339 87.5189 196.379L87.4439 195.886C87.1118 193.636 89.4259 191.697 92.4257 191.697Z" fill="white"/>
<g opacity="0.74">
<path opacity="0.78" d="M91.0118 209.513C109.396 209.545 179.977 209.577 197.793 209.588C200.043 209.588 201.843 211.367 201.779 213.52C201.715 215.566 199.968 217.195 197.826 217.206L91.0975 217.623C89.0405 217.634 87.3157 216.134 87.1121 214.184L87.0585 213.691C86.8228 211.452 88.6548 209.513 91.0118 209.513Z" fill="white"/>
</g>
<path opacity="0.48" d="M93.8188 233.008C117.324 233.03 207.564 232.998 230.352 232.987C233.223 232.987 235.559 234.765 235.505 236.919C235.451 238.965 233.255 240.593 230.513 240.604L94.0653 241.118C91.4404 241.129 89.2013 239.64 88.9121 237.679L88.8371 237.187C88.5049 234.947 90.8084 233.008 93.8188 233.008Z" fill="white"/>
<path opacity="0.36" d="M92.4904 252.753C110.639 252.753 180.331 252.667 197.922 252.635C200.14 252.635 201.918 254.414 201.854 256.567C201.79 258.613 200.076 260.242 197.954 260.253L92.5761 260.863C90.5512 260.874 88.8371 259.385 88.6335 257.424L88.58 256.931C88.355 254.692 90.1656 252.753 92.4904 252.753Z" fill="white"/>
<g opacity="0.78">
<path opacity="0.78" d="M109.685 75.0375L103.986 92.297H96.6577L115.31 37.4116H123.859L142.587 92.297H135.012L129.152 75.0375H109.685ZM127.673 69.5093L122.295 53.7069C121.074 50.1286 120.26 46.8717 119.445 43.6897H119.285C118.47 46.9467 117.571 50.2893 116.521 53.6212L111.142 69.4986H127.673V69.5093Z" fill="white"/>
</g>
<path d="M129.377 297.376C129.216 297.376 129.045 297.343 128.884 297.268C128.252 296.968 127.963 296.176 128.241 295.49L154.2 229.623C154.468 228.938 155.197 228.627 155.829 228.916C156.461 229.216 156.75 230.009 156.471 230.695L130.513 296.551C130.309 297.065 129.848 297.376 129.377 297.376Z" fill="url(#paint5_linear)"/>
<path d="M158.614 297.375C158.132 297.375 157.682 297.065 157.478 296.561L131.519 230.694C131.252 230.009 131.541 229.216 132.162 228.916C132.794 228.616 133.523 228.937 133.791 229.623L159.75 295.49C160.017 296.175 159.728 296.968 159.107 297.268C158.946 297.332 158.775 297.375 158.614 297.375Z" fill="url(#paint6_linear)"/>
<path d="M239.865 297.376C239.705 297.376 239.533 297.343 239.372 297.268C238.74 296.968 238.451 296.176 238.73 295.49L264.688 229.623C264.956 228.938 265.685 228.627 266.317 228.916C266.949 229.216 267.238 230.009 266.96 230.695L241.001 296.551C240.808 297.065 240.347 297.376 239.865 297.376Z" fill="url(#paint7_linear)"/>
<path d="M269.113 297.375C268.631 297.375 268.181 297.065 267.978 296.561L242.019 230.683C241.751 229.998 242.04 229.205 242.662 228.905C243.294 228.605 244.022 228.926 244.29 229.612L270.249 295.479C270.517 296.165 270.228 296.957 269.606 297.257C269.435 297.332 269.274 297.375 269.113 297.375Z" fill="url(#paint8_linear)"/>
<path d="M225.52 252.989H222.456V286.179H225.52V252.989Z" fill="url(#paint9_linear)"/>
<path d="M237.433 286.822H210.553V286.683C210.553 285.655 211.378 284.83 212.407 284.83H235.441C236.544 284.819 237.433 285.719 237.433 286.822Z" fill="url(#paint10_linear)"/>
<path d="M241.43 251.832C241.43 253.642 239.94 255.132 238.13 255.132H210.928C209.118 255.132 207.628 253.642 207.628 251.832V248.843C207.628 247.032 209.118 245.543 210.928 245.543H238.13C239.94 245.543 241.43 247.032 241.43 248.843V251.832Z" fill="url(#paint11_linear)"/>
<path d="M201.34 230.854C201.34 230.854 196.776 231.561 191.655 234.989C190.851 235.525 190.401 236.468 190.53 237.432C191.141 242.296 193.669 258.034 201.993 273.408C202.433 274.222 202.561 275.165 202.368 276.065L200.922 282.793L198.244 285.311H205.154L209.75 272.862L207.779 272.24C206.257 271.758 205.207 270.355 205.175 268.758L204.94 255.409C205.132 249.463 201.297 245.36 201.297 245.36L212.332 244.824L201.34 230.854Z" fill="url(#paint12_linear)"/>
<path d="M195.533 286.533C194.901 287.358 202.304 288.44 206.043 286.64C206.043 286.64 211.229 277.619 211.229 272.98C211.229 272.98 210.821 272.038 207.779 272.252C207.779 272.252 206.043 282.933 204.2 284.122C202.358 285.322 199.058 284.24 199.058 284.24C199.058 284.24 196.455 285.312 195.533 286.533Z" fill="url(#paint13_linear)"/>
<path d="M210.929 245.554C210.875 245.457 199.047 244.129 199.047 244.129C199.047 244.129 199.433 247.718 198.222 252.667C197.012 257.617 179.667 279.055 179.667 279.055L181.488 284.819C175.863 286.779 170.324 287.09 164.882 285.815L176.163 279.044C176.163 279.044 186.716 243.079 193.187 236.661L205.036 232.558L210.929 245.554Z" fill="url(#paint14_linear)"/>
<path d="M237.434 224.619C237.434 224.619 244.247 234.743 244.804 239.372C245.362 243.989 242.94 245.875 235.794 246.175C228.648 246.486 209.578 246.475 209.578 246.475L193.294 232.558C193.294 232.558 205.154 228.326 208.239 227.126C211.325 225.937 237.434 224.619 237.434 224.619Z" fill="url(#paint15_linear)"/>
<path d="M180.791 282.879C180.791 282.879 182.752 284.776 181.423 286.886C181.423 286.886 165.899 289.64 161.689 288.386C161.689 288.386 162.567 286.393 167.314 284.111L166.96 284.379C166.521 284.722 166.778 285.429 167.335 285.397C170.463 285.226 176.934 284.658 180.791 282.879Z" fill="url(#paint16_linear)"/>
<path d="M214.238 165.266C215.299 165.084 219.21 164.613 219.863 166.948C219.949 167.259 220.334 167.366 220.581 167.152C221.813 166.049 224.727 163.97 227.909 165.438C230.727 166.734 230.469 169.423 229.977 171.073C229.859 171.47 230.298 171.802 230.641 171.566C233.094 169.916 238.762 166.959 242.383 171.823C245.768 176.366 243.004 179.515 241.151 180.951C240.84 181.197 240.99 181.69 241.376 181.733C242.726 181.862 244.601 182.612 245.458 185.504C246.808 190.047 238.472 193.818 237.498 194.236C237.433 194.268 237.369 194.279 237.305 194.268L220.484 193.411C220.356 193.4 220.227 193.336 220.152 193.229L209.835 179.333C209.75 179.226 209.728 179.076 209.771 178.937L213.896 165.556C213.938 165.416 214.067 165.299 214.238 165.266Z" fill="url(#paint17_linear)"/>
<path d="M219.017 223.281C219.017 223.281 211.089 215.728 207.178 210.725C205.068 208.025 204.404 204.457 205.379 201.179C207.157 195.179 210.328 188.955 210.617 187.991C211.057 186.512 219.949 186.566 219.949 186.566C219.949 186.566 237.444 197.922 244.322 217.153L236.598 219.553C236.598 219.553 232.034 211.892 227.513 207.018C227.513 207.018 235.323 217.335 235.601 221.556L219.017 223.281Z" fill="url(#paint18_linear)"/>
<path d="M209.546 179.698C209.643 180.009 211.957 187.701 212.139 187.862C212.321 188.023 217.228 188.29 219.542 186.705L215.621 178.498L209.546 179.698Z" fill="url(#paint19_linear)"/>
<path d="M202.99 168.845C202.99 168.845 201.05 172.959 202.979 179.366C204.897 185.772 208.357 186.437 210.596 184.937C212.846 183.437 215.782 180.726 216.306 174.995C216.842 169.263 205.646 163.649 202.99 168.845Z" fill="url(#paint20_linear)"/>
<path d="M212.042 174.48C212.042 174.48 208.475 165.781 202.561 170.945L202.047 173.141C202.047 173.141 196.626 171.406 198.576 166.509C200.525 161.603 206.996 157.724 212.749 161.121C218.503 164.517 220.56 169.091 220.099 173.591C219.638 178.101 216.306 176.441 216.306 176.441C216.306 176.441 215.76 173.098 214.185 172.466C212.61 171.823 212.567 174.341 212.567 174.341L212.042 174.48Z" fill="url(#paint21_linear)"/>
<path d="M213.35 174.63C213.35 174.63 211.496 170.162 214.293 170.098C217.089 170.023 215.814 174.394 215.214 175.98L213.35 174.63Z" fill="url(#paint22_linear)"/>
<path d="M202.861 223.837L208.689 218.223L216.746 221.63C216.746 221.63 224.77 222.873 229.355 221.63C233.952 220.387 233.952 220.387 233.952 220.387L244.333 217.152L245.961 221.759C246.379 222.927 245.961 224.223 244.944 224.941C244.044 225.584 242.994 226.28 242.319 226.569C240.947 227.169 208.635 226.151 208.635 226.151L202.861 223.837Z" fill="url(#paint23_linear)"/>
<path d="M224.909 226.495C224.887 226.495 224.855 226.495 224.834 226.495L191.033 226.463C190.197 226.463 189.522 225.788 189.522 224.952C189.522 224.116 190.208 223.431 191.033 223.442L224.834 223.474C225.67 223.474 226.344 224.149 226.344 224.984C226.344 225.788 225.712 226.452 224.909 226.495Z" fill="url(#paint24_linear)"/>
<path d="M160.649 195.801H188.794C190.872 195.801 192.758 197.001 193.647 198.876L206.664 226.463H171.684C170.345 226.463 169.145 225.649 168.652 224.406L158.56 198.876C157.982 197.397 159.064 195.801 160.649 195.801Z" fill="url(#paint25_linear)"/>
<path d="M180.48 209.953C181.091 211.85 180.641 213.692 179.473 214.067C178.305 214.442 176.87 213.21 176.259 211.314C175.648 209.418 176.098 207.575 177.266 207.2C178.434 206.825 179.869 208.057 180.48 209.953Z" fill="#91B3FA"/>
<path d="M272.145 227.726C272.231 227.341 272.113 226.944 271.824 226.644C271.534 226.344 271.116 226.173 270.667 226.173H118.438C117.849 226.173 117.292 226.43 116.981 226.869C116.66 227.298 116.617 227.844 116.863 228.316L118.513 231.412C118.888 232.119 119.713 232.58 120.613 232.58H269.627C270.463 232.58 271.181 232.065 271.341 231.347L272.145 227.726Z" fill="url(#paint26_linear)"/>
</g>
<defs>
<linearGradient id="paint0_linear" x1="7.29463" y1="84.2519" x2="72.3426" y2="84.2519" gradientUnits="userSpaceOnUse">
<stop stop-color="#4F52FF"/>
<stop offset="1" stop-color="#4042E2"/>
</linearGradient>
<linearGradient id="paint1_linear" x1="125.351" y1="262.639" x2="185.049" y2="83.5462" gradientUnits="userSpaceOnUse">
<stop stop-color="#09005D"/>
<stop offset="1" stop-color="#1A0F91"/>
</linearGradient>
<linearGradient id="paint2_linear" x1="312.217" y1="106.706" x2="-436.547" y2="519.013" gradientUnits="userSpaceOnUse">
<stop stop-color="#FF928E"/>
<stop offset="1" stop-color="#FE7062"/>
</linearGradient>
<linearGradient id="paint3_linear" x1="165.384" y1="104.825" x2="150.213" y2="289.047" gradientUnits="userSpaceOnUse">
<stop stop-color="#09005D"/>
<stop offset="1" stop-color="#1A0F91"/>
</linearGradient>
<linearGradient id="paint4_linear" x1="256.182" y1="35.554" x2="214.398" y2="82.6789" gradientUnits="userSpaceOnUse">
<stop stop-color="#4F52FF"/>
<stop offset="1" stop-color="#4042E2"/>
</linearGradient>
<linearGradient id="paint5_linear" x1="160.256" y1="177.09" x2="129.915" y2="322.835" gradientUnits="userSpaceOnUse">
<stop stop-color="#4F52FF"/>
<stop offset="1" stop-color="#4042E2"/>
</linearGradient>
<linearGradient id="paint6_linear" x1="163.403" y1="177.745" x2="133.062" y2="323.489" gradientUnits="userSpaceOnUse">
<stop stop-color="#4F52FF"/>
<stop offset="1" stop-color="#4042E2"/>
</linearGradient>
<linearGradient id="paint7_linear" x1="266.16" y1="199.137" x2="235.819" y2="344.882" gradientUnits="userSpaceOnUse">
<stop stop-color="#4F52FF"/>
<stop offset="1" stop-color="#4042E2"/>
</linearGradient>
<linearGradient id="paint8_linear" x1="269.307" y1="199.792" x2="238.967" y2="345.536" gradientUnits="userSpaceOnUse">
<stop stop-color="#4F52FF"/>
<stop offset="1" stop-color="#4042E2"/>
</linearGradient>
<linearGradient id="paint9_linear" x1="198.956" y1="314.549" x2="234.355" y2="250.975" gradientUnits="userSpaceOnUse">
<stop stop-color="#4F52FF"/>
<stop offset="1" stop-color="#4042E2"/>
</linearGradient>
<linearGradient id="paint10_linear" x1="206.148" y1="318.553" x2="241.545" y2="254.981" gradientUnits="userSpaceOnUse">
<stop stop-color="#4F52FF"/>
<stop offset="1" stop-color="#4042E2"/>
</linearGradient>
<linearGradient id="paint11_linear" x1="191.183" y1="310.222" x2="226.583" y2="246.648" gradientUnits="userSpaceOnUse">
<stop stop-color="#4F52FF"/>
<stop offset="1" stop-color="#4042E2"/>
</linearGradient>
<linearGradient id="paint12_linear" x1="213.772" y1="299.347" x2="203.296" y2="257.084" gradientUnits="userSpaceOnUse">
<stop stop-color="#FEBBBA"/>
<stop offset="1" stop-color="#FF928E"/>
</linearGradient>
<linearGradient id="paint13_linear" x1="203.853" y1="272.305" x2="200.643" y2="321.522" gradientUnits="userSpaceOnUse">
<stop stop-color="#4F52FF"/>
<stop offset="1" stop-color="#4042E2"/>
</linearGradient>
<linearGradient id="paint14_linear" x1="191.857" y1="258.42" x2="259.404" y2="223.743" gradientUnits="userSpaceOnUse">
<stop stop-color="#FEBBBA"/>
<stop offset="1" stop-color="#FF928E"/>
</linearGradient>
<linearGradient id="paint15_linear" x1="181.01" y1="235.553" x2="232.6" y2="235.553" gradientUnits="userSpaceOnUse">
<stop stop-color="#09005D"/>
<stop offset="1" stop-color="#1A0F91"/>
</linearGradient>
<linearGradient id="paint16_linear" x1="172.879" y1="270.285" x2="169.669" y2="319.502" gradientUnits="userSpaceOnUse">
<stop stop-color="#4F52FF"/>
<stop offset="1" stop-color="#4042E2"/>
</linearGradient>
<linearGradient id="paint17_linear" x1="202.974" y1="157.509" x2="248.225" y2="197.378" gradientUnits="userSpaceOnUse">
<stop stop-color="#09005D"/>
<stop offset="1" stop-color="#1A0F91"/>
</linearGradient>
<linearGradient id="paint18_linear" x1="152.677" y1="307.421" x2="226.365" y2="204.114" gradientUnits="userSpaceOnUse">
<stop stop-color="#FF928E"/>
<stop offset="1" stop-color="#FE7062"/>
</linearGradient>
<linearGradient id="paint19_linear" x1="216.601" y1="196.374" x2="214.297" y2="181.594" gradientUnits="userSpaceOnUse">
<stop stop-color="#FEBBBA"/>
<stop offset="1" stop-color="#FF928E"/>
</linearGradient>
<linearGradient id="paint20_linear" x1="201.32" y1="177.039" x2="225.693" y2="173.738" gradientUnits="userSpaceOnUse">
<stop stop-color="#FEBBBA"/>
<stop offset="1" stop-color="#FF928E"/>
</linearGradient>
<linearGradient id="paint21_linear" x1="200.082" y1="160.792" x2="245.332" y2="200.662" gradientUnits="userSpaceOnUse">
<stop stop-color="#09005D"/>
<stop offset="1" stop-color="#1A0F91"/>
</linearGradient>
<linearGradient id="paint22_linear" x1="201.029" y1="174.888" x2="225.402" y2="171.587" gradientUnits="userSpaceOnUse">
<stop stop-color="#FEBBBA"/>
<stop offset="1" stop-color="#FF928E"/>
</linearGradient>
<linearGradient id="paint23_linear" x1="229.824" y1="221.964" x2="273.083" y2="221.964" gradientUnits="userSpaceOnUse">
<stop stop-color="#FEBBBA"/>
<stop offset="1" stop-color="#FF928E"/>
</linearGradient>
<linearGradient id="paint24_linear" x1="230.645" y1="217.51" x2="203.815" y2="226.31" gradientUnits="userSpaceOnUse">
<stop stop-color="#09005D"/>
<stop offset="1" stop-color="#1A0F91"/>
</linearGradient>
<linearGradient id="paint25_linear" x1="193.789" y1="199.918" x2="174.467" y2="220.341" gradientUnits="userSpaceOnUse">
<stop stop-color="#09005D"/>
<stop offset="1" stop-color="#1A0F91"/>
</linearGradient>
<linearGradient id="paint26_linear" x1="192.686" y1="236.004" x2="162.345" y2="381.748" gradientUnits="userSpaceOnUse">
<stop stop-color="#4F52FF"/>
<stop offset="1" stop-color="#4042E2"/>
</linearGradient>
<clipPath id="clip0">
<rect width="300" height="297.375" fill="white"/>
</clipPath>
</defs>
</svg>
