<svg width="28" height="29" viewBox="0 0 28 29" fill="none" xmlns="http://www.w3.org/2000/svg">
<g clip-path="url(#clip0)">
<path d="M24.7541 24.9649C24.1793 25.5822 23.6349 25.9799 23.2053 26.2947C18.1527 29.9912 12.1749 28.9141 10.9044 28.651C9.02857 28.2626 5.40188 27.5107 2.77961 24.3662C-1.18731 19.6092 -0.569832 12.1137 2.50743 7.16614C3.07007 6.26092 6.04272 1.23771 12.0855 0.432956C15.7427 -0.0548653 20.0051 0.929063 23.0926 3.56599C29.5721 9.10188 29.111 20.2866 24.7541 24.9649Z" fill="white"/>
<path d="M19.1409 28.0305C19.0922 28.0232 19.0485 27.9973 19.019 27.9569C18.5925 27.3707 15.4919 22.7846 19.6182 18.592C23.5354 14.6118 25.3117 13.7946 25.5473 11.4559C25.5747 11.1825 25.9373 11.1173 26.0561 11.3638C26.9458 13.2032 28.3331 17.4973 23.7436 20.3154C18.6808 23.4236 19.0952 26.8321 19.341 27.8005C19.3745 27.9279 19.2699 28.0481 19.1409 28.0305Z" fill="#91B3FA"/>
<path d="M19.7696 28.1175C19.6549 28.1019 19.5634 28.0108 19.5452 27.8937C19.4243 27.0962 19.1278 24.1155 21.2808 23.3252C23.6512 22.4552 25.5646 24.7058 27.3064 22.9441C27.3978 22.8509 27.5521 22.9316 27.5298 23.0621C27.3744 23.9829 26.6838 26.1144 23.6106 26.5432C20.3211 27.002 19.9514 27.3873 20.0174 27.8647C20.0387 28.0118 19.9138 28.1382 19.7696 28.1175Z" fill="#91B3FA"/>
<path opacity="0.47" d="M25.4346 13.8399C25.394 14.0139 25.3411 14.1765 25.2772 14.338C25.2142 14.4996 25.1421 14.657 25.0639 14.8114C24.9085 15.12 24.7216 15.4131 24.5175 15.6917C24.1062 16.2479 23.6075 16.7357 23.0591 17.149C22.7849 17.3551 22.4924 17.5436 22.203 17.7145C21.9216 17.8812 21.6505 18.0676 21.3905 18.2696C20.8705 18.6735 20.3993 19.1417 19.9839 19.6554C19.1551 20.6839 18.5671 21.9246 18.3731 23.2452C18.2746 23.9039 18.2736 24.5792 18.362 25.2431C18.4503 25.908 18.6362 26.5595 18.8809 27.1881C18.8941 27.2213 18.8779 27.2596 18.8454 27.2731C18.8139 27.2865 18.7784 27.271 18.7631 27.2399C18.4767 26.6195 18.2624 25.9587 18.1436 25.2783C18.0827 24.9375 18.0471 24.5926 18.037 24.2457C18.0288 23.8987 18.0431 23.5507 18.0857 23.2048C18.168 22.514 18.3589 21.8366 18.6352 21.1996C18.9114 20.5616 19.276 19.9661 19.7026 19.4234C20.1281 18.8796 20.6227 18.3929 21.163 17.9672C21.4341 17.7549 21.7165 17.5591 22.012 17.382C22.3015 17.2132 22.5757 17.0402 22.8418 16.8445C23.3729 16.4581 23.8635 16.0118 24.2849 15.5022C24.4982 15.2495 24.6922 14.9791 24.8689 14.6974C25.0426 14.4147 25.204 14.1174 25.3208 13.8088L25.3219 13.8046C25.333 13.7736 25.3676 13.7591 25.398 13.7705C25.4254 13.7819 25.4407 13.8119 25.4346 13.8399Z" fill="white"/>
<path opacity="0.47" d="M19.6325 27.5767C19.6427 27.5477 19.6396 27.5208 19.6386 27.4939L19.6366 27.412L19.6345 27.2474C19.6345 27.1376 19.6366 27.0288 19.6416 26.919C19.6508 26.7005 19.6691 26.482 19.6985 26.2645C19.7574 25.8305 19.8539 25.3976 20.0255 24.9895C20.1951 24.5845 20.4531 24.1972 20.8268 23.9445C21.0127 23.8202 21.2229 23.7321 21.4403 23.6866C21.6576 23.64 21.881 23.6327 22.0994 23.6524C22.9555 23.7539 23.7944 23.9206 24.6364 24.0574C25.0558 24.1216 25.4803 24.1775 25.8916 24.1205C25.9942 24.105 26.0948 24.0822 26.1923 24.0501C26.2887 24.0159 26.3842 23.9755 26.4736 23.9217C26.6523 23.8171 26.8097 23.6752 26.9509 23.5167C26.9702 23.495 27.0037 23.4929 27.025 23.5126C27.0464 23.5323 27.0484 23.5654 27.0291 23.5871C26.8869 23.7549 26.7234 23.9093 26.5335 24.0253C26.439 24.0843 26.3375 24.1309 26.2329 24.1703C26.1283 24.2075 26.0206 24.2345 25.9109 24.2531C25.4722 24.3184 25.0385 24.2624 24.614 24.2034C24.1885 24.1413 23.769 24.0615 23.3476 23.9921C22.9271 23.9227 22.5026 23.8554 22.0842 23.8046C21.878 23.7839 21.6688 23.7891 21.4677 23.8305C21.2656 23.8699 21.0736 23.9496 20.901 24.0625C20.5537 24.2883 20.3008 24.6477 20.1301 25.0361C19.9565 25.4266 19.8539 25.8502 19.7889 26.2769C19.7564 26.4902 19.7351 26.7067 19.7219 26.9232C19.7158 27.0309 19.7107 27.1396 19.7087 27.2484L19.7077 27.411L19.7087 27.4918C19.7097 27.5187 19.7077 27.5467 19.7209 27.5715C19.7331 27.5953 19.7239 27.6254 19.7006 27.6378C19.6772 27.6502 19.6477 27.6409 19.6356 27.6171C19.6284 27.6047 19.6284 27.5902 19.6325 27.5767Z" fill="white"/>
<path d="M15.1588 0.328981C13.869 0.318623 12.568 0.526802 11.4163 1.01462C8.7372 2.1477 6.46226 5.14816 7.35294 8.21284C7.64239 9.20816 7.49005 10.3071 8.46299 10.7389C8.98907 10.973 10.4221 11.1128 10.9675 10.9274C12.4157 10.4376 13.3673 9.09527 12.5802 7.60695C12.3283 7.13052 12.0013 6.69552 11.784 6.20148C11.5667 5.70745 11.4671 5.12123 11.6885 4.62927C12.1242 3.66398 13.5725 3.35637 14.5109 3.38537C15.6189 3.41955 16.6233 3.97884 17.2195 4.93791C17.9629 6.13312 18.1508 7.58727 18.0421 8.97409C17.9253 10.4583 17.3119 11.5924 16.3918 12.7306C15.5996 13.7114 14.7282 14.6519 14.2011 15.8036C13.7177 16.86 13.5603 18.0314 13.5379 19.1883C13.5339 19.412 12.4411 21.5249 12.4451 22.1701C12.4462 22.2613 13.6842 22.5637 13.7746 22.5647C14.2407 22.5699 15.562 22.5854 16.0485 22.5906C16.148 22.5917 16.2313 22.5098 16.2323 22.4083C16.2668 19.2691 17.2134 16.2759 19.6102 14.1682C20.4826 13.4007 21.422 12.7762 22.0994 11.8078C23.0663 10.4272 23.5426 9.06938 23.4055 7.36666C23.2795 5.81102 22.7778 4.25434 21.7836 3.04773C20.7151 1.74998 19.1511 0.940052 17.5252 0.589981C16.7675 0.427374 15.9652 0.335195 15.1588 0.328981Z" fill="url(#paint0_linear)"/>
<path d="M17.5384 26.1101C17.5384 27.5538 16.7534 28.8309 15.3386 28.8309C15.033 28.8309 13.993 28.834 13.7208 28.7335C12.7336 28.37 12.7306 27.5973 12.7306 26.4653C12.7306 25.0215 13.2089 23.6016 14.6237 23.6016C16.0394 23.6016 17.5384 24.6663 17.5384 26.1101Z" fill="url(#paint1_linear)"/>
<path d="M13.933 -0.000120946C12.6432 -0.0104781 11.3422 0.1977 10.1906 0.685522C7.51141 1.81963 5.23749 4.82009 6.12715 7.88477C6.41659 8.88009 7.08486 10.1333 8.05678 10.5662C8.58286 10.8003 9.19527 10.7848 9.74064 10.6004C11.1889 10.1105 12.1405 8.76823 11.3534 7.27991C11.1015 6.80348 10.7745 6.36848 10.5572 5.87445C10.3398 5.38041 10.2403 4.7942 10.4617 4.30223C10.8974 3.33695 12.3456 3.02934 13.2841 3.05834C14.3921 3.09252 15.3965 3.65181 15.9927 4.61088C16.7361 5.80609 16.924 7.26023 16.8153 8.64705C16.6985 10.1312 16.0851 11.2653 15.1649 12.4036C14.3728 13.3844 13.5014 14.3248 12.9743 15.4766C12.4909 16.533 12.3335 17.7044 12.3111 18.8613C12.3071 19.085 12.3812 21.4257 12.3853 22.0709C12.3863 22.1621 12.4584 22.2356 12.5478 22.2367C13.0139 22.2418 14.3352 22.2574 14.8217 22.2626C14.9212 22.2636 15.0045 22.1818 15.0055 22.0803C15.04 18.941 15.9866 15.9478 18.3834 13.8401C19.2558 13.0727 20.1952 12.4481 20.8726 11.4797C21.8394 10.0991 22.3158 8.7413 22.1787 7.03859C22.0527 5.48295 21.551 3.92627 20.5567 2.71966C19.4894 1.42191 17.9253 0.61095 16.2994 0.261915C15.5417 0.0982719 14.7394 0.00712905 13.933 -0.000120946Z" fill="url(#paint2_linear)"/>
<path d="M14.0672 28.7503C15.4829 28.7503 16.6305 27.5799 16.6305 26.1361C16.6305 24.6924 15.4829 23.522 14.0672 23.522C12.6514 23.522 11.5038 24.6924 11.5038 26.1361C11.5038 27.5799 12.6514 28.7503 14.0672 28.7503Z" fill="url(#paint3_linear)"/>
<path opacity="0.63" d="M6.9751 7.58441C6.95987 7.58441 6.94666 7.57405 6.9426 7.55852C6.76284 6.73098 6.73644 5.43634 7.63118 3.96252C8.50459 2.52495 9.72838 1.56277 11.2711 1.10291C12.9194 0.611982 14.8764 0.716589 17.0884 1.4157C17.1057 1.42088 17.1158 1.43952 17.1097 1.45816C17.1047 1.47577 17.0854 1.48612 17.0691 1.47991C12.8199 0.13659 9.4887 1.03145 7.68704 3.99773C6.80448 5.45187 6.82987 6.72891 7.00659 7.54298C7.01065 7.56059 6.99948 7.57923 6.9812 7.58337C6.98018 7.58441 6.97815 7.58441 6.9751 7.58441Z" fill="white"/>
<path opacity="0.63" d="M7.51436 8.9156C7.5042 8.9156 7.49404 8.91042 7.48795 8.90213C7.47983 8.89178 7.29499 8.63078 7.12335 8.17299C7.11726 8.15539 7.12538 8.13674 7.14265 8.12949C7.15991 8.12328 7.17819 8.13156 7.1853 8.14917C7.35389 8.59867 7.53975 8.86071 7.54076 8.86278C7.55193 8.87728 7.54787 8.89903 7.53365 8.90938C7.52756 8.91353 7.52147 8.9156 7.51436 8.9156Z" fill="white"/>
<path opacity="0.63" d="M14.9244 24.4415C14.9193 24.4415 14.9142 24.4405 14.9091 24.4374C14.6461 24.3017 14.3627 24.2323 14.0662 24.2323C14.0479 24.2323 14.0337 24.2168 14.0337 24.1992C14.0337 24.1805 14.0479 24.166 14.0662 24.166C14.3729 24.166 14.6664 24.2375 14.9386 24.3783C14.9548 24.3866 14.9609 24.4073 14.9528 24.4239C14.9487 24.4353 14.9366 24.4415 14.9244 24.4415Z" fill="white"/>
<path opacity="0.63" d="M13.0058 27.7748C12.9997 27.7748 12.9926 27.7727 12.9875 27.7686C12.4544 27.4009 12.1365 26.7909 12.1365 26.1353C12.1365 25.4092 12.5265 24.7433 13.1551 24.3994C13.1714 24.3911 13.1907 24.3963 13.1998 24.4129C13.2079 24.4294 13.2029 24.4491 13.1866 24.4584C12.5803 24.7909 12.2035 25.433 12.2035 26.1353C12.2035 26.7681 12.5112 27.3584 13.0261 27.7127C13.0414 27.723 13.0454 27.7437 13.0353 27.7593C13.0272 27.7696 13.016 27.7748 13.0058 27.7748Z" fill="white"/>
<g opacity="0.3">
<path opacity="0.3" d="M5.54096 4.88915C5.51354 4.92333 5.46479 4.92851 5.43229 4.90054C5.3673 4.84669 5.29925 4.79594 5.23019 4.74829C5.19464 4.72447 5.1855 4.67579 5.20886 4.63954L5.20988 4.63851C5.23425 4.60226 5.28199 4.59294 5.31753 4.61779C5.39066 4.66854 5.46175 4.7224 5.52979 4.77833C5.56128 4.80422 5.56737 4.84979 5.54604 4.88294C5.54503 4.88501 5.54299 4.88708 5.54096 4.88915ZM4.87778 4.53908C4.80262 4.50179 4.72544 4.46658 4.64825 4.43551C4.60865 4.41997 4.58833 4.37336 4.60458 4.33297C4.62083 4.29258 4.66552 4.27186 4.70513 4.28844C4.78638 4.32054 4.86762 4.35783 4.94684 4.39719C4.98543 4.41686 5.00067 4.46347 4.98239 4.50283C4.98137 4.50594 4.97934 4.50801 4.97832 4.51111C4.95598 4.54426 4.91332 4.55772 4.87778 4.53908ZM4.25826 4.31122C4.17702 4.29154 4.09374 4.27497 4.01147 4.26254C3.96882 4.25633 3.94038 4.21594 3.94648 4.17244C3.95257 4.12894 3.99218 4.09994 4.03483 4.10615C4.12217 4.11961 4.20952 4.13619 4.29483 4.1569C4.33647 4.16726 4.36186 4.20972 4.35272 4.25219C4.35068 4.26151 4.34662 4.26979 4.34256 4.27704C4.32428 4.30501 4.29076 4.31951 4.25826 4.31122ZM3.60524 4.23044C3.52196 4.2294 3.43766 4.23251 3.35438 4.23872C3.31173 4.24183 3.27415 4.20972 3.27111 4.16622C3.26806 4.12272 3.29954 4.0844 3.3422 4.08129C3.42954 4.07404 3.51891 4.07094 3.60625 4.07197C3.64891 4.07197 3.68344 4.10822 3.68344 4.15172C3.68344 4.16726 3.67836 4.18176 3.67125 4.19419C3.65703 4.21594 3.63266 4.23044 3.60524 4.23044ZM2.95018 4.29983C2.86893 4.31847 2.78667 4.34022 2.70745 4.36508C2.66683 4.37751 2.62315 4.35472 2.60995 4.31329C2.59776 4.27186 2.62011 4.22733 2.66073 4.21386C2.74503 4.18694 2.83034 4.16415 2.91666 4.14551C2.9583 4.13619 2.99994 4.16311 3.00908 4.20558C3.01416 4.22733 3.00908 4.24804 2.99791 4.26565C2.98775 4.28222 2.97049 4.29465 2.95018 4.29983ZM2.3266 4.51526C2.25145 4.55151 2.17629 4.59086 2.10418 4.63333C2.06661 4.65508 2.01989 4.64265 1.99856 4.60433C1.97724 4.56601 1.98942 4.51836 2.027 4.49661C2.10317 4.45208 2.18239 4.40961 2.2616 4.37233C2.30019 4.35369 2.34691 4.37129 2.36519 4.41065C2.37738 4.43654 2.37433 4.46554 2.36012 4.48729C2.35097 4.49869 2.3398 4.50801 2.3266 4.51526ZM0.578759 6.84976C0.536104 6.84354 0.507667 6.80315 0.51376 6.75965C0.526963 6.67161 0.544228 6.58254 0.56454 6.49451C0.574696 6.45204 0.616336 6.42615 0.657975 6.43651C0.699615 6.44686 0.725005 6.48933 0.714849 6.53179C0.695552 6.61465 0.679303 6.69958 0.667116 6.78347C0.665084 6.79486 0.661022 6.80522 0.655944 6.81454C0.638679 6.8394 0.609227 6.8539 0.578759 6.84976ZM1.76599 4.86533C1.69998 4.91711 1.63599 4.97304 1.57506 5.03104C1.54358 5.06108 1.49483 5.05901 1.46537 5.0269C1.43592 4.99479 1.43795 4.94508 1.46944 4.91504C1.53342 4.85394 1.60146 4.7949 1.67052 4.74001C1.70404 4.71308 1.75279 4.71929 1.77919 4.75347C1.80052 4.7804 1.80052 4.81769 1.78326 4.84565C1.77818 4.85394 1.77208 4.86015 1.76599 4.86533ZM0.737192 6.17861C0.697583 6.16308 0.677272 6.11647 0.693521 6.07608C0.72602 5.99322 0.761566 5.91036 0.801174 5.82958C0.820471 5.79022 0.867188 5.77469 0.904765 5.79436C0.943358 5.81404 0.958592 5.86169 0.939295 5.90001C0.901718 5.97665 0.868204 6.05536 0.837736 6.13408C0.835705 6.13926 0.833673 6.1434 0.830627 6.14858C0.810315 6.17965 0.771722 6.19311 0.737192 6.17861ZM1.29577 5.33554C1.24296 5.40183 1.19319 5.47019 1.14546 5.54061C1.12109 5.57686 1.07335 5.58619 1.03781 5.56133C1.00328 5.53751 0.993122 5.48883 1.01648 5.45258L1.0175 5.45154C1.06726 5.37697 1.12007 5.30447 1.17491 5.23508C1.20233 5.2009 1.25108 5.19572 1.28358 5.22369C1.31507 5.24958 1.32116 5.29411 1.29983 5.32829C1.29882 5.33036 1.2978 5.33347 1.29577 5.33554Z" fill="#91B3FA"/>
<path opacity="0.3" d="M0.622486 7.36869C0.630611 7.35523 0.635689 7.33969 0.634673 7.32312C0.633658 7.28272 0.632642 7.2413 0.633658 7.19987C0.633658 7.15637 0.600143 7.12012 0.556472 7.12012C0.513817 7.12012 0.478271 7.1543 0.478271 7.19883C0.478271 7.24233 0.478272 7.28583 0.479287 7.3283C0.480303 7.3718 0.516864 7.40598 0.559519 7.40494C0.58694 7.4039 0.609284 7.3894 0.622486 7.36869Z" fill="#91B3FA"/>
</g>
<g opacity="0.3">
<path opacity="0.3" d="M1.6136 9.55785C1.63391 9.52575 1.62883 9.48224 1.6004 9.45635C1.57094 9.42942 1.54149 9.40042 1.51204 9.37142C1.48157 9.34035 1.43282 9.34139 1.40235 9.37246C1.37189 9.40353 1.3729 9.45325 1.40337 9.48432C1.43384 9.51435 1.46431 9.54439 1.49579 9.57339C1.52727 9.60239 1.57704 9.60032 1.60547 9.56821C1.60954 9.56407 1.61157 9.56096 1.6136 9.55785Z" fill="#91B3FA"/>
<path opacity="0.3" d="M6.08632 9.08324C6.06093 9.11845 6.01319 9.12674 5.97765 9.10084C5.94312 9.07495 5.93499 9.02627 5.96038 8.99002C6.00811 8.9227 6.05382 8.85227 6.09647 8.77977C6.11881 8.74249 6.16655 8.73006 6.20311 8.75284C6.23967 8.77563 6.25186 8.82431 6.22951 8.86159C6.21123 8.89267 6.19194 8.92374 6.17264 8.95481C6.14522 8.99831 6.11678 9.04181 6.08632 9.08324ZM6.32092 8.51981C6.28131 8.5022 6.26303 8.45559 6.28029 8.41624C6.31279 8.33959 6.34225 8.25984 6.36865 8.18113C6.38185 8.1397 6.42654 8.11692 6.46716 8.13142C6.50779 8.14488 6.53013 8.19045 6.51591 8.23188C6.48849 8.31577 6.45701 8.39863 6.42248 8.47942C6.42045 8.48356 6.41842 8.4877 6.41638 8.49081C6.39709 8.52292 6.35646 8.53534 6.32092 8.51981ZM5.81617 9.41466C5.75625 9.47784 5.69328 9.53999 5.62828 9.59902C5.59578 9.62802 5.54703 9.62491 5.5186 9.59177C5.49016 9.55863 5.49321 9.50891 5.52571 9.47991C5.58766 9.42399 5.64758 9.36599 5.70343 9.30488C5.73289 9.27381 5.78164 9.27174 5.81312 9.30281C5.84054 9.32974 5.8446 9.3722 5.82429 9.40327C5.82328 9.40741 5.82023 9.41156 5.81617 9.41466ZM6.53216 7.87663C6.49052 7.86834 6.46209 7.82692 6.47021 7.78445C6.48544 7.70263 6.49763 7.6177 6.50576 7.53484C6.50982 7.49134 6.54841 7.45924 6.59107 7.46442C6.63372 7.46856 6.66521 7.50792 6.66013 7.55142C6.65099 7.63945 6.6388 7.72749 6.62255 7.81449C6.62052 7.82484 6.61646 7.83417 6.61138 7.84349C6.59513 7.86834 6.56365 7.88284 6.53216 7.87663ZM5.29415 9.86106C5.22204 9.90974 5.1479 9.95634 5.07173 9.99881C5.03416 10.0195 4.98744 10.0061 4.96611 9.96774C4.9458 9.92941 4.959 9.88177 4.99658 9.86002C5.06869 9.81963 5.13978 9.77613 5.20782 9.72952C5.24337 9.7057 5.29212 9.71502 5.31548 9.75127C5.33274 9.7782 5.33274 9.81238 5.31548 9.83827C5.3104 9.84759 5.30329 9.85484 5.29415 9.86106ZM4.68784 10.1801C4.60761 10.2111 4.52433 10.2401 4.44105 10.265C4.39941 10.2774 4.35675 10.2526 4.34457 10.2111C4.33238 10.1687 4.35675 10.1252 4.39738 10.1127C4.47659 10.0889 4.55479 10.062 4.63198 10.0319C4.67159 10.0164 4.71729 10.0371 4.73252 10.0775C4.74166 10.1024 4.73862 10.1283 4.72541 10.149C4.71729 10.1635 4.70409 10.1738 4.68784 10.1801ZM4.02872 10.3572C3.94341 10.3696 3.85606 10.3789 3.76974 10.3851C3.72708 10.3882 3.69052 10.3551 3.68748 10.3116C3.68443 10.2681 3.71693 10.2308 3.75958 10.2277C3.84185 10.2225 3.92411 10.2132 4.00536 10.2008C4.04801 10.1946 4.08762 10.2246 4.09371 10.2671C4.09676 10.2867 4.09168 10.3064 4.08254 10.3219C4.07036 10.3396 4.05207 10.353 4.02872 10.3572ZM3.34725 10.382C3.26092 10.3758 3.17358 10.3654 3.08827 10.3509C3.04562 10.3437 3.01718 10.3033 3.02429 10.2608C3.0314 10.2173 3.07101 10.1883 3.11265 10.1956C3.19389 10.2091 3.27616 10.2184 3.35842 10.2246C3.40108 10.2277 3.43358 10.266 3.43053 10.3095C3.42951 10.323 3.42545 10.3364 3.41834 10.3468C3.40311 10.3696 3.3767 10.3841 3.34725 10.382ZM2.67594 10.2546C2.59368 10.2287 2.5104 10.1997 2.43017 10.1666C2.39056 10.15 2.37126 10.1044 2.3865 10.0641C2.40274 10.0237 2.44743 10.004 2.48704 10.0195C2.56321 10.0506 2.64141 10.0786 2.72063 10.1034C2.76125 10.1158 2.78461 10.1604 2.77242 10.2018C2.77039 10.2091 2.76734 10.2163 2.76328 10.2215C2.74602 10.2505 2.71047 10.265 2.67594 10.2546ZM2.05033 9.98016C1.99549 9.94806 1.93963 9.91388 1.88682 9.87866C1.86753 9.86624 1.84823 9.85277 1.82995 9.83931C1.7944 9.81445 1.78425 9.76577 1.80964 9.72952C1.83401 9.69327 1.88174 9.68395 1.91729 9.70881C1.93557 9.72124 1.95385 9.73366 1.97213 9.74609C2.02291 9.77924 2.07471 9.81238 2.12752 9.84241C2.1651 9.86416 2.1783 9.91181 2.15697 9.95013C2.15595 9.95116 2.15494 9.95324 2.15494 9.95427C2.13158 9.98845 2.08588 10.0009 2.05033 9.98016Z" fill="#91B3FA"/>
<path opacity="0.3" d="M6.66124 7.16425C6.66936 7.15078 6.67444 7.13525 6.67342 7.11868C6.67139 7.07621 6.66936 7.03271 6.66631 6.98921C6.66327 6.94571 6.62569 6.9136 6.58303 6.91671C6.54038 6.91982 6.50788 6.95814 6.51194 7.00164C6.51499 7.04307 6.51702 7.0845 6.51905 7.12489C6.52108 7.16839 6.55663 7.20257 6.59928 7.20153C6.62467 7.19946 6.64803 7.18496 6.66124 7.16425Z" fill="#91B3FA"/>
</g>
<path d="M5.68829 6.23972C5.68322 6.22418 5.67001 6.21486 5.65478 6.21382L5.21401 6.20347C5.10839 6.02325 4.97331 5.85857 4.81183 5.71875L4.8748 5.27339C4.87683 5.25786 4.86972 5.24232 4.8555 5.23507L4.38528 4.98857C4.37107 4.98132 4.35482 4.98339 4.34364 4.99479L4.02475 5.3055C3.81858 5.25268 3.60937 5.23611 3.40422 5.25372L3.14016 4.89329C3.13102 4.88086 3.11477 4.87568 3.10055 4.87982L2.59682 5.0445C2.5826 5.04968 2.57244 5.06314 2.57143 5.07868L2.56127 5.52818C2.38456 5.63589 2.22308 5.77364 2.08597 5.93832L1.64927 5.87411C1.63403 5.87204 1.6188 5.87929 1.61169 5.89379L1.36998 6.37332C1.36287 6.38782 1.3649 6.40439 1.37607 6.41579L1.68075 6.741C1.62895 6.95125 1.61271 7.16461 1.62997 7.37382L1.27654 7.64311C1.26436 7.65243 1.25928 7.669 1.26334 7.6835L1.42482 8.19722C1.4299 8.21172 1.4431 8.22207 1.45833 8.22311L1.8991 8.23347C2.00473 8.41368 2.1398 8.57836 2.30128 8.71818L2.23831 9.16354C2.23628 9.17907 2.24339 9.19461 2.25761 9.20186L2.72783 9.44836C2.74205 9.45561 2.7583 9.45354 2.76947 9.44214L3.08837 9.13143C3.29453 9.18425 3.50375 9.20082 3.7089 9.18322L3.97295 9.54364C3.98209 9.55607 3.99834 9.56125 4.01256 9.55711L4.5163 9.39243C4.53153 9.38725 4.54067 9.37379 4.54169 9.35825L4.55184 8.90875C4.72856 8.80104 4.89004 8.66329 5.02714 8.49861L5.46385 8.56282C5.47908 8.56489 5.49432 8.55764 5.50142 8.54314L5.74314 8.06361C5.75025 8.04911 5.74821 8.03254 5.73704 8.02114L5.43236 7.69593C5.48416 7.48568 5.50041 7.27232 5.48314 7.06311L5.83657 6.79382C5.84876 6.7845 5.85384 6.76793 5.84977 6.75343L5.68829 6.23972Z" fill="#91B3FA"/>
<path d="M3.95469 7.57873C3.76071 7.80348 3.42353 7.82523 3.20416 7.62638C3.09753 7.53006 3.03354 7.39852 3.02542 7.25352C3.01628 7.10852 3.063 6.96973 3.15745 6.86098C3.35143 6.63623 3.6886 6.61448 3.90797 6.81334C4.10804 6.99356 4.14359 7.29391 4.00242 7.51556C3.9882 7.53731 3.97297 7.55802 3.95469 7.57873ZM3.14932 7.24627C3.15643 7.35709 3.20518 7.45859 3.28643 7.53213C3.45502 7.68334 3.71298 7.66677 3.86227 7.49484C4.01156 7.32291 3.9943 7.05984 3.82571 6.90759C3.65712 6.75638 3.39916 6.77295 3.24987 6.94488C3.23666 6.96041 3.22448 6.97698 3.2133 6.99356C3.16659 7.06813 3.14323 7.15616 3.14932 7.24627Z" fill="#BDD0FB"/>
<path d="M4.6402 7.95184C4.66457 7.91352 4.68692 7.87416 4.70723 7.83377C4.71332 7.82134 4.72043 7.80788 4.72652 7.79441C4.75699 7.7302 4.78137 7.66288 4.80066 7.59452C4.80066 7.59348 4.80168 7.59245 4.80168 7.59141C4.80269 7.58831 4.80269 7.58623 4.80371 7.58313C4.80473 7.57795 4.80676 7.57277 4.80777 7.56759C4.81183 7.55413 4.80574 7.53963 4.79457 7.53238C4.79152 7.53031 4.78848 7.52927 4.78543 7.52823C4.76918 7.52409 4.75191 7.53341 4.74785 7.55102C4.72449 7.63802 4.69301 7.72295 4.65239 7.80373C4.45028 8.20456 4.0674 8.44898 3.6571 8.48731C3.42859 8.50906 3.19297 8.46659 2.97462 8.35163C2.93603 8.33195 2.89947 8.30916 2.86392 8.28638C2.62424 8.12791 2.44651 7.89177 2.35815 7.61006C2.25659 7.28691 2.28503 6.94306 2.43635 6.64063C2.75119 6.01713 3.50375 5.77166 4.11412 6.09273C4.1517 6.11241 4.18826 6.13416 4.2238 6.15798C4.37716 6.25948 4.50614 6.39413 4.60262 6.55156C4.60465 6.5557 4.60872 6.55881 4.61176 6.56088C4.62192 6.56709 4.63411 6.56813 4.64528 6.56088C4.6595 6.55156 4.66457 6.53188 4.65543 6.51738C4.55489 6.35166 4.4188 6.20977 4.25833 6.10413C4.22177 6.07927 4.18318 6.05648 4.14357 6.03577C3.50273 5.69916 2.71158 5.95809 2.38151 6.61163C2.22206 6.92856 2.19261 7.29002 2.29925 7.6287C2.39167 7.92388 2.57854 8.17245 2.82939 8.3392C2.86697 8.36406 2.90556 8.38684 2.94618 8.40859C3.25696 8.5712 3.6114 8.60123 3.9435 8.49248C4.23396 8.39823 4.47669 8.2087 4.6402 7.95184Z" fill="#BDD0FB"/>
<g opacity="0.3">
<path opacity="0.3" d="M8.70254 3.7554C8.71371 3.73779 8.7127 3.71397 8.69848 3.6974C8.67207 3.66633 8.64465 3.63526 8.61622 3.60522C8.59794 3.58554 8.56747 3.58554 8.54817 3.60419C8.52887 3.62283 8.52887 3.6539 8.54716 3.67358C8.57458 3.70154 8.60098 3.73158 8.62637 3.76162C8.64364 3.78233 8.67411 3.7844 8.69442 3.76679C8.69645 3.76265 8.6995 3.75954 8.70254 3.7554Z" fill="#91B3FA"/>
<path opacity="0.3" d="M8.43446 3.49838C8.41821 3.51909 8.38774 3.5222 8.36743 3.50563C8.31564 3.46317 8.26079 3.42277 8.20494 3.38549C8.19275 3.3772 8.18158 3.36995 8.16939 3.3627C8.14705 3.3482 8.13994 3.31817 8.15416 3.29538C8.16837 3.27467 8.19783 3.26534 8.22017 3.27984C8.23236 3.28813 8.24556 3.29642 8.25775 3.30367C8.31665 3.34302 8.37352 3.38549 8.42837 3.43002C8.44766 3.44556 8.45173 3.47352 8.43852 3.49424C8.43649 3.49527 8.43548 3.49631 8.43446 3.49838ZM7.9551 3.24463C7.88198 3.21045 7.80581 3.17938 7.72862 3.15452C7.70323 3.14624 7.69003 3.11931 7.69714 3.09342C7.70526 3.06752 7.73268 3.05406 7.75706 3.06131C7.83729 3.0872 7.91752 3.11931 7.99471 3.15556C8.01908 3.16695 8.02924 3.19595 8.01807 3.22081C8.01705 3.22288 8.01603 3.22495 8.01502 3.22702C8.00182 3.2467 7.97643 3.25499 7.9551 3.24463ZM7.49199 3.09342C7.41277 3.07788 7.33152 3.06752 7.25027 3.06234C7.22387 3.06027 7.20356 3.03749 7.20559 3.01056C7.20762 2.98363 7.22996 2.96292 7.25637 2.96499C7.34066 2.97017 7.42597 2.98156 7.50925 2.99709C7.53566 3.00227 7.55191 3.02713 7.54784 3.05406C7.54683 3.06027 7.54378 3.06649 7.54074 3.07167C7.53058 3.08824 7.5123 3.09652 7.49199 3.09342ZM7.00755 3.06234C6.9263 3.06752 6.84505 3.07788 6.76584 3.09342C6.73943 3.09859 6.71506 3.08099 6.70998 3.05406C6.7049 3.02713 6.72216 3.00227 6.74857 2.99709C6.83185 2.98156 6.91716 2.97017 7.00145 2.96499C7.02786 2.96292 7.0502 2.98363 7.05223 3.01056C7.05325 3.02092 7.0502 3.03127 7.04411 3.04059C7.037 3.05302 7.02278 3.06131 7.00755 3.06234ZM6.53022 3.15349C6.45303 3.17834 6.37686 3.20838 6.30374 3.24256C6.27936 3.25395 6.25093 3.24256 6.23976 3.21874C6.22858 3.19388 6.23874 3.16488 6.26312 3.15349C6.3403 3.11724 6.42053 3.08617 6.50076 3.05924C6.52615 3.05095 6.55256 3.06545 6.56068 3.09134C6.56475 3.10584 6.56272 3.12138 6.55561 3.13277C6.54951 3.14313 6.54139 3.15038 6.53022 3.15349ZM6.08843 3.35959C6.01937 3.40309 5.95336 3.45074 5.89039 3.50252C5.87008 3.51909 5.83961 3.51599 5.82336 3.49527C5.80711 3.47456 5.81016 3.44349 5.83047 3.42692C5.89648 3.37306 5.96656 3.32231 6.03867 3.27674C6.06101 3.26224 6.09046 3.26949 6.10468 3.29227C6.11484 3.30884 6.11382 3.32956 6.10367 3.34509C6.10062 3.35131 6.09554 3.35649 6.08843 3.35959ZM5.71063 3.67031C5.65477 3.72934 5.60095 3.79252 5.5522 3.85881C5.53595 3.88056 5.5065 3.8847 5.48517 3.86813C5.46384 3.85156 5.45978 3.82152 5.47603 3.79977C5.52681 3.73038 5.58267 3.66409 5.64157 3.60195C5.65985 3.58227 5.69032 3.58227 5.70962 3.60092C5.72586 3.61749 5.72891 3.64338 5.71672 3.66306C5.71469 3.66513 5.71266 3.66824 5.71063 3.67031ZM5.24752 4.31349C5.22314 4.30313 5.21197 4.27413 5.22213 4.24927C5.25057 4.18092 5.28306 4.11256 5.31963 4.04627C5.3247 4.03592 5.3308 4.02659 5.33588 4.01624C5.34806 3.99242 5.37853 3.98517 5.40087 3.99863C5.42423 4.01209 5.43134 4.04213 5.41814 4.06492C5.41306 4.07424 5.40798 4.08356 5.4029 4.09288C5.36837 4.15606 5.33689 4.22131 5.31049 4.28656C5.30947 4.28967 5.30845 4.29174 5.30642 4.29381C5.29424 4.31452 5.26885 4.32281 5.24752 4.31349Z" fill="#91B3FA"/>
</g>
<g opacity="0.3">
<path opacity="0.3" d="M8.84676 6.24586C8.80004 6.31629 8.74926 6.38465 8.69544 6.4499C8.67817 6.47061 8.6477 6.47268 8.62739 6.45508C8.60708 6.43747 8.60505 6.4064 8.62231 6.38568C8.67411 6.32458 8.72286 6.25933 8.76653 6.19097C8.78075 6.16819 8.81121 6.16301 8.83254 6.17751C8.85488 6.19201 8.86098 6.22204 8.84676 6.24586C8.84676 6.24483 8.84676 6.24483 8.84676 6.24586ZM8.90871 6.04597C8.88535 6.03354 8.8752 6.00454 8.88738 5.98072C8.92293 5.90822 8.95543 5.83262 8.98285 5.75701C8.99199 5.73215 9.01941 5.71869 9.04379 5.72801C9.06816 5.73733 9.08136 5.76529 9.07222 5.79015C9.04379 5.8699 9.01027 5.94861 8.97269 6.02526C8.97168 6.02733 8.97066 6.02836 8.96965 6.0294C8.95746 6.05011 8.93105 6.05736 8.90871 6.04597ZM8.51974 6.63218C8.45779 6.68915 8.39177 6.74301 8.32373 6.79272C8.3024 6.80826 8.27193 6.80308 8.2567 6.78133C8.24146 6.75958 8.24654 6.72851 8.26787 6.71297C8.33287 6.66636 8.39583 6.61458 8.45474 6.55969C8.47404 6.54104 8.5045 6.54311 8.52278 6.56279C8.53802 6.57936 8.53903 6.60422 8.52786 6.62183C8.52583 6.62597 8.52278 6.62908 8.51974 6.63218ZM9.08746 5.58094C9.06207 5.57472 9.04582 5.54883 9.05191 5.5219C9.07019 5.44319 9.08339 5.36137 9.09152 5.28162C9.09457 5.25469 9.11792 5.23501 9.14433 5.23812C9.17073 5.24122 9.19003 5.26504 9.18698 5.29197C9.17784 5.3769 9.16464 5.46183 9.14534 5.54469C9.14433 5.5509 9.1423 5.55608 9.13925 5.56022C9.12706 5.57679 9.10675 5.58612 9.08746 5.58094ZM8.11147 6.92736C8.03834 6.96776 7.96116 7.00401 7.88397 7.03508C7.8596 7.04543 7.83116 7.03301 7.82202 7.00711C7.81187 6.98226 7.82405 6.95326 7.84944 6.94393C7.92358 6.9139 7.99671 6.87972 8.06678 6.8414C8.09014 6.82897 8.11959 6.83726 8.13178 6.86108C8.1399 6.87765 8.13889 6.89629 8.12975 6.91079C8.12467 6.91804 8.11858 6.92322 8.11147 6.92736ZM7.64531 7.11379C7.56406 7.13554 7.4818 7.15108 7.39953 7.16247C7.37313 7.16558 7.34875 7.14693 7.34571 7.12001C7.34266 7.09308 7.36094 7.06822 7.38735 7.06511C7.46555 7.05476 7.54476 7.03818 7.62195 7.01851C7.64734 7.01126 7.67375 7.02783 7.67984 7.05372C7.68289 7.06718 7.68085 7.08168 7.67375 7.09308C7.66765 7.10343 7.6575 7.11068 7.64531 7.11379ZM7.14868 7.18111C7.0654 7.18215 6.98111 7.17801 6.89783 7.16868C6.87142 7.16558 6.85213 7.14176 6.85518 7.11483C6.85822 7.0879 6.88158 7.06822 6.90799 7.07133C6.9872 7.08065 7.06743 7.08479 7.14665 7.08376C7.17306 7.08376 7.19438 7.10551 7.1954 7.13243C7.1954 7.14279 7.19235 7.15211 7.18728 7.15936C7.18017 7.17179 7.16595 7.18111 7.14868 7.18111Z" fill="#91B3FA"/>
<path opacity="0.3" d="M9.18904 5.06119C9.19412 5.05291 9.19716 5.04359 9.19716 5.03323C9.19615 4.9918 9.19412 4.94934 9.19107 4.90894C9.18904 4.88201 9.16568 4.86234 9.13928 4.86441C9.11287 4.86648 9.09357 4.8903 9.09561 4.91723C9.09865 4.95659 9.10068 4.99594 9.1017 5.03634C9.1017 5.06327 9.12404 5.08502 9.15045 5.08398C9.16568 5.08294 9.18091 5.07466 9.18904 5.06119Z" fill="#91B3FA"/>
</g>
<path d="M8.5401 4.40751C8.53705 4.39715 8.52791 4.39093 8.51776 4.3899L8.22222 4.38368C8.15113 4.26354 8.06074 4.15272 7.95308 4.05951L7.99472 3.76122C7.99574 3.75086 7.99066 3.74051 7.98152 3.73533L7.66669 3.56961C7.65755 3.56443 7.64637 3.56651 7.63927 3.57376L7.42599 3.78193C7.28787 3.74672 7.14772 3.73533 7.01061 3.74672L6.83491 3.50747C6.82882 3.49918 6.81765 3.49504 6.80851 3.49918L6.47133 3.60897C6.46117 3.61208 6.45508 3.6214 6.45406 3.63176L6.44797 3.93315C6.33016 4.00565 6.22149 4.09783 6.13009 4.20761L5.8376 4.16515C5.82744 4.16411 5.81729 4.16929 5.81221 4.17861L5.64971 4.49968C5.64463 4.50901 5.64667 4.5204 5.65377 4.52765L5.85791 4.74515C5.82338 4.88601 5.81221 5.02893 5.82338 5.16876L5.58674 5.34897C5.57862 5.35518 5.57456 5.36658 5.57862 5.3759L5.68627 5.71976C5.68932 5.73011 5.69846 5.73633 5.70862 5.73736L6.00416 5.74358C6.07525 5.86372 6.16563 5.97454 6.27329 6.06776L6.23165 6.36604C6.23063 6.3764 6.23571 6.38676 6.24485 6.39193L6.55969 6.55765C6.56883 6.56283 6.58 6.56076 6.58711 6.55351L6.80038 6.34533C6.9385 6.38054 7.07866 6.39193 7.21576 6.38054L7.39248 6.62186C7.39857 6.63015 7.40974 6.63429 7.41888 6.63015L7.75606 6.52036C7.76621 6.51726 7.77231 6.50794 7.77332 6.49758L7.77942 6.19618C7.89723 6.12368 8.0059 6.03151 8.0973 5.92172L8.38979 5.96418C8.39995 5.96522 8.4101 5.96004 8.41518 5.95072L8.57768 5.62965C8.58275 5.62033 8.58072 5.60893 8.57361 5.60168L8.36948 5.38418C8.40401 5.24333 8.41518 5.1004 8.40401 4.96058L8.64064 4.78036C8.64877 4.77415 8.65283 4.76276 8.64877 4.75343L8.5401 4.40751Z" fill="#91B3FA"/>
<path d="M7.3854 5.3075C7.32142 5.38207 7.23306 5.42557 7.13658 5.43179C7.0401 5.438 6.94667 5.40589 6.87456 5.34064C6.72425 5.206 6.71003 4.97193 6.84206 4.81864C6.97409 4.66536 7.20361 4.65086 7.35392 4.7855C7.42603 4.85075 7.4697 4.94086 7.47579 5.03925C7.48087 5.119 7.46056 5.19668 7.41892 5.26296C7.40876 5.27954 7.39759 5.29404 7.3854 5.3075ZM6.93752 5.26711C6.99135 5.31475 7.0594 5.33857 7.13049 5.33443C7.20158 5.33029 7.26658 5.29714 7.3133 5.24329C7.36001 5.18839 7.38337 5.119 7.37931 5.0465C7.37525 4.974 7.34275 4.90771 7.28994 4.86007C7.17924 4.76064 7.01065 4.77204 6.91417 4.88389C6.90503 4.89425 6.89792 4.90461 6.89081 4.916C6.81972 5.02682 6.83698 5.177 6.93752 5.26711Z" fill="#BDD0FB"/>
<path d="M7.86263 5.56734C7.87888 5.54145 7.89411 5.51452 7.90833 5.48656C7.93677 5.43063 7.95911 5.37263 7.97536 5.31152C7.97638 5.30841 7.97638 5.30634 7.97739 5.30324C7.98247 5.28252 7.97435 5.26077 7.95708 5.24938C7.95302 5.24627 7.94794 5.2442 7.94286 5.24316C7.91747 5.23591 7.89107 5.25145 7.88396 5.27734C7.86872 5.33327 7.84841 5.38816 7.82201 5.44099C7.82099 5.44409 7.81896 5.4472 7.81794 5.44927C7.75498 5.57149 7.66357 5.67402 7.55389 5.74859C7.49397 5.78899 7.42897 5.82213 7.35889 5.84491C7.35788 5.84491 7.35788 5.84491 7.35686 5.84595C7.35483 5.84699 7.35382 5.84699 7.35178 5.84802C7.14663 5.91534 6.92828 5.8967 6.73633 5.79624C6.71196 5.78277 6.68758 5.76931 6.66423 5.75377C6.50884 5.65124 6.39408 5.49795 6.3372 5.31566C6.27119 5.10645 6.28947 4.88377 6.38798 4.68802C6.4865 4.49331 6.65407 4.34831 6.85922 4.28099C7.06437 4.21366 7.28272 4.23231 7.47467 4.33277C7.49905 4.3452 7.5224 4.3597 7.54576 4.3742C7.64428 4.43945 7.72857 4.52645 7.79052 4.62899C7.79458 4.6352 7.79966 4.64038 7.80474 4.64452C7.81997 4.65488 7.84029 4.65488 7.85654 4.64556C7.87888 4.63106 7.88599 4.60102 7.87177 4.57824C7.80169 4.46327 7.70826 4.36591 7.59756 4.29341C7.57217 4.27684 7.54576 4.26027 7.51834 4.24681C7.30405 4.13391 7.05929 4.1132 6.82977 4.18881C6.60024 4.26338 6.41337 4.42495 6.30267 4.64452C6.19197 4.86306 6.17166 5.11266 6.2458 5.34674C6.30978 5.55077 6.43876 5.72166 6.61141 5.83663C6.6368 5.8532 6.66423 5.86977 6.69165 5.88427C7.10804 6.10074 7.61381 5.95781 7.86263 5.56734Z" fill="#BDD0FB"/>
<path d="M18.4046 8.88428L17.0112 10.3374L18.6819 9.88167L18.4046 8.88428Z" fill="#91B3FA"/>
<path d="M26.694 9.4861L18.7784 9.8776C18.5753 9.88796 18.4047 9.72225 18.4047 9.5151V6.19357C18.4047 5.8321 18.686 5.53692 19.0394 5.52553L26.174 5.30078C26.7051 5.30078 27.1358 5.73992 27.1358 6.2816V9.01278C27.1358 9.2655 26.9408 9.47368 26.694 9.4861Z" fill="#91B3FA"/>
<path opacity="0.85" d="M19.0151 9.74422C18.8892 9.74422 18.7704 9.69554 18.6779 9.60647C18.5804 9.51118 18.5266 9.38276 18.5266 9.24501V6.25179C18.5266 5.89861 18.8039 5.61379 19.1583 5.60343L26.0654 5.39111C26.5884 5.39111 27.014 5.81472 27.014 6.33568V8.91668C27.014 9.16526 26.819 9.36929 26.5701 9.38068L19.0385 9.74422C19.0303 9.74422 19.0222 9.74422 19.0151 9.74422ZM26.0654 5.42529L19.1583 5.63761C18.8232 5.64797 18.5601 5.91726 18.5601 6.25076V9.24397C18.5601 9.3724 18.6099 9.49151 18.7013 9.57954C18.7927 9.66758 18.9115 9.71315 19.0364 9.70693L26.5681 9.3434C26.7986 9.33201 26.9794 9.14351 26.9794 8.91358V6.33465C26.9794 5.83336 26.5691 5.42529 26.0654 5.42529Z" fill="white"/>
<path d="M26.0419 6.03084L19.7127 6.27216C19.6508 6.27424 19.602 6.3167 19.6041 6.36538L19.6061 6.42234C19.6081 6.47102 19.6589 6.50831 19.7209 6.50624L26.0511 6.27009C26.113 6.26802 26.1628 6.22556 26.1597 6.17688L26.1567 6.11474C26.1547 6.06606 26.1039 6.02877 26.0419 6.03084Z" fill="url(#paint4_linear)"/>
<path d="M25.4763 7.66512L19.1471 7.9054C19.0851 7.90748 19.0364 7.95098 19.0384 8.00173L19.0404 8.06076C19.0425 8.11151 19.0942 8.14983 19.1552 8.14776L25.4854 7.91369C25.5473 7.91162 25.5961 7.86812 25.5941 7.81737L25.591 7.75212C25.589 7.70137 25.5372 7.66305 25.4763 7.66512Z" fill="url(#paint5_linear)"/>
<path d="M26.2157 8.3488L19.1593 8.62016C19.0902 8.62327 19.0354 8.66677 19.0374 8.71856L19.0394 8.77759C19.0415 8.82834 19.0983 8.8677 19.1674 8.86459L26.2238 8.59945C26.2928 8.59634 26.3477 8.55284 26.3456 8.50106L26.3426 8.43581C26.3406 8.38506 26.2837 8.3457 26.2157 8.3488Z" fill="url(#paint6_linear)"/>
<path d="M22.5717 6.99416L19.1217 7.09669C19.0882 7.09773 19.0628 7.14537 19.0648 7.20234L19.0679 7.26862C19.0709 7.32559 19.0993 7.37012 19.1339 7.36909L22.5839 7.2738C22.6174 7.27276 22.6428 7.22512 22.6407 7.16816L22.6377 7.09566C22.6346 7.03869 22.6052 6.99312 22.5717 6.99416Z" fill="url(#paint7_linear)"/>
<path d="M26.373 6.87306L23.1119 6.96835C23.0794 6.96939 23.0561 7.01703 23.0591 7.07399L23.0622 7.14028C23.0652 7.19724 23.0926 7.24178 23.1241 7.24074L26.3852 7.15271C26.4177 7.15167 26.441 7.10403 26.438 7.04707L26.4349 6.97457C26.4329 6.91657 26.4045 6.87203 26.373 6.87306Z" fill="url(#paint8_linear)"/>
<path d="M6.38492 27.8037C6.38492 27.8037 6.31992 28.1807 6.28742 28.5536C6.27524 28.6996 6.38492 28.826 6.52812 28.8322C7.01459 28.8529 8.0566 28.8933 8.43034 28.8757C8.48619 28.8736 8.52276 28.8146 8.50244 28.7607C8.48518 28.7162 8.45166 28.6799 8.40901 28.6602L6.68859 27.8534L6.38492 27.8037Z" fill="url(#paint9_linear)"/>
<path d="M6.3313 27.5816L6.38411 28.0321C6.38411 28.0321 6.68574 28.1751 6.89089 28.0145L6.76597 27.5122L6.3313 27.5816Z" fill="url(#paint10_linear)"/>
<path d="M6.37079 19.1109C6.34844 19.229 6.24892 24.9824 6.85218 27.5613C6.86234 27.6038 6.84101 27.6462 6.8014 27.6628C6.70898 27.7011 6.52719 27.757 6.30985 27.7643C6.24282 27.7664 6.18189 27.7218 6.16361 27.6566C5.99095 27.0579 5.16527 24.0606 5.05762 21.1968C4.93676 17.9975 5.05762 21.0881 5.05762 21.0881L5.12871 19.1099L6.37079 19.1109Z" fill="url(#paint11_linear)"/>
<path d="M4.40567 27.9995C4.40567 27.9995 4.30207 28.1901 4.20153 28.6955C4.18325 28.7867 4.24622 28.8737 4.3366 28.883C4.49707 28.8996 4.74487 28.9203 4.94292 28.9182C5.03432 28.9172 5.10541 28.8364 5.09424 28.7442C5.0719 28.5598 5.00385 28.2574 4.79261 28.0213L4.40567 27.9995Z" fill="url(#paint12_linear)"/>
<path d="M4.31519 27.4205L4.43807 28.102C4.43807 28.102 4.55893 28.1942 4.79861 28.1268L4.73971 27.3936L4.31519 27.4205Z" fill="url(#paint13_linear)"/>
<path d="M3.98415 19.2867C3.49057 22.3224 4.09078 26.7905 4.2939 27.6646C4.30609 27.7185 4.34875 27.7589 4.40156 27.7682C4.49194 27.7837 4.64022 27.7962 4.78748 27.7527C4.83826 27.7382 4.87381 27.6915 4.87584 27.6377C4.90326 26.9303 4.85451 22.5906 5.31356 20.8755C5.33692 20.7885 5.38872 20.7129 5.46082 20.6601L6.35252 20.0138L6.42056 18.9688L3.98415 19.2867Z" fill="url(#paint14_linear)"/>
<path d="M7.12744 13.5346C5.64873 13.5097 4.01769 13.9302 4.01769 13.9302C3.57692 16.5527 3.9405 19.5769 3.9405 19.5769C5.08508 19.8835 6.3759 19.3895 6.3759 19.3895C6.56582 18.2937 7.45345 15.2093 7.45345 15.2093C8.17554 15.1182 8.77068 14.9059 9.26019 14.6242C8.88645 14.1819 8.71076 13.6206 8.63357 13.2881C8.11155 13.4538 7.58344 13.5429 7.12744 13.5346Z" fill="url(#paint15_linear)"/>
<path d="M11.4935 11.3141C11.3483 11.1349 11.1645 11.2198 11.1645 11.2198C10.9472 12.1571 9.80664 12.9163 8.63464 13.2881C8.71081 13.6206 8.88753 14.183 9.26127 14.6242C11.2061 13.5098 11.4935 11.3141 11.4935 11.3141Z" fill="url(#paint16_linear)"/>
<path d="M11.4579 11.3596C11.4731 11.4093 11.2974 11.4839 11.1938 11.2819C11.1897 11.1856 11.1329 10.7713 11.1887 10.6926C11.4904 10.2732 12.0743 9.74805 12.0743 9.74805C12.1728 9.84748 12.0916 9.94483 12.0916 9.94483L11.8082 10.2462C11.8671 10.355 11.9403 10.4482 11.9738 10.5797C11.9992 10.6802 11.9839 10.7869 11.9342 10.878C11.8844 10.9692 11.8164 11.0883 11.7524 11.1815C11.6315 11.3586 11.4579 11.3596 11.4579 11.3596Z" fill="url(#paint17_linear)"/>
<path d="M11.6843 10.4429L11.4263 10.6666L11.3451 10.8893L11.5756 11.1503C11.5756 11.1503 11.6528 10.7091 11.7107 10.6138C11.7686 10.5174 11.7381 10.4708 11.6843 10.4429Z" fill="url(#paint18_linear)"/>
<path d="M4.5843 15.3905L4.0176 13.9312C4.0176 13.9312 2.63639 14.8882 2.40991 16.101C2.67092 16.1206 3.1452 16.19 3.61035 16.4293C3.71191 15.8555 4.5843 15.3905 4.5843 15.3905Z" fill="url(#paint19_linear)"/>
<path d="M5.79091 16.764C5.79091 16.764 4.24111 17.6578 3.71808 16.8945C3.60941 16.736 3.58402 16.5786 3.61042 16.4284C3.14528 16.1892 2.671 16.1198 2.40999 16.1001C2.34194 16.4657 2.37749 16.8551 2.58873 17.2477C3.5048 18.9566 5.99707 17.1534 5.99707 17.1534L5.79091 16.764Z" fill="url(#paint20_linear)"/>
<path d="M5.60515 17.8953L6.45114 14.8824C6.46028 14.8482 6.48974 14.8233 6.52427 14.8192C6.67762 14.8005 7.12144 14.7498 7.63431 14.7052C8.2518 14.6524 8.96982 14.6089 9.3984 14.6452C9.45934 14.6504 9.4959 14.7166 9.4695 14.7715C9.22575 15.2749 8.22336 17.3204 7.72064 17.9905C7.70439 18.0123 7.67798 18.0258 7.65056 18.0258L5.68742 18.0071C5.63054 18.0071 5.58992 17.9512 5.60515 17.8953Z" fill="#91B3FA"/>
<path d="M7.72264 14.4431L8.33607 14.3385C8.36856 14.3333 8.39599 14.3644 8.38481 14.3965L8.32388 14.5839C8.3188 14.6005 8.30458 14.6119 8.28833 14.614L7.69827 14.6947C7.6678 14.6989 7.64241 14.6709 7.64952 14.6399L7.6871 14.4762C7.69014 14.4596 7.70436 14.4462 7.72264 14.4431Z" fill="#BDD0FB"/>
<path d="M7.26263 14.9726L7.31341 14.7043C7.31849 14.6774 7.33982 14.6567 7.36724 14.6546L8.60627 14.5262C8.64791 14.522 8.68142 14.5604 8.67126 14.6028L8.59205 14.9374C8.58595 14.9643 8.5626 14.984 8.53619 14.985L7.3256 15.0472C7.28599 15.0492 7.25552 15.013 7.26263 14.9726Z" fill="#BDD0FB"/>
<path d="M5.80924 17.1673C5.80924 17.1673 5.69143 16.6733 5.73917 16.4982C5.7869 16.3232 5.87932 16.0974 6.18603 16.1471C6.49274 16.1968 6.85531 16.3294 6.85531 16.3294C6.85531 16.3294 6.83703 16.5583 6.60344 16.4837L6.74766 16.5977C6.74766 16.5977 6.72734 16.781 6.53032 16.6826L6.66539 16.8338C6.66539 16.8338 6.5811 16.984 6.43587 16.8877C6.29064 16.7913 6.22056 17.2263 5.80924 17.1673Z" fill="url(#paint21_linear)"/>
<path d="M5.62941 12.3115L5.15919 13.6983C5.15106 13.7211 5.1602 13.747 5.18153 13.7584C5.3095 13.8309 5.77159 14.0401 6.32814 13.6797C6.38603 13.6424 6.42564 13.5813 6.43478 13.5119L6.58712 12.3115H5.62941Z" fill="url(#paint22_linear)"/>
<path d="M6.65319 11.0264C6.65319 11.0264 7.17012 12.0175 7.1031 12.4184C7.03708 12.8192 6.39725 12.7902 5.83766 12.465L5.44666 11.394L6.65319 11.0264Z" fill="url(#paint23_linear)"/>
<path d="M5.86309 11.9398C5.88543 11.9294 5.89457 11.9014 5.88035 11.8797C5.83872 11.8155 5.76153 11.6839 5.73716 11.569C5.73716 11.569 5.64474 11.5079 5.97379 11.4281C6.30284 11.3473 6.79337 11.223 6.89697 10.9372C6.99751 10.6586 6.73345 9.95843 6.31198 10.5167C6.29573 10.5384 6.26425 10.5384 6.248 10.5167C6.17894 10.4245 5.99715 10.235 5.74528 10.3499C5.50865 10.4576 5.48224 10.6348 5.4863 10.7238C5.48732 10.7497 5.46396 10.7704 5.43959 10.7653C5.31975 10.7425 5.03335 10.7218 4.90031 11.0221C4.79062 11.2686 4.86171 11.4084 4.92671 11.4768C4.94804 11.4985 4.9389 11.5358 4.90945 11.5441C4.83124 11.569 4.72969 11.6363 4.73984 11.8238C4.75406 12.0827 5.03843 12.0599 5.11866 12.0485C5.13186 12.0464 5.14506 12.0516 5.1542 12.0609C5.22326 12.1396 5.53607 12.4721 5.87426 12.5115C5.90371 12.5146 5.92606 12.4856 5.91692 12.4566L5.77067 12.0226C5.76356 12.0029 5.77372 11.9801 5.792 11.9719L5.86309 11.9398Z" fill="url(#paint24_linear)"/>
<path d="M5.92197 12.0007C5.92197 12.0007 5.55432 11.7438 5.5269 11.9603C5.50049 12.1767 5.85798 12.2741 6.03571 12.1933L5.92197 12.0007Z" fill="url(#paint25_linear)"/>
</g>
<defs>
<linearGradient id="paint0_linear" x1="49.6922" y1="-19.661" x2="-3.47803" y2="24.779" gradientUnits="userSpaceOnUse">
<stop stop-color="#E1473D"/>
<stop offset="1" stop-color="#E9605A"/>
</linearGradient>
<linearGradient id="paint1_linear" x1="57.3218" y1="-10.5327" x2="4.15147" y2="33.9074" gradientUnits="userSpaceOnUse">
<stop stop-color="#E1473D"/>
<stop offset="1" stop-color="#E9605A"/>
</linearGradient>
<linearGradient id="paint2_linear" x1="0.859053" y1="23.621" x2="47.2121" y2="-24.5114" gradientUnits="userSpaceOnUse">
<stop stop-color="#FF928E"/>
<stop offset="1" stop-color="#FE7062"/>
</linearGradient>
<linearGradient id="paint3_linear" x1="19.325" y1="20.2112" x2="8.80695" y2="31.6079" gradientUnits="userSpaceOnUse">
<stop stop-color="#FF928E"/>
<stop offset="1" stop-color="#FE7062"/>
</linearGradient>
<linearGradient id="paint4_linear" x1="19.6035" y1="6.26868" x2="26.1598" y2="6.26868" gradientUnits="userSpaceOnUse">
<stop stop-color="#DAE3FE"/>
<stop offset="1" stop-color="#E9EFFD"/>
</linearGradient>
<linearGradient id="paint5_linear" x1="19.0372" y1="7.90634" x2="25.5936" y2="7.90634" gradientUnits="userSpaceOnUse">
<stop stop-color="#DAE3FE"/>
<stop offset="1" stop-color="#E9EFFD"/>
</linearGradient>
<linearGradient id="paint6_linear" x1="19.0373" y1="8.60693" x2="26.3459" y2="8.60693" gradientUnits="userSpaceOnUse">
<stop stop-color="#DAE3FE"/>
<stop offset="1" stop-color="#E9EFFD"/>
</linearGradient>
<linearGradient id="paint7_linear" x1="19.0654" y1="7.18174" x2="22.6412" y2="7.18174" gradientUnits="userSpaceOnUse">
<stop stop-color="#DAE3FE"/>
<stop offset="1" stop-color="#E9EFFD"/>
</linearGradient>
<linearGradient id="paint8_linear" x1="23.0591" y1="7.05661" x2="26.4392" y2="7.05661" gradientUnits="userSpaceOnUse">
<stop stop-color="#DAE3FE"/>
<stop offset="1" stop-color="#E9EFFD"/>
</linearGradient>
<linearGradient id="paint9_linear" x1="8.37652" y1="27.2826" x2="1.94206" y2="34.1455" gradientUnits="userSpaceOnUse">
<stop stop-color="#09005D"/>
<stop offset="1" stop-color="#1A0F91"/>
</linearGradient>
<linearGradient id="paint10_linear" x1="6.33175" y1="27.8012" x2="6.89137" y2="27.8012" gradientUnits="userSpaceOnUse">
<stop stop-color="#FEBBBA"/>
<stop offset="1" stop-color="#FF928E"/>
</linearGradient>
<linearGradient id="paint11_linear" x1="8.87269" y1="19.3791" x2="3.3748" y2="26.686" gradientUnits="userSpaceOnUse">
<stop stop-color="#09005D"/>
<stop offset="1" stop-color="#1A0F91"/>
</linearGradient>
<linearGradient id="paint12_linear" x1="6.96329" y1="25.9575" x2="0.528816" y2="32.8204" gradientUnits="userSpaceOnUse">
<stop stop-color="#09005D"/>
<stop offset="1" stop-color="#1A0F91"/>
</linearGradient>
<linearGradient id="paint13_linear" x1="4.31472" y1="27.7724" x2="4.7979" y2="27.7724" gradientUnits="userSpaceOnUse">
<stop stop-color="#FEBBBA"/>
<stop offset="1" stop-color="#FF928E"/>
</linearGradient>
<linearGradient id="paint14_linear" x1="7.91725" y1="18.6599" x2="2.41936" y2="25.9668" gradientUnits="userSpaceOnUse">
<stop stop-color="#09005D"/>
<stop offset="1" stop-color="#1A0F91"/>
</linearGradient>
<linearGradient id="paint15_linear" x1="6.02169" y1="15.363" x2="14.8216" y2="0.496318" gradientUnits="userSpaceOnUse">
<stop stop-color="#4F52FF"/>
<stop offset="1" stop-color="#4042E2"/>
</linearGradient>
<linearGradient id="paint16_linear" x1="11.0527" y1="9.51555" x2="10.0303" y2="12.38" gradientUnits="userSpaceOnUse">
<stop stop-color="#FEBBBA"/>
<stop offset="1" stop-color="#FF928E"/>
</linearGradient>
<linearGradient id="paint17_linear" x1="11.8965" y1="9.81675" x2="10.8741" y2="12.6812" gradientUnits="userSpaceOnUse">
<stop stop-color="#FEBBBA"/>
<stop offset="1" stop-color="#FF928E"/>
</linearGradient>
<linearGradient id="paint18_linear" x1="11.1379" y1="11.6547" x2="11.9054" y2="10.1366" gradientUnits="userSpaceOnUse">
<stop stop-color="#FEBBBA"/>
<stop offset="1" stop-color="#FF928E"/>
</linearGradient>
<linearGradient id="paint19_linear" x1="4.24388" y1="14.3107" x2="13.0437" y2="-0.556052" gradientUnits="userSpaceOnUse">
<stop stop-color="#4F52FF"/>
<stop offset="1" stop-color="#4042E2"/>
</linearGradient>
<linearGradient id="paint20_linear" x1="2.37839" y1="17.0425" x2="5.99649" y2="17.0425" gradientUnits="userSpaceOnUse">
<stop stop-color="#FEBBBA"/>
<stop offset="1" stop-color="#FF928E"/>
</linearGradient>
<linearGradient id="paint21_linear" x1="5.72792" y1="16.656" x2="6.8551" y2="16.656" gradientUnits="userSpaceOnUse">
<stop stop-color="#FEBBBA"/>
<stop offset="1" stop-color="#FF928E"/>
</linearGradient>
<linearGradient id="paint22_linear" x1="5.15657" y1="13.098" x2="6.58705" y2="13.098" gradientUnits="userSpaceOnUse">
<stop stop-color="#FEBBBA"/>
<stop offset="1" stop-color="#FF928E"/>
</linearGradient>
<linearGradient id="paint23_linear" x1="6.92732" y1="12.1701" x2="5.33793" y2="11.2195" gradientUnits="userSpaceOnUse">
<stop stop-color="#FEBBBA"/>
<stop offset="1" stop-color="#FF928E"/>
</linearGradient>
<linearGradient id="paint24_linear" x1="4.522" y1="10.1604" x2="6.58438" y2="11.7577" gradientUnits="userSpaceOnUse">
<stop stop-color="#09005D"/>
<stop offset="1" stop-color="#1A0F91"/>
</linearGradient>
<linearGradient id="paint25_linear" x1="6.51422" y1="12.5346" x2="5.08423" y2="11.6793" gradientUnits="userSpaceOnUse">
<stop stop-color="#FEBBBA"/>
<stop offset="1" stop-color="#FF928E"/>
</linearGradient>
<clipPath id="clip0">
<rect width="28" height="29" fill="white"/>
</clipPath>
</defs>
</svg>
