<svg width="113" height="115" viewBox="0 0 113 115" fill="none" xmlns="http://www.w3.org/2000/svg">
<g clip-path="url(#clip0)">
<path d="M99.9008 98.9987C97.581 101.447 95.3841 103.024 93.6504 104.272C73.2596 118.931 49.1349 114.659 44.0074 113.616C36.4372 112.076 21.8009 109.094 11.2182 96.6248C-4.79119 77.7607 -2.2992 48.0373 10.1197 28.4175C12.3904 24.8278 24.3872 4.90818 48.7742 1.71693C63.5335 -0.217536 80.7355 3.68425 93.1954 14.141C119.345 36.0937 117.484 80.4468 99.9008 98.9987Z" fill="white"/>
<path d="M77.2474 111.156C77.0507 111.127 76.8745 111.024 76.7556 110.864C75.0342 108.539 62.521 90.3529 79.1738 73.7272C94.9823 57.9435 102.151 54.703 103.102 45.4291C103.212 44.3448 104.676 44.086 105.155 45.0635C108.746 52.3578 114.344 69.386 95.8226 80.5615C75.3908 92.8871 77.063 106.404 78.0549 110.244C78.1901 110.749 77.768 111.225 77.2474 111.156Z" fill="#91B3FA"/>
<path d="M79.7846 111.501C79.3214 111.439 78.9526 111.077 78.8788 110.613C78.391 107.451 77.1942 95.6305 85.8834 92.4968C95.4496 89.0468 103.172 97.9716 110.201 90.9854C110.57 90.6157 111.193 90.9361 111.102 91.4536C110.475 95.1048 107.688 103.557 95.2857 105.258C82.0102 107.077 80.5182 108.605 80.7847 110.498C80.8707 111.082 80.3666 111.583 79.7846 111.501Z" fill="#91B3FA"/>
<path opacity="0.47" d="M102.647 54.8838C102.483 55.5738 102.27 56.2186 102.012 56.8593C101.757 57.5 101.466 58.1243 101.151 58.7363C100.524 59.9602 99.7696 61.1225 98.9458 62.2273C97.2858 64.4329 95.2734 66.3673 93.0601 68.0061C91.9535 68.8234 90.7731 69.5709 89.6049 70.2486C88.4696 70.9098 87.3753 71.6491 86.326 72.45C84.2275 74.0518 82.3257 75.9082 80.6494 77.9454C77.3049 82.0237 74.9317 86.9441 74.1489 92.1807C73.7513 94.7928 73.7472 97.4707 74.1038 100.103C74.4604 102.74 75.2105 105.324 76.1982 107.817C76.2515 107.948 76.1859 108.1 76.0548 108.153C75.9277 108.207 75.7843 108.145 75.7228 108.022C74.567 105.562 73.7021 102.941 73.2226 100.243C72.9767 98.8918 72.8332 97.5241 72.7922 96.1482C72.7595 94.7723 72.8168 93.3923 72.989 92.0205C73.321 89.2811 74.0915 86.595 75.2064 84.0691C76.3212 81.5391 77.7926 79.1775 79.5141 77.0254C81.2314 74.8691 83.2274 72.9388 85.4079 71.2507C86.5023 70.4088 87.6417 69.6325 88.8344 68.9302C90.0025 68.2607 91.1092 67.5748 92.183 66.7986C94.3266 65.2666 96.3063 63.4964 98.0072 61.4757C98.8679 60.4736 99.6508 59.4016 100.364 58.2845C101.065 57.1632 101.716 55.9845 102.188 54.7606L102.192 54.7441C102.237 54.6209 102.376 54.5634 102.499 54.6086C102.61 54.6538 102.671 54.7729 102.647 54.8838Z" fill="white"/>
<path opacity="0.47" d="M79.2313 109.357C79.2723 109.242 79.26 109.135 79.2559 109.028L79.2477 108.704L79.2395 108.051C79.2395 107.615 79.2477 107.184 79.2682 106.749C79.3051 105.882 79.3788 105.015 79.4977 104.153C79.7354 102.432 80.1248 100.715 80.8175 99.097C81.502 97.4912 82.543 95.9551 84.0513 94.9529C84.8014 94.4601 85.6498 94.111 86.5269 93.9303C87.404 93.7454 88.3057 93.7167 89.1869 93.7947C92.6421 94.1972 96.0276 94.8585 99.4254 95.4006C101.118 95.6553 102.831 95.877 104.491 95.6511C104.905 95.5895 105.311 95.4992 105.705 95.3719C106.094 95.2363 106.479 95.0761 106.84 94.8626C107.561 94.4478 108.197 93.8851 108.766 93.2567C108.844 93.1704 108.979 93.1622 109.065 93.2403C109.152 93.3183 109.16 93.4497 109.082 93.536C108.508 94.2013 107.848 94.8133 107.082 95.2733C106.701 95.5074 106.291 95.6922 105.869 95.8483C105.446 95.9961 105.012 96.1029 104.569 96.1769C102.799 96.4356 101.048 96.2138 99.3352 95.9797C97.6179 95.7333 95.9251 95.417 94.2242 95.1419C92.5274 94.8667 90.8141 94.5997 89.1255 94.3985C88.2934 94.3163 87.4491 94.3369 86.6376 94.5011C85.8219 94.6572 85.0473 94.9735 84.3505 95.4212C82.9488 96.3165 81.9282 97.7417 81.2396 99.2819C80.5388 100.83 80.1248 102.51 79.8625 104.202C79.7313 105.048 79.6453 105.907 79.592 106.765C79.5674 107.192 79.5469 107.623 79.5387 108.055L79.5346 108.7L79.5387 109.02C79.5428 109.127 79.5346 109.238 79.5879 109.336C79.6371 109.431 79.6002 109.55 79.5059 109.599C79.4116 109.648 79.2928 109.611 79.2436 109.517C79.2149 109.468 79.2149 109.41 79.2313 109.357Z" fill="white"/>
<path d="M61.1769 1.30614C55.9716 1.26507 50.7213 2.09061 46.0734 4.02507C35.2611 8.51829 26.0801 20.4167 29.6746 32.5697C30.8428 36.5167 30.228 40.8744 34.1545 42.587C36.2776 43.5153 42.0608 44.0697 44.2618 43.3345C50.1065 41.3919 53.9469 36.069 50.7704 30.167C49.754 28.2778 48.4342 26.5528 47.5571 24.5936C46.68 22.6345 46.2783 20.3099 47.1718 18.359C48.9301 14.5311 54.7748 13.3113 58.562 13.4263C63.0336 13.5619 67.0872 15.7797 69.4931 19.5829C72.4933 24.3226 73.2516 30.089 72.813 35.5885C72.3417 41.474 69.8661 45.9713 66.1527 50.4851C62.9557 54.3745 59.4391 58.1038 57.3119 62.671C55.3609 66.8603 54.7256 71.5054 54.6355 76.0931C54.6191 76.9803 50.2089 85.3588 50.2253 87.9176C50.2294 88.279 55.2257 89.4783 55.5905 89.4824C57.4717 89.5029 62.8041 89.5646 64.7674 89.5851C65.169 89.5892 65.5051 89.2647 65.5092 88.8622C65.6486 76.4135 69.4685 64.5438 79.1413 56.1858C82.6621 53.1424 86.4534 50.6658 89.1872 46.8256C93.0891 41.3508 95.0114 35.9663 94.458 29.2142C93.9498 23.0453 91.9251 16.8722 87.9125 12.0874C83.6007 6.94114 77.2888 3.72936 70.7268 2.34114C67.6692 1.69632 64.4313 1.33079 61.1769 1.30614Z" fill="url(#paint0_linear)"/>
<path d="M70.7802 103.541C70.7802 109.267 67.612 114.331 61.9026 114.331C60.6689 114.331 56.4718 114.343 55.3734 113.945C51.3895 112.503 51.3772 109.439 51.3772 104.95C51.3772 99.2246 53.3077 93.5938 59.0171 93.5938C64.7306 93.5938 70.7802 97.8159 70.7802 103.541Z" fill="url(#paint1_linear)"/>
<path d="M56.2298 -8.16758e-06C51.0245 -0.0410796 45.7741 0.784456 41.1262 2.71892C30.314 7.21624 21.1371 19.1146 24.7275 31.2677C25.8956 35.2146 28.5925 40.1843 32.515 41.9011C34.6381 42.8293 37.1096 42.7677 39.3105 42.0366C45.1552 40.0939 48.9957 34.7711 45.8192 28.8691C44.8027 26.9798 43.483 25.2548 42.6059 23.2957C41.7287 21.3366 41.3271 19.012 42.2206 17.0611C43.9789 13.2332 49.8236 12.0134 53.6108 12.1284C58.0824 12.2639 62.136 14.4818 64.5419 18.285C67.5421 23.0246 68.3003 28.7911 67.8618 34.2905C67.3904 40.1761 64.9148 44.6734 61.2015 49.1871C58.0045 53.0766 54.4879 56.8059 52.3607 61.373C50.4097 65.5623 49.7744 70.2075 49.6842 74.7952C49.6678 75.6823 49.967 84.9644 49.9834 87.5232C49.9875 87.8846 50.2785 88.1762 50.6392 88.1803C52.5205 88.2009 57.8529 88.2625 59.8161 88.283C60.2178 88.2871 60.5539 87.9626 60.558 87.5601C60.6973 75.1114 64.5173 63.2418 74.1901 54.8837C77.7109 51.8403 81.5021 49.3637 84.2359 45.5236C88.1378 40.0487 90.0601 34.6643 89.5068 27.9121C88.9986 21.7432 86.9738 15.5702 82.9612 10.7853C78.6535 5.6391 72.3416 2.42321 65.7797 1.0391C62.7221 0.39017 59.4841 0.0287418 56.2298 -8.16758e-06Z" fill="url(#paint2_linear)"/>
<path d="M56.7708 114.01C62.4842 114.01 67.1158 109.369 67.1158 103.644C67.1158 97.9186 62.4842 93.2773 56.7708 93.2773C51.0574 93.2773 46.4258 97.9186 46.4258 103.644C46.4258 109.369 51.0574 114.01 56.7708 114.01Z" fill="url(#paint3_linear)"/>
<path opacity="0.63" d="M28.1498 30.0768C28.0883 30.0768 28.035 30.0357 28.0186 29.9741C27.2932 26.6925 27.1866 21.5586 30.7975 15.7141C34.3224 10.0134 39.2612 6.19789 45.4871 4.37432C52.1392 2.42753 60.0373 2.84235 68.9642 5.61468C69.0339 5.63521 69.0749 5.70914 69.0503 5.78307C69.0298 5.85289 68.9519 5.89396 68.8863 5.86932C51.7376 0.542355 38.294 4.09093 31.0229 15.8538C27.4612 21.6202 27.5637 26.6843 28.2768 29.9125C28.2932 29.9824 28.2481 30.0563 28.1744 30.0727C28.1703 30.0768 28.1621 30.0768 28.1498 30.0768Z" fill="white"/>
<path opacity="0.63" d="M30.3261 35.354C30.2851 35.354 30.2441 35.3334 30.2195 35.3006C30.1867 35.2595 29.4408 34.2245 28.7481 32.4091C28.7235 32.3393 28.7563 32.2654 28.826 32.2367C28.8957 32.212 28.9694 32.2449 28.9981 32.3147C29.6785 34.0972 30.4286 35.1363 30.4327 35.1445C30.4777 35.202 30.4614 35.2882 30.404 35.3293C30.3794 35.3457 30.3548 35.354 30.3261 35.354Z" fill="white"/>
<path opacity="0.63" d="M60.2303 96.9245C60.2098 96.9245 60.1893 96.9204 60.1688 96.9081C59.1072 96.3701 57.9637 96.0949 56.7669 96.0949C56.6931 96.0949 56.6357 96.0333 56.6357 95.9635C56.6357 95.8895 56.6931 95.832 56.7669 95.832C58.0047 95.832 59.1892 96.1154 60.2877 96.674C60.3532 96.7069 60.3778 96.789 60.345 96.8547C60.3286 96.8999 60.2795 96.9245 60.2303 96.9245Z" fill="white"/>
<path opacity="0.63" d="M52.488 110.141C52.4634 110.141 52.4347 110.133 52.4142 110.117C50.2624 108.659 48.9795 106.24 48.9795 103.64C48.9795 100.761 50.5534 98.1197 53.0905 96.7561C53.156 96.7233 53.2339 96.7438 53.2708 96.8095C53.3036 96.8752 53.2831 96.9533 53.2175 96.9902C50.7706 98.3086 49.25 100.855 49.25 103.64C49.25 106.149 50.4919 108.49 52.5699 109.895C52.6314 109.936 52.6478 110.018 52.6068 110.08C52.574 110.121 52.5289 110.141 52.488 110.141Z" fill="white"/>
<g opacity="0.3">
<path opacity="0.3" d="M22.3622 19.3902C22.2516 19.5258 22.0548 19.5463 21.9237 19.4354C21.6614 19.2218 21.3867 19.0206 21.108 18.8317C20.9646 18.7372 20.9277 18.5442 21.022 18.4004L21.0261 18.3963C21.1244 18.2526 21.3171 18.2156 21.4605 18.3142C21.7556 18.5154 22.0425 18.729 22.3171 18.9508C22.4442 19.0534 22.4688 19.2342 22.3827 19.3656C22.3786 19.3738 22.3704 19.382 22.3622 19.3902ZM19.6858 18.002C19.3825 17.8542 19.071 17.7145 18.7595 17.5913C18.5997 17.5297 18.5177 17.3449 18.5833 17.1847C18.6488 17.0245 18.8292 16.9424 18.989 17.0081C19.3169 17.1354 19.6448 17.2833 19.9645 17.4393C20.1203 17.5174 20.1817 17.7022 20.108 17.8583C20.1039 17.8706 20.0957 17.8788 20.0916 17.8911C20.0014 18.0226 19.8293 18.0759 19.6858 18.002ZM17.1856 17.0984C16.8577 17.0204 16.5216 16.9547 16.1896 16.9054C16.0175 16.8808 15.9027 16.7206 15.9273 16.5481C15.9519 16.3756 16.1118 16.2606 16.2839 16.2852C16.6364 16.3386 16.9889 16.4043 17.3332 16.4865C17.5012 16.5276 17.6037 16.6959 17.5668 16.8643C17.5586 16.9013 17.5422 16.9342 17.5258 16.9629C17.452 17.0738 17.3168 17.1313 17.1856 17.0984ZM14.5502 16.7781C14.2141 16.774 13.8739 16.7863 13.5378 16.8109C13.3657 16.8233 13.214 16.6959 13.2017 16.5234C13.1894 16.3509 13.3165 16.199 13.4886 16.1867C13.8411 16.1579 14.2018 16.1456 14.5543 16.1497C14.7264 16.1497 14.8658 16.2934 14.8658 16.4659C14.8658 16.5276 14.8453 16.5851 14.8166 16.6343C14.7592 16.7206 14.6608 16.7781 14.5502 16.7781ZM11.9065 17.0533C11.5787 17.1272 11.2467 17.2134 10.927 17.312C10.763 17.3613 10.5868 17.2709 10.5335 17.1067C10.4843 16.9424 10.5745 16.7658 10.7384 16.7124C11.0786 16.6056 11.4229 16.5152 11.7713 16.4413C11.9393 16.4043 12.1074 16.5111 12.1443 16.6795C12.1648 16.7658 12.1443 16.8479 12.0992 16.9177C12.0582 16.9834 11.9885 17.0327 11.9065 17.0533ZM9.38997 17.9076C9.08667 18.0513 8.78337 18.2074 8.49237 18.3758C8.34072 18.462 8.15218 18.4127 8.06611 18.2608C7.98004 18.1088 8.02922 17.9199 8.18087 17.8336C8.48827 17.657 8.80796 17.4886 9.12766 17.3408C9.28341 17.2668 9.47195 17.3367 9.54572 17.4927C9.59491 17.5954 9.58261 17.7104 9.52523 17.7967C9.48834 17.8418 9.44326 17.8788 9.38997 17.9076ZM2.33618 27.1651C2.16404 27.1404 2.04928 26.9802 2.07387 26.8077C2.12715 26.4586 2.19683 26.1054 2.2788 25.7563C2.31979 25.5879 2.48783 25.4852 2.65588 25.5263C2.82392 25.5674 2.92639 25.7358 2.8854 25.9042C2.80753 26.2327 2.74195 26.5695 2.69277 26.9022C2.68457 26.9474 2.66818 26.9885 2.64768 27.0254C2.578 27.124 2.45914 27.1815 2.33618 27.1651ZM7.12751 19.2958C6.8611 19.5011 6.60289 19.7229 6.35697 19.9529C6.22991 20.072 6.03317 20.0638 5.91431 19.9365C5.79545 19.8092 5.80365 19.612 5.93071 19.4929C6.18892 19.2506 6.46353 19.0165 6.74224 18.7988C6.8775 18.692 7.07423 18.7167 7.1808 18.8522C7.26687 18.959 7.26687 19.1068 7.19719 19.2177C7.1767 19.2506 7.15211 19.2752 7.12751 19.2958ZM2.97557 24.5036C2.81573 24.442 2.73375 24.2572 2.79933 24.097C2.93049 23.7685 3.07394 23.4399 3.23379 23.1195C3.31166 22.9635 3.5002 22.9018 3.65185 22.9799C3.8076 23.0579 3.86908 23.2468 3.79121 23.3988C3.63956 23.7027 3.5043 24.0149 3.38134 24.327C3.37314 24.3476 3.36495 24.364 3.35265 24.3845C3.27068 24.5077 3.11493 24.5611 2.97557 24.5036ZM5.22984 21.1604C5.01671 21.4233 4.81587 21.6943 4.62324 21.9736C4.52487 22.1174 4.33223 22.1543 4.18878 22.0558C4.04942 21.9613 4.00844 21.7683 4.10271 21.6245L4.1068 21.6204C4.30764 21.3247 4.52077 21.0372 4.7421 20.762C4.85276 20.6265 5.0495 20.6059 5.18065 20.7168C5.30771 20.8195 5.3323 20.9961 5.24623 21.1317C5.24213 21.1399 5.23803 21.1522 5.22984 21.1604Z" fill="#91B3FA"/>
<path opacity="0.3" d="M2.51243 29.2225C2.54522 29.1691 2.56571 29.1075 2.56161 29.0418C2.55751 28.8816 2.55342 28.7174 2.55751 28.5531C2.55751 28.3806 2.42226 28.2368 2.24602 28.2368C2.07387 28.2368 1.93042 28.3724 1.93042 28.549C1.93042 28.7215 1.93042 28.894 1.93452 29.0624C1.93862 29.2349 2.08617 29.3704 2.25831 29.3663C2.36898 29.3622 2.45915 29.3047 2.51243 29.2225Z" fill="#91B3FA"/>
</g>
<g opacity="0.3">
<path opacity="0.3" d="M6.51254 37.9054C6.59451 37.778 6.57402 37.6055 6.45926 37.5029C6.3404 37.3961 6.22154 37.2811 6.10268 37.1661C5.97972 37.0429 5.78298 37.047 5.66002 37.1702C5.53706 37.2934 5.54116 37.4905 5.66412 37.6137C5.78708 37.7329 5.91004 37.852 6.0371 37.967C6.16416 38.082 6.36499 38.0737 6.47975 37.9464C6.49615 37.93 6.50434 37.9177 6.51254 37.9054Z" fill="#91B3FA"/>
<path opacity="0.3" d="M24.563 36.0242C24.4605 36.1638 24.2678 36.1967 24.1244 36.094C23.985 35.9913 23.9523 35.7983 24.0547 35.6545C24.2474 35.3876 24.4318 35.1083 24.6039 34.8208C24.6941 34.6729 24.8867 34.6236 25.0343 34.714C25.1818 34.8044 25.231 34.9974 25.1409 35.1453C25.0671 35.2685 24.9892 35.3917 24.9113 35.5149C24.8007 35.6874 24.6859 35.8599 24.563 36.0242ZM25.5097 33.7899C25.3499 33.7201 25.2761 33.5353 25.3458 33.3792C25.477 33.0753 25.5958 32.759 25.7024 32.4469C25.7557 32.2826 25.936 32.1922 26.0999 32.2497C26.2639 32.3031 26.3541 32.4838 26.2967 32.6481C26.186 32.9808 26.059 33.3094 25.9196 33.6297C25.9114 33.6461 25.9032 33.6626 25.895 33.6749C25.8171 33.8022 25.6532 33.8515 25.5097 33.7899ZM23.4727 37.3385C23.2309 37.589 22.9768 37.8354 22.7145 38.0695C22.5833 38.1845 22.3866 38.1722 22.2718 38.0408C22.157 37.9094 22.1693 37.7122 22.3005 37.5972C22.5505 37.3754 22.7923 37.1454 23.0178 36.9031C23.1366 36.7799 23.3334 36.7717 23.4604 36.8949C23.5711 37.0017 23.5875 37.1701 23.5055 37.2933C23.5014 37.3097 23.4891 37.3261 23.4727 37.3385ZM26.3623 31.2394C26.1942 31.2065 26.0795 31.0422 26.1122 30.8738C26.1737 30.5494 26.2229 30.2126 26.2557 29.884C26.2721 29.7115 26.4278 29.5842 26.6 29.6047C26.7721 29.6211 26.8992 29.7772 26.8787 29.9497C26.8418 30.2988 26.7926 30.6479 26.727 30.9929C26.7188 31.034 26.7025 31.071 26.682 31.1079C26.6164 31.2065 26.4893 31.264 26.3623 31.2394ZM21.366 39.1086C21.075 39.3017 20.7758 39.4865 20.4684 39.6549C20.3167 39.737 20.1282 39.6836 20.0421 39.5317C19.9602 39.3797 20.0134 39.1908 20.1651 39.1045C20.4561 38.9444 20.743 38.7719 21.0176 38.587C21.1611 38.4926 21.3578 38.5295 21.4521 38.6733C21.5217 38.7801 21.5217 38.9156 21.4521 39.0183C21.4316 39.0553 21.4029 39.084 21.366 39.1086ZM18.9191 40.3736C18.5953 40.4969 18.2592 40.6119 17.9231 40.7104C17.7551 40.7597 17.5829 40.6611 17.5338 40.4969C17.4846 40.3285 17.5829 40.156 17.7469 40.1067C18.0666 40.0122 18.3822 39.9054 18.6937 39.7863C18.8535 39.7247 19.038 39.8069 19.0994 39.967C19.1363 40.0656 19.124 40.1683 19.0707 40.2504C19.038 40.3079 18.9847 40.349 18.9191 40.3736ZM16.2591 41.076C15.9148 41.1252 15.5623 41.1622 15.2139 41.1869C15.0418 41.1992 14.8942 41.0678 14.8819 40.8953C14.8696 40.7228 15.0008 40.5749 15.1729 40.5626C15.5049 40.542 15.8369 40.5051 16.1648 40.4558C16.3369 40.4311 16.4968 40.5503 16.5214 40.7186C16.5337 40.7967 16.5132 40.8747 16.4763 40.9363C16.4271 41.0061 16.3533 41.0595 16.2591 41.076ZM13.5089 41.1745C13.1605 41.1499 12.808 41.1088 12.4637 41.0513C12.2916 41.0226 12.1768 40.8624 12.2055 40.694C12.2342 40.5215 12.394 40.4065 12.5621 40.4353C12.89 40.4886 13.222 40.5256 13.554 40.5503C13.7261 40.5626 13.8573 40.7145 13.845 40.887C13.8409 40.9404 13.8245 40.9938 13.7958 41.0349C13.7343 41.1252 13.6277 41.1828 13.5089 41.1745ZM10.7997 40.6694C10.4677 40.5667 10.1316 40.4517 9.80778 40.3203C9.64793 40.2545 9.57006 40.0738 9.63154 39.9136C9.69712 39.7535 9.87746 39.6754 10.0373 39.737C10.3447 39.8603 10.6603 39.9711 10.98 40.0697C11.1439 40.119 11.2382 40.2956 11.189 40.4599C11.1808 40.4886 11.1685 40.5174 11.1521 40.5379C11.0825 40.6529 10.939 40.7104 10.7997 40.6694ZM8.27488 39.581C8.05356 39.4536 7.82813 39.3181 7.615 39.1785C7.53713 39.1292 7.45925 39.0758 7.38547 39.0224C7.24202 38.9238 7.20103 38.7308 7.3035 38.587C7.40187 38.4433 7.59451 38.4063 7.73796 38.5049C7.81174 38.5542 7.88551 38.6035 7.95929 38.6527C8.16422 38.7842 8.37325 38.9156 8.58638 39.0347C8.73803 39.121 8.79131 39.3099 8.70524 39.4619C8.70114 39.466 8.69705 39.4742 8.69705 39.4783C8.60278 39.6138 8.41834 39.6631 8.27488 39.581Z" fill="#91B3FA"/>
<path opacity="0.3" d="M26.8832 28.4136C26.916 28.3602 26.9365 28.2986 26.9324 28.2329C26.9242 28.0645 26.916 27.892 26.9037 27.7195C26.8914 27.547 26.7397 27.4197 26.5676 27.432C26.3954 27.4443 26.2643 27.5963 26.2807 27.7688C26.293 27.933 26.3012 28.0973 26.3094 28.2575C26.3176 28.43 26.461 28.5655 26.6332 28.5614C26.7356 28.5532 26.8299 28.4957 26.8832 28.4136Z" fill="#91B3FA"/>
</g>
<path d="M22.9564 24.7459C22.9359 24.6843 22.8827 24.6473 22.8212 24.6432L21.0424 24.6022C20.6161 23.8875 20.071 23.2345 19.4193 22.68L19.6734 20.9139C19.6816 20.8523 19.6529 20.7907 19.5955 20.762L17.6978 19.7845C17.6405 19.7557 17.5749 19.7639 17.5298 19.8091L16.2428 21.0413C15.4108 20.8318 14.5665 20.7661 13.7385 20.8359L12.6729 19.4066C12.636 19.3573 12.5704 19.3368 12.513 19.3532L10.4801 20.0063C10.4227 20.0268 10.3817 20.0802 10.3776 20.1418L10.3367 21.9243C9.62349 22.3514 8.97181 22.8977 8.41849 23.5507L6.65607 23.2961C6.59459 23.2879 6.53311 23.3166 6.50442 23.3741L5.52893 25.2757C5.50024 25.3332 5.50844 25.3989 5.55353 25.4441L6.78312 26.7338C6.57409 27.5675 6.50851 28.4136 6.57819 29.2432L5.15186 30.3111C5.10267 30.348 5.08218 30.4138 5.09858 30.4713L5.75026 32.5084C5.77076 32.5659 5.82404 32.607 5.88552 32.6111L7.66434 32.6522C8.0906 33.3668 8.63572 34.0198 9.2874 34.5743L9.03329 36.3404C9.02509 36.402 9.05378 36.4636 9.11116 36.4923L11.0088 37.4698C11.0662 37.4986 11.1318 37.4904 11.1769 37.4452L12.4639 36.213C13.2959 36.4225 14.1402 36.4882 14.9681 36.4184L16.0338 37.8477C16.0707 37.897 16.1363 37.9175 16.1936 37.9011L18.2266 37.2481C18.2881 37.2275 18.3249 37.1741 18.329 37.1125L18.37 35.33C19.0832 34.9029 19.7349 34.3566 20.2882 33.7036L22.0506 33.9582C22.1121 33.9664 22.1736 33.9377 22.2023 33.8802L23.1778 31.9786C23.2064 31.9211 23.1982 31.8554 23.1532 31.8102L21.9236 30.5205C22.1326 29.6868 22.1982 28.8407 22.1285 28.0111L23.5548 26.9432C23.604 26.9063 23.6245 26.8405 23.6081 26.783L22.9564 24.7459Z" fill="#91B3FA"/>
<path d="M15.9601 30.0563C15.1773 30.9476 13.8165 31.0338 12.9312 30.2452C12.5009 29.8633 12.2427 29.3417 12.2099 28.7667C12.173 28.1917 12.3615 27.6413 12.7427 27.2101C13.5255 26.3188 14.8863 26.2326 15.7716 27.0211C16.579 27.7358 16.7225 28.9268 16.1528 29.8058C16.0954 29.892 16.0339 29.9742 15.9601 30.0563ZM12.7099 28.7379C12.7386 29.1774 12.9353 29.5799 13.2632 29.8715C13.9436 30.4711 14.9847 30.4054 15.5872 29.7236C16.1897 29.0418 16.12 27.9986 15.4396 27.3949C14.7592 26.7952 13.7182 26.861 13.1157 27.5427C13.0624 27.6043 13.0132 27.6701 12.9681 27.7358C12.7796 28.0315 12.6853 28.3806 12.7099 28.7379Z" fill="#BDD0FB"/>
<path d="M18.7267 31.535C18.8251 31.3831 18.9153 31.227 18.9972 31.0668C19.0218 31.0175 19.0505 30.9641 19.0751 30.9107C19.1981 30.6561 19.2964 30.3891 19.3743 30.1181C19.3743 30.114 19.3784 30.1098 19.3784 30.1057C19.3825 30.0934 19.3825 30.0852 19.3866 30.0729C19.3907 30.0523 19.3989 30.0318 19.403 30.0113C19.4194 29.9579 19.3948 29.9004 19.3497 29.8716C19.3374 29.8634 19.3251 29.8593 19.3128 29.8552C19.2473 29.8388 19.1776 29.8757 19.1612 29.9456C19.0669 30.2906 18.9399 30.6273 18.7759 30.9477C17.9603 32.5372 16.4151 33.5065 14.7592 33.6584C13.837 33.7447 12.8861 33.5763 12.0049 33.1204C11.8492 33.0423 11.7016 32.952 11.5582 32.8616C10.5909 32.2332 9.87362 31.2968 9.51704 30.1797C9.10717 28.8982 9.22194 27.5347 9.83264 26.3354C11.1032 23.8629 14.1403 22.8895 16.6036 24.1627C16.7553 24.2407 16.9028 24.327 17.0463 24.4215C17.6652 24.824 18.1857 25.3579 18.5751 25.9822C18.5833 25.9986 18.5997 26.0109 18.612 26.0191C18.653 26.0438 18.7021 26.0479 18.7472 26.0191C18.8046 25.9822 18.8251 25.9041 18.7882 25.8466C18.3824 25.1895 17.8332 24.6268 17.1856 24.2079C17.0381 24.1093 16.8823 24.019 16.7225 23.9368C14.1362 22.602 10.9434 23.6288 9.61131 26.2204C8.96782 27.4772 8.84896 28.9106 9.27932 30.2536C9.6523 31.4241 10.4064 32.4098 11.4188 33.0711C11.5705 33.1697 11.7262 33.26 11.8902 33.3463C13.1444 33.9911 14.5748 34.1102 15.915 33.679C17.0873 33.3052 18.0668 32.5536 18.7267 31.535Z" fill="#BDD0FB"/>
<g opacity="0.3">
<path opacity="0.3" d="M35.1214 14.8929C35.1665 14.823 35.1624 14.7286 35.105 14.6629C34.9984 14.5397 34.8878 14.4164 34.773 14.2973C34.6992 14.2193 34.5763 14.2193 34.4984 14.2932C34.4205 14.3672 34.4205 14.4904 34.4943 14.5684C34.6049 14.6793 34.7115 14.7984 34.814 14.9175C34.8837 14.9997 35.0066 15.0079 35.0886 14.938C35.0968 14.9216 35.1091 14.9093 35.1214 14.8929Z" fill="#91B3FA"/>
<path opacity="0.3" d="M34.0392 13.874C33.9737 13.9562 33.8507 13.9685 33.7687 13.9028C33.5597 13.7344 33.3384 13.5742 33.1129 13.4264C33.0638 13.3935 33.0187 13.3648 32.9695 13.336C32.8793 13.2785 32.8506 13.1594 32.908 13.069C32.9654 12.9869 33.0842 12.9499 33.1744 13.0074C33.2236 13.0403 33.2769 13.0732 33.3261 13.1019C33.5638 13.258 33.7933 13.4264 34.0146 13.603C34.0925 13.6646 34.1089 13.7755 34.0556 13.8576C34.0474 13.8617 34.0433 13.8658 34.0392 13.874ZM32.1047 12.8678C31.8096 12.7323 31.5022 12.609 31.1907 12.5105C31.0882 12.4776 31.0349 12.3708 31.0636 12.2682C31.0964 12.1655 31.2071 12.1121 31.3054 12.1408C31.6292 12.2435 31.953 12.3708 32.2645 12.5146C32.3629 12.5598 32.4039 12.6748 32.3588 12.7733C32.3547 12.7815 32.3506 12.7898 32.3465 12.798C32.2932 12.876 32.1907 12.9089 32.1047 12.8678ZM30.2357 12.2682C29.916 12.2065 29.5881 12.1655 29.2602 12.1449C29.1536 12.1367 29.0717 12.0464 29.0799 11.9396C29.0881 11.8328 29.1782 11.7507 29.2848 11.7589C29.625 11.7794 29.9693 11.8246 30.3054 11.8862C30.4119 11.9067 30.4775 12.0053 30.4611 12.1121C30.457 12.1367 30.4447 12.1614 30.4324 12.1819C30.3914 12.2476 30.3176 12.2805 30.2357 12.2682ZM28.2806 12.1449C27.9527 12.1655 27.6248 12.2065 27.3051 12.2682C27.1986 12.2887 27.1002 12.2189 27.0797 12.1121C27.0592 12.0053 27.1289 11.9067 27.2355 11.8862C27.5715 11.8246 27.9158 11.7794 28.256 11.7589C28.3626 11.7507 28.4528 11.8328 28.461 11.9396C28.4651 11.9807 28.4528 12.0217 28.4282 12.0587C28.3995 12.108 28.3421 12.1408 28.2806 12.1449ZM26.3542 12.5064C26.0427 12.6049 25.7353 12.724 25.4402 12.8596C25.3419 12.9048 25.2271 12.8596 25.182 12.7651C25.1369 12.6665 25.1779 12.5515 25.2763 12.5064C25.5878 12.3626 25.9116 12.2394 26.2354 12.1326C26.3378 12.0998 26.4444 12.1573 26.4772 12.2599C26.4936 12.3174 26.4854 12.379 26.4567 12.4242C26.4321 12.4653 26.3993 12.494 26.3542 12.5064ZM24.5713 13.3237C24.2926 13.4962 24.0262 13.6851 23.7721 13.8905C23.6901 13.9562 23.5672 13.9439 23.5016 13.8617C23.436 13.7796 23.4483 13.6564 23.5303 13.5907C23.7967 13.3771 24.0795 13.1758 24.3705 12.9951C24.4607 12.9376 24.5795 12.9664 24.6369 13.0567C24.6779 13.1224 24.6738 13.2046 24.6328 13.2662C24.6205 13.2908 24.6 13.3114 24.5713 13.3237ZM23.0466 14.5558C22.8212 14.7899 22.604 15.0405 22.4072 15.3033C22.3417 15.3896 22.2228 15.406 22.1367 15.3403C22.0507 15.2746 22.0343 15.1555 22.0998 15.0692C22.3048 14.794 22.5302 14.5312 22.7679 14.2848C22.8417 14.2067 22.9647 14.2067 23.0425 14.2807C23.1081 14.3464 23.1204 14.449 23.0712 14.5271C23.063 14.5353 23.0548 14.5476 23.0466 14.5558ZM21.1776 17.1064C21.0793 17.0653 21.0342 16.9503 21.0752 16.8517C21.1899 16.5807 21.3211 16.3096 21.4686 16.0467C21.4891 16.0057 21.5137 15.9687 21.5342 15.9276C21.5834 15.8332 21.7064 15.8044 21.7965 15.8578C21.8908 15.9112 21.9195 16.0303 21.8662 16.1207C21.8457 16.1576 21.8252 16.1946 21.8047 16.2315C21.6654 16.4821 21.5383 16.7408 21.4318 16.9996C21.4277 17.0119 21.4236 17.0201 21.4154 17.0283C21.3662 17.1105 21.2637 17.1433 21.1776 17.1064Z" fill="#91B3FA"/>
</g>
<g opacity="0.3">
<path opacity="0.3" d="M35.7031 24.7705C35.5145 25.0498 35.3096 25.3208 35.0924 25.5796C35.0227 25.6617 34.8997 25.6699 34.8177 25.6001C34.7358 25.5303 34.7276 25.4071 34.7972 25.3249C35.0063 25.0826 35.203 24.8239 35.3793 24.5528C35.4366 24.4624 35.5596 24.4419 35.6457 24.4994C35.7358 24.5569 35.7604 24.676 35.7031 24.7705C35.7031 24.7664 35.7031 24.7664 35.7031 24.7705ZM35.9531 23.9778C35.8588 23.9285 35.8178 23.8135 35.867 23.719C36.0105 23.4315 36.1416 23.1317 36.2523 22.8319C36.2892 22.7333 36.3998 22.6799 36.4982 22.7169C36.5966 22.7539 36.6498 22.8648 36.613 22.9633C36.4982 23.2796 36.3629 23.5917 36.2113 23.8957C36.2072 23.9039 36.2031 23.908 36.199 23.9121C36.1498 23.9942 36.0432 24.023 35.9531 23.9778ZM34.3833 26.3024C34.1333 26.5283 33.8669 26.7419 33.5922 26.939C33.5062 27.0006 33.3832 26.9801 33.3217 26.8939C33.2603 26.8076 33.2807 26.6844 33.3668 26.6228C33.6291 26.438 33.8832 26.2326 34.121 26.0149C34.1988 25.941 34.3218 25.9492 34.3956 26.0273C34.4571 26.093 34.4612 26.1915 34.4161 26.2614C34.4079 26.2778 34.3956 26.2901 34.3833 26.3024ZM36.6744 22.1337C36.572 22.1091 36.5064 22.0064 36.531 21.8996C36.6048 21.5874 36.658 21.263 36.6908 20.9467C36.7031 20.8399 36.7974 20.7619 36.904 20.7742C37.0105 20.7866 37.0884 20.881 37.0761 20.9878C37.0392 21.3246 36.9859 21.6614 36.9081 21.9899C36.904 22.0146 36.8958 22.0351 36.8835 22.0516C36.8343 22.1173 36.7523 22.1542 36.6744 22.1337ZM32.7356 27.473C32.4405 27.6331 32.129 27.7769 31.8175 27.9001C31.7192 27.9412 31.6044 27.8919 31.5675 27.7892C31.5265 27.6906 31.5757 27.5756 31.6782 27.5387C31.9774 27.4196 32.2725 27.284 32.5553 27.1321C32.6496 27.0828 32.7684 27.1156 32.8176 27.2101C32.8504 27.2758 32.8463 27.3498 32.8094 27.4073C32.7889 27.436 32.7643 27.4565 32.7356 27.473ZM30.8543 28.2123C30.5264 28.2985 30.1945 28.3601 29.8625 28.4053C29.7559 28.4176 29.6575 28.3437 29.6452 28.2369C29.6329 28.1301 29.7067 28.0315 29.8133 28.0192C30.1289 27.9781 30.4486 27.9124 30.7601 27.8344C30.8625 27.8056 30.9691 27.8714 30.9937 27.974C31.006 28.0274 30.9978 28.0849 30.9691 28.1301C30.9445 28.1712 30.9035 28.1999 30.8543 28.2123ZM28.8501 28.4792C28.514 28.4833 28.1738 28.4669 27.8377 28.4299C27.7312 28.4176 27.6533 28.3231 27.6656 28.2164C27.6779 28.1096 27.7721 28.0315 27.8787 28.0439C28.1984 28.0808 28.5222 28.0973 28.8419 28.0931C28.9485 28.0931 29.0345 28.1794 29.0386 28.2862C29.0386 28.3273 29.0263 28.3642 29.0058 28.393C28.9772 28.4423 28.9198 28.4792 28.8501 28.4792Z" fill="#91B3FA"/>
<path opacity="0.3" d="M37.0842 20.072C37.1047 20.0391 37.117 20.0021 37.117 19.9611C37.1129 19.7968 37.1047 19.6284 37.0924 19.4682C37.0842 19.3614 36.9899 19.2834 36.8834 19.2916C36.7768 19.2998 36.6989 19.3943 36.7071 19.5011C36.7194 19.6571 36.7276 19.8132 36.7317 19.9734C36.7317 20.0802 36.8219 20.1664 36.9285 20.1623C36.9899 20.1582 37.0514 20.1254 37.0842 20.072Z" fill="#91B3FA"/>
</g>
<path d="M34.4657 17.48C34.4534 17.4389 34.4165 17.4143 34.3755 17.4102L33.1828 17.3855C32.8959 16.9091 32.5311 16.4696 32.0967 16.1L32.2647 14.9171C32.2688 14.8761 32.2483 14.835 32.2114 14.8145L30.9408 14.1573C30.904 14.1368 30.8589 14.145 30.8302 14.1737L29.9695 14.9993C29.412 14.8596 28.8464 14.8145 28.2931 14.8596L27.584 13.9109C27.5594 13.878 27.5144 13.8616 27.4775 13.878L26.1167 14.3134C26.0757 14.3257 26.0511 14.3627 26.047 14.4037L26.0225 15.5989C25.547 15.8864 25.1085 16.252 24.7396 16.6873L23.5592 16.5189C23.5182 16.5148 23.4772 16.5353 23.4567 16.5723L22.8009 17.8455C22.7804 17.8825 22.7886 17.9277 22.8173 17.9564L23.6411 18.8189C23.5018 19.3775 23.4567 19.9443 23.5018 20.4987L22.5468 21.2134C22.514 21.238 22.4976 21.2832 22.514 21.3202L22.9485 22.6837C22.9608 22.7248 22.9976 22.7495 23.0386 22.7536L24.2313 22.7782C24.5182 23.2546 24.883 23.6941 25.3175 24.0637L25.1494 25.2466C25.1453 25.2877 25.1658 25.3287 25.2027 25.3493L26.4733 26.0064C26.5102 26.027 26.5553 26.0187 26.584 25.99L27.4447 25.1645C28.0021 25.3041 28.5677 25.3493 29.121 25.3041L29.8342 26.2611C29.8588 26.2939 29.9039 26.3103 29.9408 26.2939L31.3015 25.8586C31.3425 25.8462 31.3671 25.8093 31.3712 25.7682L31.3958 24.573C31.8712 24.2855 32.3098 23.92 32.6787 23.4846L33.8591 23.653C33.9001 23.6571 33.9411 23.6366 33.9616 23.5996L34.6173 22.3264C34.6378 22.2895 34.6296 22.2443 34.6009 22.2155L33.7771 21.353C33.9165 20.7945 33.9616 20.2277 33.9165 19.6732L34.8715 18.9586C34.9042 18.9339 34.9206 18.8887 34.9042 18.8518L34.4657 17.48Z" fill="#91B3FA"/>
<path d="M29.8057 21.0492C29.5475 21.3449 29.1909 21.5174 28.8015 21.542C28.4122 21.5667 28.0351 21.4393 27.7441 21.1806C27.1375 20.6467 27.0801 19.7184 27.6129 19.1106C28.1457 18.5027 29.072 18.4452 29.6786 18.9792C29.9696 19.2379 30.1459 19.5952 30.1705 19.9854C30.191 20.3017 30.109 20.6097 29.941 20.8725C29.9 20.9383 29.8549 20.9958 29.8057 21.0492ZM27.9982 20.889C28.2154 21.0779 28.49 21.1724 28.7769 21.1559C29.0638 21.1395 29.3262 21.0081 29.5147 20.7945C29.7032 20.5768 29.7975 20.3017 29.7811 20.0142C29.7647 19.7267 29.6336 19.4638 29.4204 19.2749C28.9737 18.8806 28.2933 18.9258 27.9039 19.3693C27.867 19.4104 27.8383 19.4515 27.8097 19.4967C27.5227 19.9361 27.5924 20.5317 27.9982 20.889Z" fill="#BDD0FB"/>
<path d="M31.7318 22.0802C31.7973 21.9775 31.8588 21.8707 31.9162 21.7598C32.031 21.538 32.1211 21.308 32.1867 21.0657C32.1908 21.0534 32.1908 21.0452 32.1949 21.0328C32.2154 20.9507 32.1826 20.8644 32.1129 20.8193C32.0965 20.8069 32.076 20.7987 32.0555 20.7946C31.9531 20.7659 31.8465 20.8275 31.8178 20.9302C31.7563 21.1519 31.6744 21.3696 31.5678 21.5791C31.5637 21.5914 31.5555 21.6037 31.5514 21.6119C31.2973 22.0966 30.9284 22.5032 30.4858 22.7989C30.2439 22.9591 29.9816 23.0905 29.6988 23.1809C29.6947 23.1809 29.6947 23.1809 29.6906 23.185C29.6824 23.1891 29.6783 23.1891 29.6701 23.1932C28.8422 23.4602 27.961 23.3862 27.1863 22.9878C27.088 22.9344 26.9896 22.881 26.8953 22.8194C26.2682 22.4128 25.8051 21.805 25.5756 21.0821C25.3092 20.2525 25.3829 19.3694 25.7805 18.5932C26.1781 17.821 26.8543 17.246 27.6823 16.9791C28.5102 16.7121 29.3914 16.786 30.1661 17.1844C30.2644 17.2337 30.3587 17.2912 30.453 17.3487C30.8505 17.6075 31.1907 17.9525 31.4407 18.3591C31.4571 18.3837 31.4776 18.4043 31.4981 18.4207C31.5596 18.4618 31.6416 18.4618 31.7072 18.4248C31.7973 18.3673 31.826 18.2482 31.7686 18.1578C31.4858 17.7019 31.1088 17.3159 30.662 17.0284C30.5595 16.9627 30.453 16.8969 30.3423 16.8435C29.4775 16.3959 28.4897 16.3137 27.5634 16.6135C26.6371 16.9093 25.883 17.55 25.4362 18.4207C24.9895 19.2873 24.9075 20.2771 25.2067 21.2053C25.4649 22.0144 25.9854 22.6921 26.6822 23.148C26.7847 23.2137 26.8953 23.2794 27.006 23.3369C28.6864 24.1953 30.7276 23.6285 31.7318 22.0802Z" fill="#BDD0FB"/>
<path d="M74.276 35.2314L68.6526 40.9938L75.3949 39.1866L74.276 35.2314Z" fill="#91B3FA"/>
<path d="M107.729 37.6175L75.7842 39.17C74.9645 39.2111 74.2759 38.5539 74.2759 37.7325V24.5609C74.2759 23.1275 75.4112 21.9569 76.8375 21.9118L105.631 21.0205C107.774 21.0205 109.512 22.7619 109.512 24.91V35.7405C109.512 36.7427 108.725 37.5682 107.729 37.6175Z" fill="#91B3FA"/>
<path opacity="0.85" d="M76.7395 38.6402C76.2313 38.6402 75.7517 38.4472 75.3788 38.094C74.9853 37.7161 74.7681 37.2069 74.7681 36.6606V24.791C74.7681 23.3904 75.887 22.261 77.3174 22.2199L105.192 21.3779C107.303 21.3779 109.021 23.0578 109.021 25.1236V35.3586C109.021 36.3444 108.234 37.1535 107.229 37.1986L76.8338 38.6402C76.801 38.6402 76.7682 38.6402 76.7395 38.6402ZM105.192 21.5135L77.3174 22.3554C75.9649 22.3965 74.9033 23.4644 74.9033 24.7869V36.6565C74.9033 37.1658 75.1042 37.6381 75.473 37.9872C75.8419 38.3363 76.3215 38.517 76.8256 38.4924L107.221 37.0508C108.152 37.0056 108.881 36.2581 108.881 35.3463V25.1195C108.881 23.1317 107.225 21.5135 105.192 21.5135Z" fill="white"/>
<path d="M105.098 23.9159L79.555 24.8728C79.305 24.881 79.1083 25.0494 79.1165 25.2425L79.1247 25.4684C79.1329 25.6614 79.3378 25.8092 79.5878 25.801L105.135 24.8646C105.385 24.8564 105.586 24.688 105.573 24.495L105.561 24.2485C105.553 24.0555 105.348 23.9076 105.098 23.9159Z" fill="url(#paint4_linear)"/>
<path d="M102.815 30.3973L77.2723 31.3501C77.0223 31.3584 76.8255 31.5309 76.8337 31.7321L76.8419 31.9662C76.8501 32.1675 77.0592 32.3194 77.3051 32.3112L102.852 31.383C103.102 31.3748 103.299 31.2023 103.291 31.001L103.278 30.7423C103.27 30.541 103.061 30.3891 102.815 30.3973Z" fill="url(#paint5_linear)"/>
<path d="M105.799 33.1081L77.3214 34.1842C77.0427 34.1965 76.8214 34.369 76.8296 34.5744L76.8378 34.8085C76.846 35.0097 77.0755 35.1658 77.3542 35.1535L105.832 34.102C106.11 34.0897 106.332 33.9172 106.324 33.7119L106.311 33.4531C106.303 33.2519 106.074 33.0958 105.799 33.1081Z" fill="url(#paint6_linear)"/>
<path d="M91.0928 27.7359L77.1697 28.1425C77.0344 28.1466 76.932 28.3356 76.9402 28.5614L76.9525 28.8243C76.9648 29.0502 77.0795 29.2268 77.2189 29.2227L91.142 28.8448C91.2773 28.8407 91.3797 28.6518 91.3715 28.4259L91.3592 28.1384C91.3469 27.9125 91.2281 27.7318 91.0928 27.7359Z" fill="url(#paint7_linear)"/>
<path d="M106.434 27.255L93.2733 27.6328C93.1421 27.6369 93.0479 27.8258 93.0602 28.0517L93.0725 28.3146C93.0848 28.5405 93.1954 28.7171 93.3225 28.713L106.483 28.3639C106.614 28.3598 106.709 28.1708 106.696 27.945L106.684 27.6575C106.676 27.4275 106.561 27.2508 106.434 27.255Z" fill="url(#paint8_linear)"/>
<path d="M25.7681 110.256C25.7681 110.256 25.5057 111.751 25.3746 113.229C25.3254 113.809 25.7681 114.31 26.346 114.334C28.3092 114.416 32.5145 114.577 34.0228 114.507C34.2482 114.499 34.3957 114.264 34.3138 114.051C34.2441 113.874 34.1088 113.731 33.9367 113.652L26.9936 110.453L25.7681 110.256Z" fill="url(#paint9_linear)"/>
<path d="M25.5513 109.377L25.7644 111.164C25.7644 111.164 26.9817 111.731 27.8096 111.094L27.3055 109.102L25.5513 109.377Z" fill="url(#paint10_linear)"/>
<path d="M25.7104 75.7849C25.6203 76.2531 25.2186 99.0683 27.6532 109.295C27.6942 109.463 27.6081 109.632 27.4483 109.698C27.0753 109.85 26.3416 110.071 25.4645 110.1C25.194 110.108 24.9481 109.932 24.8743 109.673C24.1775 107.299 20.8453 95.4129 20.4109 84.0567C19.9231 71.3697 20.4109 83.6254 20.4109 83.6254L20.6978 75.7808L25.7104 75.7849Z" fill="url(#paint11_linear)"/>
<path d="M17.78 111.032C17.78 111.032 17.3619 111.788 16.9561 113.792C16.8824 114.154 17.1365 114.499 17.5013 114.536C18.1488 114.601 19.1489 114.683 19.9482 114.675C20.317 114.671 20.6039 114.351 20.5589 113.985C20.4687 113.254 20.1941 112.055 19.3416 111.118L17.78 111.032Z" fill="url(#paint12_linear)"/>
<path d="M17.415 108.737L17.911 111.439C17.911 111.439 18.3987 111.805 19.366 111.538L19.1283 108.63L17.415 108.737Z" fill="url(#paint13_linear)"/>
<path d="M16.0791 76.4831C14.0872 88.5211 16.5095 106.239 17.3292 109.706C17.3784 109.919 17.5505 110.08 17.7637 110.116C18.1284 110.178 18.7268 110.227 19.3212 110.055C19.5261 109.997 19.6695 109.813 19.6777 109.599C19.7884 106.794 19.5917 89.5849 21.4443 82.7834C21.5385 82.4384 21.7476 82.1386 22.0386 81.9291L25.6372 79.3663L25.9118 75.2222L16.0791 76.4831Z" fill="url(#paint14_linear)"/>
<path d="M28.7641 53.6718C22.7965 53.5733 16.214 55.2408 16.214 55.2408C14.4352 65.6401 15.9025 77.6329 15.9025 77.6329C20.5217 78.8486 25.7311 76.8895 25.7311 76.8895C26.4976 72.5442 30.0798 60.3131 30.0798 60.3131C32.9939 59.9517 35.3957 59.1097 37.3713 57.9926C35.863 56.2388 35.1539 54.0127 34.8424 52.6943C32.7357 53.3515 30.6044 53.7047 28.7641 53.6718Z" fill="url(#paint15_linear)"/>
<path d="M46.3844 44.8661C45.7983 44.1556 45.0564 44.4924 45.0564 44.4924C44.1793 48.2093 39.5765 51.2198 34.8467 52.6943C35.1541 54.0127 35.8672 56.2429 37.3756 57.9925C45.2245 53.5732 46.3844 44.8661 46.3844 44.8661Z" fill="url(#paint16_linear)"/>
<path d="M46.2409 45.047C46.3023 45.2441 45.5933 45.5398 45.1752 44.7389C45.1588 44.357 44.9293 42.7141 45.1547 42.402C46.372 40.7386 48.7287 38.6562 48.7287 38.6562C49.1263 39.0505 48.7984 39.4366 48.7984 39.4366L47.6549 40.6318C47.8926 41.063 48.1877 41.4327 48.323 41.9543C48.4254 42.3527 48.364 42.7757 48.1631 43.1371C47.9623 43.4986 47.6877 43.9709 47.4295 44.3405C46.9417 45.0429 46.2409 45.047 46.2409 45.047Z" fill="url(#paint17_linear)"/>
<path d="M47.1546 41.4121L46.1135 42.2993L45.7856 43.1823L46.716 44.2173C46.716 44.2173 47.0275 42.4676 47.2612 42.0898C47.4948 41.7078 47.3718 41.523 47.1546 41.4121Z" fill="url(#paint18_linear)"/>
<path d="M18.501 61.0321L16.214 55.2451C16.214 55.2451 10.6398 59.0401 9.72583 63.8496C10.7792 63.9276 12.6933 64.2028 14.5704 65.1515C14.9803 62.8762 18.501 61.0321 18.501 61.0321Z" fill="url(#paint19_linear)"/>
<path d="M23.3705 66.4784C23.3705 66.4784 17.1159 70.0229 15.0051 66.9959C14.5665 66.3675 14.4641 65.7432 14.5706 65.1477C12.6935 64.1989 10.7794 63.9237 9.72603 63.8457C9.45142 65.2955 9.59488 66.8398 10.4474 68.3964C14.1444 75.1732 24.2025 68.0227 24.2025 68.0227L23.3705 66.4784Z" fill="url(#paint20_linear)"/>
<path d="M22.6207 70.9631L26.0349 59.0154C26.0717 58.8799 26.1906 58.7813 26.33 58.7649C26.9489 58.691 28.74 58.4897 30.8098 58.3131C33.3018 58.1036 36.1995 57.9311 37.9292 58.0749C38.1751 58.0954 38.3226 58.3583 38.2161 58.576C37.2324 60.572 33.187 68.6836 31.1582 71.341C31.0926 71.4272 30.986 71.4806 30.8754 71.4806L22.9527 71.4067C22.7231 71.4067 22.5592 71.1849 22.6207 70.9631Z" fill="#91B3FA"/>
<path d="M31.1662 57.274L33.6418 56.8592C33.7729 56.8387 33.8836 56.9619 33.8385 57.0892L33.5926 57.8326C33.5721 57.8983 33.5147 57.9435 33.4491 57.9517L31.0678 58.2721C30.9448 58.2885 30.8424 58.1776 30.8711 58.0544L31.0227 57.4054C31.035 57.3397 31.0924 57.2863 31.1662 57.274Z" fill="#BDD0FB"/>
<path d="M29.3096 59.373L29.5145 58.3092C29.535 58.2024 29.6211 58.1203 29.7318 58.1121L34.7321 57.6028C34.9002 57.5864 35.0354 57.7383 34.9944 57.9067L34.6747 59.2333C34.6501 59.3401 34.5559 59.4181 34.4493 59.4222L29.5637 59.6687C29.4039 59.6769 29.2809 59.5331 29.3096 59.373Z" fill="#BDD0FB"/>
<path d="M23.4445 68.0757C23.4445 68.0757 22.969 66.1166 23.1617 65.4225C23.3543 64.7284 23.7273 63.833 24.9651 64.0302C26.2029 64.2273 27.6661 64.753 27.6661 64.753C27.6661 64.753 27.5923 65.6607 26.6496 65.365L27.2316 65.8168C27.2316 65.8168 27.1497 66.5437 26.3545 66.1536L26.8996 66.7532C26.8996 66.7532 26.5595 67.3487 25.9733 66.9668C25.3872 66.5848 25.1044 68.3098 23.4445 68.0757Z" fill="url(#paint21_linear)"/>
<path d="M22.7189 48.8213L20.8212 54.3207C20.7884 54.4111 20.8253 54.5138 20.9114 54.559C21.4278 54.8465 23.2927 55.6761 25.5387 54.2468C25.7724 54.099 25.9322 53.8566 25.9691 53.5815L26.5839 48.8213H22.7189Z" fill="url(#paint22_linear)"/>
<path d="M26.8504 43.7246C26.8504 43.7246 28.9366 47.6551 28.6661 49.2446C28.3997 50.8341 25.8176 50.7191 23.5592 49.4294L21.9812 45.1826L26.8504 43.7246Z" fill="url(#paint23_linear)"/>
<path d="M23.6617 47.3472C23.7519 47.3062 23.7887 47.1953 23.7314 47.109C23.5633 46.8544 23.2518 46.3328 23.1535 45.8769C23.1535 45.8769 22.7805 45.6345 24.1084 45.3183C25.4364 44.9979 27.4161 44.5051 27.8341 43.3715C28.2399 42.2667 27.1742 39.4903 25.4733 41.704C25.4077 41.7903 25.2807 41.7903 25.2151 41.704C24.9364 41.3385 24.2027 40.5869 23.1862 41.0428C22.2313 41.4699 22.1247 42.1722 22.1411 42.5254C22.1452 42.6281 22.0509 42.7103 21.9526 42.6897C21.4689 42.5994 20.3131 42.5172 19.7762 43.7083C19.3335 44.6858 19.6204 45.2403 19.8827 45.5113C19.9688 45.5976 19.9319 45.7454 19.8131 45.7783C19.4975 45.8769 19.0876 46.1438 19.1286 46.8872C19.186 47.914 20.3336 47.8237 20.6574 47.7785C20.7107 47.7703 20.7639 47.7908 20.8008 47.8278C21.0795 48.1399 22.3419 49.4583 23.7068 49.6144C23.8256 49.6267 23.9158 49.5117 23.8789 49.3967L23.2887 47.6758C23.26 47.5978 23.301 47.5074 23.3748 47.4745L23.6617 47.3472Z" fill="url(#paint24_linear)"/>
<path d="M23.8993 47.5896C23.8993 47.5896 22.4156 46.5711 22.3049 47.4294C22.1983 48.2878 23.6411 48.6739 24.3583 48.3535L23.8993 47.5896Z" fill="url(#paint25_linear)"/>
</g>
<defs>
<linearGradient id="paint0_linear" x1="200.544" y1="-77.9646" x2="-10.9296" y2="101.915" gradientUnits="userSpaceOnUse">
<stop stop-color="#E1473D"/>
<stop offset="1" stop-color="#E9605A"/>
</linearGradient>
<linearGradient id="paint1_linear" x1="231.334" y1="-41.7662" x2="19.8605" y2="138.114" gradientUnits="userSpaceOnUse">
<stop stop-color="#E1473D"/>
<stop offset="1" stop-color="#E9605A"/>
</linearGradient>
<linearGradient id="paint2_linear" x1="3.46699" y1="93.6701" x2="187.131" y2="-100.421" gradientUnits="userSpaceOnUse">
<stop stop-color="#FF928E"/>
<stop offset="1" stop-color="#FE7062"/>
</linearGradient>
<linearGradient id="paint3_linear" x1="77.9901" y1="80.1484" x2="36.3453" y2="126.071" gradientUnits="userSpaceOnUse">
<stop stop-color="#FF928E"/>
<stop offset="1" stop-color="#FE7062"/>
</linearGradient>
<linearGradient id="paint4_linear" x1="79.1143" y1="24.859" x2="105.573" y2="24.859" gradientUnits="userSpaceOnUse">
<stop stop-color="#DAE3FE"/>
<stop offset="1" stop-color="#E9EFFD"/>
</linearGradient>
<linearGradient id="paint5_linear" x1="76.8289" y1="31.3539" x2="103.289" y2="31.3539" gradientUnits="userSpaceOnUse">
<stop stop-color="#DAE3FE"/>
<stop offset="1" stop-color="#E9EFFD"/>
</linearGradient>
<linearGradient id="paint6_linear" x1="76.829" y1="34.1317" x2="106.325" y2="34.1317" gradientUnits="userSpaceOnUse">
<stop stop-color="#DAE3FE"/>
<stop offset="1" stop-color="#E9EFFD"/>
</linearGradient>
<linearGradient id="paint7_linear" x1="76.9423" y1="28.4798" x2="91.3734" y2="28.4798" gradientUnits="userSpaceOnUse">
<stop stop-color="#DAE3FE"/>
<stop offset="1" stop-color="#E9EFFD"/>
</linearGradient>
<linearGradient id="paint8_linear" x1="93.06" y1="27.9828" x2="106.701" y2="27.9828" gradientUnits="userSpaceOnUse">
<stop stop-color="#DAE3FE"/>
<stop offset="1" stop-color="#E9EFFD"/>
</linearGradient>
<linearGradient id="paint9_linear" x1="33.8056" y1="108.189" x2="8.32231" y2="135.851" gradientUnits="userSpaceOnUse">
<stop stop-color="#09005D"/>
<stop offset="1" stop-color="#1A0F91"/>
</linearGradient>
<linearGradient id="paint10_linear" x1="25.5531" y1="110.248" x2="27.8115" y2="110.248" gradientUnits="userSpaceOnUse">
<stop stop-color="#FEBBBA"/>
<stop offset="1" stop-color="#FF928E"/>
</linearGradient>
<linearGradient id="paint11_linear" x1="35.8074" y1="76.8483" x2="14.1142" y2="106.19" gradientUnits="userSpaceOnUse">
<stop stop-color="#09005D"/>
<stop offset="1" stop-color="#1A0F91"/>
</linearGradient>
<linearGradient id="paint12_linear" x1="28.1018" y1="102.935" x2="2.61857" y2="130.596" gradientUnits="userSpaceOnUse">
<stop stop-color="#09005D"/>
<stop offset="1" stop-color="#1A0F91"/>
</linearGradient>
<linearGradient id="paint13_linear" x1="17.4132" y1="110.132" x2="19.3631" y2="110.132" gradientUnits="userSpaceOnUse">
<stop stop-color="#FEBBBA"/>
<stop offset="1" stop-color="#FF928E"/>
</linearGradient>
<linearGradient id="paint14_linear" x1="31.952" y1="73.9974" x2="10.2588" y2="103.339" gradientUnits="userSpaceOnUse">
<stop stop-color="#09005D"/>
<stop offset="1" stop-color="#1A0F91"/>
</linearGradient>
<linearGradient id="paint15_linear" x1="24.3016" y1="60.9226" x2="58.9002" y2="1.4361" gradientUnits="userSpaceOnUse">
<stop stop-color="#4F52FF"/>
<stop offset="1" stop-color="#4042E2"/>
</linearGradient>
<linearGradient id="paint16_linear" x1="44.6052" y1="37.734" x2="40.6058" y2="49.1375" gradientUnits="userSpaceOnUse">
<stop stop-color="#FEBBBA"/>
<stop offset="1" stop-color="#FF928E"/>
</linearGradient>
<linearGradient id="paint17_linear" x1="48.011" y1="38.9287" x2="44.0115" y2="50.3322" gradientUnits="userSpaceOnUse">
<stop stop-color="#FEBBBA"/>
<stop offset="1" stop-color="#FF928E"/>
</linearGradient>
<linearGradient id="paint18_linear" x1="44.9496" y1="46.2176" x2="47.9611" y2="40.1552" gradientUnits="userSpaceOnUse">
<stop stop-color="#FEBBBA"/>
<stop offset="1" stop-color="#FF928E"/>
</linearGradient>
<linearGradient id="paint19_linear" x1="17.1272" y1="56.7501" x2="51.7257" y2="-2.73639" gradientUnits="userSpaceOnUse">
<stop stop-color="#4F52FF"/>
<stop offset="1" stop-color="#4042E2"/>
</linearGradient>
<linearGradient id="paint20_linear" x1="9.59852" y1="67.5828" x2="24.2001" y2="67.5828" gradientUnits="userSpaceOnUse">
<stop stop-color="#FEBBBA"/>
<stop offset="1" stop-color="#FF928E"/>
</linearGradient>
<linearGradient id="paint21_linear" x1="23.1163" y1="66.0483" x2="27.6653" y2="66.0483" gradientUnits="userSpaceOnUse">
<stop stop-color="#FEBBBA"/>
<stop offset="1" stop-color="#FF928E"/>
</linearGradient>
<linearGradient id="paint22_linear" x1="20.8106" y1="51.94" x2="26.5836" y2="51.94" gradientUnits="userSpaceOnUse">
<stop stop-color="#FEBBBA"/>
<stop offset="1" stop-color="#FF928E"/>
</linearGradient>
<linearGradient id="paint23_linear" x1="27.9568" y1="48.26" x2="21.6022" y2="44.3922" gradientUnits="userSpaceOnUse">
<stop stop-color="#FEBBBA"/>
<stop offset="1" stop-color="#FF928E"/>
</linearGradient>
<linearGradient id="paint24_linear" x1="18.2494" y1="40.2913" x2="26.4626" y2="46.7649" gradientUnits="userSpaceOnUse">
<stop stop-color="#09005D"/>
<stop offset="1" stop-color="#1A0F91"/>
</linearGradient>
<linearGradient id="paint25_linear" x1="26.2895" y1="49.7069" x2="20.5722" y2="46.227" gradientUnits="userSpaceOnUse">
<stop stop-color="#FEBBBA"/>
<stop offset="1" stop-color="#FF928E"/>
</linearGradient>
<clipPath id="clip0">
<rect width="113" height="115" fill="white"/>
</clipPath>
</defs>
</svg>
