<svg width="380" height="219" viewBox="0 0 380 219" fill="none" xmlns="http://www.w3.org/2000/svg">
<path d="M58.656 147.269C58.656 147.269 59.3095 119.661 46.5925 112.279C33.8756 104.887 9.7059 100.269 8.79525 60.6292C8.25957 37.413 7.69175 27.2673 7.30607 22.8426C7.15608 21.1178 8.68811 19.725 10.3916 20.0464C22.4336 22.3177 61.5593 31.6492 69.7552 58.358C79.483 90.0057 58.656 147.269 58.656 147.269Z" fill="url(#paint0_linear)"/>
<g opacity="0.7">
<path opacity="0.7" d="M19.7018 31.0706C32.9223 42.8662 48.2105 63.7254 56.3527 84.5953C57.4027 88.0344 60.456 95.3517 61.7845 108.336C62.9737 119.168 62.3845 130.621 60.9381 138.206C60.8524 138.688 60.381 138.999 59.9096 138.913C59.0847 138.752 59.1918 137.874 59.2025 137.895C60.8417 124.942 60.1668 108.829 56.3956 94.2804C51.5852 76.4209 40.861 59.1079 29.7618 44.4197L28.6154 42.9733C20.0232 31.9277 18.2126 31.8527 19.0161 31.0813C19.2089 30.8992 19.5089 30.8992 19.7018 31.0706Z" fill="#7D97F4"/>
</g>
<path d="M65 162C66.7249 162.846 62.8023 178.542 57.1562 142.984C54.4993 126.228 54.4672 105.229 44.9214 97.1407C36.972 90.4019 9.94176 94.6552 1.09239 96.2729C-0.0111004 96.4765 -0.386074 97.8693 0.471008 98.5978C4.71356 102.165 13.7879 110.565 16.1556 119.028C19.2732 130.192 29.8903 137.295 39.3825 139.213C48.8854 141.13 54.1672 142.995 58.7954 158.197C63.4344 173.389 60.1146 159.6 65 162Z" fill="#7D97F4"/>
<path d="M13.5304 100.987C24.8118 101.459 36.9288 106.612 43.0783 116.265L43.6568 117.186C44.996 119.35 52.5919 134.713 56.8131 147.441C56.8666 147.602 56.7809 147.773 56.6202 147.827C56.3524 147.912 56.2131 147.623 56.2452 147.645C53.3097 140.456 49.0886 131.328 45.7246 124.514C42.1141 117.068 39.5964 112.033 31.3684 107.201C22.2191 102.005 13.4661 101.469 13.4983 101.469C13.3697 101.459 13.2626 101.341 13.284 101.201C13.2947 101.073 13.4018 100.976 13.5304 100.987Z" fill="#91B3FA"/>
<path d="M165.201 144.969L159.255 198.286H228.226L219.246 144.969H165.201Z" fill="url(#paint1_linear)"/>
<path d="M37 14.8374V147.893C37 158.836 45.7262 167.794 56.6698 168.07C105.265 169.327 275.244 172.361 321.511 171.677C329.465 171.556 335.908 165.201 336.128 157.248C337.022 126.336 338.467 52.0037 333.106 17.4961C331.981 10.2261 325.847 4.79845 318.489 4.55575C277.77 3.26502 97.5869 -0.871921 51.3414 0.165072C43.3654 0.341581 37 6.8614 37 14.8374Z" fill="url(#paint2_linear)"/>
<path d="M45.3506 14.1866V140.6C45.3506 146.988 50.4804 152.195 56.8678 152.294L314.848 155.482C321.18 155.582 326.376 150.485 326.398 144.142L326.828 18.853C326.85 14.3189 323.232 10.6122 318.709 10.5019L54.5842 5.17354C49.5206 5.05219 45.3506 9.12294 45.3506 14.1866Z" fill="url(#paint3_linear)"/>
<path d="M328.34 160.645L45.3397 155.824C45.1522 155.824 45.0088 155.67 45.0088 155.482C45.0088 155.295 45.1522 155.162 45.3508 155.151L328.34 159.972C328.527 159.972 328.671 160.127 328.671 160.314C328.671 160.491 328.527 160.645 328.34 160.645Z" fill="#91B3FA"/>
<path d="M45.3506 14.1866V140.6C45.3506 146.988 50.4804 152.195 56.8678 152.294L314.848 155.482C321.18 155.582 326.376 150.485 326.398 144.142L326.828 18.853C326.85 14.3189 323.232 10.6122 318.709 10.5019L54.5842 5.17354C49.5206 5.05219 45.3506 9.12294 45.3506 14.1866Z" fill="#A4C0FB"/>
<path d="M217.304 130.639C218.236 130.639 219 129.87 219 128.932L219 35.4712C219 34.5332 218.236 33.7645 217.304 33.7645L154.507 33C151.464 33.0909 150.371 35.7729 150.437 37.4011L148.001 128.726C147.977 129.602 148.313 130.445 148.925 131.065C149.537 131.685 150.379 132.024 151.246 131.999L217.304 130.639Z" fill="#FF867F"/>
<path d="M189.636 166.536C187.827 166.536 186.359 165.069 186.359 163.26C186.359 161.451 187.827 159.983 189.636 159.983C191.445 159.983 192.912 161.451 192.912 163.26C192.912 165.058 191.445 166.536 189.636 166.536ZM189.636 160.645C188.202 160.645 187.032 161.815 187.032 163.249C187.032 164.683 188.202 165.852 189.636 165.852C191.07 165.852 192.239 164.683 192.239 163.249C192.239 161.815 191.07 160.645 189.636 160.645Z" fill="#91B3FA"/>
<path d="M243.086 209.196H142.145C139.398 209.196 137.346 207.244 137.876 205.148L139.166 200.029C139.552 198.484 141.251 197.359 143.259 197.293L240.571 194.259C242.678 194.193 244.532 195.307 244.995 196.907L247.334 205.07C247.94 207.188 245.866 209.196 243.086 209.196Z" fill="url(#paint4_linear)"/>
<path d="M196.477 198.682C196.289 198.682 196.146 198.539 196.135 198.352C196.135 198.164 196.278 198.01 196.466 198.01L200.636 197.943C200.812 197.943 200.978 198.087 200.978 198.274C200.978 198.462 200.834 198.616 200.647 198.616L196.477 198.682C196.488 198.682 196.488 198.682 196.477 198.682Z" fill="#91B3FA"/>
<path d="M141.604 206.383C141.582 206.383 141.571 206.383 141.549 206.383C141.361 206.35 141.24 206.184 141.273 205.997L141.869 202.268C142.189 200.26 143.899 198.782 145.928 198.76L190.155 198.109C190.343 198.12 190.497 198.252 190.497 198.44C190.497 198.627 190.354 198.782 190.166 198.782L145.939 199.433C144.241 199.455 142.806 200.701 142.542 202.378L141.946 206.107C141.913 206.261 141.769 206.383 141.604 206.383Z" fill="#91B3FA"/>
<path d="M101.062 210.642C97.8847 210.917 92.3577 211.359 88.0001 211.557C85.3855 211.668 83.8742 211.414 83.0137 211.072C83.0137 211.171 83.0137 211.259 83.0247 211.348C83.0468 211.811 83.4219 212.175 83.8852 212.197C92.115 212.66 98.6569 212.351 100.985 212.219C101.47 212.186 101.757 211.668 101.503 211.259C101.371 211.05 101.216 210.84 101.062 210.642Z" fill="url(#paint5_linear)"/>
<path d="M88.0002 211.557C92.3578 211.37 97.8737 210.918 101.062 210.642C97.9289 206.803 88.0002 204.221 88.0002 204.221H85.1982C83.2676 207.001 82.9918 209.649 83.0139 211.072C83.8743 211.414 85.3857 211.679 88.0002 211.557Z" fill="url(#paint6_linear)"/>
<path d="M84.7236 199.643L84.9884 204.839C85.0215 205.402 85.4407 205.876 86.0033 205.953C86.566 206.03 87.3161 206.041 88.1104 205.777C88.5958 205.611 88.9599 205.203 89.0591 204.696L89.9638 199.643H84.7236Z" fill="url(#paint7_linear)"/>
<path d="M48.2971 211.525C46.9181 211.337 46.2893 210.62 46.0355 209.848C46.0355 209.859 46.0355 209.859 46.0355 209.87C45.837 210.675 46.3003 211.513 47.249 211.911C48.3853 212.396 49.6319 212.473 50.5917 212.429C51.6287 212.385 52.5774 211.955 53.0959 211.271L53.1069 211.26C52.0589 211.778 50.5917 211.844 48.2971 211.525Z" fill="url(#paint8_linear)"/>
<path d="M54.8058 199.61H52.4891C48.9699 199.533 46.7525 206.969 46.0244 209.848C46.2892 210.609 46.907 211.326 48.2859 211.525C50.5916 211.845 52.0478 211.79 53.0848 211.271C54.9933 208.767 55.931 205.093 56.3833 202.953C56.9129 200.515 54.8058 199.61 54.8058 199.61Z" fill="url(#paint9_linear)"/>
<path d="M52.787 194.789L51.5073 199.897C51.3528 200.526 51.6507 201.166 52.2243 201.463C52.9414 201.827 53.9563 202.225 54.883 202.103C55.3243 202.048 55.6883 201.739 55.8318 201.331L57.7182 195.958L52.787 194.789Z" fill="url(#paint10_linear)"/>
<path d="M51.2539 196.267C52.8535 197.68 58.0495 197.867 58.0495 197.867C76.7706 152.934 84.4267 146.547 84.4267 146.547C81.7239 163.503 83.9854 201.055 83.9854 201.055C87.0743 202.423 91.0568 201.055 91.0568 201.055C91.3105 173.288 95.5799 149.073 100.621 129.988C87.9679 129.701 81.2385 125.377 79.0431 123.634C68.4967 140.645 51.2539 196.267 51.2539 196.267Z" fill="url(#paint11_linear)"/>
<path d="M82.2645 71.9603C79.8706 83.9078 80.7311 105.288 81.2937 115.04C81.4482 117.776 79.5397 121.582 77.9952 124.174C77.7525 124.582 77.907 125.101 78.3262 125.321C80.9187 126.656 89.689 130.782 99.8603 131.29C100.533 131.323 101.14 130.859 101.317 130.208C108.84 102.044 117.6 84.0512 117.6 84.0512C107.936 68.6066 82.2645 71.9603 82.2645 71.9603Z" fill="url(#paint12_linear)"/>
<path d="M85.7058 145.488C85.5954 145.488 85.4962 145.455 85.3969 145.4C85.11 145.223 85.0218 144.859 85.1983 144.572C85.2976 144.407 87.7246 140.49 92.6227 138.129C92.9206 137.986 93.2736 138.107 93.4281 138.405C93.5715 138.703 93.4501 139.067 93.1523 139.211C88.5851 141.417 86.2574 145.157 86.2353 145.201C86.1029 145.388 85.9043 145.488 85.7058 145.488Z" fill="url(#paint13_linear)"/>
<path d="M67.2393 106.247C68.0115 111.807 70.284 117.886 74.8292 124.328L76.5612 122.916C76.5612 122.916 74.5644 114.819 75.7007 105.629C72.8876 105.089 69.578 105.662 67.2393 106.247Z" fill="url(#paint14_linear)"/>
<path d="M84.9339 86.6985L82.2641 71.96C82.2641 71.96 64.3926 85.6174 67.2388 106.247C69.5775 105.651 72.8871 105.089 75.7002 105.64C76.5166 99.021 78.9546 91.8393 84.9339 86.6985Z" fill="url(#paint15_linear)"/>
<path d="M117.599 84.0508L110.704 98.9107C111.818 107.88 116.639 111.763 121.835 113.252C122.155 109.159 123.192 105.861 124.152 103.577C117.511 96.7153 117.599 84.0508 117.599 84.0508Z" fill="url(#paint16_linear)"/>
<path d="M124.152 103.566C123.192 105.85 122.155 109.16 121.835 113.241C135.702 118.625 139.365 108.189 139.365 108.189L136.805 107.736C131.013 108.354 126.976 106.49 124.152 103.566Z" fill="url(#paint17_linear)"/>
<path d="M111.245 65.7053L107.913 77.9506C107.538 79.3296 106.049 80.0687 104.725 79.5392C103.302 78.9655 101.482 78.1933 99.9261 77.3439C98.2603 76.4503 97.7418 74.2991 98.7898 72.7325L105.718 62.4067L111.245 65.7053Z" fill="url(#paint18_linear)"/>
<path d="M145.72 100.003L60.3774 131.069C56.803 132.37 55.0821 136.452 56.6596 139.916L56.9134 140.49C58.3034 143.557 61.9328 144.903 64.9887 143.49L147.871 105.144L145.72 100.003Z" fill="url(#paint19_linear)"/>
<path opacity="0.14" d="M184.948 122.685C208.216 122.685 227.079 104.163 227.079 81.3157C227.079 58.468 208.216 39.9463 184.948 39.9463C161.68 39.9463 142.817 58.468 142.817 81.3157C142.817 104.163 161.68 122.685 184.948 122.685Z" fill="url(#paint20_linear)"/>
<path d="M184.949 35.2793C159.057 35.2793 138.063 55.8868 138.063 81.3152C138.063 106.744 159.057 127.351 184.949 127.351C210.84 127.351 231.834 106.744 231.834 81.3152C231.823 55.8868 210.84 35.2793 184.949 35.2793ZM184.949 120.589C162.863 120.589 144.958 103.004 144.958 81.3152C144.958 59.6266 162.863 42.0418 184.949 42.0418C207.034 42.0418 224.939 59.6266 224.939 81.3152C224.939 103.004 207.034 120.589 184.949 120.589Z" fill="url(#paint21_linear)"/>
<path d="M141.627 87.0188C141.472 87.0188 141.329 86.8975 141.318 86.743C141.174 85.6509 141.075 84.5367 141.031 83.4445C141.02 83.268 141.152 83.1246 141.329 83.1136C141.538 83.1025 141.649 83.2349 141.66 83.4114C141.715 84.4925 141.814 85.5847 141.947 86.6658C141.969 86.8423 141.847 86.9968 141.671 87.0188C141.66 87.0188 141.649 87.0188 141.627 87.0188ZM141.958 74.1447C141.936 74.1447 141.924 74.1447 141.902 74.1447C141.737 74.1116 141.616 73.9461 141.649 73.7806C142.178 70.813 143.028 67.9006 144.175 65.1206C150.938 48.7273 166.934 38.1367 184.949 38.1367C193.344 38.1367 201.507 40.4644 208.557 44.8882C208.7 44.9765 208.744 45.175 208.656 45.3184C208.568 45.4619 208.369 45.506 208.226 45.4177C201.276 41.0712 193.234 38.7655 184.949 38.7655C167.198 38.7655 151.412 49.2017 144.76 65.3633C143.634 68.0992 142.796 70.9675 142.266 73.8909C142.233 74.0343 142.101 74.1447 141.958 74.1447Z" fill="#91B3FA"/>
<path d="M118.537 56.405C118.57 56.6146 115.757 70.3824 115.757 70.3824L107.936 68.6173L108.664 55.1805C108.653 55.1695 118.03 52.8859 118.537 56.405Z" fill="url(#paint22_linear)"/>
<path d="M110.418 58.159L109.48 65.2083C109.469 65.2966 109.469 65.3848 109.48 65.4731C109.557 66.0247 109.966 67.9001 111.863 67.3706C113.584 66.8851 115.162 66.4659 116.254 66.7969C116.739 66.9513 117.037 67.4478 116.938 67.9442C116.684 69.1908 116.055 72.0039 115.139 74.3537C114.952 74.8281 114.433 75.0818 113.937 74.9384C112.448 74.5082 109.348 73.5043 107.042 72.1142C106.733 71.9267 106.546 71.5847 106.557 71.2207C106.634 69.4445 106.844 64.0389 106.667 62.5165C106.502 61.0934 104.759 60.244 103.997 59.9351C103.744 59.8358 103.556 59.6372 103.457 59.3945C103.104 58.512 102.618 56.4821 105.189 55.6437C105.729 55.4672 106.005 54.8935 105.818 54.353C105.442 53.2939 105.277 51.6833 107.263 50.7897C109.282 49.8851 110.793 50.9662 111.598 51.8377C111.929 52.1907 112.459 52.2459 112.867 51.9921C113.099 51.8487 113.396 51.7936 113.761 52.0252C114.246 52.3341 114.897 52.1245 115.151 51.606C115.636 50.6132 116.618 49.5541 118.592 49.8851C122.101 50.4808 122.498 54.375 121.571 56.6476C120.644 58.9201 116.883 58.0597 114.996 56.9124C113.562 56.0408 111.698 56.9565 110.892 57.4419C110.627 57.6074 110.462 57.8611 110.418 58.159Z" fill="url(#paint23_linear)"/>
<path d="M106.358 65.0981C106.358 65.0981 107.803 61.0604 106.314 60.0786C104.835 59.0857 102.64 59.6042 103.125 62.5276C103.721 66.1571 106.358 65.0981 106.358 65.0981Z" fill="url(#paint24_linear)"/>
<path d="M75.8432 122.674L83.9075 122.012L87.4046 125.233C87.4046 125.233 86.5772 126.38 83.9957 125.718C81.4143 125.057 77.873 124.902 77.873 124.902C77.873 124.902 74.3098 126.513 74.2656 123.501L75.8432 122.674Z" fill="url(#paint25_linear)"/>
<path d="M138.339 110.108C139.034 110.649 141.428 109.513 142.895 108.729C143.612 108.343 143.954 107.516 143.712 106.744C143.359 105.629 142.774 104.195 142.046 104.019C140.843 103.71 135.46 107.858 138.339 110.108Z" fill="url(#paint26_linear)"/>
<path d="M62.0538 142.288C62.0207 142.288 61.9876 142.288 61.9545 142.266C58.6229 141.108 57.8506 139.144 57.7844 137.699C57.6962 135.581 59.02 133.617 61.094 132.812L71.3426 128.819C71.497 128.752 71.6846 128.83 71.7507 128.995C71.8169 129.161 71.7287 129.337 71.5742 129.403L61.3257 133.397C59.5054 134.103 58.336 135.824 58.4132 137.677C58.4905 139.497 59.7481 140.843 62.1641 141.682C62.3296 141.737 62.4178 141.913 62.3626 142.079C62.3075 142.2 62.1861 142.288 62.0538 142.288Z" fill="#91B3FA"/>
<path d="M74.6082 128.179C74.4868 128.179 74.3655 128.102 74.3103 127.98C74.2441 127.815 74.3324 127.638 74.4868 127.572L75.8107 127.053C75.9651 126.987 76.1526 127.076 76.2188 127.23C76.285 127.395 76.1968 127.572 76.0423 127.638L74.7185 128.157C74.6854 128.179 74.6523 128.179 74.6082 128.179Z" fill="#91B3FA"/>
<path d="M61.9827 26H65.3267C65.619 26 65.8931 25.9701 66.1398 25.9102C66.3865 25.8503 66.5967 25.7605 66.7703 25.6407C66.9439 25.521 67.0809 25.3787 67.1814 25.2066C67.2728 25.0419 67.3276 24.8473 67.3276 24.6228V21H65.0343V24.2784C64.9795 24.5329 64.7419 24.6677 64.3308 24.6826H63.0516C62.5583 24.6826 62.3116 24.5105 62.3116 24.1512V21H60V24.6527C60 25.0943 60.1645 25.4311 60.5025 25.6557C60.8406 25.8877 61.334 26 61.9827 26Z" fill="#1B1092"/>
<path d="M70.9811 24.1512C70.5426 24.1512 70.1862 24.1213 69.8938 24.0464C69.6015 23.979 69.3548 23.8817 69.1629 23.762C68.9619 23.6422 68.8157 23.5075 68.7061 23.3428C68.5964 23.1856 68.5142 23.0135 68.4594 22.8338H73.0643C73.5759 22.8338 73.9962 22.8713 74.3434 22.9386C74.6906 23.006 74.9647 23.1033 75.1748 23.2231C75.385 23.3503 75.5403 23.5 75.6317 23.6647C75.723 23.8368 75.7687 24.024 75.7687 24.2335C75.7687 24.503 75.7139 24.7425 75.6134 24.9596C75.5038 25.1766 75.3393 25.3638 75.12 25.5135C74.8916 25.6707 74.5992 25.7904 74.2429 25.8728C73.8774 25.9626 73.448 26 72.9364 26H68.4228V24.6901H72.6623C73.183 24.6901 73.448 24.5105 73.448 24.1512H70.9811ZM68.4594 22.3174C68.4777 22.1078 68.5325 21.9207 68.633 21.756C68.7244 21.5913 68.8797 21.4566 69.0898 21.3443C69.3 21.232 69.5741 21.1497 69.9213 21.0898C70.2685 21.0299 70.6979 21 71.2187 21H75.7596V22.3174H68.4594Z" fill="#1B1092"/>
<path d="M79.1571 21H76.8546V23.7021C76.8546 24.0913 76.9186 24.4356 77.0648 24.7201C77.2018 25.0045 77.4211 25.244 77.7135 25.4386C78.0058 25.6332 78.3804 25.7754 78.8373 25.8653C79.2941 25.9551 79.8332 26 80.4727 26H86.1375V21H83.8259V24.6901H80.7651C80.2352 24.6901 79.8332 24.6153 79.5591 24.4656C79.285 24.3159 79.1571 24.0614 79.1571 23.7021V21ZM80.3448 24.1587H82.6564V21H80.3448V24.1587Z" fill="#1B1092"/>
<path d="M94.5682 21V22.3174H90.3014C89.7898 22.3174 89.5339 22.497 89.5339 22.8563V23.1108H94.5682V26H92.2567V24.4281H89.5339V26H87.2315V22.4147C87.2315 22.2051 87.2772 22.0105 87.3868 21.8308C87.4873 21.6587 87.6335 21.509 87.8162 21.3817C87.999 21.262 88.2091 21.1647 88.4649 21.0973C88.7116 21.0374 88.9857 21 89.2781 21H94.5682Z" fill="#1B1092"/>
<path d="M97.9748 24.4281H100.972C101.264 24.4281 101.529 24.3982 101.785 24.3383C102.032 24.2784 102.242 24.1886 102.424 24.0689C102.607 23.9491 102.744 23.8069 102.845 23.6347C102.945 23.4701 103 23.2754 103 23.0509V21H95.6633V22.3174H100.698V22.5719C100.698 22.9311 100.442 23.1108 99.9301 23.1108H95.6633V26H97.9748V24.4281Z" fill="#1B1092"/>
<path d="M236.671 218.539C236.511 218.539 236.339 218.507 236.179 218.432C235.546 218.132 235.257 217.339 235.536 216.654L261.495 150.787C261.762 150.101 262.491 149.79 263.123 150.08C263.755 150.38 264.044 151.172 263.766 151.858L237.807 217.714C237.603 218.229 237.143 218.539 236.671 218.539Z" fill="url(#paint27_linear)"/>
<path d="M265.908 218.539C265.426 218.539 264.976 218.228 264.773 217.725L238.814 151.858C238.546 151.172 238.835 150.379 239.457 150.079C240.089 149.779 240.817 150.101 241.085 150.786L267.044 216.653C267.312 217.339 267.023 218.132 266.401 218.432C266.241 218.496 266.069 218.539 265.908 218.539Z" fill="url(#paint28_linear)"/>
<path d="M347.16 218.539C346.999 218.539 346.828 218.507 346.667 218.432C346.035 218.132 345.745 217.339 346.024 216.654L371.983 150.787C372.251 150.101 372.979 149.79 373.611 150.08C374.243 150.38 374.533 151.172 374.254 151.858L348.295 217.714C348.102 218.229 347.642 218.539 347.16 218.539Z" fill="url(#paint29_linear)"/>
<path d="M376.408 218.539C375.926 218.539 375.476 218.228 375.273 217.725L349.314 151.847C349.046 151.161 349.335 150.369 349.957 150.069C350.589 149.769 351.317 150.09 351.585 150.776L377.544 216.643C377.812 217.328 377.522 218.121 376.901 218.421C376.73 218.496 376.569 218.539 376.408 218.539Z" fill="url(#paint30_linear)"/>
<path d="M332.814 174.152H329.75V207.342H332.814V174.152Z" fill="url(#paint31_linear)"/>
<path d="M344.728 207.985H317.848V207.846C317.848 206.817 318.673 205.992 319.701 205.992H342.735C343.839 205.982 344.728 206.881 344.728 207.985Z" fill="url(#paint32_linear)"/>
<path d="M348.724 172.995C348.724 174.806 347.235 176.295 345.424 176.295H318.223C316.412 176.295 314.923 174.806 314.923 172.995V170.006C314.923 168.195 316.412 166.706 318.223 166.706H345.424C347.235 166.706 348.724 168.195 348.724 170.006V172.995Z" fill="url(#paint33_linear)"/>
<path d="M308.635 152.017C308.635 152.017 304.071 152.724 298.95 156.152C298.147 156.688 297.697 157.631 297.825 158.595C298.436 163.459 300.964 179.197 309.289 194.571C309.728 195.385 309.857 196.328 309.664 197.228L308.218 203.956L305.539 206.474H312.449L317.045 194.025L315.074 193.403C313.553 192.921 312.503 191.518 312.471 189.922L312.235 176.572C312.428 170.626 308.592 166.523 308.592 166.523L319.627 165.988L308.635 152.017Z" fill="url(#paint34_linear)"/>
<path d="M302.828 207.696C302.196 208.521 309.599 209.603 313.338 207.803C313.338 207.803 318.523 198.782 318.523 194.144C318.523 194.144 318.116 193.201 315.074 193.415C315.074 193.415 313.338 204.096 311.495 205.286C309.653 206.485 306.353 205.403 306.353 205.403C306.353 205.403 303.749 206.475 302.828 207.696Z" fill="url(#paint35_linear)"/>
<path d="M318.224 166.717C318.17 166.62 306.342 165.292 306.342 165.292C306.342 165.292 306.728 168.881 305.517 173.83C304.307 178.78 286.961 200.218 286.961 200.218L288.783 205.982C283.158 207.942 277.619 208.253 272.177 206.978L283.458 200.207C283.458 200.207 294.011 164.242 300.482 157.824L312.331 153.721L318.224 166.717Z" fill="url(#paint36_linear)"/>
<path d="M344.728 145.782C344.728 145.782 351.542 155.907 352.099 160.535C352.656 165.152 350.235 167.038 343.089 167.338C335.943 167.649 316.873 167.638 316.873 167.638L300.589 153.721C300.589 153.721 312.449 149.489 315.534 148.289C318.62 147.1 344.728 145.782 344.728 145.782Z" fill="url(#paint37_linear)"/>
<path d="M288.087 204.042C288.087 204.042 290.047 205.938 288.719 208.049C288.719 208.049 273.195 210.802 268.984 209.549C268.984 209.549 269.863 207.556 274.609 205.274L274.255 205.542C273.816 205.885 274.073 206.592 274.63 206.56C277.759 206.388 284.23 205.82 288.087 204.042Z" fill="url(#paint38_linear)"/>
<path d="M321.534 86.4295C322.595 86.2474 326.505 85.776 327.158 88.1116C327.244 88.4223 327.63 88.5294 327.876 88.3151C329.108 87.2116 332.022 85.1332 335.204 86.6009C338.022 87.8973 337.765 90.5864 337.272 92.2363C337.154 92.6327 337.593 92.9648 337.936 92.7291C340.39 91.0792 346.057 88.1223 349.678 92.9862C353.064 97.5288 350.3 100.679 348.446 102.114C348.136 102.361 348.286 102.853 348.671 102.896C350.021 103.025 351.896 103.775 352.753 106.667C354.103 111.21 345.768 114.981 344.793 115.399C344.729 115.431 344.664 115.442 344.6 115.431L327.78 114.574C327.651 114.563 327.523 114.499 327.448 114.392L317.131 100.496C317.045 100.389 317.023 100.239 317.066 100.1L321.191 86.7188C321.234 86.5795 321.362 86.4617 321.534 86.4295Z" fill="url(#paint39_linear)"/>
<path d="M326.312 144.444C326.312 144.444 318.384 136.891 314.473 131.888C312.363 129.188 311.699 125.62 312.674 122.342C314.452 116.342 317.623 110.118 317.912 109.154C318.352 107.675 327.244 107.729 327.244 107.729C327.244 107.729 344.739 119.085 351.617 138.316L343.893 140.716C343.893 140.716 339.329 133.056 334.808 128.181C334.808 128.181 342.618 138.498 342.896 142.719L326.312 144.444Z" fill="url(#paint40_linear)"/>
<path d="M316.841 100.861C316.937 101.172 319.251 108.864 319.433 109.025C319.616 109.186 324.522 109.453 326.836 107.868L322.915 99.6611L316.841 100.861Z" fill="url(#paint41_linear)"/>
<path d="M310.284 90.0081C310.284 90.0081 308.345 94.1221 310.273 100.529C312.191 106.936 315.651 107.6 317.891 106.1C320.14 104.6 323.076 101.889 323.601 96.1577C324.137 90.426 312.941 84.812 310.284 90.0081Z" fill="url(#paint42_linear)"/>
<path d="M319.337 95.6434C319.337 95.6434 315.77 86.9441 309.856 92.108L309.342 94.3042C309.342 94.3042 303.921 92.5686 305.87 87.6726C307.82 82.7658 314.291 78.8875 320.044 82.2837C325.798 85.6799 327.855 90.2545 327.394 94.7542C326.933 99.2646 323.601 97.604 323.601 97.604C323.601 97.604 323.055 94.2614 321.48 93.6293C319.905 92.9865 319.862 95.5041 319.862 95.5041L319.337 95.6434Z" fill="url(#paint43_linear)"/>
<path d="M320.644 95.7936C320.644 95.7936 318.791 91.326 321.587 91.2617C324.383 91.1867 323.108 95.5579 322.508 97.1435L320.644 95.7936Z" fill="url(#paint44_linear)"/>
<path d="M310.156 145L315.984 139.386L324.041 142.793C324.041 142.793 332.065 144.036 336.651 142.793C341.247 141.55 341.247 141.551 341.247 141.551L351.628 138.315L353.257 142.922C353.675 144.09 353.257 145.386 352.239 146.104C351.339 146.747 350.289 147.443 349.614 147.732C348.243 148.332 315.931 147.315 315.931 147.315L310.156 145Z" fill="url(#paint45_linear)"/>
<path d="M332.204 147.658C332.183 147.658 332.151 147.658 332.129 147.658L298.328 147.626C297.492 147.626 296.817 146.951 296.817 146.115C296.817 145.28 297.503 144.594 298.328 144.605L332.129 144.637C332.965 144.637 333.64 145.312 333.64 146.147C333.64 146.951 333.008 147.615 332.204 147.658Z" fill="url(#paint46_linear)"/>
<path d="M267.944 116.964H296.089C298.167 116.964 300.053 118.164 300.942 120.039L313.959 147.626H278.979C277.64 147.626 276.44 146.812 275.947 145.569L265.855 120.039C265.277 118.56 266.359 116.964 267.944 116.964Z" fill="url(#paint47_linear)"/>
<path d="M287.775 131.117C288.386 133.013 287.936 134.856 286.768 135.231C285.6 135.606 284.164 134.373 283.554 132.477C282.943 130.581 283.393 128.738 284.561 128.363C285.729 127.988 287.164 129.22 287.775 131.117Z" fill="#91B3FA"/>
<path d="M379.44 148.889C379.526 148.504 379.408 148.107 379.118 147.807C378.829 147.507 378.411 147.336 377.961 147.336H225.733C225.144 147.336 224.587 147.593 224.276 148.032C223.955 148.461 223.912 149.007 224.158 149.479L225.808 152.575C226.183 153.282 227.008 153.743 227.908 153.743H376.922C377.758 153.743 378.476 153.228 378.636 152.511L379.44 148.889Z" fill="url(#paint48_linear)"/>
<rect x="159" y="57" width="53" height="10" fill="#FFA39D"/>
<rect x="159" y="77" width="53" height="10" fill="#FFA39D"/>
<rect x="159" y="96" width="53" height="10" fill="#FFA39D"/>
<defs>
<linearGradient id="paint0_linear" x1="7.29414" y1="83.6318" x2="72.3421" y2="83.6318" gradientUnits="userSpaceOnUse">
<stop stop-color="#4F52FF"/>
<stop offset="1" stop-color="#4042E2"/>
</linearGradient>
<linearGradient id="paint1_linear" x1="190.545" y1="127.939" x2="197.485" y2="280.612" gradientUnits="userSpaceOnUse">
<stop stop-color="#09005D"/>
<stop offset="1" stop-color="#1A0F91"/>
</linearGradient>
<linearGradient id="paint2_linear" x1="187" y1="-96.6063" x2="187" y2="154.764" gradientUnits="userSpaceOnUse">
<stop stop-color="#09005D"/>
<stop offset="1" stop-color="#1A0F91"/>
</linearGradient>
<linearGradient id="paint3_linear" x1="203.941" y1="-35.4513" x2="160.113" y2="242.76" gradientUnits="userSpaceOnUse">
<stop stop-color="#FDF53F"/>
<stop offset="1" stop-color="#D93C65"/>
</linearGradient>
<linearGradient id="paint4_linear" x1="192.614" y1="79.1989" x2="192.614" y2="198.715" gradientUnits="userSpaceOnUse">
<stop stop-color="#09005D"/>
<stop offset="1" stop-color="#1A0F91"/>
</linearGradient>
<linearGradient id="paint5_linear" x1="83.0077" y1="211.544" x2="101.583" y2="211.544" gradientUnits="userSpaceOnUse">
<stop stop-color="#4F52FF"/>
<stop offset="1" stop-color="#4042E2"/>
</linearGradient>
<linearGradient id="paint6_linear" x1="83.0068" y1="207.904" x2="101.058" y2="207.904" gradientUnits="userSpaceOnUse">
<stop stop-color="#09005D"/>
<stop offset="1" stop-color="#1A0F91"/>
</linearGradient>
<linearGradient id="paint7_linear" x1="84.7226" y1="202.821" x2="89.9547" y2="202.821" gradientUnits="userSpaceOnUse">
<stop stop-color="#FEBBBA"/>
<stop offset="1" stop-color="#FF928E"/>
</linearGradient>
<linearGradient id="paint8_linear" x1="45.978" y1="211.144" x2="53.0961" y2="211.144" gradientUnits="userSpaceOnUse">
<stop stop-color="#4F52FF"/>
<stop offset="1" stop-color="#4042E2"/>
</linearGradient>
<linearGradient id="paint9_linear" x1="46.0296" y1="205.663" x2="56.4777" y2="205.663" gradientUnits="userSpaceOnUse">
<stop stop-color="#09005D"/>
<stop offset="1" stop-color="#1A0F91"/>
</linearGradient>
<linearGradient id="paint10_linear" x1="51.4604" y1="198.46" x2="57.7133" y2="198.46" gradientUnits="userSpaceOnUse">
<stop stop-color="#FEBBBA"/>
<stop offset="1" stop-color="#FF928E"/>
</linearGradient>
<linearGradient id="paint11_linear" x1="162.527" y1="16.2485" x2="115.876" y2="104.151" gradientUnits="userSpaceOnUse">
<stop stop-color="#4F52FF"/>
<stop offset="1" stop-color="#4042E2"/>
</linearGradient>
<linearGradient id="paint12_linear" x1="-1.36784" y1="229.804" x2="-22.958" y2="259.619" gradientUnits="userSpaceOnUse">
<stop stop-color="#4F52FF"/>
<stop offset="1" stop-color="#4042E2"/>
</linearGradient>
<linearGradient id="paint13_linear" x1="72.5317" y1="175.303" x2="75.528" y2="169.311" gradientUnits="userSpaceOnUse">
<stop stop-color="#53D8FF"/>
<stop offset="1" stop-color="#3840F7"/>
</linearGradient>
<linearGradient id="paint14_linear" x1="80.1085" y1="107.315" x2="57.8491" y2="127.026" gradientUnits="userSpaceOnUse">
<stop stop-color="#FEBBBA"/>
<stop offset="1" stop-color="#FF928E"/>
</linearGradient>
<linearGradient id="paint15_linear" x1="-16.2279" y1="219.043" x2="-37.8179" y2="248.858" gradientUnits="userSpaceOnUse">
<stop stop-color="#4F52FF"/>
<stop offset="1" stop-color="#4042E2"/>
</linearGradient>
<linearGradient id="paint16_linear" x1="15.7629" y1="242.209" x2="-5.82729" y2="272.024" gradientUnits="userSpaceOnUse">
<stop stop-color="#4F52FF"/>
<stop offset="1" stop-color="#4042E2"/>
</linearGradient>
<linearGradient id="paint17_linear" x1="121.835" y1="109.179" x2="139.365" y2="109.179" gradientUnits="userSpaceOnUse">
<stop stop-color="#FEBBBA"/>
<stop offset="1" stop-color="#FF928E"/>
</linearGradient>
<linearGradient id="paint18_linear" x1="104.796" y1="62.3326" x2="104.604" y2="95.0688" gradientUnits="userSpaceOnUse">
<stop stop-color="#FEBBBA"/>
<stop offset="1" stop-color="#FF928E"/>
</linearGradient>
<linearGradient id="paint19_linear" x1="56.0715" y1="122.021" x2="147.869" y2="122.021" gradientUnits="userSpaceOnUse">
<stop stop-color="#09005D"/>
<stop offset="1" stop-color="#1A0F91"/>
</linearGradient>
<linearGradient id="paint20_linear" x1="142.817" y1="81.3167" x2="227.078" y2="81.3167" gradientUnits="userSpaceOnUse">
<stop stop-color="#B37CFF"/>
<stop offset="1" stop-color="#F895E7"/>
</linearGradient>
<linearGradient id="paint21_linear" x1="138.068" y1="81.3162" x2="231.828" y2="81.3162" gradientUnits="userSpaceOnUse">
<stop stop-color="#09005D"/>
<stop offset="1" stop-color="#1A0F91"/>
</linearGradient>
<linearGradient id="paint22_linear" x1="115.419" y1="56.9493" x2="102.515" y2="80.3487" gradientUnits="userSpaceOnUse">
<stop stop-color="#FEBBBA"/>
<stop offset="1" stop-color="#FF928E"/>
</linearGradient>
<linearGradient id="paint23_linear" x1="100.727" y1="60.4574" x2="156.637" y2="67.5264" gradientUnits="userSpaceOnUse">
<stop stop-color="#09005D"/>
<stop offset="1" stop-color="#1A0F91"/>
</linearGradient>
<linearGradient id="paint24_linear" x1="94.4713" y1="77.0276" x2="105.369" y2="62.0578" gradientUnits="userSpaceOnUse">
<stop stop-color="#FEBBBA"/>
<stop offset="1" stop-color="#FF928E"/>
</linearGradient>
<linearGradient id="paint25_linear" x1="88.8978" y1="117.241" x2="66.6383" y2="136.953" gradientUnits="userSpaceOnUse">
<stop stop-color="#FEBBBA"/>
<stop offset="1" stop-color="#FF928E"/>
</linearGradient>
<linearGradient id="paint26_linear" x1="137.504" y1="107.121" x2="143.781" y2="107.121" gradientUnits="userSpaceOnUse">
<stop stop-color="#FEBBBA"/>
<stop offset="1" stop-color="#FF928E"/>
</linearGradient>
<linearGradient id="paint27_linear" x1="267.55" y1="98.2538" x2="237.209" y2="243.998" gradientUnits="userSpaceOnUse">
<stop stop-color="#4F52FF"/>
<stop offset="1" stop-color="#4042E2"/>
</linearGradient>
<linearGradient id="paint28_linear" x1="270.698" y1="98.9088" x2="240.357" y2="244.652" gradientUnits="userSpaceOnUse">
<stop stop-color="#4F52FF"/>
<stop offset="1" stop-color="#4042E2"/>
</linearGradient>
<linearGradient id="paint29_linear" x1="373.455" y1="120.301" x2="343.114" y2="266.045" gradientUnits="userSpaceOnUse">
<stop stop-color="#4F52FF"/>
<stop offset="1" stop-color="#4042E2"/>
</linearGradient>
<linearGradient id="paint30_linear" x1="376.602" y1="120.956" x2="346.262" y2="266.699" gradientUnits="userSpaceOnUse">
<stop stop-color="#4F52FF"/>
<stop offset="1" stop-color="#4042E2"/>
</linearGradient>
<linearGradient id="paint31_linear" x1="306.25" y1="235.713" x2="341.649" y2="172.138" gradientUnits="userSpaceOnUse">
<stop stop-color="#4F52FF"/>
<stop offset="1" stop-color="#4042E2"/>
</linearGradient>
<linearGradient id="paint32_linear" x1="313.443" y1="239.716" x2="348.839" y2="176.143" gradientUnits="userSpaceOnUse">
<stop stop-color="#4F52FF"/>
<stop offset="1" stop-color="#4042E2"/>
</linearGradient>
<linearGradient id="paint33_linear" x1="298.478" y1="231.385" x2="333.877" y2="167.811" gradientUnits="userSpaceOnUse">
<stop stop-color="#4F52FF"/>
<stop offset="1" stop-color="#4042E2"/>
</linearGradient>
<linearGradient id="paint34_linear" x1="321.067" y1="220.51" x2="310.592" y2="178.247" gradientUnits="userSpaceOnUse">
<stop stop-color="#FEBBBA"/>
<stop offset="1" stop-color="#FF928E"/>
</linearGradient>
<linearGradient id="paint35_linear" x1="311.148" y1="193.468" x2="307.938" y2="242.685" gradientUnits="userSpaceOnUse">
<stop stop-color="#4F52FF"/>
<stop offset="1" stop-color="#4042E2"/>
</linearGradient>
<linearGradient id="paint36_linear" x1="299.151" y1="179.583" x2="366.699" y2="144.906" gradientUnits="userSpaceOnUse">
<stop stop-color="#FEBBBA"/>
<stop offset="1" stop-color="#FF928E"/>
</linearGradient>
<linearGradient id="paint37_linear" x1="288.305" y1="156.716" x2="339.894" y2="156.716" gradientUnits="userSpaceOnUse">
<stop stop-color="#09005D"/>
<stop offset="1" stop-color="#1A0F91"/>
</linearGradient>
<linearGradient id="paint38_linear" x1="280.174" y1="191.448" x2="276.964" y2="240.664" gradientUnits="userSpaceOnUse">
<stop stop-color="#4F52FF"/>
<stop offset="1" stop-color="#4042E2"/>
</linearGradient>
<linearGradient id="paint39_linear" x1="310.27" y1="78.6716" x2="355.52" y2="118.541" gradientUnits="userSpaceOnUse">
<stop stop-color="#09005D"/>
<stop offset="1" stop-color="#1A0F91"/>
</linearGradient>
<linearGradient id="paint40_linear" x1="259.972" y1="228.584" x2="333.66" y2="125.277" gradientUnits="userSpaceOnUse">
<stop stop-color="#FF928E"/>
<stop offset="1" stop-color="#FE7062"/>
</linearGradient>
<linearGradient id="paint41_linear" x1="323.895" y1="117.537" x2="321.592" y2="102.757" gradientUnits="userSpaceOnUse">
<stop stop-color="#FEBBBA"/>
<stop offset="1" stop-color="#FF928E"/>
</linearGradient>
<linearGradient id="paint42_linear" x1="308.614" y1="98.202" x2="332.988" y2="94.901" gradientUnits="userSpaceOnUse">
<stop stop-color="#FEBBBA"/>
<stop offset="1" stop-color="#FF928E"/>
</linearGradient>
<linearGradient id="paint43_linear" x1="307.376" y1="81.9552" x2="352.627" y2="121.825" gradientUnits="userSpaceOnUse">
<stop stop-color="#09005D"/>
<stop offset="1" stop-color="#1A0F91"/>
</linearGradient>
<linearGradient id="paint44_linear" x1="308.323" y1="96.0512" x2="332.696" y2="92.7503" gradientUnits="userSpaceOnUse">
<stop stop-color="#FEBBBA"/>
<stop offset="1" stop-color="#FF928E"/>
</linearGradient>
<linearGradient id="paint45_linear" x1="337.12" y1="143.127" x2="380.378" y2="143.127" gradientUnits="userSpaceOnUse">
<stop stop-color="#FEBBBA"/>
<stop offset="1" stop-color="#FF928E"/>
</linearGradient>
<linearGradient id="paint46_linear" x1="337.941" y1="138.673" x2="311.11" y2="147.473" gradientUnits="userSpaceOnUse">
<stop stop-color="#09005D"/>
<stop offset="1" stop-color="#1A0F91"/>
</linearGradient>
<linearGradient id="paint47_linear" x1="301.084" y1="121.082" x2="281.762" y2="141.504" gradientUnits="userSpaceOnUse">
<stop stop-color="#09005D"/>
<stop offset="1" stop-color="#1A0F91"/>
</linearGradient>
<linearGradient id="paint48_linear" x1="299.981" y1="157.167" x2="269.64" y2="302.911" gradientUnits="userSpaceOnUse">
<stop stop-color="#4F52FF"/>
<stop offset="1" stop-color="#4042E2"/>
</linearGradient>
</defs>
</svg>
