<svg width="257" height="261" viewBox="0 0 257 261" fill="none" xmlns="http://www.w3.org/2000/svg">
<g opacity="0.3">
<path opacity="0.3" d="M192.535 22.6214C192.881 23.024 193.49 23.0614 193.883 22.715C194.66 22.0409 195.475 21.3855 196.308 20.7769C196.729 20.4679 196.823 19.878 196.523 19.4567C196.523 19.4473 196.514 19.4473 196.514 19.438C196.205 19.0073 195.606 18.923 195.175 19.232C194.295 19.878 193.443 20.5615 192.628 21.2731C192.254 21.6008 192.198 22.1439 192.469 22.5465C192.488 22.5652 192.516 22.5933 192.535 22.6214ZM200.568 18.0897C201.476 17.6028 202.413 17.144 203.358 16.7321C203.845 16.5261 204.07 15.9549 203.854 15.4774C203.639 14.9905 203.077 14.7658 202.6 14.9812C201.607 15.4119 200.624 15.8894 199.669 16.4044C199.201 16.6572 199.033 17.2377 199.285 17.6964C199.304 17.7339 199.323 17.762 199.341 17.7901C199.604 18.1833 200.137 18.3238 200.568 18.0897ZM208.096 15.0561C209.088 14.7846 210.1 14.5505 211.111 14.3539C211.626 14.2602 211.972 13.7546 211.879 13.2397C211.785 12.7247 211.279 12.3783 210.764 12.4719C209.697 12.6685 208.63 12.9213 207.581 13.2116C207.075 13.352 206.776 13.8763 206.916 14.3913C206.944 14.5037 206.991 14.5973 207.057 14.6816C207.281 14.9999 207.693 15.1591 208.096 15.0561ZM216.12 13.7827C217.15 13.7359 218.189 13.7359 219.219 13.7733C219.743 13.7921 220.193 13.3801 220.212 12.8558C220.23 12.3314 219.818 11.882 219.294 11.8633C218.208 11.8165 217.112 11.8258 216.026 11.8727C215.502 11.9008 215.09 12.3408 215.109 12.8745C215.118 13.0618 215.184 13.2397 215.277 13.3801C215.474 13.6329 215.783 13.7921 216.12 13.7827ZM224.228 14.3258C225.24 14.513 226.26 14.7377 227.253 15.0093C227.768 15.1497 228.292 14.8407 228.423 14.3351C228.563 13.8202 228.254 13.2958 227.749 13.1648C226.7 12.8839 225.633 12.6404 224.565 12.4532C224.041 12.3595 223.545 12.706 223.451 13.2209C223.404 13.4831 223.47 13.7359 223.61 13.9419C223.751 14.1291 223.966 14.279 224.228 14.3258ZM232.009 16.6478C232.955 17.0504 233.9 17.4998 234.809 17.9773C235.277 18.2208 235.857 18.0429 236.101 17.5841C236.344 17.1159 236.166 16.5354 235.707 16.292C234.752 15.7864 233.76 15.3089 232.758 14.8875C232.271 14.6816 231.709 14.9063 231.503 15.3931C231.372 15.7115 231.419 16.0579 231.597 16.3201C231.7 16.4605 231.84 16.5729 232.009 16.6478ZM254.583 44.0907C255.098 43.9971 255.445 43.4915 255.351 42.9765C255.154 41.9091 254.902 40.8418 254.611 39.7931C254.471 39.2875 253.937 38.9879 253.432 39.1283C252.926 39.2688 252.626 39.8025 252.767 40.3081C253.048 41.3006 253.282 42.3211 253.469 43.323C253.497 43.4634 253.553 43.5851 253.628 43.6975C253.834 43.9971 254.209 44.1656 254.583 44.0907ZM239.078 20.6364C239.911 21.2357 240.726 21.8817 241.503 22.5558C241.906 22.9023 242.505 22.8555 242.851 22.4528C243.198 22.0502 243.151 21.451 242.748 21.1046C241.924 20.393 241.063 19.7189 240.192 19.0822C239.762 18.7732 239.162 18.8668 238.853 19.2975C238.61 19.6346 238.619 20.084 238.844 20.4117C238.919 20.496 238.994 20.5709 239.078 20.6364ZM252.336 36.0573C252.823 35.8419 253.038 35.2801 252.832 34.7933C252.402 33.8008 251.915 32.8177 251.4 31.8627C251.147 31.3945 250.566 31.226 250.098 31.4788C249.63 31.7316 249.462 32.3121 249.714 32.7802C250.201 33.6884 250.66 34.6247 251.072 35.5704C251.1 35.6266 251.128 35.6828 251.166 35.7389C251.428 36.1041 251.915 36.2445 252.336 36.0573ZM245.08 26.1044C245.754 26.8815 246.409 27.6868 247.018 28.5201C247.327 28.9508 247.926 29.035 248.357 28.7261C248.778 28.4171 248.872 27.8272 248.572 27.4059C248.572 27.3965 248.563 27.3965 248.563 27.3871C247.917 26.5164 247.233 25.655 246.522 24.8404C246.175 24.4472 245.567 24.4003 245.173 24.7468C244.799 25.0745 244.743 25.6175 245.024 26.0201C245.033 26.0576 245.052 26.0857 245.08 26.1044Z" fill="#91B3FA"/>
<path opacity="0.3" d="M254.264 50.3919C254.152 50.2421 254.095 50.0455 254.086 49.8488C254.086 49.3526 254.067 48.8564 254.049 48.3601C254.021 47.8358 254.432 47.3864 254.957 47.3583C255.481 47.3302 255.931 47.7422 255.959 48.2665C255.987 48.7908 255.996 49.3152 255.996 49.8395C255.996 50.3638 255.575 50.7945 255.041 50.8039C254.732 50.8039 254.442 50.6353 254.264 50.3919Z" fill="#91B3FA"/>
</g>
<g opacity="0.3">
<path opacity="0.3" d="M242.999 77.3015C242.737 76.9269 242.775 76.4026 243.112 76.0656C243.467 75.7191 243.814 75.3633 244.16 75.0075C244.525 74.6236 245.134 74.6049 245.509 74.9701C245.892 75.3352 245.911 75.9438 245.546 76.3183C245.19 76.7022 244.816 77.0768 244.441 77.4325C244.067 77.7977 243.458 77.7883 243.084 77.4138C243.065 77.3857 243.027 77.3483 242.999 77.3015Z" fill="#91B3FA"/>
<path opacity="0.3" d="M187.645 73.5749C187.973 73.9962 188.572 74.0711 188.984 73.7434C189.405 73.4157 189.471 72.8165 189.153 72.4045C188.535 71.6087 187.945 70.7753 187.383 69.9233C187.093 69.4832 186.503 69.3522 186.063 69.6424C185.623 69.9327 185.492 70.5225 185.782 70.9626C186.025 71.3371 186.269 71.7023 186.522 72.0581C186.887 72.573 187.261 73.088 187.645 73.5749ZM184.509 66.871C184.986 66.6463 185.192 66.0751 184.958 65.5976C184.527 64.68 184.125 63.7344 183.769 62.7887C183.582 62.2925 183.029 62.0397 182.533 62.2269C182.037 62.4142 181.784 62.9666 181.971 63.4628C182.346 64.4553 182.767 65.4572 183.226 66.4216C183.254 66.4684 183.273 66.5152 183.31 66.562C183.572 66.9365 184.078 67.077 184.509 66.871ZM191.128 77.4605C191.887 78.2002 192.692 78.9212 193.525 79.6047C193.937 79.9417 194.536 79.8855 194.873 79.4736C195.21 79.0616 195.145 78.4624 194.742 78.1253C193.956 77.4793 193.197 76.7958 192.467 76.0935C192.093 75.7284 191.484 75.7284 191.109 76.1123C190.782 76.4493 190.754 76.9643 191.016 77.3294C191.044 77.3763 191.081 77.4231 191.128 77.4605ZM181.625 59.184C182.14 59.0716 182.467 58.5566 182.346 58.0417C182.121 57.0492 181.943 56.0474 181.803 55.0455C181.728 54.5212 181.25 54.156 180.726 54.2309C180.202 54.3058 179.836 54.7834 179.911 55.3077C180.061 56.3657 180.248 57.4237 180.482 58.4724C180.511 58.5941 180.567 58.7158 180.632 58.8094C180.848 59.1091 181.232 59.2776 181.625 59.184ZM197.757 82.6289C198.665 83.1813 199.611 83.715 200.566 84.1925C201.034 84.4266 201.615 84.2393 201.849 83.7712C202.083 83.303 201.896 82.7225 201.427 82.4885C200.519 82.0297 199.63 81.5334 198.768 81.0091C198.319 80.7282 197.729 80.878 197.448 81.3274C197.242 81.6645 197.27 82.0765 197.476 82.3761C197.551 82.4697 197.645 82.554 197.757 82.6289ZM205.369 86.2149C206.381 86.5614 207.41 86.8703 208.45 87.1231C208.965 87.2542 209.48 86.9452 209.611 86.4303C209.742 85.9153 209.433 85.4003 208.918 85.2693C207.935 85.0258 206.952 84.7262 205.997 84.3985C205.5 84.23 204.948 84.4921 204.779 84.9977C204.676 85.2973 204.733 85.6157 204.901 85.8591C205.014 86.0183 205.173 86.14 205.369 86.2149ZM213.581 88.0501C214.639 88.1718 215.715 88.2373 216.783 88.2748C217.307 88.2935 217.747 87.8722 217.766 87.3479C217.785 86.8142 217.363 86.3835 216.839 86.3647C215.828 86.3366 214.807 86.2711 213.796 86.1587C213.272 86.1026 212.794 86.4771 212.738 87.0014C212.71 87.2449 212.775 87.4696 212.907 87.6568C213.056 87.8628 213.3 88.022 213.581 88.0501ZM221.998 88.0501C223.056 87.9377 224.123 87.7692 225.172 87.5632C225.687 87.4602 226.024 86.9546 225.93 86.4396C225.827 85.9247 225.322 85.5876 224.807 85.6906C223.814 85.8872 222.803 86.037 221.792 86.1494C221.268 86.2056 220.884 86.6831 220.949 87.2074C220.968 87.3759 221.024 87.5257 221.118 87.6475C221.305 87.9283 221.633 88.0969 221.998 88.0501ZM230.209 86.2056C231.221 85.8591 232.222 85.4659 233.196 85.0352C233.683 84.8198 233.898 84.2581 233.683 83.7712C233.468 83.2937 232.906 83.069 232.419 83.2843C231.492 83.6963 230.537 84.0708 229.582 84.3985C229.086 84.567 228.814 85.1195 228.992 85.6157C229.02 85.7 229.067 85.7842 229.114 85.8498C229.357 86.1962 229.797 86.3554 230.209 86.2056ZM237.812 82.6102C238.477 82.1982 239.142 81.7581 239.788 81.3087C240.022 81.1495 240.246 80.981 240.481 80.8125C240.902 80.5035 241.014 79.8949 240.687 79.4736C240.378 79.0522 239.778 78.9586 239.348 79.2676C239.132 79.4268 238.917 79.5859 238.692 79.7357C238.084 80.1664 237.456 80.5784 236.82 80.9716C236.37 81.2525 236.23 81.8424 236.511 82.2918C236.52 82.3106 236.529 82.3293 236.539 82.3386C236.82 82.7506 237.381 82.8723 237.812 82.6102Z" fill="#91B3FA"/>
<path opacity="0.3" d="M179.724 50.6261C179.611 50.4669 179.546 50.2797 179.546 50.0737C179.546 49.5587 179.555 49.025 179.574 48.5007C179.592 47.9764 180.042 47.5644 180.566 47.5831C181.091 47.6019 181.502 48.0513 181.484 48.5756C181.465 49.0718 181.456 49.5775 181.456 50.0643C181.456 50.5887 181.025 51.0194 180.501 51.0194C180.182 51.0287 179.892 50.8695 179.724 50.6261Z" fill="#91B3FA"/>
</g>
<path d="M191.316 39.0156C191.372 38.8283 191.531 38.6972 191.719 38.6879L197.149 38.3695C198.376 36.1411 199.968 34.1 201.896 32.3304L200.923 26.9748C200.885 26.7875 200.979 26.6003 201.147 26.5066L206.849 23.3138C207.018 23.2202 207.224 23.2389 207.364 23.37L211.428 26.9841C213.937 26.2538 216.521 25.9636 219.059 26.0759L222.158 21.6004C222.27 21.4412 222.467 21.3757 222.645 21.4225L228.927 23.1921C229.115 23.2483 229.246 23.4075 229.255 23.5947L229.573 29.0253C231.802 30.2518 233.843 31.8435 235.612 33.7723L240.968 32.8079C241.155 32.7705 241.343 32.8641 241.436 33.0326L244.629 38.7253C244.723 38.8939 244.704 39.0999 244.573 39.2403L240.959 43.3038C241.689 45.8131 241.979 48.3973 241.867 50.9347L246.342 54.0245C246.502 54.1368 246.567 54.3334 246.52 54.5113L244.751 60.7939C244.695 60.9812 244.535 61.1123 244.348 61.1216L238.918 61.44C237.691 63.6684 236.099 65.7095 234.171 67.4791L235.144 72.8347C235.182 73.022 235.088 73.2092 234.92 73.3029L229.227 76.4957C229.058 76.5893 228.852 76.5706 228.712 76.4395L224.648 72.8254C222.139 73.5557 219.555 73.8459 217.018 73.7336L213.918 78.2091C213.806 78.3683 213.609 78.4338 213.432 78.387L207.149 76.6174C206.962 76.5612 206.831 76.402 206.821 76.2148L206.503 70.7842C204.275 69.5577 202.233 67.966 200.464 66.0372L195.108 67.0109C194.921 67.0484 194.734 66.9548 194.64 66.7862L191.447 61.0935C191.354 60.925 191.372 60.719 191.503 60.5786L195.118 56.515C194.387 54.0057 194.097 51.4216 194.209 48.8842L189.734 45.785C189.575 45.6727 189.509 45.4761 189.556 45.2982L191.316 39.0156Z" fill="#91B3FA"/>
<path d="M213.272 54.4275C215.763 57.0491 219.93 57.1615 222.551 54.6709C223.825 53.4631 224.546 51.8339 224.592 50.083C224.639 48.3322 224.002 46.6656 222.795 45.3922C220.304 42.7705 216.138 42.6582 213.516 45.1488C211.128 47.4146 210.819 51.0662 212.654 53.6784C212.842 53.9406 213.048 54.184 213.272 54.4275ZM223.066 50.0456C223.029 51.3939 222.476 52.6391 221.503 53.5661C219.489 55.4761 216.297 55.3919 214.387 53.3788C212.477 51.3658 212.561 48.173 214.574 46.2629C216.587 44.3529 219.78 44.4372 221.69 46.4502C221.858 46.6375 222.017 46.8247 222.158 47.0307C222.776 47.9015 223.094 48.9501 223.066 50.0456Z" fill="#BDD0FB"/>
<path d="M204.976 59.2403C204.658 58.7908 204.368 58.3227 204.096 57.8358C204.012 57.686 203.927 57.5268 203.843 57.377C203.441 56.6092 203.104 55.8134 202.841 54.9988C202.841 54.9895 202.832 54.9801 202.832 54.9614C202.823 54.9333 202.813 54.8958 202.804 54.8677C202.785 54.8022 202.766 54.746 202.748 54.6805C202.701 54.5213 202.757 54.3434 202.898 54.2591C202.926 54.2404 202.963 54.2217 203.01 54.203C203.216 54.1374 203.422 54.2498 203.487 54.4558C203.806 55.4951 204.246 56.5063 204.78 57.4613C207.448 62.2083 212.279 64.9985 217.354 65.2794C220.172 65.4386 223.075 64.8206 225.715 63.3412C226.174 63.0791 226.623 62.7982 227.054 62.4986C229.938 60.4668 232.026 57.5362 232.99 54.0906C234.104 50.1394 233.608 45.9916 231.595 42.4056C227.447 35.0088 218.056 32.3778 210.669 36.5256C210.21 36.7784 209.77 37.0593 209.349 37.3589C207.504 38.651 205.969 40.3364 204.854 42.2932C204.826 42.34 204.789 42.3869 204.742 42.4149C204.62 42.4992 204.461 42.5086 204.33 42.4337C204.143 42.3307 204.087 42.0966 204.19 41.9093C205.36 39.8589 206.98 38.0892 208.909 36.7316C209.358 36.4226 209.817 36.123 210.294 35.8609C218.056 31.5071 227.915 34.2785 232.269 42.0311C234.376 45.7856 234.9 50.1488 233.73 54.2966C232.719 57.9107 230.528 60.9911 227.504 63.1165C227.054 63.4349 226.586 63.7251 226.099 64.006C222.345 66.1127 217.981 66.637 213.834 65.4666C210.191 64.4554 207.111 62.2645 204.976 59.2403Z" fill="#BDD0FB"/>
<g opacity="0.3">
<path opacity="0.3" d="M153.056 10.3179C152.906 10.1119 152.906 9.82163 153.075 9.60628C153.384 9.21303 153.721 8.82915 154.048 8.45463C154.264 8.21119 154.638 8.19247 154.882 8.40782C155.125 8.62316 155.144 8.99768 154.929 9.24112C154.61 9.59692 154.292 9.97144 153.992 10.346C153.786 10.5988 153.421 10.6456 153.159 10.4396C153.131 10.4021 153.093 10.3647 153.056 10.3179Z" fill="#91B3FA"/>
<path opacity="0.3" d="M156.241 7.08803C156.456 7.33147 156.83 7.35956 157.074 7.14421C157.701 6.60115 158.357 6.08619 159.031 5.61804C159.171 5.51505 159.321 5.42142 159.461 5.31842C159.733 5.14053 159.808 4.76601 159.621 4.49448C159.443 4.24168 159.068 4.14805 158.797 4.33531C158.647 4.4383 158.497 4.5413 158.347 4.64429C157.645 5.14053 156.952 5.68358 156.297 6.24536C156.063 6.44198 156.025 6.78841 156.203 7.03185C156.222 7.05058 156.231 7.0693 156.241 7.08803ZM162.055 3.80162C162.944 3.3522 163.871 2.94959 164.808 2.61252C165.117 2.50016 165.276 2.16309 165.163 1.85412C165.051 1.54514 164.714 1.38597 164.405 1.49832C163.422 1.85412 162.448 2.27545 161.521 2.7436C161.231 2.89341 161.109 3.2492 161.259 3.53946C161.268 3.56754 161.287 3.58627 161.306 3.61436C161.465 3.84843 161.783 3.9327 162.055 3.80162ZM167.691 1.76985C168.665 1.5545 169.658 1.38597 170.66 1.29234C170.987 1.26425 171.221 0.973995 171.193 0.64629C171.165 0.318585 170.875 0.0845102 170.547 0.112599C169.508 0.215592 168.459 0.384126 167.439 0.618201C167.12 0.693105 166.924 1.00208 166.989 1.32043C167.008 1.39533 167.036 1.47023 167.083 1.52641C167.205 1.72303 167.448 1.82603 167.691 1.76985ZM173.656 1.17998C174.658 1.20807 175.659 1.29234 176.642 1.44214C176.97 1.48896 177.27 1.26425 177.317 0.945906C177.363 0.627564 177.139 0.318585 176.82 0.27177C175.79 0.112599 174.732 0.0283322 173.684 0.000243213C173.356 -0.00911978 173.085 0.253044 173.075 0.580749C173.075 0.711831 173.113 0.83355 173.178 0.936543C173.291 1.07699 173.459 1.17998 173.656 1.17998ZM179.573 2.06947C180.537 2.34099 181.493 2.6687 182.41 3.05258C182.71 3.1743 183.056 3.03385 183.187 2.73424C183.309 2.43462 183.168 2.08819 182.869 1.95711C181.904 1.5545 180.903 1.20807 179.891 0.92718C179.573 0.842913 179.255 1.02081 179.161 1.33915C179.114 1.51705 179.152 1.69495 179.245 1.83539C179.33 1.94775 179.442 2.03201 179.573 2.06947ZM185.107 4.37276C185.977 4.869 186.82 5.42142 187.616 6.01129C187.878 6.20791 188.243 6.15173 188.44 5.88957C188.636 5.6274 188.58 5.26225 188.318 5.06562C187.485 4.4383 186.595 3.8578 185.687 3.34283C185.406 3.18366 185.041 3.27729 184.882 3.56754C184.77 3.77353 184.788 4.01697 184.91 4.20423C184.966 4.26041 185.032 4.32595 185.107 4.37276ZM189.91 7.94943C190.631 8.64229 191.314 9.38196 191.942 10.1591C192.148 10.4119 192.522 10.4493 192.775 10.2434C193.028 10.0374 193.065 9.67222 192.859 9.41005C192.194 8.59547 191.483 7.81834 190.724 7.09739C190.49 6.87268 190.116 6.88204 189.891 7.11612C189.694 7.3221 189.676 7.64045 189.835 7.86516C189.854 7.89325 189.882 7.92134 189.91 7.94943ZM195.902 15.5241C196.202 15.3836 196.323 15.0372 196.183 14.7376C195.799 13.923 195.368 13.1084 194.9 12.3219C194.825 12.2002 194.76 12.0879 194.685 11.9662C194.516 11.6853 194.151 11.6104 193.87 11.7789C193.589 11.9568 193.515 12.3126 193.683 12.5935C193.749 12.7058 193.824 12.8182 193.889 12.9305C194.339 13.6796 194.751 14.4473 195.116 15.2338C195.134 15.2619 195.144 15.2994 195.172 15.3275C195.331 15.5522 195.64 15.6458 195.902 15.5241Z" fill="#91B3FA"/>
</g>
<g opacity="0.3">
<path opacity="0.3" d="M152.374 40.4857C152.973 41.3191 153.638 42.1243 154.33 42.8827C154.555 43.1261 154.93 43.1355 155.164 42.9108C155.407 42.6861 155.417 42.3115 155.192 42.0775C154.527 41.3565 153.9 40.5887 153.319 39.7929C153.132 39.5307 152.757 39.4652 152.495 39.6618C152.243 39.8584 152.177 40.2236 152.374 40.4857C152.364 40.4857 152.364 40.4857 152.374 40.4857ZM151.512 38.1075C151.793 37.9484 151.905 37.5926 151.746 37.3023C151.269 36.4409 150.838 35.5421 150.473 34.6339C150.351 34.3343 150.005 34.1845 149.705 34.3062C149.406 34.4279 149.256 34.7743 149.377 35.0739C149.761 36.029 150.211 36.9653 150.707 37.8641C150.716 37.8828 150.726 37.9016 150.744 37.9203C150.913 38.1731 151.25 38.2574 151.512 38.1075ZM156.568 45.0268C157.355 45.6916 158.188 46.3189 159.049 46.8807C159.321 47.0586 159.686 46.9837 159.864 46.7121C160.042 46.4406 159.967 46.0755 159.695 45.8976C158.872 45.3639 158.076 44.7646 157.327 44.1373C157.074 43.9313 156.709 43.9594 156.493 44.2029C156.315 44.4088 156.306 44.7085 156.465 44.9238C156.493 44.9519 156.531 44.9893 156.568 45.0268ZM149.115 32.5647C149.434 32.4804 149.621 32.1527 149.537 31.8437C149.284 30.898 149.087 29.9243 148.947 28.9505C148.9 28.6322 148.6 28.3981 148.282 28.4449C147.954 28.4918 147.73 28.7914 147.776 29.1097C147.917 30.1303 148.132 31.1508 148.394 32.1433C148.413 32.2089 148.441 32.2744 148.479 32.3306C148.619 32.5272 148.872 32.6302 149.115 32.5647ZM161.737 48.4068C162.654 48.8656 163.619 49.2682 164.592 49.6053C164.901 49.7177 165.238 49.5491 165.341 49.2402C165.454 48.9312 165.285 48.5941 164.976 48.4911C164.049 48.1634 163.132 47.7795 162.252 47.3488C161.961 47.2084 161.606 47.3207 161.456 47.6204C161.353 47.817 161.381 48.0511 161.503 48.2196C161.568 48.2945 161.643 48.36 161.737 48.4068ZM167.56 50.4573C168.562 50.6821 169.592 50.8412 170.622 50.9349C170.95 50.9629 171.24 50.7289 171.268 50.4012C171.296 50.0735 171.062 49.7832 170.734 49.7551C169.761 49.6615 168.778 49.5023 167.813 49.2963C167.495 49.2308 167.177 49.4274 167.111 49.7458C167.074 49.9143 167.111 50.0828 167.205 50.2139C167.289 50.3356 167.411 50.4199 167.56 50.4573ZM173.712 51.0472C174.742 51.0191 175.781 50.9349 176.792 50.785C177.12 50.7382 177.335 50.4386 177.289 50.1109C177.242 49.7926 176.942 49.5679 176.614 49.6147C175.641 49.7551 174.658 49.8394 173.674 49.8675C173.347 49.8768 173.094 50.1484 173.094 50.4761C173.094 50.5978 173.131 50.7101 173.197 50.8038C173.328 50.9536 173.506 51.0472 173.712 51.0472Z" fill="#91B3FA"/>
<path opacity="0.3" d="M147.626 26.3291C147.561 26.2354 147.523 26.1231 147.523 26.0014C147.514 25.4958 147.523 24.9901 147.542 24.4939C147.551 24.1662 147.832 23.9134 148.16 23.9321C148.488 23.9509 148.74 24.2224 148.722 24.5501C148.703 25.0276 148.694 25.5051 148.703 25.992C148.712 26.3197 148.45 26.5912 148.122 26.5912C147.916 26.5819 147.739 26.4789 147.626 26.3291Z" fill="#91B3FA"/>
</g>
<path d="M155.342 18.1364C155.379 18.0147 155.482 17.9304 155.613 17.921L159.246 17.7057C160.07 16.217 161.128 14.85 162.42 13.6609L161.774 10.0748C161.756 9.95311 161.812 9.82203 161.924 9.75649L165.735 7.62173C165.847 7.55619 165.988 7.57491 166.081 7.65918L168.797 10.0748C170.482 9.58796 172.205 9.39133 173.899 9.46624L175.978 6.47008C176.053 6.36709 176.184 6.32027 176.306 6.34836L180.51 7.5281C180.631 7.56555 180.716 7.66854 180.725 7.79962L180.94 11.4325C182.429 12.2564 183.796 13.3144 184.985 14.6065L188.571 13.9605C188.693 13.9417 188.824 13.9979 188.89 14.1103L191.024 17.921C191.09 18.0334 191.071 18.1738 190.987 18.2675L188.571 20.9827C189.058 22.6681 189.255 24.3909 189.18 26.0856L192.176 28.1641C192.279 28.239 192.326 28.3701 192.298 28.4918L191.118 32.6958C191.08 32.8175 190.977 32.9018 190.846 32.9112L187.214 33.1265C186.39 34.6152 185.332 35.9822 184.039 37.1713L184.686 40.7574C184.704 40.8791 184.648 41.0102 184.536 41.0757L180.725 43.2105C180.613 43.276 180.472 43.2573 180.379 43.173L177.663 40.7574C175.978 41.2442 174.255 41.4409 172.56 41.366L170.482 44.3621C170.407 44.4651 170.276 44.5119 170.154 44.4838L165.95 43.3041C165.828 43.2666 165.744 43.1637 165.735 43.0326L165.519 39.3997C164.031 38.5758 162.664 37.5178 161.475 36.2257L157.889 36.8717C157.767 36.8904 157.636 36.8343 157.57 36.7219L155.436 32.9112C155.37 32.7988 155.389 32.6584 155.473 32.5647L157.889 29.8495C157.402 28.1641 157.205 26.4413 157.28 24.7466L154.284 22.6681C154.181 22.5932 154.134 22.4621 154.162 22.3404L155.342 18.1364Z" fill="#91B3FA"/>
<path d="M169.976 28.501C170.8 29.3718 171.905 29.8586 173.104 29.8961C174.293 29.9242 175.435 29.4935 176.296 28.6695C178.085 26.9748 178.16 24.1472 176.465 22.3495C174.77 20.5612 171.933 20.4863 170.145 22.181C169.274 23.0049 168.787 24.1098 168.75 25.3082C168.722 26.282 169.003 27.2089 169.555 27.986C169.686 28.1639 169.827 28.3418 169.976 28.501ZM175.482 27.8081C174.845 28.4167 174.012 28.7351 173.132 28.707C172.252 28.6883 171.437 28.3231 170.828 27.6864C170.229 27.0497 169.902 26.2164 169.93 25.3363C169.948 24.4562 170.314 23.6416 170.95 23.033C172.27 21.7877 174.349 21.8439 175.604 23.1547C175.716 23.2765 175.819 23.3982 175.913 23.5293C176.84 24.8494 176.68 26.6752 175.482 27.8081Z" fill="#BDD0FB"/>
<path d="M164.208 31.8531C163.993 31.5441 163.797 31.2258 163.609 30.8981C163.235 30.2333 162.935 29.5404 162.701 28.8195C162.692 28.7914 162.682 28.7539 162.673 28.7258C162.598 28.473 162.692 28.2109 162.898 28.0704C162.944 28.033 163.001 28.0049 163.066 27.9862C163.375 27.8925 163.712 28.0704 163.806 28.3794C164.012 29.0536 164.293 29.709 164.639 30.3269C164.658 30.3644 164.677 30.3925 164.695 30.4299C165.529 31.8812 166.699 33.0703 168.085 33.9317C168.843 34.3998 169.667 34.765 170.538 35.0178C170.547 35.0178 170.557 35.0178 170.557 35.0271C170.575 35.0365 170.603 35.0365 170.622 35.0459C173.178 35.7668 175.865 35.4485 178.187 34.147C178.487 33.9785 178.777 33.8006 179.058 33.604C180.931 32.2931 182.279 30.3925 182.897 28.1641C183.618 25.608 183.29 22.9208 181.989 20.5988C180.687 18.2861 178.562 16.6101 176.006 15.8892C173.45 15.1682 170.763 15.4866 168.441 16.788C168.141 16.9566 167.86 17.1345 167.589 17.3311C166.399 18.1644 165.398 19.2599 164.677 20.5239C164.63 20.5988 164.574 20.6643 164.499 20.7111C164.321 20.8422 164.068 20.8609 163.862 20.7392C163.581 20.58 163.478 20.2149 163.647 19.934C164.452 18.5202 165.566 17.303 166.905 16.3573C167.214 16.142 167.532 15.936 167.86 15.7581C170.454 14.2975 173.459 13.9417 176.324 14.7469C179.189 15.5521 181.567 17.4154 183.019 20.0183C184.479 22.6118 184.835 25.6173 184.03 28.4824C183.328 30.973 181.82 33.0984 179.732 34.5684C179.423 34.7837 179.096 34.9897 178.759 35.177C173.74 37.9671 167.448 36.4597 164.208 31.8531Z" fill="#BDD0FB"/>
<path d="M74.8851 19.7007V254.721C74.8851 256.275 75.5125 257.68 76.5799 258.541C77.3944 259.197 78.415 259.618 79.5479 259.571L82.1227 259.478C84.7257 259.384 87.0664 256.996 87.0664 254.281V20.1033L74.8851 19.7007Z" fill="url(#paint0_linear)"/>
<path d="M69.9882 11.2733C69.9882 15.2432 72.0012 18.7918 75.0348 20.8798C76.7389 22.0595 78.7707 22.7711 80.9429 22.8366C82.0196 22.8647 83.0683 22.743 84.0514 22.4715C84.7911 22.2655 85.4933 21.9846 86.1674 21.6382C86.336 21.5445 86.5045 21.4509 86.6637 21.3573C89.7722 19.4847 91.832 16.0297 91.832 12.0224C91.832 5.86152 86.9633 0.683784 80.9429 0.468435C74.9037 0.215634 69.9882 5.06567 69.9882 11.2733Z" fill="url(#paint1_linear)"/>
<path d="M75.0067 10.8619C75.0067 13.9423 76.5704 16.7044 78.9298 18.3336C80.2594 19.2512 81.8324 19.8036 83.5271 19.8504C84.3697 19.8785 85.175 19.7755 85.9427 19.5695C86.5139 19.4103 87.0663 19.195 87.5812 18.9235C87.7123 18.8486 87.8434 18.783 87.9745 18.6987C90.3901 17.2475 91.9912 14.5603 91.9912 11.4424C91.9912 6.64857 88.2086 2.63184 83.5271 2.45395C78.8268 2.26669 75.0067 6.03997 75.0067 10.8619Z" fill="url(#paint2_linear)"/>
<path d="M162.954 28.0984L162.018 28.5853L144.294 17.7148L57.4892 30.5515L45.3454 31.9372L46.0663 34.2031C46.16 34.4465 59.9798 44.5117 59.9798 44.5117L49.231 58.6218L49.746 60.073C49.8116 60.2416 49.9801 60.3539 50.1486 60.3258L61.3093 58.5937L148.16 45.1391C148.404 45.1016 148.629 44.9799 148.797 44.802L162.767 30.1864C162.954 29.9991 163.048 29.7276 163.029 29.456L162.954 28.0984Z" fill="url(#paint3_linear)"/>
<path d="M143.319 16.7599L45.3535 31.9373C45.2599 31.9561 45.2318 32.0778 45.3161 32.134L59.1078 42.2273C59.295 42.3677 59.3418 42.6299 59.2201 42.8265L49.3515 58.4253C49.3047 58.5002 49.3703 58.6031 49.4545 58.5938L147.485 43.407C147.766 43.3602 148.019 43.2291 148.225 43.0231L162.831 28.2296C162.897 28.1641 162.878 28.0611 162.803 28.0142L144.199 16.9378C143.927 16.7786 143.618 16.7131 143.319 16.7599Z" fill="url(#paint4_linear)"/>
<path d="M154.433 119.716L153.44 119.96L139.199 105.606L54.3141 97.8351L42.9849 96.4213C42.7508 96.3932 42.5448 96.5804 42.5542 96.8145L42.6478 98.6684C42.6852 98.9212 53.4527 111.627 53.4527 111.627L40.0636 122.516L40.2228 124.005C40.2415 124.183 40.3726 124.323 40.5411 124.332L51.4771 125.259L136.549 132.459C136.783 132.478 137.027 132.422 137.233 132.291L153.768 121.655C153.983 121.514 154.133 121.289 154.18 121.027L154.433 119.716Z" fill="#7D97F4"/>
<path d="M138.497 104.472L42.8255 96.3731C42.6289 96.3544 42.5071 96.5885 42.6382 96.7383L53.1716 109.257C53.312 109.425 53.3027 109.697 53.1435 109.856L40.2413 122.355C40.1758 122.421 40.2132 122.524 40.3068 122.533L136.324 130.66C136.596 130.679 136.877 130.614 137.111 130.473L154.292 119.818C154.367 119.771 154.376 119.668 154.311 119.612L139.292 104.856C139.068 104.622 138.796 104.491 138.497 104.472Z" fill="#91B3FA"/>
<path opacity="0.56" d="M81.6728 110.521L134.995 114.687C135.192 114.706 135.37 114.556 135.379 114.36L135.576 111.906C135.594 111.71 135.444 111.532 135.248 111.523L81.9256 107.356C81.729 107.337 81.5511 107.487 81.5417 107.684L81.3451 110.137C81.3264 110.324 81.4762 110.502 81.6728 110.521Z" fill="white"/>
<path opacity="0.56" d="M81.6353 118.929L134.536 123.067C134.733 123.086 134.911 122.936 134.92 122.74L135.098 120.446C135.117 120.249 134.967 120.071 134.77 120.062L81.8694 115.923C81.6728 115.905 81.4949 116.055 81.4855 116.251L81.3076 118.545C81.2889 118.742 81.4387 118.92 81.6353 118.929Z" fill="white"/>
<path d="M9.91821e-05 71.7583L1.03003 72.1703L18.8946 60.5977L111.888 67.7323L124.837 68.4719L124.313 70.4943C124.228 70.7378 110.418 81.3648 110.418 81.3648L122.974 94.3419L122.543 95.7744C122.496 95.943 122.318 96.0553 122.14 96.0366L110.174 95.0441L17.0782 87.3103C16.816 87.2915 16.5726 87.1886 16.376 87.02L0.365273 73.7433C0.159286 73.5654 0.0281906 73.322 0.0281906 73.0504L9.91821e-05 71.7583Z" fill="url(#paint5_linear)"/>
<path d="M19.8601 59.6239L124.651 68.3315C124.819 68.3502 124.885 68.5655 124.754 68.6685L111.149 79.1176C110.962 79.2581 110.934 79.5203 111.084 79.7075L122.834 94.164C122.891 94.2389 122.834 94.3419 122.741 94.3325L17.6598 85.6062C17.3602 85.5781 17.0793 85.4658 16.8452 85.2879L0.141617 71.88C0.0760727 71.8239 0.076088 71.7209 0.150986 71.6741L18.9332 59.858C19.2047 59.6707 19.5324 59.5958 19.8601 59.6239Z" fill="url(#paint6_linear)"/>
<path opacity="0.56" d="M21.3101 69.8298L73.3964 73.9027C73.5931 73.9214 73.7709 73.7716 73.7803 73.575L73.9769 71.0189C73.9957 70.8223 73.8459 70.6444 73.6492 70.635L21.5629 66.5621C21.3663 66.5434 21.1884 66.6932 21.179 66.8898L20.9824 69.4459C20.9636 69.6426 21.1135 69.8111 21.3101 69.8298Z" fill="white"/>
<path opacity="0.56" d="M21.2447 78.5002L72.9097 82.5356C73.1063 82.5543 73.2842 82.4045 73.2936 82.2079L73.4808 79.8203C73.4996 79.6237 73.3498 79.4458 73.1531 79.4365L21.4881 75.401C21.2915 75.3823 21.1136 75.5321 21.1043 75.7287L20.917 78.1163C20.8983 78.3129 21.0481 78.4908 21.2447 78.5002Z" fill="white"/>
<path d="M80.9987 44.278C78.9458 44.278 77.2816 42.6138 77.2816 40.5609C77.2816 38.508 78.9458 36.8438 80.9987 36.8438C83.0516 36.8438 84.7158 38.508 84.7158 40.5609C84.7158 42.6138 83.0516 44.278 80.9987 44.278Z" fill="url(#paint7_linear)"/>
<path d="M80.7467 42.2459C79.485 42.2459 78.4621 41.2231 78.4621 39.9613C78.4621 38.6996 79.485 37.6768 80.7467 37.6768C82.0084 37.6768 83.0312 38.6996 83.0312 39.9613C83.0312 41.2231 82.0084 42.2459 80.7467 42.2459Z" fill="url(#paint8_linear)"/>
<path d="M81.5898 81.9362C79.6093 81.9362 78.0037 80.3307 78.0037 78.3502C78.0037 76.3697 79.6093 74.7642 81.5898 74.7642C83.5703 74.7642 85.1758 76.3697 85.1758 78.3502C85.1758 80.3307 83.5703 81.9362 81.5898 81.9362Z" fill="url(#paint9_linear)"/>
<path d="M81.3466 79.9792C80.1314 79.9792 79.1463 78.9941 79.1463 77.7789C79.1463 76.5637 80.1314 75.5786 81.3466 75.5786C82.5618 75.5786 83.5469 76.5637 83.5469 77.7789C83.5469 78.9941 82.5618 79.9792 81.3466 79.9792Z" fill="url(#paint10_linear)"/>
<path d="M81.3761 115.971C79.318 115.971 77.6496 114.302 77.6496 112.244C77.6496 110.186 79.318 108.518 81.3761 108.518C83.4341 108.518 85.1025 110.186 85.1025 112.244C85.1025 114.302 83.4341 115.971 81.3761 115.971Z" fill="url(#paint11_linear)"/>
<path d="M81.1119 113.929C79.8502 113.929 78.8273 112.907 78.8273 111.645C78.8273 110.383 79.8502 109.36 81.1119 109.36C82.3736 109.36 83.3965 110.383 83.3965 111.645C83.3965 112.907 82.3736 113.929 81.1119 113.929Z" fill="url(#paint12_linear)"/>
<path opacity="0.56" d="M92.1415 34.6717L139.799 27.1533C139.996 27.1252 140.127 26.9379 140.099 26.7413L139.734 24.4567C139.706 24.2601 139.518 24.129 139.322 24.1571L91.664 31.6756C91.4674 31.7037 91.3363 31.8909 91.3644 32.0876L91.7295 34.3721C91.7576 34.5688 91.9449 34.7092 92.1415 34.6717Z" fill="white"/>
<path opacity="0.56" d="M93.9389 42.4902L141.222 35.0279C141.419 34.9998 141.55 34.8125 141.522 34.6159L141.185 32.4811C141.156 32.2845 140.969 32.1534 140.773 32.1815L93.4894 39.6438C93.2928 39.6719 93.1617 39.8592 93.1898 40.0558L93.5269 42.1906C93.5644 42.3872 93.7422 42.5276 93.9389 42.4902Z" fill="white"/>
<path d="M160.894 140.642C190.397 139.874 223.036 147.795 223.036 147.795C230.808 190.668 227.39 239.168 226.061 253.859C225.817 256.612 223.757 258.84 221.042 259.346C205.799 262.145 189.713 260.45 181.633 259.215C178.487 258.737 175.969 256.359 175.304 253.25C169.958 228.373 154.687 173.487 154.687 173.487C140.249 171.839 128.339 167.785 118.499 162.382C125.877 153.665 129.285 142.627 130.755 136.11C141.223 139.256 151.793 140.885 160.894 140.642Z" fill="url(#paint13_linear)"/>
<path d="M73.3223 98.0118C76.1873 94.482 78.8745 94.6318 78.8745 94.6318C83.3875 112.936 107.301 129.06 130.755 136.1C129.285 142.617 125.877 153.656 118.499 162.373C79.4738 140.932 73.3223 98.0118 73.3223 98.0118Z" fill="url(#paint14_linear)"/>
<path d="M74.033 98.9015C73.7427 99.8659 77.2632 101.308 79.295 97.3379C79.3512 95.4466 80.4185 87.3382 79.2762 85.8121C73.1809 77.6663 61.421 67.498 61.421 67.498C59.4641 69.4643 61.112 71.3556 61.112 71.3556L66.8235 77.1981C65.6625 79.3516 64.2299 81.168 63.5839 83.7616C63.0876 85.7278 63.4247 87.8157 64.4265 89.5853C65.4377 91.3643 66.8141 93.677 68.1156 95.484C70.578 98.9015 74.033 98.9015 74.033 98.9015Z" fill="url(#paint15_linear)"/>
<path d="M69.3318 80.9995L74.5283 85.3252L76.1855 89.6603L71.6351 94.8006C71.6351 94.8006 70.006 86.1772 68.845 84.3234C67.6839 82.4601 68.2738 81.5519 69.3318 80.9995Z" fill="url(#paint16_linear)"/>
<path d="M211.987 176.483L223.035 147.804C223.035 147.804 250.778 166.268 255.534 189.966C250.328 190.396 240.862 191.848 231.63 196.613C229.486 185.425 211.987 176.483 211.987 176.483Z" fill="url(#paint17_linear)"/>
<path d="M188.159 203.598C188.159 203.598 219.272 220.789 229.572 205.761C231.706 202.643 232.203 199.553 231.641 196.623C240.873 191.848 250.339 190.406 255.544 189.975C256.977 197.119 256.331 204.741 252.192 212.474C234.225 246.106 184.142 211.276 184.142 211.276L188.159 203.598Z" fill="url(#paint18_linear)"/>
<path d="M190.556 116.401L200.2 143.46C200.359 143.91 200.181 144.406 199.769 144.64C197.223 146.082 188.037 150.258 176.858 143.32C175.697 142.599 174.892 141.41 174.705 140.052L171.437 116.579L190.556 116.401Z" fill="url(#paint19_linear)"/>
<path d="M169.892 91.458C169.892 91.458 159.771 110.961 161.166 118.789C162.561 126.616 175.332 125.933 186.427 119.453L194.021 98.4241L169.892 91.458Z" fill="url(#paint20_linear)"/>
<path d="M185.837 109.173C185.378 108.976 185.209 108.424 185.481 108.002C186.295 106.729 187.822 104.145 188.29 101.888C188.29 101.888 190.134 100.68 183.543 99.173C176.961 97.6656 167.139 95.3154 165.023 89.7445C162.963 84.3139 168.113 70.5503 176.633 81.3927C176.961 81.8046 177.588 81.8046 177.897 81.3927C179.264 79.5856 182.85 75.8217 187.906 78.0314C192.644 80.1006 193.205 83.5462 193.159 85.2877C193.14 85.8026 193.608 86.1959 194.104 86.0929C196.482 85.6154 202.194 85.1753 204.928 91.0085C207.175 95.821 205.771 98.5644 204.478 99.922C204.057 100.362 204.254 101.074 204.834 101.242C206.407 101.71 208.439 103.012 208.27 106.691C208.036 111.766 202.362 111.373 200.743 111.158C200.48 111.12 200.209 111.214 200.031 111.42C198.664 112.965 192.484 119.528 185.743 120.38C185.163 120.455 184.704 119.884 184.891 119.322L187.728 110.802C187.859 110.409 187.662 109.978 187.288 109.809L185.837 109.173Z" fill="url(#paint21_linear)"/>
<path d="M184.667 110.39C184.667 110.39 191.96 105.287 192.541 109.519C193.121 113.751 185.987 115.726 182.438 114.182L184.667 110.39Z" fill="url(#paint22_linear)"/>
<path d="M194.517 230.77L177.57 171.586C177.373 170.912 176.802 170.425 176.109 170.341C173.038 169.985 164.143 168.974 153.872 168.103C141.494 167.054 127.132 166.212 118.536 166.933C117.319 167.036 116.579 168.328 117.122 169.423C122.01 179.301 142.094 219.487 152.149 232.652C152.486 233.092 153.001 233.344 153.545 233.335L192.869 232.97C194.011 232.97 194.835 231.874 194.517 230.77Z" fill="url(#paint23_linear)"/>
<path d="M190.426 216.472C190.426 216.472 192.785 206.763 191.83 203.317C190.875 199.872 189.03 195.443 182.879 196.426C176.728 197.409 169.471 200.003 169.471 200.003C169.471 200.003 169.836 204.488 174.508 203.046L171.606 205.293C171.606 205.293 172.018 208.888 175.969 206.969L173.273 209.946C173.273 209.946 174.967 212.896 177.87 211.004C180.791 209.104 182.186 217.643 190.426 216.472Z" fill="url(#paint24_linear)"/>
<path d="M154.996 185.781C154.996 188.524 152.768 190.753 150.024 190.753C147.281 190.753 145.053 188.524 145.053 185.781C145.053 183.038 147.281 180.809 150.024 180.809C152.777 180.8 154.996 183.028 154.996 185.781Z" fill="#91B3FA"/>
<path d="M175.651 189.058L172.196 177.354C171.775 175.912 170.614 174.835 169.181 174.536C158.367 172.279 128.761 171.802 128.462 171.792L128.48 170.472C129.697 170.491 158.507 170.959 169.443 173.244C171.353 173.646 172.898 175.079 173.46 176.979L176.915 188.683L175.651 189.058Z" fill="#BDD0FB"/>
<path d="M76.1683 259.215C76.5148 259.159 76.8237 258.962 77.0297 258.672C79.9697 254.43 101.271 221.323 70.5973 192.653C41.4784 165.444 28.5013 160.079 26.2729 143.61C26.0108 141.691 23.3891 141.307 22.5839 143.076C16.5822 156.278 7.56567 186.923 41.2631 205.78C78.4342 226.575 76.2151 250.741 74.6702 257.642C74.4736 258.541 75.2508 259.374 76.1683 259.215Z" fill="#91B3FA"/>
<path d="M71.6646 259.973C72.4885 259.833 73.1252 259.177 73.2282 258.344C73.9211 252.68 75.3817 231.557 59.6987 226.472C42.4239 220.873 29.1472 237.212 16.1982 225.171C15.5147 224.534 14.4286 225.143 14.6158 226.051C15.9454 232.521 21.3946 247.418 43.6318 249.74C67.4325 252.221 70.1852 254.861 69.8107 258.241C69.6983 259.29 70.6347 260.151 71.6646 259.973Z" fill="#91B3FA"/>
<path opacity="0.47" d="M27.8182 160.37C28.174 161.55 28.6234 162.674 29.1478 163.778C29.6627 164.883 30.2339 165.951 30.8425 167.009C31.4511 168.057 32.1065 169.087 32.8181 170.08C33.5203 171.072 34.2506 172.046 35.0371 172.982C38.1456 176.737 41.8253 180.004 45.842 182.757C47.8457 184.134 49.9711 185.369 52.0871 186.512C54.175 187.635 56.1975 188.909 58.1356 190.285C62.0025 193.047 65.5605 196.268 68.6877 199.863C71.8149 203.449 74.4927 207.429 76.6181 211.679C78.7529 215.93 80.2885 220.481 81.1218 225.172C81.9551 229.862 82.0768 234.666 81.5337 239.413C81 244.16 79.7641 248.822 78.0694 253.307C78.0226 253.438 78.0881 253.579 78.2099 253.626C78.3316 253.672 78.472 253.616 78.5282 253.485C80.3821 249.028 81.7304 244.328 82.3858 239.516C82.7228 237.109 82.8726 234.675 82.8539 232.25C82.8165 229.816 82.6198 227.391 82.2172 224.984C81.4307 220.181 79.9233 215.49 77.7885 211.108C75.6631 206.717 72.9104 202.654 69.7363 198.964C66.5529 195.275 62.9388 191.97 58.9876 189.124C57.012 187.701 54.9522 186.39 52.808 185.229L51.2257 184.368C50.7014 184.087 50.1864 183.787 49.6808 183.487L48.9131 183.038L48.1546 182.561L47.3963 182.083L46.6566 181.587C44.6903 180.257 42.7803 178.825 40.992 177.261C39.1943 175.697 37.4902 174.04 35.9266 172.242C34.3442 170.464 32.9023 168.563 31.5915 166.569C30.2994 164.574 29.129 162.458 28.2676 160.258L28.2583 160.239C28.2115 160.127 28.0804 160.061 27.968 160.108C27.8463 160.136 27.7808 160.258 27.8182 160.37Z" fill="white"/>
<path opacity="0.47" d="M72.3857 256.116C72.3483 255.919 72.3576 255.722 72.3576 255.535V254.955C72.3576 254.571 72.3389 254.187 72.3296 253.794C72.3015 253.026 72.2547 252.249 72.1985 251.481C72.0768 249.945 71.8895 248.41 71.6273 246.884C71.0937 243.841 70.2978 240.826 68.9589 238.008C68.2941 236.603 67.4795 235.264 66.4964 234.047C65.5133 232.83 64.3336 231.762 62.9947 230.939C61.6557 230.124 60.1483 229.562 58.6034 229.3C57.8263 229.169 57.0492 229.094 56.2627 229.085C55.4762 229.066 54.699 229.122 53.9219 229.216C53.1448 229.309 52.3864 229.45 51.628 229.572L49.3528 229.974C47.836 230.246 46.3192 230.545 44.8117 230.845C41.7875 231.444 38.782 232.1 35.7577 232.661C34.2503 232.933 32.7335 233.186 31.2073 233.335C29.6905 233.485 28.155 233.541 26.6475 233.364C25.1401 233.204 23.6701 232.774 22.3405 232.053C21.011 231.341 19.8313 230.349 18.7826 229.244C18.7077 229.16 18.5766 229.16 18.4923 229.234C18.4081 229.309 18.4081 229.44 18.483 229.515C19.541 230.658 20.7395 231.688 22.1158 232.446C23.4922 233.214 25.0277 233.673 26.582 233.86C28.1362 234.047 29.7092 233.991 31.2448 233.841C32.7896 233.691 34.3158 233.448 35.8326 233.176C38.8662 232.624 41.8811 231.978 44.9054 231.388C47.9202 230.798 50.9632 230.227 53.9781 229.778C54.7271 229.684 55.4855 229.628 56.2439 229.637C57.0024 229.637 57.7514 229.703 58.5004 229.824C59.9891 230.068 61.431 230.592 62.7231 231.369C64.0152 232.156 65.1575 233.167 66.1125 234.347C67.0769 235.517 67.8728 236.828 68.5376 238.195C69.8765 240.948 70.7004 243.925 71.2528 246.94C71.5243 248.447 71.7303 249.973 71.8708 251.5C71.9363 252.267 71.9925 253.035 72.0299 253.794C72.0487 254.177 72.058 254.561 72.0674 254.945L72.0768 255.516C72.0768 255.704 72.0861 255.9 72.0393 256.088C72.0112 256.181 72.0768 256.275 72.1704 256.303C72.264 256.331 72.3577 256.265 72.3857 256.172C72.3857 256.172 72.3857 256.144 72.3857 256.116Z" fill="white"/>
<defs>
<linearGradient id="paint0_linear" x1="87.0702" y1="139.64" x2="74.8861" y2="139.64" gradientUnits="userSpaceOnUse">
<stop stop-color="#FE7062"/>
<stop offset="1" stop-color="#FF928E"/>
</linearGradient>
<linearGradient id="paint1_linear" x1="93.8005" y1="-9.9454" x2="66.8776" y2="35.1211" gradientUnits="userSpaceOnUse">
<stop stop-color="#E1473D"/>
<stop offset="1" stop-color="#E9605A"/>
</linearGradient>
<linearGradient id="paint2_linear" x1="93.5196" y1="-5.63083" x2="72.5878" y2="29.4071" gradientUnits="userSpaceOnUse">
<stop stop-color="#FE7062"/>
<stop offset="1" stop-color="#FF928E"/>
</linearGradient>
<linearGradient id="paint3_linear" x1="98.9353" y1="-7.87885" x2="109.888" y2="72.6287" gradientUnits="userSpaceOnUse">
<stop stop-color="#E1473D"/>
<stop offset="1" stop-color="#E9605A"/>
</linearGradient>
<linearGradient id="paint4_linear" x1="103.015" y1="16.5504" x2="107.813" y2="84.8684" gradientUnits="userSpaceOnUse">
<stop stop-color="#FE7062"/>
<stop offset="1" stop-color="#FF928E"/>
</linearGradient>
<linearGradient id="paint5_linear" x1="63.7766" y1="-83.161" x2="63.1494" y2="-12.277" gradientUnits="userSpaceOnUse">
<stop stop-color="#4F52FF"/>
<stop offset="1" stop-color="#4042E2"/>
</linearGradient>
<linearGradient id="paint6_linear" x1="-0.977669" y1="21.3443" x2="-117.026" y2="-68.3582" gradientUnits="userSpaceOnUse">
<stop stop-color="#4F52FF"/>
<stop offset="1" stop-color="#4042E2"/>
</linearGradient>
<linearGradient id="paint7_linear" x1="78.6396" y1="29.6785" x2="89.4631" y2="79.5675" gradientUnits="userSpaceOnUse">
<stop stop-color="#E1473D"/>
<stop offset="1" stop-color="#E9605A"/>
</linearGradient>
<linearGradient id="paint8_linear" x1="80.9336" y1="31.4481" x2="80.6926" y2="42.4265" gradientUnits="userSpaceOnUse">
<stop stop-color="#E1473D"/>
<stop offset="1" stop-color="#E9605A"/>
</linearGradient>
<linearGradient id="paint9_linear" x1="79.317" y1="67.8693" x2="89.7419" y2="115.922" gradientUnits="userSpaceOnUse">
<stop stop-color="#E1473D"/>
<stop offset="1" stop-color="#E9605A"/>
</linearGradient>
<linearGradient id="paint10_linear" x1="81.526" y1="69.574" x2="81.2939" y2="80.1482" gradientUnits="userSpaceOnUse">
<stop stop-color="#E1473D"/>
<stop offset="1" stop-color="#E9605A"/>
</linearGradient>
<linearGradient id="paint11_linear" x1="79.0101" y1="101.357" x2="89.8399" y2="151.276" gradientUnits="userSpaceOnUse">
<stop stop-color="#E1473D"/>
<stop offset="1" stop-color="#E9605A"/>
</linearGradient>
<linearGradient id="paint12_linear" x1="81.3027" y1="103.128" x2="81.0616" y2="114.113" gradientUnits="userSpaceOnUse">
<stop stop-color="#E1473D"/>
<stop offset="1" stop-color="#E9605A"/>
</linearGradient>
<linearGradient id="paint13_linear" x1="190.911" y1="136.573" x2="123.297" y2="396.889" gradientUnits="userSpaceOnUse">
<stop stop-color="#4F52FF"/>
<stop offset="1" stop-color="#4042E2"/>
</linearGradient>
<linearGradient id="paint14_linear" x1="130.683" y1="128.207" x2="73.6118" y2="128.749" gradientUnits="userSpaceOnUse">
<stop stop-color="#FEBBBA"/>
<stop offset="1" stop-color="#FF928E"/>
</linearGradient>
<linearGradient id="paint15_linear" x1="86.2381" y1="119.607" x2="125.361" y2="206.375" gradientUnits="userSpaceOnUse">
<stop stop-color="#FEBBBA"/>
<stop offset="1" stop-color="#FF928E"/>
</linearGradient>
<linearGradient id="paint16_linear" x1="73.5222" y1="90.7078" x2="57.3093" y2="66.2913" gradientUnits="userSpaceOnUse">
<stop stop-color="#FEBBBA"/>
<stop offset="1" stop-color="#FF928E"/>
</linearGradient>
<linearGradient id="paint17_linear" x1="242.39" y1="150.008" x2="176.264" y2="404.594" gradientUnits="userSpaceOnUse">
<stop stop-color="#4F52FF"/>
<stop offset="1" stop-color="#4042E2"/>
</linearGradient>
<linearGradient id="paint18_linear" x1="256.34" y1="208.397" x2="184.118" y2="209.083" gradientUnits="userSpaceOnUse">
<stop stop-color="#FEBBBA"/>
<stop offset="1" stop-color="#FF928E"/>
</linearGradient>
<linearGradient id="paint19_linear" x1="200.147" y1="131.716" x2="171.592" y2="131.987" gradientUnits="userSpaceOnUse">
<stop stop-color="#FEBBBA"/>
<stop offset="1" stop-color="#FF928E"/>
</linearGradient>
<linearGradient id="paint20_linear" x1="164.628" y1="113.886" x2="195.841" y2="94.4388" gradientUnits="userSpaceOnUse">
<stop stop-color="#FEBBBA"/>
<stop offset="1" stop-color="#FF928E"/>
</linearGradient>
<linearGradient id="paint21_linear" x1="212.268" y1="74.0954" x2="172.013" y2="106.515" gradientUnits="userSpaceOnUse">
<stop stop-color="#09005D"/>
<stop offset="1" stop-color="#1A0F91"/>
</linearGradient>
<linearGradient id="paint22_linear" x1="172.942" y1="120.948" x2="201.025" y2="103.451" gradientUnits="userSpaceOnUse">
<stop stop-color="#FEBBBA"/>
<stop offset="1" stop-color="#FF928E"/>
</linearGradient>
<linearGradient id="paint23_linear" x1="164.752" y1="162.507" x2="124.9" y2="328.558" gradientUnits="userSpaceOnUse">
<stop stop-color="#09005D"/>
<stop offset="1" stop-color="#1A0F91"/>
</linearGradient>
<linearGradient id="paint24_linear" x1="192.06" y1="206.436" x2="169.481" y2="206.436" gradientUnits="userSpaceOnUse">
<stop stop-color="#FEBBBA"/>
<stop offset="1" stop-color="#FF928E"/>
</linearGradient>
</defs>
</svg>
