<svg width="320" height="320" viewBox="0 0 320 320" fill="none" xmlns="http://www.w3.org/2000/svg">
<g clip-path="url(#clip0)">
<path d="M280.6 274.02C274.077 280.885 267.919 285.309 263.039 288.799C205.769 329.887 137.997 317.913 123.594 314.993C102.326 310.671 61.2154 302.324 31.4973 267.371C-13.4676 214.492 -6.46571 131.177 28.4069 76.1879C34.7816 66.1298 68.491 10.2972 136.982 1.34524C178.434 -4.07153 226.763 6.85324 261.75 36.1722C335.224 97.7067 329.99 222.03 280.6 274.02Z" fill="url(#paint0_linear)"/>
<path d="M6.8539 8.39298C6.50038 6.86488 8.63288 5.86136 9.94431 6.9219C23.2411 17.7098 55.2057 50.0052 47.2345 106.454C37.2448 177.271 54.3276 203.112 75.5956 218.871C75.5956 218.871 46.3906 211.459 28.0192 185.242C-17.0939 120.856 13.2058 35.4198 6.8539 8.39298Z" fill="#91B3FA"/>
<path d="M16.9804 30.5049C18.6453 38.3849 20.1278 46.299 21.2682 54.236C22.4656 62.173 23.3779 70.1328 24.0051 78.1154C24.5981 86.098 25.0086 94.0806 25.0314 102.075C25.0998 110.069 24.7691 118.051 24.4042 126.068C24.0849 134.085 23.72 142.147 24.313 150.278C24.8946 158.386 26.5937 166.574 29.9806 174.237C30.8245 176.153 31.714 178.058 32.7289 179.894C33.6983 181.752 34.7702 183.577 35.8764 185.379C38.1115 188.982 40.6203 192.461 43.4256 195.756C49.0477 202.348 55.8215 208.198 63.291 213.147C64.0778 213.671 65.2068 213.535 65.8112 212.862C66.4042 212.2 66.2673 211.242 65.5261 210.718C63.7471 209.475 61.9909 208.209 60.3032 206.875C59.4479 206.225 58.6268 205.541 57.7943 204.868C56.9847 204.172 56.1522 203.499 55.3768 202.781C52.2065 199.964 49.2644 196.942 46.6073 193.761C41.2475 187.42 36.9597 180.361 33.7097 173.04C32.136 169.357 30.8701 165.593 29.9464 161.75C29.0341 157.907 28.4525 153.996 28.1332 150.05C27.4946 142.159 27.7797 134.176 28.0306 126.159C28.2701 118.142 28.4411 110.091 28.2245 102.04C28.1332 98.0149 27.9508 93.9894 27.6885 89.9753C27.5745 87.9682 27.4148 85.9612 27.2552 83.9541C27.0727 81.9471 26.8788 79.94 26.6736 77.9444C25.8069 69.939 24.6665 61.945 23.2296 54.008C21.7471 46.071 20.0252 38.1682 17.9497 30.3452C17.8927 30.1172 17.6304 29.9803 17.3681 30.0373C17.0944 30.0715 16.9348 30.2882 16.9804 30.5049Z" fill="white"/>
<path d="M41.3045 177.887C39.6738 179.62 36.8001 179.118 35.8193 176.952C30.4026 165 18.155 129.831 38.3852 89.3026C55.468 55.08 61.4777 34.9068 63.576 25.5557C64.0208 23.5829 66.7235 23.3206 67.5445 25.168C76.5763 45.6377 100.399 115.189 41.3045 177.887Z" fill="#BDD0FB"/>
<path d="M38.3508 176.632C38.2938 176.643 38.2368 176.643 38.1684 176.643C37.6552 176.632 37.2447 176.21 37.2561 175.697C37.2675 175.115 38.3965 117.024 60.0065 68.3761C60.2118 67.9086 60.7592 67.6919 61.2267 67.9086C61.6943 68.1138 61.9109 68.6612 61.6943 69.1288C40.2439 117.435 39.1149 175.149 39.1149 175.731C39.1035 176.187 38.7728 176.552 38.3508 176.632Z" fill="white"/>
<path d="M28.1562 200.808C28.1562 200.808 75.8923 266.197 88.8013 278.969C103.797 293.805 130.356 274.431 124.826 260.085C119.295 245.739 67.9096 194.285 67.9096 194.285L28.1562 200.808Z" fill="url(#paint1_linear)"/>
<path d="M50.9409 137.358L206.568 30.4482L249.104 192.347L63.4736 201.379L50.9409 137.358Z" fill="url(#paint2_linear)"/>
<path d="M251.842 194.521C261.176 191.956 258.538 152.74 245.949 106.929C233.359 61.1187 215.586 26.0614 206.252 28.6267C196.917 31.1919 199.556 70.4083 212.145 116.219C224.734 162.029 242.507 197.087 251.842 194.521Z" fill="#7D97F4"/>
<path d="M251.544 188.492C249.594 187.363 244.61 182.277 237.506 167.567C230.629 153.346 223.776 134.336 218.199 114.049C212.623 93.7502 208.803 73.9078 207.446 58.182C206.043 41.8975 207.719 34.9982 208.826 33.0254C210.776 34.1544 215.759 39.2404 222.864 53.9512C229.74 68.1717 236.594 87.1817 242.17 107.469C247.746 127.768 251.567 147.61 252.924 163.336C254.326 179.609 252.65 186.52 251.544 188.492Z" fill="url(#paint3_linear)"/>
<path d="M251.68 104.184C255.558 118.279 251.099 131.793 236.08 135.921C221.05 140.049 205.735 131.975 201.858 117.88C197.98 103.785 207.023 89.0172 222.054 84.889C237.072 80.7495 247.803 90.0891 251.68 104.184Z" fill="url(#paint4_linear)"/>
<path d="M22.2377 141.509C30.072 138.35 41.5784 134.815 54.9208 134.245C56.7226 156.973 63.5306 179.313 74.7176 201.299L39.3319 211.026C33.687 212.577 27.7571 209.806 25.3395 204.469C20.5043 193.784 13.1945 175.606 11.3471 159.892C10.412 152.001 14.8823 144.486 22.2377 141.509Z" fill="url(#paint5_linear)"/>
<path d="M48.0214 152.217L20.4472 159.789C19.5121 160.051 18.5542 159.778 17.8814 159.082C17.2085 158.387 16.9805 157.417 17.277 156.482C17.4024 156.094 17.8129 155.878 18.2007 156.003C18.5884 156.129 18.8051 156.539 18.6796 156.927C18.5542 157.326 18.6568 157.748 18.9419 158.056C19.2384 158.364 19.6489 158.478 20.0595 158.364L47.6337 150.792C48.2381 150.621 48.5916 149.993 48.4319 149.389L47.896 147.428C47.7249 146.823 47.0977 146.47 46.4933 146.629L18.7138 154.258C18.3261 154.361 17.9156 154.133 17.8129 153.745C17.7103 153.357 17.9384 152.947 18.3261 152.844L46.1056 145.215C47.4968 144.839 48.9337 145.649 49.31 147.04L49.846 149.001C50.2223 150.392 49.4013 151.829 48.0214 152.217Z" fill="#7D97F4"/>
<path d="M48.9223 165.103L21.3481 172.675C20.413 172.937 19.4551 172.664 18.7822 171.968C18.1094 171.273 17.8813 170.303 18.1778 169.368C18.3033 168.98 18.7138 168.764 19.1015 168.889C19.4893 169.015 19.7059 169.425 19.5805 169.813C19.4551 170.212 19.5577 170.634 19.8428 170.942C20.1393 171.25 20.5498 171.364 20.9604 171.25L48.5346 163.678C49.139 163.507 49.4925 162.879 49.3328 162.275L48.7969 160.314C48.6258 159.709 47.9986 159.356 47.3942 159.515L19.6147 167.156C19.227 167.258 18.8165 167.03 18.7138 166.643C18.6112 166.255 18.8393 165.844 19.227 165.742L47.0065 158.113C48.3977 157.736 49.8346 158.546 50.2109 159.937L50.7469 161.899C51.1232 163.279 50.3021 164.715 48.9223 165.103Z" fill="#7D97F4"/>
<path d="M55.3085 178.731L27.7343 186.303C26.7992 186.565 25.8413 186.292 25.1685 185.596C24.4957 184.901 24.2676 183.931 24.5641 182.996C24.6895 182.608 25.1001 182.392 25.4878 182.517C25.8755 182.643 26.0922 183.053 25.9667 183.441C25.8413 183.84 25.9439 184.273 26.229 184.57C26.5255 184.878 26.9361 184.992 27.3466 184.878L54.9208 177.306C55.5252 177.135 55.8787 176.507 55.7191 175.903L55.1831 173.942C55.012 173.337 54.3848 172.984 53.7804 173.143L26.0009 180.784C25.6132 180.886 25.2027 180.658 25.1001 180.271C24.9974 179.883 25.2255 179.472 25.6132 179.37L53.3927 171.741C54.784 171.364 56.2208 172.174 56.5972 173.565L57.1331 175.527C57.5095 176.906 56.6884 178.343 55.3085 178.731Z" fill="#7D97F4"/>
<path d="M62.2534 193.886L34.6791 201.458C33.744 201.721 32.7861 201.447 32.1133 200.751C31.4405 200.056 31.2124 199.086 31.5089 198.151C31.6343 197.763 32.0449 197.547 32.4326 197.672C32.8203 197.798 33.037 198.208 32.9116 198.596C32.7861 198.995 32.8888 199.428 33.1738 199.725C33.4703 200.033 33.8809 200.147 34.2914 200.033L61.8656 192.461C62.47 192.29 62.8236 191.662 62.6639 191.058L62.1279 189.096C61.9569 188.492 61.3297 188.139 60.7253 188.298L32.9458 195.927C32.558 196.03 32.1475 195.802 32.0449 195.414C31.9422 195.026 32.1703 194.616 32.558 194.513L60.3375 186.884C61.7288 186.508 63.1657 187.317 63.542 188.709L64.078 190.67C64.4543 192.073 63.6332 193.51 62.2534 193.886Z" fill="#7D97F4"/>
<path d="M110.594 273.427C109.328 273.781 108.005 273.997 106.648 274.066C100.707 274.385 95.1301 271.945 91.3441 267.36L55.8671 224.482C55.6048 224.175 55.6504 223.707 55.9697 223.445C56.2776 223.182 56.7452 223.228 57.0075 223.547L92.4845 266.425C95.974 270.645 101.106 272.891 106.579 272.595C111.962 272.31 116.729 269.584 119.671 265.125C119.831 264.886 119.99 264.646 120.139 264.395C120.355 264.053 120.811 263.951 121.153 264.167C121.496 264.384 121.598 264.84 121.382 265.182C121.222 265.444 121.051 265.695 120.891 265.946C118.417 269.652 114.79 272.264 110.594 273.427Z" fill="#7D97F4"/>
<path d="M51.3743 218.382C51.1006 218.461 50.8041 218.37 50.6103 218.142L46.6532 213.353C46.3909 213.045 46.4366 212.577 46.7559 212.315C47.0638 212.053 47.5313 212.098 47.7936 212.417L51.7506 217.196C52.0129 217.503 51.9673 217.971 51.648 218.233C51.5682 218.302 51.4656 218.347 51.3743 218.382Z" fill="url(#paint6_linear)"/>
<path d="M247.45 104.55C247.085 104.652 246.697 104.447 246.56 104.082C244.177 97.3083 240.368 92.8267 235.236 90.7398C226.376 87.1362 216.466 91.9372 216.375 91.9828C216.01 92.1652 215.565 92.017 215.394 91.6521C215.212 91.2871 215.36 90.8424 215.725 90.6713C216.158 90.4547 226.33 85.5282 235.795 89.3827C241.326 91.6293 245.408 96.4188 247.94 103.603C248.077 103.991 247.872 104.402 247.495 104.538C247.484 104.538 247.461 104.55 247.45 104.55Z" fill="#91B3FA"/>
<path d="M134.883 205.608C134.883 205.608 136.97 203.362 140.847 204.069C144.713 204.776 148.157 206.122 150.575 204.069C152.981 202.016 153.836 204.765 153.836 204.765L146.618 210.25L134.883 205.608Z" fill="url(#paint7_linear)"/>
<path d="M65.127 208.254L66.37 241.564C69.8937 242.773 73.2464 243.719 76.4395 244.427C78.4351 237.995 82.837 230.103 86.4406 224.231C73.2008 219.555 65.127 208.254 65.127 208.254Z" fill="url(#paint8_linear)"/>
<path d="M131.2 207.685C113.045 227.288 98.3574 228.439 86.4405 224.231C82.8369 230.104 78.4351 237.996 76.4395 244.427C124.917 255.113 136.332 210.547 136.332 210.547L131.2 207.685Z" fill="url(#paint9_linear)"/>
<path d="M130.562 209.44C130.562 209.44 131.998 203.454 136.309 204.275C140.62 205.096 150.427 210.421 152.958 209.44C155.49 208.46 158.717 206.111 160.371 206.943L157.451 210.569C157.451 210.569 164.955 206.236 166.244 208.905L153.757 215.929C153.768 215.929 135.499 214.105 130.562 209.44Z" fill="url(#paint10_linear)"/>
<path d="M2.28096 318.037C2.28096 318.037 -3.91126 229.602 41.2475 202.107C41.2475 202.107 53.8714 193.771 69.5972 209.919C85.3229 226.055 80.2596 242.83 67.0655 258.544C53.86 274.259 40.415 302.334 43.6195 318.049H2.28096V318.037Z" fill="url(#paint11_linear)"/>
<path d="M64.0095 178.023C63.9981 179.073 48.9565 200.432 48.9565 200.432C48.9565 200.432 51.6592 205.746 64.5455 210.068L75.6641 187.203L64.0095 178.023Z" fill="url(#paint12_linear)"/>
<path d="M58.0908 251.35C58.0908 251.35 86.6229 275.24 117.424 264.817C119.34 264.167 121.427 264.316 123.206 265.251L132.067 269.926C135.784 271.888 140.392 270.599 142.547 266.996C143.778 264.943 144.828 262.582 145.033 260.336L127.699 253.322L128.976 251.201C128.976 251.201 120.515 250.483 118.303 256.55C118.303 256.55 102.189 263.255 75.0026 233.354C75.014 233.354 62.6751 243.835 58.0908 251.35Z" fill="url(#paint13_linear)"/>
<path d="M56.5514 251.246C56.4259 251.246 56.3119 251.212 56.1979 251.144C44.1555 243.002 38.4879 229.864 38.4308 229.739C38.294 229.42 38.4423 229.043 38.7616 228.906C39.0809 228.77 39.4572 228.918 39.594 229.237C39.6511 229.363 45.1819 242.169 56.9049 250.095C57.19 250.289 57.2698 250.688 57.076 250.973C56.9619 251.144 56.7567 251.246 56.5514 251.246Z" fill="url(#paint14_linear)"/>
<path d="M74.4437 233.092C74.2384 233.092 74.0332 232.989 73.9077 232.807C73.8735 232.75 70.2015 227.036 63.211 214.515C61.0786 210.706 58.2846 208.289 54.9091 207.342C49.2985 205.768 43.8931 208.779 43.8361 208.813C43.5282 208.984 43.1519 208.882 42.9808 208.574C42.8098 208.266 42.9124 207.889 43.2203 207.718C43.4598 207.582 49.1274 204.423 55.2512 206.122C58.9803 207.16 62.0251 209.782 64.3286 213.899C71.2963 226.375 74.9569 232.065 74.9911 232.122C75.185 232.419 75.0937 232.807 74.7972 233C74.6832 233.057 74.5692 233.092 74.4437 233.092Z" fill="url(#paint15_linear)"/>
<path d="M75.8467 165.787C75.8467 165.787 81.195 178.08 81.5599 184.523C81.9249 190.978 83.3047 195.163 75.8467 196.463C68.3886 197.763 62.1052 194.045 58.6955 187.625C58.6955 187.625 53.3585 177.727 54.5559 173.667C55.7533 169.607 75.8467 165.787 75.8467 165.787Z" fill="url(#paint16_linear)"/>
<path d="M61.2498 182.995L61.6718 182.813C62.2078 182.573 62.4472 181.935 62.1736 181.41C61.1244 179.38 59.0717 174.716 61.7174 173.633C65.1271 172.23 78.652 169.47 81.5713 164.681C84.3766 160.074 81.8906 154.121 78.1616 152.422C77.9107 152.308 77.6142 152.399 77.4888 152.639L77.1809 153.232C76.9642 153.631 76.3712 153.574 76.2458 153.14C76.1203 152.718 75.5615 152.639 75.3335 153.015C74.4326 154.452 72.015 156.778 65.5377 157.975C56.3348 159.675 50.2566 163.392 50.097 169.756C50.0856 170.155 49.6522 170.383 49.3101 170.177C48.6259 169.767 47.5426 169.573 46.0943 170.793C43.5626 172.914 44.6004 178.434 50.1426 182.961C50.4049 183.178 50.4049 183.588 50.1198 183.771C49.1163 184.421 47.6224 185.983 51.4996 188.059C55.5138 190.202 58.513 190.031 59.6647 189.837C59.9498 189.792 60.1323 189.507 60.0753 189.233L58.8437 183.645C58.7752 183.326 59.0147 183.029 59.334 183.029H61.2498V182.995Z" fill="url(#paint17_linear)"/>
<path d="M61.4778 184.182C61.4778 184.182 59.4365 176.336 55.9127 178.537C52.389 180.738 57.7373 187.329 60.5655 187.626L61.4778 184.182Z" fill="url(#paint18_linear)"/>
<path d="M140.951 254.44C140.951 254.44 138.362 247.609 135.329 248.236C132.295 248.863 128.988 251.19 128.988 251.19L124.119 257.77C124.119 257.77 137.78 263.152 142.581 260.062C142.581 260.062 156.539 262.468 174.158 259.583C171.604 254.2 170.087 248.806 169.198 244.621C160.268 249.684 150.655 253.459 140.951 254.44Z" fill="url(#paint19_linear)"/>
<path d="M214.858 204.924C214.858 204.924 194.879 230.08 169.186 244.632C170.076 248.817 171.604 254.211 174.147 259.593C187.478 257.404 202.896 252.192 215.976 240.595L214.858 204.924Z" fill="url(#paint20_linear)"/>
<path d="M237.449 316.737C237.449 316.737 237.403 284.875 218.872 251.975C213.079 241.689 211.015 229.704 212.828 218.038L214.858 204.935C214.858 204.935 240.277 196.337 268.456 204.57C268.456 204.57 307.525 236.82 281.41 319.303L237.449 316.737Z" fill="url(#paint21_linear)"/>
<path d="M219.191 188.194L225.783 204.034C226.205 205.038 227.094 205.745 228.166 205.927C231.964 206.577 241.155 207.592 247.199 203.624C247.917 203.156 248.1 202.175 247.609 201.468L235.43 183.986L219.191 188.194Z" fill="url(#paint22_linear)"/>
<path d="M235.442 262.626C234.53 262.866 234.085 263.88 234.518 264.713L253.585 301.285C253.905 301.901 254.623 302.208 255.284 302.015L317.663 284.008C318.438 283.78 318.883 282.97 318.666 282.195L307.924 244.996C307.707 244.232 306.909 243.787 306.145 243.992L235.442 262.626Z" fill="url(#paint23_linear)"/>
<path d="M239.467 258.327C238.578 258.544 238.065 259.49 238.384 260.345L253.654 301.809C253.927 302.562 254.748 302.973 255.512 302.756L317.708 284.795C318.484 284.567 318.951 283.791 318.78 283.005L310.159 243.091C309.977 242.248 309.144 241.723 308.312 241.928L239.467 258.327Z" fill="#BDD0FB"/>
<path d="M244.884 254.142C243.79 254.313 243.071 255.362 243.322 256.446L253.688 301.217C253.928 302.277 255.011 302.904 256.06 302.608L317.309 284.921C318.29 284.636 318.872 283.621 318.621 282.628L309.201 246.091C308.962 245.144 308.038 244.54 307.08 244.688L244.884 254.142Z" fill="url(#paint24_linear)"/>
<path d="M294.467 271.214C299.223 235.303 271.546 207.684 271.546 207.684L255.079 226.876C267.578 242.454 273.519 256.731 276.233 267.952C279.836 266.915 288.503 265.25 294.467 271.214Z" fill="url(#paint25_linear)"/>
<path d="M276.244 268.374C276.051 268.374 275.88 268.249 275.834 268.055C272.47 254.142 265.377 240.378 254.76 227.15C254.612 226.967 254.646 226.705 254.828 226.557C255.011 226.408 255.273 226.443 255.421 226.625C266.118 239.956 273.268 253.834 276.655 267.861C276.712 268.089 276.575 268.317 276.347 268.374C276.301 268.374 276.267 268.374 276.244 268.374Z" fill="url(#paint26_linear)"/>
<path d="M276.244 267.963C278.765 278.386 278.502 286.163 278.115 289.881C277.966 291.284 276.849 292.378 275.446 292.47C273.85 292.584 271.683 292.732 269.744 292.835C267.612 292.96 265.251 291.614 263.666 290.485C262.856 289.915 261.819 290.805 262.263 291.694C263.449 294.009 266.437 296.062 268.513 297.271C269.265 297.715 269.129 298.833 268.285 299.072L259.447 301.581C273.964 315.254 283.543 299.95 283.543 299.95C289.952 290.052 293.259 280.37 294.479 271.225C288.503 265.249 279.837 266.914 276.244 267.963Z" fill="url(#paint27_linear)"/>
<path d="M226 163.973C225.726 164.235 214.311 186.632 214.311 186.632L227.243 192.87L241.212 173.244C241.212 173.244 230.641 159.605 226 163.973Z" fill="url(#paint28_linear)"/>
<path d="M235.339 175.605L228.896 186.359C228.794 186.518 228.68 186.666 228.543 186.803C227.779 187.522 225.144 189.597 223.115 186.769C221.381 184.363 219.762 182.162 218.017 181.261C217.002 180.737 215.748 181.158 215.235 182.173C214.174 184.283 212.11 188.571 210.821 192.642C210.502 193.657 211.027 194.763 212.019 195.162C214.642 196.223 219.808 198.139 224.403 198.777C225.156 198.88 225.909 198.561 226.353 197.945C228.326 195.242 233.891 187.67 235.796 185.788C237.563 184.032 240.825 184.694 242.284 185.116C242.843 185.275 243.436 185.195 243.926 184.899C245.42 183.998 248.02 181.763 245.637 177.988C245.044 177.053 245.352 175.799 246.276 175.183C247.941 174.088 249.742 172.036 248.02 168.706C246.276 165.342 243.174 165.034 241.053 165.296C240.118 165.41 239.16 164.92 238.806 164.042C238.646 163.654 238.327 163.323 237.746 163.198C236.639 162.97 235.91 161.955 236.126 160.848C236.503 158.944 236.217 156.469 233.173 154.793C227.596 151.726 222.704 156.72 221.461 160.94C220.218 165.159 226.456 168.135 230.379 168.637C233.264 169.002 234.838 172.15 235.476 173.792C235.727 174.385 235.67 175.046 235.339 175.605Z" fill="url(#paint29_linear)"/>
<path d="M233.378 189.711C233.378 189.711 235.864 182.459 239.034 182.721C242.204 182.983 244.713 186.153 240.779 189.711C235.875 194.136 233.378 189.711 233.378 189.711Z" fill="url(#paint30_linear)"/>
<g opacity="0.3">
<path opacity="0.3" d="M95.29 82.1632C94.6286 82.2202 94.0128 81.7755 93.8873 81.1141C93.5908 79.6658 93.3628 78.1719 93.1917 76.7008C93.1119 75.9824 93.625 75.3324 94.3435 75.2526C94.3549 75.2526 94.3549 75.2526 94.3663 75.2526C95.0733 75.1841 95.7119 75.6973 95.7918 76.4043C95.9514 77.807 96.1795 79.2211 96.4532 80.6009C96.6014 81.3079 96.1339 82.0036 95.4268 82.1404C95.3812 82.1518 95.3356 82.1518 95.29 82.1632ZM94.2979 70.7823C94.2523 70.7823 94.1952 70.7937 94.1382 70.7823C93.4198 70.7709 92.8382 70.1665 92.861 69.4367C92.8952 67.9542 92.9978 66.4489 93.1575 64.9778C93.2373 64.2594 93.8759 63.7348 94.6058 63.8146C95.3242 63.8944 95.8488 64.5445 95.7689 65.2629C95.6207 66.6655 95.5181 68.091 95.4953 69.4937C95.4725 70.1779 94.9479 70.7253 94.2979 70.7823ZM95.8374 59.4698C95.6891 59.4812 95.5409 59.4698 95.3926 59.4356C94.6856 59.2531 94.2637 58.5461 94.4461 57.8391C94.811 56.4022 95.2444 54.9653 95.7233 53.5513C95.9628 52.867 96.7041 52.5021 97.3883 52.7416C98.0725 52.9811 98.4374 53.7223 98.1979 54.4065C97.7304 55.7408 97.3313 57.1092 96.9777 58.4777C96.8409 59.0365 96.3733 59.4242 95.8374 59.4698ZM99.8629 48.7845C99.6234 48.8073 99.3725 48.7617 99.1445 48.6477C98.4944 48.317 98.2436 47.5301 98.5743 46.8801C99.2471 45.5573 99.9883 44.2458 100.775 42.9914C101.163 42.3756 101.973 42.1931 102.577 42.5695C103.193 42.9572 103.375 43.7669 102.999 44.3713C102.246 45.5687 101.551 46.8117 100.901 48.0661C100.695 48.488 100.296 48.7389 99.8629 48.7845ZM106.169 39.2624C105.827 39.2966 105.485 39.194 105.2 38.9659C104.641 38.4983 104.573 37.6773 105.04 37.1185C105.987 35.9781 107.002 34.872 108.051 33.8114C108.564 33.2982 109.385 33.2982 109.91 33.8C110.423 34.3132 110.423 35.1342 109.921 35.6588C108.929 36.6623 107.96 37.7229 107.059 38.7948C106.819 39.0799 106.5 39.2282 106.169 39.2624ZM114.437 31.3824C114.003 31.428 113.559 31.2456 113.274 30.8693C112.84 30.2877 112.943 29.4666 113.525 29.0333C114.711 28.1324 115.942 27.2771 117.197 26.4788C117.812 26.0911 118.622 26.2735 119.01 26.8779C119.397 27.4937 119.215 28.3034 118.611 28.6911C117.425 29.4438 116.25 30.2649 115.121 31.1201C114.893 31.2684 114.665 31.3596 114.437 31.3824ZM161.956 23.7419C161.774 23.7647 161.591 23.7419 161.409 23.6735C160.075 23.2173 158.706 22.8068 157.338 22.4647C156.631 22.2936 156.209 21.5752 156.38 20.8796C156.551 20.1726 157.269 19.7506 157.965 19.9217C159.402 20.2866 160.85 20.7085 162.253 21.1989C162.937 21.4384 163.302 22.1796 163.062 22.8638C162.903 23.3656 162.446 23.6963 161.956 23.7419ZM124.221 25.5209C123.685 25.5665 123.138 25.2814 122.91 24.7569C122.613 24.0954 122.898 23.32 123.56 23.0235C124.905 22.4077 126.308 21.8489 127.699 21.3471C128.384 21.1077 129.136 21.4612 129.376 22.1454C129.615 22.8296 129.262 23.5823 128.577 23.8217C127.255 24.2893 125.92 24.8253 124.643 25.4069C124.506 25.4753 124.369 25.5095 124.221 25.5209ZM150.803 21.2559C150.712 21.2673 150.632 21.2673 150.541 21.2559C149.138 21.1077 147.713 21.0164 146.299 20.9822C145.58 20.9708 144.999 20.3664 145.022 19.648C145.033 18.9295 145.637 18.348 146.356 18.3708C147.838 18.405 149.344 18.4962 150.815 18.6559C151.533 18.7357 152.058 19.3743 151.978 20.0927C151.921 20.7199 151.419 21.1989 150.803 21.2559ZM135.078 21.9971C134.416 22.0542 133.8 21.6208 133.675 20.948C133.527 20.241 133.994 19.5453 134.701 19.3971C136.15 19.1006 137.643 18.8611 139.114 18.6901C139.126 18.6901 139.137 18.6901 139.137 18.6901C139.844 18.6216 140.483 19.1348 140.563 19.8418C140.643 20.5603 140.129 21.2103 139.411 21.2901C138.008 21.4498 136.594 21.6778 135.214 21.9629C135.18 21.9857 135.123 21.9971 135.078 21.9971Z" fill="url(#paint31_linear)"/>
<path opacity="0.3" d="M170.349 27.5166C170.087 27.5394 169.824 27.4938 169.585 27.3569C168.992 27.0262 168.388 26.6955 167.783 26.3876C167.133 26.0569 166.882 25.27 167.213 24.62C167.544 23.97 168.33 23.7191 168.981 24.0498C169.619 24.3805 170.258 24.7227 170.874 25.0648C171.501 25.4183 171.729 26.2165 171.375 26.8552C171.147 27.2429 170.759 27.471 170.349 27.5166Z" fill="url(#paint32_linear)"/>
</g>
<g opacity="0.3">
<path opacity="0.3" d="M194.742 59.1736C194.115 59.2307 193.51 58.8315 193.351 58.1929C193.18 57.5429 192.997 56.8815 192.803 56.2315C192.598 55.5359 192.986 54.806 193.682 54.6008C194.377 54.3955 195.107 54.7832 195.312 55.4788C195.518 56.1631 195.711 56.8587 195.894 57.5543C196.076 58.2499 195.654 58.9684 194.959 59.1508C194.879 59.1508 194.81 59.1622 194.742 59.1736Z" fill="url(#paint33_linear)"/>
<path opacity="0.3" d="M150.199 122.828C149.594 122.885 148.99 122.931 148.386 122.965C147.667 123.011 147.04 122.463 146.994 121.734C146.949 121.004 147.508 120.388 148.226 120.342C149.629 120.263 151.02 120.114 152.388 119.92C153.107 119.818 153.768 120.308 153.871 121.027C153.974 121.745 153.483 122.406 152.765 122.509C151.909 122.646 151.054 122.749 150.199 122.828ZM141.464 122.908C141.395 122.92 141.315 122.92 141.236 122.908C139.776 122.794 138.305 122.623 136.868 122.395C136.149 122.281 135.67 121.608 135.785 120.89C135.899 120.171 136.571 119.681 137.29 119.806C138.658 120.023 140.05 120.194 141.441 120.297C142.159 120.354 142.707 120.981 142.65 121.699C142.593 122.349 142.091 122.851 141.464 122.908ZM159.493 121.061C158.877 121.118 158.284 120.73 158.113 120.114C157.908 119.419 158.318 118.689 159.014 118.495C160.348 118.107 161.682 117.662 162.971 117.172C163.644 116.91 164.408 117.252 164.659 117.925C164.921 118.598 164.579 119.362 163.906 119.613C162.538 120.137 161.135 120.605 159.732 121.004C159.664 121.038 159.573 121.049 159.493 121.061ZM130.413 120.844C130.242 120.856 130.071 120.844 129.912 120.787C128.509 120.365 127.118 119.863 125.761 119.327C125.088 119.054 124.757 118.301 125.031 117.628C125.305 116.955 126.057 116.625 126.73 116.898C128.019 117.412 129.341 117.879 130.676 118.29C131.371 118.506 131.759 119.236 131.542 119.92C131.383 120.445 130.927 120.799 130.413 120.844ZM169.882 116.773C169.38 116.819 168.867 116.568 168.604 116.1C168.251 115.462 168.49 114.663 169.118 114.321C170.326 113.66 171.535 112.93 172.687 112.154C173.291 111.755 174.101 111.915 174.5 112.519C174.899 113.124 174.74 113.933 174.135 114.333C172.915 115.142 171.649 115.906 170.372 116.613C170.224 116.705 170.053 116.762 169.882 116.773ZM179.073 110.319C178.674 110.353 178.252 110.204 177.967 109.885C177.488 109.338 177.545 108.517 178.081 108.038C179.119 107.114 180.134 106.145 181.092 105.141C181.593 104.617 182.426 104.605 182.95 105.107C183.475 105.609 183.486 106.441 182.985 106.966C181.97 108.015 180.909 109.041 179.814 110.011C179.598 110.182 179.335 110.296 179.073 110.319ZM186.634 102.005C186.326 102.039 186.007 101.96 185.744 101.766C185.163 101.344 185.026 100.523 185.459 99.9297C186.28 98.8007 187.056 97.6376 187.774 96.4516C188.151 95.8358 188.96 95.6305 189.576 96.0068C190.192 96.3831 190.397 97.1928 190.021 97.8086C189.268 99.0516 188.447 100.283 187.58 101.469C187.341 101.789 186.987 101.971 186.634 102.005ZM192.199 92.2436C191.982 92.2664 191.765 92.2322 191.56 92.141C190.899 91.8559 190.591 91.0804 190.876 90.419C191.423 89.1418 191.925 87.8303 192.37 86.5189C192.598 85.8347 193.339 85.4584 194.035 85.6978C194.719 85.9259 195.095 86.6672 194.856 87.3628C194.388 88.7426 193.864 90.1339 193.282 91.4681C193.088 91.9129 192.655 92.198 192.199 92.2436ZM195.495 81.5013C195.38 81.5127 195.255 81.5127 195.13 81.4785C194.423 81.3416 193.955 80.6574 194.08 79.9504C194.331 78.5933 194.537 77.2021 194.673 75.8222C194.742 75.1038 195.392 74.5792 196.11 74.6476C196.829 74.7161 197.353 75.3661 197.285 76.0845C197.137 77.5442 196.92 79.0039 196.658 80.4407C196.544 81.0223 196.065 81.4443 195.495 81.5013ZM196.338 70.2914C196.316 70.2914 196.281 70.2914 196.259 70.2914C195.54 70.3142 194.924 69.744 194.902 69.0256C194.867 67.9993 194.799 66.9729 194.708 65.958C194.673 65.5931 194.639 65.2282 194.594 64.8632C194.514 64.1448 195.027 63.4948 195.745 63.415C196.475 63.3123 197.114 63.8483 197.194 64.5667C197.239 64.9545 197.285 65.3308 197.319 65.7185C197.422 66.7905 197.49 67.8738 197.524 68.9458C197.547 69.6414 197.023 70.2344 196.338 70.2914Z" fill="url(#paint34_linear)"/>
<path opacity="0.3" d="M120.07 116.375C119.808 116.397 119.546 116.352 119.295 116.204C118.679 115.85 118.063 115.485 117.448 115.097C116.832 114.71 116.649 113.9 117.037 113.296C117.425 112.68 118.234 112.497 118.839 112.885C119.42 113.25 120.002 113.604 120.595 113.934C121.222 114.288 121.439 115.097 121.085 115.725C120.869 116.101 120.481 116.34 120.07 116.375Z" fill="url(#paint35_linear)"/>
</g>
<path d="M120.39 101.07C120.572 101.252 120.857 101.31 121.085 101.195L127.813 97.9682C130.756 99.827 134.028 101.218 137.507 102.062L139.89 109.121C139.97 109.372 140.209 109.532 140.472 109.543L149.412 109.6C149.674 109.6 149.902 109.44 149.994 109.189L152.468 102.165C155.958 101.367 159.242 100.009 162.218 98.1963L168.901 101.503C169.141 101.617 169.414 101.572 169.608 101.389L175.971 95.1059C176.154 94.9234 176.211 94.6383 176.097 94.4103L172.87 87.6821C174.728 84.7399 176.12 81.467 176.963 77.9889L184.022 75.6055C184.273 75.5257 184.433 75.2862 184.444 75.0239L184.501 66.0834C184.501 65.8211 184.342 65.593 184.091 65.5018L177.066 63.0272C176.268 59.5377 174.911 56.2534 173.098 53.277L176.405 46.5944C176.519 46.355 176.473 46.0813 176.291 45.8874L170.007 39.5241C169.825 39.3417 169.54 39.2847 169.312 39.3987L162.583 42.6259C159.641 40.7671 156.368 39.3759 152.89 38.532L150.507 31.4731C150.427 31.2222 150.188 31.0626 149.925 31.0512L140.985 30.9941C140.722 30.9941 140.494 31.1538 140.403 31.4047L137.929 38.4294C134.439 39.2276 131.155 40.5847 128.178 42.3979L121.496 39.0908C121.256 38.9767 120.983 39.0224 120.789 39.2048L114.425 45.4883C114.243 45.6707 114.186 45.9558 114.3 46.1839L117.527 52.9121C115.668 55.8543 114.277 59.1271 113.433 62.6053L106.374 65.0001C106.124 65.0799 105.964 65.3194 105.953 65.5816L105.896 74.5222C105.896 74.7845 106.055 75.0125 106.306 75.1038L113.331 77.5784C114.129 81.0679 115.486 84.3522 117.299 87.3285L113.992 94.0111C113.878 94.2506 113.924 94.5243 114.106 94.7182L120.39 101.07Z" fill="url(#paint36_linear)"/>
<path opacity="0.7" d="M146.037 79.2552C141.669 79.6658 137.541 76.8262 136.469 72.4472C135.283 67.6348 138.237 62.754 143.06 61.5681C145.398 60.9979 147.804 61.3628 149.857 62.6058C151.91 63.8488 153.358 65.8216 153.928 68.148C155.114 72.9604 152.161 77.8412 147.337 79.0272C146.915 79.1412 146.47 79.2096 146.037 79.2552ZM144.566 63.4383C144.224 63.4725 143.893 63.5295 143.562 63.6093C139.867 64.5102 137.609 68.2621 138.51 71.9455C139.411 75.6403 143.152 77.8982 146.846 76.9973C150.541 76.0964 152.799 72.356 151.898 68.6612C151.454 66.8708 150.347 65.3655 148.774 64.4076C147.485 63.6321 146.025 63.3014 144.566 63.4383Z" fill="white"/>
<path opacity="0.7" d="M147.451 92.1638C146.698 92.2322 145.945 92.2664 145.181 92.2664C144.942 92.2664 144.702 92.255 144.463 92.255C143.277 92.2094 142.102 92.0725 140.95 91.8331C140.939 91.8331 140.916 91.8217 140.905 91.8217C140.859 91.8103 140.814 91.7989 140.768 91.7989C140.677 91.776 140.597 91.7646 140.506 91.7418C140.278 91.6962 140.118 91.5024 140.095 91.2857C140.095 91.2287 140.095 91.1716 140.107 91.126C140.175 90.8409 140.449 90.6699 140.734 90.7269C142.193 91.0462 143.687 91.2173 145.193 91.2287C152.651 91.2743 159.242 87.4198 163.028 81.5697C165.126 78.3197 166.358 74.4538 166.392 70.3028C166.392 69.573 166.369 68.8546 166.301 68.1361C165.845 63.3238 163.769 58.8535 160.325 55.3754C156.38 51.3727 151.1 49.149 145.478 49.1147C133.857 49.0463 124.358 58.4202 124.29 70.0292C124.29 70.7476 124.312 71.4546 124.381 72.1617C124.677 75.2293 125.635 78.2056 127.198 80.8513C127.243 80.9197 127.266 80.9995 127.266 81.068C127.289 81.2618 127.186 81.4671 127.015 81.5697C126.764 81.718 126.445 81.6381 126.297 81.3873C124.654 78.5933 123.64 75.4801 123.332 72.2643C123.263 71.523 123.229 70.7704 123.229 70.0178C123.309 57.8272 133.287 47.9744 145.478 48.0542C151.385 48.0884 156.916 50.4262 161.067 54.6341C164.682 58.2947 166.86 62.9817 167.339 68.0335C167.407 68.7861 167.441 69.5388 167.441 70.3028C167.407 76.21 165.069 81.7408 160.861 85.8917C157.189 89.5067 152.502 91.6848 147.451 92.1638Z" fill="white"/>
<g opacity="0.3">
<path opacity="0.3" d="M54.0196 120.765C53.6661 120.8 53.324 120.606 53.1872 120.264C52.9363 119.625 52.6968 118.975 52.4801 118.314C52.3433 117.892 52.5714 117.435 52.9933 117.287C53.4152 117.139 53.8714 117.378 54.0196 117.8C54.2249 118.428 54.453 119.043 54.6925 119.659C54.8635 120.07 54.6583 120.549 54.2363 120.708C54.1679 120.743 54.0995 120.765 54.0196 120.765Z" fill="url(#paint37_linear)"/>
<path opacity="0.3" d="M52.2523 114.801C51.8418 114.835 51.4654 114.561 51.3856 114.151C51.1575 112.987 50.9865 111.801 50.8724 110.627C50.8496 110.376 50.8268 110.125 50.804 109.886C50.7698 109.441 51.1347 109.064 51.5567 109.019C52.0014 108.985 52.3891 109.327 52.4233 109.772C52.4462 110.011 52.4576 110.25 52.4804 110.49C52.583 111.608 52.7541 112.748 52.9707 113.854C53.062 114.287 52.7769 114.721 52.3321 114.801C52.3093 114.789 52.2751 114.789 52.2523 114.801ZM51.6365 106.407C51.6023 106.407 51.5567 106.407 51.5224 106.407C51.0777 106.385 50.7356 106.008 50.7584 105.564C50.8268 104.127 50.9865 102.69 51.226 101.276C51.3058 100.831 51.7277 100.546 52.1611 100.614C52.6058 100.694 52.9023 101.105 52.8225 101.549C52.5944 102.895 52.4347 104.264 52.3777 105.632C52.3435 106.054 52.0242 106.373 51.6365 106.407ZM53.0734 98.1283C52.9707 98.1397 52.8681 98.1283 52.7655 98.0941C52.3321 97.9687 52.0926 97.5125 52.2295 97.0792C52.6514 95.7108 53.1532 94.3537 53.7462 93.0423C53.9286 92.6318 54.4076 92.4493 54.8181 92.6318C55.2287 92.8142 55.4111 93.2932 55.2287 93.7037C54.6699 94.9581 54.1909 96.2467 53.7918 97.5582C53.6664 97.8775 53.3813 98.0941 53.0734 98.1283ZM56.4945 90.4536C56.3234 90.465 56.1524 90.4308 56.0041 90.3396C55.6164 90.1115 55.5024 89.6098 55.7304 89.222C56.4717 87.9904 57.2927 86.8045 58.1822 85.6755C58.4559 85.322 58.9691 85.2649 59.3226 85.5386C59.6761 85.8123 59.7331 86.3255 59.4594 86.679C58.6156 87.751 57.8287 88.8913 57.1217 90.0545C56.9734 90.294 56.7454 90.4308 56.4945 90.4536ZM61.6946 83.8509C61.4665 83.8737 61.2156 83.7939 61.0446 83.6114C60.7253 83.2921 60.7367 82.7789 61.0446 82.471C62.0595 81.4675 63.1543 80.5096 64.2832 79.6315C64.6367 79.3578 65.1499 79.4262 65.4236 79.7798C65.6973 80.1333 65.6289 80.6464 65.2753 80.9201C64.192 81.7526 63.1543 82.6649 62.1849 83.6342C62.0481 83.7483 61.877 83.8281 61.6946 83.8509ZM68.3429 78.7078C68.0465 78.742 67.7386 78.5938 67.5675 78.3201C67.3394 77.9324 67.4649 77.442 67.8526 77.2139C69.0842 76.4841 70.3728 75.8227 71.6842 75.2525C72.0948 75.07 72.5737 75.2639 72.7448 75.6744C72.9273 76.085 72.7334 76.5639 72.3229 76.735C71.0684 77.2824 69.8482 77.9096 68.6737 78.6052C68.571 78.6622 68.457 78.6964 68.3429 78.7078ZM76.0405 75.3437C75.6641 75.3779 75.2992 75.1499 75.1852 74.7621C75.0597 74.3288 75.2992 73.884 75.7326 73.7586C77.101 73.3481 78.5151 73.0288 79.9291 72.7893C80.3739 72.7209 80.7844 73.0174 80.8642 73.4507C80.9327 73.8954 80.6362 74.306 80.2028 74.3858C78.8458 74.6139 77.5001 74.9218 76.2001 75.3095C76.1431 75.3323 76.0861 75.3323 76.0405 75.3437ZM88.539 74.0551C88.4933 74.0551 88.4477 74.0551 88.3907 74.0551C87.2161 73.9639 86.0073 73.9297 84.8213 73.9525C84.6389 73.9525 84.4678 73.9639 84.2854 73.9753C83.8406 73.9981 83.4643 73.6446 83.4415 73.1998C83.4187 72.7551 83.7722 72.3674 84.2169 72.356C84.4108 72.3445 84.5933 72.3445 84.7871 72.3331C86.0301 72.2989 87.2959 72.3331 88.5275 72.4358C88.9723 72.47 89.303 72.8577 89.2688 73.3139C89.2346 73.713 88.9267 74.0209 88.539 74.0551Z" fill="url(#paint38_linear)"/>
</g>
<g opacity="0.3">
<path opacity="0.3" d="M89.4399 142.055C88.9951 142.101 88.6074 141.782 88.5618 141.337C88.5162 140.892 88.8355 140.493 89.2802 140.447C90.6145 140.299 91.9601 140.071 93.2601 139.775C93.6935 139.683 94.1268 139.946 94.2295 140.379C94.3321 140.812 94.0584 141.246 93.6251 141.348C92.268 141.668 90.8539 141.907 89.4399 142.055C89.4513 142.055 89.4513 142.055 89.4399 142.055ZM85.3117 142.249C85.2775 142.249 85.2547 142.249 85.2205 142.249C83.8064 142.226 82.3924 142.124 80.9897 141.941C80.545 141.884 80.2371 141.474 80.2941 141.029C80.3511 140.584 80.7616 140.276 81.2064 140.333C82.5406 140.516 83.8977 140.607 85.2433 140.63C85.6881 140.63 86.053 141.006 86.0416 141.451C86.0302 141.873 85.7109 142.215 85.3117 142.249ZM97.4909 140.185C97.1374 140.219 96.7839 140.014 96.6584 139.661C96.5102 139.239 96.7155 138.771 97.1374 138.623C98.4032 138.155 99.6462 137.619 100.844 137.004C101.243 136.798 101.733 136.958 101.938 137.357C102.144 137.756 101.984 138.247 101.585 138.452C100.33 139.09 99.0304 139.661 97.6962 140.151C97.6278 140.162 97.5593 140.174 97.4909 140.185ZM77.1125 141.154C77.0212 141.166 76.93 141.154 76.8274 141.132C75.4589 140.778 74.1019 140.333 72.8018 139.809C72.3913 139.649 72.186 139.17 72.3457 138.76C72.5053 138.349 72.9843 138.144 73.3948 138.304C74.6492 138.794 75.9379 139.227 77.2379 139.558C77.6712 139.672 77.9335 140.117 77.8195 140.55C77.7283 140.892 77.4432 141.12 77.1125 141.154ZM104.858 136.411C104.573 136.433 104.276 136.308 104.105 136.057C103.854 135.681 103.957 135.179 104.322 134.928C105.439 134.175 106.511 133.343 107.526 132.465C107.868 132.168 108.37 132.203 108.667 132.545C108.963 132.887 108.929 133.389 108.587 133.685C107.526 134.609 106.397 135.475 105.223 136.262C105.109 136.354 104.983 136.399 104.858 136.411ZM111.096 130.994C110.879 131.017 110.651 130.948 110.48 130.789C110.149 130.492 110.126 129.979 110.423 129.648C111.324 128.645 112.179 127.584 112.943 126.489C113.205 126.124 113.707 126.033 114.072 126.295C114.437 126.558 114.528 127.06 114.266 127.424C113.456 128.576 112.567 129.694 111.62 130.731C111.483 130.891 111.289 130.971 111.096 130.994ZM115.862 124.231C115.714 124.243 115.554 124.22 115.406 124.14C115.007 123.923 114.859 123.433 115.075 123.045C115.714 121.859 116.284 120.628 116.775 119.373C116.934 118.963 117.402 118.746 117.824 118.917C118.246 119.077 118.451 119.544 118.28 119.966C117.767 121.278 117.174 122.578 116.501 123.821C116.364 124.06 116.113 124.209 115.862 124.231Z" fill="url(#paint39_linear)"/>
<path opacity="0.3" d="M69.3923 138.088C69.2326 138.099 69.073 138.076 68.9247 137.996C68.3203 137.666 67.7159 137.312 67.1343 136.947C66.758 136.708 66.644 136.206 66.8721 135.83C67.1115 135.453 67.6133 135.339 67.9896 135.567C68.537 135.909 69.1186 136.252 69.6888 136.571C70.0765 136.788 70.2247 137.278 70.0081 137.666C69.894 137.917 69.6432 138.065 69.3923 138.088Z" fill="url(#paint40_linear)"/>
</g>
<path d="M69.0727 127.607C69.1982 127.732 69.3806 127.767 69.5403 127.687L74.0448 125.532C76.0176 126.775 78.1957 127.71 80.5335 128.268L82.13 132.99C82.187 133.161 82.3353 133.263 82.5177 133.263L88.5047 133.297C88.6757 133.297 88.8354 133.183 88.8924 133.024L90.546 128.325C92.8837 127.789 95.0846 126.889 97.0689 125.668L101.539 127.881C101.699 127.961 101.881 127.926 102.007 127.801L106.26 123.593C106.386 123.467 106.42 123.285 106.34 123.125L104.185 118.621C105.428 116.648 106.363 114.47 106.922 112.132L111.643 110.536C111.814 110.479 111.917 110.33 111.917 110.148L111.951 104.161C111.951 103.99 111.837 103.83 111.677 103.773L106.979 102.12C106.443 99.7819 105.542 97.581 104.322 95.5967L106.534 91.1265C106.614 90.9668 106.58 90.7843 106.454 90.6589L102.246 86.4053C102.121 86.2799 101.938 86.2457 101.779 86.3255L97.2742 88.4808C95.3013 87.2378 93.1232 86.3027 90.7854 85.7439L89.1889 81.0227C89.1319 80.8517 88.9836 80.7491 88.8012 80.7491L82.8142 80.7148C82.6432 80.7148 82.4835 80.8289 82.4265 80.9885L80.773 85.6869C78.4352 86.2229 76.2343 87.1237 74.25 88.3439L69.7798 86.1316C69.6201 86.0518 69.4377 86.086 69.3122 86.2114L65.0586 90.4194C64.9332 90.5449 64.899 90.7273 64.9788 90.887L67.1341 95.3915C65.8911 97.3643 64.956 99.5424 64.3972 101.88L59.6761 103.477C59.505 103.534 59.4024 103.682 59.4024 103.864L59.3682 109.851C59.3682 110.022 59.4822 110.182 59.6419 110.239L64.3402 111.893C64.8762 114.23 65.7771 116.431 66.9973 118.416L64.7849 122.886C64.7051 123.046 64.7393 123.228 64.8648 123.353L69.0727 127.607Z" fill="url(#paint41_linear)"/>
<path opacity="0.7" d="M86.2352 113.125C84.9352 113.25 83.6352 112.954 82.4948 112.269C81.0921 111.426 80.1114 110.08 79.7237 108.495C78.914 105.222 80.9325 101.892 84.2054 101.082C87.4896 100.284 90.8081 102.291 91.6178 105.564C92.0055 107.149 91.7546 108.803 90.9107 110.194C90.0669 111.597 88.7212 112.577 87.1361 112.965C86.8282 113.045 86.5317 113.091 86.2352 113.125ZM85.2431 102.542C85.0264 102.565 84.8097 102.599 84.5931 102.656C82.1755 103.249 80.7044 105.689 81.2974 108.107C81.5825 109.27 82.3123 110.262 83.3387 110.89C84.365 111.517 85.5738 111.699 86.7484 111.414C87.9116 111.129 88.9037 110.399 89.5309 109.373C90.1581 108.347 90.3406 107.138 90.0555 105.963C89.5081 103.751 87.4326 102.325 85.2431 102.542Z" fill="white"/>
<path opacity="0.7" d="M87.2048 122.111C86.6917 122.157 86.1785 122.179 85.6539 122.179C84.6162 122.168 83.5784 122.065 82.5635 121.849C82.5179 121.837 82.4723 121.826 82.4267 121.815C82.0731 121.735 81.8337 121.438 81.7995 121.096C81.7881 121.016 81.7995 120.925 81.8109 120.845C81.9021 120.412 82.3354 120.138 82.7802 120.229C83.7267 120.435 84.696 120.549 85.6653 120.549C85.7223 120.549 85.768 120.549 85.825 120.549C88.1171 120.537 90.3294 119.967 92.2909 118.884C93.3514 118.302 94.3436 117.572 95.2444 116.706C95.2559 116.694 95.2559 116.694 95.2673 116.683C95.2901 116.66 95.3129 116.637 95.3357 116.614C97.9243 114.06 99.3726 110.639 99.3954 107.001C99.3954 106.534 99.3726 106.066 99.3384 105.598C99.0419 102.485 97.6963 99.5886 95.4725 97.3307C92.9181 94.742 89.497 93.3052 85.8592 93.2709C82.2214 93.2481 78.7889 94.6394 76.1888 97.2052C73.6002 99.7597 72.1519 103.181 72.1291 106.819C72.1291 107.286 72.1519 107.742 72.1861 108.198C72.38 110.183 72.9958 112.11 74.0107 113.832C74.0677 113.935 74.1133 114.049 74.1247 114.163C74.159 114.471 74.0107 114.767 73.7256 114.938C73.3379 115.166 72.8475 115.041 72.6195 114.653C71.4791 112.726 70.7835 110.582 70.5782 108.358C70.5326 107.845 70.5098 107.332 70.5098 106.807C70.5326 102.736 72.1519 98.9158 75.0484 96.0535C77.945 93.1911 81.7881 91.6288 85.8592 91.6516C89.9303 91.6744 93.7506 93.2938 96.6129 96.1903C99.1103 98.7105 100.616 101.949 100.946 105.439C100.992 105.952 101.015 106.476 101.015 107.001C100.946 114.915 94.8909 121.381 87.2048 122.111Z" fill="white"/>
<path d="M302.222 72.2424L250.575 88.8462C249.754 89.1085 248.875 88.6637 248.613 87.8427L246.344 80.7724C246.082 79.9513 246.526 79.0732 247.347 78.8109L298.995 62.2071C299.816 61.9448 300.694 62.3895 300.956 63.2106L303.225 70.2809C303.499 71.102 303.043 71.9801 302.222 72.2424Z" fill="#7D97F4"/>
<path d="M318.917 90.0207L259.846 109.019C259.025 109.282 258.146 108.837 257.884 108.016L255.615 100.945C255.353 100.124 255.797 99.2463 256.618 98.984L315.69 79.9854C316.511 79.7231 317.389 80.1679 317.651 80.9889L319.92 88.0592C320.194 88.8803 319.738 89.7584 318.917 90.0207Z" fill="#7D97F4"/>
<path d="M315.371 114.721L261.625 132.009C260.804 132.271 259.926 131.826 259.663 131.005L257.394 123.935C257.132 123.114 257.577 122.236 258.398 121.974L312.143 104.686C312.965 104.423 313.843 104.868 314.105 105.689L316.374 112.759C316.648 113.58 316.192 114.459 315.371 114.721Z" fill="#7D97F4"/>
</g>
<defs>
<linearGradient id="paint0_linear" x1="358.662" y1="412.993" x2="74.9212" y2="60.604" gradientUnits="userSpaceOnUse">
<stop stop-color="#DAE3FE"/>
<stop offset="1" stop-color="#E9EFFD"/>
</linearGradient>
<linearGradient id="paint1_linear" x1="49.9667" y1="302.554" x2="88.1481" y2="204.809" gradientUnits="userSpaceOnUse">
<stop stop-color="#09005D"/>
<stop offset="1" stop-color="#1A0F91"/>
</linearGradient>
<linearGradient id="paint2_linear" x1="50.9357" y1="115.915" x2="249.109" y2="115.915" gradientUnits="userSpaceOnUse">
<stop stop-color="#4F52FF"/>
<stop offset="1" stop-color="#4042E2"/>
</linearGradient>
<linearGradient id="paint3_linear" x1="206.91" y1="110.75" x2="253.458" y2="110.75" gradientUnits="userSpaceOnUse">
<stop stop-color="#4F52FF"/>
<stop offset="1" stop-color="#4042E2"/>
</linearGradient>
<linearGradient id="paint4_linear" x1="265.588" y1="98.0646" x2="147.506" y2="137.918" gradientUnits="userSpaceOnUse">
<stop stop-color="#09005D"/>
<stop offset="1" stop-color="#1A0F91"/>
</linearGradient>
<linearGradient id="paint5_linear" x1="50.039" y1="203.143" x2="15.01" y2="92.996" gradientUnits="userSpaceOnUse">
<stop stop-color="#09005D"/>
<stop offset="1" stop-color="#1A0F91"/>
</linearGradient>
<linearGradient id="paint6_linear" x1="58.0171" y1="182.003" x2="-23.7616" y2="490.603" gradientUnits="userSpaceOnUse">
<stop stop-color="#CB236D"/>
<stop offset="1" stop-color="#4C246D"/>
</linearGradient>
<linearGradient id="paint7_linear" x1="154.018" y1="195.096" x2="142.441" y2="207.188" gradientUnits="userSpaceOnUse">
<stop stop-color="#FEBBBA"/>
<stop offset="1" stop-color="#FF928E"/>
</linearGradient>
<linearGradient id="paint8_linear" x1="88.7276" y1="208.031" x2="62.5162" y2="234.777" gradientUnits="userSpaceOnUse">
<stop stop-color="#E1473D"/>
<stop offset="1" stop-color="#E9605A"/>
</linearGradient>
<linearGradient id="paint9_linear" x1="155.168" y1="204.89" x2="76.667" y2="243.94" gradientUnits="userSpaceOnUse">
<stop stop-color="#FEBBBA"/>
<stop offset="1" stop-color="#FF928E"/>
</linearGradient>
<linearGradient id="paint10_linear" x1="155.541" y1="204.427" x2="77.0406" y2="243.476" gradientUnits="userSpaceOnUse">
<stop stop-color="#FEBBBA"/>
<stop offset="1" stop-color="#FF928E"/>
</linearGradient>
<linearGradient id="paint11_linear" x1="16.9971" y1="349.745" x2="51.1345" y2="215.509" gradientUnits="userSpaceOnUse">
<stop stop-color="#FF928E"/>
<stop offset="1" stop-color="#FE7062"/>
</linearGradient>
<linearGradient id="paint12_linear" x1="53.7889" y1="217.084" x2="64.22" y2="188.599" gradientUnits="userSpaceOnUse">
<stop stop-color="#FEBBBA"/>
<stop offset="1" stop-color="#FF928E"/>
</linearGradient>
<linearGradient id="paint13_linear" x1="104.167" y1="253.949" x2="67.7917" y2="280.696" gradientUnits="userSpaceOnUse">
<stop stop-color="#FEBBBA"/>
<stop offset="1" stop-color="#FF928E"/>
</linearGradient>
<linearGradient id="paint14_linear" x1="38.3828" y1="240.047" x2="57.1882" y2="240.047" gradientUnits="userSpaceOnUse">
<stop stop-color="#E1473D"/>
<stop offset="1" stop-color="#E9605A"/>
</linearGradient>
<linearGradient id="paint15_linear" x1="42.8921" y1="219.349" x2="75.0792" y2="219.349" gradientUnits="userSpaceOnUse">
<stop stop-color="#E1473D"/>
<stop offset="1" stop-color="#E9605A"/>
</linearGradient>
<linearGradient id="paint16_linear" x1="76.9657" y1="176.601" x2="46.3797" y2="200.004" gradientUnits="userSpaceOnUse">
<stop stop-color="#FEBBBA"/>
<stop offset="1" stop-color="#FF928E"/>
</linearGradient>
<linearGradient id="paint17_linear" x1="107.145" y1="79.9761" x2="47.6858" y2="200.039" gradientUnits="userSpaceOnUse">
<stop stop-color="#E1473D"/>
<stop offset="1" stop-color="#E9605A"/>
</linearGradient>
<linearGradient id="paint18_linear" x1="73.1716" y1="171.644" x2="42.5854" y2="195.047" gradientUnits="userSpaceOnUse">
<stop stop-color="#FEBBBA"/>
<stop offset="1" stop-color="#FF928E"/>
</linearGradient>
<linearGradient id="paint19_linear" x1="124.115" y1="252.83" x2="174.154" y2="252.83" gradientUnits="userSpaceOnUse">
<stop stop-color="#FEBBBA"/>
<stop offset="1" stop-color="#FF928E"/>
</linearGradient>
<linearGradient id="paint20_linear" x1="191.584" y1="213.54" x2="194.526" y2="288.697" gradientUnits="userSpaceOnUse">
<stop stop-color="#4F52FF"/>
<stop offset="1" stop-color="#4042E2"/>
</linearGradient>
<linearGradient id="paint21_linear" x1="214.914" y1="240.398" x2="326.446" y2="299.774" gradientUnits="userSpaceOnUse">
<stop stop-color="#4F52FF"/>
<stop offset="1" stop-color="#4042E2"/>
</linearGradient>
<linearGradient id="paint22_linear" x1="236.076" y1="202.78" x2="228.052" y2="178.709" gradientUnits="userSpaceOnUse">
<stop stop-color="#FEBBBA"/>
<stop offset="1" stop-color="#FF928E"/>
</linearGradient>
<linearGradient id="paint23_linear" x1="234.353" y1="273.001" x2="318.736" y2="273.001" gradientUnits="userSpaceOnUse">
<stop stop-color="#FF928E"/>
<stop offset="1" stop-color="#FE7062"/>
</linearGradient>
<linearGradient id="paint24_linear" x1="327.099" y1="173.272" x2="294.119" y2="242.126" gradientUnits="userSpaceOnUse">
<stop stop-color="#FF928E"/>
<stop offset="1" stop-color="#FE7062"/>
</linearGradient>
<linearGradient id="paint25_linear" x1="229.007" y1="213.926" x2="340.539" y2="273.303" gradientUnits="userSpaceOnUse">
<stop stop-color="#4F52FF"/>
<stop offset="1" stop-color="#4042E2"/>
</linearGradient>
<linearGradient id="paint26_linear" x1="275.735" y1="113.102" x2="272.264" y2="159.39" gradientUnits="userSpaceOnUse">
<stop stop-color="#4F52FF"/>
<stop offset="1" stop-color="#4042E2"/>
</linearGradient>
<linearGradient id="paint27_linear" x1="284.792" y1="272.896" x2="258.715" y2="323.046" gradientUnits="userSpaceOnUse">
<stop stop-color="#FEBBBA"/>
<stop offset="1" stop-color="#FF928E"/>
</linearGradient>
<linearGradient id="paint28_linear" x1="229.761" y1="168.203" x2="221.749" y2="215.352" gradientUnits="userSpaceOnUse">
<stop stop-color="#FEBBBA"/>
<stop offset="1" stop-color="#FF928E"/>
</linearGradient>
<linearGradient id="paint29_linear" x1="238.187" y1="190.52" x2="214.574" y2="165.436" gradientUnits="userSpaceOnUse">
<stop stop-color="#09005D"/>
<stop offset="1" stop-color="#1A0F91"/>
</linearGradient>
<linearGradient id="paint30_linear" x1="236.713" y1="219.667" x2="238.139" y2="186.558" gradientUnits="userSpaceOnUse">
<stop stop-color="#FEBBBA"/>
<stop offset="1" stop-color="#FF928E"/>
</linearGradient>
<linearGradient id="paint31_linear" x1="92.8627" y1="50.2648" x2="163.143" y2="50.2648" gradientUnits="userSpaceOnUse">
<stop stop-color="#FF928E"/>
<stop offset="1" stop-color="#FE7062"/>
</linearGradient>
<linearGradient id="paint32_linear" x1="167.069" y1="25.7143" x2="171.537" y2="25.7143" gradientUnits="userSpaceOnUse">
<stop stop-color="#FF928E"/>
<stop offset="1" stop-color="#FE7062"/>
</linearGradient>
<linearGradient id="paint33_linear" x1="192.738" y1="56.8584" x2="195.928" y2="56.8584" gradientUnits="userSpaceOnUse">
<stop stop-color="#FF928E"/>
<stop offset="1" stop-color="#FE7062"/>
</linearGradient>
<linearGradient id="paint34_linear" x1="124.936" y1="93.184" x2="197.528" y2="93.184" gradientUnits="userSpaceOnUse">
<stop stop-color="#FF928E"/>
<stop offset="1" stop-color="#FE7062"/>
</linearGradient>
<linearGradient id="paint35_linear" x1="116.835" y1="114.534" x2="121.255" y2="114.534" gradientUnits="userSpaceOnUse">
<stop stop-color="#FF928E"/>
<stop offset="1" stop-color="#FE7062"/>
</linearGradient>
<linearGradient id="paint36_linear" x1="143.729" y1="143.323" x2="147.201" y2="-29.1263" gradientUnits="userSpaceOnUse">
<stop stop-color="#FF928E"/>
<stop offset="1" stop-color="#FE7062"/>
</linearGradient>
<linearGradient id="paint37_linear" x1="52.4393" y1="119.011" x2="54.7529" y2="119.011" gradientUnits="userSpaceOnUse">
<stop stop-color="#FF928E"/>
<stop offset="1" stop-color="#FE7062"/>
</linearGradient>
<linearGradient id="paint38_linear" x1="50.747" y1="93.5627" x2="89.2738" y2="93.5627" gradientUnits="userSpaceOnUse">
<stop stop-color="#FF928E"/>
<stop offset="1" stop-color="#FE7062"/>
</linearGradient>
<linearGradient id="paint39_linear" x1="72.2864" y1="130.555" x2="118.327" y2="130.555" gradientUnits="userSpaceOnUse">
<stop stop-color="#FF928E"/>
<stop offset="1" stop-color="#FE7062"/>
</linearGradient>
<linearGradient id="paint40_linear" x1="66.7574" y1="136.77" x2="70.122" y2="136.77" gradientUnits="userSpaceOnUse">
<stop stop-color="#FF928E"/>
<stop offset="1" stop-color="#FE7062"/>
</linearGradient>
<linearGradient id="paint41_linear" x1="83.9844" y1="138.705" x2="89.7714" y2="29.911" gradientUnits="userSpaceOnUse">
<stop stop-color="#FF928E"/>
<stop offset="1" stop-color="#FE7062"/>
</linearGradient>
<clipPath id="clip0">
<rect width="320" height="319.304" fill="white"/>
</clipPath>
</defs>
</svg>
