<svg width="322" height="315" viewBox="0 0 322 315" fill="none" xmlns="http://www.w3.org/2000/svg">
<path d="M121.917 193.087C121.917 191.264 120.438 189.785 118.615 189.785H92.5441C90.7212 189.785 89.2422 191.264 89.2422 193.087V305.115C89.2422 306.938 90.7212 308.416 92.5441 308.416H118.615C120.438 308.416 121.917 306.938 121.917 305.115V193.087Z" fill="#91B3FA"/>
<path d="M201.977 175.604H175.974C174.152 175.604 172.638 177.358 172.638 179.398V304.495C172.638 306.536 174.152 308.416 175.974 308.416H201.977C203.8 308.416 205.737 306.536 205.737 304.495V179.398C205.737 177.358 203.8 175.604 201.977 175.604Z" fill="#91B3FA"/>
<path d="M162.756 156.126C162.756 154.303 161.277 152.824 159.454 152.824H133.382C131.56 152.824 130.081 154.303 130.081 156.126V305.126C130.081 306.949 131.56 308.428 133.382 308.428H159.454C161.277 308.428 162.756 306.949 162.756 305.126V156.126Z" fill="#91B3FA"/>
<path d="M304.174 103.254C304.174 101.431 302.695 99.9521 300.873 99.9521H274.801C272.978 99.9521 271.5 101.431 271.5 103.254V305.115C271.5 306.938 272.978 308.417 274.801 308.417H300.873C302.695 308.417 304.174 306.938 304.174 305.115V103.254Z" fill="#91B3FA"/>
<path d="M255.598 132.052C255.598 130.229 254.119 128.75 252.296 128.75H226.225C224.402 128.75 222.923 130.229 222.923 132.052V305.115C222.923 306.938 224.402 308.417 226.225 308.417H252.296C254.119 308.417 255.598 306.938 255.598 305.115V132.052Z" fill="#91B3FA"/>
<path d="M203.33 285.237L263.853 169.289H251.448C249.166 169.289 247.905 166.629 249.35 164.864L313.863 86.2423C316.66 82.8375 322.186 84.9927 321.923 89.395L317.383 166.274C317.119 170.676 313.221 173.955 308.841 173.45L300.197 172.464L240.143 302.514C238.584 305.896 235.191 308.063 231.464 308.063H210.656L203.33 285.237Z" fill="url(#paint0_linear)"/>
<path d="M153.286 203.911L196.015 298.823C198.549 304.44 204.144 308.063 210.301 308.063H232.325C235.248 308.063 237.942 306.481 239.353 303.924L240.132 302.514C237.771 302.514 235.604 301.184 234.526 299.075L177.591 187.528L153.286 203.911Z" fill="url(#paint1_linear)"/>
<path d="M183.358 198.798C179.07 195.416 172.81 196.414 169.784 200.954L106.956 295.338C101.923 302.893 93.4504 307.445 84.3587 307.445H75.5193L68.3193 286.717C68.3193 286.717 126.721 197.171 141.775 183.62C141.775 183.62 156.771 170.115 171.549 180.33C175.459 183.024 178.417 186.876 180.228 191.266L183.358 198.798Z" fill="url(#paint2_linear)"/>
<path d="M0 230.976C0 230.976 10.5133 217.827 30.8979 215.786C30.8979 215.786 40.5743 219.088 59.8582 253.629C79.1422 288.182 91.937 303.934 106.956 295.325L105.718 297.388C101.625 304.186 94.253 308.348 86.3192 308.348H78.0072C68.8582 308.348 60.271 303.946 54.9398 296.528C39.9323 275.686 9.21778 234.221 0 230.976Z" fill="url(#paint3_linear)"/>
<path opacity="0.72" d="M314.643 113.758C314.62 113.758 314.597 113.758 314.574 113.758C314.219 113.723 313.967 113.391 314.001 113.035L314.425 109.286C314.471 108.931 314.792 108.667 315.148 108.713C315.503 108.759 315.755 109.08 315.721 109.435L315.297 113.184C315.251 113.517 314.976 113.758 314.643 113.758Z" fill="white"/>
<path opacity="0.72" d="M260.792 161.138C260.655 161.138 260.517 161.092 260.391 161C260.104 160.782 260.058 160.37 260.276 160.095L313.542 90.8854C314.173 90.0599 315.25 89.7733 316.214 90.1631C317.177 90.5529 317.738 91.5044 317.624 92.5362L316.684 100.836C316.638 101.192 316.317 101.444 315.961 101.409C315.606 101.375 315.354 101.043 315.388 100.687L316.328 92.3872C316.386 91.8369 316.053 91.493 315.721 91.3669C315.388 91.2293 314.907 91.2408 314.574 91.6764L261.308 160.886C261.182 161.058 260.987 161.138 260.792 161.138Z" fill="white"/>
<path opacity="0.72" d="M139.953 233.695C139.826 233.695 139.7 233.66 139.586 233.58C139.288 233.385 139.207 232.972 139.414 232.674L166.964 191.839C167.961 190.36 169.624 189.557 171.401 189.695C173.178 189.832 174.703 190.876 175.459 192.492C175.608 192.813 175.471 193.203 175.15 193.352C174.829 193.501 174.439 193.363 174.29 193.042C173.728 191.85 172.616 191.094 171.298 190.99C169.991 190.887 168.764 191.483 168.03 192.572L140.48 233.408C140.365 233.591 140.159 233.695 139.953 233.695Z" fill="white"/>
<path opacity="0.72" d="M132.797 244.311C132.671 244.311 132.545 244.276 132.43 244.196C132.132 244.001 132.052 243.588 132.258 243.29L134.024 240.676C134.23 240.378 134.631 240.298 134.93 240.505C135.228 240.699 135.308 241.112 135.101 241.41L133.336 244.024C133.21 244.207 133.004 244.311 132.797 244.311Z" fill="white"/>
<path d="M92.2574 313.451C91.7416 313.451 91.3174 313.027 91.3174 312.511V199.68C91.3174 199.164 91.7416 198.74 92.2574 198.74C92.7733 198.74 93.1975 199.164 93.1975 199.68V312.511C93.1975 313.027 92.7733 313.451 92.2574 313.451Z" fill="#7D97F4"/>
<path d="M66.6675 313.451C66.1517 313.451 65.7275 313.027 65.7275 312.511V199.68C65.7275 199.164 66.1517 198.74 66.6675 198.74C67.1834 198.74 67.6075 199.164 67.6075 199.68V312.511C67.619 313.027 67.1948 313.451 66.6675 313.451Z" fill="#7D97F4"/>
<path d="M3.81746 314.162C3.69134 314.162 3.56523 314.139 3.45058 314.082C2.96906 313.875 2.75122 313.325 2.94613 312.843L51.2134 199.302C51.4198 198.821 51.9701 198.603 52.4516 198.798C52.9331 199.004 53.151 199.554 52.9561 200.036L4.68879 313.577C4.53975 313.944 4.18434 314.162 3.81746 314.162Z" fill="#7D97F4"/>
<path d="M33.6378 314.162C33.5117 314.162 33.3855 314.139 33.2709 314.082C32.7894 313.875 32.5715 313.325 32.7664 312.843L81.0337 199.302C81.2401 198.821 81.7904 198.603 82.2719 198.798C82.7534 199.004 82.9713 199.554 82.7764 200.036L34.5091 313.589C34.3601 313.944 34.0047 314.162 33.6378 314.162Z" fill="#7D97F4"/>
<path d="M93.7257 200.711H49.5057C48.772 200.711 48.1758 200.115 48.1758 199.382C48.1758 198.648 48.772 198.052 49.5057 198.052H93.7257C94.4595 198.052 95.0557 198.648 95.0557 199.382C95.0557 200.115 94.4595 200.711 93.7257 200.711Z" fill="#7D97F4"/>
<path d="M74.6251 217.977H44.7131C44.1972 217.977 43.7729 217.553 43.7729 217.037C43.7729 216.521 44.1972 216.097 44.7131 216.097H74.6136C75.1295 216.097 75.5537 216.521 75.5537 217.037C75.5537 217.553 75.141 217.977 74.6251 217.977Z" fill="#7D97F4"/>
<path d="M65.4425 237.568H35.542V239.46H65.4425V237.568Z" fill="#7D97F4"/>
<path d="M56.5558 259.041H26.6553V260.933H56.5558V259.041Z" fill="#7D97F4"/>
<path d="M47.2465 282.406H17.3347C16.8187 282.406 16.3945 281.981 16.3945 281.465C16.3945 280.95 16.8187 280.525 17.3347 280.525H47.2351C47.751 280.525 48.1752 280.95 48.1752 281.465C48.1867 281.981 47.7625 282.406 47.2465 282.406Z" fill="#7D97F4"/>
<path d="M38.2347 303.876H8.33417C7.81825 303.876 7.39404 303.452 7.39404 302.936C7.39404 302.42 7.81825 301.996 8.33417 301.996H38.2347C38.7506 301.996 39.1748 302.42 39.1748 302.936C39.1863 303.452 38.7621 303.876 38.2347 303.876Z" fill="#7D97F4"/>
<path d="M185.718 145.854H181.5V233.968H185.718V145.854Z" fill="url(#paint4_linear)"/>
<path d="M234.135 235.86H134.196C134.196 244.309 135.698 252.69 138.644 260.623L156.105 307.672C157.412 311.18 160.76 313.519 164.509 313.519H203.811C207.56 313.519 210.907 311.191 212.214 307.672L229.676 260.623C232.633 252.701 234.135 244.321 234.135 235.86Z" fill="url(#paint5_linear)"/>
<path d="M185.352 170.608C229.213 170.608 264.769 135.054 264.769 91.1956C264.769 47.3373 229.213 11.7832 185.352 11.7832C141.491 11.7832 105.935 47.3373 105.935 91.1956C105.935 135.054 141.491 170.608 185.352 170.608Z" fill="url(#paint6_linear)"/>
<path d="M185.351 167.971C227.756 167.971 262.132 133.598 262.132 91.1956C262.132 48.7935 227.756 14.4199 185.351 14.4199C142.947 14.4199 108.571 48.7935 108.571 91.1956C108.571 133.598 142.947 167.971 185.351 167.971Z" fill="url(#paint7_linear)"/>
<path opacity="0.78" d="M122.376 60.0459C122.158 60.0459 121.941 59.9886 121.734 59.8854C121.035 59.5185 120.76 58.6587 121.127 57.9594C133.772 33.5636 158.697 18.6028 186.155 18.9009C190.535 18.9467 194.926 19.3938 199.179 20.2192C199.959 20.3683 200.464 21.1249 200.314 21.9045C200.165 22.684 199.42 23.1885 198.629 23.0394C194.536 22.2484 190.317 21.8242 186.11 21.7784C159.74 21.4918 135.813 35.8564 123.66 59.2893C123.408 59.7708 122.904 60.0459 122.376 60.0459Z" fill="white"/>
<path opacity="0.78" d="M232.948 138.842C258.325 113.465 258.325 72.3219 232.948 46.9456C207.572 21.5692 166.429 21.5692 141.052 46.9455C115.676 72.3219 115.676 113.465 141.052 138.842C166.429 164.218 207.572 164.218 232.948 138.842Z" fill="white"/>
<path fill-rule="evenodd" clip-rule="evenodd" d="M201.9 128.353H172.453C166.741 128.353 162.396 127.093 159.42 124.489C156.443 121.97 154.995 118.19 154.995 113.235V95.6252H175.35V107.608C175.35 111.639 177.522 113.571 181.866 113.571H193.13C196.75 113.403 198.842 111.891 199.325 109.035V95.6252H219.519V112.899C219.519 115.419 219.036 117.602 218.232 119.45C217.347 121.382 216.14 122.978 214.611 124.321C213.083 125.665 211.232 126.673 209.06 127.345C206.888 128.017 204.474 128.353 201.9 128.353ZM219.519 86.2744V95.6252H233.346V86.2744H219.519ZM199.325 86.2744H219.519V62.8975H199.325V86.2744ZM154.995 86.2744V95.6252H141.168V86.2744H154.995ZM154.995 86.2744V62.8975H175.35V86.2744H154.995Z" fill="#FF7A6E"/>
<path d="M216.286 229.636C216.274 229.636 216.251 229.636 216.24 229.636C215.701 229.613 215.288 229.155 215.323 228.616L215.38 227.458C215.403 226.919 215.861 226.507 216.4 226.529C216.939 226.552 217.352 227.011 217.317 227.55L217.26 228.708C217.226 229.235 216.802 229.636 216.286 229.636ZM216.469 225.761C216.458 225.761 216.435 225.761 216.423 225.761C215.884 225.738 215.472 225.28 215.495 224.741L215.552 223.583C215.575 223.044 216.045 222.632 216.572 222.655C217.111 222.678 217.524 223.136 217.501 223.675L217.444 224.833C217.421 225.36 216.985 225.761 216.469 225.761ZM216.641 221.887C216.63 221.887 216.607 221.887 216.595 221.887C216.056 221.864 215.644 221.405 215.667 220.878L215.712 219.72C215.735 219.181 216.194 218.768 216.721 218.791C217.26 218.814 217.673 219.261 217.65 219.8L217.604 220.958C217.593 221.485 217.157 221.887 216.641 221.887ZM216.802 218.023C216.79 218.023 216.779 218.023 216.756 218.023C216.217 218 215.804 217.553 215.827 217.014L215.873 215.868L216.847 215.891L217.822 215.937L217.776 217.094C217.753 217.61 217.329 218.023 216.802 218.023ZM216.951 214.137C216.939 214.137 216.928 214.137 216.916 214.137C216.377 214.114 215.965 213.678 215.976 213.139L216.022 211.981C216.045 211.443 216.503 211.018 217.031 211.041C217.57 211.064 217.982 211.511 217.971 212.05L217.925 213.197C217.902 213.713 217.478 214.137 216.951 214.137ZM217.088 210.262C217.077 210.262 217.065 210.262 217.054 210.262C216.515 210.239 216.102 209.803 216.114 209.264L216.148 208.107C216.16 207.568 216.618 207.144 217.146 207.166C217.684 207.178 218.097 207.636 218.086 208.164L218.051 209.31C218.04 209.838 217.616 210.262 217.088 210.262ZM217.203 206.398C217.191 206.398 217.18 206.398 217.18 206.398C216.641 206.387 216.217 205.94 216.24 205.401L216.274 204.255L217.249 204.266L218.223 204.312L218.189 205.458C218.166 205.974 217.73 206.398 217.203 206.398ZM217.306 202.512C217.295 202.512 217.295 202.512 217.283 202.512C216.744 202.501 216.32 202.065 216.331 201.526L216.354 200.368C216.366 199.841 216.802 199.417 217.329 199.417C217.34 199.417 217.34 199.417 217.352 199.417C217.891 199.428 218.315 199.875 218.303 200.414L218.281 201.56C218.269 202.088 217.833 202.512 217.306 202.512ZM217.386 198.637C217.375 198.637 217.375 198.637 217.363 198.637C216.824 198.626 216.4 198.19 216.412 197.651L216.435 196.493C216.446 195.966 216.882 195.542 217.409 195.542C217.409 195.542 217.421 195.542 217.432 195.542C217.971 195.553 218.395 195.989 218.384 196.528L218.361 197.686C218.349 198.213 217.914 198.637 217.386 198.637ZM217.455 194.774H217.444C216.905 194.762 216.481 194.327 216.481 193.788L216.492 192.63L218.43 192.653L218.418 193.811C218.418 194.338 217.982 194.774 217.455 194.774ZM217.501 190.887C217.501 190.887 217.489 190.887 217.501 190.887C216.951 190.887 216.526 190.44 216.526 189.913L216.538 188.755C216.538 188.216 216.974 187.792 217.512 187.792C217.512 187.792 217.512 187.792 217.524 187.792C218.063 187.792 218.487 188.239 218.487 188.766L218.475 189.936C218.464 190.463 218.028 190.887 217.501 190.887ZM217.524 187.012C217.524 187.012 217.512 187.012 217.524 187.012C216.985 187.012 216.549 186.577 216.549 186.038V184.88C216.549 184.341 216.985 183.906 217.524 183.906C218.063 183.906 218.498 184.341 218.498 184.88V186.049C218.487 186.588 218.051 187.012 217.524 187.012ZM217.524 183.138C216.985 183.138 216.549 182.702 216.549 182.175V181.017C216.549 180.478 216.985 180.042 217.512 180.042C218.051 180.042 218.475 180.478 218.487 181.005V182.163C218.487 182.702 218.063 183.138 217.524 183.138ZM217.489 179.274C216.962 179.274 216.526 178.85 216.515 178.311L216.503 177.153C216.492 176.614 216.928 176.179 217.467 176.167H217.478C218.005 176.167 218.441 176.591 218.452 177.13L218.464 178.3C218.464 178.827 218.04 179.263 217.489 179.274C217.501 179.274 217.501 179.274 217.489 179.274ZM217.444 175.399C216.916 175.399 216.481 174.975 216.469 174.448L216.446 173.29C216.435 172.751 216.859 172.315 217.398 172.304C217.409 172.304 217.409 172.304 217.421 172.304C217.948 172.304 218.384 172.728 218.395 173.255L218.418 174.425C218.43 174.964 217.994 175.399 217.467 175.411C217.455 175.399 217.444 175.399 217.444 175.399ZM217.363 171.524C216.836 171.524 216.4 171.1 216.389 170.573L216.354 169.415C216.343 168.876 216.767 168.429 217.295 168.417C217.822 168.406 218.281 168.83 218.292 169.358L218.326 170.527C218.338 171.066 217.914 171.513 217.375 171.524C217.375 171.513 217.363 171.524 217.363 171.524ZM217.249 167.638C216.721 167.638 216.297 167.225 216.274 166.698C216.263 166.308 216.251 165.93 216.24 165.54C216.217 165.001 216.641 164.554 217.18 164.531C217.191 164.531 217.203 164.531 217.214 164.531C217.73 164.531 218.166 164.944 218.189 165.471C218.2 165.861 218.212 166.251 218.223 166.641C218.235 167.179 217.822 167.626 217.283 167.638C217.272 167.638 217.26 167.638 217.249 167.638ZM217.111 163.763C216.595 163.763 216.16 163.35 216.137 162.834L216.091 161.677C216.068 161.138 216.481 160.691 217.019 160.668C217.558 160.645 218.005 161.057 218.028 161.596L218.074 162.766C218.097 163.304 217.684 163.752 217.146 163.774C217.134 163.763 217.123 163.763 217.111 163.763ZM216.928 159.888C216.412 159.888 215.988 159.487 215.953 158.971L215.896 157.813C215.873 157.274 216.274 156.816 216.813 156.793C217.352 156.77 217.81 157.171 217.833 157.71L217.891 158.879C217.914 159.418 217.501 159.877 216.974 159.9C216.962 159.888 216.951 159.888 216.928 159.888ZM216.721 156.025C216.217 156.025 215.781 155.623 215.747 155.108L215.678 153.95C215.644 153.411 216.056 152.952 216.584 152.918C217.123 152.884 217.581 153.296 217.616 153.824L217.684 154.981C217.719 155.52 217.306 155.979 216.779 156.013C216.756 156.025 216.733 156.025 216.721 156.025ZM216.469 152.15C215.965 152.15 215.54 151.76 215.506 151.244L215.426 150.086C215.391 149.547 215.793 149.089 216.32 149.043C216.847 149.009 217.317 149.41 217.363 149.937L217.444 151.095C217.478 151.634 217.077 152.092 216.538 152.127C216.515 152.15 216.492 152.15 216.469 152.15ZM216.171 148.286C215.667 148.286 215.242 147.897 215.208 147.392L215.116 146.234C215.07 145.695 215.472 145.225 215.999 145.18C216.538 145.134 217.008 145.535 217.054 146.062L217.146 147.22C217.191 147.759 216.79 148.229 216.251 148.263C216.228 148.286 216.194 148.286 216.171 148.286ZM215.827 144.423C215.334 144.423 214.91 144.045 214.864 143.54L214.749 142.382C214.692 141.843 215.093 141.373 215.621 141.316C216.16 141.259 216.63 141.66 216.687 142.187L216.802 143.345C216.847 143.884 216.458 144.354 215.93 144.4C215.896 144.423 215.861 144.423 215.827 144.423ZM215.437 140.559C214.944 140.559 214.532 140.193 214.474 139.688C214.428 139.298 214.394 138.92 214.348 138.53C214.291 137.992 214.669 137.521 215.208 137.453C215.747 137.395 216.217 137.774 216.286 138.313C216.331 138.702 216.366 139.081 216.412 139.47C216.469 140.009 216.079 140.479 215.552 140.537C215.506 140.559 215.472 140.559 215.437 140.559ZM215.002 136.708C214.52 136.708 214.096 136.341 214.039 135.848C213.993 135.469 213.947 135.08 213.901 134.701C213.832 134.174 214.21 133.681 214.738 133.612C215.277 133.543 215.758 133.922 215.827 134.449C215.873 134.839 215.919 135.217 215.976 135.607C216.045 136.134 215.655 136.627 215.128 136.685C215.082 136.708 215.047 136.708 215.002 136.708ZM214.509 132.867C214.027 132.867 213.614 132.512 213.546 132.03C213.488 131.652 213.442 131.262 213.385 130.884C213.305 130.356 213.683 129.863 214.21 129.783C214.749 129.703 215.231 130.081 215.311 130.609C215.368 130.998 215.414 131.377 215.472 131.766C215.54 132.294 215.174 132.787 214.646 132.867C214.6 132.856 214.554 132.867 214.509 132.867ZM213.947 129.027C213.477 129.027 213.064 128.683 212.984 128.201C212.926 127.823 212.869 127.433 212.8 127.055C212.72 126.527 213.075 126.023 213.603 125.943C214.13 125.862 214.635 126.218 214.715 126.745C214.772 127.123 214.841 127.513 214.898 127.903C214.979 128.43 214.612 128.935 214.084 129.015C214.05 129.027 214.004 129.027 213.947 129.027ZM213.328 125.197C212.869 125.197 212.456 124.865 212.376 124.395C212.307 124.017 212.25 123.638 212.181 123.26C212.089 122.733 212.445 122.228 212.972 122.137C213.5 122.045 214.004 122.389 214.096 122.928C214.165 123.306 214.233 123.696 214.302 124.074C214.394 124.601 214.039 125.106 213.511 125.197C213.442 125.197 213.385 125.197 213.328 125.197ZM212.64 121.38C212.181 121.38 211.78 121.059 211.688 120.589C211.619 120.211 211.539 119.832 211.47 119.454C211.367 118.927 211.711 118.422 212.239 118.307C212.766 118.204 213.282 118.548 213.385 119.076C213.465 119.454 213.534 119.844 213.614 120.222C213.717 120.749 213.374 121.254 212.846 121.357C212.754 121.38 212.697 121.38 212.64 121.38ZM211.86 117.585C211.413 117.585 211.012 117.276 210.909 116.817C210.828 116.439 210.748 116.061 210.656 115.682C210.542 115.155 210.874 114.639 211.39 114.524C211.918 114.41 212.433 114.742 212.548 115.258C212.628 115.636 212.72 116.015 212.8 116.404C212.915 116.932 212.582 117.448 212.055 117.562C211.998 117.574 211.929 117.585 211.86 117.585ZM211.012 113.802C210.576 113.802 210.175 113.504 210.072 113.057C209.98 112.679 209.888 112.312 209.797 111.933C209.67 111.418 209.991 110.89 210.507 110.753C211.023 110.626 211.551 110.947 211.688 111.463C211.78 111.842 211.872 112.22 211.963 112.598C212.089 113.126 211.768 113.642 211.241 113.768C211.161 113.791 211.081 113.802 211.012 113.802ZM210.06 110.042C209.636 110.042 209.235 109.755 209.12 109.32C209.017 108.941 208.925 108.574 208.822 108.208C208.684 107.692 208.983 107.153 209.498 107.015C210.014 106.878 210.553 107.176 210.691 107.692C210.794 108.07 210.897 108.448 211 108.827C211.138 109.342 210.828 109.881 210.312 110.019C210.232 110.03 210.14 110.042 210.06 110.042ZM209.017 106.304C208.593 106.304 208.214 106.029 208.088 105.605C207.974 105.238 207.87 104.871 207.756 104.505C207.595 103.989 207.882 103.45 208.398 103.289C208.914 103.129 209.453 103.415 209.613 103.931C209.728 104.298 209.842 104.677 209.957 105.055C210.106 105.571 209.819 106.11 209.304 106.259C209.2 106.293 209.109 106.304 209.017 106.304ZM207.859 102.602C207.446 102.602 207.068 102.338 206.942 101.937C206.816 101.57 206.701 101.203 206.575 100.848C206.403 100.343 206.667 99.7928 207.183 99.6094C207.687 99.4374 208.237 99.7126 208.421 100.217C208.547 100.584 208.673 100.951 208.799 101.329C208.971 101.833 208.696 102.384 208.18 102.556C208.054 102.59 207.951 102.602 207.859 102.602ZM206.575 98.9445C206.185 98.9445 205.807 98.7037 205.669 98.3139C205.532 97.9471 205.405 97.5917 205.268 97.2363C205.073 96.7319 205.325 96.1701 205.83 95.9867C206.334 95.7918 206.896 96.044 207.079 96.5485C207.217 96.9153 207.355 97.2822 207.492 97.649C207.676 98.1534 207.423 98.7152 206.919 98.8986C206.804 98.933 206.69 98.9445 206.575 98.9445ZM205.153 95.3332C204.775 95.3332 204.408 95.104 204.259 94.7371C204.11 94.3817 203.961 94.0263 203.812 93.6824C203.605 93.1894 203.823 92.6162 204.316 92.4099C204.809 92.2035 205.383 92.4213 205.589 92.9143C205.738 93.2697 205.898 93.6365 206.048 93.9919C206.254 94.4849 206.013 95.0581 205.52 95.2645C205.405 95.3103 205.279 95.3332 205.153 95.3332ZM203.594 91.7908C203.227 91.7908 202.883 91.5845 202.711 91.2291C202.551 90.8851 202.379 90.5298 202.218 90.1858C201.989 89.7043 202.184 89.1197 202.665 88.8904C203.147 88.6611 203.732 88.856 203.961 89.3375C204.133 89.6929 204.305 90.0482 204.465 90.4036C204.695 90.8851 204.477 91.4698 203.995 91.6991C203.869 91.7564 203.732 91.7908 203.594 91.7908ZM201.874 88.3172C201.53 88.3172 201.186 88.1337 201.014 87.8013C200.831 87.4573 200.659 87.1249 200.476 86.7924C200.223 86.3224 200.395 85.7262 200.865 85.474C201.335 85.2218 201.932 85.3938 202.184 85.8638C202.367 86.2077 202.562 86.5517 202.746 86.9071C202.998 87.3771 202.814 87.9732 202.344 88.214C202.184 88.2828 202.023 88.3172 201.874 88.3172ZM199.971 84.9352C199.639 84.9352 199.318 84.7633 199.134 84.4652C198.939 84.1327 198.733 83.8117 198.538 83.4907C198.251 83.0322 198.389 82.436 198.848 82.1494C199.306 81.8628 199.902 82.0004 200.189 82.459C200.395 82.7914 200.602 83.1239 200.808 83.4678C201.083 83.9264 200.934 84.5225 200.476 84.7977C200.315 84.9008 200.143 84.9352 199.971 84.9352ZM197.885 81.6794C197.575 81.6794 197.265 81.5304 197.082 81.2552C196.864 80.9342 196.646 80.6247 196.428 80.3151C196.119 79.8795 196.222 79.2719 196.658 78.9624C197.093 78.6528 197.701 78.756 198.011 79.1917C198.24 79.5127 198.469 79.8337 198.687 80.1547C198.985 80.6018 198.882 81.1979 198.435 81.5074C198.263 81.6221 198.068 81.6794 197.885 81.6794ZM195.58 78.5611C195.293 78.5611 195.007 78.435 194.812 78.1943C194.571 77.8962 194.342 77.5981 194.09 77.3115C193.746 76.8988 193.803 76.2912 194.216 75.9473C194.628 75.6034 195.236 75.6607 195.58 76.0734C195.832 76.3715 196.073 76.681 196.325 76.9905C196.658 77.4147 196.589 78.0223 196.165 78.3548C196.004 78.4923 195.798 78.5611 195.58 78.5611ZM193.069 75.6148C192.806 75.6148 192.542 75.5117 192.358 75.3053C192.106 75.0302 191.843 74.7436 191.579 74.4799C191.212 74.0901 191.212 73.4825 191.602 73.1042C191.992 72.7259 192.599 72.7373 192.978 73.1271C193.253 73.4137 193.528 73.7003 193.792 73.9869C194.158 74.3767 194.124 74.9958 193.734 75.3626C193.539 75.5231 193.31 75.6148 193.069 75.6148ZM190.341 72.8749C190.1 72.8749 189.871 72.7946 189.687 72.6227C189.412 72.3705 189.125 72.1068 188.839 71.866C188.437 71.5106 188.392 70.903 188.747 70.4903C189.102 70.0891 189.71 70.0432 190.123 70.3986C190.421 70.6623 190.719 70.926 191.006 71.1896C191.395 71.5565 191.43 72.1641 191.063 72.5654C190.857 72.7717 190.593 72.8749 190.341 72.8749ZM187.383 70.3757C187.176 70.3757 186.97 70.3069 186.787 70.1693C186.488 69.94 186.179 69.7108 185.881 69.493C185.445 69.1834 185.353 68.5758 185.663 68.1402C185.984 67.7045 186.592 67.6128 187.016 67.9224C187.337 68.1516 187.658 68.3924 187.967 68.6331C188.392 68.9656 188.472 69.5732 188.151 69.9974C187.956 70.2496 187.669 70.3757 187.383 70.3757ZM184.207 68.1631C184.035 68.1631 183.852 68.1172 183.691 68.0141C183.37 67.8077 183.049 67.6128 182.728 67.4294C182.269 67.1543 182.109 66.5581 182.384 66.0995C182.659 65.641 183.255 65.4805 183.714 65.7556C184.058 65.962 184.39 66.1683 184.723 66.3747C185.181 66.6613 185.308 67.2574 185.021 67.716C184.838 68.0026 184.528 68.1631 184.207 68.1631ZM180.836 66.26C180.687 66.26 180.538 66.2256 180.401 66.1569C180.057 65.9849 179.724 65.8244 179.38 65.6639C178.899 65.4346 178.681 64.8614 178.91 64.3685C179.139 63.887 179.713 63.6691 180.206 63.8984C180.561 64.0704 180.928 64.2423 181.283 64.4258C181.765 64.6665 181.96 65.2512 181.708 65.7327C181.536 66.0652 181.192 66.26 180.836 66.26ZM177.305 64.678C177.19 64.678 177.064 64.6551 176.95 64.6092C176.594 64.4716 176.239 64.3455 175.883 64.208C175.379 64.0245 175.115 63.4743 175.299 62.9698C175.482 62.4654 176.032 62.2017 176.537 62.3852C176.915 62.5227 177.282 62.6603 177.649 62.7979C178.153 62.9928 178.394 63.5545 178.199 64.0589C178.062 64.4487 177.695 64.678 177.305 64.678ZM173.636 63.4399C173.545 63.4399 173.453 63.4284 173.373 63.4055C173.006 63.3023 172.65 63.1991 172.272 63.1074C171.756 62.9698 171.435 62.4425 171.573 61.9266C171.71 61.4107 172.238 61.0897 172.754 61.2273C173.143 61.3304 173.522 61.4336 173.9 61.5368C174.416 61.6858 174.714 62.2247 174.565 62.7405C174.45 63.1647 174.061 63.4399 173.636 63.4399ZM169.876 62.5456C169.819 62.5456 169.75 62.5342 169.692 62.5227C169.326 62.4539 168.947 62.3851 168.569 62.3164C168.041 62.2246 167.686 61.7317 167.766 61.1929C167.858 60.6655 168.351 60.3101 168.89 60.3904C169.28 60.4592 169.669 60.5279 170.059 60.5967C170.587 60.6999 170.931 61.2043 170.827 61.7317C170.736 62.2246 170.334 62.5456 169.876 62.5456ZM153.286 62.0527C152.793 62.0527 152.38 61.6858 152.323 61.1929C152.266 60.6541 152.644 60.184 153.183 60.1152C153.573 60.0694 153.963 60.035 154.352 60.0006C154.891 59.9433 155.361 60.3445 155.407 60.8719C155.453 61.4107 155.063 61.8807 154.536 61.9266C154.158 61.961 153.779 62.0068 153.389 62.0412C153.355 62.0527 153.321 62.0527 153.286 62.0527ZM166.047 61.9724C166.012 61.9724 165.978 61.9724 165.943 61.961C165.565 61.9151 165.187 61.8807 164.808 61.8463C164.27 61.8005 163.88 61.3304 163.926 60.7916C163.971 60.2528 164.441 59.863 164.98 59.9089C165.37 59.9433 165.771 59.9777 166.161 60.0235C166.7 60.0808 167.078 60.5623 167.021 61.0897C166.964 61.5941 166.54 61.9724 166.047 61.9724ZM157.15 61.7431C156.634 61.7431 156.21 61.3419 156.175 60.826C156.152 60.2872 156.554 59.8286 157.093 59.8057C157.494 59.7828 157.884 59.7713 158.273 59.7599C158.789 59.7369 159.259 60.1611 159.271 60.6999C159.294 61.2387 158.87 61.6858 158.331 61.6973C157.952 61.7088 157.574 61.7202 157.184 61.7431C157.184 61.7431 157.161 61.7431 157.15 61.7431ZM162.183 61.6973C162.171 61.6973 162.16 61.6973 162.149 61.6973C161.77 61.6858 161.392 61.6744 161.013 61.6744C160.475 61.6629 160.05 61.2273 160.05 60.6884C160.062 60.1496 160.498 59.7025 161.036 59.7255C161.438 59.7255 161.828 59.7369 162.217 59.7599C162.756 59.7828 163.169 60.2299 163.157 60.7687C163.134 61.2846 162.71 61.6973 162.183 61.6973Z" fill="white"/>
<path d="M205.199 232.548C205.199 232.548 205.187 232.548 205.199 232.548C204.648 232.537 204.224 232.101 204.224 231.562L204.236 230.427L205.21 230.416L206.185 230.45L206.173 231.585C206.162 232.113 205.726 232.548 205.199 232.548ZM205.233 228.673C204.683 228.673 204.259 228.226 204.259 227.699L204.27 226.541C204.27 226.002 204.706 225.578 205.244 225.578H205.256C205.795 225.578 206.219 226.025 206.219 226.564L206.208 227.722C206.208 228.238 205.772 228.673 205.233 228.673ZM205.279 224.799C205.267 224.799 205.267 224.799 205.279 224.799C204.729 224.799 204.304 224.351 204.304 223.824L204.316 222.666C204.316 222.127 204.751 221.703 205.29 221.703H205.302C205.841 221.703 206.265 222.15 206.265 222.678L206.253 223.836C206.242 224.363 205.806 224.799 205.279 224.799ZM205.313 220.924C205.302 220.924 205.302 220.924 205.313 220.924C204.763 220.924 204.339 220.477 204.339 219.949L204.35 218.803L205.325 218.791L206.299 218.814L206.288 219.961C206.276 220.488 205.841 220.924 205.313 220.924ZM205.336 217.037C204.797 217.037 204.362 216.602 204.362 216.063L204.373 214.905C204.373 214.366 204.809 213.942 205.348 213.942C205.348 213.942 205.348 213.942 205.359 213.942C205.898 213.942 206.322 214.389 206.322 214.916L206.311 216.063C206.311 216.602 205.875 217.037 205.336 217.037ZM205.371 213.174C205.359 213.174 205.359 213.174 205.371 213.174C204.832 213.174 204.396 212.727 204.396 212.199L204.408 211.042L206.345 211.053L206.334 212.211C206.334 212.75 205.898 213.174 205.371 213.174ZM205.394 209.299C205.382 209.299 205.382 209.299 205.394 209.299C204.855 209.299 204.419 208.863 204.419 208.325V207.167C204.419 206.628 204.855 206.204 205.394 206.204C205.932 206.204 206.368 206.639 206.357 207.178V208.336C206.357 208.875 205.921 209.299 205.394 209.299ZM205.405 205.424C204.866 205.424 204.43 204.988 204.43 204.45V203.292H205.405L206.38 203.303V204.461C206.38 205 205.944 205.424 205.405 205.424ZM205.416 201.549C204.878 201.549 204.442 201.114 204.442 200.575V199.417C204.442 198.878 204.878 198.442 205.416 198.442C205.955 198.442 206.391 198.878 206.391 199.417V200.575C206.391 201.114 205.955 201.549 205.416 201.549ZM205.416 197.686C204.878 197.686 204.442 197.25 204.442 196.711V195.553C204.442 195.015 204.878 194.579 205.416 194.579C205.955 194.579 206.391 195.015 206.391 195.553V196.711C206.391 197.25 205.955 197.686 205.416 197.686ZM205.416 193.799C204.878 193.799 204.442 193.364 204.442 192.825V191.667C204.442 191.128 204.878 190.693 205.405 190.693C205.944 190.693 206.38 191.128 206.38 191.656V192.825C206.391 193.364 205.955 193.799 205.416 193.799ZM205.405 189.925C204.866 189.925 204.442 189.489 204.43 188.962V187.804C204.43 187.265 204.866 186.829 205.394 186.829C205.932 186.829 206.357 187.265 206.368 187.792V188.95C206.38 189.489 205.944 189.925 205.405 189.925ZM205.382 186.05C204.843 186.05 204.419 185.614 204.408 185.087L204.396 183.929C204.396 183.39 204.82 182.954 205.359 182.954C205.359 182.954 205.359 182.954 205.371 182.954C205.898 182.954 206.334 183.39 206.345 183.917L206.357 185.075C206.357 185.603 205.921 186.05 205.382 186.05ZM205.348 182.175C204.82 182.175 204.385 181.751 204.373 181.212L204.362 180.054C204.35 179.515 204.786 179.079 205.325 179.068H205.336C205.864 179.068 206.299 179.492 206.311 180.031L206.322 181.2C206.322 181.728 205.898 182.163 205.348 182.175C205.359 182.175 205.348 182.175 205.348 182.175ZM205.302 178.3C204.774 178.3 204.339 177.876 204.327 177.337L204.316 176.179C204.304 175.64 204.74 175.205 205.267 175.193H205.279C205.806 175.193 206.242 175.617 206.253 176.145L206.265 177.314C206.276 177.853 205.841 178.288 205.302 178.3C205.313 178.3 205.302 178.3 205.302 178.3ZM205.244 174.414C204.717 174.414 204.281 173.989 204.27 173.462L204.247 172.304C204.236 171.765 204.66 171.33 205.199 171.318C205.737 171.318 206.173 171.731 206.185 172.27L206.208 173.439C206.219 173.978 205.783 174.414 205.256 174.425C205.256 174.414 205.244 174.414 205.244 174.414ZM205.164 170.539C204.637 170.539 204.201 170.114 204.19 169.587L204.167 168.429C204.155 167.89 204.58 167.443 205.118 167.432C205.657 167.42 206.104 167.845 206.116 168.383L206.139 169.553C206.15 170.092 205.726 170.539 205.187 170.55C205.176 170.539 205.176 170.539 205.164 170.539ZM205.073 166.664C204.545 166.664 204.121 166.251 204.098 165.712L204.064 164.554C204.052 164.016 204.476 163.568 205.004 163.557C205.015 163.557 205.027 163.557 205.027 163.557C205.554 163.557 205.978 163.97 206.001 164.497L206.036 165.666C206.047 166.205 205.623 166.652 205.095 166.664C205.084 166.664 205.084 166.664 205.073 166.664ZM204.958 162.789C204.43 162.789 204.006 162.376 203.983 161.849L203.949 160.691C203.926 160.152 204.35 159.705 204.889 159.682C205.428 159.659 205.875 160.083 205.887 160.622L205.921 161.791C205.944 162.33 205.52 162.777 204.981 162.789C204.981 162.789 204.969 162.789 204.958 162.789ZM204.832 158.914C204.316 158.914 203.88 158.501 203.857 157.974L203.811 156.816C203.788 156.277 204.213 155.83 204.74 155.807C205.279 155.784 205.726 156.208 205.749 156.736L205.795 157.894C205.818 158.432 205.394 158.88 204.866 158.902C204.855 158.914 204.843 158.914 204.832 158.914ZM204.671 155.039C204.155 155.039 203.72 154.626 203.697 154.11L203.639 152.953C203.616 152.414 204.029 151.967 204.568 151.932C205.107 151.909 205.554 152.322 205.588 152.861L205.646 154.03C205.669 154.569 205.256 155.016 204.717 155.039C204.694 155.039 204.683 155.039 204.671 155.039ZM204.488 151.164C203.972 151.164 203.548 150.763 203.513 150.247L203.456 149.089C203.433 148.55 203.834 148.092 204.373 148.069C204.923 148.046 205.371 148.447 205.394 148.986L205.451 150.155C205.474 150.694 205.061 151.153 204.534 151.176C204.522 151.164 204.499 151.164 204.488 151.164ZM204.27 147.301C203.754 147.301 203.33 146.899 203.295 146.384L203.227 145.226C203.192 144.687 203.605 144.228 204.132 144.194C204.671 144.16 205.13 144.572 205.164 145.1L205.233 146.257C205.267 146.796 204.855 147.255 204.316 147.289C204.316 147.289 204.293 147.301 204.27 147.301ZM204.029 143.426C203.525 143.426 203.101 143.036 203.066 142.52L202.986 141.362C202.951 140.823 203.353 140.365 203.892 140.331C204.419 140.285 204.889 140.697 204.923 141.236L205.004 142.394C205.038 142.933 204.637 143.391 204.098 143.426C204.075 143.426 204.052 143.426 204.029 143.426ZM203.754 139.562C203.25 139.562 202.825 139.173 202.791 138.668C202.757 138.278 202.734 137.9 202.699 137.51C202.653 136.972 203.055 136.513 203.594 136.467C204.132 136.421 204.591 136.822 204.637 137.361C204.671 137.751 204.694 138.141 204.729 138.519C204.774 139.058 204.373 139.517 203.834 139.562C203.8 139.562 203.777 139.562 203.754 139.562ZM203.433 135.699C202.94 135.699 202.516 135.321 202.47 134.816C202.436 134.426 202.401 134.048 202.367 133.658C202.321 133.12 202.711 132.65 203.25 132.604C203.788 132.558 204.258 132.948 204.304 133.486C204.339 133.876 204.373 134.255 204.408 134.644C204.453 135.183 204.064 135.653 203.525 135.699C203.49 135.699 203.456 135.699 203.433 135.699ZM203.066 131.836C202.573 131.836 202.149 131.457 202.103 130.964C202.069 130.575 202.023 130.196 201.988 129.806C201.931 129.268 202.321 128.798 202.848 128.74C203.387 128.683 203.857 129.073 203.915 129.6C203.96 129.99 203.995 130.368 204.029 130.758C204.087 131.297 203.697 131.767 203.158 131.824C203.135 131.836 203.101 131.836 203.066 131.836ZM202.653 127.984C202.172 127.984 201.748 127.617 201.69 127.124C201.644 126.734 201.599 126.356 201.553 125.977C201.484 125.45 201.874 124.957 202.401 124.9C202.94 124.842 203.422 125.221 203.479 125.748C203.525 126.138 203.571 126.516 203.616 126.906C203.674 127.445 203.295 127.926 202.757 127.984C202.734 127.972 202.688 127.984 202.653 127.984ZM202.183 124.132C201.702 124.132 201.289 123.776 201.22 123.283C201.174 122.894 201.117 122.515 201.071 122.137C201.002 121.61 201.369 121.117 201.908 121.048C202.436 120.979 202.929 121.346 202.997 121.885C203.055 122.263 203.101 122.653 203.146 123.043C203.215 123.57 202.837 124.063 202.309 124.132C202.275 124.132 202.229 124.132 202.183 124.132ZM201.656 120.291C201.186 120.291 200.773 119.947 200.693 119.466C200.636 119.087 200.578 118.698 200.521 118.319C200.441 117.792 200.808 117.299 201.335 117.207C201.862 117.127 202.367 117.494 202.447 118.021C202.504 118.4 202.562 118.789 202.619 119.179C202.699 119.706 202.332 120.199 201.805 120.28C201.748 120.291 201.702 120.291 201.656 120.291ZM201.06 116.462C200.59 116.462 200.177 116.13 200.108 115.648C200.039 115.27 199.982 114.892 199.913 114.513C199.822 113.986 200.177 113.481 200.704 113.39C201.232 113.298 201.736 113.653 201.828 114.181C201.897 114.559 201.966 114.949 202.023 115.339C202.115 115.866 201.759 116.37 201.22 116.462C201.163 116.462 201.106 116.462 201.06 116.462ZM200.372 112.645C199.913 112.645 199.512 112.324 199.42 111.854C199.351 111.475 199.271 111.097 199.202 110.719C199.099 110.191 199.443 109.687 199.971 109.572C200.498 109.469 201.002 109.813 201.117 110.34C201.197 110.719 201.266 111.108 201.335 111.487C201.438 112.014 201.094 112.518 200.567 112.622C200.498 112.645 200.429 112.645 200.372 112.645ZM199.604 108.85C199.157 108.85 198.755 108.54 198.652 108.082C198.572 107.703 198.492 107.325 198.4 106.958C198.285 106.431 198.606 105.915 199.134 105.8C199.661 105.686 200.177 106.007 200.292 106.534C200.372 106.912 200.464 107.291 200.544 107.681C200.659 108.208 200.326 108.724 199.799 108.838C199.741 108.838 199.673 108.85 199.604 108.85ZM198.721 105.067C198.285 105.067 197.884 104.769 197.781 104.333C197.689 103.955 197.597 103.588 197.494 103.21C197.357 102.694 197.678 102.155 198.194 102.029C198.709 101.891 199.248 102.212 199.374 102.728C199.466 103.106 199.569 103.485 199.661 103.863C199.787 104.379 199.478 104.906 198.95 105.044C198.881 105.055 198.801 105.067 198.721 105.067ZM197.735 101.318C197.311 101.318 196.921 101.043 196.806 100.607C196.703 100.24 196.588 99.862 196.485 99.4951C196.336 98.9792 196.623 98.4404 197.139 98.2914C197.655 98.1424 198.194 98.429 198.343 98.9449C198.457 99.3117 198.56 99.69 198.664 100.068C198.813 100.584 198.515 101.123 197.999 101.272C197.907 101.306 197.827 101.318 197.735 101.318ZM196.611 97.615C196.199 97.615 195.82 97.3513 195.683 96.9386C195.568 96.5718 195.442 96.2049 195.316 95.8495C195.144 95.3451 195.419 94.7948 195.923 94.6229C196.428 94.4509 196.978 94.726 197.15 95.2305C197.276 95.5973 197.402 95.9756 197.517 96.3425C197.678 96.8584 197.402 97.3972 196.898 97.5691C196.806 97.6035 196.703 97.615 196.611 97.615ZM195.327 93.9579C194.938 93.9579 194.571 93.7172 194.422 93.3274C194.284 92.972 194.146 92.6052 194.009 92.2498C193.814 91.7454 194.055 91.1836 194.559 90.9887C195.064 90.7938 195.625 91.0346 195.82 91.539C195.958 91.9059 196.107 92.2727 196.245 92.6396C196.439 93.144 196.176 93.7057 195.683 93.8892C195.557 93.935 195.442 93.9579 195.327 93.9579ZM193.871 90.3697C193.493 90.3697 193.138 90.1518 192.977 89.785C192.828 89.4296 192.667 89.0857 192.507 88.7417C192.289 88.2488 192.495 87.6756 192.988 87.4578C193.481 87.2399 194.055 87.4463 194.273 87.9392C194.433 88.2946 194.594 88.65 194.754 89.0169C194.972 89.5098 194.743 90.0831 194.25 90.3009C194.135 90.3467 193.997 90.3697 193.871 90.3697ZM192.209 86.8616C191.853 86.8616 191.521 86.6667 191.349 86.3343C191.177 85.9903 190.994 85.6579 190.822 85.3254C190.569 84.8554 190.741 84.2593 191.211 84.007C191.681 83.7548 192.278 83.9268 192.53 84.3968C192.713 84.7408 192.897 85.0961 193.08 85.4401C193.321 85.9216 193.138 86.5062 192.656 86.747C192.518 86.8272 192.358 86.8616 192.209 86.8616ZM190.329 83.4797C189.996 83.4797 189.675 83.3077 189.492 83.0097C189.297 82.6772 189.09 82.3562 188.896 82.0467C188.609 81.5996 188.735 80.992 189.194 80.7054C189.641 80.4188 190.248 80.5563 190.535 81.0034C190.741 81.3359 190.959 81.6683 191.154 82.0123C191.429 82.4708 191.28 83.067 190.822 83.3421C190.673 83.4338 190.501 83.4797 190.329 83.4797ZM188.196 80.2582C187.898 80.2582 187.6 80.1207 187.405 79.857C187.187 79.5475 186.958 79.2494 186.729 78.9399C186.408 78.5157 186.488 77.9081 186.912 77.5756C187.336 77.2546 187.944 77.3349 188.276 77.7591C188.517 78.0686 188.746 78.3896 188.987 78.7106C189.297 79.1462 189.205 79.7538 188.769 80.0634C188.597 80.1895 188.391 80.2582 188.196 80.2582ZM185.788 77.2202C185.513 77.2202 185.25 77.1056 185.055 76.8878C184.803 76.6012 184.55 76.326 184.298 76.0509C183.931 75.6611 183.954 75.0421 184.344 74.6752C184.734 74.3083 185.353 74.3313 185.72 74.7211C185.983 75.0077 186.259 75.3057 186.511 75.6038C186.866 76.005 186.82 76.6241 186.419 76.9795C186.247 77.14 186.018 77.2202 185.788 77.2202ZM183.106 74.4459C182.865 74.4459 182.636 74.3542 182.441 74.1822C182.166 73.93 181.89 73.6778 181.604 73.4256C181.203 73.0702 181.157 72.4626 181.512 72.0499C181.867 71.6487 182.475 71.6028 182.888 71.9582C183.186 72.2219 183.484 72.4856 183.771 72.7607C184.16 73.1275 184.183 73.7466 183.817 74.1364C183.622 74.3427 183.369 74.4459 183.106 74.4459ZM180.136 71.9582C179.93 71.9582 179.735 71.9009 179.552 71.7633C179.253 71.534 178.944 71.3162 178.634 71.0984C178.199 70.7889 178.084 70.1812 178.394 69.7456C178.703 69.31 179.299 69.1953 179.746 69.5049C180.068 69.7341 180.4 69.9634 180.71 70.2042C181.134 70.5252 181.225 71.1328 180.904 71.5684C180.732 71.8321 180.434 71.9582 180.136 71.9582ZM176.915 69.8259C176.743 69.8259 176.582 69.78 176.422 69.6883C176.101 69.4934 175.768 69.31 175.436 69.138C174.966 68.8858 174.794 68.2897 175.046 67.8196C175.298 67.3496 175.894 67.1776 176.364 67.4299C176.72 67.6247 177.064 67.8196 177.408 68.0145C177.866 68.2897 178.027 68.8858 177.752 69.3444C177.58 69.6539 177.259 69.8259 176.915 69.8259ZM173.475 68.0604C173.338 68.0604 173.211 68.0374 173.085 67.9801C172.741 67.8311 172.397 67.6821 172.042 67.533C171.549 67.3267 171.308 66.7649 171.515 66.272C171.721 65.779 172.283 65.5383 172.776 65.7446C173.143 65.8936 173.51 66.0541 173.876 66.2146C174.369 66.4325 174.587 67.0057 174.369 67.4986C174.209 67.8426 173.854 68.0604 173.475 68.0604ZM169.875 66.6732C169.772 66.6732 169.669 66.6618 169.577 66.6274C169.222 66.5127 168.855 66.3981 168.499 66.2949C167.983 66.1459 167.685 65.607 167.846 65.0912C167.995 64.5753 168.534 64.2772 169.05 64.4377C169.428 64.5523 169.806 64.667 170.185 64.7931C170.689 64.9651 170.976 65.5039 170.804 66.0198C170.655 66.421 170.276 66.6732 169.875 66.6732ZM166.138 65.6529C166.069 65.6529 166 65.6414 165.92 65.63C165.553 65.5497 165.186 65.4695 164.808 65.4007C164.28 65.2975 163.936 64.7816 164.04 64.2543C164.143 63.7269 164.659 63.383 165.186 63.4862C165.576 63.5664 165.966 63.6467 166.344 63.7269C166.871 63.8416 167.192 64.3689 167.078 64.8848C166.986 65.3434 166.585 65.6529 166.138 65.6529ZM162.331 64.9651C162.285 64.9651 162.24 64.965 162.194 64.9536C161.815 64.8963 161.448 64.8504 161.059 64.8046C160.531 64.7472 160.141 64.2657 160.21 63.7269C160.268 63.1881 160.749 62.8098 161.288 62.8786C161.678 62.9244 162.079 62.9703 162.457 63.0276C162.985 63.0964 163.363 63.5893 163.283 64.1282C163.226 64.6097 162.813 64.9651 162.331 64.9651ZM158.479 64.5753C158.456 64.5753 158.433 64.5753 158.41 64.5753C158.032 64.5523 157.654 64.5294 157.264 64.5179C156.725 64.495 156.312 64.0364 156.335 63.5091C156.358 62.9703 156.805 62.5576 157.344 62.5805C157.745 62.6034 158.135 62.6149 158.525 62.6493C159.064 62.6837 159.465 63.1422 159.431 63.6811C159.419 64.1855 158.995 64.5753 158.479 64.5753ZM153.446 64.4606C152.919 64.4606 152.483 64.0364 152.471 63.5091C152.46 62.9703 152.896 62.5346 153.423 62.5232C153.778 62.5232 154.134 62.5117 154.478 62.5117H154.604C155.143 62.5117 155.578 62.9474 155.567 63.4862C155.567 64.025 155.131 64.4492 154.592 64.4492H154.478C154.134 64.4492 153.79 64.4492 153.446 64.4606C153.457 64.4606 153.457 64.4606 153.446 64.4606Z" fill="white"/>
<path d="M198.274 234.669C197.746 234.669 197.311 234.245 197.299 233.717L197.276 232.559C197.265 232.021 197.689 231.573 198.228 231.562C198.239 231.562 198.239 231.562 198.251 231.562C198.778 231.562 199.214 231.986 199.225 232.513L199.248 233.671C199.26 234.21 198.836 234.657 198.297 234.669C198.285 234.669 198.274 234.669 198.274 234.669ZM198.182 230.794C197.655 230.794 197.219 230.37 197.208 229.842L197.185 228.673C197.173 228.134 197.597 227.687 198.136 227.676C198.148 227.676 198.148 227.676 198.159 227.676C198.687 227.676 199.122 228.1 199.134 228.627L199.157 229.785C199.168 230.324 198.744 230.771 198.205 230.782C198.205 230.794 198.194 230.794 198.182 230.794ZM198.102 226.919C197.574 226.919 197.139 226.495 197.127 225.967L197.104 224.798C197.093 224.259 197.517 223.812 198.056 223.801C198.595 223.789 199.042 224.213 199.053 224.752L199.076 225.91C199.088 226.449 198.664 226.896 198.125 226.907C198.113 226.919 198.102 226.919 198.102 226.919ZM197.999 223.044C197.471 223.044 197.047 222.62 197.024 222.093L196.99 220.935C196.978 220.396 197.402 219.949 197.941 219.937C198.469 219.926 198.927 220.35 198.939 220.889L198.973 222.047C198.985 222.585 198.56 223.033 198.022 223.044C198.022 223.044 198.01 223.044 197.999 223.044ZM197.907 219.169C197.38 219.169 196.955 218.745 196.932 218.218L196.898 217.06C196.887 216.521 197.311 216.074 197.838 216.062C198.377 216.051 198.824 216.475 198.836 217.002L198.87 218.172C198.881 218.711 198.457 219.158 197.918 219.169C197.918 219.169 197.918 219.169 197.907 219.169ZM197.804 215.294C197.276 215.294 196.852 214.882 196.829 214.354L196.795 213.196C196.783 212.658 197.208 212.21 197.735 212.199C197.746 212.199 197.758 212.199 197.758 212.199C198.285 212.199 198.709 212.612 198.732 213.139L198.767 214.297C198.778 214.836 198.354 215.283 197.827 215.294C197.815 215.294 197.815 215.294 197.804 215.294ZM197.701 211.419C197.173 211.419 196.749 211.007 196.726 210.479L196.692 209.321C196.68 208.783 197.093 208.335 197.632 208.324C198.171 208.313 198.618 208.725 198.629 209.264L198.664 210.422C198.675 210.961 198.262 211.408 197.724 211.419C197.712 211.419 197.701 211.419 197.701 211.419ZM197.586 207.544C197.059 207.544 196.634 207.132 196.611 206.604L196.577 205.447C196.566 204.908 196.978 204.461 197.517 204.449C198.067 204.438 198.503 204.85 198.515 205.389L198.549 206.547C198.56 207.086 198.148 207.533 197.609 207.544C197.597 207.544 197.586 207.544 197.586 207.544ZM197.46 203.67C196.932 203.67 196.508 203.257 196.485 202.73L196.451 201.572C196.428 201.033 196.852 200.586 197.391 200.574C197.918 200.563 198.377 200.975 198.388 201.514L198.423 202.672C198.434 203.211 198.022 203.658 197.483 203.67C197.483 203.67 197.471 203.67 197.46 203.67ZM197.334 199.795C196.818 199.795 196.382 199.382 196.359 198.855L196.325 197.697C196.302 197.158 196.726 196.711 197.265 196.688C197.792 196.665 198.251 197.089 198.274 197.628L198.308 198.786C198.331 199.325 197.907 199.772 197.368 199.783C197.357 199.795 197.345 199.795 197.334 199.795ZM197.196 195.92C196.68 195.92 196.245 195.507 196.222 194.98L196.176 193.822C196.153 193.283 196.577 192.836 197.116 192.813C197.655 192.79 198.102 193.214 198.125 193.753L198.171 194.911C198.194 195.45 197.769 195.897 197.231 195.92C197.219 195.92 197.208 195.92 197.196 195.92ZM197.059 192.045C196.543 192.045 196.107 191.632 196.084 191.105L196.038 189.947C196.015 189.408 196.439 188.961 196.967 188.938C197.494 188.915 197.953 189.339 197.976 189.867L198.022 191.025C198.045 191.563 197.62 192.01 197.093 192.033C197.081 192.045 197.07 192.045 197.059 192.045ZM196.91 188.17C196.394 188.17 195.958 187.757 195.935 187.241L195.889 186.084C195.866 185.545 196.279 185.098 196.818 185.075C197.357 185.052 197.804 185.464 197.827 186.003L197.873 187.161C197.895 187.7 197.471 188.147 196.944 188.17C196.932 188.17 196.921 188.17 196.91 188.17ZM196.749 184.295C196.233 184.295 195.797 183.882 195.774 183.366L195.729 182.209C195.706 181.67 196.118 181.223 196.657 181.2C197.208 181.177 197.643 181.59 197.666 182.128L197.712 183.286C197.735 183.825 197.322 184.272 196.783 184.295C196.772 184.295 196.76 184.295 196.749 184.295ZM196.577 180.42C196.061 180.42 195.625 180.019 195.603 179.492L195.545 178.334C195.522 177.795 195.935 177.348 196.474 177.313C197.001 177.29 197.46 177.703 197.494 178.242L197.552 179.4C197.574 179.939 197.162 180.386 196.623 180.42C196.611 180.42 196.589 180.42 196.577 180.42ZM196.394 176.545C195.878 176.545 195.453 176.144 195.419 175.617L195.362 174.459C195.339 173.92 195.752 173.461 196.279 173.438C196.806 173.404 197.276 173.828 197.299 174.356L197.357 175.513C197.38 176.052 196.967 176.499 196.439 176.534C196.428 176.545 196.417 176.545 196.394 176.545ZM196.199 172.682C195.683 172.682 195.259 172.281 195.224 171.765L195.167 170.607C195.144 170.068 195.545 169.609 196.084 169.587C196.623 169.564 197.081 169.965 197.104 170.504L197.162 171.662C197.185 172.2 196.783 172.659 196.245 172.682C196.233 172.67 196.222 172.682 196.199 172.682ZM195.992 168.807C195.476 168.807 195.052 168.406 195.018 167.89L194.949 166.732C194.915 166.193 195.327 165.735 195.866 165.712C196.405 165.677 196.864 166.09 196.887 166.629L196.955 167.787C196.99 168.325 196.577 168.784 196.038 168.807C196.027 168.807 196.004 168.807 195.992 168.807ZM195.763 164.932C195.259 164.932 194.823 164.531 194.789 164.015L194.72 162.857C194.685 162.318 195.098 161.86 195.625 161.825C196.164 161.791 196.623 162.204 196.657 162.731L196.726 163.889C196.76 164.428 196.348 164.886 195.82 164.921C195.809 164.932 195.786 164.932 195.763 164.932ZM195.522 161.069C195.018 161.069 194.582 160.679 194.559 160.163L194.479 159.005C194.445 158.466 194.846 158.008 195.385 157.973C195.912 157.939 196.382 158.34 196.417 158.879L196.497 160.037C196.531 160.576 196.13 161.034 195.591 161.069C195.568 161.069 195.545 161.069 195.522 161.069ZM195.27 157.194C194.766 157.194 194.341 156.804 194.307 156.288L194.227 155.13C194.192 154.591 194.594 154.133 195.132 154.098C195.66 154.064 196.13 154.465 196.164 155.004L196.245 156.162C196.279 156.701 195.878 157.159 195.339 157.194C195.316 157.194 195.293 157.194 195.27 157.194ZM194.983 153.33C194.479 153.33 194.055 152.941 194.02 152.436L193.929 151.278C193.883 150.739 194.284 150.281 194.823 150.235C195.35 150.189 195.82 150.59 195.866 151.129L195.958 152.287C196.004 152.826 195.602 153.284 195.064 153.33C195.041 153.33 195.006 153.33 194.983 153.33ZM194.685 149.467C194.181 149.467 193.757 149.077 193.722 148.573L193.631 147.415C193.585 146.876 193.986 146.406 194.513 146.36C195.052 146.314 195.522 146.715 195.557 147.243L195.648 148.401C195.694 148.939 195.293 149.41 194.754 149.444C194.743 149.467 194.708 149.467 194.685 149.467ZM194.353 145.603C193.86 145.603 193.436 145.225 193.39 144.721L193.287 143.563C193.241 143.024 193.631 142.554 194.169 142.508C194.697 142.462 195.178 142.852 195.224 143.391L195.327 144.549C195.373 145.088 194.983 145.558 194.445 145.603C194.41 145.603 194.387 145.603 194.353 145.603ZM194.009 141.74C193.516 141.74 193.092 141.362 193.046 140.857L192.931 139.699C192.874 139.161 193.264 138.691 193.803 138.633C194.341 138.576 194.811 138.966 194.869 139.504L194.983 140.662C195.029 141.201 194.639 141.671 194.112 141.717C194.066 141.74 194.032 141.74 194.009 141.74ZM193.619 137.888C193.126 137.888 192.702 137.521 192.656 137.017C192.622 136.627 192.576 136.249 192.53 135.859C192.473 135.32 192.862 134.85 193.39 134.793C193.917 134.735 194.399 135.125 194.456 135.653C194.502 136.042 194.536 136.421 194.582 136.81C194.639 137.349 194.25 137.819 193.711 137.877C193.688 137.888 193.653 137.888 193.619 137.888ZM193.195 134.036C192.702 134.036 192.289 133.669 192.232 133.176C192.186 132.786 192.14 132.408 192.094 132.03C192.037 131.502 192.415 131.01 192.943 130.952C193.481 130.883 193.963 131.273 194.02 131.801C194.066 132.19 194.112 132.569 194.158 132.958C194.215 133.486 193.837 133.967 193.298 134.036C193.275 134.036 193.229 134.036 193.195 134.036ZM192.736 130.184C192.255 130.184 191.831 129.829 191.773 129.336C191.727 128.946 191.682 128.568 191.624 128.189C191.555 127.662 191.934 127.169 192.461 127.1C193 127.031 193.481 127.41 193.55 127.937C193.596 128.315 193.653 128.705 193.699 129.095C193.768 129.622 193.39 130.115 192.851 130.184C192.817 130.184 192.782 130.184 192.736 130.184ZM192.232 126.344C191.75 126.344 191.338 125.988 191.269 125.507C191.211 125.117 191.166 124.739 191.108 124.36C191.028 123.833 191.406 123.34 191.934 123.26C192.461 123.191 192.954 123.558 193.034 124.085C193.092 124.463 193.138 124.853 193.195 125.243C193.264 125.77 192.897 126.263 192.369 126.332C192.324 126.344 192.278 126.344 192.232 126.344ZM191.682 122.503C191.211 122.503 190.799 122.159 190.718 121.678C190.661 121.299 190.604 120.91 190.546 120.531C190.466 120.004 190.822 119.499 191.361 119.419C191.888 119.339 192.392 119.694 192.473 120.233C192.53 120.611 192.587 121.001 192.645 121.391C192.725 121.918 192.358 122.411 191.831 122.492C191.773 122.503 191.727 122.503 191.682 122.503ZM191.074 118.674C190.604 118.674 190.191 118.342 190.122 117.86C190.054 117.482 189.996 117.092 189.927 116.725C189.836 116.198 190.191 115.693 190.718 115.602C191.246 115.51 191.75 115.865 191.842 116.393C191.911 116.771 191.968 117.161 192.037 117.539C192.129 118.066 191.773 118.571 191.234 118.663C191.177 118.674 191.12 118.674 191.074 118.674ZM190.397 114.856C189.939 114.856 189.526 114.535 189.446 114.065C189.377 113.687 189.308 113.309 189.228 112.93C189.125 112.403 189.469 111.899 189.996 111.796C190.524 111.692 191.028 112.036 191.131 112.564C191.2 112.942 191.28 113.332 191.349 113.71C191.452 114.237 191.097 114.742 190.569 114.845C190.512 114.856 190.455 114.856 190.397 114.856ZM189.641 111.062C189.194 111.062 188.792 110.752 188.689 110.294C188.609 109.915 188.529 109.537 188.448 109.159C188.334 108.631 188.666 108.116 189.194 108.001C189.721 107.886 190.237 108.219 190.352 108.746C190.432 109.124 190.512 109.503 190.592 109.892C190.707 110.42 190.363 110.936 189.836 111.039C189.778 111.05 189.71 111.062 189.641 111.062ZM188.804 107.279C188.368 107.279 187.967 106.981 187.864 106.533C187.772 106.155 187.692 105.777 187.6 105.41C187.474 104.894 187.795 104.367 188.311 104.241C188.827 104.115 189.354 104.435 189.48 104.951C189.572 105.33 189.664 105.708 189.755 106.086C189.882 106.614 189.549 107.13 189.033 107.256C188.953 107.267 188.884 107.279 188.804 107.279ZM187.875 103.518C187.451 103.518 187.05 103.232 186.935 102.796C186.832 102.418 186.74 102.051 186.637 101.684C186.499 101.168 186.797 100.629 187.313 100.492C187.841 100.354 188.368 100.652 188.506 101.168C188.609 101.547 188.712 101.913 188.815 102.303C188.953 102.819 188.643 103.358 188.127 103.495C188.036 103.507 187.955 103.518 187.875 103.518ZM186.82 99.7925C186.408 99.7925 186.018 99.5174 185.892 99.1046C185.777 98.7378 185.662 98.3709 185.548 98.0041C185.387 97.4882 185.674 96.9494 186.178 96.7889C186.694 96.6284 187.233 96.915 187.394 97.4194C187.508 97.7863 187.623 98.1646 187.738 98.5429C187.898 99.0588 187.6 99.5976 187.084 99.7581C187.004 99.7696 186.912 99.7925 186.82 99.7925ZM185.628 96.101C185.227 96.101 184.848 95.8488 184.711 95.4476C184.585 95.0807 184.459 94.7253 184.333 94.3699C184.149 93.8655 184.413 93.3038 184.917 93.1318C185.422 92.9484 185.983 93.2121 186.167 93.7165C186.304 94.0833 186.431 94.4502 186.557 94.8285C186.729 95.3329 186.465 95.8832 185.961 96.0666C185.846 96.0896 185.731 96.101 185.628 96.101ZM184.275 92.4783C183.885 92.4783 183.53 92.2491 183.369 91.8707C183.22 91.5154 183.083 91.16 182.934 90.816C182.727 90.3231 182.957 89.7499 183.45 89.5435C183.943 89.3372 184.516 89.5664 184.722 90.0594C184.871 90.4148 185.02 90.7816 185.169 91.1485C185.364 91.6415 185.124 92.2147 184.631 92.4096C184.516 92.4554 184.39 92.4783 184.275 92.4783ZM182.727 88.9244C182.361 88.9244 182.017 88.7181 181.845 88.3627C181.684 88.0188 181.512 87.6749 181.352 87.3309C181.111 86.8494 181.306 86.2648 181.787 86.024C182.269 85.7833 182.854 85.9782 183.094 86.4596C183.266 86.8036 183.438 87.159 183.61 87.5258C183.84 88.0073 183.633 88.592 183.14 88.8213C183.003 88.8901 182.865 88.9244 182.727 88.9244ZM180.962 85.4852C180.618 85.4852 180.297 85.3018 180.113 84.9922C179.93 84.6598 179.735 84.3273 179.54 84.0063C179.265 83.5477 179.414 82.9516 179.884 82.6765C180.343 82.4013 180.939 82.5504 181.214 83.0204C181.409 83.3529 181.615 83.6968 181.81 84.0407C182.074 84.5107 181.902 85.0954 181.443 85.3591C181.283 85.4393 181.122 85.4852 180.962 85.4852ZM178.921 82.195C178.612 82.195 178.302 82.0459 178.119 81.7708C177.901 81.4498 177.683 81.1403 177.465 80.8422C177.155 80.4066 177.247 79.7989 177.683 79.4894C178.119 79.1799 178.726 79.2716 179.036 79.7072C179.265 80.0282 179.494 80.3492 179.712 80.6817C180.01 81.1288 179.896 81.7249 179.46 82.0345C179.299 82.1376 179.116 82.195 178.921 82.195ZM176.605 79.0996C176.33 79.0996 176.055 78.985 175.86 78.7557C175.619 78.4691 175.367 78.1825 175.126 77.8959C174.771 77.4946 174.805 76.887 175.206 76.5202C175.608 76.1648 176.215 76.1992 176.582 76.6004C176.846 76.8985 177.11 77.1966 177.362 77.5061C177.706 77.9188 177.648 78.5264 177.236 78.8703C177.041 79.0308 176.823 79.0996 176.605 79.0996ZM173.957 76.2909C173.716 76.2909 173.475 76.1992 173.292 76.0272C173.017 75.7636 172.742 75.5113 172.466 75.2706C172.065 74.9152 172.031 74.2961 172.386 73.8949C172.742 73.4936 173.361 73.4592 173.762 73.8146C174.06 74.0783 174.358 74.342 174.645 74.6171C175.034 74.984 175.046 75.6031 174.679 75.9928C174.473 76.1877 174.22 76.2909 173.957 76.2909ZM170.999 73.8032C170.792 73.8032 170.598 73.7458 170.426 73.6083C170.128 73.3905 169.818 73.1726 169.508 72.9548C169.061 72.6568 168.947 72.0491 169.256 71.602C169.554 71.1549 170.162 71.0403 170.609 71.3498C170.942 71.5791 171.263 71.8084 171.584 72.0491C172.019 72.3701 172.111 72.9778 171.79 73.4019C171.595 73.6656 171.297 73.8032 170.999 73.8032ZM167.754 71.7052C167.594 71.7052 167.433 71.6594 167.284 71.5791C166.963 71.3957 166.631 71.2237 166.298 71.0518C165.817 70.811 165.633 70.2263 165.874 69.7448C166.115 69.2634 166.7 69.0799 167.181 69.3207C167.536 69.5041 167.892 69.6875 168.236 69.8824C168.706 70.1461 168.866 70.7422 168.603 71.2008C168.431 71.5333 168.098 71.7052 167.754 71.7052ZM164.28 70.0315C164.154 70.0315 164.028 70.0085 163.914 69.9627C163.57 69.8251 163.214 69.6875 162.859 69.55C162.354 69.3665 162.102 68.8048 162.286 68.3004C162.469 67.7959 163.031 67.5437 163.535 67.7272C163.914 67.8647 164.28 68.0137 164.647 68.1628C165.14 68.3691 165.381 68.9309 165.175 69.4353C165.026 69.8022 164.67 70.0315 164.28 70.0315ZM160.635 68.7475C160.543 68.7475 160.451 68.736 160.359 68.7131C160.004 68.6099 159.637 68.5067 159.27 68.415C158.754 68.2774 158.445 67.7501 158.571 67.2342C158.708 66.7183 159.236 66.4088 159.752 66.5349C160.142 66.6381 160.52 66.7412 160.898 66.8559C161.414 67.0049 161.712 67.5437 161.563 68.0596C161.449 68.4723 161.059 68.7475 160.635 68.7475ZM156.874 67.8418C156.817 67.8418 156.748 67.8303 156.691 67.8189C156.324 67.7501 155.945 67.6813 155.567 67.6125C155.04 67.5208 154.684 67.0164 154.776 66.489C154.868 65.9617 155.372 65.6063 155.9 65.698C156.289 65.7668 156.679 65.8356 157.069 65.9158C157.596 66.019 157.94 66.5234 157.837 67.0508C157.745 67.5208 157.333 67.8418 156.874 67.8418ZM153.056 67.2456C153.022 67.2456 152.976 67.2457 152.942 67.2342C152.563 67.1883 152.185 67.1539 151.807 67.1081C151.268 67.0508 150.878 66.5807 150.935 66.0419C150.993 65.5031 151.463 65.1133 152.002 65.1706C152.391 65.205 152.793 65.2509 153.171 65.2967C153.698 65.3655 154.088 65.847 154.019 66.3744C153.962 66.8788 153.538 67.2456 153.056 67.2456Z" fill="white"/>
<path d="M184.173 238.796C183.634 238.796 183.198 238.36 183.198 237.821V237.225C183.198 236.686 183.634 236.262 184.173 236.262C184.712 236.262 185.147 236.698 185.136 237.237V237.833C185.136 238.36 184.7 238.796 184.173 238.796ZM184.184 235.483C183.645 235.483 183.21 235.047 183.21 234.508V233.35H184.184L185.159 233.362V234.52C185.159 235.047 184.723 235.483 184.184 235.483ZM184.207 231.608C184.196 231.608 184.196 231.608 184.207 231.608C183.668 231.608 183.233 231.172 183.233 230.633V229.476C183.233 228.937 183.668 228.513 184.207 228.513C184.746 228.513 185.182 228.948 185.17 229.487V230.645C185.17 231.172 184.735 231.608 184.207 231.608ZM184.219 227.722C183.68 227.722 183.244 227.286 183.244 226.747V225.589C183.244 225.05 183.68 224.626 184.219 224.626C184.757 224.626 185.193 225.062 185.182 225.601V226.759C185.182 227.297 184.746 227.722 184.219 227.722ZM184.23 223.847C183.691 223.847 183.256 223.411 183.256 222.872V221.714C183.256 221.175 183.691 220.751 184.23 220.751C184.769 220.751 185.205 221.187 185.193 221.726V222.884C185.205 223.422 184.769 223.847 184.23 223.847ZM184.242 219.972C183.703 219.972 183.267 219.536 183.267 218.997V217.839C183.267 217.301 183.703 216.865 184.242 216.865C184.78 216.865 185.216 217.301 185.216 217.839V218.997C185.205 219.548 184.78 219.972 184.242 219.972ZM184.242 216.097C183.703 216.097 183.267 215.661 183.267 215.122V213.964C183.267 213.426 183.703 212.99 184.242 212.99C184.78 212.99 185.216 213.426 185.216 213.964V215.122C185.216 215.661 184.78 216.097 184.242 216.097ZM184.253 212.222C183.714 212.222 183.278 211.786 183.278 211.247V210.09C183.278 209.551 183.714 209.115 184.253 209.115C184.792 209.115 185.228 209.551 185.228 210.09V211.247C185.216 211.786 184.78 212.222 184.253 212.222ZM184.253 208.347C183.714 208.347 183.278 207.911 183.278 207.373V206.215C183.278 205.676 183.714 205.24 184.253 205.24C184.792 205.24 185.228 205.676 185.228 206.215V207.373C185.216 207.911 184.78 208.347 184.253 208.347ZM184.242 204.472C183.703 204.472 183.267 204.036 183.267 203.498V202.34C183.267 201.801 183.703 201.365 184.23 201.365C184.769 201.365 185.205 201.801 185.205 202.328V203.498C185.216 204.036 184.78 204.472 184.242 204.472ZM184.23 200.597C183.691 200.597 183.256 200.162 183.256 199.634V198.476C183.256 197.938 183.691 197.502 184.219 197.502C184.757 197.502 185.182 197.938 185.193 198.465V199.634C185.205 200.15 184.769 200.597 184.23 200.597ZM184.207 196.722C183.668 196.722 183.244 196.287 183.233 195.759L183.221 194.601C183.221 194.063 183.645 193.627 184.184 193.627C184.184 193.627 184.184 193.627 184.196 193.627C184.735 193.627 185.159 194.063 185.17 194.59L185.182 195.759C185.182 196.275 184.757 196.711 184.207 196.722C184.219 196.722 184.207 196.722 184.207 196.722ZM184.184 192.836C183.645 192.836 183.221 192.4 183.21 191.873L183.198 190.715C183.198 190.176 183.622 189.741 184.161 189.741H184.173C184.7 189.741 185.136 190.165 185.147 190.704L185.159 191.873C185.159 192.4 184.723 192.836 184.184 192.836ZM184.15 188.961C183.622 188.961 183.187 188.537 183.175 187.998L183.164 186.84C183.152 186.301 183.588 185.866 184.127 185.854H184.138C184.666 185.854 185.101 186.278 185.113 186.817L185.124 187.987C185.124 188.514 184.689 188.961 184.15 188.961ZM184.104 185.086C183.577 185.086 183.141 184.662 183.129 184.123L183.118 182.965C183.106 182.427 183.542 181.991 184.081 181.979C184.608 181.968 185.056 182.404 185.067 182.942L185.078 184.1C185.09 184.639 184.654 185.075 184.115 185.086C184.104 185.086 184.104 185.086 184.104 185.086ZM184.047 181.211C183.519 181.211 183.084 180.787 183.072 180.26L183.049 179.102C183.038 178.563 183.462 178.127 184.001 178.116C184.54 178.116 184.975 178.529 184.987 179.068L185.01 180.237C185.021 180.776 184.585 181.211 184.058 181.223C184.058 181.211 184.047 181.211 184.047 181.211ZM183.978 177.336C183.45 177.336 183.015 176.912 183.003 176.385L182.98 175.227C182.969 174.688 183.393 174.253 183.932 174.241C184.471 174.241 184.918 174.654 184.918 175.193L184.941 176.362C184.952 176.901 184.528 177.336 183.989 177.348C183.989 177.325 183.978 177.336 183.978 177.336ZM183.886 173.45C183.359 173.45 182.923 173.026 182.912 172.499L182.889 171.341C182.877 170.802 183.301 170.355 183.84 170.343C183.852 170.343 183.852 170.343 183.863 170.343C184.391 170.343 184.826 170.767 184.838 171.295L184.861 172.464C184.872 173.003 184.448 173.45 183.909 173.462C183.909 173.45 183.898 173.45 183.886 173.45ZM183.794 169.575C183.267 169.575 182.843 169.162 182.82 168.635L182.785 167.477C182.774 166.938 183.198 166.491 183.726 166.48C184.276 166.468 184.712 166.893 184.723 167.42L184.757 168.589C184.769 169.128 184.345 169.575 183.817 169.587C183.806 169.575 183.806 169.575 183.794 169.575ZM183.68 165.7C183.152 165.7 182.728 165.288 182.705 164.76L182.671 163.602C182.648 163.063 183.072 162.616 183.611 162.593C184.138 162.571 184.597 162.995 184.608 163.534L184.643 164.703C184.654 165.242 184.242 165.689 183.703 165.7C183.703 165.7 183.691 165.7 183.68 165.7ZM183.542 161.825C183.026 161.825 182.591 161.413 182.568 160.885L182.522 159.727C182.499 159.189 182.923 158.742 183.45 158.719C183.989 158.707 184.436 159.12 184.459 159.647L184.505 160.817C184.528 161.355 184.104 161.802 183.565 161.825C183.565 161.825 183.554 161.825 183.542 161.825ZM183.393 157.95C182.877 157.95 182.442 157.538 182.419 157.022L182.373 155.864C182.35 155.325 182.763 154.878 183.301 154.855C183.852 154.821 184.287 155.245 184.31 155.784L184.356 156.953C184.379 157.492 183.966 157.939 183.428 157.962C183.416 157.95 183.405 157.95 183.393 157.95ZM183.21 154.076C182.694 154.076 182.27 153.674 182.235 153.147L182.178 151.989C182.155 151.45 182.568 150.992 183.095 150.969C183.645 150.946 184.092 151.359 184.115 151.886L184.173 153.044C184.196 153.583 183.783 154.041 183.256 154.064C183.244 154.076 183.221 154.076 183.21 154.076ZM183.003 150.212C182.487 150.212 182.063 149.811 182.029 149.295L181.96 148.137C181.926 147.598 182.338 147.14 182.877 147.105C183.428 147.071 183.875 147.484 183.909 148.023L183.978 149.192C184.012 149.731 183.599 150.189 183.061 150.212C183.038 150.201 183.026 150.212 183.003 150.212ZM182.774 146.337C182.27 146.337 181.834 145.947 181.811 145.432L181.731 144.274C181.696 143.735 182.098 143.276 182.636 143.242C183.175 143.208 183.634 143.609 183.668 144.148C183.691 144.537 183.714 144.927 183.749 145.317C183.783 145.856 183.382 146.314 182.843 146.349C182.82 146.337 182.797 146.337 182.774 146.337ZM182.51 142.462C182.006 142.462 181.582 142.073 181.547 141.557C181.524 141.167 181.49 140.789 181.467 140.399C181.421 139.86 181.822 139.401 182.361 139.356C182.9 139.31 183.359 139.711 183.405 140.25C183.439 140.64 183.462 141.029 183.496 141.408C183.531 141.946 183.129 142.405 182.602 142.451C182.556 142.462 182.533 142.462 182.51 142.462ZM182.212 138.599C181.708 138.599 181.284 138.209 181.249 137.705C181.215 137.315 181.18 136.937 181.157 136.547C181.112 136.008 181.513 135.538 182.04 135.492C182.579 135.446 183.049 135.848 183.095 136.375C183.129 136.765 183.164 137.143 183.198 137.533C183.244 138.072 182.843 138.542 182.304 138.576C182.258 138.599 182.235 138.599 182.212 138.599ZM181.868 134.736C181.375 134.736 180.951 134.357 180.905 133.853L180.791 132.695C180.733 132.156 181.135 131.686 181.662 131.64C182.189 131.583 182.671 131.984 182.717 132.511L182.831 133.669C182.877 134.208 182.487 134.678 181.96 134.724C181.926 134.736 181.903 134.736 181.868 134.736ZM181.49 130.884C180.997 130.884 180.573 130.517 180.527 130.012C180.481 129.622 180.447 129.244 180.401 128.854C180.343 128.316 180.722 127.846 181.261 127.788C181.799 127.731 182.27 128.109 182.327 128.648C182.373 129.038 182.407 129.416 182.453 129.806C182.51 130.345 182.121 130.815 181.593 130.872C181.559 130.884 181.524 130.884 181.49 130.884ZM181.054 127.032C180.573 127.032 180.149 126.665 180.091 126.172C180.045 125.782 179.999 125.404 179.954 125.025C179.885 124.498 180.263 124.005 180.802 123.948C181.329 123.879 181.822 124.257 181.88 124.796C181.926 125.186 181.971 125.564 182.017 125.954C182.086 126.481 181.696 126.974 181.169 127.032C181.135 127.02 181.089 127.032 181.054 127.032ZM180.561 123.18C180.08 123.18 179.667 122.824 179.598 122.343C179.541 121.964 179.495 121.575 179.438 121.196C179.357 120.669 179.736 120.176 180.263 120.096C180.802 120.027 181.284 120.394 181.364 120.921C181.421 121.311 181.467 121.689 181.524 122.079C181.593 122.606 181.226 123.099 180.687 123.168C180.653 123.18 180.607 123.18 180.561 123.18ZM180.011 119.339C179.541 119.339 179.128 118.995 179.048 118.514C178.991 118.135 178.933 117.746 178.864 117.367C178.784 116.84 179.14 116.335 179.667 116.255C180.194 116.175 180.699 116.53 180.779 117.058C180.836 117.436 180.905 117.826 180.963 118.216C181.043 118.743 180.676 119.247 180.149 119.328C180.114 119.339 180.057 119.339 180.011 119.339ZM179.392 115.522C178.933 115.522 178.521 115.189 178.44 114.719C178.371 114.341 178.303 113.962 178.234 113.584C178.142 113.057 178.486 112.552 179.014 112.461C179.541 112.369 180.045 112.713 180.137 113.24C180.206 113.618 180.275 114.008 180.343 114.387C180.435 114.914 180.08 115.418 179.552 115.51C179.495 115.51 179.438 115.522 179.392 115.522ZM178.681 111.704C178.222 111.704 177.821 111.383 177.729 110.924C177.649 110.546 177.58 110.168 177.5 109.789C177.397 109.262 177.729 108.746 178.257 108.643C178.784 108.54 179.3 108.872 179.403 109.4C179.484 109.778 179.564 110.168 179.633 110.546C179.736 111.073 179.392 111.578 178.864 111.693C178.807 111.704 178.738 111.704 178.681 111.704ZM177.878 107.909C177.431 107.909 177.03 107.6 176.927 107.153C176.847 106.774 176.755 106.396 176.663 106.029C176.537 105.502 176.87 104.986 177.385 104.86C177.913 104.734 178.429 105.066 178.555 105.582C178.647 105.96 178.727 106.339 178.819 106.729C178.933 107.256 178.612 107.772 178.085 107.886C178.028 107.909 177.947 107.909 177.878 107.909ZM176.973 104.138C176.537 104.138 176.147 103.851 176.033 103.404C175.941 103.026 175.838 102.659 175.735 102.292C175.597 101.776 175.906 101.237 176.422 101.1C176.938 100.962 177.477 101.272 177.615 101.787C177.718 102.166 177.81 102.544 177.913 102.922C178.05 103.438 177.729 103.977 177.213 104.103C177.133 104.138 177.053 104.138 176.973 104.138ZM175.941 100.412C175.517 100.412 175.138 100.137 175.012 99.7124C174.898 99.3456 174.794 98.9787 174.68 98.6119C174.519 98.096 174.806 97.5572 175.322 97.3967C175.838 97.2362 176.377 97.5228 176.537 98.0387C176.652 98.4055 176.766 98.7838 176.881 99.1621C177.03 99.678 176.743 100.217 176.228 100.366C176.124 100.389 176.033 100.412 175.941 100.412ZM174.771 96.7088C174.37 96.7088 173.992 96.4566 173.854 96.0554C173.728 95.6885 173.602 95.3331 173.476 94.9663C173.292 94.4618 173.556 93.9001 174.061 93.7281C174.565 93.5447 175.127 93.8084 175.299 94.3128C175.425 94.6797 175.563 95.0465 175.689 95.4248C175.861 95.9293 175.597 96.4795 175.081 96.663C174.978 96.6974 174.875 96.7088 174.771 96.7088ZM173.419 93.0747C173.029 93.0747 172.673 92.8454 172.513 92.4671C172.364 92.1117 172.226 91.7563 172.077 91.4009C171.871 90.9079 172.1 90.3347 172.593 90.1284C173.086 89.922 173.659 90.1513 173.866 90.6443C174.015 90.9997 174.164 91.3665 174.313 91.7334C174.508 92.2263 174.267 92.7995 173.774 92.9944C173.659 93.0517 173.545 93.0747 173.419 93.0747ZM171.882 89.5208C171.515 89.5208 171.171 89.3144 170.999 88.959C170.839 88.6151 170.667 88.2712 170.506 87.9272C170.266 87.4458 170.461 86.8611 170.942 86.6203C171.424 86.3796 172.008 86.5745 172.249 87.056C172.421 87.4114 172.593 87.7553 172.765 88.1221C172.994 88.6036 172.788 89.1883 172.306 89.4176C172.157 89.4978 172.02 89.5208 171.882 89.5208ZM170.105 86.0815C169.761 86.0815 169.44 85.8981 169.257 85.5886C169.073 85.2561 168.878 84.9236 168.684 84.6026C168.408 84.1441 168.557 83.5479 169.016 83.2728C169.475 82.9977 170.071 83.1467 170.346 83.6053C170.552 83.9377 170.747 84.2816 170.942 84.637C171.206 85.1071 171.045 85.6917 170.575 85.9554C170.426 86.0471 170.266 86.0815 170.105 86.0815ZM168.064 82.7913C167.755 82.7913 167.445 82.6423 167.262 82.3671C167.044 82.0576 166.826 81.7481 166.608 81.4385C166.287 81.0029 166.391 80.3953 166.826 80.0857C167.262 79.7647 167.87 79.8679 168.179 80.3036C168.408 80.6246 168.638 80.9456 168.867 81.278C169.165 81.7251 169.062 82.3213 168.615 82.6308C168.443 82.734 168.248 82.7913 168.064 82.7913ZM165.714 79.7189C165.439 79.7189 165.164 79.6043 164.969 79.375C164.728 79.0884 164.476 78.8018 164.224 78.5266C163.857 78.1254 163.891 77.5178 164.281 77.1509C164.682 76.7841 165.29 76.8185 165.657 77.2082C165.92 77.5063 166.184 77.8044 166.448 78.1024C166.792 78.5152 166.746 79.1228 166.333 79.4667C166.161 79.6387 165.943 79.7189 165.714 79.7189ZM163.043 76.9216C162.802 76.9216 162.573 76.8414 162.389 76.6694C162.114 76.4172 161.839 76.165 161.552 75.9243C161.14 75.5803 161.094 74.9613 161.438 74.56C161.782 74.1473 162.401 74.1014 162.802 74.4454C163.1 74.709 163.41 74.9727 163.696 75.2364C164.086 75.6033 164.109 76.2109 163.754 76.6121C163.559 76.8185 163.306 76.9216 163.043 76.9216ZM160.027 74.5027C159.833 74.5027 159.638 74.4454 159.477 74.3307C159.168 74.1129 158.858 73.9066 158.549 73.7117C158.09 73.4251 157.964 72.8289 158.25 72.3704C158.537 71.9118 159.133 71.7857 159.592 72.0723C159.924 72.2901 160.268 72.5079 160.589 72.7372C161.025 73.0467 161.14 73.6543 160.83 74.09C160.647 74.3537 160.337 74.5027 160.027 74.5027ZM156.714 72.5309C156.565 72.5309 156.416 72.4965 156.278 72.4277C155.946 72.2557 155.613 72.1067 155.27 71.9462C154.777 71.7284 154.559 71.1551 154.777 70.6622C154.994 70.1692 155.568 69.9514 156.061 70.1692C156.427 70.3297 156.783 70.5017 157.15 70.6851C157.631 70.9259 157.826 71.5105 157.585 71.992C157.413 72.336 157.081 72.5309 156.714 72.5309ZM153.149 71.052C153.045 71.052 152.942 71.0405 152.839 71.0061C152.484 70.8915 152.128 70.7768 151.773 70.6737C151.257 70.5246 150.959 69.9858 151.108 69.4699C151.257 68.954 151.796 68.656 152.312 68.805C152.701 68.9196 153.08 69.0343 153.458 69.1604C153.963 69.3323 154.238 69.8826 154.077 70.387C153.94 70.7998 153.561 71.052 153.149 71.052Z" fill="white"/>
<path d="M239.477 241.434H128.853C128.371 241.434 127.97 241.044 127.97 240.551V228.548C127.97 228.066 128.36 227.665 128.853 227.665H239.477C239.959 227.665 240.36 228.055 240.36 228.548V240.551C240.36 241.044 239.97 241.434 239.477 241.434Z" fill="url(#paint8_linear)"/>
<path d="M88.6133 49.4883C88.6133 49.4883 87.4782 79.0085 66.8643 88.4091L76.0248 94.806C76.0248 94.806 94.598 73.884 91.7891 55.1057L88.6133 49.4883Z" fill="url(#paint9_linear)"/>
<path d="M134.495 40.168L118.949 15.5315L120.84 14.3393C121.276 14.0641 121.861 14.1902 122.136 14.6373L136.674 37.6803C136.949 38.1159 136.823 38.7006 136.375 38.9757L134.495 40.168Z" fill="url(#paint10_linear)"/>
<path d="M120.497 53.0879L148.804 64.5979L147.715 68.2779L99.0806 71.7401L120.497 53.0879Z" fill="url(#paint11_linear)"/>
<path d="M80.1058 29.9302C80.0829 29.8843 80.06 29.8499 80.0256 29.8041L76.5632 23.6134C74.4307 19.8073 76.0816 14.8318 80.2205 12.5161L92.3848 5.71779C96.5351 3.40203 101.637 4.60577 103.758 8.41188L107.22 14.6026C107.954 15.9209 107.484 17.5832 106.166 18.3284C104.847 19.0621 103.185 18.5921 102.44 17.2737L98.9771 11.083C98.3351 9.93662 96.5351 9.66148 95.0446 10.4984L82.8803 17.2966C81.3899 18.1335 80.6791 19.8073 81.3211 20.9537L84.7835 27.1444C85.5173 28.4628 85.0472 30.1251 83.7287 30.8703C82.4791 31.5696 80.8854 31.1454 80.1058 29.9302Z" fill="url(#paint12_linear)"/>
<path d="M137.235 42.9752L117.94 12.3888C116.816 10.6004 114.489 10.0043 112.643 11.0246L79.8193 29.2182C79.7505 29.2526 79.6931 29.2985 79.6244 29.3329L75.3365 32.0384C73.4792 33.2078 72.9174 35.6726 74.0983 37.5298L95.6638 71.7159C96.8332 73.5731 99.2981 74.1349 101.155 72.954L105.443 70.2485C105.512 70.2026 105.569 70.1683 105.627 70.1224L136.181 48.329C137.9 47.1138 138.371 44.7637 137.235 42.9752Z" fill="url(#paint13_linear)"/>
<path d="M155.12 75.6491L156.886 58.407C156.909 58.1319 156.714 57.8912 156.439 57.8568L155.315 57.7421C155.212 57.7307 155.097 57.7536 155.006 57.8109L148.184 64.2881L147.691 68.3465L153.16 75.844C153.24 75.9128 153.343 75.9586 153.446 75.9701L154.57 76.0847C154.845 76.1306 155.097 75.9242 155.12 75.6491Z" fill="url(#paint14_linear)"/>
<path d="M87.6617 52.0335C87.4668 52.0335 87.2833 51.9418 87.1687 51.7583L78.3866 37.8408C77.928 37.1071 77.7904 36.2359 77.9968 35.399C78.2146 34.5621 78.7535 33.8628 79.5102 33.4386L102.967 20.4038C103.242 20.2433 103.598 20.3465 103.758 20.6331C103.919 20.9083 103.816 21.2636 103.529 21.4241L80.072 34.4589C79.5904 34.7226 79.2579 35.1582 79.1204 35.6856C78.9828 36.2129 79.0745 36.7632 79.3611 37.2218L88.1432 51.1393C88.3152 51.4144 88.2349 51.7698 87.9598 51.9418C87.8795 51.9991 87.7649 52.0335 87.6617 52.0335Z" fill="#BDD0FB"/>
<path d="M74.4073 149.776C74.4073 149.776 62.3577 176.041 56.0291 186.932C56.0291 186.932 54.768 193.776 56.0291 195.931L57.0953 196.401L52.0966 196.252C52.0966 196.252 51.6495 187.046 52.0049 186.53C52.3489 186.014 53.0482 186.049 53.0482 186.049C53.0482 186.049 55.1922 169.082 61.3947 165.459L67.4022 144.755L74.4073 149.776Z" fill="url(#paint15_linear)"/>
<path d="M59.2394 197.697C59.2509 197.823 55.3416 197.766 53.2207 197.72C52.4411 197.709 51.7647 197.158 51.6042 196.39L49.9992 187.964C49.8502 187.162 50.3546 186.382 51.1456 186.21L52.0399 186.004C52.0399 186.004 53.3124 187.758 52.9111 189.409C52.5099 191.06 52.1545 195.324 53.1633 195.829C54.1837 196.322 57.0956 196.413 57.0956 196.413C57.0956 196.413 59.1706 196.608 59.2394 197.697Z" fill="url(#paint16_linear)"/>
<path d="M62.0715 162.915L68.6065 126.734L80.6675 134.266C80.6675 134.266 72.5619 156.931 68.102 165.919C63.6537 174.907 57.5543 185.007 57.5543 185.007C57.5543 185.007 55.548 185.511 53.0372 182.496C53.0257 182.507 54.5391 168.945 62.0715 162.915Z" fill="url(#paint17_linear)"/>
<path d="M85.8371 197.848C86.2269 198.077 86.0664 198.673 85.6193 198.673C82.0655 198.639 74.1094 198.524 73.3986 198.226C72.4815 197.848 73.731 194.569 75.038 193.457L82.2833 195.819L85.8371 197.848Z" fill="url(#paint18_linear)"/>
<path d="M88.0853 148.104C88.0853 148.104 80.3011 185.786 78.0885 193.135L83.3047 196.402C83.3047 196.402 80.6909 195.955 78.7535 195.817C76.816 195.68 75.0391 193.456 75.0391 193.456L75.6581 192.458C75.6581 192.458 77.607 154.982 77.137 150.729L88.0853 148.104Z" fill="url(#paint19_linear)"/>
<path d="M91.2725 88.3636C88.2916 89.189 78.168 91.8487 71.8623 91.7456L75.7375 113.619L75.4279 117.185L88.0738 117.127C88.0738 117.127 91.6279 108.862 94.4368 104.746C95.2508 103.554 94.6432 102.132 94.1846 100.768L94.8152 100.344C95.4572 99.9196 95.7324 99.1171 95.4916 98.3834L92.419 88.9712C92.247 88.5012 91.754 88.226 91.2725 88.3636Z" fill="url(#paint20_linear)"/>
<path d="M89.0715 115.27L88.8881 116.898C88.8537 117.231 88.8881 117.563 89.0027 117.884C89.5989 119.581 91.5021 125.966 90.218 135.78C90.218 135.78 82.8919 138.611 75.176 136.445C70.8308 135.229 68.0677 130.976 68.6983 126.517C68.8702 125.256 69.1913 124.258 69.3174 123.846C70.3263 120.613 73.4677 118.366 74.8091 117.54C75.1874 117.3 75.4282 116.887 75.4511 116.44L75.5314 114.823C75.5314 114.835 85.7352 116.669 89.0715 115.27Z" fill="url(#paint21_linear)"/>
<path d="M84.1301 90.1286C84.176 90.0713 81.4933 82.0234 81.4933 82.0234L77.6527 82.3674L76.1509 91.4928C76.1394 91.5043 82.1697 92.7195 84.1301 90.1286Z" fill="url(#paint22_linear)"/>
<path d="M78.5576 69.3443C78.8098 69.5048 86.766 72.7951 85.0578 81.0493C84.9546 81.5422 84.6336 81.9549 84.1751 82.1498C83.0057 82.6657 80.4951 83.5599 77.4914 83.2619C73.3185 82.8377 70.59 75.5694 70.7047 73.4485C70.8308 71.3391 76.024 67.7623 78.5576 69.3443Z" fill="url(#paint23_linear)"/>
<path d="M91.9264 92.9483C91.5137 91.8707 92.2703 90.7128 93.4283 90.6555C96.3633 90.5179 101.454 89.6008 105.776 85.2788C108.573 82.4816 109.319 72.3014 109.319 72.3014C109.319 72.3014 109.903 67.5781 111.084 67.5781C112.265 67.5781 111.084 70.5244 111.084 70.5244C111.084 70.5244 114.031 72.2899 116.989 69.9397C119.935 67.5781 116.404 73.4822 113.446 74.663C113.446 74.663 114.581 97.9123 95.1709 98.2792C94.4601 98.2907 93.8181 97.855 93.5544 97.1901L91.9264 92.9483Z" fill="url(#paint24_linear)"/>
<path d="M81.2637 86.0245C81.2637 84.4654 80.9427 82.9865 80.3579 81.6567C79.693 80.1434 79.8306 78.3894 80.8853 77.1169C82.6165 75.0533 83.2356 72.428 82.284 70.1352C80.7936 66.5469 76.0242 65.1253 71.6331 66.9481C68.5147 68.2436 66.428 70.823 66.0038 73.4942C65.7631 75.0304 64.9376 76.3946 63.7109 77.3347C61.9567 78.676 60.6268 80.5217 59.9389 82.6655C59.4688 84.11 58.5287 85.3596 57.2102 86.1162C54.2294 87.8129 51.7415 90.4497 50.2281 93.8202C46.4447 102.281 50.2625 112.209 58.758 116.003C67.2421 119.798 77.1936 116.015 80.9656 107.554C83.0637 102.854 82.8114 97.7065 80.7248 93.396C80.1974 92.3184 80.0942 91.0688 80.5299 89.9567C81 88.7301 81.2637 87.4117 81.2637 86.0245Z" fill="url(#paint25_linear)"/>
<path d="M74.6375 190.545C73.9496 190.35 77.1481 139.793 77.1481 139.793L75.1419 134.771L90.2174 135.78C90.2174 135.78 84.1872 181.5 80.6676 191.049C80.6676 191.049 78.157 191.554 74.6375 190.545Z" fill="url(#paint26_linear)"/>
<path d="M88.0857 89.2002L85.3114 89.8651C85.3114 89.8651 87.203 108.643 82.1816 115.682L85.1967 116.187C85.1853 116.187 90.4703 105.433 88.0857 89.2002Z" fill="url(#paint27_linear)"/>
<path d="M225.95 312.142C225.95 312.142 198.928 307.992 197.598 290.475C196.531 276.397 204.694 292 215.609 302.604C216.469 303.441 217.753 302.226 216.962 301.32C209.269 292.47 198.423 278.369 201.782 272.453C206.85 263.523 206.861 268.922 213.568 281.464C220.275 294.006 224.689 294.35 221.41 285.442C218.131 276.535 206.001 266.928 207.847 261.597C209.693 256.266 216.079 249.812 218.509 246.556C220.94 243.311 236.2 255.979 234.847 263.03C233.494 270.08 226.443 279.733 228.106 285.947C229.757 292.16 234.411 281.224 236.452 275.033C238.493 268.842 240.774 265.414 244.214 272.82C247.653 280.226 241.783 289.214 236.12 293.983C230.456 298.752 228.587 303.384 231.557 301.274C234.526 299.165 243.102 291.908 244.477 287.907C245.865 283.906 252.606 301.527 225.95 312.142Z" fill="#91B3FA"/>
<path opacity="0.53" d="M224.976 311.008C224.908 310.962 224.862 310.87 224.873 310.779C227.682 290.017 221.457 262.434 221.4 262.159C221.365 262.033 221.445 261.895 221.583 261.873C221.709 261.838 221.847 261.93 221.87 262.056C221.938 262.331 228.175 290.006 225.355 310.847C225.332 310.985 225.217 311.077 225.08 311.054C225.034 311.042 224.999 311.031 224.976 311.008Z" fill="white"/>
<path d="M226.695 312.018C226.695 312.018 206.907 292.735 216.102 277.556C223.497 265.347 221.043 282.979 223.795 298.1C224.013 299.292 225.778 299.04 225.664 297.837C224.529 286.04 223.887 268.076 230.123 265.187C239.536 260.819 236.372 265.267 234.526 279.517C232.68 293.767 236.108 296.644 238.642 287.393C241.176 278.141 236.842 263.123 241.485 259.821C246.128 256.52 255.174 254.949 259.084 253.711C262.993 252.473 268.107 271.847 262.856 276.857C257.605 281.856 246.14 285.662 243.858 291.749C241.577 297.825 251.815 291.566 257.123 287.668C262.432 283.77 266.33 282.291 264.805 290.396C263.28 298.501 253.179 302.457 245.727 303.053C238.275 303.649 234.01 306.366 237.69 306.366C241.37 306.366 252.686 305.437 256.16 302.95C259.646 300.473 254.853 318.919 226.695 312.018Z" fill="#BDD0FB"/>
<path opacity="0.53" d="M226.559 310.505C226.536 310.424 226.547 310.321 226.616 310.264C241.119 294.833 252.194 268.488 252.297 268.225C252.355 268.098 252.492 268.041 252.618 268.098C252.744 268.156 252.802 268.293 252.744 268.419C252.63 268.683 241.52 295.108 226.96 310.596C226.868 310.699 226.719 310.699 226.616 310.608C226.593 310.573 226.57 310.539 226.559 310.505Z" fill="white"/>
<defs>
<linearGradient id="paint0_linear" x1="324.947" y1="86.4586" x2="217.36" y2="292.922" gradientUnits="userSpaceOnUse">
<stop stop-color="#FF928E"/>
<stop offset="1" stop-color="#FE7062"/>
</linearGradient>
<linearGradient id="paint1_linear" x1="224.013" y1="311.992" x2="164.113" y2="198.001" gradientUnits="userSpaceOnUse">
<stop stop-color="#FF928E"/>
<stop offset="1" stop-color="#FE7062"/>
</linearGradient>
<linearGradient id="paint2_linear" x1="162.565" y1="177.45" x2="91.6152" y2="303.655" gradientUnits="userSpaceOnUse">
<stop stop-color="#FF928E"/>
<stop offset="1" stop-color="#FE7062"/>
</linearGradient>
<linearGradient id="paint3_linear" x1="96.5896" y1="302.682" x2="-13.9098" y2="207.297" gradientUnits="userSpaceOnUse">
<stop stop-color="#FF928E"/>
<stop offset="1" stop-color="#FE7062"/>
</linearGradient>
<linearGradient id="paint4_linear" x1="334.362" y1="-72.0113" x2="167.741" y2="217.434" gradientUnits="userSpaceOnUse">
<stop stop-color="#FDF53F"/>
<stop offset="1" stop-color="#D93C65"/>
</linearGradient>
<linearGradient id="paint5_linear" x1="185.236" y1="210.237" x2="181.166" y2="310.849" gradientUnits="userSpaceOnUse">
<stop stop-color="#09005D"/>
<stop offset="1" stop-color="#1A0F91"/>
</linearGradient>
<linearGradient id="paint6_linear" x1="391.835" y1="-188.658" x2="99.4888" y2="207.623" gradientUnits="userSpaceOnUse">
<stop stop-color="#E1473D"/>
<stop offset="1" stop-color="#E9605A"/>
</linearGradient>
<linearGradient id="paint7_linear" x1="222.933" y1="11.6357" x2="148.495" y2="169.246" gradientUnits="userSpaceOnUse">
<stop stop-color="#FF928E"/>
<stop offset="1" stop-color="#FE7062"/>
</linearGradient>
<linearGradient id="paint8_linear" x1="195.41" y1="138.583" x2="187.717" y2="204.274" gradientUnits="userSpaceOnUse">
<stop stop-color="#09005D"/>
<stop offset="1" stop-color="#1A0F91"/>
</linearGradient>
<linearGradient id="paint9_linear" x1="99.1277" y1="51.9689" x2="54.4598" y2="105.611" gradientUnits="userSpaceOnUse">
<stop stop-color="#FEBBBA"/>
<stop offset="1" stop-color="#FF928E"/>
</linearGradient>
<linearGradient id="paint10_linear" x1="45.9845" y1="119.849" x2="110.183" y2="47.0864" gradientUnits="userSpaceOnUse">
<stop stop-color="#4F52FF"/>
<stop offset="1" stop-color="#4042E2"/>
</linearGradient>
<linearGradient id="paint11_linear" x1="-1506.63" y1="1234.08" x2="-1601.63" y2="1302.04" gradientUnits="userSpaceOnUse">
<stop stop-color="#4F52FF"/>
<stop offset="1" stop-color="#4042E2"/>
</linearGradient>
<linearGradient id="paint12_linear" x1="-1541.96" y1="1184.8" x2="-1636.97" y2="1252.76" gradientUnits="userSpaceOnUse">
<stop stop-color="#4F52FF"/>
<stop offset="1" stop-color="#4042E2"/>
</linearGradient>
<linearGradient id="paint13_linear" x1="-1526.01" y1="1207.17" x2="-1621.02" y2="1275.13" gradientUnits="userSpaceOnUse">
<stop stop-color="#4F52FF"/>
<stop offset="1" stop-color="#4042E2"/>
</linearGradient>
<linearGradient id="paint14_linear" x1="-1496.57" y1="1248.11" x2="-1591.58" y2="1316.06" gradientUnits="userSpaceOnUse">
<stop stop-color="#4F52FF"/>
<stop offset="1" stop-color="#4042E2"/>
</linearGradient>
<linearGradient id="paint15_linear" x1="74.4091" y1="170.58" x2="51.8765" y2="170.58" gradientUnits="userSpaceOnUse">
<stop stop-color="#FEBBBA"/>
<stop offset="1" stop-color="#FF928E"/>
</linearGradient>
<linearGradient id="paint16_linear" x1="43.4383" y1="120.194" x2="54.5963" y2="192.722" gradientUnits="userSpaceOnUse">
<stop stop-color="#53D8FF"/>
<stop offset="1" stop-color="#3840F7"/>
</linearGradient>
<linearGradient id="paint17_linear" x1="6.22257" y1="51.2454" x2="81.0573" y2="183.52" gradientUnits="userSpaceOnUse">
<stop stop-color="#4F52FF"/>
<stop offset="1" stop-color="#4042E2"/>
</linearGradient>
<linearGradient id="paint18_linear" x1="67.0488" y1="116.563" x2="78.2072" y2="189.091" gradientUnits="userSpaceOnUse">
<stop stop-color="#53D8FF"/>
<stop offset="1" stop-color="#3840F7"/>
</linearGradient>
<linearGradient id="paint19_linear" x1="88.0822" y1="172.256" x2="75.0348" y2="172.256" gradientUnits="userSpaceOnUse">
<stop stop-color="#FEBBBA"/>
<stop offset="1" stop-color="#FF928E"/>
</linearGradient>
<linearGradient id="paint20_linear" x1="86.9289" y1="90.1378" x2="69.8529" y2="126.854" gradientUnits="userSpaceOnUse">
<stop stop-color="#FF928E"/>
<stop offset="1" stop-color="#FE7062"/>
</linearGradient>
<linearGradient id="paint21_linear" x1="30.6023" y1="37.4528" x2="105.436" y2="169.728" gradientUnits="userSpaceOnUse">
<stop stop-color="#4F52FF"/>
<stop offset="1" stop-color="#4042E2"/>
</linearGradient>
<linearGradient id="paint22_linear" x1="84.1268" y1="86.906" x2="76.1424" y2="86.906" gradientUnits="userSpaceOnUse">
<stop stop-color="#FEBBBA"/>
<stop offset="1" stop-color="#FF928E"/>
</linearGradient>
<linearGradient id="paint23_linear" x1="71.4363" y1="76.5883" x2="13.3209" y2="80.5401" gradientUnits="userSpaceOnUse">
<stop stop-color="#FEBBBA"/>
<stop offset="1" stop-color="#FF928E"/>
</linearGradient>
<linearGradient id="paint24_linear" x1="105.434" y1="84.0537" x2="64.0813" y2="146.087" gradientUnits="userSpaceOnUse">
<stop stop-color="#FEBBBA"/>
<stop offset="1" stop-color="#FF928E"/>
</linearGradient>
<linearGradient id="paint25_linear" x1="80.8393" y1="71.0885" x2="53.2309" y2="124.69" gradientUnits="userSpaceOnUse">
<stop stop-color="#09005D"/>
<stop offset="1" stop-color="#1A0F91"/>
</linearGradient>
<linearGradient id="paint26_linear" x1="15.9771" y1="45.7294" x2="90.8146" y2="178.001" gradientUnits="userSpaceOnUse">
<stop stop-color="#4F52FF"/>
<stop offset="1" stop-color="#4042E2"/>
</linearGradient>
<linearGradient id="paint27_linear" x1="55.3394" y1="36.5095" x2="98.8494" y2="132.812" gradientUnits="userSpaceOnUse">
<stop stop-color="#4F52FF"/>
<stop offset="1" stop-color="#4042E2"/>
</linearGradient>
</defs>
</svg>
