<svg width="363" height="362" viewBox="0 0 363 362" fill="none" xmlns="http://www.w3.org/2000/svg">
<g clip-path="url(#clip0)">
<path opacity="0.1" d="M347.261 244.195C310.611 329.201 213.876 365.711 138.079 359.492C117.387 357.799 75.7449 354.373 43.2328 323.861C-19.2049 265.269 -9.59616 142.784 50.1775 70.6809C57.8723 61.3982 111.154 -0.827041 194.18 0.0133158C254.962 0.620959 297.626 34.7007 302.825 38.9412C309.382 44.3066 323.84 57.0412 336.863 77.2615C367.461 124.761 370.151 191.085 347.261 244.195Z" fill="url(#paint0_linear)"/>
<path d="M206.375 145.951H63.588C57.7943 145.951 52.9576 141.543 52.4144 135.79L43.4135 40.3378C42.8056 33.8477 47.8493 28.1979 54.3672 28.0686L206.155 25.1856C212.44 25.0692 217.587 30.1243 217.587 36.3946V134.729C217.6 140.922 212.569 145.951 206.375 145.951Z" fill="#7D97F4"/>
<path opacity="0.87" d="M52.5435 48.8446L58.9322 131.381C59.2037 134.962 62.1782 137.741 65.7734 137.78L202.818 139.215C206.685 139.254 209.828 136.138 209.828 132.273V43.4275C209.828 39.5101 206.569 36.3556 202.65 36.4978L59.2296 41.3719C55.2852 41.5141 52.2461 44.9143 52.5435 48.8446Z" fill="white"/>
<path d="M125.702 48.0953L202.986 45.781C203.775 45.7552 204.435 46.3887 204.435 47.1903V48.4314C204.435 49.1942 203.814 49.8277 203.051 49.8406L125.767 50.9137C124.978 50.9266 124.344 50.2931 124.344 49.5045C124.344 48.7417 124.952 48.1082 125.702 48.0953Z" fill="#7D97F4"/>
<path d="M124.344 55.9688V56.4989C124.344 57.2746 124.978 57.9081 125.754 57.9081H203.038C203.814 57.9081 204.448 57.2746 204.448 56.4989V55.9688C204.448 55.1931 203.814 54.5596 203.038 54.5596H125.754C124.978 54.5725 124.344 55.1931 124.344 55.9688Z" fill="#7D97F4"/>
<path d="M105.476 125.447C105.127 125.447 104.842 125.163 104.842 124.814V122.926C104.842 122.577 105.127 122.292 105.476 122.292C105.825 122.292 106.11 122.577 106.11 122.926V124.814C106.097 125.163 105.825 125.447 105.476 125.447ZM105.45 119.151C105.101 119.151 104.816 118.866 104.816 118.517V116.63C104.816 116.281 105.101 115.996 105.45 115.996C105.799 115.996 106.084 116.281 106.084 116.63V118.517C106.084 118.866 105.799 119.138 105.45 119.151ZM105.437 112.842C105.088 112.842 104.803 112.557 104.803 112.208V110.321C104.803 109.972 105.088 109.687 105.437 109.687C105.786 109.687 106.071 109.972 106.071 110.321V112.208C106.071 112.557 105.786 112.842 105.437 112.842ZM105.424 106.533C105.075 106.533 104.791 106.248 104.791 105.899V104.011C104.791 103.662 105.075 103.378 105.424 103.378C105.773 103.378 106.058 103.662 106.058 104.011V105.899C106.058 106.248 105.773 106.533 105.424 106.533Z" fill="url(#paint1_linear)"/>
<path d="M137.135 123.649C136.785 123.649 136.501 123.365 136.501 123.016V121.128C136.501 120.779 136.785 120.495 137.135 120.495C137.484 120.495 137.768 120.779 137.768 121.128V123.016C137.768 123.365 137.484 123.649 137.135 123.649ZM137.135 117.353C136.785 117.353 136.501 117.069 136.501 116.72V114.832C136.501 114.483 136.785 114.199 137.135 114.199C137.484 114.199 137.768 114.483 137.768 114.832V116.72C137.768 117.069 137.484 117.353 137.135 117.353ZM137.135 111.044C136.785 111.044 136.501 110.76 136.501 110.411V108.523C136.501 108.174 136.785 107.89 137.135 107.89C137.484 107.89 137.768 108.174 137.768 108.523V110.411C137.768 110.76 137.484 111.044 137.135 111.044ZM137.135 104.748C136.785 104.748 136.501 104.463 136.501 104.114V102.227C136.501 101.878 136.785 101.593 137.135 101.593C137.484 101.593 137.768 101.878 137.768 102.227V104.114C137.768 104.463 137.484 104.748 137.135 104.748ZM137.135 98.4387C136.785 98.4387 136.501 98.1543 136.501 97.8052V95.9177C136.501 95.5686 136.785 95.2842 137.135 95.2842C137.484 95.2842 137.768 95.5686 137.768 95.9177V97.8052C137.768 98.1543 137.484 98.4387 137.135 98.4387Z" fill="url(#paint2_linear)"/>
<path d="M161.293 128.86C160.956 128.86 160.672 128.589 160.659 128.253L160.62 127.128C160.607 126.779 160.879 126.494 161.228 126.481C161.59 126.455 161.862 126.74 161.875 127.089L161.913 128.214C161.926 128.563 161.655 128.847 161.306 128.86H161.293ZM161.125 123.327C160.788 123.327 160.504 123.055 160.491 122.719L160.426 120.832C160.413 120.482 160.685 120.198 161.034 120.185C161.383 120.172 161.668 120.444 161.681 120.793L161.745 122.68C161.758 123.029 161.487 123.314 161.137 123.327H161.125ZM160.931 117.018C160.594 117.018 160.31 116.746 160.297 116.41L160.232 114.522C160.219 114.173 160.491 113.889 160.84 113.876C161.176 113.876 161.474 114.135 161.487 114.484L161.551 116.371C161.564 116.72 161.293 117.005 160.943 117.018H160.931ZM160.724 110.721C160.387 110.721 160.103 110.45 160.09 110.114L160.025 108.226C160.012 107.877 160.284 107.593 160.633 107.58C160.969 107.567 161.267 107.838 161.28 108.187L161.344 110.075C161.357 110.424 161.086 110.708 160.737 110.721C160.737 110.721 160.737 110.721 160.724 110.721ZM160.53 104.425C160.193 104.425 159.909 104.154 159.896 103.818L159.831 101.93C159.818 101.581 160.09 101.296 160.439 101.284C160.788 101.284 161.073 101.542 161.086 101.891L161.15 103.779C161.163 104.128 160.892 104.412 160.543 104.425C160.543 104.425 160.543 104.425 160.53 104.425ZM160.336 98.116C159.999 98.116 159.715 97.8445 159.702 97.5084L159.637 95.6208C159.624 95.2717 159.896 94.9873 160.245 94.9744C160.594 94.9485 160.879 95.233 160.892 95.582L160.956 97.4696C160.969 97.8187 160.698 98.1031 160.349 98.116C160.349 98.116 160.349 98.116 160.336 98.116ZM160.142 91.8198C159.805 91.8198 159.521 91.5483 159.508 91.2122L159.443 89.3246C159.43 88.9755 159.702 88.6911 160.051 88.6782C160.413 88.6652 160.685 88.9367 160.698 89.2858L160.762 91.1734C160.775 91.5225 160.504 91.8069 160.155 91.8198C160.155 91.8198 160.155 91.8198 160.142 91.8198Z" fill="url(#paint3_linear)"/>
<path d="M184.247 125.331C183.898 125.331 183.614 125.046 183.614 124.697V122.81C183.614 122.461 183.898 122.176 184.247 122.176C184.597 122.176 184.881 122.461 184.881 122.81V124.697C184.881 125.046 184.597 125.331 184.247 125.331ZM184.247 119.035C183.898 119.035 183.614 118.75 183.614 118.401V116.514C183.614 116.165 183.898 115.88 184.247 115.88C184.597 115.88 184.881 116.165 184.881 116.514V118.401C184.881 118.75 184.597 119.035 184.247 119.035ZM184.247 112.726C183.898 112.726 183.614 112.441 183.614 112.092V110.204C183.614 109.855 183.898 109.571 184.247 109.571C184.597 109.571 184.881 109.855 184.881 110.204V112.092C184.881 112.441 184.597 112.726 184.247 112.726ZM184.247 106.416C183.898 106.416 183.614 106.132 183.614 105.783V103.895C183.614 103.546 183.898 103.262 184.247 103.262C184.597 103.262 184.881 103.546 184.881 103.895V105.783C184.881 106.145 184.597 106.416 184.247 106.416ZM184.247 100.12C183.898 100.12 183.614 99.8357 183.614 99.4867V97.5991C183.614 97.25 183.898 96.9656 184.247 96.9656C184.597 96.9656 184.881 97.25 184.881 97.5991V99.4867C184.881 99.8357 184.597 100.12 184.247 100.12ZM184.247 93.811C183.898 93.811 183.614 93.5266 183.614 93.1775V91.2899C183.614 90.9409 183.898 90.6564 184.247 90.6564C184.597 90.6564 184.881 90.9409 184.881 91.2899V93.1775C184.881 93.5395 184.597 93.811 184.247 93.811ZM184.247 87.5148C183.898 87.5148 183.614 87.2304 183.614 86.8813V84.9937C183.614 84.6447 183.898 84.3602 184.247 84.3602C184.597 84.3602 184.881 84.6447 184.881 84.9937V86.8813C184.881 87.2304 184.597 87.5148 184.247 87.5148ZM184.247 81.2057C183.898 81.2057 183.614 80.9212 183.614 80.5722V78.6846C183.614 78.3355 183.898 78.0511 184.247 78.0511C184.597 78.0511 184.881 78.3355 184.881 78.6846V80.5722C184.881 80.9212 184.597 81.2057 184.247 81.2057ZM184.247 74.9095C183.898 74.9095 183.614 74.625 183.614 74.276V72.3884C183.614 72.0393 183.898 71.7549 184.247 71.7549C184.597 71.7549 184.881 72.0393 184.881 72.3884V74.276C184.881 74.625 184.597 74.9095 184.247 74.9095Z" fill="url(#paint4_linear)"/>
<path d="M71.5673 132.777C71.0759 132.777 70.662 132.402 70.6232 131.911L64.1571 55.6066C64.1183 55.0895 64.4933 54.6241 65.0235 54.5853C65.5408 54.5594 66.0064 54.9214 66.0452 55.4515L72.5114 131.756C72.5502 132.273 72.1751 132.739 71.6449 132.777C71.632 132.777 71.5932 132.777 71.5673 132.777Z" fill="url(#paint5_linear)"/>
<path d="M62.2303 59.5373L65.1531 56.0724L68.619 58.9943L68.3991 56.2922L64.9332 53.3574L61.9976 56.8223L62.2303 59.5373Z" fill="url(#paint6_linear)"/>
<path d="M199.676 129.171H66.6657C66.1484 129.171 65.7217 128.744 65.7217 128.227C65.7217 127.71 66.1484 127.283 66.6657 127.283H199.676C200.193 127.283 200.62 127.71 200.62 128.227C200.62 128.744 200.193 129.171 199.676 129.171Z" fill="url(#paint7_linear)"/>
<path d="M195.899 131.433L199.107 128.227L195.899 125.021H198.628L201.835 128.227L198.628 131.433H195.899Z" fill="url(#paint8_linear)"/>
<path d="M77.1022 107.243C76.6366 107.243 76.2228 106.894 76.171 106.429C76.1064 105.912 76.4685 105.433 76.9858 105.369C77.6841 105.278 147.325 95.7367 185.437 67.6429C185.864 67.3327 186.446 67.4232 186.756 67.8369C187.067 68.2635 186.976 68.8453 186.562 69.1556C148.049 97.5467 77.9428 107.14 77.2315 107.23C77.1927 107.243 77.141 107.243 77.1022 107.243Z" fill="url(#paint9_linear)"/>
<path d="M186.291 73.4352C186.265 73.4352 186.239 73.4352 186.213 73.4352C185.696 73.3964 185.308 72.9439 185.347 72.4138L185.644 68.7033L180.407 68.393C179.889 68.3672 179.489 67.9147 179.514 67.3975C179.54 66.8804 179.993 66.4667 180.51 66.5055L186.705 66.8674C186.963 66.8804 187.196 66.9967 187.364 67.1907C187.532 67.3846 187.61 67.6302 187.597 67.8888L187.235 72.5689C187.196 73.0473 186.782 73.4352 186.291 73.4352Z" fill="url(#paint10_linear)"/>
<path d="M15.0011 112.932C14.5097 111.329 16.3978 110.049 17.7169 111.083C31.1666 121.477 64.1443 153.308 62.5924 214.641C60.6396 291.579 79.1588 317.811 100.51 332.834C100.51 332.834 72.6538 327.481 52.906 300.965C4.40946 235.844 23.6917 141.4 15.0011 112.932Z" fill="#7D97F4"/>
<path d="M26.6793 135.789C29.033 144.103 31.2316 152.467 33.1068 160.897C35.0337 169.313 36.702 177.781 38.1116 186.301C39.4824 194.821 40.6981 203.354 41.5387 211.939C42.431 220.51 42.9354 229.121 43.4268 237.757C43.9571 246.393 44.4485 255.081 45.8323 263.757C47.2031 272.419 49.6344 281.042 53.5658 288.98C54.5487 290.958 55.5704 292.923 56.6955 294.811C57.7947 296.724 58.9716 298.586 60.1743 300.422C62.6185 304.094 65.3085 307.597 68.2441 310.894C74.1413 317.475 81.0343 323.15 88.4704 327.792C89.2593 328.283 90.281 328.037 90.7724 327.262C91.2509 326.499 91.031 325.49 90.281 324.986C88.5092 323.81 86.7375 322.607 85.0433 321.327C84.1769 320.707 83.3492 320.048 82.5086 319.401C81.6938 318.729 80.8403 318.082 80.0514 317.384C76.8183 314.63 73.7792 311.67 70.9858 308.489C65.3602 302.167 60.6528 294.966 56.8765 287.39C55.0272 283.576 53.4753 279.646 52.2209 275.599C50.9664 271.552 50.0353 267.402 49.324 263.201C47.9144 254.784 47.3583 246.187 46.7634 237.55C46.1556 228.927 45.4831 220.252 44.4485 211.628C43.9441 207.31 43.3622 203.005 42.7155 198.726C42.4052 196.58 42.0431 194.433 41.6939 192.3C41.3188 190.167 40.9309 188.021 40.53 185.901C38.9005 177.381 37.0123 168.9 34.8656 160.509C32.6671 152.118 30.2616 143.792 27.52 135.57C27.4424 135.337 27.1837 135.208 26.9509 135.285C26.744 135.311 26.6147 135.557 26.6793 135.789Z" fill="white"/>
<path d="M41.8749 348.943C40.8921 351.477 37.6331 352.188 35.6674 350.314C24.7912 339.971 -3.31092 307.947 0.723998 256.31C4.13816 212.702 1.83619 188.732 0.0385801 177.924C-0.33646 175.636 2.41814 174.201 4.08643 175.804C22.4375 193.606 77.5814 257.099 41.8749 348.943Z" fill="#91B3FA"/>
<path d="M38.189 348.878C38.1373 348.917 38.0726 348.943 38.008 348.969C37.4648 349.176 36.8441 348.904 36.6371 348.361C36.3914 347.741 12.6346 285.684 14.6391 224.842C14.665 224.26 15.1435 223.795 15.7384 223.82C16.3203 223.846 16.7859 224.325 16.76 224.919C14.7684 285.322 38.383 346.991 38.6158 347.611C38.7969 348.077 38.6029 348.607 38.189 348.878Z" fill="white"/>
<path d="M112.123 268.54H25.4763C25.2177 268.54 25.0107 268.333 25.0107 268.074V252.34C25.0107 252.082 25.2177 251.875 25.4763 251.875H112.123C112.382 251.875 112.589 252.082 112.589 252.34V268.074C112.589 268.333 112.382 268.54 112.123 268.54Z" fill="url(#paint11_linear)"/>
<path d="M112.188 287.041H25.5413C25.2826 287.041 25.0757 286.834 25.0757 286.575V270.841C25.0757 270.583 25.2826 270.376 25.5413 270.376H112.188C112.447 270.376 112.654 270.583 112.654 270.841V286.575C112.667 286.834 112.46 287.041 112.188 287.041Z" fill="url(#paint12_linear)"/>
<path d="M112.266 305.541H25.6184C25.3598 305.541 25.1528 305.334 25.1528 305.075V289.341C25.1528 289.083 25.3598 288.876 25.6184 288.876H112.266C112.524 288.876 112.731 289.083 112.731 289.341V305.075C112.731 305.334 112.524 305.541 112.266 305.541Z" fill="url(#paint13_linear)"/>
<path d="M112.331 324.042H25.6833C25.4247 324.042 25.2178 323.835 25.2178 323.577V307.83C25.2178 307.571 25.4247 307.364 25.6833 307.364H112.331C112.589 307.364 112.796 307.571 112.796 307.83V323.564C112.796 323.822 112.589 324.042 112.331 324.042Z" fill="url(#paint14_linear)"/>
<path d="M112.394 342.53H25.7473C25.4887 342.53 25.2817 342.323 25.2817 342.065V326.331C25.2817 326.072 25.4887 325.865 25.7473 325.865H112.394C112.653 325.865 112.86 326.072 112.86 326.331V342.065C112.873 342.323 112.653 342.53 112.394 342.53Z" fill="url(#paint15_linear)"/>
<path d="M112.394 360.837H25.7473C25.4887 360.837 25.2817 360.63 25.2817 360.371V344.637C25.2817 344.379 25.4887 344.172 25.7473 344.172H112.394C112.653 344.172 112.86 344.379 112.86 344.637V360.371C112.873 360.63 112.653 360.837 112.394 360.837Z" fill="url(#paint16_linear)"/>
<path d="M67.0284 245.397C91.7125 245.397 111.723 225.393 111.723 200.716C111.723 176.04 91.7125 156.035 67.0284 156.035C42.3444 156.035 22.334 176.04 22.334 200.716C22.334 225.393 42.3444 245.397 67.0284 245.397Z" fill="url(#paint17_linear)"/>
<path d="M67.0282 243.923C90.8981 243.923 110.248 224.579 110.248 200.716C110.248 176.853 90.8981 157.509 67.0282 157.509C43.1584 157.509 23.8081 176.853 23.8081 200.716C23.8081 224.579 43.1584 243.923 67.0282 243.923Z" fill="url(#paint18_linear)"/>
<path opacity="0.7" d="M31.3866 183.754C31.2314 183.754 31.0892 183.715 30.9469 183.65C30.4555 183.405 30.2615 182.81 30.5072 182.319C37.5036 168.459 51.4965 159.836 67.0283 159.836C69.5114 159.836 71.9944 160.056 74.3998 160.495C74.943 160.599 75.2921 161.116 75.2016 161.646C75.0982 162.189 74.5809 162.538 74.0506 162.448C71.7487 162.034 69.395 161.814 67.0283 161.814C52.2595 161.814 38.9391 170.011 32.2789 183.198C32.0979 183.56 31.7487 183.754 31.3866 183.754Z" fill="white"/>
<path opacity="0.78" d="M93.8164 227.504C108.099 213.226 108.099 190.077 93.8164 175.798C79.534 161.52 56.3775 161.52 42.0951 175.798C27.8126 190.077 27.8126 213.226 42.0951 227.504C56.3775 241.783 79.534 241.783 93.8164 227.504Z" fill="white"/>
<path d="M210.488 287.04H123.841C123.582 287.04 123.375 286.833 123.375 286.574V270.84C123.375 270.582 123.582 270.375 123.841 270.375H210.488C210.746 270.375 210.953 270.582 210.953 270.84V286.574C210.966 286.833 210.746 287.04 210.488 287.04Z" fill="url(#paint19_linear)"/>
<path d="M210.552 305.541H123.905C123.646 305.541 123.439 305.334 123.439 305.075V289.341C123.439 289.083 123.646 288.876 123.905 288.876H210.552C210.811 288.876 211.018 289.083 211.018 289.341V305.075C211.031 305.334 210.824 305.541 210.552 305.541Z" fill="url(#paint20_linear)"/>
<path d="M210.63 324.042H123.983C123.725 324.042 123.518 323.835 123.518 323.577V307.83C123.518 307.571 123.725 307.364 123.983 307.364H210.63C210.889 307.364 211.096 307.571 211.096 307.83V323.564C211.096 323.822 210.889 324.042 210.63 324.042Z" fill="url(#paint21_linear)"/>
<path d="M210.694 342.53H124.047C123.788 342.53 123.582 342.323 123.582 342.065V326.331C123.582 326.072 123.788 325.865 124.047 325.865H210.694C210.953 325.865 211.16 326.072 211.16 326.331V342.065C211.16 342.323 210.953 342.53 210.694 342.53Z" fill="url(#paint22_linear)"/>
<path d="M210.694 360.837H124.047C123.788 360.837 123.582 360.63 123.582 360.371V344.637C123.582 344.379 123.788 344.172 124.047 344.172H210.694C210.953 344.172 211.16 344.379 211.16 344.637V360.371C211.16 360.63 210.953 360.837 210.694 360.837Z" fill="url(#paint23_linear)"/>
<path d="M163.905 264.325C188.589 264.325 208.599 244.321 208.599 219.644C208.599 194.967 188.589 174.963 163.905 174.963C139.221 174.963 119.21 194.967 119.21 219.644C119.21 244.321 139.221 264.325 163.905 264.325Z" fill="url(#paint24_linear)"/>
<path d="M163.905 262.851C187.775 262.851 207.125 243.507 207.125 219.644C207.125 195.781 187.775 176.437 163.905 176.437C140.035 176.437 120.685 195.781 120.685 219.644C120.685 243.507 140.035 262.851 163.905 262.851Z" fill="url(#paint25_linear)"/>
<path opacity="0.7" d="M128.276 202.694C128.121 202.694 127.979 202.655 127.837 202.591C127.345 202.345 127.151 201.75 127.397 201.259C134.393 187.4 148.386 178.776 163.918 178.776C166.401 178.776 168.884 178.996 171.289 179.436C171.833 179.539 172.182 180.056 172.091 180.586C171.988 181.129 171.471 181.478 170.94 181.388C168.638 180.974 166.285 180.754 163.918 180.754C149.149 180.754 135.829 188.951 129.169 202.138C128.988 202.487 128.638 202.694 128.276 202.694Z" fill="white"/>
<path opacity="0.78" d="M190.707 246.443C204.99 232.165 204.99 209.015 190.707 194.737C176.425 180.459 153.269 180.459 138.986 194.737C124.704 209.015 124.704 232.165 138.986 246.443C153.269 260.721 176.425 260.721 190.707 246.443Z" fill="white"/>
<path d="M155.887 131.988C178.04 135.31 192.473 121.334 203.233 112.866C217.432 101.67 228.49 107.126 228.49 107.126L215.725 135.672C193.107 156.991 167.526 152.609 152.9 145.705C152.693 140.12 154.18 135.44 155.887 131.988Z" fill="url(#paint26_linear)"/>
<path d="M124.759 118.774L132.105 122.731C140.912 128.096 148.8 130.927 155.887 131.987C154.18 135.439 152.68 140.107 152.913 145.692C143.602 141.296 137.769 136.008 137.769 136.008C121.125 126.105 124.759 118.774 124.759 118.774Z" fill="url(#paint27_linear)"/>
<path d="M103.11 129.13C103.588 127.553 104.752 126.273 106.278 125.665L121.189 119.666C121.189 119.666 121.409 117.753 118.034 116.46C114.659 115.167 115.447 111.379 115.447 111.379C115.447 111.379 120.064 113.486 126.815 116.822C130.682 118.735 132.842 122.097 133.993 124.631L130.152 129.673C120.957 132.427 111.671 132.957 102.282 131.871L103.11 129.13Z" fill="url(#paint28_linear)"/>
<path d="M256.268 165.317C259.191 165.46 260.575 164.671 260.937 163.365C262.14 159.163 253.1 150.036 252.777 149.713C253.113 149.932 265.062 157.521 276.766 149.364C284.629 143.882 277.568 139.202 271.71 136.642C274.322 136.396 278.085 135.569 283.543 133.668C298.674 128.406 286.647 121.735 281.15 119.279C284.008 119.628 289.259 117.973 296.268 106.04C307.364 87.1771 289.259 95.167 289.259 95.167C289.259 95.167 297.432 88.4312 295.699 65.5735C294.497 49.6713 288.832 58.0361 285.767 63.9057C289.13 56.2261 294.962 39.7939 288.354 30.7568C282.172 22.2886 278.072 34.6613 276.74 39.9878C277.736 34.2217 279.094 20.5303 276.21 11.0537C276.197 11.0278 276.197 11.002 276.184 10.9891C275.525 8.82999 274.645 6.90363 273.494 5.3522C266.989 -3.41337 262.256 37.9322 257.833 48.7276C253.423 59.5229 235.913 75.0631 242.586 90.2671C249.647 106.337 234.438 147.101 234.438 147.101C236.753 159.706 244.099 164.697 256.268 165.317Z" fill="#91B3FA"/>
<path d="M260.937 163.365C262.14 159.163 253.1 150.036 252.777 149.713C253.113 149.932 265.062 157.521 276.766 149.363C284.629 143.882 277.568 139.202 271.71 136.642C274.322 136.396 278.085 135.569 283.543 133.668C298.674 128.406 286.647 121.735 281.15 119.279C284.008 119.628 289.259 117.973 296.268 106.04C307.364 87.1771 289.259 95.1669 289.259 95.1669C289.259 95.1669 297.432 88.4311 295.699 65.5734C294.497 49.6713 288.832 58.0361 285.767 63.9056C289.13 56.2261 294.962 39.7939 288.354 30.7568C282.172 22.2886 278.072 34.6612 276.74 39.9878C277.736 34.2216 279.094 20.5303 276.21 11.0536C276.197 11.0278 276.197 11.0019 276.184 10.989C272.99 1.38307 270.74 16.4836 270.235 19.8321C268.658 30.2655 268.878 42.3537 264.468 52.6578C262.269 57.8033 259.075 62.5094 256.643 67.5127C254.225 72.4902 251.871 77.9719 251.962 83.6217C252.065 90.3187 255.803 96.1236 256.449 102.898C257.381 112.608 253.281 124.554 250.216 133.591C248.276 139.331 246.22 145.084 243.866 150.592C244.241 159.771 252.815 163.675 260.937 163.365Z" fill="#BDD0FB"/>
<path d="M277.232 167.154C280.414 168.097 282.198 167.735 283.052 166.636C285.819 163.107 278.991 151.859 278.745 151.445C279.056 151.756 289.557 162.409 304.752 158.285C314.684 155.582 309.201 149.235 304.041 145.059C306.86 145.653 311.05 146.054 317.284 145.989C333.992 145.847 324.772 135.996 320.155 131.859C322.909 133.138 328.755 133.358 340.045 124.683C357.736 111.108 337.394 111.884 337.394 111.884C337.394 111.884 347.934 108.561 355.344 85.6906C360.685 69.2067 351.723 75.0504 346.304 79.6012C352.77 73.3567 365.263 59.3163 362.651 46.4524C360.116 33.9246 350.636 45.1078 347.002 50.137C350.468 44.4355 357.749 30.2141 358.939 17.8932C358.939 17.8673 358.939 17.8285 358.939 17.8027C359.211 14.9455 359.146 12.1917 358.642 9.68352C355.68 -4.87405 332.428 39.8588 323 49.4518C313.585 59.0319 286.647 67.0864 288.794 87.1645C290.953 107.243 258.17 142.912 258.17 142.912C256.579 156.113 263.576 163.12 277.232 167.154Z" fill="#7D97F4"/>
<path d="M283.052 166.636C285.82 163.107 278.991 151.859 278.745 151.445C279.056 151.755 289.557 162.409 304.753 158.284C314.685 155.582 309.201 149.234 304.041 145.058C306.861 145.653 311.051 146.054 317.284 145.989C333.993 145.847 324.772 135.996 320.155 131.858C322.91 133.138 328.755 133.358 340.045 124.683C357.737 111.108 337.394 111.884 337.394 111.884C337.394 111.884 347.934 108.561 355.344 85.6904C360.685 69.2065 351.723 75.0502 346.304 79.6011C352.771 73.3566 365.263 59.3161 362.651 46.4522C360.116 33.9244 350.637 45.1076 347.003 50.1369C350.469 44.4354 357.75 30.2139 358.939 17.893C358.939 17.8671 358.939 17.8284 358.939 17.8025C359.896 4.7705 350.818 20.6985 348.826 24.1763C342.632 34.9716 337.743 48.4561 328.716 57.3251C324.203 61.7597 318.745 65.2116 314.012 69.4134C309.292 73.5893 304.442 78.3341 302.321 84.4234C299.838 91.5729 301.83 99.2784 299.981 106.505C297.368 116.706 288.341 127.088 281.591 134.922C277.31 139.9 272.9 144.839 268.206 149.441C265.451 158.465 273.935 164.658 283.052 166.636Z" fill="#91B3FA"/>
<path d="M222.579 348.748C228.451 349.252 238.641 350.08 246.685 350.429C251.522 350.636 254.302 350.17 255.893 349.524C255.893 349.705 255.88 349.873 255.88 350.028C255.841 350.868 255.156 351.554 254.302 351.592C239.12 352.446 227.041 351.89 222.734 351.618C221.842 351.566 221.312 350.597 221.764 349.834C222.01 349.485 222.282 349.11 222.579 348.748Z" fill="url(#paint29_linear)"/>
<path d="M246.686 350.429C238.655 350.08 228.451 349.252 222.58 348.748C228.36 341.663 246.686 336.893 246.686 336.893H251.859C255.415 342.025 255.932 346.912 255.894 349.537C254.303 350.17 251.522 350.649 246.686 350.429Z" fill="url(#paint30_linear)"/>
<path d="M252.738 328.438L252.259 338.018C252.207 339.052 251.431 339.931 250.384 340.073C249.349 340.216 247.966 340.241 246.491 339.75C245.586 339.453 244.914 338.69 244.745 337.759L243.077 328.425H252.738V328.438Z" fill="url(#paint31_linear)"/>
<path d="M312.822 359.803C315.37 359.337 316.521 357.631 316.999 355.808C316.999 355.821 316.999 355.846 317.012 355.859C317.387 357.786 316.521 359.79 314.775 360.733C312.68 361.884 310.378 362.078 308.593 361.988C306.679 361.884 304.92 360.863 303.963 359.234L303.95 359.208C305.877 360.423 308.567 360.565 312.822 359.803Z" fill="url(#paint32_linear)"/>
<path d="M300.808 331.385H305.075C311.58 331.217 315.667 348.929 316.999 355.794C316.521 357.617 315.37 359.337 312.822 359.789C308.58 360.552 305.877 360.41 303.963 359.181C300.446 353.208 298.713 344.456 297.872 339.349C296.915 333.557 300.808 331.385 300.808 331.385Z" fill="url(#paint33_linear)"/>
<path d="M304.532 322.49L306.899 331.915C307.183 333.066 306.64 334.268 305.567 334.811C304.235 335.496 302.372 336.207 300.652 336.001C299.851 335.897 299.178 335.341 298.907 334.578L295.428 324.662L304.532 322.49Z" fill="url(#paint34_linear)"/>
<path d="M221.131 198.35C221.131 198.35 242.315 330.739 241.965 331.463C241.965 331.463 247.811 334.126 254.2 331.799C254.2 331.799 252.286 261.028 247.798 233.891C247.798 233.891 283.957 297.15 295.441 328.67C295.441 328.67 301.429 327.959 306.382 324.701C306.382 324.701 267.455 210.839 257.071 195.674L221.131 198.35Z" fill="url(#paint35_linear)"/>
<path opacity="0.49" d="M246.958 233.438C246.673 233.438 246.401 233.296 246.233 233.037L238.513 220.703L233.042 219.605C232.577 219.514 232.279 219.062 232.37 218.596C232.46 218.131 232.913 217.846 233.378 217.924L239.198 219.1C239.431 219.152 239.625 219.281 239.754 219.488L247.669 232.132C247.915 232.533 247.798 233.05 247.397 233.309C247.268 233.386 247.113 233.438 246.958 233.438Z" fill="url(#paint36_linear)"/>
<path d="M217.795 105.911C226.058 105.432 253.294 104.54 275.835 111.987C280.581 113.551 283.892 119.835 285.871 124.373C291.962 138.361 277.452 144.011 266.239 140.171C260.523 155.582 257.846 178.078 257.29 188.033C257.109 191.304 257.678 194.575 258.971 197.6L259.114 197.936C259.385 198.583 259.01 199.333 258.312 199.488C242.884 202.953 226.847 202.009 222.049 201.621C221.196 201.556 220.485 200.936 220.291 200.108C212.79 168.511 212.777 146.959 214.613 133.332C207.591 134.884 216.282 106.001 217.795 105.911Z" fill="url(#paint37_linear)"/>
<path d="M214.574 134.392C214.535 134.392 214.497 134.392 214.458 134.379C213.992 134.314 213.669 133.887 213.721 133.422C215.531 119.757 219.165 113.9 219.32 113.654C219.579 113.253 220.096 113.15 220.497 113.396C220.898 113.641 221.015 114.171 220.769 114.572C220.73 114.624 217.174 120.403 215.415 133.642C215.363 134.081 215.001 134.392 214.574 134.392Z" fill="url(#paint38_linear)"/>
<path d="M252.647 87.5C252.647 87.5 254.212 103.997 255.583 108.871C255.79 109.608 255.467 110.396 254.794 110.771C252.466 112.103 246.867 114.275 239.223 110.526C237.982 109.918 237.245 108.625 237.296 107.255L237.969 91.3139L252.647 87.5Z" fill="url(#paint39_linear)"/>
<path d="M237.632 66.4004C237.632 66.4004 232.641 77.868 232.304 83.8798C231.968 89.8916 230.675 93.7961 237.632 95.0113C244.59 96.2266 250.449 92.7618 253.63 86.7629C253.63 86.7629 258.609 77.5319 257.484 73.7438C256.372 69.9687 237.632 66.4004 237.632 66.4004Z" fill="url(#paint40_linear)"/>
<path d="M251.251 82.4579L250.85 82.2769C250.345 82.0571 250.126 81.4495 250.384 80.9711C251.367 79.0706 253.281 74.7267 250.811 73.7182C247.63 72.4124 235.008 69.8397 232.292 65.3664C229.679 61.0612 231.994 55.5148 235.473 53.9375C235.706 53.8341 235.978 53.9117 236.107 54.1444L236.391 54.6874C236.585 55.0623 237.141 55.0106 237.258 54.5969C237.374 54.209 237.892 54.1315 238.111 54.4805C238.952 55.8251 241.202 57.9842 247.242 59.109C255.829 60.6992 261.506 64.164 261.648 70.0982C261.661 70.4732 262.062 70.68 262.386 70.4861C263.019 70.0982 264.028 69.9172 265.386 71.0549C267.74 73.033 266.783 78.1786 261.61 82.4062C261.364 82.6131 261.364 82.988 261.635 83.169C262.567 83.7766 263.963 85.2246 260.355 87.1639C256.618 89.1679 253.811 88.9998 252.738 88.8188C252.466 88.78 252.298 88.5214 252.35 88.2499L253.501 83.0397C253.566 82.7424 253.346 82.4709 253.035 82.4709H251.251V82.4579Z" fill="url(#paint41_linear)"/>
<path d="M251.03 83.5567C251.03 83.5567 252.931 76.2391 256.216 78.2818C259.501 80.3375 254.509 86.4915 251.871 86.763L251.03 83.5567Z" fill="url(#paint42_linear)"/>
<path d="M254.109 248.785L254.807 270.479C254.924 274.267 258.027 277.267 261.842 277.293L313.792 277.603C316.34 277.616 318.499 275.767 318.874 273.272C319.689 267.79 320.724 257.99 319.56 248.798H254.109V248.785Z" fill="url(#paint43_linear)"/>
<path d="M269.343 233.051L269.498 231.383C269.679 230.983 270.041 230.698 270.468 230.634C272.084 230.375 276.106 229.922 278.033 231.37L278.318 233.31L269.343 233.051Z" fill="url(#paint44_linear)"/>
<path d="M274.4 231.435C274.025 231.526 273.65 231.526 273.274 231.435C272.822 231.319 272.499 230.918 272.499 230.453V225.217H275.163V230.453C275.176 230.918 274.852 231.332 274.4 231.435Z" fill="url(#paint45_linear)"/>
<path d="M295.169 233.051L295.324 231.383C295.505 230.983 295.867 230.698 296.294 230.634C297.911 230.375 301.933 229.922 303.86 231.37L304.144 233.31L295.169 233.051Z" fill="url(#paint46_linear)"/>
<path d="M300.226 231.435C299.851 231.525 299.476 231.525 299.101 231.435C298.648 231.318 298.325 230.918 298.325 230.452V224.66H300.989V230.452C300.989 230.918 300.678 231.331 300.226 231.435Z" fill="url(#paint47_linear)"/>
<path d="M272.227 226.496L300.898 225.552C301.558 225.526 302.101 225.061 302.217 224.415C302.373 223.522 302.515 222.178 302.308 220.782C302.075 219.204 300.704 218.028 299.101 217.989C293.747 217.86 280.129 217.86 272.628 220.833C271.839 221.144 271.244 221.829 271.05 222.656C270.856 223.445 270.727 224.492 270.986 225.565C271.115 226.134 271.645 226.522 272.227 226.496Z" fill="url(#paint48_linear)"/>
<path d="M271.736 225.009C271.671 225.009 271.619 224.957 271.606 224.893C271.606 224.841 271.503 223.768 271.774 222.734C271.981 221.945 272.615 221.311 273.404 221.079C275.007 220.613 278.06 219.812 280.543 219.747C280.607 219.747 280.672 219.799 280.672 219.863C280.672 219.928 280.62 219.993 280.555 219.993C278.085 220.057 275.059 220.859 273.481 221.311C272.77 221.518 272.214 222.087 272.02 222.785C271.749 223.781 271.852 224.841 271.852 224.854C271.865 224.944 271.813 225.009 271.736 225.009C271.749 225.009 271.736 225.009 271.736 225.009Z" fill="#91B3FA"/>
<path d="M256.035 232.391C265.295 232.275 305.373 231.848 317.012 233.257C318.021 233.374 318.835 234.111 319.055 235.093C319.741 238.196 321.124 245.423 320.969 252.585C320.943 253.555 320.232 254.383 319.275 254.564L292.699 259.593H283.258L254.949 253.969C253.953 253.775 253.216 252.922 253.164 251.913C252.983 248.306 252.699 239.864 253.669 234.421C253.863 233.257 254.859 232.404 256.035 232.391Z" fill="url(#paint49_linear)"/>
<path d="M291.794 263.549H283.53C282.444 263.549 281.538 262.748 281.409 261.675L280.452 253.724C280.297 252.457 281.293 251.345 282.573 251.345H292.505C293.759 251.345 294.742 252.418 294.639 253.659L293.928 261.61C293.837 262.709 292.906 263.549 291.794 263.549Z" fill="url(#paint50_linear)"/>
<path d="M291.16 262.619H284.15C283.232 262.619 282.456 261.933 282.353 261.028L281.538 254.28C281.409 253.206 282.249 252.263 283.336 252.263H291.768C292.828 252.263 293.669 253.168 293.578 254.228L292.97 260.977C292.88 261.907 292.091 262.619 291.16 262.619Z" fill="#7D97F4"/>
<path d="M278.215 154.807C278.215 154.807 286.556 192.442 279.004 213.606C288.276 217.898 286.556 217.097 286.556 217.097C286.556 217.097 304.894 163.546 298.971 149.247C287.293 148.006 281.513 151.148 278.215 154.807Z" fill="url(#paint51_linear)"/>
<path d="M279.003 213.605C279.003 213.605 274.231 219.785 274.606 222.242C274.994 224.698 275.085 225.707 275.085 225.707C275.085 225.707 277.49 224.065 277.335 221.97C276.999 228.628 278.732 228.034 280.749 227.659C282.78 227.297 289.311 225.797 286.931 215.493C281.551 211.757 280.038 212.17 279.003 213.605Z" fill="url(#paint52_linear)"/>
<path d="M262.566 140.3L276.327 112.181C276.327 112.181 313.585 134.625 295.479 188.02C290.539 184.581 287.992 185.473 281.862 187.722C280.374 132.53 262.566 140.3 262.566 140.3Z" fill="url(#paint53_linear)"/>
<path fill-rule="evenodd" clip-rule="evenodd" d="M173.284 239H157.631C154.594 239 152.285 238.326 150.702 236.934C149.12 235.587 148.35 233.566 148.35 230.916V221.5H159.17V227.907C159.17 230.063 160.325 231.096 162.635 231.096H168.622C170.547 231.006 171.659 230.198 171.915 228.671V221.5H182.65V230.737C182.65 232.084 182.393 233.251 181.966 234.24C181.495 235.272 180.854 236.126 180.041 236.844C179.229 237.563 178.245 238.102 177.09 238.461C175.935 238.82 174.652 239 173.284 239ZM182.65 216.5V221.5H190V216.5H182.65ZM171.915 216.5H182.65V204H171.915V216.5ZM148.35 216.5V221.5H141V216.5H148.35ZM148.35 216.5V204H159.17V216.5H148.35Z" fill="#E44E46"/>
<path d="M63.8411 193.5H90.6765L95 185H45.8017L50.4233 193.5H54.8959L52.7342 197.75L48.4852 206.25L42 219H77.7806L82.1041 210.5H55.2686L57.4304 206.25H75.3207L88.5148 197.75H61.6793L63.8411 193.5Z" fill="#E44E46"/>
</g>
<defs>
<linearGradient id="paint0_linear" x1="383.641" y1="407.785" x2="118.068" y2="121.049" gradientUnits="userSpaceOnUse">
<stop stop-color="#DAE3FE"/>
<stop offset="1" stop-color="#E9EFFD"/>
</linearGradient>
<linearGradient id="paint1_linear" x1="104.787" y1="114.417" x2="106.101" y2="114.417" gradientUnits="userSpaceOnUse">
<stop stop-color="#4F52FF"/>
<stop offset="1" stop-color="#4042E2"/>
</linearGradient>
<linearGradient id="paint2_linear" x1="136.508" y1="109.469" x2="137.769" y2="109.469" gradientUnits="userSpaceOnUse">
<stop stop-color="#4F52FF"/>
<stop offset="1" stop-color="#4042E2"/>
</linearGradient>
<linearGradient id="paint3_linear" x1="159.453" y1="108.765" x2="161.922" y2="108.765" gradientUnits="userSpaceOnUse">
<stop stop-color="#4F52FF"/>
<stop offset="1" stop-color="#4042E2"/>
</linearGradient>
<linearGradient id="paint4_linear" x1="183.62" y1="98.5435" x2="184.881" y2="98.5435" gradientUnits="userSpaceOnUse">
<stop stop-color="#4F52FF"/>
<stop offset="1" stop-color="#4042E2"/>
</linearGradient>
<linearGradient id="paint5_linear" x1="64.1638" y1="93.6727" x2="72.5188" y2="93.6727" gradientUnits="userSpaceOnUse">
<stop stop-color="#4F52FF"/>
<stop offset="1" stop-color="#4042E2"/>
</linearGradient>
<linearGradient id="paint6_linear" x1="62.0025" y1="56.4518" x2="68.6229" y2="56.4518" gradientUnits="userSpaceOnUse">
<stop stop-color="#4F52FF"/>
<stop offset="1" stop-color="#4042E2"/>
</linearGradient>
<linearGradient id="paint7_linear" x1="65.7227" y1="128.231" x2="200.616" y2="128.231" gradientUnits="userSpaceOnUse">
<stop stop-color="#4F52FF"/>
<stop offset="1" stop-color="#4042E2"/>
</linearGradient>
<linearGradient id="paint8_linear" x1="195.903" y1="128.23" x2="201.832" y2="128.23" gradientUnits="userSpaceOnUse">
<stop stop-color="#4F52FF"/>
<stop offset="1" stop-color="#4042E2"/>
</linearGradient>
<linearGradient id="paint9_linear" x1="76.1606" y1="87.3516" x2="186.945" y2="87.3516" gradientUnits="userSpaceOnUse">
<stop stop-color="#4F52FF"/>
<stop offset="1" stop-color="#4042E2"/>
</linearGradient>
<linearGradient id="paint10_linear" x1="179.513" y1="69.9625" x2="187.605" y2="69.9625" gradientUnits="userSpaceOnUse">
<stop stop-color="#4F52FF"/>
<stop offset="1" stop-color="#4042E2"/>
</linearGradient>
<linearGradient id="paint11_linear" x1="84.7632" y1="40.2263" x2="60.1998" y2="378.953" gradientUnits="userSpaceOnUse">
<stop stop-color="#FF928E"/>
<stop offset="1" stop-color="#FE7062"/>
</linearGradient>
<linearGradient id="paint12_linear" x1="86.1762" y1="40.2024" x2="61.6128" y2="378.929" gradientUnits="userSpaceOnUse">
<stop stop-color="#FF928E"/>
<stop offset="1" stop-color="#FE7062"/>
</linearGradient>
<linearGradient id="paint13_linear" x1="87.5885" y1="40.1778" x2="63.0248" y2="378.906" gradientUnits="userSpaceOnUse">
<stop stop-color="#FF928E"/>
<stop offset="1" stop-color="#FE7062"/>
</linearGradient>
<linearGradient id="paint14_linear" x1="89.0015" y1="40.1541" x2="64.4378" y2="378.882" gradientUnits="userSpaceOnUse">
<stop stop-color="#FF928E"/>
<stop offset="1" stop-color="#FE7062"/>
</linearGradient>
<linearGradient id="paint15_linear" x1="90.4135" y1="40.1305" x2="65.8499" y2="378.859" gradientUnits="userSpaceOnUse">
<stop stop-color="#FF928E"/>
<stop offset="1" stop-color="#FE7062"/>
</linearGradient>
<linearGradient id="paint16_linear" x1="91.7437" y1="40.1023" x2="67.1802" y2="378.829" gradientUnits="userSpaceOnUse">
<stop stop-color="#FF928E"/>
<stop offset="1" stop-color="#FE7062"/>
</linearGradient>
<linearGradient id="paint17_linear" x1="5.85484" y1="271.688" x2="65.7916" y2="202.098" gradientUnits="userSpaceOnUse">
<stop stop-color="#FF928E"/>
<stop offset="1" stop-color="#FE7062"/>
</linearGradient>
<linearGradient id="paint18_linear" x1="62.8012" y1="103.64" x2="71.5146" y2="304.104" gradientUnits="userSpaceOnUse">
<stop stop-color="#FF928E"/>
<stop offset="1" stop-color="#FE7062"/>
</linearGradient>
<linearGradient id="paint19_linear" x1="185.636" y1="123.212" x2="152.217" y2="404.716" gradientUnits="userSpaceOnUse">
<stop stop-color="#FF928E"/>
<stop offset="1" stop-color="#FE7062"/>
</linearGradient>
<linearGradient id="paint20_linear" x1="187.891" y1="123.308" x2="154.472" y2="404.812" gradientUnits="userSpaceOnUse">
<stop stop-color="#FF928E"/>
<stop offset="1" stop-color="#FE7062"/>
</linearGradient>
<linearGradient id="paint21_linear" x1="190.146" y1="123.404" x2="156.727" y2="404.908" gradientUnits="userSpaceOnUse">
<stop stop-color="#FF928E"/>
<stop offset="1" stop-color="#FE7062"/>
</linearGradient>
<linearGradient id="paint22_linear" x1="192.4" y1="123.499" x2="158.981" y2="405.004" gradientUnits="userSpaceOnUse">
<stop stop-color="#FF928E"/>
<stop offset="1" stop-color="#FE7062"/>
</linearGradient>
<linearGradient id="paint23_linear" x1="194.564" y1="123.586" x2="161.145" y2="405.09" gradientUnits="userSpaceOnUse">
<stop stop-color="#FF928E"/>
<stop offset="1" stop-color="#FE7062"/>
</linearGradient>
<linearGradient id="paint24_linear" x1="102.743" y1="290.625" x2="162.679" y2="221.035" gradientUnits="userSpaceOnUse">
<stop stop-color="#FF928E"/>
<stop offset="1" stop-color="#FE7062"/>
</linearGradient>
<linearGradient id="paint25_linear" x1="171.523" y1="87.7384" x2="161.067" y2="269.028" gradientUnits="userSpaceOnUse">
<stop stop-color="#FF928E"/>
<stop offset="1" stop-color="#FE7062"/>
</linearGradient>
<linearGradient id="paint26_linear" x1="261.83" y1="13.9" x2="206.056" y2="101.944" gradientUnits="userSpaceOnUse">
<stop stop-color="#FF928E"/>
<stop offset="1" stop-color="#FE7062"/>
</linearGradient>
<linearGradient id="paint27_linear" x1="102.251" y1="79.4383" x2="203.944" y2="209.583" gradientUnits="userSpaceOnUse">
<stop stop-color="#FEBBBA"/>
<stop offset="1" stop-color="#FF928E"/>
</linearGradient>
<linearGradient id="paint28_linear" x1="88.6361" y1="90.0758" x2="190.329" y2="220.221" gradientUnits="userSpaceOnUse">
<stop stop-color="#FEBBBA"/>
<stop offset="1" stop-color="#FF928E"/>
</linearGradient>
<linearGradient id="paint29_linear" x1="255.901" y1="350.402" x2="221.614" y2="350.402" gradientUnits="userSpaceOnUse">
<stop stop-color="#4F52FF"/>
<stop offset="1" stop-color="#4042E2"/>
</linearGradient>
<linearGradient id="paint30_linear" x1="255.904" y1="343.684" x2="222.583" y2="343.684" gradientUnits="userSpaceOnUse">
<stop stop-color="#09005D"/>
<stop offset="1" stop-color="#1A0F91"/>
</linearGradient>
<linearGradient id="paint31_linear" x1="252.736" y1="334.306" x2="243.078" y2="334.306" gradientUnits="userSpaceOnUse">
<stop stop-color="#FEBBBA"/>
<stop offset="1" stop-color="#FF928E"/>
</linearGradient>
<linearGradient id="paint32_linear" x1="317.099" y1="358.902" x2="303.96" y2="358.902" gradientUnits="userSpaceOnUse">
<stop stop-color="#4F52FF"/>
<stop offset="1" stop-color="#4042E2"/>
</linearGradient>
<linearGradient id="paint33_linear" x1="317.004" y1="345.83" x2="297.718" y2="345.83" gradientUnits="userSpaceOnUse">
<stop stop-color="#09005D"/>
<stop offset="1" stop-color="#1A0F91"/>
</linearGradient>
<linearGradient id="paint34_linear" x1="306.979" y1="329.271" x2="295.437" y2="329.271" gradientUnits="userSpaceOnUse">
<stop stop-color="#FEBBBA"/>
<stop offset="1" stop-color="#FF928E"/>
</linearGradient>
<linearGradient id="paint35_linear" x1="213.619" y1="204.753" x2="312.121" y2="366.156" gradientUnits="userSpaceOnUse">
<stop stop-color="#09005D"/>
<stop offset="1" stop-color="#1A0F91"/>
</linearGradient>
<linearGradient id="paint36_linear" x1="280.26" y1="118.271" x2="238.984" y2="228.674" gradientUnits="userSpaceOnUse">
<stop stop-color="#53D8FF"/>
<stop offset="1" stop-color="#3840F7"/>
</linearGradient>
<linearGradient id="paint37_linear" x1="307.725" y1="42.9733" x2="251.951" y2="131.018" gradientUnits="userSpaceOnUse">
<stop stop-color="#FF928E"/>
<stop offset="1" stop-color="#FE7062"/>
</linearGradient>
<linearGradient id="paint38_linear" x1="273.177" y1="-7.35974" x2="199.15" y2="166.318" gradientUnits="userSpaceOnUse">
<stop stop-color="#E1473D"/>
<stop offset="1" stop-color="#E9605A"/>
</linearGradient>
<linearGradient id="paint39_linear" x1="250.116" y1="124.644" x2="245.118" y2="98.3958" gradientUnits="userSpaceOnUse">
<stop stop-color="#FEBBBA"/>
<stop offset="1" stop-color="#FF928E"/>
</linearGradient>
<linearGradient id="paint40_linear" x1="236.583" y1="76.4873" x2="265.112" y2="98.3223" gradientUnits="userSpaceOnUse">
<stop stop-color="#FEBBBA"/>
<stop offset="1" stop-color="#FF928E"/>
</linearGradient>
<linearGradient id="paint41_linear" x1="256.671" y1="59.2055" x2="230.105" y2="93.4188" gradientUnits="userSpaceOnUse">
<stop stop-color="#09005D"/>
<stop offset="1" stop-color="#1A0F91"/>
</linearGradient>
<linearGradient id="paint42_linear" x1="240.122" y1="71.863" x2="268.651" y2="93.6979" gradientUnits="userSpaceOnUse">
<stop stop-color="#FEBBBA"/>
<stop offset="1" stop-color="#FF928E"/>
</linearGradient>
<linearGradient id="paint43_linear" x1="291.566" y1="213.337" x2="288.661" y2="240.937" gradientUnits="userSpaceOnUse">
<stop stop-color="#4F52FF"/>
<stop offset="1" stop-color="#4042E2"/>
</linearGradient>
<linearGradient id="paint44_linear" x1="276.389" y1="199.513" x2="275.517" y2="210.988" gradientUnits="userSpaceOnUse">
<stop stop-color="#4F52FF"/>
<stop offset="1" stop-color="#4042E2"/>
</linearGradient>
<linearGradient id="paint45_linear" x1="273.396" y1="193.544" x2="273.542" y2="204.874" gradientUnits="userSpaceOnUse">
<stop stop-color="#4F52FF"/>
<stop offset="1" stop-color="#4042E2"/>
</linearGradient>
<linearGradient id="paint46_linear" x1="302.066" y1="201.462" x2="301.195" y2="212.938" gradientUnits="userSpaceOnUse">
<stop stop-color="#4F52FF"/>
<stop offset="1" stop-color="#4042E2"/>
</linearGradient>
<linearGradient id="paint47_linear" x1="299.221" y1="193.212" x2="299.366" y2="204.543" gradientUnits="userSpaceOnUse">
<stop stop-color="#4F52FF"/>
<stop offset="1" stop-color="#4042E2"/>
</linearGradient>
<linearGradient id="paint48_linear" x1="287.525" y1="221.662" x2="297.982" y2="199.58" gradientUnits="userSpaceOnUse">
<stop stop-color="#4F52FF"/>
<stop offset="1" stop-color="#4042E2"/>
</linearGradient>
<linearGradient id="paint49_linear" x1="305.022" y1="211.909" x2="371.251" y2="93.3576" gradientUnits="userSpaceOnUse">
<stop stop-color="#4F52FF"/>
<stop offset="1" stop-color="#4042E2"/>
</linearGradient>
<linearGradient id="paint50_linear" x1="290.106" y1="234.315" x2="286.388" y2="263.786" gradientUnits="userSpaceOnUse">
<stop stop-color="#09005D"/>
<stop offset="1" stop-color="#1A0F91"/>
</linearGradient>
<linearGradient id="paint51_linear" x1="272.185" y1="280.171" x2="292.283" y2="135.784" gradientUnits="userSpaceOnUse">
<stop stop-color="#FEBBBA"/>
<stop offset="1" stop-color="#FF928E"/>
</linearGradient>
<linearGradient id="paint52_linear" x1="277.316" y1="247.63" x2="287.765" y2="172.564" gradientUnits="userSpaceOnUse">
<stop stop-color="#FEBBBA"/>
<stop offset="1" stop-color="#FF928E"/>
</linearGradient>
<linearGradient id="paint53_linear" x1="340.61" y1="63.8046" x2="284.836" y2="151.849" gradientUnits="userSpaceOnUse">
<stop stop-color="#FF928E"/>
<stop offset="1" stop-color="#FE7062"/>
</linearGradient>
<clipPath id="clip0">
<rect width="363" height="362" fill="white"/>
</clipPath>
</defs>
</svg>
