<svg width="40" height="40" viewBox="0 0 40 40" fill="none" xmlns="http://www.w3.org/2000/svg">
<circle cx="20" cy="20" r="20" fill="white"/>
<path fill-rule="evenodd" clip-rule="evenodd" d="M14.5336 27H8.46639C7.29552 27 6.39076 26.74 5.77871 26.22C5.16667 25.726 4.87395 24.972 4.87395 23.984V20.5H9.07843V22.892C9.07843 23.698 9.53081 24.088 10.409 24.088H12.7241C13.4692 24.062 13.895 23.75 14.0014 23.178V20.5H18.1527V23.932C18.1527 24.426 18.0462 24.868 17.8866 25.232C17.7003 25.622 17.4608 25.934 17.1415 26.194C16.8221 26.454 16.4496 26.662 15.9972 26.792C15.5714 26.948 15.0658 27 14.5336 27ZM18.1527 18.654V20.5H20L21 18.654H18.1527ZM14.0014 18.654H18.1527V14H14.0014V18.654ZM4.84734 18.654V20.5H2V18.654H4.84734ZM4.84734 18.654V14H9.05182V18.654H4.84734Z" fill="url(#paint0_linear)"/>
<path d="M26.8303 17.2424H36.4455L38 14H20.3818V17.2424H23.6348L22.8576 18.8788L21.3318 22.1212L19 27H31.8106L33.3652 23.7576H23.7788L24.5561 22.1212H30.9758L35.697 18.8788H26.053L26.8303 17.2424Z" fill="url(#paint1_linear)"/>
<defs>
<linearGradient id="paint0_linear" x1="2.00921" y1="20.5094" x2="21.0168" y2="20.5094" gradientUnits="userSpaceOnUse">
<stop stop-color="#F95252"/>
<stop offset="0.9848" stop-color="#B90973"/>
</linearGradient>
<linearGradient id="paint1_linear" x1="19.0158" y1="20.4956" x2="37.9968" y2="20.4956" gradientUnits="userSpaceOnUse">
<stop stop-color="#5A39BF"/>
<stop offset="1" stop-color="#A036EE"/>
</linearGradient>
</defs>
</svg>
