<svg width="76" height="68" viewBox="0 0 76 68" fill="none" xmlns="http://www.w3.org/2000/svg">
<path d="M0.121654 18.7752L7.02748 60.1382C7.74684 64.2386 11.2717 67.1879 15.372 67.1879H60.5476C64.648 67.1879 68.2447 64.2386 68.8922 60.1382L75.8699 19.2068C76.4454 15.9697 75.0786 12.8046 72.417 10.8623L59.4686 1.58259C58.1018 0.575486 56.3754 0 54.6489 0H19.1127C17.0985 0 15.2281 0.719357 13.7175 1.94226L2.99908 10.8623C0.69714 12.8046 -0.381895 15.8259 0.121654 18.7752Z" fill="#B8DDF7"/>
<path d="M9.47327 62.656C9.47327 62.656 18.5372 51.5779 18.5372 50.4269C18.5372 49.3479 17.8897 37.4785 18.5372 36.903C19.1846 36.3994 20.1197 46.8301 22.1339 47.9091C24.1481 49.0601 35.2262 47.2617 37.9598 47.6933C40.6934 48.125 53.426 51.2182 54.5769 49.4198C55.7279 47.6933 55.2244 29.7814 56.8789 30.6446C58.5334 31.5078 56.4473 46.3985 57.814 49.4198C59.1808 52.4411 58.7492 53.5921 63.9286 60.2821C69.1799 66.9721 60.9792 64.9579 58.4615 64.0227C55.9437 63.0876 43.7147 65.8211 40.3337 65.0298C36.9527 64.2386 10.6242 67.116 9.47327 62.656Z" fill="url(#paint0_linear)"/>
<path d="M71.1941 31.8675C73.6399 33.3062 68.3166 64.3824 65.2234 64.6702C62.0582 64.9579 50.8363 66.6125 47.8869 64.6702C44.9375 62.7279 19.5443 64.9579 19.1126 63.5912C18.681 62.2244 34.7946 62.5841 38.1037 54.0956C39.1827 51.0743 51.4837 46.7582 56.5911 46.1108C64.8637 45.0317 67.8131 29.7814 71.1941 31.8675Z" fill="url(#paint1_linear)"/>
<path d="M9.47327 58.9872C9.47327 58.9872 10.2646 63.0156 13.5017 64.6702C16.8107 66.2527 29.3275 64.6702 29.9749 65.6053C30.5504 66.5405 15.4439 66.8282 13.9333 66.2527C12.4226 65.6773 8.82585 63.0876 9.47327 58.9872Z" fill="url(#paint2_linear)"/>
<path d="M73.7118 13.9555C73.7118 13.9555 62.4898 16.4014 60.8353 15.6101C59.1808 14.8188 51.3398 14.531 48.6062 14.8188C45.8727 15.1065 32.133 16.4014 27.4572 14.8907C27.4572 14.8907 38.4633 14.8907 44.7217 13.1642C50.9082 11.3659 60.7634 13.8836 63.7847 14.0275C66.806 14.1713 70.7624 12.0133 68.3166 10.5746C65.8708 9.13585 67.0937 8.20068 67.0937 8.20068C67.0937 8.20068 74.1434 12.0133 73.7118 13.9555Z" fill="url(#paint3_linear)"/>
<path d="M5.5168 11.0781C5.5168 11.0781 4.2939 12.2291 5.5168 13.1643C6.73971 14.0994 14.5807 13.2362 16.8826 14.0275C19.1846 14.7468 24.5798 14.8907 24.5798 14.8907C24.5798 14.8907 15.5159 15.0346 13.8613 14.8907C12.1349 14.6749 2.85518 16.4014 2.13583 15.6101C1.41647 14.8188 5.5168 11.0781 5.5168 11.0781Z" fill="url(#paint4_linear)"/>
<path d="M9.47327 12.4449C9.47327 12.4449 19.5443 11.7255 22.5656 12.0133C25.5869 12.301 41.4846 13.0923 46.8798 12.0133C46.8798 12.0133 32.2049 14.4591 25.8746 14.0275C19.5443 13.452 12.7104 12.2291 9.47327 12.4449Z" fill="url(#paint5_linear)"/>
<path d="M52.6346 11.8694C52.6346 11.8694 57.9579 10.9342 60.1879 12.3729C62.4179 13.8117 67.5973 13.3081 67.0218 11.9413C66.4463 10.5746 65.655 9.0639 65.655 9.0639C65.655 9.0639 62.7776 11.4378 61.4827 10.5026C60.044 9.56745 52.6346 11.8694 52.6346 11.8694Z" fill="url(#paint6_linear)"/>
<path d="M8.17847 8.12872C8.17847 8.12872 14.6527 1.65451 17.2424 0.791279C19.832 -0.0719488 30.0469 1.00709 32.4927 0.791279C34.9385 0.575472 40.2618 0.791279 40.2618 0.791279C40.2618 0.791279 31.054 1.51064 29.975 2.87741C28.8959 4.24419 21.1988 5.4671 19.6882 5.17936C18.1775 4.89161 8.17847 8.12872 8.17847 8.12872Z" fill="url(#paint7_linear)"/>
<path d="M48.6064 0.863193C48.6064 0.863193 55.2245 0.287708 56.4474 0.863193C57.6703 1.36674 61.2671 4.31611 61.2671 4.31611C61.2671 4.31611 62.3461 7.40934 59.8284 6.61805C57.3106 5.89869 51.6996 9.78322 49.9012 9.06386C48.1028 8.27257 37.1686 9.71128 34.0035 9.1358C30.9102 8.63225 35.2983 4.24417 41.0531 4.31611C46.7361 4.38804 50.5487 1.65449 48.6064 0.863193Z" fill="url(#paint8_linear)"/>
<path d="M5.37292 42.514C5.37292 42.514 7.67487 48.9882 8.25035 49.4917C8.82584 49.9234 10.0487 52.3692 9.47326 53.4482C8.89777 54.5272 8.25035 57.2608 8.25035 57.2608L5.37292 42.514Z" fill="url(#paint9_linear)"/>
<path d="M74.4312 16.6891C75.8699 16.1136 75.2225 20.7894 74.4312 21.5088C73.6399 22.2281 73.2083 30.7165 73.2083 30.7165C73.2083 30.7165 73.7118 25.1055 71.7695 23.6668C69.8992 22.2281 74.4312 16.6891 74.4312 16.6891Z" fill="url(#paint10_linear)"/>
<path d="M10.4805 57.1889C12.4947 55.1027 13.0702 57.1889 15.1563 58.9873C17.2424 60.7857 24.2202 60.0663 24.2202 60.0663C24.2202 60.0663 17.0986 62.9437 14.8685 62.7999C12.5666 62.656 9.54531 58.124 10.4805 57.1889Z" fill="url(#paint11_linear)"/>
<path d="M34.0753 31.7956H58.1018L61.9863 24.0984H17.9617L22.062 31.7956H26.0904L24.1482 35.6801L20.3356 43.3772L14.5088 54.9589H46.5202L50.4047 47.2617H26.4501L28.3924 43.3772H44.434L56.2315 35.6801H32.133L34.0753 31.7956Z" fill="url(#paint12_linear)"/>
<path d="M2.92713 17.3365C5.58875 16.4013 25.5869 16.4013 30.6224 17.3365C35.5859 18.2717 52.6347 15.3223 56.9508 16.6891C61.267 18.0559 73.2802 14.7468 73.2802 15.9697C73.2802 17.1926 54.6489 21.5088 52.8505 24.5301C49.2537 30.7165 49.2537 36.903 40.6214 35.5362C31.9891 34.1695 29.4714 45.0317 26.9536 46.6863C24.5078 48.3408 11.7752 52.9447 8.61005 47.9811C5.44488 42.9456 0.121638 18.3436 2.92713 17.3365Z" fill="url(#paint13_linear)"/>
<defs>
<linearGradient id="paint0_linear" x1="37.5668" y1="101.261" x2="37.5668" y2="27.4994" gradientUnits="userSpaceOnUse">
<stop stop-color="#447FBB"/>
<stop offset="1" stop-color="#447FBB" stop-opacity="0"/>
</linearGradient>
<linearGradient id="paint1_linear" x1="56.9871" y1="77.3888" x2="45.8732" y2="49.4908" gradientUnits="userSpaceOnUse">
<stop stop-color="white"/>
<stop offset="1" stop-color="white" stop-opacity="0.1"/>
</linearGradient>
<linearGradient id="paint2_linear" x1="23.5027" y1="72.8982" x2="18.1449" y2="59.4491" gradientUnits="userSpaceOnUse">
<stop stop-color="white"/>
<stop offset="1" stop-color="white" stop-opacity="0.1"/>
</linearGradient>
<linearGradient id="paint3_linear" x1="53.8319" y1="27.7289" x2="49.7494" y2="10.9448" gradientUnits="userSpaceOnUse">
<stop stop-color="#447FBB"/>
<stop offset="1" stop-color="#447FBB" stop-opacity="0"/>
</linearGradient>
<linearGradient id="paint4_linear" x1="8.63263" y1="30.5672" x2="15.1347" y2="8.94415" gradientUnits="userSpaceOnUse">
<stop stop-color="#447FBB"/>
<stop offset="1" stop-color="#447FBB" stop-opacity="0"/>
</linearGradient>
<linearGradient id="paint5_linear" x1="30.9195" y1="23.3449" x2="27.5008" y2="9.29013" gradientUnits="userSpaceOnUse">
<stop stop-color="white"/>
<stop offset="1" stop-color="white" stop-opacity="0.1"/>
</linearGradient>
<linearGradient id="paint6_linear" x1="61.3343" y1="18.0274" x2="59.5659" y2="10.7571" gradientUnits="userSpaceOnUse">
<stop stop-color="white"/>
<stop offset="1" stop-color="white" stop-opacity="0.1"/>
</linearGradient>
<linearGradient id="paint7_linear" x1="25.47" y1="9.557" x2="23.1989" y2="0.22047" gradientUnits="userSpaceOnUse">
<stop stop-color="white"/>
<stop offset="1" stop-color="white" stop-opacity="0.1"/>
</linearGradient>
<linearGradient id="paint8_linear" x1="71.3548" y1="0.207572" x2="42.7762" y2="6.55834" gradientUnits="userSpaceOnUse">
<stop stop-color="white"/>
<stop offset="1" stop-color="white" stop-opacity="0.1"/>
</linearGradient>
<linearGradient id="paint9_linear" x1="-1.77863" y1="51.581" x2="10.9228" y2="49.0104" gradientUnits="userSpaceOnUse">
<stop stop-color="white"/>
<stop offset="1" stop-color="white" stop-opacity="0.1"/>
</linearGradient>
<linearGradient id="paint10_linear" x1="78.8453" y1="22.8905" x2="70.2264" y2="24.2513" gradientUnits="userSpaceOnUse">
<stop stop-color="white"/>
<stop offset="1" stop-color="white" stop-opacity="0.1"/>
</linearGradient>
<linearGradient id="paint11_linear" x1="22.152" y1="79.4122" x2="16.7084" y2="56.5797" gradientUnits="userSpaceOnUse">
<stop stop-color="white"/>
<stop offset="1" stop-color="white" stop-opacity="0.1"/>
</linearGradient>
<linearGradient id="paint12_linear" x1="14.5483" y1="39.5183" x2="61.9784" y2="39.5183" gradientUnits="userSpaceOnUse">
<stop stop-color="#5A39BF"/>
<stop offset="1" stop-color="#A036EE"/>
</linearGradient>
<linearGradient id="paint13_linear" x1="37.4949" y1="12.5138" x2="38.4021" y2="39.9582" gradientUnits="userSpaceOnUse">
<stop stop-color="white"/>
<stop offset="1" stop-color="white" stop-opacity="0.1"/>
</linearGradient>
</defs>
</svg>
