<svg width="76" height="68" viewBox="0 0 76 68" fill="none" xmlns="http://www.w3.org/2000/svg">
<path d="M0.121654 18.7752L7.02748 60.1382C7.74684 64.2386 11.2717 67.1879 15.372 67.1879H60.5476C64.648 67.1879 68.2447 64.2386 68.8922 60.1382L75.8699 19.2068C76.4454 15.9697 75.0786 12.8046 72.417 10.8623L59.4686 1.58259C58.1018 0.575486 56.3754 0 54.6489 0H19.1127C17.0985 0 15.2281 0.719357 13.7175 1.94226L2.99908 10.8623C0.69714 12.8046 -0.381895 15.8259 0.121654 18.7752Z" fill="#B8DDF7"/>
<path d="M9.47314 62.656C9.47314 62.656 18.537 51.5779 18.537 50.4269C18.537 49.3479 17.8896 37.4785 18.537 36.903C19.1845 36.3994 20.1196 46.8301 22.1338 47.9091C24.148 49.0601 35.2261 47.2617 37.9597 47.6933C40.6932 48.125 53.4258 51.2182 54.5768 49.4198C55.7278 47.6933 55.2242 29.7814 56.8788 30.6446C58.5333 31.5078 56.4471 46.3985 57.8139 49.4198C59.1807 52.4411 58.7491 53.5921 63.9285 60.2821C69.1798 66.9721 60.9791 64.9579 58.4613 64.0227C55.9436 63.0876 43.7145 65.8211 40.3336 65.0298C36.9526 64.2386 10.6241 67.116 9.47314 62.656Z" fill="url(#paint0_linear)"/>
<path d="M9.47339 58.9872C9.47339 58.9872 10.2647 63.0156 13.5018 64.6702C16.8108 66.2527 29.3276 64.6702 29.9751 65.6053C30.5505 66.5405 15.4441 66.8282 13.9334 66.2527C12.4228 65.6773 8.82597 63.0876 9.47339 58.9872Z" fill="url(#paint1_linear)"/>
<path d="M73.7119 13.9555C73.7119 13.9555 62.49 16.4014 60.8354 15.6101C59.1809 14.8188 51.3399 14.531 48.6064 14.8188C45.8728 15.1065 32.1331 16.4014 27.4573 14.8907C27.4573 14.8907 38.4634 14.8907 44.7218 13.1642C50.9083 11.3659 60.7635 13.8836 63.7848 14.0275C66.8061 14.1713 70.7626 12.0133 68.3167 10.5746C65.8709 9.13585 67.0938 8.20068 67.0938 8.20068C67.0938 8.20068 74.1435 12.0133 73.7119 13.9555Z" fill="url(#paint2_linear)"/>
<path d="M5.51693 11.0781C5.51693 11.0781 4.29402 12.2291 5.51693 13.1643C6.73983 14.0994 14.5808 13.2362 16.8828 14.0275C19.1847 14.7468 24.5799 14.8907 24.5799 14.8907C24.5799 14.8907 15.516 15.0346 13.8615 14.8907C12.135 14.6749 2.85531 16.4014 2.13595 15.6101C1.41659 14.8188 5.51693 11.0781 5.51693 11.0781Z" fill="url(#paint3_linear)"/>
<path d="M9.47314 12.4449C9.47314 12.4449 19.5441 11.7255 22.5654 12.0133C25.5867 12.301 41.4845 13.0923 46.8797 12.0133C46.8797 12.0133 32.2048 14.4591 25.8745 14.0275C19.5441 13.452 12.7103 12.2291 9.47314 12.4449Z" fill="url(#paint4_linear)"/>
<path d="M52.6348 11.8694C52.6348 11.8694 57.958 10.9342 60.188 12.3729C62.418 13.8117 67.5974 13.3081 67.0219 11.9413C66.4464 10.5746 65.6551 9.0639 65.6551 9.0639C65.6551 9.0639 62.7777 11.4378 61.4829 10.5026C60.0441 9.56745 52.6348 11.8694 52.6348 11.8694Z" fill="url(#paint5_linear)"/>
<path d="M8.17847 8.12872C8.17847 8.12872 14.6527 1.65451 17.2424 0.791279C19.832 -0.0719488 30.0469 1.00709 32.4927 0.791279C34.9385 0.575472 40.2618 0.791279 40.2618 0.791279C40.2618 0.791279 31.054 1.51064 29.975 2.87741C28.8959 4.24419 21.1988 5.4671 19.6882 5.17936C18.1775 4.89161 8.17847 8.12872 8.17847 8.12872Z" fill="url(#paint6_linear)"/>
<path d="M48.6064 0.863193C48.6064 0.863193 55.2245 0.287708 56.4474 0.863193C57.6703 1.36674 61.2671 4.31611 61.2671 4.31611C61.2671 4.31611 62.3461 7.40934 59.8284 6.61805C57.3106 5.89869 51.6996 9.78322 49.9012 9.06386C48.1028 8.27257 37.1686 9.71128 34.0035 9.1358C30.9102 8.63225 35.2983 4.24417 41.0531 4.31611C46.7361 4.38804 50.5487 1.65449 48.6064 0.863193Z" fill="url(#paint7_linear)"/>
<path d="M5.37305 42.514C5.37305 42.514 7.67499 48.9882 8.25047 49.4917C8.82596 49.9234 10.0489 52.3692 9.47338 53.4482C8.89789 54.5272 8.25047 57.2608 8.25047 57.2608L5.37305 42.514Z" fill="url(#paint8_linear)"/>
<path d="M74.4313 16.6891C75.87 16.1136 75.2226 20.7894 74.4313 21.5088C73.64 22.2281 73.2084 30.7165 73.2084 30.7165C73.2084 30.7165 73.7119 25.1055 71.7697 23.6668C69.8993 22.2281 74.4313 16.6891 74.4313 16.6891Z" fill="url(#paint9_linear)"/>
<path d="M10.4803 57.1889C12.4945 55.1027 13.07 57.1889 15.1562 58.9873C17.2423 60.7857 24.2201 60.0663 24.2201 60.0663C24.2201 60.0663 17.0984 62.9437 14.8684 62.7999C12.5665 62.656 9.54519 58.124 10.4803 57.1889Z" fill="url(#paint10_linear)"/>
<path d="M71.1942 31.8675C73.64 33.3062 68.3168 64.3824 65.2235 64.6701C62.0584 64.9579 50.8364 66.6124 47.887 64.6701C44.9377 62.7279 19.5444 64.9579 19.1128 63.5911C18.6811 62.2243 34.7947 62.584 38.1038 54.0956C39.1828 51.0743 51.4838 46.7581 56.5912 46.1107C64.8639 45.0317 67.8132 29.7813 71.1942 31.8675Z" fill="url(#paint11_linear)"/>
<path fill-rule="evenodd" clip-rule="evenodd" d="M45.2255 56.7573H28.8241C25.659 56.7573 23.2131 56.0379 21.5586 54.5992C19.9041 53.2324 19.1128 51.1463 19.1128 48.4127V38.7734H30.4786V45.3914C30.4786 47.6214 31.7016 48.7005 34.0754 48.7005H40.3338C42.348 48.6285 43.499 47.7653 43.7867 46.1827V38.7734H55.0087V48.2689C55.0087 49.6356 54.721 50.8585 54.2894 51.8656C53.7858 52.9447 53.1384 53.8079 52.2752 54.5273C51.4119 55.2466 50.4048 55.8221 49.1819 56.1818C48.031 56.6134 46.6642 56.7573 45.2255 56.7573ZM55.0087 33.6659V38.7734H62.7058V33.6659H55.0087ZM43.7867 33.6659H55.0087V20.7894H43.7867V33.6659ZM19.0409 33.6659V38.7734H11.3438V33.6659H19.0409ZM19.0409 33.6659V20.7894H30.4067V33.6659H19.0409Z" fill="url(#paint12_linear)"/>
<path d="M2.92701 17.3365C5.58863 16.4013 25.5867 16.4013 30.6222 17.3365C35.5858 18.2717 52.6346 15.3223 56.9507 16.6891C61.2668 18.0559 73.2801 14.7468 73.2801 15.9697C73.2801 17.1926 54.6488 21.5088 52.8504 24.5301C49.2536 30.7165 49.2536 36.903 40.6213 35.5362C31.989 34.1695 29.4713 45.0317 26.9535 46.6863C24.5077 48.3408 11.7751 52.9447 8.60993 47.9811C5.44476 42.9456 0.121516 18.3436 2.92701 17.3365Z" fill="url(#paint13_linear)"/>
<defs>
<linearGradient id="paint0_linear" x1="37.5667" y1="101.261" x2="37.5667" y2="27.4994" gradientUnits="userSpaceOnUse">
<stop stop-color="#447FBB"/>
<stop offset="1" stop-color="#447FBB" stop-opacity="0"/>
</linearGradient>
<linearGradient id="paint1_linear" x1="23.5029" y1="72.8982" x2="18.145" y2="59.4491" gradientUnits="userSpaceOnUse">
<stop stop-color="white"/>
<stop offset="1" stop-color="white" stop-opacity="0.1"/>
</linearGradient>
<linearGradient id="paint2_linear" x1="53.8321" y1="27.7289" x2="49.7495" y2="10.9448" gradientUnits="userSpaceOnUse">
<stop stop-color="#447FBB"/>
<stop offset="1" stop-color="#447FBB" stop-opacity="0"/>
</linearGradient>
<linearGradient id="paint3_linear" x1="8.63275" y1="30.5672" x2="15.1348" y2="8.94415" gradientUnits="userSpaceOnUse">
<stop stop-color="#447FBB"/>
<stop offset="1" stop-color="#447FBB" stop-opacity="0"/>
</linearGradient>
<linearGradient id="paint4_linear" x1="30.9194" y1="23.3449" x2="27.5007" y2="9.29013" gradientUnits="userSpaceOnUse">
<stop stop-color="white"/>
<stop offset="1" stop-color="white" stop-opacity="0.1"/>
</linearGradient>
<linearGradient id="paint5_linear" x1="61.3345" y1="18.0274" x2="59.566" y2="10.7571" gradientUnits="userSpaceOnUse">
<stop stop-color="white"/>
<stop offset="1" stop-color="white" stop-opacity="0.1"/>
</linearGradient>
<linearGradient id="paint6_linear" x1="25.47" y1="9.557" x2="23.1989" y2="0.22047" gradientUnits="userSpaceOnUse">
<stop stop-color="white"/>
<stop offset="1" stop-color="white" stop-opacity="0.1"/>
</linearGradient>
<linearGradient id="paint7_linear" x1="71.3548" y1="0.207572" x2="42.7762" y2="6.55834" gradientUnits="userSpaceOnUse">
<stop stop-color="white"/>
<stop offset="1" stop-color="white" stop-opacity="0.1"/>
</linearGradient>
<linearGradient id="paint8_linear" x1="-1.77851" y1="51.581" x2="10.923" y2="49.0104" gradientUnits="userSpaceOnUse">
<stop stop-color="white"/>
<stop offset="1" stop-color="white" stop-opacity="0.1"/>
</linearGradient>
<linearGradient id="paint9_linear" x1="78.8454" y1="22.8905" x2="70.2266" y2="24.2513" gradientUnits="userSpaceOnUse">
<stop stop-color="white"/>
<stop offset="1" stop-color="white" stop-opacity="0.1"/>
</linearGradient>
<linearGradient id="paint10_linear" x1="22.1518" y1="79.4122" x2="16.7083" y2="56.5797" gradientUnits="userSpaceOnUse">
<stop stop-color="white"/>
<stop offset="1" stop-color="white" stop-opacity="0.1"/>
</linearGradient>
<linearGradient id="paint11_linear" x1="56.9872" y1="77.3887" x2="45.8733" y2="49.4907" gradientUnits="userSpaceOnUse">
<stop stop-color="white"/>
<stop offset="1" stop-color="white" stop-opacity="0.1"/>
</linearGradient>
<linearGradient id="paint12_linear" x1="11.3686" y1="38.7993" x2="62.7513" y2="38.7993" gradientUnits="userSpaceOnUse">
<stop stop-color="#F95252"/>
<stop offset="0.9848" stop-color="#B90973"/>
</linearGradient>
<linearGradient id="paint13_linear" x1="37.4948" y1="12.5138" x2="38.402" y2="39.9582" gradientUnits="userSpaceOnUse">
<stop stop-color="white"/>
<stop offset="1" stop-color="white" stop-opacity="0.1"/>
</linearGradient>
</defs>
</svg>
