<svg width="12" height="14" viewBox="0 0 12 14" fill="none" xmlns="http://www.w3.org/2000/svg">
<path d="M5.2899 12.7102L0.289896 7.71019C0.198855 7.61508 0.12749 7.50294 0.079896 7.38019C-0.020122 7.13672 -0.020122 6.86365 0.0798961 6.62019C0.12749 6.49743 0.198856 6.38529 0.289896 6.29019L5.2899 1.29019C5.38313 1.19695 5.49382 1.12299 5.61565 1.07253C5.73747 1.02207 5.86804 0.996094 5.9999 0.996094C6.2662 0.996094 6.52159 1.10188 6.7099 1.29019C6.8982 1.47849 7.00399 1.73388 7.00399 2.00019C7.00399 2.26649 6.8982 2.52188 6.7099 2.71019L3.4099 6.00019L10.9999 6.00019C11.2651 6.00019 11.5195 6.10554 11.707 6.29308C11.8945 6.48062 11.9999 6.73497 11.9999 7.00019C11.9999 7.2654 11.8945 7.51976 11.707 7.70729C11.5195 7.89483 11.2651 8.00019 10.9999 8.00019L3.4099 8.00019L6.7099 11.2902C6.80362 11.3831 6.87802 11.4937 6.92879 11.6156C6.97956 11.7375 7.00569 11.8682 7.00569 12.0002C7.00569 12.1322 6.97956 12.2629 6.92879 12.3848C6.87802 12.5066 6.80362 12.6172 6.7099 12.7102C6.61693 12.8039 6.50633 12.8783 6.38447 12.9291C6.26261 12.9798 6.13191 13.006 5.9999 13.006C5.86788 13.006 5.73718 12.9798 5.61532 12.9291C5.49346 12.8783 5.38286 12.8039 5.2899 12.7102Z" fill="#ADBCC7"/>
</svg>
