<svg width="18" height="18" viewBox="0 0 18 18" fill="none" xmlns="http://www.w3.org/2000/svg">
<path d="M16.5 15.6665H15.6667V3.1665C15.6667 2.94549 15.5789 2.73353 15.4226 2.57725C15.2663 2.42097 15.0544 2.33317 14.8334 2.33317C14.6123 2.33317 14.4004 2.42097 14.2441 2.57725C14.0878 2.73353 14 2.94549 14 3.1665V15.6665H12.3334V9.83317C12.3334 9.61216 12.2456 9.4002 12.0893 9.24392C11.933 9.08764 11.721 8.99984 11.5 8.99984C11.279 8.99984 11.067 9.08764 10.9108 9.24392C10.7545 9.4002 10.6667 9.61216 10.6667 9.83317V15.6665H9.00002V6.49984C9.00002 6.27882 8.91222 6.06686 8.75594 5.91058C8.59966 5.7543 8.3877 5.6665 8.16669 5.6665C7.94567 5.6665 7.73371 5.7543 7.57743 5.91058C7.42115 6.06686 7.33335 6.27882 7.33335 6.49984V15.6665H5.66669V13.1665C5.66669 12.9455 5.57889 12.7335 5.42261 12.5772C5.26633 12.421 5.05437 12.3332 4.83335 12.3332C4.61234 12.3332 4.40038 12.421 4.2441 12.5772C4.08782 12.7335 4.00002 12.9455 4.00002 13.1665V15.6665H2.33335V1.49984C2.33335 1.27882 2.24556 1.06686 2.08928 0.910582C1.933 0.754301 1.72103 0.666504 1.50002 0.666504C1.27901 0.666504 1.06704 0.754301 0.910765 0.910582C0.754484 1.06686 0.666687 1.27882 0.666687 1.49984V16.4998C0.666687 16.7209 0.754484 16.9328 0.910765 17.0891C1.06704 17.2454 1.27901 17.3332 1.50002 17.3332H16.5C16.721 17.3332 16.933 17.2454 17.0893 17.0891C17.2456 16.9328 17.3334 16.7209 17.3334 16.4998C17.3334 16.2788 17.2456 16.0669 17.0893 15.9106C16.933 15.7543 16.721 15.6665 16.5 15.6665Z" fill="#ADBCC7"/>
</svg>
