<svg width="18" height="18" viewBox="0 0 18 18" fill="none" xmlns="http://www.w3.org/2000/svg">
<path d="M11.5817 9.52866L9.83336 8.51949V4.83366C9.83336 4.61265 9.74556 4.40068 9.58928 4.2444C9.433 4.08812 9.22104 4.00033 9.00002 4.00033C8.77901 4.00033 8.56705 4.08812 8.41077 4.2444C8.25449 4.40068 8.16669 4.61265 8.16669 4.83366V9.00033C8.16669 9.1466 8.2052 9.2903 8.27834 9.41698C8.35148 9.54366 8.45668 9.64885 8.58336 9.72199L10.7484 10.972C10.8432 11.0276 10.948 11.0639 11.0569 11.0787C11.1658 11.0936 11.2766 11.0868 11.3828 11.0587C11.4891 11.0307 11.5887 10.9818 11.676 10.9151C11.7633 10.8483 11.8365 10.7649 11.8915 10.6698C11.9464 10.5746 11.982 10.4695 11.9962 10.3605C12.0104 10.2515 12.0028 10.1408 11.974 10.0347C11.9452 9.92869 11.8957 9.82937 11.8284 9.74251C11.7611 9.65566 11.6772 9.58298 11.5817 9.52866ZM9.00002 0.666992C7.35185 0.666992 5.74068 1.15573 4.37027 2.07141C2.99986 2.98709 1.93176 4.28858 1.30103 5.8113C0.670298 7.33401 0.50527 9.00957 0.826813 10.6261C1.14836 12.2426 1.94203 13.7274 3.10747 14.8929C4.27291 16.0583 5.75776 16.852 7.37427 17.1735C8.99078 17.4951 10.6663 17.3301 12.1891 16.6993C13.7118 16.0686 15.0133 15.0005 15.9289 13.6301C16.8446 12.2597 17.3334 10.6485 17.3334 9.00033C17.3309 6.79093 16.4522 4.67273 14.8899 3.11045C13.3276 1.54817 11.2094 0.669419 9.00002 0.666992ZM9.00002 15.667C7.68148 15.667 6.39255 15.276 5.29622 14.5435C4.19989 13.8109 3.34541 12.7697 2.84083 11.5515C2.33624 10.3334 2.20422 8.99293 2.46146 7.69972C2.71869 6.40652 3.35363 5.21863 4.28598 4.28628C5.21833 3.35393 6.40622 2.71899 7.69942 2.46176C8.99263 2.20452 10.3331 2.33654 11.5512 2.84113C12.7694 3.34571 13.8106 4.2002 14.5432 5.29652C15.2757 6.39285 15.6667 7.68178 15.6667 9.00033C15.6645 10.7678 14.9614 12.4622 13.7116 13.7119C12.4619 14.9617 10.7675 15.6648 9.00002 15.667Z" fill="#ADBCC7"/>
</svg>
