<svg width="24" height="24" viewBox="0 0 24 24" fill="none" xmlns="http://www.w3.org/2000/svg">
<path d="M12 2C10.0222 2 8.08879 2.58649 6.4443 3.6853C4.79981 4.78412 3.51809 6.3459 2.76121 8.17317C2.00433 10.0004 1.8063 12.0111 2.19215 13.9509C2.578 15.8907 3.53041 17.6725 4.92894 19.0711C6.32746 20.4696 8.10929 21.422 10.0491 21.8079C11.9889 22.1937 13.9996 21.9957 15.8268 21.2388C17.6541 20.4819 19.2159 19.2002 20.3147 17.5557C21.4135 15.9112 22 13.9778 22 12C22 10.6868 21.7413 9.38642 21.2388 8.17317C20.7363 6.95991 19.9997 5.85752 19.0711 4.92893C18.1425 4.00035 17.0401 3.26375 15.8268 2.7612C14.6136 2.25866 13.3132 2 12 2ZM12 20C10.4178 20 8.87104 19.5308 7.55544 18.6518C6.23985 17.7727 5.21447 16.5233 4.60897 15.0615C4.00347 13.5997 3.84504 11.9911 4.15372 10.4393C4.4624 8.88743 5.22433 7.46197 6.34315 6.34315C7.46197 5.22433 8.88743 4.4624 10.4393 4.15372C11.9911 3.84504 13.5997 4.00346 15.0615 4.60896C16.5233 5.21447 17.7727 6.23984 18.6518 7.55544C19.5308 8.87103 20 10.4177 20 12C20 14.1217 19.1572 16.1566 17.6569 17.6569C16.1566 19.1571 14.1217 20 12 20Z" fill="#F4AA5F"/>
<path d="M12.0004 13.001L12.0016 10.001L12.0012 11.001L12.0025 8.00098C12.0026 7.73576 11.8974 7.48136 11.7099 7.29374C11.5225 7.10613 11.2681 7.00066 11.0029 7.00055C10.7377 7.00044 10.4833 7.10569 10.2957 7.29314C10.1081 7.4806 10.0026 7.73491 10.0025 8.00012L10.0012 11.0001L10.0016 10.0001L10.0004 13.0001C10.0003 13.2653 10.1055 13.5197 10.293 13.7074C10.4804 13.895 10.7347 14.0004 10.9999 14.0005C11.2652 14.0007 11.5196 13.8954 11.7072 13.708C11.8948 13.5205 12.0003 13.2662 12.0004 13.001Z" fill="#F4AA5F"/>
<path d="M16.9661 11.9806L14.7951 11.9703L13.3478 11.9635L11.1768 11.9531C10.9849 11.9522 10.8003 12.0567 10.6637 12.2436C10.5271 12.4305 10.4496 12.6845 10.4484 12.9497C10.4471 13.2149 10.5222 13.4696 10.657 13.6578C10.7918 13.846 10.9754 13.9522 11.1673 13.9531L13.3383 13.9634L14.7856 13.9703L16.9566 13.9806C17.1485 13.9815 17.333 13.877 17.4697 13.6901C17.6063 13.5033 17.6837 13.2493 17.685 12.9841C17.6862 12.7188 17.6112 12.4641 17.4764 12.276C17.3415 12.0878 17.158 11.9815 16.9661 11.9806Z" fill="#F4AA5F"/>
</svg>
