<svg width="54" height="29" viewBox="0 0 54 29" fill="none" xmlns="http://www.w3.org/2000/svg">
<path d="M0 14.5C0 6.49187 6.49187 0 14.5 0H39.5C47.5081 0 54 6.49187 54 14.5C54 22.5081 47.5081 29 39.5 29H14.5C6.49187 29 0 22.5081 0 14.5Z" fill="#4B4B4A"/>
<circle cx="14.5" cy="14.5" r="11.5" fill="#2A2A2A"/>
<circle cx="39.5" cy="14.5" r="11.5" fill="white"/>
<path d="M14.4996 9.03163C14.6248 9.03163 14.7449 8.98188 14.8335 8.89332C14.922 8.80476 14.9718 8.68465 14.9718 8.55941V6.90191C14.9718 6.77667 14.922 6.65656 14.8335 6.568C14.7449 6.47944 14.6248 6.42969 14.4996 6.42969C14.3743 6.42969 14.2542 6.47944 14.1657 6.568C14.0771 6.65656 14.0273 6.77667 14.0273 6.90191V8.55941C14.0273 8.68465 14.0771 8.80476 14.1657 8.89332C14.2542 8.98188 14.3743 9.03163 14.4996 9.03163Z" fill="#ADADAD"/>
<path d="M14.4996 19.9688C14.3743 19.9688 14.2542 20.0185 14.1657 20.1071C14.0771 20.1956 14.0273 20.3157 14.0273 20.441V22.0985C14.0273 22.2237 14.0771 22.3438 14.1657 22.4324C14.2542 22.5209 14.3743 22.5707 14.4996 22.5707C14.6248 22.5707 14.7449 22.5209 14.8335 22.4324C14.922 22.3438 14.9718 22.2237 14.9718 22.0985V20.441C14.9718 20.3157 14.922 20.1956 14.8335 20.1071C14.7449 20.0185 14.6248 19.9688 14.4996 19.9688Z" fill="#ADADAD"/>
<path d="M9.9663 10.6321C10.0566 10.7095 10.1728 10.7499 10.2917 10.7453C10.4105 10.7407 10.5233 10.6915 10.6074 10.6074C10.6915 10.5233 10.7407 10.4105 10.7453 10.2917C10.7499 10.1728 10.7095 10.0566 10.6321 9.9663L9.46102 8.79519C9.37069 8.71783 9.25448 8.6774 9.13564 8.68199C9.01679 8.68658 8.90405 8.73585 8.81995 8.81995C8.73585 8.90405 8.68658 9.01679 8.68199 9.13564C8.6774 9.25448 8.71783 9.37069 8.79519 9.46102L9.9663 10.6321Z" fill="#ADADAD"/>
<path d="M19.0333 18.3675C18.943 18.2901 18.8267 18.2497 18.7079 18.2543C18.5891 18.2588 18.4763 18.3081 18.3922 18.3922C18.3081 18.4763 18.2588 18.5891 18.2543 18.7079C18.2497 18.8267 18.2901 18.943 18.3675 19.0333L19.5386 20.2044C19.6289 20.2818 19.7451 20.3222 19.864 20.3176C19.9828 20.313 20.0955 20.2637 20.1796 20.1796C20.2637 20.0955 20.313 19.9828 20.3176 19.864C20.3222 19.7451 20.2818 19.6289 20.2044 19.5386L19.0333 18.3675Z" fill="#ADADAD"/>
<path d="M9.03163 14.4996C9.03163 14.3743 8.98188 14.2542 8.89332 14.1657C8.80476 14.0771 8.68465 14.0273 8.55941 14.0273H6.90191C6.77667 14.0273 6.65656 14.0771 6.568 14.1657C6.47944 14.2542 6.42969 14.3743 6.42969 14.4996C6.42969 14.6248 6.47944 14.7449 6.568 14.8335C6.65656 14.922 6.77667 14.9718 6.90191 14.9718H8.55941C8.68465 14.9718 8.80476 14.922 8.89332 14.8335C8.98188 14.7449 9.03163 14.6248 9.03163 14.4996Z" fill="#ADADAD"/>
<path d="M22.0985 14.0273H20.441C20.3157 14.0273 20.1956 14.0771 20.1071 14.1657C20.0185 14.2542 19.9688 14.3743 19.9688 14.4996C19.9688 14.6248 20.0185 14.7449 20.1071 14.8335C20.1956 14.922 20.3157 14.9718 20.441 14.9718H22.0985C22.2237 14.9718 22.3438 14.922 22.4324 14.8335C22.5209 14.7449 22.5707 14.6248 22.5707 14.4996C22.5707 14.3743 22.5209 14.2542 22.4324 14.1657C22.3438 14.0771 22.2237 14.0273 22.0985 14.0273Z" fill="#ADADAD"/>
<path d="M9.9663 18.3675L8.79519 19.5386C8.71783 19.6289 8.6774 19.7451 8.68199 19.864C8.68658 19.9828 8.73585 20.0955 8.81995 20.1796C8.90405 20.2637 9.01679 20.313 9.13564 20.3176C9.25448 20.3222 9.37069 20.2818 9.46102 20.2044L10.6321 19.0333C10.7095 18.943 10.7499 18.8267 10.7453 18.7079C10.7407 18.5891 10.6915 18.4763 10.6074 18.3922C10.5233 18.3081 10.4105 18.2588 10.2917 18.2543C10.1728 18.2497 10.0566 18.2901 9.9663 18.3675Z" fill="#ADADAD"/>
<path d="M19.0333 10.6321L20.2044 9.46102C20.2818 9.37069 20.3222 9.25448 20.3176 9.13564C20.313 9.01679 20.2637 8.90405 20.1796 8.81995C20.0955 8.73585 19.9828 8.68658 19.864 8.68199C19.7451 8.6774 19.6289 8.71783 19.5386 8.79519L18.3675 9.9663C18.2901 10.0566 18.2497 10.1728 18.2543 10.2917C18.2588 10.4105 18.3081 10.5233 18.3922 10.6074C18.4763 10.6915 18.5891 10.7407 18.7079 10.7453C18.8267 10.7499 18.943 10.7095 19.0333 10.6321Z" fill="#ADADAD"/>
<path d="M14.4996 19.2218C17.1076 19.2218 19.2218 17.1076 19.2218 14.4996C19.2218 11.8916 17.1076 9.77734 14.4996 9.77734C11.8916 9.77734 9.77734 11.8916 9.77734 14.4996C9.77734 17.1076 11.8916 19.2218 14.4996 19.2218Z" fill="#ADADAD"/>
<path d="M44.7892 18.6176C43.559 18.6037 42.3663 18.1921 41.3893 17.4444C40.4124 16.6967 39.7036 15.6529 39.3688 14.4691C39.0341 13.2852 39.0914 12.0248 39.5321 10.8762C39.9728 9.72764 40.7734 8.75248 41.8142 8.09645C41.2883 7.95974 40.7472 7.88993 40.2039 7.88867C38.4505 7.88867 36.7689 8.5852 35.5291 9.82502C34.2893 11.0648 33.5928 12.7464 33.5928 14.4998C33.5928 16.2532 34.2893 17.9347 35.5291 19.1745C36.7689 20.4144 38.4505 21.1109 40.2039 21.1109C41.1972 21.11 42.1772 20.8824 43.0691 20.4454C43.9611 20.0084 44.7416 19.3735 45.3511 18.5892C45.1644 18.6082 44.9768 18.6177 44.7892 18.6176Z" fill="#EF4141"/>
</svg>
