<svg width="12" height="12" viewBox="0 0 12 12" fill="none" xmlns="http://www.w3.org/2000/svg">
<path d="M10.9392 5.1609C10.8555 5.07655 10.756 5.00959 10.6463 4.9639C10.5366 4.91821 10.419 4.89468 10.3002 4.89468C10.1814 4.89468 10.0637 4.91821 9.95405 4.9639C9.84437 5.00959 9.74483 5.07655 9.66117 5.1609L6.70017 8.1309V1.2999C6.70017 1.06121 6.60535 0.832289 6.43656 0.663506C6.26778 0.494724 6.03886 0.399902 5.80017 0.399902C5.56147 0.399902 5.33255 0.494724 5.16377 0.663506C4.99499 0.832289 4.90017 1.06121 4.90017 1.2999V8.1309L1.93917 5.1609C1.76969 4.99143 1.53984 4.89622 1.30017 4.89622C1.0605 4.89622 0.83064 4.99143 0.661167 5.1609C0.491694 5.33038 0.396484 5.56023 0.396484 5.7999C0.396484 6.03957 0.491694 6.26943 0.661167 6.4389L5.16117 10.9389C5.24676 11.0208 5.34769 11.0851 5.45817 11.1279C5.5659 11.1755 5.68238 11.2001 5.80017 11.2001C5.91795 11.2001 6.03444 11.1755 6.14217 11.1279C6.25264 11.0851 6.35357 11.0208 6.43917 10.9389L10.9392 6.4389C11.0235 6.35524 11.0905 6.2557 11.1362 6.14602C11.1819 6.03635 11.2054 5.91871 11.2054 5.7999C11.2054 5.68109 11.1819 5.56346 11.1362 5.45378C11.0905 5.34411 11.0235 5.24457 10.9392 5.1609Z" fill="url(#paint0_linear)"/>
<defs>
<linearGradient id="paint0_linear" x1="11.2054" y1="7.22109" x2="0.396484" y2="7.22109" gradientUnits="userSpaceOnUse">
<stop stop-color="#F95252"/>
<stop offset="0.984776" stop-color="#B90973"/>
</linearGradient>
</defs>
</svg>
