<svg width="18" height="18" viewBox="0 0 18 18" fill="none" xmlns="http://www.w3.org/2000/svg">
<path d="M9.00002 0.666992C7.35185 0.666992 5.74068 1.15573 4.37027 2.07141C2.99986 2.98709 1.93176 4.28858 1.30103 5.8113C0.670298 7.33401 0.50527 9.00957 0.826813 10.6261C1.14836 12.2426 1.94203 13.7274 3.10747 14.8929C4.27291 16.0583 5.75776 16.852 7.37427 17.1735C8.99078 17.4951 10.6663 17.3301 12.1891 16.6993C13.7118 16.0686 15.0133 15.0005 15.9289 13.6301C16.8446 12.2597 17.3334 10.6485 17.3334 9.00033C17.3309 6.79093 16.4522 4.67273 14.8899 3.11045C13.3276 1.54817 11.2094 0.669419 9.00002 0.666992ZM9.00002 15.667C7.68148 15.667 6.39255 15.276 5.29622 14.5435C4.19989 13.8109 3.34541 12.7697 2.84083 11.5515C2.33624 10.3334 2.20422 8.99293 2.46146 7.69972C2.71869 6.40652 3.35363 5.21863 4.28598 4.28628C5.21833 3.35393 6.40622 2.71899 7.69942 2.46176C8.99263 2.20452 10.3331 2.33654 11.5512 2.84113C12.7694 3.34571 13.8106 4.2002 14.5432 5.29652C15.2757 6.39285 15.6667 7.68178 15.6667 9.00033C15.6645 10.7678 14.9614 12.4622 13.7116 13.7119C12.4619 14.9617 10.7675 15.6648 9.00002 15.667ZM9.00002 8.58366C8.77901 8.58366 8.56705 8.67146 8.41077 8.82774C8.25449 8.98402 8.16669 9.19598 8.16669 9.41699V11.917C8.16669 12.138 8.25449 12.35 8.41077 12.5062C8.56705 12.6625 8.77901 12.7503 9.00002 12.7503C9.22104 12.7503 9.433 12.6625 9.58928 12.5062C9.74556 12.35 9.83336 12.138 9.83336 11.917V9.41699C9.83336 9.19598 9.74556 8.98402 9.58928 8.82774C9.433 8.67146 9.22104 8.58366 9.00002 8.58366ZM9.00002 5.25033C8.794 5.25033 8.59261 5.31142 8.42131 5.42588C8.25 5.54034 8.11649 5.70302 8.03765 5.89336C7.95881 6.0837 7.93818 6.29315 7.97837 6.49521C8.01857 6.69728 8.11777 6.88288 8.26345 7.02856C8.40913 7.17424 8.59474 7.27345 8.7968 7.31364C8.99887 7.35384 9.20831 7.33321 9.39865 7.25437C9.58899 7.17553 9.75168 7.04201 9.86614 6.87071C9.9806 6.69941 10.0417 6.49801 10.0417 6.29199C10.0417 6.01573 9.93194 5.75077 9.73659 5.55542C9.54124 5.36007 9.27629 5.25033 9.00002 5.25033Z" fill="#ADBCC7"/>
</svg>
