<svg width="34" height="34" viewBox="0 0 34 34" fill="none" xmlns="http://www.w3.org/2000/svg">
<g clip-path="url(#clip0)">
<path d="M24.0418 9.89968C22.6432 8.50116 20.8614 7.54875 18.9216 7.1629C16.9818 6.77705 14.9711 6.97508 13.1439 7.73196C11.3166 8.48883 9.75482 9.77056 8.65601 11.415C7.5572 13.0595 6.97071 14.9929 6.97071 16.9708C6.97071 18.9486 7.5572 20.882 8.65601 22.5265C9.75482 24.1709 11.3166 25.4527 13.1439 26.2095C14.9711 26.9664 16.9818 27.1645 18.9216 26.7786C20.8614 26.3928 22.6432 25.4403 24.0418 24.0418C24.9704 23.1132 25.707 22.0108 26.2095 20.7976C26.712 19.5843 26.9707 18.284 26.9707 16.9708C26.9707 15.6575 26.712 14.3572 26.2095 13.1439C25.707 11.9307 24.9704 10.8283 24.0418 9.89968ZM11.3139 22.6276C10.195 21.5088 9.43311 20.0833 9.12442 18.5315C8.81574 16.9796 8.97417 15.3711 9.57967 13.9093C10.1852 12.4475 11.2106 11.198 12.5261 10.319C13.8417 9.43994 15.3885 8.97075 16.9707 8.97075C18.553 8.97075 20.0997 9.43994 21.4153 10.319C22.7309 11.198 23.7562 12.4475 24.3617 13.9093C24.9672 15.3711 25.1257 16.9796 24.817 18.5315C24.5083 20.0833 23.7464 21.5088 22.6276 22.6276C21.1273 24.1279 19.0924 24.9708 16.9707 24.9708C14.849 24.9708 12.8141 24.1279 11.3139 22.6276ZM20.5062 19.0921L18.3849 16.9708L20.5062 14.8494C20.6938 14.6619 20.7991 14.4075 20.7991 14.1423C20.7991 13.8771 20.6938 13.6228 20.5062 13.4352C20.3187 13.2477 20.0643 13.1423 19.7991 13.1423C19.5339 13.1423 19.2796 13.2477 19.092 13.4352L16.9707 15.5565L14.8494 13.4352C14.6618 13.2477 14.4075 13.1423 14.1423 13.1423C13.8771 13.1423 13.6227 13.2477 13.4352 13.4352C13.2476 13.6228 13.1423 13.8771 13.1423 14.1423C13.1423 14.4075 13.2476 14.6619 13.4352 14.8494L15.5565 16.9708L13.4352 19.0921C13.2476 19.2796 13.1423 19.534 13.1423 19.7992C13.1423 20.0644 13.2476 20.3187 13.4352 20.5063C13.6227 20.6938 13.8771 20.7992 14.1423 20.7992C14.4075 20.7992 14.6618 20.6938 14.8494 20.5063L16.9707 18.385L19.092 20.5063C19.2796 20.6938 19.5339 20.7992 19.7991 20.7992C20.0644 20.7992 20.3187 20.6938 20.5062 20.5063C20.6938 20.3187 20.7991 20.0644 20.7991 19.7992C20.7991 19.534 20.6938 19.2796 20.5062 19.0921Z" fill="#FC6767"/>
</g>
<defs>
<clipPath id="clip0">
<rect width="24" height="24" fill="white" transform="translate(16.9707) rotate(45)"/>
</clipPath>
</defs>
</svg>
