<svg width="24" height="24" viewBox="0 0 24 24" fill="none" xmlns="http://www.w3.org/2000/svg">
<path d="M12 2C10.0222 2 8.08879 2.58649 6.4443 3.6853C4.79981 4.78412 3.51809 6.3459 2.76121 8.17317C2.00433 10.0004 1.8063 12.0111 2.19215 13.9509C2.578 15.8907 3.53041 17.6725 4.92894 19.0711C6.32746 20.4696 8.10929 21.422 10.0491 21.8079C11.9889 22.1937 13.9996 21.9957 15.8268 21.2388C17.6541 20.4819 19.2159 19.2002 20.3147 17.5557C21.4135 15.9112 22 13.9778 22 12C22 10.6868 21.7413 9.38642 21.2388 8.17317C20.7363 6.95991 19.9997 5.85752 19.0711 4.92893C18.1425 4.00035 17.0401 3.26375 15.8268 2.7612C14.6136 2.25866 13.3132 2 12 2ZM12 20C10.4178 20 8.87104 19.5308 7.55544 18.6518C6.23985 17.7727 5.21447 16.5233 4.60897 15.0615C4.00347 13.5997 3.84504 11.9911 4.15372 10.4393C4.4624 8.88743 5.22433 7.46197 6.34315 6.34315C7.46197 5.22433 8.88743 4.4624 10.4393 4.15372C11.9911 3.84504 13.5997 4.00346 15.0615 4.60896C16.5233 5.21447 17.7727 6.23984 18.6518 7.55544C19.5308 8.87103 20 10.4177 20 12C20 14.1217 19.1572 16.1566 17.6569 17.6569C16.1566 19.1571 14.1217 20 12 20Z" fill="#7DD88B"/>
<path d="M11.8135 14.9863L9.57128 12.9931L10.3187 13.6575L8.0765 11.6644C7.87827 11.4882 7.61817 11.3979 7.35342 11.4135C7.08866 11.4291 6.84093 11.5492 6.66472 11.7474C6.48852 11.9456 6.39827 12.2057 6.41384 12.4705C6.42941 12.7352 6.54951 12.983 6.74773 13.1592L8.98991 15.1523L8.24252 14.4879L10.4847 16.4811C10.6829 16.6573 10.943 16.7475 11.2078 16.732C11.4725 16.7164 11.7203 16.5963 11.8965 16.3981C12.0727 16.1998 12.1629 15.9397 12.1474 15.675C12.1318 15.4102 12.0117 15.1625 11.8135 14.9863Z" fill="#7DD88B"/>
<path d="M16.0084 8.74467L14.0056 10.9782L12.6704 12.4672L10.6676 14.7008C10.4905 14.8983 10.3992 15.158 10.4136 15.4228C10.428 15.6876 10.5471 15.9359 10.7445 16.1129C10.942 16.29 11.2017 16.3813 11.4665 16.3669C11.7313 16.3525 11.9796 16.2335 12.1566 16.036L14.1595 13.8025L15.4947 12.3134L17.4975 10.0799C17.6745 9.88242 17.7659 9.62271 17.7515 9.35789C17.7371 9.09307 17.618 8.84482 17.4206 8.66776C17.2231 8.4907 16.9634 8.39933 16.6986 8.41375C16.4338 8.42818 16.1855 8.54721 16.0084 8.74467Z" fill="#7DD88B"/>
</svg>
