<svg width="10" height="10" viewBox="0 0 10 10" fill="none" xmlns="http://www.w3.org/2000/svg">
<path d="M9.28249 5.53233L5.53249 9.28233C5.46116 9.35061 5.37705 9.40414 5.28499 9.43983C5.10239 9.51485 4.89758 9.51485 4.71499 9.43983C4.62292 9.40414 4.53881 9.35061 4.46749 9.28233L0.717487 5.53233C0.647558 5.4624 0.592087 5.37939 0.554242 5.28802C0.516397 5.19665 0.496918 5.09873 0.496918 4.99983C0.496918 4.80011 0.576259 4.60856 0.717487 4.46733C0.858714 4.3261 1.05026 4.24676 1.24999 4.24676C1.44971 4.24676 1.64126 4.3261 1.78249 4.46733L4.24999 6.94233V1.24983C4.24999 1.05092 4.329 0.860154 4.46966 0.719501C4.61031 0.57885 4.80107 0.499832 4.99999 0.499832C5.1989 0.499832 5.38966 0.57885 5.53032 0.719501C5.67097 0.860154 5.74999 1.05092 5.74999 1.24983V6.94233L8.21749 4.46733C8.28721 4.39704 8.37016 4.34124 8.46155 4.30316C8.55295 4.26509 8.65098 4.24548 8.74999 4.24548C8.849 4.24548 8.94703 4.26509 9.03842 4.30316C9.12981 4.34124 9.21276 4.39704 9.28249 4.46733C9.35278 4.53706 9.40858 4.62001 9.44666 4.7114C9.48473 4.80279 9.50434 4.90082 9.50434 4.99983C9.50434 5.09884 9.48473 5.19687 9.44666 5.28827C9.40858 5.37966 9.35278 5.46261 9.28249 5.53233Z" fill="#ADBCC7"/>
</svg>
