<svg width="14" height="12" viewBox="0 0 14 12" fill="none" xmlns="http://www.w3.org/2000/svg">
<path d="M12.7102 6.7101L7.71019 11.7101C7.61508 11.8011 7.50294 11.8725 7.38019 11.9201C7.13672 12.0201 6.86365 12.0201 6.62019 11.9201C6.49743 11.8725 6.38529 11.8011 6.29019 11.7101L1.29019 6.7101C1.19695 6.61687 1.12299 6.50618 1.07253 6.38435C1.02207 6.26253 0.996094 6.13196 0.996094 6.0001C0.996094 5.7338 1.10188 5.47841 1.29019 5.2901C1.47849 5.1018 1.73388 4.99601 2.00019 4.99601C2.26649 4.99601 2.52188 5.1018 2.71019 5.2901L6.00019 8.5901V1.0001C6.00019 0.734887 6.10554 0.480533 6.29308 0.292996C6.48062 0.10546 6.73497 0.000103951 7.00019 0.000103951C7.2654 0.000103951 7.51976 0.10546 7.70729 0.292996C7.89483 0.480533 8.00019 0.734887 8.00019 1.0001V8.5901L11.2902 5.2901C11.3831 5.19637 11.4937 5.12198 11.6156 5.07121C11.7375 5.02044 11.8682 4.99431 12.0002 4.99431C12.1322 4.99431 12.2629 5.02044 12.3848 5.07121C12.5066 5.12198 12.6172 5.19637 12.7102 5.2901C12.8039 5.38307 12.8783 5.49367 12.9291 5.61553C12.9798 5.73739 13.006 5.86809 13.006 6.0001C13.006 6.13212 12.9798 6.26282 12.9291 6.38468C12.8783 6.50654 12.8039 6.61714 12.7102 6.7101Z" fill="#ADBCC7"/>
</svg>
