<svg width="21" height="21" viewBox="0 0 21 21" fill="none" xmlns="http://www.w3.org/2000/svg">
<path d="M18.5104 12.1063L14.9042 8.50006L18.5104 4.89382C18.8292 4.57501 19.0083 4.14261 19.0083 3.69174C19.0083 3.24087 18.8292 2.80847 18.5104 2.48966C18.1916 2.17084 17.7592 1.99174 17.3083 1.99174C16.8575 1.99174 16.4251 2.17084 16.1062 2.48966L12.5 6.0959L8.89376 2.48966C8.57494 2.17084 8.14254 1.99174 7.69167 1.99174C7.24081 1.99174 6.8084 2.17084 6.48959 2.48966C6.17078 2.80847 5.99167 3.24087 5.99167 3.69174C5.99167 4.14261 6.17078 4.57501 6.48959 4.89382L10.0958 8.50006L6.48959 12.1063C6.17078 12.4251 5.99167 12.8575 5.99167 13.3084C5.99167 13.7593 6.17078 14.1917 6.48959 14.5105C6.8084 14.8293 7.24081 15.0084 7.69167 15.0084C8.14254 15.0084 8.57494 14.8293 8.89376 14.5105L12.5 10.9042L16.1062 14.5105C16.4251 14.8293 16.8575 15.0084 17.3083 15.0084C17.7592 15.0084 18.1916 14.8293 18.5104 14.5105C18.8292 14.1917 19.0083 13.7593 19.0083 13.3084C19.0083 12.8575 18.8292 12.4251 18.5104 12.1063Z" fill="#ADBCC7"/>
</svg>
