<svg width="119" height="17" viewBox="0 0 119 17" fill="none" xmlns="http://www.w3.org/2000/svg">
<path d="M5.925 17H15.075C15.875 17 16.625 16.9 17.3 16.7C17.975 16.5 18.55 16.2 19.025 15.8C19.5 15.4 19.875 14.925 20.15 14.35C20.4 13.8 20.55 13.15 20.55 12.4V0.299988H14.275V11.25C14.125 12.1 13.475 12.55 12.35 12.6H8.85C7.5 12.6 6.825 12.025 6.825 10.825V0.299988H0.5V12.5C0.5 13.975 0.95 15.1 1.875 15.85C2.8 16.625 4.15 17 5.925 17ZM30.5469 10.825C29.3469 10.825 28.3719 10.725 27.5719 10.475C26.7719 10.25 26.0969 9.92499 25.5719 9.52499C25.0219 9.12499 24.6219 8.67499 24.3219 8.12499C24.0219 7.59999 23.7969 7.02499 23.6469 6.42499H36.2469C37.6469 6.42499 38.7969 6.54999 39.7469 6.77499C40.6969 6.99999 41.4469 7.32499 42.0219 7.72499C42.5969 8.14999 43.0219 8.64999 43.2719 9.19999C43.5219 9.77499 43.6469 10.4 43.6469 11.1C43.6469 12 43.4969 12.8 43.2219 13.525C42.9219 14.25 42.4719 14.875 41.8719 15.375C41.2469 15.9 40.4469 16.3 39.4719 16.575C38.4719 16.875 37.2969 17 35.8969 17H23.5469V12.625H35.1469C36.5719 12.625 37.2969 12.025 37.2969 10.825H30.5469ZM23.6469 4.69999C23.6969 3.99999 23.8469 3.37499 24.1219 2.82499C24.3719 2.27499 24.7969 1.82499 25.3719 1.44999C25.9469 1.07499 26.6969 0.799989 27.6469 0.599989C28.5969 0.399988 29.7719 0.299988 31.1969 0.299988H43.6219V4.69999H23.6469ZM52.9182 0.299988H46.6182V9.32499C46.6182 10.625 46.7932 11.775 47.1932 12.725C47.5682 13.675 48.1682 14.475 48.9682 15.125C49.7682 15.775 50.7932 16.25 52.0432 16.55C53.2932 16.85 54.7682 17 56.5182 17H72.0182V0.299988H65.6932V12.625H57.3182C55.8682 12.625 54.7682 12.375 54.0182 11.875C53.2682 11.375 52.9182 10.525 52.9182 9.32499V0.299988ZM56.1682 10.85H62.4932V0.299988H56.1682V10.85ZM95.0867 0.299988V4.69999H83.4117C82.0117 4.69999 81.3117 5.29999 81.3117 6.49999V7.34999H95.0867V17H88.7617V11.75H81.3117V17H75.0117V5.02499C75.0117 4.32499 75.1367 3.67499 75.4367 3.07499C75.7117 2.49999 76.1117 1.99999 76.6117 1.57499C77.1117 1.17499 77.6867 0.849988 78.3867 0.624988C79.0617 0.424988 79.8117 0.299988 80.6117 0.299988H95.0867ZM104.408 11.75H112.608C113.408 11.75 114.133 11.65 114.833 11.45C115.508 11.25 116.083 10.95 116.583 10.55C117.083 10.15 117.458 9.67499 117.733 9.09999C118.008 8.54999 118.158 7.89999 118.158 7.14999V0.299988H98.083V4.69999H111.858V5.54999C111.858 6.74999 111.158 7.34999 109.758 7.34999H98.083V17H104.408V11.75Z" fill="url(#paint0_linear)"/>
<defs>
<linearGradient id="paint0_linear" x1="112.275" y1="0.942295" x2="95.1476" y2="52.5949" gradientUnits="userSpaceOnUse">
<stop stop-color="#5A39BF"/>
<stop offset="1" stop-color="#A036EE"/>
</linearGradient>
</defs>
</svg>
