<svg width="170" height="131" viewBox="0 0 170 131" fill="none" xmlns="http://www.w3.org/2000/svg">
<path d="M5.63684 99.7353C9.10817 99.321 12.6751 99.799 15.9235 101.106C10.9872 106.396 7.1655 112.738 4.74512 119.591C16.847 114.491 30.7961 113.886 43.312 117.902C40.3821 119.877 37.7069 122.236 35.3821 124.881C39.14 124.021 43.0891 124.021 46.847 124.913C45.4776 126.475 44.2993 128.196 43.3438 130.012C51.847 127.335 60.7324 125.933 69.6496 125.933C71.3375 125.933 73.4394 126.283 73.8852 127.877C74.4267 125.933 76.9744 125.519 79.0126 125.55C87.8343 125.774 96.5922 127.622 104.713 131C105.095 127.399 104.809 123.734 103.853 120.228C108.153 121.471 112.229 123.511 115.796 126.188C117.802 121.662 118.981 116.786 119.267 111.814C123.822 113.631 128.28 115.639 132.611 117.902C132.452 111.272 132.07 104.038 127.675 99.0341C122.611 93.2656 114.013 92.5325 106.337 92.5963C88.2802 92.7238 70.191 94.8591 52.1655 93.7755C43.2802 93.2656 34.4903 91.9589 25.605 91.5127C21.9107 91.3215 18.0254 90.7478 14.7133 92.4688C11.2419 94.3492 8.12091 96.7076 5.63684 99.7353Z" fill="#A86B42"/>
<path d="M7.2293 92.086C12.6115 92.4684 17.9299 93.552 23.0573 95.273C13.1529 97.0259 4.29936 103.814 0 112.897C10.9554 109.424 22.7389 108.467 34.1083 110.157C28.6306 112.26 23.949 116.339 21.1783 121.502C33.4713 118.602 46.3376 118.124 58.8217 120.1C56.242 121.279 54.0764 123.319 52.7707 125.805C68.1847 120.323 85.2548 119.59 101.051 123.733C99.5541 121.917 97.7389 120.355 95.7006 119.176C104.331 117.997 113.217 118.921 121.401 121.885C118.217 117.455 114.331 113.535 109.936 110.316C119.936 108.021 130.732 109.2 139.968 113.63C135.828 104.93 126.433 100.117 117.484 96.5478C123.121 94.7312 129.204 94.4444 134.968 95.6873C130.51 91.3529 124.49 88.9308 118.535 87.146C107.516 83.8633 95.9873 82.3017 84.5223 82.5567C73.6624 82.8116 62.9618 84.6601 52.2293 86.158C46.8471 86.9229 41.4013 87.6241 35.9554 87.9109C31.879 88.134 27.8344 87.5285 23.758 87.7834C18.0573 88.1659 12.4204 89.6 7.2293 92.086Z" fill="#C17A49"/>
<path d="M32.4841 103.56C34.4268 106.014 37.3567 107.416 40.223 108.595C58.1529 115.989 78.9491 117.455 96.9109 110.189C100.255 108.85 103.599 107.097 105.796 104.229C107.994 101.361 108.726 97.0901 106.656 94.1261C105.382 92.3095 103.28 91.2259 101.178 90.5247C98.0892 89.5049 94.8089 89.2181 91.5287 88.995C79.6816 88.2619 67.7707 88.9631 56.1147 91.0347C49.8089 92.1501 43.5669 93.6799 37.2293 94.5086C35.414 94.7635 32.3886 94.413 31.1465 96.0384C29.6497 98.1099 31.1784 101.903 32.4841 103.56Z" fill="#A86B42"/>
<path d="M84.3629 16.6804C83.9171 15.3737 83.4712 14.0033 83.5668 12.601C83.6623 11.1987 84.3629 9.7645 85.6368 9.19083C86.5922 8.77652 87.7069 8.904 88.726 9.06335C87.8024 7.11925 88.089 4.63334 89.4903 2.97608C90.8597 1.31881 93.2483 0.585784 95.3183 1.15945C97.3884 1.73312 99.0445 3.58162 99.3948 5.71694C99.2992 4.63334 100.064 3.61349 101.083 3.23104C102.102 2.88046 103.28 3.13543 104.14 3.77284C105.032 4.44212 105.605 5.49385 106.051 6.54558C106.815 8.39407 107.325 10.3382 107.548 12.3141C108.057 16.298 107.388 20.7917 104.363 23.4688C101.974 25.5723 98.4712 26.146 95.3502 25.4129C93.9808 25.0942 92.675 24.5524 91.433 23.8832C90.2547 23.2458 89.1719 21.9072 87.9617 21.4291C87.8024 21.3654 87.5476 21.206 87.4203 21.1423C87.3566 21.1104 87.1973 21.4929 87.1018 21.4291C86.6559 21.2379 86.2738 20.6642 85.9871 20.218C85.2547 19.1982 84.7769 17.9234 84.3629 16.6804Z" fill="#E03E36"/>
<path d="M82.8024 24.0744C79.7133 29.1736 76.019 34.3048 70.6687 36.9501C67.2292 38.6711 61.9107 41.7306 54.3948 42.0494C46.1464 42.3999 39.968 38.193 36.0508 35.9939C33.1209 34.3685 23.0891 45.8101 21.1145 48.5191C18.6942 51.8017 17.9935 50.9094 17.9617 54.9888C17.9617 61.2673 19.4266 67.4502 21.2101 73.4419C24.5859 84.8196 29.6177 96.4524 39.2674 103.368C45.2547 107.639 52.5795 109.742 59.8725 110.667C69.14 111.878 78.5986 111.336 87.675 109.073C92.484 107.894 97.261 106.173 101.115 103.081C104.809 100.118 107.42 96.0062 109.681 91.863C112.834 86.0945 115.446 80.0072 116.943 73.6012C119.841 61.2036 118.439 48.2004 116.242 35.6434C115.478 31.3408 114.618 26.9746 112.739 23.0226C110.414 18.242 104.777 11.9954 99.0445 11.5174C90.8598 10.8799 86.4649 18.019 82.8024 24.0744Z" fill="#FFAF00"/>
<path d="M9.49042 53.7458C8.535 51.1962 7.64328 48.4553 8.28023 45.8101C8.91717 43.1648 11.7197 40.8701 14.2675 41.7625C13.7261 40.0415 13.1528 38.2567 13.3758 36.472C13.5669 34.6872 14.6815 32.8706 16.4331 32.4244C18.9172 31.8189 21.0828 34.018 22.6433 36.0577C21.8471 34.5916 21.5923 32.775 22.1974 31.1815C22.7707 29.6198 24.2675 28.345 25.9554 28.2494C28.8853 28.09 30.8598 31.0221 32.8344 33.1893C34.3312 34.8466 36.1465 36.2489 38.1528 37.2688C39.7133 38.0655 41.4331 38.6392 42.7388 39.7865C45 41.7625 45.6688 44.9814 45.9235 47.9773C46.3376 52.5985 46.0509 57.3153 45.1274 61.8728C44.0764 66.9402 42.1337 72.0077 38.535 75.7365C34.4586 79.9753 33.3439 98.1096 29.1719 92.3729C23.949 85.1064 12.6433 62.0959 9.49042 53.7458Z" fill="#FFAF00"/>
<path d="M116.21 35.7073C115.573 32.1059 114.841 28.4726 113.535 25.0625C113.662 25.7318 113.79 26.3692 113.885 27.0385C116.115 39.5955 117.516 52.5987 114.586 64.9963C113.089 71.4023 110.478 77.4896 107.325 83.2581C105.064 87.4332 102.452 91.5126 98.758 94.4766C94.9045 97.568 90.1274 99.289 85.3185 100.468C76.2421 102.699 66.7835 103.241 57.5159 102.062C50.2229 101.106 42.8981 99.0341 36.9108 94.7634C27.5478 88.0706 22.5478 76.9159 19.1401 65.8887C19.6815 68.4702 20.3822 70.988 21.1465 73.5057C24.5223 84.8835 29.5542 96.5163 39.2038 103.432C45.1911 107.703 52.5159 109.806 59.8089 110.731C69.0765 111.942 78.535 111.4 87.6115 109.137C92.4204 107.958 97.1975 106.237 101.051 103.145C104.745 100.181 107.357 96.0701 109.618 91.9269C112.771 86.1584 115.382 80.0711 116.879 73.6651C119.841 61.2675 118.44 48.2643 116.21 35.7073Z" fill="#EA9C00"/>
<path d="M85.5095 49.9215C79.4904 48.6148 73.5668 52.0568 68.5031 55.5626C63.4394 59.0684 57.9936 62.9566 51.8471 62.6379C50.6369 62.5741 49.4267 62.351 48.2484 62.5741C47.07 62.7972 45.8917 63.6896 45.7961 64.8688C45.6687 66.2392 46.9108 67.291 48.0573 68.0559C45.6687 68.7251 42.9299 69.7769 42.3248 72.1672C41.8789 73.92 42.898 75.8323 44.3949 76.8521C45.8917 77.9039 47.7706 78.2226 49.5859 78.3501C48.0254 79.1149 46.2101 80.6129 46.9108 82.2064C47.1019 82.6526 47.484 83.0032 47.898 83.29C49.6496 84.5648 51.8789 85.1385 54.0127 84.8835C52.6433 84.6923 51.8789 86.7001 52.6114 87.8794C53.3439 89.0586 54.8407 89.4729 56.1783 89.696C58.4076 90.0784 60.7006 90.2059 62.9617 90.1422C75.3503 89.7916 87.3885 83.0032 94.1082 72.5815C95.8598 69.8406 97.2929 66.8129 97.4522 63.5621C97.707 56.8055 91.8152 51.2919 85.5095 49.9215Z" fill="#EA9C00"/>
<path d="M83.5986 45.4913C77.5795 44.1846 71.6559 47.6266 66.5922 51.1324C61.5285 54.6382 56.0827 58.5264 49.9362 58.2077C48.726 58.1439 47.5158 57.9208 46.3375 58.1439C45.1591 58.367 43.9808 59.2594 43.8852 60.4386C43.7578 61.809 44.9999 62.8608 46.1464 63.6257C43.7897 64.295 41.019 65.3467 40.4139 67.737C39.968 69.4899 40.9871 71.4021 42.484 72.4219C43.9808 73.4737 45.8598 73.7924 47.675 73.9199C46.1145 74.6848 44.2992 76.1827 44.9999 77.7762C45.191 78.2224 45.5731 78.573 45.9871 78.8598C47.7387 80.1346 49.968 80.7083 52.1018 80.4533C50.7324 80.2621 49.968 82.27 50.7005 83.4492C51.433 84.6284 52.9298 85.0427 54.2674 85.2658C56.4967 85.6482 58.7897 85.7757 61.0508 85.712C73.4394 85.3614 85.4776 78.573 92.1973 68.1513C93.9489 65.4104 95.382 62.3827 95.5413 59.1319C95.7961 52.3754 89.9043 46.8618 83.5986 45.4913Z" fill="#FFE8AE"/>
<path d="M116.369 35.707C115.605 31.4045 114.713 27.0382 112.834 23.0863C110.541 18.2738 104.873 11.9953 99.0764 11.5491C90.7961 10.8798 86.4012 18.0188 82.7069 24.1061C80.9872 26.9107 79.1082 29.6835 76.8789 32.0738C78.2802 35.6751 81.242 37.4917 85.4139 35.1652C86.0827 37.2049 87.8025 38.8622 89.8725 39.4677C91.9426 40.0733 94.2993 39.6271 95.9872 38.2885C98.4713 42.0174 104.586 42.591 107.739 39.3721C109.267 40.392 110.892 41.3481 112.707 41.7624C114.236 42.113 115.923 42.0811 117.357 41.38C117.038 39.4996 116.72 37.5874 116.369 35.707Z" fill="#FFE8AE"/>
<path d="M74.6815 80.6447C74.2038 79.8161 74.4267 78.5731 75.2866 78.1907C74.2993 78.2544 73.2802 78.3182 72.3248 78.0632C71.3694 77.8082 70.4458 77.1708 70.1592 76.2147C69.6815 74.7168 70.7961 73.2507 71.8471 72.1034C70.0637 72.2946 67.8662 72.2946 66.8789 70.7648C65.828 69.1394 66.9426 67.0041 68.3121 65.6656C66.8471 65.7293 65.1592 65.6974 64.2356 64.582C63.535 63.7215 63.535 62.4785 63.949 61.4905C64.363 60.4707 65.1592 59.6739 65.9554 58.9409C64.5223 59.5464 62.8025 58.3991 62.2611 56.933C61.9108 55.9769 61.9745 55.0527 62.1656 54.1284C60.8917 54.9252 59.6178 55.6582 58.2802 56.2956C57.9299 58.3035 59.3312 60.1201 61.656 59.7058C60.8598 60.3432 60.0318 60.9806 59.4586 61.8092C58.8853 62.6379 58.535 63.7214 58.8216 64.7094C59.1401 65.8568 60.2229 66.6535 61.3694 66.9722C62.5159 67.291 63.7261 67.1953 64.9044 67.0997C63.6305 68.2471 62.6433 69.745 62.07 71.4022C61.9426 71.8166 61.8152 72.2946 61.9745 72.7089C62.1019 73.0914 62.4522 73.3464 62.8025 73.5694C64.2993 74.4937 66.1783 74.7487 67.8662 74.2387C66.5605 74.9399 65.7643 76.5334 66.1783 77.9676C66.5923 79.3699 68.3439 80.2941 69.6815 79.6886C68.535 80.6447 68.949 82.6844 70.1592 83.5768C70.4458 83.768 70.7325 83.9274 71.0509 84.0549C72.8344 83.4812 74.586 82.8119 76.2739 81.9833C75.6688 81.6964 75.0318 81.2821 74.6815 80.6447Z" fill="#B77165"/>
<path d="M108.567 16.9352C108.567 16.9352 120.51 15.8835 121.083 16.9352C121.656 17.9869 113.567 25.0303 113.567 25.0303C113.567 25.0303 109.65 24.4567 108.567 22.9269C107.516 21.429 108.567 16.9352 108.567 16.9352Z" fill="#B77165"/>
<path d="M103.185 19.2936C103.153 18.7518 102.962 18.2419 102.739 17.7319C103.121 18.3056 103.503 18.8793 103.885 19.4529C104.14 19.8354 104.395 20.2497 104.554 20.6959C104.681 21.1421 104.681 21.652 104.459 22.0345C104.172 22.4806 103.63 22.7037 103.121 22.7037C102.611 22.7037 102.102 22.5125 101.624 22.2576C100.987 21.907 100.223 21.4608 99.8088 20.8871C101.019 20.4409 103.312 21.8114 103.185 19.2936Z" fill="#231F20"/>
<path opacity="0.32" d="M91.656 3.35847C91.4967 3.54969 91.3056 3.77278 91.3375 3.99588C91.3693 4.25084 91.5604 4.44207 91.8152 4.50581C92.0381 4.60142 92.2929 4.60142 92.5477 4.63329C93.6942 4.79264 94.7133 5.62128 95.0636 6.73675C95.1273 6.99171 95.191 7.24668 95.3502 7.4379C95.5732 7.72473 95.9553 7.82034 96.2738 7.72473C96.6241 7.66099 96.9107 7.4379 97.1018 7.15106C97.6114 6.48178 97.6751 5.58941 97.3885 4.79264C97.1018 4.02775 96.4967 3.39034 95.8279 2.94415C94.5222 2.17926 92.7069 2.14739 91.656 3.35847Z" fill="white"/>
<path opacity="0.32" d="M102.898 6.44981C103.44 6.99161 103.344 7.85212 103.471 8.61701C103.535 8.90384 103.662 9.22255 103.949 9.25442C104.045 9.25442 104.172 9.22255 104.268 9.15881C104.745 8.90384 104.936 8.2983 104.936 7.72463C104.936 6.44981 103.885 5.11125 102.58 4.85628C100.541 4.4101 102.357 5.90801 102.898 6.44981Z" fill="white"/>
<path d="M101.178 48.5192C101.178 50.1446 101.242 52.0887 102.612 53.2361C103.185 53.7141 103.917 53.9691 104.682 53.8416C105.478 53.746 106.051 53.2042 106.401 52.5349C106.815 51.7063 107.229 50.6864 107.07 49.7303C107.006 49.3479 106.401 49.5072 106.465 49.8897C106.561 50.3677 106.401 50.8458 106.242 51.292C106.083 51.7063 105.956 52.0887 105.733 52.4712C105.287 53.2042 104.459 53.4273 103.694 53.1405C102.93 52.8855 102.389 52.1206 102.134 51.3876C101.815 50.4633 101.815 49.4754 101.815 48.5192C101.784 48.1049 101.178 48.1049 101.178 48.5192Z" fill="#EA9C00"/>
<path d="M107.038 55.0525C106.975 56.0086 107.197 56.9966 107.675 57.8252C108.121 58.5901 108.885 59.4506 109.777 59.6419C110.764 59.8331 111.688 59.1319 112.325 58.4627C112.994 57.7615 113.44 56.901 113.631 55.9767C113.726 55.5943 113.121 55.4349 113.025 55.8174C112.866 56.5823 112.516 57.3153 111.975 57.889C111.465 58.4627 110.637 59.2275 109.809 59.0363C109.045 58.8451 108.44 58.0802 108.089 57.4109C107.707 56.6779 107.548 55.8811 107.58 55.0844C107.707 54.6701 107.07 54.6701 107.038 55.0525Z" fill="#EA9C00"/>
<path d="M101.529 62.1599C101.529 62.9248 101.624 63.7215 101.847 64.4545C102.038 65.092 102.293 65.7294 102.739 66.2074C103.153 66.6536 103.694 66.9405 104.331 66.8767C105 66.7811 105.509 66.3668 105.923 65.8569C106.433 65.1876 106.752 64.4227 106.879 63.594C106.911 63.4347 106.847 63.2753 106.656 63.2116C106.497 63.1797 106.306 63.2753 106.274 63.4347C106.146 64.1996 105.86 64.9645 105.382 65.57C104.968 66.0481 104.331 66.4943 103.694 66.1756C103.089 65.8887 102.771 65.1876 102.58 64.6139C102.293 63.8171 102.166 62.9885 102.166 62.1599C102.134 61.7455 101.529 61.7455 101.529 62.1599Z" fill="#EA9C00"/>
<path d="M107.484 68.7248C107.293 69.9996 107.42 71.3701 108.025 72.5174C108.248 72.9955 108.694 73.4735 109.267 73.4098C109.841 73.346 110.318 72.7724 110.637 72.3581C111.051 71.8163 111.337 71.1788 111.497 70.5096C111.592 70.1271 110.987 69.9678 110.892 70.3502C110.732 70.9558 110.478 71.5294 110.095 72.0393C109.841 72.3899 109.299 73.0911 108.853 72.6449C108.439 72.2306 108.28 71.5294 108.153 70.9557C108.025 70.2865 107.994 69.5534 108.089 68.8842C108.121 68.7248 108.057 68.5655 107.866 68.5017C107.739 68.4698 107.516 68.5655 107.484 68.7248Z" fill="#EA9C00"/>
<path d="M100.923 69.7449C100.287 70.9559 100.064 72.5495 100.605 73.8562C100.828 74.398 101.178 74.9398 101.752 75.1947C102.42 75.4816 103.089 75.1947 103.631 74.8123C104.331 74.3342 104.904 73.7287 105.414 73.0594C105.51 72.9319 105.446 72.7088 105.318 72.6451C105.159 72.5495 105 72.6132 104.904 72.7407C104.427 73.3462 103.853 73.9199 103.216 74.3342C102.93 74.5254 102.58 74.7167 102.197 74.6848C101.911 74.6529 101.656 74.4298 101.497 74.2067C101.083 73.6649 100.955 72.9638 100.955 72.2945C100.955 71.5296 101.115 70.7647 101.465 70.0636C101.624 69.713 101.115 69.3943 100.923 69.7449Z" fill="#EA9C00"/>
<path d="M110 47.5313C109.522 48.1687 109.936 49.093 110.573 49.4435C111.21 49.826 112.038 49.7304 112.548 49.1886C112.834 48.9017 113.025 48.4874 113.025 48.0731C113.025 47.9137 112.866 47.7544 112.707 47.7544C112.548 47.7544 112.42 47.8819 112.388 48.0731C112.388 48.3599 112.229 48.6468 111.974 48.838C111.879 48.9336 111.752 48.9973 111.624 49.0292C111.592 49.0292 111.56 49.0611 111.529 49.0611C111.497 49.0611 111.497 49.0611 111.497 49.0611C111.465 49.0611 111.465 49.0611 111.433 49.0611C111.401 49.0611 111.369 49.0611 111.338 49.0611C111.338 49.0611 111.21 49.0611 111.242 49.0611C110.955 49.0292 110.701 48.8699 110.541 48.6468C110.35 48.3918 110.318 48.0731 110.51 47.85C110.605 47.7225 110.541 47.4994 110.414 47.4357C110.255 47.3401 110.096 47.4038 110 47.5313Z" fill="#EA9C00"/>
<path d="M94.1082 83.1624C92.7387 84.2778 91.7196 85.967 91.5286 87.7517C91.433 88.6122 91.7515 89.409 92.6114 89.6958C93.5349 89.9827 94.4903 89.4727 95.2547 88.9947C96.2419 88.421 97.1018 87.688 97.898 86.8594C98.1528 86.5725 97.7388 86.1263 97.4521 86.4132C96.6878 87.2099 95.8598 87.9111 94.9044 88.4848C94.4585 88.7716 93.9489 89.0584 93.4394 89.1222C92.9935 89.1859 92.4521 89.0903 92.2292 88.6441C92.0063 88.2298 92.1337 87.688 92.2292 87.2737C92.3247 86.7956 92.484 86.3494 92.7069 85.9032C93.1528 85.0109 93.7579 84.2141 94.5222 83.5767C94.8407 83.3536 94.4266 82.9074 94.1082 83.1624Z" fill="#EA9C00"/>
<path d="M99.4585 80.9314C99.0127 81.4094 98.5668 81.9194 98.3439 82.5568C98.1846 83.0667 98.2165 83.6722 98.5031 84.1503C99.2674 85.3932 100.86 84.6602 101.783 84.0547C102.42 83.6404 103.025 83.1623 103.567 82.6205C103.853 82.3337 103.408 81.8875 103.121 82.1743C102.643 82.6843 102.102 83.1304 101.497 83.481C100.955 83.8316 100.318 84.214 99.6496 84.1822C99.0445 84.1503 98.7897 83.5766 98.8534 83.0348C98.9171 82.3656 99.4585 81.8238 99.8725 81.3457C100.159 81.0589 99.7451 80.6127 99.4585 80.9314Z" fill="#EA9C00"/>
<path d="M67.7071 41.3801C67.2931 42.0175 66.9109 42.7187 67.0701 43.4836C67.2294 44.1847 67.8663 44.599 68.567 44.5353C69.3313 44.4716 70.0956 44.1847 70.7644 43.866C71.4969 43.5473 72.1975 43.1011 72.8345 42.6231C73.1529 42.3681 72.7071 41.9538 72.3886 42.1769C71.3695 42.9418 70.223 43.5154 68.981 43.8342C68.4396 43.9616 67.8345 43.9935 67.6434 43.3561C67.4842 42.7506 67.8982 42.1769 68.1848 41.667C68.4714 41.3483 67.93 41.0614 67.7071 41.3801Z" fill="#EA9C00"/>
<path d="M75 39.3086C74.5542 39.4361 74.1402 39.6592 73.8854 40.0416C73.6306 40.3922 73.5988 40.9021 73.8217 41.2846C74.0128 41.6351 74.4268 41.8901 74.8408 41.9857C75.3185 42.0813 75.7644 41.9857 76.1784 41.7626C76.6561 41.5077 77.0701 41.0615 77.4204 40.6472C77.6752 40.3603 77.2612 39.9141 76.9746 40.201C76.4332 40.8065 75.6688 41.6989 74.7771 41.2846C74.4905 41.1571 74.2357 40.8702 74.2994 40.5515C74.3949 40.1691 74.8408 39.946 75.1911 39.8504C75.5414 39.7867 75.3822 39.1811 75 39.3086Z" fill="#EA9C00"/>
<path d="M77.8344 91.9585C76.7834 92.2134 76.051 93.1058 75.5414 93.9982C75 94.9224 74.8089 96.1654 75.8599 96.8347C76.879 97.4721 78.2803 97.0259 79.2994 96.6434C80.414 96.2291 81.465 95.6236 82.3885 94.8587C82.707 94.6037 82.2611 94.1894 81.9427 94.4125C81.1783 95.018 80.3503 95.528 79.4267 95.9104C78.9809 96.1016 78.535 96.2291 78.0573 96.3566C77.5478 96.4841 77.0064 96.6116 76.4968 96.4522C76.0828 96.3247 75.7006 96.0379 75.6369 95.5917C75.5732 95.1136 75.828 94.6037 76.051 94.1894C76.4968 93.4564 77.0701 92.7552 77.9299 92.5321C78.4076 92.4684 78.2484 91.8628 77.8344 91.9585Z" fill="#EA9C00"/>
<path d="M84.3312 92.7237C83.9809 93.6161 83.6306 94.5722 84.0127 95.4965C84.3631 96.3251 85.1274 96.6757 85.9873 96.5801C86.9427 96.4526 87.8663 95.9746 88.7261 95.5602C89.6815 95.0822 90.5414 94.5085 91.4013 93.8711C91.7198 93.648 91.4013 93.1062 91.0828 93.3293C89.7452 94.3492 88.2166 95.2734 86.5924 95.8152C85.8599 96.0702 84.9682 96.1339 84.586 95.3053C84.2357 94.5085 84.6178 93.6161 84.9363 92.8831C85.0956 92.5325 84.4905 92.3732 84.3312 92.7237Z" fill="#EA9C00"/>
<path opacity="0.6" d="M76.4968 48.5191C74.4904 49.3477 72.8025 50.75 71.2738 52.3117C70.7643 52.8535 70.2229 53.3953 69.9681 54.0964C69.6815 54.7976 69.7133 55.6262 70.191 56.1999C70.8598 56.9967 72.1656 56.9648 73.0891 56.423C74.0127 55.9131 74.6815 55.0525 75.5095 54.3833C77.3566 52.8535 79.9363 52.2479 82.2611 52.8216C83.2484 53.0766 84.2356 53.5228 85.2547 53.4271C89.1401 53.0766 85.3503 49.0609 83.7898 48.296C81.6879 47.2761 78.535 47.6586 76.4968 48.5191Z" fill="white"/>
<path d="M106.763 88.0033L114.306 99.5299C114.854 100.393 115.769 100.943 116.772 101.1L152.872 106.687L153.84 106.853L157.805 107.457C158.842 107.605 159.819 106.917 160.003 105.871L163.657 82.3652C163.806 81.328 163.118 80.3515 162.072 80.1679L158.106 79.5646L157.139 79.3985L120.969 73.8286C119.966 73.6713 118.929 73.9671 118.162 74.603L107.471 83.2706C106.059 84.4379 105.753 86.4774 106.763 88.0033Z" fill="#E03E36"/>
<path d="M127.784 79.9939L125.782 79.6996L123.056 80.912L122.779 82.8008L125.298 81.6937L125.357 81.7024L124.174 89.7544L126.304 90.0675L127.784 79.9939ZM132.615 91.2213C135.148 91.5936 136.961 89.8903 137.454 86.5709C137.944 83.2761 136.672 81.1595 134.148 80.7886C131.62 80.417 129.809 82.0753 129.319 85.3751C128.822 88.6839 130.078 90.8433 132.615 91.2213ZM132.875 89.4555C131.719 89.2855 131.142 88.0148 131.488 85.6939C131.829 83.4074 132.741 82.3656 133.892 82.5348C135.038 82.7032 135.616 83.9641 135.28 86.2513C134.944 88.5737 134.026 89.6246 132.875 89.4555ZM142.151 92.623C144.684 92.9953 146.498 91.292 146.99 87.9726C147.48 84.6778 146.208 82.5612 143.685 82.1903C141.156 81.8187 139.345 83.477 138.855 86.7768C138.358 90.0856 139.614 92.245 142.151 92.623ZM142.411 90.8572C141.255 90.6873 140.678 89.4165 141.024 87.0956C141.365 84.8091 142.277 83.7673 143.428 83.9365C144.574 84.1049 145.153 85.3658 144.816 87.653C144.48 89.9754 143.562 91.0263 142.411 90.8572ZM151.687 94.0247C154.221 94.397 156.034 92.6937 156.527 89.3743C157.016 86.0795 155.744 83.9629 153.221 83.592C150.693 83.2204 148.881 84.8787 148.391 88.1785C147.895 91.4873 149.15 93.6467 151.687 94.0247ZM151.947 92.2589C150.791 92.089 150.214 90.8182 150.56 88.4973C150.901 86.2108 151.813 85.169 152.964 85.3382C154.11 85.5067 154.689 86.7675 154.353 89.0547C154.016 91.3771 153.098 92.428 151.947 92.2589ZM120.921 92.5066L122.683 92.7656L121.984 97.5186L123.187 97.6954L123.886 92.9425L125.648 93.2015L125.796 92.1981L121.068 91.5032L120.921 92.5066ZM125.728 98.0689L126.945 98.2477L127.245 96.2072L128.134 96.3377L128.924 98.5386L130.268 98.7361L129.374 96.319C130.07 96.1342 130.517 95.617 130.632 94.83C130.8 93.686 130.152 92.8385 128.846 92.6463L126.574 92.3125L125.728 98.0689ZM127.389 95.229L127.645 93.4864L128.466 93.607C129.169 93.7103 129.463 94.0723 129.379 94.6457C129.295 95.2163 128.913 95.453 128.215 95.3505L127.389 95.229ZM132.91 93.2437L131.53 93.0409L132.875 96.1789L130.65 98.7923L132.044 98.9972L133.513 97.206L133.558 97.2126L134.45 99.3508L135.85 99.5566L134.477 96.4144L136.656 93.7945L135.282 93.5924L133.827 95.3829L133.782 95.3762L132.91 93.2437Z" fill="white"/>
<circle cx="112.848" cy="86.3928" r="2.5" transform="rotate(-14.0085 112.848 86.3928)" fill="#EA9C00"/>
</svg>
