<svg width="105" height="74" viewBox="0 0 105 74" fill="none" xmlns="http://www.w3.org/2000/svg">
<path d="M101.063 54.8333C102.341 55.5111 103.664 56.322 104.454 57.8106C105.245 59.2993 105.226 61.6715 104.068 62.6639C103.012 63.5716 101.192 63.3417 100.907 64.9635C100.742 65.8833 101.284 66.791 101.302 67.735C101.33 69.7078 99.3632 70.434 97.8652 70.5308C90.504 71.027 83.1519 71.5353 75.7907 72.0315C56.0597 73.3749 36.1449 74.7063 16.6436 70.5187C13.6109 69.8651 10.523 69.0542 7.83955 67.0693C6.92055 66.3916 5.95559 65.3265 6.00154 63.9468C6.0383 62.676 6.91135 61.732 7.75684 61.1026C9.03425 60.1465 10.4219 59.4687 11.8648 59.0936C13.9969 58.5368 16.3403 58.6094 18.114 56.9634C18.8308 56.2978 19.4006 55.4022 20.0899 54.6881C21.9371 52.7759 24.4276 52.3886 26.7802 52.2433C31.4212 51.9771 36.0714 52.4007 40.7123 52.207C46.3642 51.9771 51.9701 50.8273 57.5944 50.1616C63.4025 49.4839 69.229 49.3023 75.0555 49.1329C79.2829 49.266 83.3082 48.443 87.4253 49.7622C92.0663 51.2388 96.6062 52.4612 101.063 54.8333Z" fill="#4D9071"/>
<g clip-path="url(#clip0)">
<path d="M98.8002 57C100.6 57.1 102.4 56.9 103.1 55.2C105 50.2 95.3002 49.9 93.4002 53.2C94.8002 50.8 101.8 46.8 98.4002 43.6C96.7002 42 90.9002 43.2 88.7002 43.6C86.8002 43.9 84.4002 44.5 82.9002 46C83.4002 45 82.9002 43.8 81.9002 43.4C80.4002 42.9 78.4002 44.8 77.3002 45.7C78.2002 41.2 74.0002 40.4 72.6002 44.8C72.1002 43.5 72.9002 39.4 71.1002 39.1C69.0002 38.7 67.0002 43 67.0002 44.7C65.5002 42.2 64.0002 35 60.3002 35C56.1002 35 56.2002 42.3 57.0002 44.7C56.5002 43.7 54.3002 40.3 52.3002 41.6C50.2002 42.9 52.0002 47.3 52.8002 48.9C52.0002 47.7 51.4002 46 50.2002 45.2C49.6002 44.7 46.8002 43.6 45.9002 44.7C44.7002 46.1 47.7002 50 49.4002 53C48.2002 50.8 43.0002 51.7 42.2002 53.8C41.1002 57 44.4002 57 46.5002 56.7C52.9002 55.7 59.4002 55.7 65.8002 55C73.0002 54.3 78.0002 55.3 85.0002 56.5C88.8002 57.1 92.6002 56.6 96.4002 56.8C97.1002 56.8 98.0002 56.9 98.8002 57Z" fill="#5CADA1"/>
</g>
<path d="M57.0759 55.7398L10.9823 60.886L10.9036 57.597L57.0684 52.4428L57.0759 55.7398Z" fill="#84593C"/>
<path d="M59.7587 58.4513L7.3246 64.3055L7.24591 61.0164L59.68 55.1623L59.7587 58.4513Z" fill="#84593C"/>
<path d="M63.9865 54.9682L17.8217 60.1224L17.8142 56.8253L63.9078 51.6791L63.9865 54.9682Z" fill="#C17A49"/>
<path d="M66.6693 57.6797L14.2352 63.5339L14.1566 60.2448L66.5906 54.3907L66.6693 57.6797Z" fill="#C17A49"/>
<path d="M39.2648 5.39264L39.6133 3.34633L32.4891 4.14173C31.5551 4.17432 31.0643 4.30081 31.0643 4.30081C3.85761 8.70053 13.0181 50.6934 14.6082 57.1833L52.5802 52.9438C55.8541 18.9544 46.6021 8.44484 39.2648 5.39264Z" fill="#84593C"/>
<path d="M61.1295 51.9893C66.4484 -2.44575 39.6136 3.34632 39.6136 3.34632C12.4781 7.73809 21.5674 49.7389 23.1575 56.2288L61.1295 51.9893Z" fill="#C17A49"/>
<path d="M58.375 49.2858L25.6037 52.9446L25.493 52.5985C22.748 39.6418 21.9905 22.5201 28.261 13.432C30.9212 9.47867 34.7764 7.18424 39.8742 6.32831L40.0167 6.3124C40.088 6.30445 40.2304 6.28854 40.3729 6.27263C41.7265 6.1215 46.6105 5.93468 50.916 10.2574C55.3798 14.7058 60.2782 24.9845 58.4067 48.9237L58.375 49.2858ZM26.2213 52.0153L57.5677 48.5156C59.2887 25.1667 54.5645 15.1553 50.2668 10.9034C46.2146 6.91089 41.6868 7.05794 40.4045 7.20111C40.262 7.21702 40.1907 7.22498 40.1195 7.23293L39.9058 7.25679C35.0138 8.01805 31.4356 10.2099 28.8942 13.9349C22.9483 22.7 23.6426 39.2552 26.2213 52.0153Z" fill="#84593C"/>
<path d="M36.3945 53.4723L37.9727 53.2961C38.8802 53.1948 39.6648 53.4248 39.6603 54.4576C39.6909 55.0895 39.384 55.5605 38.9324 55.8094L39.9536 57.4424L38.8489 57.5657L37.9636 56.0764L37.4112 56.1381L37.468 57.7199L36.4816 57.83L36.3945 53.4723ZM37.9198 55.3269C38.4327 55.2697 38.7221 54.9991 38.7178 54.6026C38.7091 54.1668 38.4154 54.0408 37.9025 54.098L37.3896 54.1553L37.4069 55.3842L37.9198 55.3269Z" fill="#84593C"/>
<path d="M40.4493 56.8705C40.4494 56.5132 40.6949 56.2078 41.0106 56.1726C41.3657 56.1329 41.5936 56.3854 41.633 56.7383C41.6329 57.0957 41.3874 57.401 41.0718 57.4363C40.7123 57.4367 40.4449 57.1886 40.4493 56.8705Z" fill="#84593C"/>
<path d="M42.4707 52.7936L43.4571 52.6835L43.5441 57.0412L42.5578 57.1513L42.4707 52.7936Z" fill="#84593C"/>
<path d="M44.4738 56.4213C44.4738 56.0639 44.7193 55.7586 45.035 55.7234C45.3901 55.6837 45.618 55.9362 45.6574 56.2891C45.6573 56.6465 45.4118 56.9518 45.0962 56.9871C44.7367 56.9875 44.4693 56.7394 44.4738 56.4213Z" fill="#84593C"/>
<path d="M46.4557 52.3487L47.9549 52.1813C48.9019 52.0756 49.6909 52.3448 49.7258 53.3732C49.7608 54.4016 48.9804 54.9255 48.0729 55.0268L47.5206 55.0885L47.5642 56.5527L46.5778 56.6628L46.4557 52.3487ZM47.9897 54.2817C48.5421 54.22 48.792 53.9539 48.7789 53.4789C48.7702 53.0431 48.4721 52.8779 47.9198 52.9396L47.4858 52.988L47.5163 54.3346L47.9897 54.2817Z" fill="#84593C"/>
<ellipse rx="7.52645" ry="9.61931" transform="matrix(0.999904 -0.0138341 0.0126506 0.99992 41.6357 24.2427)" fill="#84593C"/>
<mask id="mask0" mask-type="alpha" maskUnits="userSpaceOnUse" x="16" y="16" width="39" height="36">
<g clip-path="url(#clip1)">
<path d="M20.8482 43.7382C21.6851 43.5443 22.5691 43.5616 23.3975 43.7862C22.3333 45.1887 21.5696 46.813 21.1617 48.5212C23.9813 46.969 27.3722 46.4435 30.5368 47.0646C29.874 47.6181 29.2837 48.2563 28.7866 48.9536C29.6815 48.6449 30.6461 48.5372 31.5879 48.6486C31.2952 49.0602 31.0534 49.5048 30.8686 49.9663C32.874 49.0928 35.0068 48.5144 37.1849 48.2712C37.5971 48.2252 38.1199 48.2519 38.2715 48.6216C38.3517 48.1409 38.9629 47.9721 39.4616 47.9242C41.6224 47.7371 43.811 47.9413 45.885 48.5295C45.882 47.6559 45.7139 46.7853 45.3868 45.9712C46.4702 46.1518 47.5205 46.5295 48.4633 47.0739C48.8323 45.9345 48.9897 44.7337 48.9266 43.5343C50.0876 43.8455 51.2304 44.2051 52.3489 44.6293C52.1326 43.0449 51.8457 41.3215 50.6383 40.2421C49.2471 38.9977 47.1272 39.0565 45.2542 39.2811C40.8469 39.8041 36.4856 40.8091 32.0538 41.041C29.8698 41.1611 27.6879 41.0876 25.5056 41.223C24.5981 41.2779 23.6337 41.2464 22.8708 41.7492C22.0732 42.2945 21.374 42.9449 20.8482 43.7382Z" fill="#A86B42"/>
<path d="M21.0327 41.8617C22.3576 41.8066 23.6857 41.9212 24.9842 42.1939C22.6118 42.8841 20.6309 44.7525 19.8238 47.0466C22.4068 45.9153 25.2594 45.3648 28.0817 45.4596C26.8 46.1131 25.7657 47.2184 25.227 48.5314C28.1521 47.5011 31.282 47.0356 34.3842 47.1687C33.7857 47.5217 33.3113 48.0696 33.0589 48.701C36.6772 46.9669 40.8271 46.3257 44.7963 46.8879C44.3821 46.4933 43.8969 46.1685 43.3675 45.9415C45.444 45.4235 47.639 45.4027 49.7175 45.8899C48.8211 44.915 47.7672 44.0815 46.6076 43.4299C48.9887 42.6072 51.6574 42.5954 54.0318 43.4052C52.7877 41.4329 50.3642 40.5357 48.0828 39.9243C49.411 39.3352 50.8891 39.1006 52.3304 39.2413C51.1253 38.324 49.5903 37.9077 48.0879 37.6424C45.3085 37.1561 42.4508 37.0962 39.6572 37.47C37.0114 37.8273 34.4472 38.5621 31.8657 39.2138C30.5716 39.5439 29.2601 39.8604 27.9376 40.0777C26.9479 40.2423 25.9438 40.2075 24.9549 40.3798C23.5727 40.6269 22.2342 41.1243 21.0327 41.8617Z" fill="#C17A49"/>
<path d="M27.5083 43.9227C28.0485 44.4578 28.8017 44.714 29.5333 44.9185C34.1107 46.2016 39.2296 45.9858 43.4224 43.7545C44.2034 43.3425 44.9733 42.8312 45.4333 42.0838C45.8933 41.3364 45.9579 40.2929 45.373 39.639C45.0132 39.2384 44.4708 39.036 43.9386 38.9253C43.1568 38.7651 42.3479 38.7858 41.5407 38.8218C38.6273 38.9692 35.7368 39.4621 32.9451 40.2764C31.4347 40.7157 29.951 41.2526 28.4252 41.624C27.9886 41.7346 27.2402 41.7331 26.9803 42.1565C26.6701 42.6938 27.145 43.5611 27.5083 43.9227Z" fill="#A86B42"/>
<path d="M33.6033 46.1731C33.7203 46.5158 34.0103 46.7851 34.3436 46.9489C34.9023 47.2268 35.5746 47.2523 36.1772 47.0767C36.7807 46.9088 37.3239 46.5543 37.7886 46.1312C37.8171 46.1048 37.8535 46.0776 37.8907 46.0579C37.9512 46.0357 38.0238 46.0508 38.0963 46.0659C39.0587 46.291 40.0786 46.1849 41.0425 45.9303C41.8465 45.7246 42.6948 45.3514 43.0623 44.6221C43.1975 44.3518 43.2637 44.0274 43.1613 43.7449C43.1019 43.566 42.982 43.4092 42.8492 43.2771C42.3012 42.7428 41.4935 42.5623 40.7244 42.5167C39.4637 42.4409 38.1956 42.6521 36.9551 42.8989C36.3699 43.0183 35.7778 43.1463 35.2192 43.3634C34.9477 43.471 34.664 43.6109 34.502 43.8533C34.3617 44.0778 34.3371 44.3512 34.271 44.606C34.1815 44.9331 33.9731 45.0414 33.7619 45.2661C33.5455 45.5145 33.5 45.8831 33.6033 46.1731Z" fill="#A86B42"/>
<path d="M37.8554 21.6861C37.7116 21.3851 37.566 21.0688 37.5518 20.7301C37.5376 20.3914 37.6704 20.0286 37.9662 19.8563C38.1885 19.731 38.4641 19.7311 38.7173 19.7415C38.4397 19.3008 38.4432 18.6972 38.7411 18.2618C39.0313 17.8273 39.5951 17.5864 40.1161 17.6675C40.6371 17.7485 41.091 18.1464 41.2337 18.6486C41.1814 18.3915 41.3408 18.1262 41.5795 18.0068C41.819 17.895 42.1137 17.9239 42.3408 18.0532C42.5765 18.1893 42.7447 18.4258 42.8817 18.6657C43.1179 19.0878 43.2943 19.5399 43.4017 20.0074C43.6327 20.9482 43.5896 22.0435 42.9223 22.7676C42.3951 23.3369 41.5548 23.5699 40.7728 23.4793C40.4298 23.4403 40.0964 23.346 39.7751 23.2195C39.4702 23.0989 39.1699 22.8076 38.8615 22.726C38.8209 22.7151 38.7544 22.6838 38.7216 22.672C38.7052 22.6661 38.6765 22.7621 38.6515 22.7495C38.5375 22.7158 38.4288 22.5887 38.3468 22.4896C38.1406 22.2652 37.9898 21.9727 37.8554 21.6861Z" fill="#E03E36"/>
<path d="M37.672 23.5006C37.0539 24.807 36.2889 26.1375 35.0528 26.9174C34.2587 27.4236 33.0415 28.302 31.2142 28.5833C29.2088 28.8923 27.5872 28.0525 26.5715 27.6323C25.8124 27.3226 23.6681 30.3383 23.2583 31.0414C22.755 31.8942 22.56 31.6994 22.6613 32.678C22.8293 34.1827 23.3526 35.6246 23.9486 37.012C25.0776 39.6467 26.6179 42.2975 29.16 43.6918C30.7367 44.5521 32.5821 44.8565 34.3882 44.8791C36.6843 44.9166 38.9801 44.5288 41.1366 43.739C42.2797 43.3252 43.4004 42.7825 44.259 41.9365C45.082 41.1254 45.6099 40.0688 46.0513 39.0142C46.6671 37.5457 47.1421 36.0155 47.3363 34.4394C47.7124 31.3891 47.0222 28.3109 46.1494 25.3614C45.8476 24.3511 45.5208 23.3281 44.9561 22.4322C44.2603 21.3498 42.7163 20.0065 41.3033 20.0482C39.287 20.1187 38.4046 21.9495 37.672 23.5006Z" fill="#FFAF00"/>
<path d="M20.5593 32.6112C20.2577 32.0262 19.9665 31.3936 20.0513 30.7423C20.1361 30.0909 20.7593 29.4645 21.4055 29.6089C21.2272 29.2112 21.0394 28.7991 21.0461 28.3653C21.045 27.9324 21.2687 27.4666 21.6846 27.3119C22.2751 27.099 22.8629 27.567 23.2987 28.0133C23.065 27.6836 22.9541 27.2552 23.0593 26.8568C23.1575 26.4669 23.489 26.1205 23.8987 26.0516C24.6101 25.9335 25.1709 26.5824 25.7112 27.0479C26.1211 27.4043 26.602 27.6909 27.1194 27.8806C27.5219 28.029 27.9573 28.1196 28.3069 28.3589C28.9121 28.7708 29.1616 29.5241 29.304 30.2351C29.5288 31.3314 29.585 32.4696 29.4813 33.5871C29.3602 34.8302 29.0213 36.0977 28.2421 37.0895C27.3598 38.2166 27.5728 42.5931 26.4002 41.332C24.93 39.7329 21.5528 34.5264 20.5593 32.6112Z" fill="#FFAF00"/>
<path d="M46.1434 25.3776C45.8915 24.5319 45.6153 23.6811 45.2052 22.8994C45.2542 23.0563 45.3024 23.2056 45.3436 23.3634C46.2241 26.3121 46.9143 29.3903 46.5304 32.4415C46.3362 34.0176 45.8612 35.5477 45.2455 37.0162C44.8049 38.0785 44.2762 39.1274 43.4531 39.9385C42.5946 40.7845 41.4738 41.3272 40.3307 41.741C38.1734 42.5232 35.8776 42.911 33.5824 42.8811C31.7754 42.8508 29.9308 42.5541 28.3541 41.6939C25.888 40.3452 24.3683 37.8081 23.2409 35.2582C23.4422 35.8622 23.6807 36.4465 23.9348 37.0291C25.0638 39.6639 26.6041 42.3146 29.1462 43.7089C30.7229 44.5692 32.5683 44.8736 34.3744 44.8962C36.6705 44.9337 38.9663 44.5459 41.1228 43.7561C42.2658 43.3423 43.3866 42.7996 44.2452 41.9536C45.0682 41.1425 45.5961 40.0859 46.0375 39.0313C46.6533 37.5628 47.1283 36.0327 47.3225 34.4565C47.7142 31.4045 47.0239 28.3263 46.1434 25.3776Z" fill="#EA9C00"/>
<path d="M39.0249 29.6215C37.5198 29.4724 36.165 30.4589 35.0219 31.4372C33.8789 32.4155 32.6527 33.4959 31.1429 33.5871C30.8456 33.6049 30.544 33.5844 30.2622 33.67C29.9803 33.7556 29.7164 34.0016 29.7246 34.2868C29.7301 34.6187 30.0617 34.8369 30.3622 34.989C29.7967 35.2145 29.1558 35.5413 29.072 36.1307C29.01 36.5629 29.3101 36.9934 29.703 37.197C30.0967 37.4083 30.5642 37.4334 31.011 37.4145C30.6503 37.6403 30.247 38.0488 30.4608 38.4116C30.5194 38.5134 30.6221 38.587 30.7309 38.6444C31.1929 38.9022 31.7527 38.9789 32.2671 38.8596C31.9275 38.8511 31.7945 39.3531 32.005 39.6158C32.2155 39.8784 32.5922 39.9369 32.9248 39.9539C33.4796 39.9848 34.0431 39.9528 34.5937 39.8758C37.6103 39.454 40.3691 37.4987 41.7316 34.8178C42.0861 34.1131 42.3551 33.3484 42.307 32.565C42.1885 30.9387 40.6018 29.778 39.0249 29.6215Z" fill="#EA9C00"/>
<path d="M38.4395 28.6118C36.9343 28.4628 35.5795 29.4493 34.4365 30.4276C33.2934 31.4059 32.0673 32.4863 30.5574 32.5775C30.2601 32.5952 29.9586 32.5748 29.6767 32.6604C29.3949 32.746 29.1309 32.992 29.1391 33.2772C29.1447 33.6091 29.4762 33.8273 29.7767 33.9793C29.219 34.204 28.5704 34.5316 28.4865 35.121C28.4245 35.5533 28.7246 35.9838 29.1175 36.1874C29.5113 36.3986 29.9787 36.4238 30.4256 36.4048C30.0649 36.6307 29.6615 37.0392 29.8753 37.402C29.9339 37.5037 30.0367 37.5773 30.1455 37.6348C30.6074 37.8925 31.1673 37.9692 31.6816 37.8499C31.342 37.8414 31.2091 38.3435 31.4195 38.6061C31.63 38.8688 32.0067 38.9273 32.3394 38.9442C32.8941 38.9751 33.4576 38.9431 34.0082 38.8662C37.0249 38.4443 39.7836 36.4891 41.1461 33.8081C41.5006 33.1035 41.7697 32.3388 41.7216 31.5553C41.603 29.9291 40.0164 28.7683 38.4395 28.6118Z" fill="#FFE8AE"/>
<path d="M46.1826 25.3732C45.8808 24.3629 45.5461 23.3408 44.9814 22.4449C44.2926 21.3541 42.7399 20.0039 41.3122 20.055C39.2718 20.1205 38.3893 21.9513 37.6499 23.5109C37.3049 24.23 36.9201 24.9458 36.4395 25.5794C36.8782 26.4043 37.6502 26.7589 38.607 26.0876C38.8249 26.5582 39.2893 26.9085 39.8112 26.9971C40.333 27.0858 40.8967 26.9146 41.2732 26.5478C41.9797 27.3737 43.4886 27.3444 44.1726 26.487C44.5733 26.6897 44.9956 26.8746 45.4501 26.9244C45.8328 26.9667 46.2443 26.913 46.5756 26.7059C46.4475 26.264 46.3185 25.8143 46.1826 25.3732Z" fill="#FFE8AE"/>
<path d="M37.2024 37.2801C37.0635 37.0945 37.0847 36.7905 37.2845 36.6754C37.045 36.7176 36.7978 36.7607 36.5576 36.7256C36.3174 36.6906 36.0748 36.563 35.9792 36.3417C35.8224 35.9957 36.0555 35.6139 36.2815 35.3103C35.851 35.4048 35.3142 35.4647 35.0321 35.125C34.7319 34.7641 34.9471 34.2219 35.2458 33.8638C34.8896 33.919 34.4765 33.9574 34.2211 33.7153C34.0269 33.5281 33.9936 33.2302 34.0683 32.9822C34.1422 32.7265 34.3153 32.5138 34.4902 32.3164C34.1563 32.5006 33.7056 32.2725 33.5341 31.9359C33.4229 31.7163 33.4138 31.4931 33.4357 31.2664C33.1459 31.4921 32.8543 31.7025 32.5447 31.8917C32.5128 32.3825 32.9037 32.7797 33.4605 32.617C33.2831 32.7914 33.0979 32.9668 32.98 33.181C32.8622 33.3952 32.8056 33.6645 32.902 33.8935C33.0105 34.1597 33.2963 34.3212 33.5849 34.3663C33.8735 34.4114 34.1665 34.3555 34.4518 34.3004C34.1713 34.6102 33.9703 34.9961 33.8746 35.4089C33.8546 35.5117 33.8362 35.6297 33.8862 35.7247C33.9276 35.8129 34.02 35.8644 34.1115 35.9083C34.5018 36.089 34.9676 36.0989 35.3662 35.9306C35.0661 36.1343 34.9142 36.5379 35.0537 36.8703C35.1924 37.1951 35.645 37.3689 35.9555 37.1873C35.701 37.4477 35.8567 37.9252 36.1762 38.1061C36.2513 38.1441 36.3256 38.1745 36.4068 38.1964C36.8271 38.0102 37.237 37.8021 37.6271 37.5574C37.4716 37.5052 37.305 37.4233 37.2024 37.2801Z" fill="#B77165"/>
<path d="M43.7741 21.0871C43.7741 21.0871 46.663 20.5093 46.8312 20.7458C46.9993 20.9822 45.212 22.8908 45.212 22.8908C45.212 22.8908 44.2398 22.8602 43.9344 22.5231C43.6376 22.1927 43.7741 21.0871 43.7741 21.0871Z" fill="#B77165"/>
<path d="M42.5226 21.7991C42.5003 21.6701 42.44 21.5531 42.3719 21.4369C42.4806 21.564 42.5893 21.6911 42.698 21.8181C42.7705 21.9029 42.8438 21.9952 42.8946 22.0978C42.9377 22.2013 42.9513 22.3235 42.9071 22.4212C42.849 22.536 42.7228 22.6042 42.5983 22.6181C42.4738 22.632 42.3443 22.6001 42.2207 22.552C42.0558 22.4853 41.8572 22.3992 41.7407 22.273C42.0243 22.1331 42.6211 22.399 42.5226 21.7991Z" fill="#231F20"/>
<path opacity="0.32" d="M39.2805 18.2944C39.2467 18.3445 39.206 18.4032 39.2197 18.4558C39.2343 18.516 39.2861 18.5567 39.3501 18.565C39.4071 18.5818 39.4693 18.5749 39.5324 18.5756C39.8167 18.5825 40.0878 18.7533 40.2032 19.0111C40.2256 19.0704 40.248 19.1298 40.292 19.1713C40.3541 19.234 40.45 19.2465 40.5252 19.2149C40.6091 19.19 40.6732 19.1287 40.7121 19.0548C40.8187 18.8805 40.8104 18.6649 40.7191 18.4817C40.6286 18.3062 40.4637 18.17 40.2884 18.0813C39.949 17.9336 39.5048 17.9754 39.2805 18.2944Z" fill="white"/>
<path opacity="0.32" d="M42.1091 18.7287C42.2558 18.8438 42.2555 19.0526 42.3071 19.2324C42.3303 19.2994 42.37 19.3724 42.4408 19.3722C42.4642 19.3696 42.4944 19.3585 42.5161 19.3406C42.6259 19.2664 42.6564 19.1161 42.6411 18.9786C42.6069 18.6731 42.3144 18.3809 41.9887 18.3554C41.4789 18.3041 41.9624 18.6136 42.1091 18.7287Z" fill="white"/>
<path d="M42.8145 28.858C42.858 29.2476 42.9255 29.7118 43.2907 29.9494C43.4435 30.0484 43.6293 30.0895 43.8126 30.0381C44.0045 29.9935 44.13 29.848 44.1977 29.678C44.2766 29.4681 44.3504 29.2124 44.286 28.9876C44.2602 28.8977 44.1166 28.9524 44.1424 29.0423C44.1786 29.1543 44.1525 29.2732 44.1255 29.3845C44.0977 29.4881 44.0768 29.5833 44.0326 29.681C43.9433 29.8688 43.747 29.9449 43.5527 29.897C43.3591 29.8567 43.2064 29.6882 43.1246 29.5194C43.0221 29.3066 42.9956 29.0698 42.97 28.8407C42.9512 28.7422 42.8034 28.7587 42.8145 28.858Z" fill="#EA9C00"/>
<path d="M44.4208 30.2642C44.4308 30.4951 44.5117 30.7258 44.6506 30.9113C44.78 31.0825 44.9897 31.2679 45.2126 31.2894C45.4589 31.3083 45.6657 31.1151 45.8034 30.9373C45.948 30.751 46.0338 30.5326 46.0558 30.3059C46.0689 30.2116 45.9168 30.19 45.9037 30.2842C45.8853 30.4719 45.8193 30.6571 45.7024 30.8094C45.5933 30.9608 45.4116 31.1667 45.2042 31.1434C45.0124 31.1184 44.8441 30.9516 44.7406 30.8008C44.6277 30.6355 44.5675 30.4489 44.5539 30.2571C44.5739 30.1543 44.4184 30.1717 44.4208 30.2642Z" fill="#EA9C00"/>
<path d="M43.2652 32.1177C43.2856 32.301 43.3303 32.4894 43.4043 32.659C43.4681 32.8065 43.5474 32.9523 43.6691 33.0547C43.7821 33.1504 43.922 33.2044 44.0759 33.1717C44.2367 33.1306 44.3501 33.0174 44.4376 32.8839C44.5441 32.7096 44.6014 32.5176 44.6104 32.3155C44.6139 32.2764 44.5941 32.24 44.5457 32.2299C44.506 32.2266 44.4618 32.2547 44.4583 32.2938C44.4477 32.4806 44.3981 32.6717 44.2977 32.8299C44.2093 32.9558 44.0657 33.0801 43.9016 33.021C43.7461 32.9688 43.6495 32.8094 43.5875 32.6772C43.4962 32.494 43.4429 32.2989 43.4207 32.1003C43.4019 32.0019 43.2541 32.0184 43.2652 32.1177Z" fill="#EA9C00"/>
<path d="M44.8958 33.5288C44.8833 33.8395 44.951 34.1645 45.1295 34.423C45.1968 34.5314 45.3185 34.6339 45.4568 34.603C45.5951 34.572 45.6965 34.4215 45.7632 34.3135C45.8498 34.1724 45.9027 34.0118 45.9237 33.8471C45.9368 33.7528 45.7848 33.7311 45.7717 33.8254C45.749 33.9749 45.7021 34.1193 45.6224 34.2519C45.5695 34.3429 45.4561 34.5257 45.3352 34.4309C45.223 34.3429 45.1653 34.1792 45.1189 34.0452C45.0698 33.8883 45.0425 33.7135 45.0479 33.5505C45.0514 33.5114 45.0316 33.4749 44.9832 33.4649C44.9512 33.4607 44.8993 33.4897 44.8958 33.5288Z" fill="#EA9C00"/>
<path d="M43.3205 33.9521C43.1974 34.2597 43.1855 34.6477 43.3528 34.9461C43.4217 35.0698 43.5218 35.1901 43.6686 35.2356C43.8396 35.2861 43.9953 35.1991 44.1173 35.0927C44.2757 34.959 44.3995 34.7983 44.5061 34.624C44.526 34.5908 44.5045 34.5391 44.4716 34.5273C44.4302 34.5087 44.393 34.5283 44.3731 34.5615C44.2726 34.7196 44.1479 34.8728 44.0034 34.9894C43.9385 35.0431 43.8581 35.0985 43.7639 35.1012C43.693 35.1014 43.6248 35.0549 43.5799 35.0058C43.4643 34.8872 43.4144 34.7227 43.3965 34.5622C43.3761 34.3789 43.3945 34.1913 43.4613 34.0137C43.4908 33.9253 43.3578 33.8628 43.3205 33.9521Z" fill="#EA9C00"/>
<path d="M44.9431 28.3807C44.8435 28.5465 44.9693 28.7567 45.1343 28.8234C45.3001 28.8977 45.4998 28.8522 45.6097 28.7084C45.6721 28.6319 45.7077 28.5274 45.6966 28.4281C45.6923 28.3899 45.6492 28.356 45.6103 28.3604C45.5714 28.3647 45.5437 28.3987 45.541 28.4454C45.5487 28.5142 45.5175 28.5873 45.4603 28.64C45.4396 28.6656 45.4101 28.6843 45.3799 28.6954C45.3721 28.6963 45.3652 28.7048 45.3574 28.7057C45.3496 28.7065 45.3496 28.7065 45.3496 28.7065C45.3418 28.7074 45.3418 28.7074 45.3341 28.7083C45.3263 28.7091 45.3185 28.71 45.3107 28.7109C45.3107 28.7109 45.2796 28.7143 45.2874 28.7135C45.2165 28.7137 45.15 28.6824 45.1052 28.6333C45.0517 28.5774 45.0354 28.5019 45.0761 28.4432C45.096 28.41 45.0745 28.3583 45.0416 28.3465C45.0002 28.3279 44.963 28.3476 44.9431 28.3807Z" fill="#EA9C00"/>
<path d="M42.0145 37.3537C41.7099 37.6583 41.5062 38.091 41.5073 38.5239C41.5069 38.7327 41.6061 38.915 41.8238 38.9603C42.057 39.0039 42.2767 38.8556 42.4507 38.7202C42.6764 38.5558 42.8669 38.3566 43.0392 38.1363C43.0937 38.0606 42.9807 37.965 42.9183 38.0416C42.7529 38.2534 42.5695 38.444 42.3514 38.6075C42.2502 38.6884 42.1334 38.7711 42.0107 38.8002C41.9035 38.8277 41.7687 38.8195 41.7023 38.7187C41.6367 38.6255 41.6534 38.4921 41.6656 38.3902C41.6761 38.273 41.7031 38.1618 41.7456 38.0488C41.8306 37.8227 41.9571 37.6153 42.1268 37.4417C42.1986 37.3795 42.0855 37.2839 42.0145 37.3537Z" fill="#EA9C00"/>
<path d="M43.2619 36.6731C43.1658 36.7998 43.0705 36.9342 43.0331 37.093C43.0079 37.2196 43.0318 37.3638 43.1146 37.4706C43.3346 37.7476 43.7039 37.5285 43.9133 37.3582C44.0578 37.2416 44.1928 37.1105 44.3106 36.9659C44.3729 36.8893 44.252 36.7945 44.1897 36.8711C44.0867 37.0063 43.9664 37.128 43.8279 37.2285C43.7051 37.3273 43.5597 37.4364 43.3955 37.447C43.2469 37.4558 43.1693 37.3253 43.1704 37.1937C43.168 37.0316 43.2858 36.8869 43.3741 36.7611C43.4364 36.6845 43.3234 36.5889 43.2619 36.6731Z" fill="#EA9C00"/>
<path d="M34.4481 28.06C34.364 28.224 34.2894 28.4025 34.3488 28.5815C34.4065 28.7452 34.5731 28.8271 34.7426 28.7927C34.9275 28.7566 35.1066 28.667 35.2614 28.5724C35.4318 28.476 35.591 28.35 35.7338 28.218C35.8047 28.1482 35.6847 28.0611 35.6129 28.1232C35.3845 28.3344 35.1198 28.5031 34.8249 28.6134C34.6961 28.6587 34.5491 28.6828 34.4854 28.5353C34.4303 28.3945 34.5161 28.2457 34.5725 28.1157C34.6339 28.0315 34.494 27.9775 34.4481 28.06Z" fill="#EA9C00"/>
<path d="M36.1738 27.3646C36.0683 27.4073 35.9732 27.4721 35.9212 27.5707C35.8683 27.6617 35.8742 27.7847 35.9389 27.8703C35.9949 27.9491 36.1029 27.999 36.2066 28.0106C36.3258 28.0205 36.4322 27.9854 36.5273 27.9206C36.6372 27.8465 36.7264 27.7283 36.8008 27.6194C36.8554 27.5437 36.7423 27.4481 36.68 27.5246C36.564 27.6845 36.4011 27.9192 36.1722 27.8443C36.0988 27.8215 36.0289 27.7597 36.0359 27.6816C36.0491 27.5874 36.152 27.5217 36.235 27.4893C36.3189 27.4644 36.2638 27.3236 36.1738 27.3646Z" fill="#EA9C00"/>
<path d="M38.275 39.9056C38.0251 39.9954 37.8701 40.2292 37.7695 40.457C37.662 40.6933 37.6485 40.9964 37.9232 41.1281C38.1891 41.2531 38.5195 41.1079 38.7582 40.9885C39.0193 40.8588 39.2598 40.685 39.465 40.4765C39.5359 40.4067 39.4159 40.3196 39.3441 40.3817C39.1736 40.5477 38.985 40.6925 38.7697 40.8093C38.6659 40.8673 38.5604 40.91 38.4471 40.9536C38.3261 40.9981 38.1972 41.0434 38.0685 41.0191C37.964 40.9998 37.8629 40.9415 37.8354 40.8363C37.8071 40.7235 37.8557 40.5943 37.899 40.4889C37.9883 40.3011 38.1096 40.1174 38.3137 40.0405C38.4286 40.0122 38.3735 39.8714 38.275 39.9056Z" fill="#EA9C00"/>
<path d="M39.8824 39.9118C39.8207 40.1352 39.7607 40.3739 39.8788 40.585C39.9865 40.774 40.1826 40.8372 40.3901 40.7909C40.62 40.7342 40.8328 40.5945 41.0318 40.4717C41.2524 40.3311 41.447 40.1702 41.64 39.994C41.7118 39.9318 41.6195 39.8106 41.5477 39.8728C41.2483 40.1537 40.8996 40.4169 40.5174 40.591C40.3453 40.6721 40.1292 40.7117 40.0137 40.5235C39.9068 40.3421 39.9763 40.1178 40.0345 39.9335C40.064 39.8451 39.9119 39.8234 39.8824 39.9118Z" fill="#EA9C00"/>
<path opacity="0.6" d="M36.7863 29.5312C36.3184 29.7846 35.9436 30.1667 35.612 30.5826C35.502 30.7264 35.3843 30.871 35.3408 31.046C35.2896 31.2218 35.3195 31.4196 35.4516 31.544C35.6362 31.7167 35.9543 31.6735 36.1654 31.5185C36.3774 31.3711 36.5177 31.1466 36.702 30.9636C37.1123 30.5466 37.7262 30.3311 38.3094 30.4052C38.5573 30.4394 38.8104 30.5194 39.0568 30.4687C39.9965 30.2787 38.9633 29.4197 38.5617 29.2789C38.021 29.0918 37.2611 29.2694 36.7863 29.5312Z" fill="white"/>
<path d="M42.6817 43.1875C42.5599 41.956 40.4557 41.3093 39.463 41.165C38.4694 41.013 37.0271 41.5684 36.8124 43.0308C36.5976 44.4932 37.3088 45.6434 38.5247 45.6701C40.1657 45.6956 42.8307 44.6634 42.6817 43.1875Z" fill="#FFE8AE"/>
<path d="M38.5238 45.6624C39.795 45.6906 41.6867 45.0695 42.3976 44.1008C41.5023 44.688 40.1943 45.0351 39.2394 45.0179C38.0236 44.9913 37.3132 43.8487 37.5271 42.3787C37.5812 42.0169 37.7052 41.7169 37.8819 41.4652C37.356 41.7636 36.9249 42.2758 36.8115 43.0231C36.5975 44.4931 37.3088 45.6434 38.5238 45.6624Z" fill="#EDD7A4"/>
<path opacity="0.6" d="M41.8805 42.6428C41.7278 42.4743 41.5197 42.3738 41.3063 42.2971C41.1258 42.2322 40.9384 42.1757 40.7449 42.1355C40.5514 42.0952 40.3518 42.0711 40.1693 42.1301C39.9869 42.1892 39.8242 42.3543 39.83 42.547C39.8273 42.5937 39.841 42.6463 39.8686 42.6819C39.9057 42.7319 39.9636 42.7563 40.0215 42.7808C40.3419 42.8997 40.7074 42.9285 40.9672 43.1392C41.1398 43.2746 41.2743 43.4916 41.4972 43.5131C42.0157 43.5712 42.1687 42.9664 41.8805 42.6428Z" fill="white"/>
<path d="M34.3024 41.0065C33.1936 41.5866 33.3719 43.7475 33.6055 44.7113C33.8383 45.6675 34.8987 46.771 36.3614 46.3988C37.825 46.0344 38.6329 44.9465 38.2017 43.8347C37.6171 42.3378 35.6342 40.3087 34.3024 41.0065Z" fill="#FFE8AE"/>
<path d="M38.2016 43.8347C37.7488 42.6711 36.4573 41.1913 35.2764 40.9132C36.1613 41.5027 36.9799 42.5559 37.3225 43.4379C37.7538 44.5498 36.9459 45.6376 35.4823 46.0021C35.1218 46.0887 34.7917 46.0946 34.4858 46.036C34.9675 46.3998 35.6119 46.5985 36.3545 46.4073C37.8173 46.0352 38.6329 44.9465 38.2016 43.8347Z" fill="#EDD7A4"/>
<path opacity="0.6" d="M34.0929 41.9502C33.9889 42.1474 33.9756 42.3809 33.977 42.605C33.9828 42.7977 34.0041 42.9887 34.0332 43.1788C34.0701 43.368 34.1225 43.5555 34.2493 43.7037C34.3761 43.8519 34.5895 43.9287 34.7702 43.8543C34.8152 43.8339 34.8593 43.8057 34.8861 43.7641C34.9199 43.7139 34.9209 43.6519 34.9218 43.5899C34.9163 43.258 34.7993 42.9154 34.8974 42.5951C34.9608 42.3869 35.1106 42.1768 35.0556 41.9664C34.9207 41.4634 34.2931 41.5566 34.0929 41.9502Z" fill="white"/>
</g>
</mask>
<g mask="url(#mask0)">
<ellipse rx="7.52645" ry="9.61931" transform="matrix(0.999904 -0.0138341 0.0126506 0.99992 41.6357 24.2427)" fill="#C8926D"/>
</g>
<g clip-path="url(#clip2)">
<path d="M74.6074 61.7455C74.6074 61.8569 74.6289 61.9907 74.5646 62.0798C74.4789 62.2359 74.2432 62.2582 74.0717 62.2582C73.386 62.2582 72.7003 62.2804 72.0146 62.2804C71.8432 62.2804 71.6289 62.3027 71.5646 62.4811C71.4574 62.7486 71.8003 62.9492 72.0574 62.9937C72.5932 63.0829 73.1503 63.0829 73.686 62.9937C73.1289 63.2612 72.5717 63.5287 72.0146 63.7739C71.9074 63.8185 71.7789 63.8854 71.6932 63.9968C71.6289 64.1083 71.6074 64.2643 71.7146 64.3535C71.7789 64.4203 71.886 64.3981 71.9717 64.3981C72.7217 64.3089 73.4289 63.9968 74.0503 63.551C73.7503 63.8185 73.4932 64.1083 73.2789 64.4426C73.1932 64.5764 73.086 64.7547 73.1717 64.8884C73.2789 65.0668 73.5574 64.9999 73.7289 64.8662C74.5217 64.3089 74.9503 63.1721 75.8717 62.9269C76.3432 62.7931 76.9432 62.8823 77.2217 62.4588C76.8574 61.8346 75.6574 62.5702 75.2932 61.9238C75.2289 61.8123 75.2074 61.6563 75.2074 61.5226C75.0574 59.6279 75.186 57.7109 75.5717 55.8608C75.6789 55.3035 75.8074 54.6571 75.4432 54.2336C75.036 53.7432 74.2217 53.8992 74.0074 54.5011C73.7932 55.036 74.0932 55.9276 74.1574 56.4626C74.3289 58.2236 74.5003 59.9845 74.6074 61.7455Z" fill="#E03E36"/>
<path d="M81.9361 61.7455C81.9361 61.8569 81.9575 61.9907 81.8932 62.0798C81.8075 62.2359 81.5718 62.2582 81.4003 62.2582C80.7146 62.2582 80.0289 62.2804 79.3432 62.2804C79.1718 62.2804 78.9575 62.3027 78.8932 62.4811C78.7861 62.7486 79.1289 62.9492 79.3861 62.9937C79.9218 63.0829 80.4789 63.0829 81.0146 62.9937C80.4575 63.2612 79.9003 63.5287 79.3432 63.7739C79.2361 63.8185 79.1075 63.8854 79.0218 63.9968C78.9575 64.1083 78.9361 64.2643 79.0432 64.3535C79.1075 64.4203 79.2146 64.3981 79.3003 64.3981C80.0503 64.3089 80.7575 63.9968 81.3789 63.551C81.0789 63.8185 80.8218 64.1083 80.6075 64.4426C80.5218 64.5764 80.4146 64.7547 80.5003 64.8884C80.6075 65.0668 80.8861 64.9999 81.0575 64.8662C81.8503 64.3089 82.2789 63.1721 83.2003 62.9269C83.6718 62.7931 84.2718 62.8823 84.5503 62.4588C84.186 61.8346 82.9861 62.5702 82.6218 61.9238C82.5575 61.8123 82.5361 61.6563 82.5361 61.5226C82.3861 59.6279 82.5146 57.7109 82.9003 55.8608C83.0075 55.3035 83.136 54.6571 82.7718 54.2336C82.3646 53.7432 81.5503 53.8992 81.3361 54.5011C81.1218 55.036 81.4218 55.9276 81.4861 56.4626C81.6575 58.2236 81.8289 59.9845 81.9361 61.7455Z" fill="#E03E36"/>
<path d="M85.3856 42.7317C85.9214 42.2636 86.5856 41.8846 87.2714 42.0407C87.9356 42.1967 88.4071 43.1552 87.9356 43.6679C88.4928 43.8239 89.0285 43.2221 89.5856 43.3558C89.9928 43.445 90.2285 43.9131 90.2285 44.3589C90.2285 44.8047 90.0356 45.2059 89.8428 45.5849C90.1856 45.362 90.6571 45.6294 90.8499 46.0084C91.0214 46.3873 90.9785 46.8331 90.9142 47.2567C90.6571 48.9953 90.1642 50.6894 89.4142 52.2497C89.0071 53.0968 88.5356 53.9438 87.8714 54.6125C86.4356 56.0837 84.2071 56.641 82.2571 56.0837C80.3071 55.5265 78.6999 53.9215 77.9714 51.96C77.4785 50.4888 77.4571 48.7947 78.0785 47.3681C78.6999 45.9192 79.9428 44.983 81.3785 44.5595C81.9999 44.3812 82.6642 44.4258 83.2856 44.2474C84.1642 44.0022 84.7214 43.3112 85.3856 42.7317Z" fill="#FFAF00"/>
<path d="M67.9215 41.9738C66.5715 45.4065 66.9144 49.4634 68.5858 52.7401C69.3787 54.3005 70.4929 55.7048 71.9287 56.6187C73.1929 57.4211 74.6501 57.8447 76.1072 58.1344C78.1215 58.558 80.2215 58.8031 82.2358 58.3573C85.1715 57.7332 87.7644 55.6156 89.0287 52.807C89.8644 50.9569 90.0787 48.5272 88.7501 47.0114C88.1715 46.365 87.4001 45.9638 86.6287 45.5626C85.5572 45.0276 84.4858 44.4703 83.4144 43.9354C82.8358 43.6456 82.2358 43.3335 81.7858 42.8208C81.3144 42.2636 81.0787 41.528 80.7787 40.8593C79.7072 38.3181 77.1787 35.3981 73.2787 36.0668C70.3644 36.6241 69.0358 39.1429 67.9215 41.9738Z" fill="#FFAF00"/>
<path d="M67 37.0254C67.3857 37.7387 68.1571 40.2129 68.3071 41.0377C68.3286 41.1937 69.4643 40.6365 70.2143 39.5888C70.8786 38.6526 70.9429 37.6941 70.9643 37.1368C70.9643 37.1368 67.9643 37.2929 67 37.0254Z" fill="#E03E36"/>
<path d="M74.1429 38.9999C73.7473 39.0677 73.3956 39.305 73.2198 39.5761C73.044 39.8473 73 40.1863 73 40.5253C73 40.6609 73 40.7626 73.0879 40.8643C73.2198 40.9999 73.4835 41.0338 73.7033 40.966C73.9231 40.8982 74.0989 40.7965 74.2308 40.6609C74.4945 40.4575 74.7143 40.288 74.8901 40.0168C75.022 39.7795 75.0659 39.4745 74.8462 39.2372C74.6264 38.9999 74.1868 38.9321 73.9231 39.1016L74.1429 38.9999Z" fill="#231F20"/>
<path d="M70.3003 45.0946C70.3003 45.8079 70.4074 46.4989 70.6646 47.1676C70.7074 47.3013 70.836 47.3905 70.986 47.3682C71.1146 47.3236 71.2217 47.1676 71.1789 47.0338C70.9432 46.4097 70.836 45.7633 70.836 45.1169C70.836 44.9608 70.7074 44.8494 70.5789 44.8494C70.4289 44.8271 70.3003 44.9608 70.3003 45.0946Z" fill="#EA9C00"/>
<path d="M69.7217 49.5973C69.8074 50.6672 70.3003 51.6257 70.7931 52.5619C70.9645 52.874 71.4145 52.5842 71.2431 52.2944C70.7931 51.4697 70.3217 50.5781 70.236 49.6196C70.2145 49.4635 70.1288 49.3521 69.9788 49.3521C69.8503 49.3298 69.7217 49.4412 69.7217 49.5973Z" fill="#EA9C00"/>
<path d="M73.9431 52.6063C74.3289 53.119 74.7789 53.6094 75.2717 54.0329C75.3789 54.1221 75.5503 54.1444 75.636 54.0329C75.7217 53.9215 75.7431 53.7431 75.636 53.654C75.1431 53.2305 74.6931 52.7401 74.3074 52.2274C74.2217 52.1159 74.0289 52.1159 73.9431 52.2274C73.836 52.3388 73.8574 52.4726 73.9431 52.6063Z" fill="#EA9C00"/>
<path d="M74.4998 47.4573C74.9498 47.9477 75.3998 48.4381 75.8498 48.9285C75.9355 49.0399 76.1284 49.0399 76.2141 48.9285C76.3212 48.817 76.3212 48.661 76.2141 48.5495C75.7641 48.0591 75.3141 47.5687 74.8641 47.0783C74.7784 46.9669 74.5855 46.9669 74.4998 47.0783C74.3926 47.1675 74.3926 47.3458 74.4998 47.4573Z" fill="#EA9C00"/>
<path d="M77.0927 42.7317C77.3713 43.1775 77.757 43.5565 78.1856 43.8462C78.2927 43.9131 78.4856 43.8685 78.5499 43.7571C78.6142 43.6233 78.5713 43.4673 78.4642 43.3781C78.4213 43.3558 78.357 43.3113 78.3142 43.289C78.2927 43.2667 78.2713 43.2667 78.2499 43.2444C78.2285 43.2444 78.2285 43.2221 78.207 43.2221C78.1642 43.1775 78.2499 43.2667 78.207 43.2221C78.1213 43.1552 78.0356 43.0661 77.9499 42.9992C77.8642 42.91 77.7999 42.8209 77.7142 42.7317C77.7142 42.7094 77.6713 42.6648 77.6713 42.6648C77.6927 42.6871 77.6927 42.7094 77.6927 42.6871C77.6927 42.6871 77.6927 42.6871 77.6927 42.6648C77.6927 42.6425 77.6713 42.6425 77.6713 42.6203C77.6285 42.5757 77.607 42.5088 77.5642 42.4642C77.4785 42.3528 77.3285 42.2859 77.1999 42.3751C77.0713 42.4419 77.007 42.6203 77.0927 42.7317Z" fill="#EA9C00"/>
<path d="M81.1643 45.0944C81.7001 45.5848 82.3643 45.8523 83.0715 45.8746C83.2001 45.8746 83.3501 45.7408 83.3286 45.6071C83.3286 45.4511 83.2215 45.3396 83.0715 45.3396C82.5143 45.3173 81.9572 45.0944 81.5286 44.7155C81.4215 44.6263 81.2715 44.604 81.1643 44.7155C81.0572 44.8046 81.0572 45.0053 81.1643 45.0944Z" fill="#EA9C00"/>
<path d="M80.2431 48.4381C80.7574 48.7502 81.3146 48.9954 81.8717 49.196C82.0003 49.2406 82.1717 49.1514 82.1931 48.9954C82.236 48.8394 82.1503 48.7056 82.0003 48.661C81.4646 48.4827 80.9931 48.2598 80.5003 47.97C80.3717 47.9031 80.2003 47.9477 80.136 48.0592C80.0717 48.1929 80.1146 48.3712 80.2431 48.4381Z" fill="#EA9C00"/>
<path d="M79.1713 54.2781C79.7713 54.5456 80.4142 54.7016 81.0785 54.6793C81.2285 54.6793 81.3356 54.5456 81.3356 54.4119C81.3356 54.2558 81.2071 54.1221 81.0785 54.1444C80.5213 54.1667 79.9428 54.0552 79.4285 53.8323C79.2999 53.7654 79.1499 53.7877 79.0642 53.9215C78.9999 54.0106 79.0428 54.2112 79.1713 54.2781Z" fill="#EA9C00"/>
<path d="M80.8 57.3989C81.3143 57.4658 81.85 57.4212 82.3643 57.2652C82.4928 57.2206 82.6 57.0646 82.5571 56.9308C82.5143 56.7971 82.3643 56.6856 82.2357 56.7302C82 56.7971 81.7643 56.8417 81.55 56.8639C81.3143 56.8862 81.0571 56.8862 80.8214 56.8417C80.6928 56.8194 80.5428 56.9754 80.5643 57.1091C80.5428 57.2875 80.65 57.3766 80.8 57.3989Z" fill="#EA9C00"/>
<path d="M85.7928 55.2588C86.3928 54.7461 86.9714 54.1888 87.5285 53.6093C87.6356 53.4978 87.6356 53.3195 87.5285 53.2303C87.4214 53.1189 87.2499 53.1189 87.1642 53.2303C86.6071 53.8099 86.0285 54.3671 85.4285 54.8798C85.3214 54.969 85.3428 55.1696 85.4285 55.2588C85.5356 55.3702 85.6856 55.3479 85.7928 55.2588Z" fill="#EA9C00"/>
<path d="M84.7429 51.8262C85.2357 51.4695 85.7072 51.046 86.0929 50.5556C86.1786 50.4441 86.2 50.2658 86.0929 50.1767C85.9857 50.0875 85.8143 50.0652 85.7286 50.1767C85.5357 50.3996 85.3429 50.6225 85.1286 50.8231C85.0214 50.9122 84.9143 51.0237 84.8072 51.1129C84.7857 51.1352 84.7429 51.1574 84.7214 51.1797C84.7 51.202 84.7429 51.1574 84.7 51.1797C84.6786 51.1797 84.6786 51.202 84.6572 51.202C84.5929 51.2466 84.5286 51.2912 84.4643 51.3358C84.3572 51.4249 84.2929 51.581 84.3786 51.7147C84.4643 51.8484 84.6357 51.9153 84.7429 51.8262Z" fill="#EA9C00"/>
<path d="M86.5641 46.8107C86.5856 46.7661 86.5856 46.6992 86.607 46.6547C86.607 46.6324 86.6284 46.6101 86.6284 46.5655C86.6284 46.5432 86.6284 46.5432 86.6499 46.5209C86.6713 46.4763 86.6499 46.5209 86.6499 46.5432C86.6927 46.454 86.7356 46.3426 86.7999 46.2534C86.8213 46.2311 86.8213 46.2088 86.8427 46.1865C86.8427 46.1865 86.8856 46.142 86.8427 46.1643C86.8213 46.2088 86.8427 46.1643 86.8427 46.142C86.8856 46.0974 86.907 46.0528 86.9499 46.0305C86.9927 45.9859 87.0141 45.9636 87.057 45.9191L87.0784 45.8968C87.0999 45.8745 87.1213 45.8745 87.0784 45.8968C87.0999 45.8745 87.1213 45.8522 87.1427 45.8522C87.2499 45.763 87.3141 45.607 87.2284 45.4733C87.1641 45.3618 86.9927 45.2949 86.8641 45.3841C86.4356 45.6739 86.1356 46.142 86.0284 46.6547C86.007 46.7884 86.0713 46.9667 86.2213 46.989C86.3713 47.0336 86.5427 46.9444 86.5641 46.8107Z" fill="#EA9C00"/>
<path d="M88.6003 48.9285C88.8146 48.5273 89.0289 48.1484 89.2432 47.7471C89.3075 47.6134 89.2861 47.4351 89.1575 47.3682C89.0289 47.3013 88.8789 47.3236 88.7932 47.4573C88.5789 47.8586 88.3646 48.2375 88.1503 48.6387C88.0861 48.7725 88.1075 48.9508 88.2361 49.0177C88.3646 49.0846 88.5361 49.0623 88.6003 48.9285Z" fill="#EA9C00"/>
<path d="M76.0427 56.4181C76.1927 56.5072 76.3641 56.5518 76.5356 56.5518C76.707 56.5518 76.8784 56.5072 77.0284 56.4404C77.0927 56.4181 77.1356 56.3289 77.157 56.2843C77.1784 56.2175 77.157 56.1283 77.1356 56.0837C77.0927 56.0169 77.0499 55.9723 76.9856 55.95C76.9213 55.9277 76.857 55.95 76.7927 55.9723H76.7713C76.7927 55.9723 76.8141 55.95 76.8356 55.95C76.7713 55.9723 76.6856 55.9946 76.6213 56.0169C76.6427 56.0169 76.6641 56.0169 76.6856 56.0169C76.6213 56.0169 76.5356 56.0169 76.4713 56.0169C76.4927 56.0169 76.5141 56.0169 76.5356 56.0169C76.4713 56.0169 76.3856 55.9946 76.3213 55.95C76.3427 55.95 76.3641 55.9723 76.3856 55.9723C76.3641 55.9723 76.3641 55.95 76.3427 55.95C76.2784 55.9277 76.2141 55.9054 76.1499 55.9277C76.0856 55.95 76.0213 55.9946 75.9999 56.0614C75.957 56.1283 75.957 56.1952 75.9784 56.262C75.957 56.3066 75.9999 56.3735 76.0427 56.4181Z" fill="#EA9C00"/>
<path d="M77.6073 38.92C77.6502 38.9423 77.7145 38.9423 77.7573 38.9646C77.8002 38.9869 77.7359 38.9646 77.7359 38.9646C77.7359 38.9646 77.7573 38.9869 77.7787 38.9869C77.8002 38.9869 77.8216 39.0091 77.843 39.0314C77.8859 39.0537 77.9287 39.076 77.9716 39.1206L77.993 39.1429C78.0359 39.1652 77.993 39.1429 77.9716 39.1206C77.993 39.1429 78.0145 39.1652 78.0359 39.1652C78.0787 39.2098 78.1002 39.2321 78.143 39.2766C78.1645 39.2989 78.1859 39.3212 78.1859 39.3435C78.2287 39.3881 78.1645 39.2989 78.1859 39.3212L78.2073 39.3435C78.2287 39.3881 78.2716 39.4327 78.293 39.4772C78.3145 39.4995 78.3145 39.5218 78.3359 39.5441C78.3359 39.5664 78.3573 39.5664 78.3573 39.5887C78.3573 39.5664 78.3573 39.5664 78.3359 39.5441V39.5664C78.3573 39.6333 78.4002 39.7002 78.4645 39.7224C78.5287 39.767 78.6145 39.767 78.6573 39.7447C78.7859 39.7002 78.893 39.5441 78.8502 39.4104C78.7645 39.1652 78.6145 38.9423 78.4216 38.764C78.2287 38.5856 78.0145 38.4519 77.7573 38.385C77.6287 38.3404 77.4573 38.4296 77.4359 38.5856C77.393 38.7417 77.4573 38.8977 77.6073 38.92Z" fill="#EA9C00"/>
<path d="M72.1643 54.7463C72.3572 54.9246 72.55 55.1029 72.7215 55.2589C72.7643 55.3035 72.8286 55.3481 72.9143 55.3481C72.9786 55.3481 73.0643 55.3258 73.1072 55.2589C73.15 55.2144 73.1929 55.1475 73.1929 55.0583C73.1929 54.9914 73.1715 54.9023 73.1072 54.8577C72.9143 54.6794 72.7215 54.5011 72.55 54.345C72.5072 54.3004 72.4429 54.2559 72.3572 54.2559C72.2929 54.2559 72.2072 54.2782 72.1643 54.345C72.1215 54.3896 72.0786 54.4565 72.0786 54.5456C72.0786 54.6348 72.1 54.7017 72.1643 54.7463Z" fill="#EA9C00"/>
</g>
<path d="M27.7871 37.534L27.0207 37.5954L27.3112 41.2202L28.0776 41.1587L27.7871 37.534ZM29.0814 38.3423L29.309 41.183C29.3255 41.3883 29.247 41.4979 29.0045 41.5173C28.9727 41.5199 28.9443 41.5221 28.9051 41.5217L28.9523 42.1111C29.0074 42.1085 29.0517 42.1067 29.1048 42.1024C29.7455 42.0511 30.1145 41.765 30.064 41.1349L29.8354 38.2819L29.0814 38.3423ZM29.4285 37.9618C29.6533 37.9438 29.8236 37.7573 29.8067 37.5467C29.79 37.3379 29.5922 37.1809 29.3674 37.1989C29.1444 37.2168 28.9741 37.4032 28.9908 37.6121C29.0077 37.8227 29.2055 37.9796 29.4285 37.9618ZM32.0337 39.6768C32.0646 40.0412 31.8304 40.2524 31.5596 40.2741C31.2747 40.2969 31.0746 40.1116 31.0471 39.7914L30.9192 38.195L30.1652 38.2554L30.3039 39.9864C30.3566 40.6216 30.7594 40.9794 31.3063 40.9356C31.7151 40.9029 31.992 40.6687 32.0886 40.3403L32.1169 40.3381L32.1565 40.8319L32.8804 40.7738L32.6625 38.0553L31.9086 38.1157L32.0337 39.6768ZM35.3155 38.6229C35.2082 38.1274 34.7798 37.85 34.0931 37.905C33.3975 37.9608 32.9649 38.3196 33.0087 38.8434C33.0395 39.2506 33.3173 39.4937 33.8568 39.5574L34.3351 39.6134C34.5761 39.6422 34.691 39.7203 34.7055 39.8563C34.7148 40.0176 34.5488 40.1467 34.2851 40.1679C34.0161 40.1894 33.8281 40.0887 33.7644 39.8712L33.0259 39.9695C33.1384 40.4842 33.6065 40.7691 34.3269 40.7114C35.0313 40.6549 35.5069 40.2552 35.4657 39.7188C35.4325 39.326 35.157 39.1112 34.6209 39.0455L34.1209 38.9858C33.8634 38.9512 33.7627 38.872 33.7539 38.7409C33.7391 38.5782 33.9147 38.4573 34.1483 38.4385C34.4102 38.4175 34.5775 38.5484 34.6287 38.7207L35.3155 38.6229ZM36.962 37.7107L36.4505 37.7517L36.3983 37.1004L35.6444 37.1608L35.6965 37.8121L35.3249 37.8419L35.3703 38.4083L35.7419 38.3785L35.8554 39.7944C35.8946 40.3274 36.2785 40.5621 36.8236 40.4952C37.0177 40.4726 37.1526 40.4226 37.2268 40.3917L37.0632 39.8401C37.0266 39.8502 36.9484 39.8743 36.8776 39.8799C36.7271 39.892 36.6182 39.8437 36.6014 39.6349L36.4959 38.3181L37.0074 38.2771L36.962 37.7107ZM38.8126 40.2984L39.609 40.2346L39.9393 38.4874L39.9729 38.4848L40.5772 40.157L41.3754 40.0931L41.8956 37.3153L41.1345 37.3763L40.8659 39.2254L40.8429 39.2273L40.2514 37.4471L39.5027 37.5071L39.2101 39.3688L39.1854 39.3708L38.6177 37.578L37.8549 37.6392L38.8126 40.2984ZM43.0209 40.0128C43.4226 39.9806 43.6688 39.7846 43.7812 39.5208L43.8025 39.5191L43.8327 39.8961L44.5477 39.8388L44.4008 38.0052C44.3488 37.3574 43.7783 37.1288 43.173 37.1773C42.5217 37.2295 42.1184 37.5754 42.0537 38.0793L42.7555 38.0801C42.7924 37.8954 42.9428 37.7498 43.2136 37.7281C43.4702 37.7075 43.6275 37.8249 43.6454 38.0479L43.6462 38.0586C43.6603 38.2338 43.4763 38.2717 43.0074 38.3556C42.4733 38.4482 42.0046 38.6675 42.0533 39.2746C42.0964 39.8126 42.5023 40.0544 43.0209 40.0128ZM43.1951 39.4752C42.9632 39.4938 42.7882 39.3991 42.7716 39.1921C42.7546 38.9797 42.9214 38.8612 43.184 38.8028C43.3467 38.7666 43.6126 38.7061 43.6981 38.6387L43.7212 38.9272C43.744 39.2121 43.5261 39.4487 43.1951 39.4752ZM45.4866 38.1818C45.4602 37.8312 45.6526 37.6092 45.9571 37.5848C46.2597 37.5606 46.4579 37.7442 46.4828 38.0771L46.6107 39.6735L47.3647 39.6131L47.226 37.8821C47.1752 37.2485 46.7723 36.8889 46.206 36.9343C45.8024 36.9666 45.5263 37.1883 45.4295 37.5149L45.3977 37.5174L45.3592 37.0378L44.6407 37.0954L44.8585 39.8139L45.6125 39.7535L45.4866 38.1818ZM48.913 36.753L48.4015 36.794L48.3493 36.1426L47.5953 36.2031L47.6475 36.8544L47.2758 36.8842L47.3212 37.4505L47.6929 37.4208L47.8064 38.8367C47.8455 39.3697 48.2295 39.6043 48.7745 39.5375C48.9686 39.5148 49.1036 39.4648 49.1777 39.4339L49.0141 38.8824C48.9775 38.8924 48.8993 38.9165 48.8285 38.9222C48.6781 38.9343 48.5691 38.886 48.5524 38.6771L48.4469 37.3603L48.9584 37.3193L48.913 36.753ZM50.5618 39.4103C51.2344 39.3564 51.6612 38.9927 51.727 38.4797L51.026 38.4896C50.9665 38.7028 50.7804 38.8263 50.5291 38.8465C50.1521 38.8767 49.8932 38.6463 49.8607 38.241L49.8606 38.2392L51.7119 38.0908L51.6953 37.8838C51.6212 36.9599 51.0254 36.5481 50.3068 36.6057C49.5068 36.6698 49.0337 37.2795 49.101 38.1184C49.1701 38.9803 49.7247 39.4774 50.5618 39.4103ZM49.8231 37.772C49.8142 37.4609 50.0298 37.1943 50.3643 37.1675C50.6917 37.1412 50.937 37.3567 50.9647 37.6805L49.8231 37.772ZM53.0286 39.2037C53.4675 39.1685 53.6755 38.8971 53.7618 38.6622L53.7937 38.6597L53.8286 39.0951L54.5719 39.0355L54.2814 35.4107L53.5292 35.471L53.6384 36.8338L53.6154 36.8357C53.4968 36.6225 53.2574 36.3692 52.8026 36.4056C52.2061 36.4534 51.7388 36.9576 51.8137 37.8921C51.8866 38.8018 52.4091 39.2533 53.0286 39.2037ZM53.2194 38.5846C52.8495 38.6142 52.6214 38.3012 52.5833 37.8268C52.5456 37.3561 52.7179 37.0163 53.0913 36.9863C53.4577 36.957 53.6878 37.2503 53.7267 37.7352C53.7656 38.2202 53.5822 38.5555 53.2194 38.5846ZM36.5376 43.764L36.0261 43.805L35.9739 43.1536L35.2199 43.2141L35.2721 43.8654L34.9004 43.8952L34.9458 44.4615L35.3175 44.4318L35.431 45.8477C35.4701 46.3807 35.8541 46.6153 36.3991 46.5485C36.5933 46.5258 36.7282 46.4758 36.8023 46.4449L36.6388 45.8934C36.6022 45.9034 36.5239 45.9275 36.4531 45.9332C36.3027 45.9452 36.1937 45.897 36.177 45.6881L36.0715 44.3713L36.583 44.3303L36.5376 43.764ZM38.1758 46.4221C39.0006 46.356 39.4686 45.7503 39.4015 44.9132C39.334 44.0707 38.7756 43.549 37.9509 43.6151C37.1261 43.6812 36.6579 44.2851 36.7255 45.1276C36.7925 45.9648 37.3511 46.4882 38.1758 46.4221ZM38.1326 45.8378C37.752 45.8683 37.5294 45.5352 37.4914 45.0609C37.4534 44.5866 37.62 44.2205 38.0005 44.19C38.374 44.1601 38.5967 44.4949 38.6347 44.9693C38.6728 45.4436 38.506 45.8079 38.1326 45.8378ZM41.8483 46.1278C42.5209 46.0739 42.9478 45.7102 43.0135 45.1973L42.3125 45.2071C42.253 45.4203 42.067 45.5439 41.8156 45.564C41.4386 45.5942 41.1797 45.3638 41.1472 44.9585L41.1471 44.9567L42.9984 44.8084L42.9818 44.6013C42.9078 43.6774 42.3119 43.2656 41.5933 43.3232C40.7933 43.3873 40.3203 43.997 40.3875 44.8359C40.4566 45.6979 41.0112 46.1949 41.8483 46.1278ZM41.1096 44.4895C41.1007 44.1785 41.3163 43.9118 41.6508 43.885C41.9782 43.8588 42.2235 44.0742 42.2512 44.398L41.1096 44.4895ZM44.0891 45.9465C44.4909 45.9143 44.737 45.7182 44.8495 45.4545L44.8707 45.4528L44.9009 45.8298L45.6159 45.7725L45.469 43.9388C45.4171 43.2911 44.8466 43.0625 44.2413 43.111C43.5899 43.1632 43.1866 43.509 43.1219 44.0129L43.8238 44.0137C43.8606 43.829 44.011 43.6834 44.2818 43.6617C44.5385 43.6411 44.6957 43.7586 44.7136 43.9816L44.7145 43.9922C44.7285 44.1674 44.5445 44.2053 44.0756 44.2892C43.5416 44.3819 43.0728 44.6011 43.1215 45.2082C43.1646 45.7462 43.5705 45.988 44.0891 45.9465ZM44.2633 45.4088C44.0315 45.4274 43.8564 45.3328 43.8398 45.1257C43.8228 44.9133 43.9897 44.7948 44.2522 44.7364C44.4149 44.7002 44.6808 44.6397 44.7663 44.5723L44.7894 44.8608C44.8122 45.1457 44.5943 45.3823 44.2633 45.4088ZM47.1549 42.9131L46.6434 42.9541L46.5912 42.3028L45.8372 42.3632L45.8894 43.0145L45.5178 43.0443L45.5631 43.6107L45.9348 43.5809L46.0483 44.9968C46.0874 45.5298 46.4714 45.7645 47.0165 45.6976C47.2106 45.6749 47.3455 45.6249 47.4196 45.5941L47.2561 45.0425C47.2195 45.0526 47.1413 45.0766 47.0705 45.0823C46.92 45.0944 46.8111 45.0461 46.7943 44.8373L46.6888 43.5205L47.2003 43.4795L47.1549 42.9131Z" fill="#84593C"/>
<g clip-path="url(#clip3)">
<path d="M30.8702 65C31.7218 65.0455 32.5733 64.9545 32.9045 64.1818C33.8033 61.9091 29.2144 61.7727 28.3156 63.2727C28.9779 62.1818 32.2895 60.3636 30.681 58.9091C29.8768 58.1818 27.1329 58.7273 26.0921 58.9091C25.1932 59.0455 24.0578 59.3182 23.3482 60C23.5847 59.5455 23.3482 59 22.8751 58.8182C22.1655 58.5909 21.2193 59.4545 20.6989 59.8636C21.1247 57.8182 19.1378 57.4545 18.4754 59.4545C18.2389 58.8636 18.6174 57 17.7658 56.8636C16.7724 56.6818 15.8262 58.6364 15.8262 59.4091C15.1166 58.2727 14.4069 55 12.6565 55C10.6696 55 10.7169 58.3182 11.0954 59.4091C10.8588 58.9545 9.81803 57.4091 8.87186 58C7.87839 58.5909 8.72994 60.5909 9.1084 61.3182C8.72994 60.7727 8.44609 60 7.87839 59.6364C7.59454 59.4091 6.2699 58.9091 5.84413 59.4091C5.27643 60.0455 6.69568 61.8182 7.49992 63.1818C6.93222 62.1818 4.47219 62.5909 4.09372 63.5455C3.57333 65 5.1345 65 6.12798 64.8636C9.15571 64.4091 12.2308 64.4091 15.2585 64.0909C18.6647 63.7727 21.0301 64.2273 24.3417 64.7727C26.1394 65.0455 27.9371 64.8182 29.7348 64.9091C30.066 64.9091 30.4918 64.9545 30.8702 65Z" fill="#5CADA1"/>
</g>
<defs>
<clipPath id="clip0">
<rect width="61.3" height="22" fill="white" transform="translate(42 35)"/>
</clipPath>
<clipPath id="clip1">
<rect width="34.4086" height="31.35" fill="white" transform="translate(16.8296 20.2286) rotate(-6.37055)"/>
</clipPath>
<clipPath id="clip2">
<rect width="24" height="29" fill="white" transform="translate(67 36)"/>
</clipPath>
<clipPath id="clip3">
<rect width="29" height="10" fill="white" transform="translate(4 55)"/>
</clipPath>
</defs>
</svg>
