<svg width="92" height="84" viewBox="0 0 92 84" fill="none" xmlns="http://www.w3.org/2000/svg">
<g clip-path="url(#clip0)">
<path d="M3.70415 63.7981C5.98532 63.5304 8.32927 63.8393 10.4639 64.6836C7.22007 68.1021 4.7087 72.2001 3.11816 76.6277C11.0708 73.3328 20.2374 72.9415 28.4621 75.5362C26.5367 76.813 24.7788 78.3369 23.251 80.0462C25.7205 79.4902 28.3156 79.4902 30.7851 80.0668C29.8852 81.0758 29.1109 82.1879 28.483 83.3617C34.0709 81.6319 39.9098 80.7258 45.7697 80.7258C46.8789 80.7258 48.2601 80.9523 48.5531 81.9819C48.9089 80.7258 50.5831 80.458 51.9225 80.4786C57.7196 80.6228 63.4749 81.8172 68.8115 84.0001C69.0627 81.673 68.8743 79.3048 68.2465 77.0396C71.0718 77.8427 73.7506 79.1607 76.0945 80.8905C77.413 77.9663 78.1873 74.8155 78.3757 71.6029C81.3684 72.7768 84.2983 74.0741 87.1446 75.5362C87.0399 71.2528 86.7888 66.5782 83.9007 63.345C80.5731 59.6176 74.9225 59.144 69.8789 59.1852C58.0126 59.2676 46.1254 60.6473 34.2801 59.9471C28.4412 59.6176 22.665 58.7733 16.8261 58.485C14.3984 58.3614 11.8452 57.9908 9.66866 59.1028C7.3875 60.3178 5.33654 61.8417 3.70415 63.7981Z" fill="#A86B42"/>
<path d="M4.75068 58.8554C8.28753 59.1025 11.7825 59.8027 15.152 60.9147C8.64331 62.0474 2.8253 66.4338 0 72.3028C7.19927 70.0582 14.9427 69.4404 22.414 70.5318C18.8144 71.891 15.7379 74.5269 13.9172 77.863C21.9954 75.989 30.4504 75.6801 38.6542 76.9569C36.9591 77.7189 35.5359 79.0368 34.6779 80.6431C44.8071 77.1011 56.0246 76.6274 66.4049 79.3046C65.4213 78.1307 64.2284 77.1217 62.889 76.3597C68.5605 75.5978 74.3995 76.195 79.778 78.1101C77.6852 75.2477 75.1319 72.7147 72.2439 70.6348C78.8153 69.1521 85.9099 69.914 91.9791 72.7765C89.2584 67.1545 83.0846 64.0449 77.2038 61.7385C80.9081 60.5647 84.9054 60.3793 88.6934 61.1825C85.7634 58.3818 81.808 56.8167 77.8944 55.6635C70.6533 53.5424 63.0773 52.5333 55.5432 52.698C48.4067 52.8628 41.3749 54.0572 34.3221 55.0251C30.7853 55.5193 27.2066 55.9724 23.6278 56.1577C20.949 56.3019 18.2912 55.9106 15.6124 56.0753C11.8662 56.3224 8.16197 57.2491 4.75068 58.8554Z" fill="#C17A49"/>
<path d="M21.3468 66.2692C22.6234 67.8549 24.5488 68.761 26.4323 69.5229C38.2148 74.3006 51.8809 75.2479 63.6843 70.5526C65.8818 69.6877 68.0792 68.555 69.5233 66.7016C70.9673 64.8482 71.4487 62.0887 70.0883 60.1736C69.2512 58.9997 67.87 58.2996 66.4887 57.8465C64.4587 57.1875 62.3031 57.0022 60.1475 56.858C52.3622 56.3844 44.5351 56.8374 36.8754 58.176C32.7317 58.8968 28.6297 59.8853 24.465 60.4207C23.2721 60.5854 21.284 60.3589 20.4678 61.4092C19.4842 62.7477 20.4887 65.1983 21.3468 66.2692Z" fill="#A86B42"/>
<path d="M36.8756 74.0737C37.0849 75.021 37.7755 75.8241 38.6126 76.3596C40.0148 77.2657 41.7937 77.5334 43.447 77.2451C45.1003 76.9774 46.649 76.1948 48.0093 75.2064C48.093 75.1446 48.1977 75.0828 48.3023 75.0416C48.4698 75.0004 48.6581 75.0622 48.8465 75.124C51.3369 76.0095 54.0785 76.0301 56.7154 75.6388C58.9129 75.3299 61.2778 74.5885 62.4707 72.7557C62.9102 72.0762 63.1822 71.2318 62.9939 70.4493C62.8892 69.9551 62.6172 69.502 62.3032 69.1107C61.0057 67.525 58.9129 66.8043 56.8829 66.4542C53.5553 65.8776 50.1231 66.0629 46.7536 66.3512C45.1631 66.4954 43.5516 66.6601 42.003 67.072C41.2496 67.2779 40.4543 67.5662 39.952 68.1634C39.5125 68.7195 39.366 69.4402 39.1149 70.0992C38.78 70.9435 38.1941 71.1701 37.5662 71.7055C36.9174 72.3027 36.6872 73.2706 36.8756 74.0737Z" fill="#A86B42"/>
<path d="M55.4385 10.1318C55.1455 9.28743 54.8525 8.40192 54.9153 7.49582C54.9781 6.58971 55.4385 5.66302 56.2756 5.29234C56.9035 5.02462 57.636 5.107 58.3057 5.20996C57.6988 3.95377 57.8871 2.3475 58.8079 1.27665C59.7078 0.205795 61.2775 -0.26785 62.6378 0.102829C63.9981 0.473508 65.0864 1.66792 65.3166 3.04767C65.2538 2.3475 65.7561 1.68851 66.4258 1.44139C67.0955 1.21487 67.8698 1.37961 68.4349 1.79148C69.0209 2.22394 69.3976 2.90352 69.6906 3.58309C70.1928 4.7775 70.5277 6.03369 70.6742 7.31048C71.009 9.88464 70.5695 12.7883 68.5814 14.5181C67.0118 15.8773 64.7097 16.248 62.6587 15.7743C61.7588 15.5684 60.9008 15.2183 60.0846 14.7858C59.3102 14.374 58.5987 13.5091 57.8034 13.2002C57.6988 13.159 57.5313 13.056 57.4476 13.0148C57.4058 12.9942 57.3011 13.2413 57.2383 13.2002C56.9453 13.0766 56.6942 12.7059 56.5058 12.4176C56.0245 11.7586 55.7106 10.9349 55.4385 10.1318Z" fill="#E03E36"/>
<path d="M54.4129 14.9095C52.3828 18.2044 49.9552 21.5199 46.4393 23.2292C44.179 24.3412 40.684 26.3182 35.745 26.5241C30.3246 26.7506 26.2645 24.0323 23.6904 22.6114C21.765 21.5611 15.1726 28.9541 13.8751 30.7046C12.2846 32.8257 11.8242 32.249 11.8032 34.885C11.8032 38.9419 12.7659 42.937 13.9379 46.8085C16.1563 54.1603 19.4629 61.6769 25.8041 66.1456C29.7386 68.9051 34.5521 70.2643 39.3446 70.8615C45.4347 71.644 51.6504 71.2939 57.6149 69.8318C60.775 69.0698 63.9142 67.9578 66.4465 65.9603C68.8742 64.0451 70.5903 61.3885 72.0762 58.7114C74.1481 54.984 75.8642 51.0507 76.8478 46.9115C78.7523 38.9007 77.8314 30.4986 76.3874 22.3849C75.8851 19.6048 75.3201 16.7835 74.0853 14.2299C72.5575 11.1409 68.8533 7.10465 65.0862 6.79575C59.7077 6.38388 56.8196 10.9968 54.4129 14.9095Z" fill="#FFAF00"/>
<path d="M6.23671 34.0817C5.60887 32.4342 5.02288 30.6632 5.44144 28.9539C5.86001 27.2447 7.70168 25.762 9.37593 26.3386C9.02015 25.2266 8.64345 24.0733 8.78994 22.9201C8.91551 21.7669 9.64799 20.5931 10.799 20.3048C12.4314 19.9135 13.8545 21.3344 14.88 22.6524C14.3568 21.7051 14.1894 20.5313 14.587 19.5016C14.9637 18.4926 15.9474 17.6688 17.0565 17.6071C18.9819 17.5041 20.2795 19.3987 21.577 20.799C22.5606 21.8699 23.7535 22.776 25.072 23.435C26.0975 23.9498 27.2276 24.3205 28.0857 25.0618C29.5716 26.3386 30.011 28.4185 30.1785 30.3543C30.4505 33.3403 30.2622 36.3881 29.6553 39.333C28.9646 42.6073 27.688 45.8816 25.3231 48.291C22.6444 51.0299 21.9119 62.7475 19.1703 59.0407C15.7381 54.3455 8.3086 39.4771 6.23671 34.0817Z" fill="#FFAF00"/>
<path d="M76.3665 22.426C75.948 20.099 75.4666 17.7513 74.6086 15.5479C74.6923 15.9803 74.776 16.3922 74.8388 16.8246C76.3038 24.9384 77.2246 33.3404 75.2992 41.3512C74.3156 45.4905 72.5995 49.4238 70.5276 53.1512C69.0417 55.8489 67.3256 58.4848 64.8979 60.4C62.3656 62.3976 59.2264 63.5096 56.0663 64.2716C50.1018 65.7131 43.8861 66.0632 37.796 65.3012C33.0035 64.6834 28.19 63.3449 24.2555 60.5854C18.1027 56.2608 14.8169 49.0531 12.5776 41.9278C12.9334 43.5959 13.3938 45.2228 13.8961 46.8496C16.1145 54.2014 19.4211 61.718 25.7624 66.1867C29.6968 68.9462 34.5103 70.3054 39.3028 70.9026C45.3929 71.6851 51.6086 71.335 57.5731 69.8729C60.7332 69.111 63.8725 67.9989 66.4048 66.0014C68.8324 64.0862 70.5485 61.4297 72.0344 58.7526C74.1063 55.0252 75.8224 51.0919 76.806 46.9526C78.7523 38.9418 77.8315 30.5398 76.3665 22.426Z" fill="#EA9C00"/>
<path d="M56.192 31.6103C52.2366 30.766 48.344 32.9901 45.0164 35.2553C41.6889 37.5206 38.1101 40.033 34.071 39.827C33.2757 39.7858 32.4805 39.6417 31.7061 39.7858C30.9318 39.93 30.1575 40.5066 30.0947 41.2686C30.011 42.1541 30.8272 42.8337 31.5806 43.3279C30.011 43.7604 28.2111 44.4399 27.8135 45.9844C27.5205 47.1171 28.1902 48.3527 29.1738 49.0116C30.1575 49.6912 31.3922 49.8972 32.5851 49.9795C31.5596 50.4738 30.3667 51.4417 30.8272 52.4713C30.9527 52.7596 31.2039 52.9862 31.4759 53.1715C32.627 53.9952 34.0919 54.3659 35.4941 54.2012C34.5942 54.0776 34.0919 55.375 34.5733 56.1369C35.0546 56.8989 36.0383 57.1666 36.9172 57.3107C38.3822 57.5579 39.889 57.6402 41.3749 57.5991C49.516 57.3725 57.4268 52.9862 61.8426 46.2521C62.9937 44.4811 63.9354 42.5248 64.0401 40.4242C64.2075 36.0585 60.3358 32.4958 56.192 31.6103Z" fill="#EA9C00"/>
<path d="M54.9362 28.748C50.9807 27.9037 47.0881 30.1278 43.7606 32.393C40.433 34.6583 36.8543 37.1707 32.8151 36.9647C32.0199 36.9235 31.2246 36.7794 30.4503 36.9235C29.6759 37.0677 28.9016 37.6443 28.8388 38.4063C28.7551 39.2918 29.5713 39.9713 30.3247 40.4656C28.776 40.898 26.9553 41.5776 26.5576 43.1221C26.2646 44.2547 26.9343 45.4903 27.918 46.1493C28.9016 46.8289 30.1363 47.0348 31.3293 47.1172C30.3038 47.6115 29.1109 48.5793 29.5713 49.609C29.6969 49.8973 29.948 50.1238 30.2201 50.3092C31.3711 51.1329 32.8361 51.5036 34.2383 51.3388C33.3384 51.2153 32.8361 52.5127 33.3174 53.2746C33.7988 54.0366 34.7824 54.3043 35.6614 54.4484C37.1263 54.6955 38.6332 54.7779 40.1191 54.7367C48.2601 54.5102 56.1709 50.1238 60.5868 43.3898C61.7378 41.6188 62.6796 39.6624 62.7842 37.5619C62.9516 33.1962 59.0799 29.6335 54.9362 28.748Z" fill="#FFE8AE"/>
<path d="M76.4714 22.4261C75.9691 19.646 75.3831 16.8247 74.1484 14.2711C72.6415 11.1615 68.9163 7.10466 65.1074 6.81635C59.6661 6.3839 56.778 10.9968 54.3504 14.9301C53.2202 16.7423 51.9855 18.5339 50.5205 20.0784C51.4413 22.4055 53.3877 23.5793 56.1292 22.076C56.5687 23.3939 57.6989 24.4648 59.0592 24.8561C60.4195 25.2473 61.9682 24.959 63.0774 24.0941C64.7098 26.5035 68.728 26.8742 70.7999 24.7943C71.8044 25.4533 72.8717 26.0711 74.0646 26.3388C75.0692 26.5653 76.1784 26.5447 77.1202 26.0917C76.9109 24.8767 76.7016 23.6411 76.4714 22.4261Z" fill="#FFE8AE"/>
<path d="M49.0763 51.4622C48.7624 50.9268 48.9088 50.1237 49.4739 49.8765C48.8251 49.9177 48.1554 49.9589 47.5276 49.7942C46.8997 49.6294 46.2928 49.2175 46.1045 48.5997C45.7906 47.6319 46.523 46.6846 47.2137 45.9432C46.0417 46.0668 44.5977 46.0668 43.9489 45.0783C43.2582 44.028 43.9907 42.6483 44.8906 41.7834C43.9279 41.8246 42.8188 41.804 42.2118 41.0832C41.7514 40.5272 41.7514 39.7241 42.0235 39.0857C42.2956 38.4267 42.8188 37.9118 43.342 37.4382C42.4002 37.8295 41.2701 37.0881 40.9143 36.1408C40.6841 35.523 40.7259 34.9258 40.8515 34.3286C40.0144 34.8434 39.1773 35.3171 38.2983 35.729C38.0681 37.0263 38.9889 38.2001 40.5167 37.9324C39.9935 38.3443 39.4493 38.7562 39.0726 39.2916C38.6959 39.827 38.4657 40.5272 38.6541 41.1656C38.8633 41.9069 39.5749 42.4218 40.3283 42.6277C41.0817 42.8336 41.877 42.7719 42.6513 42.7101C41.8142 43.4514 41.1654 44.4193 40.7887 45.4902C40.705 45.7579 40.6213 46.0668 40.7259 46.3345C40.8097 46.5816 41.0399 46.7464 41.2701 46.8905C42.2537 47.4877 43.4885 47.6525 44.5977 47.323C43.7396 47.776 43.2164 48.8057 43.4885 49.7324C43.7605 50.6385 44.9116 51.2357 45.7906 50.8444C45.0371 51.4622 45.3092 52.7802 46.1045 53.3568C46.2928 53.4804 46.4812 53.5833 46.6905 53.6657C47.8624 53.295 49.0135 52.8626 50.1227 52.3271C49.725 52.1418 49.3065 51.8741 49.0763 51.4622Z" fill="#B77165"/>
<path d="M71.3441 10.2967C71.3441 10.2967 79.1921 9.61709 79.5688 10.2967C79.9455 10.9762 74.6298 15.5274 74.6298 15.5274C74.6298 15.5274 72.0556 15.1567 71.3441 14.1682C70.6534 13.2003 71.3441 10.2967 71.3441 10.2967Z" fill="#B77165"/>
<path d="M67.8072 11.8206C67.7863 11.4705 67.6608 11.141 67.5143 10.8115C67.7654 11.1822 68.0165 11.5529 68.2677 11.9236C68.4351 12.1707 68.6025 12.4384 68.7072 12.7267C68.7909 13.015 68.7909 13.3445 68.6444 13.5916C68.456 13.8799 68.1002 14.0241 67.7654 14.0241C67.4305 14.0241 67.0957 13.9005 66.7818 13.7358C66.3632 13.5092 65.8609 13.2209 65.5889 12.8503C66.3841 12.562 67.891 13.4475 67.8072 11.8206Z" fill="#231F20"/>
<path opacity="0.32" d="M60.2311 1.52391C60.1265 1.64747 60.0009 1.79162 60.0218 1.93578C60.0428 2.10052 60.1683 2.22408 60.3358 2.26527C60.4823 2.32705 60.6497 2.32705 60.8171 2.34764C61.5705 2.45061 62.2402 2.98603 62.4704 3.7068C62.5123 3.87155 62.5541 4.03629 62.6588 4.15985C62.8053 4.34519 63.0564 4.40697 63.2657 4.34519C63.4959 4.304 63.6843 4.15985 63.8098 3.97451C64.1447 3.54205 64.1865 2.96544 63.9982 2.45061C63.8098 1.95637 63.4122 1.5445 62.9727 1.2562C62.1146 0.761959 60.9217 0.741366 60.2311 1.52391Z" fill="white"/>
<path opacity="0.32" d="M67.6188 3.52153C67.9746 3.87162 67.9118 4.42763 67.9955 4.92187C68.0373 5.10721 68.1211 5.31315 68.3094 5.33374C68.3722 5.33374 68.4559 5.31315 68.5187 5.27196C68.8326 5.10721 68.9582 4.71594 68.9582 4.34526C68.9582 3.52153 68.2676 2.65661 67.4095 2.49187C66.0701 2.20356 67.263 3.17144 67.6188 3.52153Z" fill="white"/>
<path d="M66.4888 30.7047C66.4888 31.7549 66.5306 33.0111 67.4305 33.7525C67.8072 34.0614 68.2886 34.2261 68.7909 34.1438C69.3141 34.082 69.6908 33.7319 69.921 33.2994C70.193 32.764 70.4651 32.105 70.3605 31.4872C70.3186 31.2401 69.921 31.3431 69.9628 31.5902C70.0256 31.8991 69.921 32.208 69.8163 32.4963C69.7117 32.764 69.628 33.0111 69.4815 33.2583C69.1885 33.7319 68.6444 33.8761 68.1421 33.6907C67.6398 33.526 67.284 33.0317 67.1166 32.5581C66.9073 31.9609 66.9073 31.3225 66.9073 30.7047C66.8864 30.437 66.4888 30.437 66.4888 30.7047Z" fill="#EA9C00"/>
<path d="M70.3395 34.926C70.2977 35.5438 70.4442 36.1822 70.7581 36.7176C71.0511 37.2119 71.5534 37.7679 72.1393 37.8914C72.7881 38.015 73.395 37.5619 73.8136 37.1295C74.2531 36.6764 74.5461 36.1204 74.6716 35.5232C74.7344 35.2761 74.3368 35.1731 74.274 35.4202C74.1694 35.9145 73.9392 36.3881 73.5834 36.7588C73.2485 37.1295 72.7044 37.6237 72.1603 37.5002C71.658 37.3766 71.2604 36.8824 71.0301 36.4499C70.779 35.9763 70.6744 35.4614 70.6953 34.9466C70.779 34.6789 70.3605 34.6789 70.3395 34.926Z" fill="#EA9C00"/>
<path d="M66.7188 39.5182C66.7188 40.0124 66.7815 40.5272 66.928 41.0009C67.0536 41.4128 67.221 41.8246 67.514 42.1335C67.7861 42.4218 68.1419 42.6072 68.5604 42.566C68.9999 42.5042 69.3348 42.2365 69.6068 41.907C69.9417 41.4745 70.151 40.9803 70.2347 40.4449C70.2556 40.3419 70.2138 40.2389 70.0882 40.1977C69.9836 40.1772 69.858 40.2389 69.8371 40.3419C69.7533 40.8361 69.565 41.3304 69.2511 41.7217C68.979 42.0306 68.5604 42.3189 68.1419 42.1129C67.7442 41.9276 67.535 41.4745 67.4094 41.1039C67.221 40.589 67.1373 40.0536 67.1373 39.5182C67.1164 39.2505 66.7188 39.2505 66.7188 39.5182Z" fill="#EA9C00"/>
<path d="M70.6326 43.7604C70.507 44.5841 70.5907 45.4696 70.9884 46.211C71.1349 46.5199 71.4278 46.8288 71.8046 46.7876C72.1813 46.7464 72.4952 46.3758 72.7045 46.108C72.9765 45.758 73.1649 45.3461 73.2695 44.9136C73.3323 44.6665 72.9347 44.5635 72.8719 44.8107C72.7673 45.2019 72.5998 45.5726 72.3487 45.9021C72.1813 46.1286 71.8255 46.5817 71.5325 46.2934C71.2604 46.0257 71.1558 45.5726 71.0721 45.2019C70.9884 44.7695 70.9674 44.2958 71.0302 43.8634C71.0511 43.7604 71.0093 43.6574 70.8837 43.6163C70.8 43.5957 70.6535 43.6574 70.6326 43.7604Z" fill="#EA9C00"/>
<path d="M66.3211 44.4196C65.9026 45.2021 65.7561 46.2318 66.1119 47.0761C66.2584 47.4262 66.4886 47.7763 66.8653 47.941C67.3048 48.1264 67.7443 47.941 68.1 47.6939C68.5605 47.385 68.9372 46.9937 69.272 46.5613C69.3348 46.4789 69.293 46.3347 69.2092 46.2936C69.1046 46.2318 69 46.273 68.9372 46.3553C68.6232 46.7466 68.2465 47.1173 67.828 47.385C67.6396 47.5086 67.4094 47.6321 67.1583 47.6115C66.9699 47.5909 66.8025 47.4468 66.6979 47.3026C66.4258 46.9525 66.3421 46.4995 66.3421 46.067C66.3421 45.5728 66.4467 45.0785 66.6769 44.6255C66.7816 44.399 66.4467 44.193 66.3211 44.4196Z" fill="#EA9C00"/>
<path d="M72.2856 30.0661C71.9717 30.478 72.2437 31.0752 72.6623 31.3017C73.0809 31.5489 73.625 31.4871 73.9598 31.137C74.1482 30.9517 74.2738 30.6839 74.2738 30.4162C74.2738 30.3133 74.1691 30.2103 74.0645 30.2103C73.9598 30.2103 73.8761 30.2927 73.8552 30.4162C73.8552 30.6016 73.7506 30.7869 73.5831 30.9105C73.5204 30.9722 73.4366 31.0134 73.3529 31.034C73.332 31.034 73.3111 31.0546 73.2901 31.0546C73.2692 31.0546 73.2692 31.0546 73.2692 31.0546C73.2483 31.0546 73.2483 31.0546 73.2274 31.0546C73.2064 31.0546 73.1855 31.0546 73.1646 31.0546C73.1646 31.0546 73.0809 31.0546 73.1018 31.0546C72.9134 31.034 72.746 30.9311 72.6414 30.7869C72.5158 30.6222 72.4949 30.4162 72.6204 30.2721C72.6832 30.1897 72.6414 30.0455 72.5577 30.0044C72.453 29.9426 72.3484 29.9838 72.2856 30.0661Z" fill="#EA9C00"/>
<path d="M61.8426 53.0894C60.9427 53.8102 60.273 54.9016 60.1475 56.0549C60.0847 56.6109 60.294 57.1257 60.859 57.311C61.4659 57.4964 62.0938 57.1669 62.5961 56.858C63.2448 56.4873 63.8099 56.0137 64.3331 55.4782C64.5005 55.2929 64.2284 55.0046 64.0401 55.1899C63.5378 55.7048 62.9937 56.1578 62.3658 56.5285C62.0728 56.7138 61.738 56.8992 61.4031 56.9404C61.1102 56.9816 60.7544 56.9198 60.6079 56.6315C60.4614 56.3638 60.5451 56.0137 60.6079 55.746C60.6707 55.4371 60.7753 55.1488 60.9218 54.8604C61.2148 54.2838 61.6124 53.769 62.1147 53.3571C62.324 53.213 62.0519 52.9247 61.8426 53.0894Z" fill="#EA9C00"/>
<path d="M65.3586 51.6478C65.0656 51.9567 64.7726 52.2862 64.6261 52.6981C64.5215 53.0275 64.5424 53.4188 64.7308 53.7277C65.233 54.5309 66.2794 54.0572 66.8864 53.6659C67.3049 53.3982 67.7026 53.0893 68.0583 52.7392C68.2467 52.5539 67.9537 52.2656 67.7653 52.4509C67.4514 52.7804 67.0956 53.0687 66.698 53.2953C66.3422 53.5218 65.9237 53.7689 65.4842 53.7483C65.0865 53.7277 64.9191 53.357 64.961 53.007C65.0028 52.5745 65.3586 52.2244 65.6307 51.9155C65.819 51.7302 65.547 51.4419 65.3586 51.6478Z" fill="#EA9C00"/>
<path d="M44.4931 26.0917C44.2211 26.5036 43.9699 26.9566 44.0746 27.4509C44.1792 27.9039 44.5978 28.1716 45.0582 28.1304C45.5605 28.0893 46.0627 27.9039 46.5022 27.698C46.9836 27.4921 47.444 27.2038 47.8626 26.8949C48.0718 26.7301 47.7788 26.4624 47.5696 26.6065C46.8999 27.1008 46.1465 27.4715 45.3303 27.6774C44.9745 27.7598 44.5768 27.7804 44.4513 27.3685C44.3466 26.9772 44.6187 26.6065 44.8071 26.2771C44.9954 26.0711 44.6396 25.8858 44.4931 26.0917Z" fill="#EA9C00"/>
<path d="M49.2859 24.7531C48.9929 24.8354 48.7208 24.9796 48.5534 25.2267C48.386 25.4532 48.365 25.7827 48.5115 26.0298C48.6371 26.2564 48.9092 26.4211 49.1812 26.4829C49.4952 26.5447 49.7882 26.4829 50.0602 26.3387C50.3742 26.174 50.6462 25.8857 50.8764 25.618C51.0439 25.4326 50.7718 25.1443 50.5834 25.3297C50.2277 25.7209 49.7254 26.2976 49.1394 26.0298C48.951 25.9475 48.7836 25.7621 48.8255 25.5562C48.8883 25.3091 49.1812 25.1649 49.4115 25.1031C49.6417 25.062 49.537 24.6707 49.2859 24.7531Z" fill="#EA9C00"/>
<path d="M51.1482 58.7732C50.4576 58.9379 49.9763 59.5146 49.6414 60.0912C49.2856 60.6884 49.1601 61.4915 49.8507 61.924C50.5204 62.3358 51.4412 62.0475 52.1109 61.8004C52.8434 61.5327 53.5341 61.1414 54.141 60.6472C54.3502 60.4824 54.0572 60.2147 53.848 60.3589C53.3457 60.7502 52.8016 61.0796 52.1946 61.3268C51.9017 61.4503 51.6087 61.5327 51.2947 61.6151C50.9599 61.6974 50.6041 61.7798 50.2693 61.6769C49.9972 61.5945 49.7461 61.4091 49.7042 61.1208C49.6624 60.8119 49.8298 60.4824 49.9763 60.2147C50.2693 59.7411 50.646 59.288 51.211 59.1439C51.525 59.1027 51.4203 58.7114 51.1482 58.7732Z" fill="#EA9C00"/>
<path d="M55.4175 59.2675C55.1873 59.8441 54.9571 60.4619 55.2082 61.0592C55.4385 61.5946 55.9407 61.8211 56.5058 61.7593C57.1336 61.677 57.7406 61.3681 58.3056 61.1003C58.9335 60.7914 59.4985 60.4208 60.0636 60.0089C60.2729 59.8647 60.0636 59.5147 59.8543 59.6588C58.9753 60.3178 57.9708 60.915 56.9034 61.2651C56.4221 61.4298 55.8361 61.471 55.585 60.9356C55.3547 60.4208 55.6059 59.8441 55.8152 59.3705C55.9198 59.144 55.5222 59.041 55.4175 59.2675Z" fill="#EA9C00"/>
<path opacity="0.6" d="M50.2695 30.7043C48.9511 31.2397 47.8419 32.1458 46.8373 33.1549C46.5025 33.5049 46.1467 33.855 45.9793 34.3081C45.7909 34.7611 45.8118 35.2966 46.1258 35.6672C46.5653 36.1821 47.4233 36.1615 48.0302 35.8114C48.6371 35.4819 49.0766 34.9259 49.6208 34.4934C50.8346 33.5049 52.5298 33.1137 54.0575 33.4844C54.7063 33.6491 55.3551 33.9374 56.0248 33.8756C58.578 33.6491 56.0876 31.0543 55.0621 30.5601C53.6808 29.9011 51.6089 30.1482 50.2695 30.7043Z" fill="white"/>
<path d="M61.8843 68.8225C61.9262 65.507 56.5267 63.1594 53.9316 62.4798C51.3366 61.7796 47.3393 62.8299 46.3347 66.6602C45.3302 70.4906 46.8789 73.7649 50.1018 74.1974C54.4548 74.7534 61.8425 72.797 61.8843 68.8225Z" fill="#FFE8AE"/>
<path d="M50.1018 74.1766C53.4712 74.6296 58.6823 73.5382 60.8588 71.17C58.3056 72.4673 54.7269 73.0028 52.1946 72.6733C48.9717 72.2408 47.423 68.9871 48.4275 65.1361C48.6787 64.1888 49.0972 63.4269 49.6414 62.8091C48.1555 63.4475 46.8579 64.6831 46.3347 66.6394C45.3302 70.4904 46.8789 73.7647 50.1018 74.1766Z" fill="#EDD7A4"/>
<path opacity="0.6" d="M59.917 67.1338C59.5612 66.6396 59.038 66.3101 58.4939 66.0424C58.0335 65.8158 57.5521 65.6099 57.0498 65.4452C56.5476 65.2804 56.0244 65.1569 55.5221 65.2598C55.0198 65.3628 54.5385 65.7541 54.4966 66.2689C54.4757 66.3925 54.4966 66.5366 54.5594 66.6396C54.6431 66.7837 54.7896 66.8661 54.9361 66.9485C55.7523 67.3604 56.715 67.5457 57.3428 68.1841C57.7614 68.596 58.0544 69.2138 58.6404 69.3373C60.0007 69.6462 60.5867 68.0811 59.917 67.1338Z" fill="white"/>
<path d="M40.2657 60.5236C37.1475 61.7386 36.98 67.5459 37.3149 70.1818C37.6497 72.7972 40.1402 76.0509 44.1374 75.4949C48.1347 74.9595 50.6042 72.3029 49.788 69.214C48.6788 65.0541 44.0119 59.0615 40.2657 60.5236Z" fill="#FFE8AE"/>
<path d="M49.7881 69.2141C48.93 65.981 45.9373 61.6564 42.8818 60.5649C45.0583 62.3977 46.9209 65.4455 47.5697 67.8961C48.3859 70.9851 45.9164 73.6417 41.9191 74.1771C40.9355 74.3006 40.0565 74.2183 39.2612 73.9712C40.4332 75.0832 42.0865 75.804 44.1166 75.5156C48.1138 74.9596 50.6043 72.3031 49.7881 69.2141Z" fill="#EDD7A4"/>
<path opacity="0.6" d="M39.4286 62.9742C39.0937 63.4685 38.9891 64.0863 38.9263 64.6835C38.8844 65.1983 38.8844 65.7132 38.9053 66.228C38.9472 66.7428 39.0309 67.2577 39.3239 67.6901C39.6169 68.1226 40.161 68.3903 40.6633 68.2461C40.7889 68.2049 40.9144 68.1432 40.9982 68.0402C41.1028 67.9166 41.1237 67.7519 41.1447 67.5871C41.2284 66.7016 41.0191 65.7543 41.3749 64.9306C41.6051 64.3952 42.0655 63.8803 41.9818 63.3037C41.7725 61.924 40.0773 61.9858 39.4286 62.9742Z" fill="white"/>
</g>
<defs>
<clipPath id="clip0">
<rect width="92" height="84" fill="white"/>
</clipPath>
</defs>
</svg>
