<svg width="101" height="85" viewBox="0 0 101 85" fill="none" xmlns="http://www.w3.org/2000/svg">
<path d="M11.7886 52.1174C14.0698 51.8497 16.4137 52.1586 18.5484 53.0029C15.3045 56.4214 12.7932 60.5195 11.2026 64.947C19.1553 61.6521 28.3218 61.2608 36.5466 63.8556C34.6212 65.1324 32.8632 66.6563 31.3355 68.3655C33.805 67.8095 36.4001 67.8095 38.8696 68.3861C37.9697 69.3952 37.1954 70.5072 36.5675 71.681C42.1553 69.9512 47.9943 69.0451 53.8541 69.0451C54.9633 69.0451 56.3446 69.2716 56.6376 70.3013C56.9934 69.0451 58.6676 68.7774 60.007 68.798C65.8041 68.9421 71.5593 70.1365 76.896 72.3194C77.1471 69.9924 76.9588 67.6242 76.3309 65.3589C79.1562 66.162 81.835 67.48 84.179 69.2098C85.4975 66.2856 86.2718 63.1348 86.4602 59.9223C89.4529 61.0961 92.3828 62.3935 95.229 63.8556C95.1244 59.5722 94.8733 54.8975 91.9852 51.6644C88.6576 47.937 83.007 47.4633 77.9633 47.5045C66.0971 47.5869 54.2099 48.9666 42.3646 48.2665C36.5257 47.937 30.7495 47.0927 24.9106 46.8043C22.4829 46.6808 19.9297 46.3101 17.7531 47.4221C15.472 48.6371 13.421 50.161 11.7886 52.1174Z" fill="#A86B42"/>
<path d="M12.8352 47.1748C16.372 47.4219 19.867 48.122 23.2364 49.2341C16.7278 50.3667 10.9098 54.7531 8.08447 60.6222C15.2837 58.3775 23.0271 57.7597 30.4985 58.8512C26.8988 60.2103 23.8224 62.8463 22.0017 66.1824C30.0799 64.3084 38.5349 63.9995 46.7387 65.2763C45.0435 66.0382 43.6204 67.3562 42.7624 68.9625C52.8916 65.4204 64.109 64.9468 74.4894 67.6239C73.5058 66.4501 72.3129 65.441 70.9735 64.6791C76.645 63.9171 82.4839 64.5143 87.8625 66.4295C85.7696 63.567 83.2164 61.034 80.3283 58.9541C86.8998 57.4714 93.9944 58.2334 100.064 61.0958C97.3429 55.4739 91.1691 52.3643 85.2883 50.0578C88.9926 48.884 92.9898 48.6987 96.7778 49.5018C93.8479 46.7011 89.8925 45.136 85.9789 43.9828C78.7378 41.8617 71.1618 40.8526 63.6277 41.0174C56.4912 41.1821 49.4594 42.3765 42.4066 43.3444C38.8697 43.8386 35.291 44.2917 31.7123 44.477C29.0335 44.6212 26.3756 44.2299 23.6968 44.3947C19.9507 44.6418 16.2464 45.5685 12.8352 47.1748Z" fill="#C17A49"/>
<path d="M29.4312 54.5885C30.7078 56.1742 32.6332 57.0803 34.5168 57.8423C46.2993 62.6199 59.9653 63.5672 71.7688 58.8719C73.9663 58.007 76.1637 56.8744 77.6078 55.021C79.0518 53.1676 79.5331 50.4081 78.1728 48.4929C77.3357 47.3191 75.9544 46.6189 74.5732 46.1659C72.5432 45.5069 70.3876 45.3215 68.232 45.1774C60.4467 44.7037 52.6196 45.1568 44.9599 46.4953C40.8161 47.2161 36.7142 48.2046 32.5495 48.74C31.3566 48.9048 29.3684 48.6782 28.5522 49.7285C27.5686 51.0671 28.5732 53.5177 29.4312 54.5885Z" fill="#A86B42"/>
<path d="M36.6813 44.7228C33.8195 41.4325 33.885 36.5992 34.2844 32.2775C34.6838 27.9558 35.1852 23.2681 32.882 19.5654C32.4279 18.8368 31.8766 18.1618 31.6083 17.3561C31.34 16.5504 31.4796 15.5189 32.1656 15.0618C32.9572 14.5205 34.0244 14.9356 34.884 15.3882C34.4833 13.7015 34.1737 11.6291 35.423 10.4476C36.3385 9.57983 37.8537 9.56641 38.9889 10.1502C40.1436 10.7232 40.9826 11.7805 41.6831 12.8627C41.6139 11.6373 41.9041 10.0067 43.1158 9.90336C43.4533 9.87128 43.7981 9.9899 44.115 10.1498C45.493 10.8055 46.6076 11.9939 47.1844 13.4026C46.5979 12.6182 47.5595 11.467 48.5296 11.5232C49.4997 11.5794 50.2658 12.3675 50.8608 13.1214C51.8588 14.3743 52.7233 15.7527 53.4603 17.1759C57.4973 24.9737 57.4902 34.7264 53.4435 42.4081C52.3739 44.4186 51.0202 46.3285 49.0934 47.5239C45.0625 49.9614 39.6802 48.1694 36.6813 44.7228Z" fill="#E9D299"/>
<path d="M70.5274 10.4944C70.6779 10.2764 70.9004 10.0438 70.895 9.78261C70.9381 9.36172 70.5073 8.99983 70.172 8.76834C68.831 7.84238 67.5201 6.87283 66.1791 5.94688C65.8439 5.71539 65.4549 5.38243 65.57 4.94689C65.7217 4.27911 66.6631 4.34976 67.2261 4.60981C68.3942 5.15885 69.4837 5.91119 70.411 6.80896C69.6826 5.53352 68.9543 4.25808 68.1958 3.02622C68.0465 2.79436 67.8854 2.48997 67.8682 2.15626C67.893 1.8515 68.0618 1.51742 68.3917 1.48773C68.6078 1.44376 68.7872 1.63204 68.9548 1.74778C70.3011 2.93491 71.2626 4.5001 71.8759 6.21108C71.6504 5.28287 71.5388 4.36894 71.5713 3.4257C71.5843 3.04841 71.6155 2.55499 71.9638 2.40918C72.4141 2.20513 72.8686 2.71208 73.0232 3.20512C73.8212 5.36555 73.1243 8.16746 74.5951 9.89123C75.3365 10.7894 76.6302 11.4252 76.6031 12.6296C75.0479 13.3583 73.6945 10.2993 72.1092 11.0716C71.8329 11.2027 71.5803 11.4789 71.3997 11.7405C68.5479 15.2432 66.2107 19.1658 64.4667 23.3047C63.9237 24.5392 63.3023 25.977 62.0179 26.3133C60.5595 26.7225 59.1778 25.3178 59.5714 23.8515C59.8748 22.5159 61.6655 21.1774 62.5136 20.218C65.2268 17.0057 67.9399 13.7934 70.5274 10.4944Z" fill="#E03E36"/>
<path d="M17.7494 54.9605C17.119 55.6893 16.4501 56.4402 15.5702 56.8701C14.6903 57.2999 13.5768 57.3696 12.7794 56.7878C12.1909 56.3459 11.873 55.6175 11.6081 54.9367C10.7623 56.1806 9.16094 56.8706 7.66464 56.5881C6.17961 56.3251 4.8912 55.1149 4.50397 53.6449C4.11675 52.1748 4.64533 50.5148 5.80955 49.556C5.18962 49.9921 4.30353 49.8784 3.71176 49.3863C3.13922 48.8831 2.8756 48.0712 2.95556 47.3216C3.04346 46.5413 3.47493 45.8232 3.95152 45.1833C4.79601 44.0704 5.78844 43.0805 6.90164 42.2554C9.12471 40.5551 12.0729 39.4001 14.7599 40.324C16.8751 41.0569 18.4623 43.0066 19.1257 45.1769C19.4185 46.1282 19.5542 47.1182 19.5904 48.1134C19.6233 49.0585 19.1993 50.1891 19.3396 51.0982C19.3575 51.2181 19.3516 51.43 19.3583 51.5303C19.3616 51.5805 19.6488 51.545 19.6442 51.6258C19.6868 51.966 19.476 52.4004 19.3084 52.7317C18.9525 53.5364 18.3526 54.2735 17.7494 54.9605Z" fill="#E03E36"/>
<path d="M34.8317 56.3087C31.3403 53.9472 26.9358 53.4678 22.7648 53.3486C17.8139 53.2106 11.9497 53.0007 9.43479 47.7565C7.69243 44.0726 9.46431 38.4379 11.525 35.3461C13.2437 32.8166 15.5734 30.768 17.8985 28.8003C24.6961 23.0779 32.045 17.6886 40.5516 15.1483C44.9468 13.8353 49.5446 13.3173 54.142 13.2425C57.4427 13.1867 60.8483 13.357 63.9453 14.5913C67.1757 15.8789 69.9063 18.2107 72.3214 20.7506C76.9021 25.5317 80.5797 31.1467 83.1322 37.2551C85.1581 42.052 86.484 47.2792 86.0284 52.4406L74.486 57.1437C74.486 57.1437 55.0788 63.0743 34.8317 56.3087Z" fill="#FFAF00"/>
<path d="M17.8901 28.6936C15.565 30.6614 13.2466 32.7294 11.5279 35.259C9.43671 38.3423 7.65689 44.0077 9.44104 47.7196C11.9706 53.0335 17.8348 53.2434 22.8162 53.3898C25.1175 53.4681 27.4561 53.6552 29.688 54.1904C31.3644 52.0761 31.4112 49.626 28.5295 47.8765C29.5232 46.7556 29.9139 45.1231 29.5459 43.642C29.1779 42.1609 28.0738 40.8702 26.6682 40.3008C28.038 37.4777 26.2179 33.526 23.1589 32.7126C23.2327 31.4194 23.2341 30.0897 22.841 28.8316C22.511 27.7715 21.8938 26.7469 20.9631 26.1118C19.9414 26.9622 18.9005 27.8237 17.8901 28.6936Z" fill="#FFE8AE"/>
<path d="M9.32895 40.0205C9.32895 40.0205 4.46359 33.0589 4.89506 32.3408C5.32653 31.6227 12.4417 34.1327 12.4417 34.1327C12.4417 34.1327 13.4833 36.7361 12.9439 37.9334C12.4125 39.1 9.32895 40.0205 9.32895 40.0205Z" fill="#B77165"/>
<path opacity="0.32" d="M7.12822 55.1261C7.30001 55.1572 7.5023 55.1968 7.62562 55.0995C7.76817 54.9911 7.81584 54.8073 7.76404 54.6288C7.74276 54.4587 7.6525 54.3023 7.58147 54.1349C7.27145 53.3759 7.41037 52.4619 7.95927 51.8584C8.09053 51.7305 8.2218 51.6026 8.28076 51.4383C8.37484 51.2016 8.29714 50.9338 8.12664 50.7717C7.96407 50.579 7.72793 50.4808 7.48718 50.4635C6.90287 50.3839 6.3419 50.6557 5.96273 51.1091C5.60278 51.5514 5.43257 52.1447 5.40029 52.7105C5.40137 53.7782 6.02523 54.9031 7.12822 55.1261Z" fill="white"/>
<path opacity="0.32" d="M5.0108 47.1511C5.14589 46.6302 5.69891 46.389 6.11527 46.0444C6.26576 45.9054 6.41292 45.7163 6.33061 45.5293C6.29676 45.4707 6.2324 45.4036 6.1601 45.3672C5.83704 45.1629 5.404 45.2566 5.05788 45.4564C4.28874 45.9004 3.85345 47.0116 4.16219 47.9016C4.61504 49.3076 4.87571 47.672 5.0108 47.1511Z" fill="white"/>
<path d="M31.0024 33.5516C31.9831 32.9854 33.1335 32.2692 33.3406 31.0292C33.4259 30.511 33.3203 29.9727 32.9726 29.5481C32.6328 29.0929 32.1029 28.9299 31.575 28.9481C30.9283 28.9827 30.1664 29.0839 29.6459 29.5146C29.4377 29.6869 29.7482 30.0027 29.9564 29.8304C30.211 29.6053 30.5558 29.5364 30.8815 29.4787C31.1878 29.4321 31.4637 29.3771 31.7734 29.3806C32.3736 29.3989 32.8016 29.8292 32.8993 30.3981C33.0162 30.9559 32.7465 31.5546 32.3945 31.9662C31.9497 32.4836 31.3536 32.8278 30.7768 33.1608C30.5381 33.3247 30.7524 33.6959 31.0024 33.5516Z" fill="#EA9C00"/>
<path d="M32.8681 27.6807C33.4675 27.3868 33.9847 26.9058 34.3154 26.3241C34.6189 25.784 34.8673 25.0153 34.6668 24.4015C34.4324 23.7291 33.6822 23.4067 33.0527 23.249C32.3928 23.0829 31.7157 23.109 31.0903 23.3137C30.8258 23.3883 30.944 23.8151 31.2086 23.7405C31.7265 23.5718 32.2928 23.5314 32.8307 23.6638C33.3574 23.7766 34.1122 24.0182 34.2902 24.5929C34.4456 25.1285 34.1984 25.7663 33.9187 26.2143C33.6119 26.7042 33.1876 27.0794 32.6956 27.3374C32.4005 27.4036 32.6261 27.7944 32.8681 27.6807Z" fill="#EA9C00"/>
<path d="M39.1074 28.5858C39.5689 28.3193 40.0158 27.9832 40.379 27.591C40.6959 27.2517 40.9902 26.8734 41.1207 26.4333C41.2432 26.0238 41.2245 25.5917 40.9604 25.2231C40.6658 24.846 40.2353 24.6777 39.781 24.6013C39.1967 24.5217 38.6224 24.5928 38.0773 24.8032C37.9699 24.8392 37.8963 24.9338 37.9255 25.0732C37.9627 25.1821 38.0881 25.266 38.1955 25.23C38.7021 25.0418 39.2651 24.9512 39.7997 25.0334C40.2348 25.1209 40.7297 25.3563 40.763 25.8581C40.8043 26.3293 40.4941 26.769 40.2157 27.0861C39.8365 27.5395 39.3817 27.9063 38.8818 28.1949C38.6431 28.3588 38.8574 28.7301 39.1074 28.5858Z" fill="#EA9C00"/>
<path d="M40.9588 22.6444C41.7956 22.3176 42.5773 21.762 43.0552 20.9911C43.2647 20.6878 43.3952 20.2477 43.1536 19.9181C42.9121 19.5886 42.3967 19.4953 42.0339 19.4442C41.5604 19.3789 41.0743 19.425 40.6141 19.5605C40.3495 19.6351 40.4677 20.0619 40.7323 19.9873C41.154 19.874 41.5904 19.8305 42.0334 19.8874C42.3352 19.9216 42.9501 20.0096 42.8388 20.4386C42.7355 20.837 42.3689 21.1789 42.0679 21.4569C41.7092 21.7682 41.2782 22.0431 40.8406 22.2176C40.7332 22.2536 40.6596 22.3481 40.6888 22.4876C40.7147 22.5769 40.8514 22.6804 40.9588 22.6444Z" fill="#EA9C00"/>
<path d="M43.8981 26.3148C44.8544 26.2838 45.8948 25.8655 46.4914 25.0781C46.7393 24.7526 46.9421 24.3489 46.8928 23.9084C46.829 23.3981 46.419 23.0876 45.9964 22.8886C45.4598 22.6253 44.8914 22.4844 44.3071 22.4049C44.1963 22.3907 44.0843 22.5075 44.0909 22.6079C44.0897 22.7389 44.1845 22.8144 44.2953 22.8286C44.8299 22.9108 45.3791 23.0627 45.8547 23.3092C46.0716 23.4185 46.3111 23.5668 46.4272 23.8124C46.5095 23.9994 46.4652 24.2334 46.387 24.4088C46.2068 24.8516 45.8289 25.174 45.4251 25.4071C44.9636 25.6736 44.4457 25.8423 43.8986 25.8716C43.6306 25.896 43.6189 26.3197 43.8981 26.3148Z" fill="#EA9C00"/>
<path d="M27.2806 28.4834C27.8344 28.5544 28.2454 27.9785 28.2312 27.4655C28.2363 26.9415 27.8853 26.4667 27.3779 26.3428C27.1033 26.2668 26.7857 26.2939 26.5357 26.4382C26.4395 26.4937 26.3998 26.6469 26.4562 26.7446C26.5126 26.8424 26.6347 26.8761 26.7613 26.829C26.9344 26.7291 27.1639 26.7269 27.3695 26.8166C27.461 26.8419 27.5446 26.8979 27.609 26.965C27.6202 26.9845 27.6508 26.993 27.662 27.0125C27.6733 27.032 27.6733 27.032 27.6733 27.032C27.6846 27.0516 27.6846 27.0516 27.6959 27.0711C27.7072 27.0907 27.7185 27.1102 27.7297 27.1297C27.7297 27.1297 27.7749 27.2079 27.7636 27.1884C27.8459 27.3753 27.84 27.5872 27.7618 27.7626C27.6757 27.9687 27.4947 28.0992 27.2924 28.0597C27.1816 28.0455 27.0696 28.1623 27.0762 28.2626C27.075 28.3936 27.1698 28.4691 27.2806 28.4834Z" fill="#EA9C00"/>
<path d="M54.4082 25.8226C55.5663 26.2743 56.9465 26.3112 58.091 25.8068C58.644 25.5657 59.0119 25.0927 58.8803 24.4652C58.7262 23.7986 58.0801 23.39 57.5209 23.0875C56.825 22.6815 56.0781 22.4093 55.2961 22.2094C55.0328 22.153 54.9103 22.5624 55.1849 22.6384C55.9364 22.8298 56.6528 23.0937 57.3373 23.4801C57.6683 23.6537 58.0219 23.8665 58.2409 24.1569C58.4373 24.4083 58.5714 24.7738 58.3812 25.066C58.2102 25.3471 57.8382 25.4577 57.5543 25.5434C57.2321 25.6513 56.9065 25.709 56.5583 25.7277C55.8619 25.7649 55.1669 25.6712 54.5115 25.4242C54.2641 25.3065 54.1416 25.716 54.4082 25.8226Z" fill="#EA9C00"/>
<path d="M51.1666 23.3166C51.613 23.4236 52.0786 23.5196 52.5421 23.4343C52.9062 23.3544 53.2602 23.1239 53.4471 22.7815C53.9263 21.8796 52.9199 21.1579 52.2274 20.8021C51.7518 20.5556 51.249 20.3508 50.7303 20.2074C50.4557 20.1314 50.3445 20.5604 50.6191 20.6364C51.0959 20.7519 51.5569 20.9286 51.9828 21.1778C52.3861 21.3879 52.8425 21.6455 53.0602 22.067C53.2553 22.4493 52.9995 22.8055 52.65 22.9551C52.2237 23.1492 51.705 23.0057 51.2699 22.9182C50.9953 22.8422 50.8728 23.2517 51.1666 23.3166Z" fill="#EA9C00"/>
<path d="M38.5521 56.5764C39.0834 56.6084 39.6418 56.5986 40.0468 56.2345C40.4135 55.8925 40.4378 55.3574 40.1511 54.9497C39.8419 54.5029 39.3981 54.1338 38.9689 53.8345C38.5171 53.496 37.9997 53.2216 37.4856 52.9972C37.219 52.8906 37.1269 53.3085 37.3744 53.4262C38.1969 53.7851 38.9491 54.2888 39.5814 54.9399C39.8501 55.2277 40.0837 55.5879 39.7669 55.9271C39.4579 56.2358 38.9651 56.1816 38.5559 56.1833C38.2621 56.1185 38.2809 56.5506 38.5521 56.5764Z" fill="#EA9C00"/>
<path d="M34.7191 52.8231C34.9539 53.0523 35.2352 53.2286 35.5562 53.2517C35.858 53.2859 36.1769 53.1279 36.3287 52.8579C36.4725 52.6185 36.4797 52.2756 36.3907 51.9883C36.2791 51.6619 36.0635 51.4216 35.7822 51.2453C35.4592 51.041 35.0433 50.9423 34.6692 50.8717C34.4059 50.8153 34.2834 51.2247 34.558 51.3007C35.1151 51.422 35.9243 51.5801 35.9902 52.2716C36.0148 52.4919 35.932 52.7481 35.7172 52.8201C35.4526 52.8947 35.16 52.6988 34.9783 52.5171C34.8157 52.3244 34.5068 52.633 34.7191 52.8231Z" fill="#EA9C00"/>
<path d="M65.4803 32.7442C66.0064 33.3003 66.8043 33.4389 67.5232 33.4407C68.2726 33.4509 69.0903 33.1352 69.1217 32.2572C69.1453 31.4099 68.3797 30.7055 67.7879 30.2134C67.1431 29.6737 66.4054 29.2398 65.6167 28.9396C65.3501 28.833 65.2581 29.2509 65.5055 29.3686C66.1416 29.6266 66.7426 29.9571 67.3005 30.3905C67.5738 30.5975 67.8087 30.8267 68.0548 31.0754C68.3123 31.3436 68.581 31.6314 68.6654 31.9996C68.7351 32.2981 68.6974 32.6325 68.4508 32.827C68.1849 33.0326 67.787 33.0539 67.4581 33.0614C66.8579 33.0432 66.2318 32.9357 65.7925 32.4858C65.5849 32.2148 65.2759 32.5235 65.4803 32.7442Z" fill="#EA9C00"/>
<path d="M63.6402 28.4914C64.3027 28.3955 65.0037 28.2774 65.4259 27.721C65.8018 27.2174 65.7425 26.6263 65.3802 26.1319C64.9648 25.5901 64.3492 25.1899 63.7946 24.8066C63.1677 24.3869 62.517 24.0592 61.8278 23.7536C61.5804 23.6359 61.3663 24.02 61.6137 24.1377C62.7029 24.6032 63.8021 25.2192 64.7044 26.0271C65.1177 26.3877 65.472 26.9127 65.1075 27.4358C64.7509 27.9283 64.0771 28.0047 63.522 28.0646C63.2541 28.089 63.3723 28.5158 63.6402 28.4914Z" fill="#EA9C00"/>
<path d="M18.6152 45.2958L13.1662 43.8357M15.1606 47.2902L16.6207 41.8412" stroke="#231F20"/>
<path d="M37.1617 42.7347C34.241 39.4966 34.2192 34.6629 34.5405 30.3347C34.8618 26.0064 35.2784 21.3105 32.9087 17.65C32.4415 16.9297 31.8782 16.2648 31.5954 15.4641C31.3125 14.6633 31.4335 13.6294 32.1111 13.1601C32.8928 12.6045 33.9673 13.0003 34.835 13.4373C34.4039 11.7581 34.0569 9.69169 35.2847 8.48778C36.1843 7.60361 37.6991 7.56283 38.8446 8.12602C40.0095 8.6781 40.8674 9.72002 41.5874 10.7895C41.496 9.5655 41.7567 7.92988 42.9663 7.8047C43.3032 7.76653 43.6501 7.8789 43.9699 8.03302C45.3595 8.66373 46.4954 9.83179 47.0975 11.2299C46.497 10.4562 47.4376 9.2878 48.4086 9.32649C49.3795 9.36518 50.1597 10.1393 50.7682 10.8823C51.7887 12.117 52.6779 13.4796 53.4405 14.8892C57.6177 22.6129 57.7867 32.3641 53.8795 40.1176C52.8463 42.1471 51.5273 44.0811 49.6224 45.3112C45.6362 47.8211 40.2224 46.1265 37.1617 42.7347Z" fill="#FFE8AE"/>
<path d="M55.2117 25.0179C54.5426 25.0134 53.8716 25.5832 53.9455 26.244C53.6342 25.616 53.3116 24.9685 52.8193 24.4711C52.327 23.9736 51.6153 23.629 50.9369 23.7861C49.8639 24.0148 49.3743 25.2094 49.0544 26.2539C48.5379 25.093 47.7594 23.7447 46.4867 23.6718C45.1338 23.5931 44.2403 25.0208 43.9178 26.3274C43.4373 25.4063 42.8201 24.3817 41.82 24.2036C41.0526 24.0734 40.3027 24.5064 39.8532 25.1045C39.3846 25.7138 39.1859 26.4799 39.0257 27.2238C38.8834 26.1335 37.5819 25.4779 36.5056 25.6564C35.8046 25.7745 35.2696 26.1355 34.7796 26.5747C34.8091 25.5155 34.8 24.4785 34.7107 23.4358C35.798 22.5214 37.3905 22.7484 37.9641 24.3193C38.0666 23.6087 38.1579 22.8786 38.4547 22.2382C38.7516 21.5978 39.2813 21.0054 39.9789 20.8371C40.7839 20.6329 41.6483 21.0197 42.2467 21.6122C42.8451 22.2047 43.2162 22.9806 43.5759 23.7369C43.8169 22.5556 44.3709 21.428 45.1677 20.499C45.3725 20.2765 45.6158 20.0318 45.9222 19.9852C46.1981 19.9302 46.476 20.0563 46.7347 20.1935C47.8226 20.79 48.6421 21.8542 48.9324 23.0675C48.8929 22.022 49.5722 20.9784 50.5842 20.7329C51.5769 20.4984 52.7551 21.2513 52.8636 22.2829C53.0343 21.2464 54.4116 20.7899 55.3787 21.2217C55.5956 21.3309 55.7933 21.4513 55.983 21.6023C56.2687 22.8964 56.4854 24.2043 56.5834 25.5287C56.196 25.2573 55.7204 25.0108 55.2117 25.0179Z" fill="#B77165"/>
<path d="M85.1552 56.3265C86.5376 56.1535 87.9907 55.9055 89.0281 54.9794C90.0654 54.0533 90.4168 52.2183 89.3935 51.264C90.3014 51.0997 91.2458 50.9348 91.9961 50.4048C92.7541 49.8894 93.3015 48.9429 93.0757 48.0328C92.7432 46.7487 91.2238 46.2828 89.9238 46.0562C90.7789 46.0699 91.66 45.7513 92.2309 45.0919C92.7953 44.4547 93.0052 43.4629 92.6368 42.666C91.9945 41.2844 90.1912 41.0818 88.7329 40.6959C87.6208 40.4068 86.5461 39.9105 85.5972 39.235C84.8576 38.7105 84.1798 38.0594 83.3442 37.7357C81.9022 37.1726 80.2879 37.6374 78.8751 38.2387C76.6907 39.1565 74.634 40.4184 72.8043 41.9343C70.7759 43.6307 68.9648 45.736 68.1608 48.2799C67.2434 51.1649 59.3393 56.0225 62.9426 56.5605C67.4918 57.2136 80.622 56.8823 85.1552 56.3265Z" fill="#FFAF00"/>
<path d="M80.5314 12.544C80.7169 12.3257 80.9814 12.0993 81.0038 11.8177C81.0955 11.3694 80.6708 10.9335 80.335 10.6483C78.9916 9.50737 77.6853 8.32278 76.342 7.18185C76.0061 6.89662 75.6234 6.49641 75.7942 6.0401C76.0294 5.33781 77.0348 5.51526 77.6128 5.85577C78.8106 6.57245 79.9021 7.49945 80.8032 8.56547C80.1568 7.11445 79.5104 5.66343 78.8269 4.25607C78.6912 3.99047 78.5506 3.64554 78.5681 3.28458C78.6276 2.95928 78.8452 2.61795 79.2035 2.62154C79.4407 2.5975 79.6135 2.81944 79.7814 2.96205C81.1023 4.38461 81.9684 6.17255 82.4441 8.07988C82.3014 7.0567 82.2798 6.06117 82.4163 5.0496C82.4709 4.64498 82.5578 4.11736 82.9482 3.99796C83.4548 3.82689 83.8893 4.4214 84.0026 4.96864C84.6286 7.37954 83.5767 10.3197 84.9739 12.3332C85.6749 13.3796 86.9987 14.2032 86.8398 15.4964C85.0876 16.113 83.9607 12.6753 82.1715 13.3356C81.8601 13.447 81.5585 13.717 81.336 13.979C77.8896 17.4412 74.9519 21.4106 72.6292 25.6769C71.9119 26.9469 71.0883 28.4272 69.6699 28.6508C68.0564 28.934 66.7208 27.2735 67.3024 25.7379C67.7727 24.3333 69.8439 23.0858 70.86 22.1447C74.1258 18.9801 77.3916 15.8155 80.5314 12.544Z" fill="#E03E36"/>
</svg>
