<svg width="95" height="85" viewBox="0 0 95 85" fill="none" xmlns="http://www.w3.org/2000/svg">
<path d="M57.851 31.534C56.4343 27.7456 52.4652 25.6613 48.7653 24.0753C45.0654 22.4894 41.0222 20.8248 39.0224 17.3094C38.6292 16.6169 38.3228 15.869 37.7846 15.2939C37.2465 14.7187 36.3438 14.3763 35.6678 14.7334C34.8763 15.1393 34.7427 16.1929 34.7315 17.0939C33.5337 16.0212 31.9812 14.8522 30.4653 15.3481C29.353 15.7105 28.6719 16.9399 28.6457 18.1235C28.6021 19.3183 29.0929 20.4699 29.6654 21.5197C28.697 20.9213 27.2393 20.4366 26.6191 21.3787C26.4437 21.6397 26.3879 21.9732 26.378 22.3023C26.3031 23.7157 26.7789 25.15 27.6722 26.2432C27.2921 25.4182 25.9283 25.6929 25.5451 26.5087C25.1618 27.3244 25.4654 28.2975 25.8169 29.116C26.3968 30.4837 27.1382 31.7982 27.9724 33.0285C32.5438 39.7686 40.4977 44.0765 48.5498 44.1752C50.662 44.1925 52.8177 43.9336 54.6445 42.8916C58.4145 40.6836 59.3342 35.5032 57.851 31.534Z" fill="#FFE8AE"/>
<path d="M35.5521 38.8166C35.8345 38.2639 36.5903 37.9552 37.1026 38.2986C36.7188 37.7739 36.3238 37.2316 36.1248 36.6137C35.9259 35.9958 35.9465 35.2627 36.3658 34.7715C37.0128 33.9861 38.2054 34.0938 39.2019 34.277C38.4671 33.3556 37.6901 32.1385 38.1742 31.0597C38.6879 29.9125 40.245 29.7875 41.4582 30.0806C40.9055 29.2913 40.326 28.3453 40.607 27.4459C40.8279 26.7587 41.5049 26.3265 42.1894 26.2123C42.8912 26.0871 43.6067 26.2511 44.2875 26.4372C43.4509 25.854 43.4677 24.5025 44.0748 23.6929C44.4716 23.1664 44.9975 22.8804 45.5685 22.6649C44.6841 22.2363 43.8344 21.7855 43.0143 21.2662C41.7969 21.7703 41.303 23.178 42.3507 24.3217C41.722 24.1023 41.082 23.8653 40.428 23.8359C39.774 23.8064 39.06 23.9891 38.6232 24.4914C38.111 25.0667 38.0599 25.9435 38.2917 26.6894C38.5235 27.4352 39.0035 28.0723 39.4722 28.6918C38.3969 28.385 37.232 28.359 36.1267 28.6177C35.856 28.6911 35.5505 28.7868 35.3812 29.019C35.2179 29.2226 35.2029 29.5053 35.2053 29.7769C35.2312 30.9273 35.7567 32.0567 36.6313 32.8144C35.7877 32.3349 34.6383 32.4479 34.0035 33.1759C33.3862 33.8927 33.5022 35.1843 34.3049 35.7147C33.3788 35.412 32.4143 36.3505 32.3561 37.3311C32.3533 37.5564 32.3679 37.7705 32.4111 37.9913C33.3541 38.7797 34.338 39.5172 35.3861 40.164C35.3284 39.7291 35.3288 39.2323 35.5521 38.8166Z" fill="#B77165"/>
<path opacity="0.6" d="M53.6907 28.6526C52.53 27.8294 51.1694 27.382 49.7783 27.0782C49.3031 26.9844 48.8165 26.8729 48.3446 26.9755C47.8614 27.0605 47.4213 27.3663 47.2778 27.8303C47.0803 28.4778 47.5594 29.19 48.181 29.5131C48.7853 29.8474 49.4904 29.9187 50.1477 30.1446C51.6341 30.6359 52.876 31.8542 53.3856 33.3414C53.5958 33.9769 53.7019 34.6789 54.1143 35.2102C55.6791 37.2404 56.5261 33.745 56.391 32.6147C56.2032 31.0959 54.8801 29.4824 53.6907 28.6526Z" fill="white"/>
<path d="M3.70415 63.8198C5.98532 63.5521 8.32927 63.861 10.4639 64.7053C7.22007 68.1238 4.7087 72.2219 3.11816 76.6494C11.0708 73.3545 20.2374 72.9632 28.4621 75.558C26.5367 76.8348 24.7788 78.3587 23.251 80.0679C25.7205 79.5119 28.3156 79.5119 30.7851 80.0885C29.8852 81.0976 29.1109 82.2096 28.483 83.3834C34.0709 81.6536 39.9098 80.7475 45.7697 80.7475C46.8789 80.7475 48.2601 80.974 48.5531 82.0037C48.9089 80.7475 50.5831 80.4798 51.9225 80.5004C57.7196 80.6445 63.4749 81.8389 68.8115 84.0218C69.0627 81.6948 68.8743 79.3265 68.2465 77.0613C71.0718 77.8644 73.7506 79.1824 76.0945 80.9122C77.413 77.988 78.1873 74.8372 78.3757 71.6247C81.3684 72.7985 84.2983 74.0959 87.1446 75.558C87.0399 71.2746 86.7888 66.5999 83.9007 63.3668C80.5731 59.6394 74.9225 59.1657 69.8789 59.2069C58.0126 59.2893 46.1254 60.669 34.2801 59.9689C28.4412 59.6394 22.665 58.795 16.8261 58.5067C14.3984 58.3832 11.8452 58.0125 9.66866 59.1245C7.3875 60.3395 5.33654 61.8634 3.70415 63.8198Z" fill="#A86B42"/>
<path d="M4.75068 58.8774C8.28753 59.1245 11.7825 59.8247 15.152 60.9367C8.64331 62.0694 2.8253 66.4557 0 72.3248C7.19927 70.0801 14.9427 69.4623 22.414 70.5538C18.8144 71.9129 15.7379 74.5489 13.9172 77.885C21.9954 76.011 30.4504 75.7021 38.6542 76.9789C36.959 77.7408 35.5359 79.0588 34.6779 80.6651C44.8071 77.1231 56.0246 76.6494 66.4049 79.3265C65.4213 78.1527 64.2284 77.1436 62.889 76.3817C68.5605 75.6197 74.3995 76.2169 79.778 78.1321C77.6852 75.2696 75.1319 72.7367 72.2439 70.6568C78.8153 69.174 85.9099 69.936 91.9791 72.7985C89.2584 67.1765 83.0846 64.0669 77.2038 61.7605C80.9081 60.5866 84.9054 60.4013 88.6934 61.2044C85.7634 58.4037 81.808 56.8387 77.8944 55.6854C70.6533 53.5643 63.0773 52.5553 55.5432 52.72C48.4067 52.8847 41.3749 54.0792 34.3221 55.047C30.7853 55.5413 27.2066 55.9943 23.6278 56.1797C20.949 56.3238 18.2912 55.9326 15.6124 56.0973C11.8662 56.3444 8.16197 57.2711 4.75068 58.8774Z" fill="#C17A49"/>
<path d="M21.3468 66.2912C22.6234 67.8768 24.5488 68.7829 26.4323 69.5449C38.2148 74.3226 51.8809 75.2698 63.6843 70.5746C65.8818 69.7096 68.0792 68.577 69.5233 66.7236C70.9673 64.8702 71.4487 62.1107 70.0883 60.1955C69.2512 59.0217 67.87 58.3215 66.4887 57.8685C64.4587 57.2095 62.3031 57.0242 60.1475 56.88C52.3622 56.4064 44.5351 56.8594 36.8754 58.198C32.7317 58.9187 28.6297 59.9072 24.465 60.4427C23.2721 60.6074 21.284 60.3809 20.4678 61.4311C19.4842 62.7697 20.4887 65.2203 21.3468 66.2912Z" fill="#A86B42"/>
<path d="M55.439 10.1537C55.146 9.30941 54.853 8.42389 54.9158 7.51779C54.9786 6.61169 55.439 5.68499 56.2761 5.31431C56.904 5.0466 57.6365 5.12897 58.3062 5.23194C57.6992 3.97575 57.8876 2.36947 58.8084 1.29862C59.7083 0.227768 61.2779 -0.245878 62.6383 0.124801C63.9986 0.495481 65.0869 1.68989 65.3171 3.06964C65.2543 2.36947 65.7566 1.71048 66.4263 1.46336C67.096 1.23684 67.8703 1.40158 68.4354 1.81345C69.0213 2.24591 69.398 2.92549 69.691 3.60507C70.1933 4.79948 70.5282 6.05567 70.6747 7.33245C71.0095 9.90661 70.57 12.8103 68.5819 14.5401C67.0122 15.8993 64.7102 16.2699 62.6592 15.7963C61.7593 15.5904 60.9012 15.2403 60.085 14.8078C59.3107 14.3959 58.5991 13.531 57.8039 13.2221C57.6992 13.1809 57.5318 13.078 57.4481 13.0368C57.4062 13.0162 57.3016 13.2633 57.2388 13.2221C56.9458 13.0986 56.6947 12.7279 56.5063 12.4396C56.025 11.7806 55.7111 10.9569 55.439 10.1537Z" fill="#E03E36"/>
<path d="M54.4134 14.9315C52.3833 18.2264 49.9557 21.5419 46.4397 23.2512C44.1795 24.3632 40.6845 26.3402 35.7455 26.5461C30.3251 26.7726 26.265 24.0543 23.6909 22.6334C21.7655 21.5831 15.1731 28.9761 13.8756 30.7265C12.2851 32.8476 11.8246 32.271 11.8037 34.907C11.8037 38.9638 12.7664 42.9589 13.9384 46.8305C16.1568 54.1823 19.4634 61.6988 25.8046 66.1676C29.7391 68.9271 34.5526 70.2862 39.3451 70.8834C45.4352 71.666 51.6508 71.3159 57.6154 69.8538C60.7755 69.0918 63.9147 67.9798 66.447 65.9822C68.8747 64.0671 70.5908 61.4105 72.0767 58.7334C74.1486 55.006 75.8647 51.0727 76.8483 46.9334C78.7528 38.9227 77.8319 30.5206 76.3879 22.4068C75.8856 19.6267 75.3205 16.8055 74.0858 14.2519C72.558 11.1629 68.8538 7.12662 65.0867 6.81772C59.7082 6.40585 56.8201 11.0188 54.4134 14.9315Z" fill="#FFAF00"/>
<path d="M6.23622 34.1036C5.60838 32.4562 5.02239 30.6852 5.44096 28.9759C5.85952 27.2667 7.70119 25.784 9.37544 26.3606C9.01966 25.2485 8.64296 24.0953 8.78945 22.9421C8.91502 21.7889 9.64751 20.615 10.7986 20.3267C12.4309 19.9355 13.8541 21.3564 14.8795 22.6744C14.3563 21.7271 14.1889 20.5533 14.5865 19.5236C14.9632 18.5145 15.9469 17.6908 17.0561 17.629C18.9814 17.5261 20.279 19.4206 21.5765 20.821C22.5602 21.8918 23.7531 22.7979 25.0715 23.4569C26.097 23.9718 27.2271 24.3424 28.0852 25.0838C29.5711 26.3606 30.0106 28.4405 30.178 30.3763C30.45 33.3623 30.2617 36.4101 29.6548 39.3549C28.9642 42.6293 27.6875 45.9036 25.3227 48.313C22.6439 51.0519 21.9114 62.7695 19.1698 59.0627C15.7376 54.3674 8.30811 39.4991 6.23622 34.1036Z" fill="#FFAF00"/>
<path d="M76.367 22.448C75.9485 20.1209 75.4671 17.7733 74.6091 15.5698C74.6928 16.0023 74.7765 16.4141 74.8393 16.8466C76.3042 24.9604 77.2251 33.3624 75.2997 41.3732C74.3161 45.5125 72.6 49.4458 70.5281 53.1732C69.0422 55.8709 67.3261 58.5068 64.8984 60.422C62.3661 62.4195 59.2269 63.5316 56.0668 64.2935C50.1022 65.7351 43.8866 66.0851 37.7965 65.3232C33.004 64.7054 28.1905 63.3668 24.256 60.6073C18.1031 56.2827 14.8174 49.0751 12.5781 41.9498C12.9339 43.6179 13.3943 45.2447 13.8966 46.8716C16.115 54.2234 19.4216 61.74 25.7628 66.2087C29.6973 68.9682 34.5108 70.3274 39.3033 70.9246C45.3934 71.7071 51.6091 71.357 57.5736 69.8949C60.7337 69.1329 63.8729 68.0209 66.4052 66.0234C68.8329 64.1082 70.549 61.4517 72.0349 58.7745C74.1068 55.0471 75.8229 51.1138 76.8065 46.9746C78.7528 38.9638 77.832 30.5617 76.367 22.448Z" fill="#EA9C00"/>
<path d="M76.4714 22.448C75.9691 19.6679 75.3831 16.8467 74.1484 14.2931C72.6415 11.1835 68.9163 7.12663 65.1074 6.83833C59.6661 6.40587 56.778 11.0188 54.3504 14.9521C53.2202 16.7643 51.9855 18.5559 50.5205 20.1004C51.4413 22.4274 53.3877 23.6013 56.1292 22.0979C56.5687 23.4159 57.6989 24.4868 59.0592 24.878C60.4195 25.2693 61.9682 24.981 63.0774 24.1161C64.7098 26.5255 68.728 26.8962 70.7999 24.8163C71.8044 25.4752 72.8717 26.093 74.0646 26.3608C75.0692 26.5873 76.1784 26.5667 77.1202 26.1136C76.9109 24.8986 76.7016 23.663 76.4714 22.448Z" fill="#FFE8AE"/>
<path d="M71.3441 10.3185C71.3441 10.3185 77.6235 7.84227 78.0002 8.52185C78.377 9.20143 73.0002 14.19 73.0002 14.19C73.0002 14.19 72.0556 15.1785 71.3441 14.19C70.6534 13.2222 71.3441 10.3185 71.3441 10.3185Z" fill="#B77165"/>
<path d="M74 12.0219C74 12.0219 79.8391 14.8228 79.5 15.5219C79.1609 16.221 71.4999 14.5219 71.4999 14.5219C71.4999 14.5219 72.9174 13.7414 73.3165 12.5907C73.7108 11.4689 74 12.0219 74 12.0219Z" fill="#B77165"/>
<path opacity="0.32" d="M60.2311 1.54588C60.1265 1.66944 60.0009 1.8136 60.0218 1.95775C60.0428 2.1225 60.1683 2.24605 60.3358 2.28724C60.4823 2.34902 60.6497 2.34902 60.8171 2.36961C61.5705 2.47258 62.2402 3.00801 62.4704 3.72877C62.5123 3.89352 62.5541 4.05826 62.6588 4.18182C62.8053 4.36716 63.0564 4.42894 63.2657 4.36716C63.4959 4.32598 63.6843 4.18182 63.8098 3.99648C64.1447 3.56402 64.1865 2.98741 63.9982 2.47258C63.8098 1.97834 63.4122 1.56648 62.9727 1.27817C62.1146 0.783932 60.9217 0.763338 60.2311 1.54588Z" fill="white"/>
<path opacity="0.32" d="M67.6188 3.54326C67.9746 3.89334 67.9118 4.44936 67.9955 4.9436C68.0373 5.12894 68.1211 5.33487 68.3094 5.35547C68.3722 5.35547 68.4559 5.33487 68.5187 5.29369C68.8326 5.12894 68.9582 4.73767 68.9582 4.36699C68.9582 3.54326 68.2676 2.67834 67.4095 2.51359C66.0701 2.22529 67.263 3.19317 67.6188 3.54326Z" fill="white"/>
<path d="M66.4883 30.7264C66.4883 31.7767 66.5301 33.0329 67.43 33.7742C67.8067 34.0831 68.2881 34.2479 68.7904 34.1655C69.3136 34.1037 69.6903 33.7536 69.9205 33.3212C70.1925 32.7857 70.4646 32.1268 70.36 31.509C70.3181 31.2618 69.9205 31.3648 69.9623 31.6119C70.0251 31.9208 69.9205 32.2297 69.8158 32.518C69.7112 32.7857 69.6275 33.0329 69.481 33.28C69.188 33.7536 68.6439 33.8978 68.1416 33.7124C67.6393 33.5477 67.2835 33.0535 67.1161 32.5798C66.9068 31.9826 66.9068 31.3442 66.9068 30.7264C66.8859 30.4587 66.4883 30.4587 66.4883 30.7264Z" fill="#EA9C00"/>
<path d="M70.3395 34.948C70.2977 35.5658 70.4442 36.2042 70.7581 36.7396C71.0511 37.2338 71.5534 37.7899 72.1393 37.9134C72.7881 38.037 73.395 37.5839 73.8136 37.1515C74.2531 36.6984 74.5461 36.1424 74.6716 35.5452C74.7344 35.2981 74.3368 35.1951 74.274 35.4422C74.1694 35.9365 73.9392 36.4101 73.5834 36.7808C73.2485 37.1515 72.7044 37.6457 72.1603 37.5221C71.658 37.3986 71.2604 36.9043 71.0301 36.4719C70.779 35.9982 70.6744 35.4834 70.6953 34.9686C70.779 34.7009 70.3605 34.7009 70.3395 34.948Z" fill="#EA9C00"/>
<path d="M66.7188 39.5404C66.7188 40.0346 66.7815 40.5495 66.928 41.0231C67.0536 41.435 67.221 41.8468 67.514 42.1557C67.7861 42.444 68.1419 42.6294 68.5604 42.5882C68.9999 42.5264 69.3348 42.2587 69.6068 41.9292C69.9417 41.4967 70.151 41.0025 70.2347 40.4671C70.2556 40.3641 70.2138 40.2612 70.0882 40.22C69.9836 40.1994 69.858 40.2611 69.8371 40.3641C69.7533 40.8584 69.565 41.3526 69.2511 41.7439C68.979 42.0528 68.5604 42.3411 68.1419 42.1351C67.7442 41.9498 67.535 41.4968 67.4094 41.1261C67.221 40.6112 67.1373 40.0758 67.1373 39.5404C67.1164 39.2727 66.7188 39.2727 66.7188 39.5404Z" fill="#EA9C00"/>
<path d="M70.6321 43.7826C70.5065 44.6064 70.5902 45.4919 70.9879 46.2332C71.1344 46.5421 71.4274 46.851 71.8041 46.8098C72.1808 46.7687 72.4947 46.398 72.704 46.1303C72.976 45.7802 73.1644 45.3683 73.269 44.9358C73.3318 44.6887 72.9342 44.5858 72.8714 44.8329C72.7668 45.2242 72.5993 45.5948 72.3482 45.9243C72.1808 46.1509 71.825 46.6039 71.532 46.3156C71.2599 46.0479 71.1553 45.5948 71.0716 45.2242C70.9879 44.7917 70.9669 44.318 71.0297 43.8856C71.0506 43.7826 71.0088 43.6797 70.8832 43.6385C70.7995 43.6179 70.653 43.6797 70.6321 43.7826Z" fill="#EA9C00"/>
<path d="M66.3211 44.4415C65.9026 45.2241 65.7561 46.2537 66.1119 47.0981C66.2584 47.4482 66.4886 47.7982 66.8653 47.963C67.3048 48.1483 67.7443 47.963 68.1 47.7159C68.5605 47.407 68.9372 47.0157 69.272 46.5832C69.3348 46.5009 69.293 46.3567 69.2092 46.3155C69.1046 46.2537 69 46.2949 68.9372 46.3773C68.6232 46.7686 68.2465 47.1393 67.828 47.407C67.6396 47.5305 67.4094 47.6541 67.1583 47.6335C66.9699 47.6129 66.8025 47.4688 66.6979 47.3246C66.4258 46.9745 66.3421 46.5215 66.3421 46.089C66.3421 45.5948 66.4467 45.1005 66.6769 44.6475C66.7816 44.4209 66.4467 44.215 66.3211 44.4415Z" fill="#EA9C00"/>
<path d="M72.2856 30.0881C71.9717 30.5 72.2437 31.0972 72.6623 31.3237C73.0809 31.5708 73.625 31.5091 73.9598 31.159C74.1482 30.9736 74.2738 30.7059 74.2738 30.4382C74.2738 30.3352 74.1691 30.2323 74.0645 30.2323C73.9598 30.2323 73.8761 30.3146 73.8552 30.4382C73.8552 30.6235 73.7506 30.8089 73.5831 30.9324C73.5204 30.9942 73.4366 31.0354 73.3529 31.056C73.332 31.056 73.3111 31.0766 73.2901 31.0766C73.2692 31.0766 73.2692 31.0766 73.2692 31.0766C73.2483 31.0766 73.2483 31.0766 73.2274 31.0766C73.2064 31.0766 73.1855 31.0766 73.1646 31.0766C73.1646 31.0766 73.0809 31.0766 73.1018 31.0766C72.9134 31.056 72.746 30.953 72.6414 30.8089C72.5158 30.6441 72.4949 30.4382 72.6204 30.294C72.6832 30.2117 72.6414 30.0675 72.5577 30.0263C72.453 29.9645 72.3484 30.0057 72.2856 30.0881Z" fill="#EA9C00"/>
<path d="M61.8426 53.1114C60.9427 53.8322 60.273 54.9236 60.1475 56.0768C60.0847 56.6329 60.294 57.1477 60.859 57.333C61.4659 57.5184 62.0938 57.1889 62.5961 56.88C63.2448 56.5093 63.8099 56.0356 64.3331 55.5002C64.5005 55.3149 64.2284 55.0266 64.0401 55.2119C63.5378 55.7267 62.9937 56.1798 62.3658 56.5505C62.0728 56.7358 61.738 56.9212 61.4031 56.9623C61.1102 57.0035 60.7544 56.9417 60.6079 56.6534C60.4614 56.3857 60.5451 56.0356 60.6079 55.7679C60.6707 55.459 60.7753 55.1707 60.9218 54.8824C61.2148 54.3058 61.6124 53.791 62.1147 53.3791C62.324 53.235 62.0519 52.9466 61.8426 53.1114Z" fill="#EA9C00"/>
<path d="M65.3586 51.6698C65.0656 51.9787 64.7726 52.3082 64.6261 52.72C64.5215 53.0495 64.5424 53.4408 64.7308 53.7497C65.233 54.5528 66.2794 54.0792 66.8864 53.6879C67.3049 53.4202 67.7026 53.1113 68.0583 52.7612C68.2467 52.5759 67.9537 52.2876 67.7653 52.4729C67.4514 52.8024 67.0956 53.0907 66.698 53.3172C66.3422 53.5438 65.9237 53.7909 65.4842 53.7703C65.0865 53.7497 64.9191 53.379 64.961 53.0289C65.0028 52.5965 65.3586 52.2464 65.6307 51.9375C65.819 51.7521 65.547 51.4638 65.3586 51.6698Z" fill="#EA9C00"/>
<path d="M44.4931 26.1137C44.2211 26.5256 43.9699 26.9786 44.0746 27.4728C44.1792 27.9259 44.5978 28.1936 45.0582 28.1524C45.5605 28.1112 46.0627 27.9259 46.5022 27.72C46.9836 27.514 47.444 27.2257 47.8626 26.9168C48.0718 26.7521 47.7788 26.4844 47.5696 26.6285C46.8999 27.1228 46.1465 27.4934 45.3303 27.6994C44.9745 27.7817 44.5768 27.8023 44.4513 27.3905C44.3466 26.9992 44.6187 26.6285 44.8071 26.299C44.9954 26.0931 44.6396 25.9078 44.4931 26.1137Z" fill="#EA9C00"/>
<path d="M49.2854 24.775C48.9924 24.8574 48.7203 25.0016 48.5529 25.2487C48.3855 25.4752 48.3646 25.8047 48.5111 26.0518C48.6366 26.2783 48.9087 26.4431 49.1808 26.5049C49.4947 26.5666 49.7877 26.5049 50.0597 26.3607C50.3737 26.196 50.6457 25.9077 50.876 25.6399C51.0434 25.4546 50.7713 25.1663 50.583 25.3516C50.2272 25.7429 49.7249 26.3195 49.1389 26.0518C48.9505 25.9694 48.7831 25.7841 48.825 25.5782C48.8878 25.331 49.1808 25.1869 49.411 25.1251C49.6412 25.0839 49.5365 24.6927 49.2854 24.775Z" fill="#EA9C00"/>
<path d="M51.1482 58.7952C50.4576 58.9599 49.9763 59.5365 49.6414 60.1131C49.2856 60.7103 49.1601 61.5135 49.8507 61.9459C50.5204 62.3578 51.4412 62.0695 52.1109 61.8224C52.8434 61.5547 53.5341 61.1634 54.141 60.6692C54.3502 60.5044 54.0572 60.2367 53.848 60.3809C53.3457 60.7721 52.8016 61.1016 52.1946 61.3487C51.9017 61.4723 51.6087 61.5547 51.2947 61.637C50.9599 61.7194 50.6041 61.8018 50.2693 61.6988C49.9972 61.6165 49.7461 61.4311 49.7042 61.1428C49.6624 60.8339 49.8298 60.5044 49.9763 60.2367C50.2693 59.7631 50.646 59.31 51.211 59.1659C51.525 59.1247 51.4203 58.7334 51.1482 58.7952Z" fill="#EA9C00"/>
<path d="M55.4175 59.2895C55.1873 59.8661 54.9571 60.4839 55.2082 61.0811C55.4385 61.6166 55.9407 61.8431 56.5058 61.7813C57.1336 61.6989 57.7406 61.39 58.3056 61.1223C58.9335 60.8134 59.4985 60.4427 60.0636 60.0309C60.2729 59.8867 60.0636 59.5366 59.8543 59.6808C58.9753 60.3398 57.9708 60.937 56.9034 61.2871C56.4221 61.4518 55.8361 61.493 55.585 60.9576C55.3547 60.4427 55.6059 59.8661 55.8152 59.3925C55.9198 59.1659 55.5222 59.063 55.4175 59.2895Z" fill="#EA9C00"/>
<path d="M54.875 38.0137C51.929 35.2426 47.4473 35.1286 43.4275 35.3425C39.4078 35.5564 35.0452 35.8517 31.6969 33.5832C31.038 33.136 30.4324 32.6007 29.6954 32.3229C28.9584 32.0451 27.9973 32.1372 27.5489 32.7565C27.0186 33.4705 27.3647 34.4746 27.7532 35.2877C26.1865 34.8445 24.295 34.4935 23.1548 35.6086C22.3175 36.4257 22.2502 37.8295 22.7503 38.9027C23.2396 39.9935 24.1891 40.8093 25.1668 41.4977C24.0336 41.3892 22.5119 41.5992 22.3723 42.7184C22.3304 43.0301 22.4278 43.354 22.5646 43.6534C23.1224 44.9543 24.1835 46.0302 25.4683 46.6156C24.7625 46.0438 23.6608 46.8934 23.6778 47.7944C23.6949 48.6955 24.3976 49.4341 25.0747 50.0127C26.1998 50.9829 27.4461 51.834 28.7384 52.5684C35.8194 56.5918 44.8583 56.9377 52.1238 53.4651C54.0257 52.5464 55.8447 51.3608 57.0223 49.6183C59.427 45.9707 57.9608 40.9177 54.875 38.0137Z" fill="#EA9C00"/>
<path d="M55.2837 34.9149C52.3377 32.1437 47.8559 32.0297 43.8362 32.2436C39.8165 32.4576 35.4539 32.7528 32.1056 30.4843C31.4467 30.0371 30.8411 29.5019 30.1041 29.2241C29.367 28.9462 28.406 29.0383 27.9576 29.6576C27.4273 30.3717 27.7734 31.3757 28.1618 32.1888C26.6131 31.7565 24.7037 31.3946 23.5635 32.5097C22.7262 33.3268 22.6589 34.7306 23.1589 35.8038C23.6483 36.8946 24.5978 37.7104 25.5755 38.3988C24.4423 38.2903 22.9206 38.5003 22.781 39.6196C22.7391 39.9312 22.8365 40.2551 22.9733 40.5545C23.5311 41.8554 24.5922 42.9313 25.8769 43.5167C25.1712 42.9449 24.0695 43.7945 24.0865 44.6956C24.1036 45.5967 24.8063 46.3352 25.4834 46.9138C26.6085 47.884 27.8548 48.7351 29.1471 49.4695C36.2281 53.4929 45.267 53.8388 52.5324 50.3662C54.4344 49.4475 56.2534 48.2619 57.431 46.5194C59.8357 42.8718 58.3694 37.8188 55.2837 34.9149Z" fill="#FFE8AE"/>
<path d="M38.5052 51.3087C38.514 50.6881 39.0554 50.077 39.6667 50.1583C39.0905 49.8575 38.4963 49.5458 38.0446 49.0796C37.5929 48.6135 37.2871 47.9468 37.446 47.3208C37.6788 46.3303 38.7961 45.8994 39.7709 45.623C38.7044 45.1216 37.4692 44.3736 37.4263 43.192C37.3796 41.9359 38.7209 41.1351 39.9387 40.8615C39.0939 40.398 38.1558 39.8058 38.01 38.8749C37.9042 38.1608 38.3202 37.4738 38.8836 37.0687C39.4577 36.6459 40.1719 36.4766 40.8648 36.3425C39.8566 36.1893 39.2739 34.9698 39.4603 33.9752C39.5834 33.3275 39.9286 32.8383 40.3453 32.3925C39.3626 32.3993 38.4012 32.3708 37.436 32.2678C36.567 33.2582 36.7466 34.7393 38.1921 35.3017C37.5312 35.383 36.8524 35.4534 36.2528 35.7163C35.6533 35.9791 35.0937 36.4588 34.9241 37.1024C34.7191 37.8449 35.061 38.6539 35.5988 39.2203C36.1366 39.7868 36.8488 40.1459 37.5432 40.4942C36.4431 40.6946 35.3868 41.1865 34.5098 41.9073C34.2996 42.093 34.0679 42.3138 34.0188 42.597C33.9624 42.8518 34.0739 43.1119 34.1962 43.3545C34.7282 44.3748 35.699 45.1554 36.8185 45.4481C35.8498 45.3912 34.8689 46.0009 34.6216 46.9345C34.385 47.8505 35.0602 48.9576 36.0147 49.0782C35.0502 49.2164 34.6002 50.4847 34.9818 51.3898C35.0789 51.5931 35.1867 51.7788 35.323 51.9576C36.5175 52.2476 37.7261 52.474 38.9522 52.5906C38.7081 52.2261 38.4888 51.7802 38.5052 51.3087Z" fill="#B77165"/>
<path opacity="0.6" d="M50.2781 34.1706C48.873 33.9456 47.4548 34.1461 46.0728 34.4888C45.6051 34.6148 45.1194 34.73 44.7415 35.0308C44.3457 35.3207 44.0863 35.7896 44.1628 36.2693C44.272 36.9373 45.0166 37.3642 45.7171 37.3791C46.4069 37.4116 47.0709 37.1637 47.7603 37.0756C49.3107 36.8589 50.9634 37.4023 52.0781 38.5108C52.5477 38.9878 52.9533 39.5705 53.5582 39.8645C55.8595 40.9934 55.0733 37.4838 54.4522 36.5298C53.6121 35.2507 51.7118 34.3888 50.2781 34.1706Z" fill="white"/>
<path d="M62.5913 18.2383C63.9179 20.045 65.8517 20.9799 67.6584 19.6533C69.465 18.3267 69.479 15.9615 68.1524 14.1548C66.8258 12.3481 64.6609 11.7842 62.8542 13.1108C61.0476 14.4375 61.2646 16.4317 62.5913 18.2383Z" fill="#A71622"/>
<path d="M62.354 17.2893C63.6806 19.096 65.6144 20.031 67.4211 18.7043C69.2277 17.3777 69.2417 15.0125 67.9151 13.2058C66.5884 11.3992 64.4236 10.8352 62.6169 12.1619C60.8103 13.4885 61.0273 15.4827 62.354 17.2893Z" fill="#BD1F2D"/>
<path d="M61.5067 15.3168C62.356 17.3911 64.0055 18.7668 66.0798 17.9176C68.1541 17.0684 68.7409 14.777 67.8917 12.7027C67.0425 10.6284 65.0788 9.55664 63.0045 10.4059C60.9302 11.2551 60.6575 13.2425 61.5067 15.3168Z" fill="white"/>
<circle r="1.5" transform="matrix(-1 0 0 1 64.5 14.522)" fill="#010101"/>
<circle cx="65.5" cy="13.522" r="0.5" fill="white"/>
<path d="M67.9368 11.12L68.0079 11.4875C67.5931 11.3137 66.5002 10.7882 65.4475 10.0771C64.1318 9.1881 62.8871 8.66661 61.8559 9.24748C60.8247 9.82834 60.3032 11.0729 60.4454 11.8078C60.5593 12.3958 60.8327 12.4954 60.9552 12.4717C60.7616 12.1279 60.7233 11.2737 62.1931 10.9891C63.7734 10.6832 63.6814 10.8002 66.2418 12.2106C68.0736 13.2197 68.5188 13.7858 68.5218 13.9988C68.5166 14.02 68.5113 14.0404 68.5059 14.0596C68.5163 14.0442 68.5222 14.0239 68.5218 13.9988C68.6618 13.4265 68.7231 12.144 67.9368 11.12Z" fill="#B77165"/>
<path d="M40.7682 69.9224C39.0546 68.885 39.4836 66.9691 41.72 65.4798C43.1277 64.5465 43.8465 63.4109 43.6709 62.4202C43.4195 60.8182 45.4373 58.9807 48.3092 58.136C50.1218 57.6146 51.6484 56.65 52.429 55.5884C53.6713 53.8644 56.7266 52.5883 59.526 52.5966C61.2677 52.6123 63.2104 52.1019 64.7195 51.232C67.1477 49.8276 70.4412 49.4581 72.3704 50.3487C73.5776 50.9106 75.3757 50.9791 77.2104 50.5421C80.1663 49.8556 82.7926 50.4954 83.3556 51.9929C83.6898 52.942 84.9136 53.5671 86.5586 53.6984C89.2382 53.896 90.5139 55.364 89.5713 57.0993C88.9659 58.1826 89.2373 59.2157 90.297 59.8614C92.0106 60.8989 91.5816 62.8148 89.3452 64.304C87.9376 65.2374 87.2188 66.373 87.3943 67.3637C87.6457 68.9656 85.628 70.8031 82.756 71.6479C80.9434 72.1692 79.4168 73.1339 78.6362 74.1955C77.3939 75.9194 74.3386 77.1956 71.5393 77.1873C69.7975 77.1716 67.8549 77.682 66.3457 78.5519C63.9175 79.9563 60.624 80.3257 58.6948 79.4352C57.4876 78.8733 55.6895 78.8048 53.8548 79.2418C50.8989 79.9283 48.2726 79.2884 47.7096 77.7909C47.3755 76.8419 46.1516 76.2167 44.5066 76.0854C41.827 75.8879 40.5513 74.4199 41.4939 72.6845C42.0993 71.6013 41.8279 70.5681 40.7682 69.9224Z" fill="#BD1F2D"/>
<path d="M50.7144 60.7455L49.5364 61.0794L50.5345 64.5998L50.4853 64.6138L47.0711 61.7784L46.0325 62.0728L47.6194 67.6704L48.8029 67.3349L47.8041 63.8118L47.8451 63.8002L51.2791 66.6329L52.3014 66.3431L50.7144 60.7455ZM55.1774 65.6163C56.451 65.2552 56.9965 64.1586 56.63 62.8658C56.2612 61.5648 55.2221 60.9204 53.9484 61.2815C52.6748 61.6425 52.1286 62.7364 52.4974 64.0374C52.8639 65.3302 53.9037 65.9774 55.1774 65.6163ZM54.9271 64.7128C54.3395 64.8794 53.8862 64.4262 53.6785 63.6937C53.4709 62.9612 53.6181 62.3348 54.2057 62.1682C54.7824 62.0047 55.2365 62.4606 55.4442 63.1931C55.6518 63.9256 55.5038 64.5493 54.9271 64.7128ZM58.1938 58.6251L59.7807 64.2227L60.9287 63.8972L59.8919 60.2402L59.9384 60.227L62.416 63.4461L63.1977 63.2244L63.6211 59.1977L63.6676 59.1846L64.7005 62.8279L65.8484 62.5025L64.2615 56.9049L62.802 57.3187L62.3267 61.5166L62.2611 61.5352L59.6534 58.2113L58.1938 58.6251ZM66.8235 62.2261L70.6063 61.1537L70.3296 60.1779L67.7304 60.9148L67.3515 59.5783L69.7457 58.8995L69.4691 57.9237L67.0748 58.6025L66.6967 57.2687L69.285 56.5349L69.0084 55.5592L65.2366 56.6285L66.8235 62.2261ZM72.501 60.6165L72.5546 59.2223L74.5745 58.6497L75.3518 59.8083L76.62 59.4488L73.1034 54.3982L71.5783 54.8306L71.2328 60.976L72.501 60.6165ZM72.5934 58.2132L72.6816 55.8998L72.7254 55.8874L74.0146 57.8103L72.5934 58.2132ZM77.2937 59.2578L80.8769 58.2419L80.6003 57.2662L78.2005 57.9465L76.8903 53.3247L75.7068 53.6602L77.2937 59.2578ZM81.4431 52.034L80.2268 52.3788L81.4473 56.2672L82.4476 55.9836L81.4431 52.034ZM82.4434 57.8746C82.7932 57.7754 83.0137 57.397 82.9134 57.0327C82.8091 56.6754 82.4228 56.469 82.073 56.5682C81.7122 56.6704 81.4972 57.0473 81.6014 57.4046C81.7018 57.7689 82.0826 57.9769 82.4434 57.8746ZM52.8964 68.4422L51.7184 68.7761L52.7165 72.2965L52.6673 72.3104L49.2531 69.475L48.2145 69.7695L49.8014 75.3671L50.9849 75.0316L49.9861 71.5085L50.0271 71.4969L53.4611 74.3295L54.4834 74.0397L52.8964 68.4422ZM59.8116 69.5055C59.2924 67.6742 57.8594 66.9525 56.3753 67.3732C54.883 67.7963 54.0502 69.1604 54.5693 70.9916C55.0861 72.8147 56.5133 73.547 58.0056 73.1239C59.4897 72.7031 60.3307 71.3367 59.8116 69.5055ZM58.6117 69.8456C58.948 71.0318 58.567 71.8338 57.7088 72.0771C56.8479 72.3211 56.1055 71.8377 55.7692 70.6515C55.4329 69.4653 55.8111 68.6641 56.6721 68.42C57.5303 68.1767 58.2754 68.6594 58.6117 69.8456ZM63.2631 71.5507L67.0458 70.4783L66.7692 69.5026L64.1699 70.2394L63.791 68.9029L66.1853 68.2241L65.9087 67.2484L63.5144 67.9272L63.1363 66.5934L65.7246 65.8596L65.448 64.8838L61.6762 65.9531L63.2631 71.5507ZM70.6135 65.3742L71.8161 65.0333C71.3492 63.9697 70.1526 63.4674 68.8872 63.8261C67.4085 64.2453 66.571 65.6344 67.0855 67.4492C67.5876 69.2203 68.965 70.0169 70.5421 69.5698C71.9551 69.1692 72.7103 67.9895 72.2927 66.5163L72.0927 65.8112L69.7504 66.4752L70.003 67.3662L71.2056 67.0253C71.386 67.7242 71.0379 68.2983 70.2508 68.5214C69.3625 68.7733 68.6139 68.2679 68.2822 67.0981C67.9522 65.9338 68.3476 65.1101 69.2031 64.8675C69.8126 64.6947 70.3144 64.892 70.6135 65.3742ZM76.4687 63.7143L77.6713 63.3733C77.2044 62.3098 76.0078 61.8074 74.7424 62.1662C73.2637 62.5854 72.4262 63.9745 72.9407 65.7893C73.4428 67.5604 74.8202 68.357 76.3973 67.9099C77.8103 67.5093 78.5655 66.3296 78.1478 64.8564L77.9479 64.1512L75.6056 64.8153L75.8582 65.7063L77.0608 65.3654C77.2412 66.0642 76.8931 66.6383 76.106 66.8615C75.2177 67.1133 74.4691 66.608 74.1374 65.4382C73.8073 64.2739 74.2028 63.4501 75.0583 63.2076C75.6678 63.0348 76.1696 63.2321 76.4687 63.7143ZM81.5922 62.0462L82.7265 61.7246C82.4273 60.7317 81.412 60.2753 80.1657 60.6287C78.9385 60.9766 78.2314 61.9094 78.5252 62.9246C78.7564 63.7508 79.4727 64.0585 80.4827 64.0173L81.1355 63.9976C81.7869 63.9724 82.1754 64.0512 82.2851 64.4276C82.3986 64.8384 82.0895 65.2272 81.4882 65.3977C80.8732 65.572 80.3498 65.4133 80.1527 64.8638L79.0075 65.1885C79.3809 66.3908 80.4247 66.771 81.7831 66.3859C83.1497 65.9985 83.7681 65.1175 83.4802 64.0917C83.2133 63.1605 82.3706 62.8649 81.3356 62.9221L80.7986 62.9444C80.2803 62.9703 79.8219 62.9054 79.7162 62.5013C79.6139 62.1405 79.8586 61.7847 80.438 61.6204C81.0038 61.46 81.4237 61.6185 81.5922 62.0462ZM84.512 59.4792L83.2957 59.824L84.5162 63.7124L85.5166 63.4288L84.512 59.4792ZM85.5123 65.3199C85.8621 65.2207 86.0826 64.8422 85.9823 64.4779C85.8781 64.1207 85.4918 63.9142 85.1419 64.0134C84.7811 64.1157 84.5661 64.4926 84.6704 64.8499C84.7707 65.2141 85.1515 65.4221 85.5123 65.3199Z" fill="white"/>
</svg>
