<svg width="23" height="21" viewBox="0 0 23 21" fill="none" xmlns="http://www.w3.org/2000/svg">
<circle cx="9.5" cy="11.5" r="9.5" fill="#FFAF00"/>
<path d="M9.70229 6.18259C12.1246 6.31056 13.6012 10.3202 13.9898 12.2349C14.3735 14.1353 13.4295 16.9777 10.5592 17.5118C7.69374 18.0602 5.37809 16.7777 5.21319 14.4362C4.99801 11.2806 6.79168 6.02711 9.70229 6.18259Z" fill="#FFE8AE"/>
<path opacity="0.6" d="M10.8506 7.6979C11.196 7.96523 11.4126 8.37177 11.5957 8.77361C11.7451 9.12284 11.8658 9.48173 11.9722 9.84545C12.0642 10.214 12.1276 10.5922 12.0282 10.9612C11.9287 11.3302 11.6185 11.6423 11.2405 11.6576C11.1447 11.6579 11.0442 11.6438 10.9627 11.5913C10.862 11.5293 10.809 11.4193 10.756 11.3092C10.491 10.7113 10.4123 10.0026 9.97526 9.51045C9.69191 9.19029 9.25559 8.93756 9.17776 8.5163C8.99766 7.50623 10.1741 7.15843 10.8506 7.6979Z" fill="white"/>
<circle cx="17.5" cy="5.5" r="5.5" fill="white"/>
<path d="M15.2102 7.11364H16.2273V5.6108H17.7301V4.59375H16.2273V3.09091H15.2102V4.59375H13.7074V5.6108H15.2102V7.11364ZM20.4803 2.18182H19.3241L17.8837 3.09375V4.18466L19.2161 3.34943H19.2502V8H20.4803V2.18182Z" fill="#A57A1E"/>
</svg>
