<svg width="18" height="18" viewBox="0 0 18 18" fill="none" xmlns="http://www.w3.org/2000/svg">
<circle cx="9" cy="9" r="9" fill="#FFAF00"/>
<path d="M9.22618 3.04633C11.9382 3.18962 13.5914 7.6789 14.0265 9.82265C14.4562 11.9503 13.3992 15.1327 10.1856 15.7307C6.97738 16.3447 4.38473 14.9089 4.2001 12.2872C3.95918 8.75421 5.96741 2.87225 9.22618 3.04633Z" fill="#FFE8AE"/>
<path d="M4.2 12.2869C4.00964 9.54201 5.17095 5.39416 7.22928 3.75352C6.04014 5.74587 5.41091 8.60547 5.55642 10.6856C5.74105 13.3072 8.33369 14.7431 11.5419 14.129C12.3292 13.9715 12.9821 13.6803 13.5276 13.2822C12.9201 14.4526 11.8405 15.442 10.2069 15.741C6.99333 16.339 4.38462 14.9085 4.2 12.2869Z" fill="#EDD7A4"/>
<path opacity="0.6" d="M10.512 4.7425C10.8987 5.04181 11.1412 5.49698 11.3462 5.94688C11.5135 6.33789 11.6487 6.73971 11.7678 7.14693C11.8708 7.55955 11.9417 7.98298 11.8304 8.39615C11.7191 8.80931 11.3718 9.15873 10.9485 9.17588C10.8413 9.17615 10.7287 9.16035 10.6375 9.1016C10.5247 9.03218 10.4654 8.909 10.4061 8.78582C10.1094 8.1163 10.0213 7.32293 9.53196 6.77186C9.21472 6.4134 8.72621 6.13045 8.63907 5.6588C8.43743 4.5279 9.75458 4.1385 10.512 4.7425Z" fill="white"/>
<circle cx="9.49494" cy="9.98908" r="3.21564" fill="url(#paint0_linear)"/>
<path fill-rule="evenodd" clip-rule="evenodd" d="M10.1653 11.5272H8.82592C8.56744 11.5272 8.36771 11.4712 8.2326 11.3594C8.09749 11.2531 8.03287 11.091 8.03287 10.8784V10.1291H8.96103V10.6436C8.96103 10.8169 9.06089 10.9008 9.25475 10.9008H9.76582C9.9303 10.8952 10.0243 10.8281 10.0478 10.7051V10.1291H10.9642V10.8673C10.9642 10.9735 10.9407 11.0686 10.9055 11.1469C10.8643 11.2308 10.8115 11.2979 10.741 11.3538C10.6705 11.4097 10.5882 11.4545 10.4884 11.4824C10.3944 11.516 10.2828 11.5272 10.1653 11.5272ZM10.9642 9.732V10.1291H11.5928V9.732H10.9642ZM10.0478 9.732H10.9642V8.73096H10.0478V9.732ZM8.027 9.732V10.1291H7.39844V9.732H8.027ZM8.027 9.732V8.73096H8.95515V9.732H8.027Z" fill="white"/>
<defs>
<linearGradient id="paint0_linear" x1="6.28241" y1="9.99373" x2="12.7163" y2="9.99373" gradientUnits="userSpaceOnUse">
<stop stop-color="#F95252"/>
<stop offset="0.9848" stop-color="#B90973"/>
</linearGradient>
</defs>
</svg>
