<svg width="19" height="19" viewBox="0 0 19 19" fill="none" xmlns="http://www.w3.org/2000/svg">
<circle cx="9.5" cy="9.5" r="9.5" fill="#FFAF00"/>
<path d="M9.70229 4.18259C12.1246 4.31056 13.6012 8.32022 13.9898 10.2349C14.3735 12.1353 13.4295 14.9777 10.5592 15.5118C7.69374 16.0602 5.37809 14.7777 5.21319 12.4362C4.99801 9.28065 6.79168 4.02711 9.70229 4.18259Z" fill="#FFE8AE"/>
<path opacity="0.6" d="M10.8506 5.6979C11.196 5.96523 11.4126 6.37177 11.5957 6.77361C11.7451 7.12284 11.8658 7.48173 11.9722 7.84545C12.0642 8.21399 12.1276 8.59218 12.0282 8.9612C11.9287 9.33023 11.6185 9.64231 11.2405 9.65763C11.1447 9.65787 11.0442 9.64376 10.9627 9.59128C10.862 9.52928 10.809 9.41926 10.756 9.30924C10.491 8.71125 10.4123 8.00264 9.97526 7.51045C9.69191 7.19029 9.25559 6.93756 9.17776 6.5163C8.99766 5.50623 10.1741 5.15843 10.8506 5.6979Z" fill="white"/>
</svg>
