<svg width="26" height="17" viewBox="0 0 26 17" fill="none" xmlns="http://www.w3.org/2000/svg">
<path d="M24.0079 11.0077C23.3875 10.9337 22.75 11.0191 22.1694 11.2525C23.0516 12.1973 23.7347 13.33 24.1672 14.5538C22.0044 13.6431 19.5114 13.535 17.2745 14.2521C17.7981 14.605 18.2762 15.0263 18.6917 15.4987C18.0201 15.345 17.3143 15.345 16.6427 15.5044C16.8875 15.7833 17.098 16.0907 17.2688 16.4151C15.7491 15.937 14.1611 15.6865 12.5674 15.6865C12.2657 15.6865 11.8901 15.7491 11.8104 16.0337C11.7136 15.6865 11.2583 15.6125 10.894 15.6182C9.31738 15.6581 7.75215 15.9882 6.30074 16.5916C6.23244 15.9484 6.28367 15.2938 6.45442 14.6677C5.68603 14.8897 4.95748 15.2539 4.32 15.7321C3.96142 14.9238 3.75083 14.0529 3.6996 13.165C2.88568 13.4894 2.08883 13.848 1.31474 14.2521C1.3432 13.0682 1.4115 11.7761 2.19697 10.8825C3.10196 9.85222 4.63874 9.7213 6.01046 9.73268C9.2377 9.75545 12.4706 10.1368 15.6922 9.94329C17.2802 9.85222 18.8511 9.61884 20.4391 9.53916C21.0994 9.505 21.7938 9.40255 22.3857 9.70992C23.0061 10.0457 23.5639 10.467 24.0079 11.0077Z" fill="#A86B42"/>
<path d="M23.7233 9.64177C22.7614 9.71008 21.8109 9.9036 20.8945 10.211C22.6647 10.524 24.247 11.7364 25.0154 13.3587C23.0574 12.7382 20.9515 12.5675 18.9195 12.8691C19.8985 13.2448 20.7352 13.9734 21.2303 14.8955C19.0333 14.3775 16.7338 14.2922 14.5027 14.6451C14.9637 14.8557 15.3507 15.2199 15.5841 15.6639C12.8293 14.6849 9.77849 14.554 6.95537 15.2939C7.22288 14.9695 7.54731 14.6906 7.91158 14.48C6.36911 14.2694 4.78111 14.4344 3.31832 14.9638C3.8875 14.1726 4.58189 13.4725 5.36736 12.8976C3.58014 12.4878 1.65063 12.6984 1.33514e-05 13.4896C0.739944 11.9357 2.41902 11.0762 4.01841 10.4387C3.01096 10.1142 1.92384 10.063 0.893623 10.285C1.69047 9.51086 2.76622 9.07826 3.83058 8.75951C5.79993 8.17323 7.86036 7.89432 9.9094 7.93986C11.8503 7.98539 13.7627 8.31553 15.6809 8.58306C16.6428 8.71967 17.6161 8.84489 18.5894 8.89612C19.3179 8.93596 20.0408 8.82781 20.7693 8.87335C21.7881 8.94165 22.7956 9.19779 23.7233 9.64177Z" fill="#C17A49"/>
<path d="M19.2098 11.6907C18.8626 12.129 18.3389 12.3794 17.8267 12.59C14.6222 13.9106 10.9055 14.1724 7.69531 12.8746C7.09768 12.6356 6.50004 12.3225 6.10731 11.8102C5.71457 11.2979 5.58366 10.5352 5.95363 10.0059C6.1813 9.68141 6.55696 9.48788 6.93261 9.36266C7.48472 9.18051 8.07097 9.12928 8.65722 9.08944C10.7746 8.95852 12.9033 9.08375 14.9865 9.45373C16.1135 9.65295 17.229 9.92617 18.3617 10.0742C18.6861 10.1197 19.2269 10.0571 19.4488 10.3474C19.7164 10.7174 19.4431 11.3947 19.2098 11.6907Z" fill="#A86B42"/>
<path d="M14.9864 13.8483C14.9295 14.1101 14.7416 14.3321 14.514 14.4801C14.1326 14.7306 13.6488 14.8046 13.1992 14.7249C12.7495 14.6509 12.3283 14.4346 11.9583 14.1614C11.9356 14.1443 11.9071 14.1272 11.8787 14.1158C11.8331 14.1045 11.7819 14.1215 11.7307 14.1386C11.0534 14.3834 10.3077 14.3891 9.59057 14.2809C8.99293 14.1955 8.34976 13.9906 8.02533 13.484C7.9058 13.2962 7.83181 13.0628 7.88303 12.8465C7.91149 12.7099 7.98549 12.5847 8.07086 12.4765C8.42375 12.0382 8.99293 11.839 9.54503 11.7423C10.45 11.5829 11.3835 11.6341 12.2999 11.7138C12.7324 11.7536 13.1707 11.7992 13.5919 11.913C13.7968 11.9699 14.0131 12.0496 14.1497 12.2147C14.2692 12.3684 14.3091 12.5676 14.3774 12.7498C14.4684 12.9831 14.6278 13.0457 14.7985 13.1937C14.975 13.3588 15.0376 13.6263 14.9864 13.8483Z" fill="#A86B42"/>
<path d="M0.963169 7.54011C0.926739 4.60733 5.62627 2.53071 7.88496 1.92958C10.1436 1.31024 13.6228 2.23926 14.4971 5.62743C15.3714 9.0156 14.0235 11.9119 11.2183 12.2945C7.42958 12.7863 0.999599 11.0558 0.963169 7.54011Z" fill="#FFE8AE"/>
<path d="M11.2184 12.2764C8.2857 12.6772 3.75012 11.7117 1.85573 9.61688C4.07799 10.7645 7.19279 11.2381 9.39683 10.9466C12.202 10.5641 13.5499 7.68598 12.6756 4.27959C12.457 3.44166 12.0927 2.76767 11.6191 2.22119C12.9124 2.78589 14.0417 3.87885 14.4971 5.60936C15.3714 9.01575 14.0235 11.9121 11.2184 12.2764Z" fill="#FFD36D"/>
<path opacity="0.6" d="M2.67534 6.04644C2.985 5.60925 3.44038 5.3178 3.91397 5.08099C4.31471 4.88061 4.73365 4.69845 5.17082 4.55272C5.60798 4.40699 6.06336 4.2977 6.50053 4.38878C6.93769 4.47986 7.35664 4.82596 7.39307 5.28136C7.41129 5.39066 7.39307 5.51817 7.33842 5.60925C7.26556 5.73677 7.13806 5.80963 7.01055 5.88249C6.30016 6.24682 5.46226 6.41076 4.91581 6.97546C4.5515 7.33978 4.29649 7.88626 3.78646 7.99556C2.60248 8.2688 2.09245 6.88438 2.67534 6.04644Z" fill="white"/>
<path d="M19.7793 0.198808C22.4934 1.27355 22.6391 6.41046 22.3477 8.7421C22.0562 11.0555 19.8886 13.9337 16.4095 13.4418C12.9304 12.9682 10.781 10.6184 11.4914 7.88595C12.4568 4.20633 16.5188 -1.09453 19.7793 0.198808Z" fill="#FFE8AE"/>
<path d="M11.4913 7.88606C12.2381 5.02615 14.8429 1.2008 17.5023 0.235352C15.608 1.85657 13.9868 4.55254 13.4221 6.72024C12.7117 9.45264 14.8611 11.8025 18.3402 12.2761C19.1963 12.3854 19.9614 12.3125 20.6536 12.094C19.6335 13.0776 18.1945 13.7152 16.4276 13.4602C12.9485 12.9683 10.7809 10.6185 11.4913 7.88606Z" fill="#FFD36D"/>
<path opacity="0.6" d="M20.508 2.36648C20.7994 2.80366 20.8905 3.35015 20.9452 3.87841C20.9816 4.33381 20.9816 4.78921 20.9634 5.24461C20.9269 5.70001 20.8541 6.15541 20.5991 6.53795C20.3441 6.92049 19.8705 7.15729 19.4333 7.02978C19.324 6.99335 19.2147 6.9387 19.1419 6.84762C19.0508 6.73832 19.0326 6.5926 19.0143 6.44687C18.9415 5.66358 19.1236 4.82564 18.814 4.097C18.6136 3.62338 18.2129 3.16798 18.2857 2.65794C18.4679 1.43746 19.9433 1.49211 20.508 2.36648Z" fill="white"/>
</svg>
