<svg width="43" height="43" viewBox="0 0 43 43" fill="none" xmlns="http://www.w3.org/2000/svg">
<circle cx="21.5" cy="21.5" r="21.5" fill="#4D9071"/>
<path d="M21.9569 9.4659C27.439 9.75554 30.7807 18.83 31.6601 23.1633C32.5287 27.4641 30.3921 33.897 23.8962 35.1056C17.4113 36.3468 12.1706 33.4444 11.7974 28.1452C11.3104 21.0036 15.3698 9.11403 21.9569 9.4659Z" fill="#FFE8AE"/>
<path d="M11.7974 28.1453C11.4126 22.5968 13.76 14.2125 17.9207 10.8961C15.517 14.9234 14.2451 20.7037 14.5392 24.9084C14.9124 30.2077 20.1531 33.1101 26.6381 31.8689C28.2295 31.5505 29.5493 30.9619 30.6518 30.1571C29.4239 32.523 27.2417 34.5229 23.9396 35.1274C17.4437 36.336 12.1706 33.4446 11.7974 28.1453Z" fill="#EDD7A4"/>
<path opacity="0.6" d="M24.5563 12.8951C25.3381 13.5001 25.8283 14.4202 26.2426 15.3296C26.5808 16.12 26.854 16.9322 27.0947 17.7553C27.303 18.5894 27.4464 19.4453 27.2214 20.2805C26.9964 21.1156 26.2944 21.8219 25.4387 21.8566C25.2221 21.8571 24.9945 21.8252 24.81 21.7064C24.5821 21.5661 24.4622 21.3171 24.3423 21.0681C23.7425 19.7148 23.5644 18.1111 22.5754 16.9972C21.9341 16.2726 20.9466 15.7006 20.7705 14.7473C20.3629 12.4613 23.0253 11.6742 24.5563 12.8951Z" fill="white"/>
<circle cx="22.5" cy="23.5" r="6.5" fill="url(#paint0_linear)"/>
<path fill-rule="evenodd" clip-rule="evenodd" d="M23.8535 26.6087H21.1462C20.6237 26.6087 20.22 26.4957 19.9469 26.2696C19.6738 26.0548 19.5432 25.727 19.5432 25.2974V23.7826H21.4193V24.8226C21.4193 25.1731 21.6212 25.3426 22.013 25.3426H23.0461C23.3786 25.3313 23.5686 25.1957 23.6161 24.947V23.7826H25.4685V25.2748C25.4685 25.4896 25.421 25.6818 25.3497 25.84C25.2666 26.0096 25.1597 26.1452 25.0172 26.2583C24.8747 26.3713 24.7085 26.4618 24.5066 26.5183C24.3166 26.5861 24.091 26.6087 23.8535 26.6087ZM25.4685 22.98V23.7826H26.739V22.98H25.4685ZM23.6161 22.98H25.4685V20.9565H23.6161V22.98ZM19.5313 22.98V23.7826H18.2607V22.98H19.5313ZM19.5313 22.98V20.9565H21.4074V22.98H19.5313Z" fill="white"/>
<defs>
<linearGradient id="paint0_linear" x1="16.0063" y1="23.5094" x2="29.0115" y2="23.5094" gradientUnits="userSpaceOnUse">
<stop stop-color="#F95252"/>
<stop offset="0.9848" stop-color="#B90973"/>
</linearGradient>
</defs>
</svg>
