<svg width="184" height="167" viewBox="0 0 184 167" fill="none" xmlns="http://www.w3.org/2000/svg">
<path d="M81.1995 58.1732C81.1995 58.1732 71.5328 49.8662 71.2114 49.6437C66.9343 46.405 66.4398 45.3913 58.751 41.312C52.5702 38.0239 40.8762 38.2464 40.8762 38.2464C40.8762 38.2464 39.5411 36.0955 40.7031 35.9471C64.0911 33.277 79.8892 53.8961 79.7408 53.8466L81.1995 58.1732Z" fill="#AB5027"/>
<path d="M50.0338 3.99205C50.0338 3.99205 51.3441 8.02191 52.4567 10.8156C55.6707 18.8012 63.6562 35.8601 77.6742 48.7408C86.5745 56.9241 105.265 72.2772 126.972 77.8893C136.639 80.3863 140.224 80.4605 146.207 80.5099C159.038 80.6583 171.226 76.8756 176.492 74.972C178.223 74.3539 183.711 72.2277 183.711 72.2277L183.514 81.8697C183.514 81.8697 175.503 83.7487 173.575 84.2184C167.889 85.5782 154.637 88.0505 138.518 86.3199C130.013 85.4051 101.705 78.5815 76.1166 53.9079C61.1097 39.4449 54.5828 27.034 50.108 17.392C48.8965 14.7466 44.4958 3.81899 43.5069 0.876947C42.246 -1.81787 47.9076 2.55812 47.9076 2.55812L50.0338 3.99205Z" fill="#AB5027"/>
<path d="M75.9675 116.134C75.2165 112.185 89.2127 103.103 93.5329 92.2719C99.8625 76.2992 94.4604 68.6433 94.3083 67.7901C93.7812 64.9785 101.214 66.063 102.794 67.9543C105.231 70.9006 108.984 80.7966 106.122 99.1136C104.089 112.133 96.8015 123.592 95.3396 124.651C88.8096 129.448 76.8659 120.777 75.9675 116.134Z" fill="#F3B38A"/>
<path d="M55.449 127.027C45.4531 140.376 38.2126 146.941 20.6541 138.53C17.432 136.972 9.18458 139.533 12.0668 142.498C17.6679 148.274 29.7239 154.273 40.4352 155.58C57.2354 157.628 71.0775 149.79 71.5976 148.027C74.7193 137.485 58.2918 123.228 55.449 127.027Z" fill="#FFF9EB"/>
<path d="M105.685 122.156C119.981 115.702 125.943 104.536 125.574 86.5045C125.508 83.1711 122.957 81.7529 124.665 79.3522C126.25 77.0822 133.008 77.9006 134.667 80.2979C137.485 84.313 139.584 96.3222 139.508 105.663C139.391 122.248 137.995 132.073 126.745 139.486C120.949 143.309 116.439 138.994 112.933 135.348C109.164 131.393 101.108 124.228 105.685 122.156Z" fill="#F3B38A"/>
<path opacity="0.5" d="M104.905 74.9446C104.471 74.2267 104.313 76.4231 100.2 74.8284C97.3726 73.7359 96.5364 72.2993 96.5802 72.7109C96.6296 73.313 96.3868 74.7813 96.3868 74.7813C96.3868 74.7813 98.5438 76.8463 101.368 77.8436C104.096 78.7801 106.255 78.7486 106.255 78.7486C106.255 78.7486 105.238 75.4748 104.905 74.9446Z" fill="#FFF9EB"/>
<path opacity="0.5" d="M137.344 87.1123C136.91 86.3944 137.089 87.0563 132.975 85.4298C130.148 84.3373 128.328 84.0095 128.371 84.4212C128.421 85.0232 130.017 87.4541 130.772 88.2897C131.493 89.0626 132.857 90.0709 134.547 90.3073C137.385 90.6688 137.963 89.7942 137.963 89.7942C137.963 89.7942 137.678 87.6425 137.344 87.1123Z" fill="#FFF9EB"/>
<path d="M93.7436 62.6289C92.2611 64.07 91.9164 66.399 93.1159 67.2215C94.3153 68.044 96.2964 65.1906 96.3087 63.4432C96.306 62.2679 94.947 61.4184 93.7436 62.6289Z" fill="#F3B38A"/>
<path d="M96.8494 63.4594C95.2101 64.9687 94.6255 67.7811 95.6335 68.5774C97.4228 70.018 99.25 66.2479 99.3865 64.4015C99.5089 63.1591 98.2105 62.2125 96.8494 63.4594Z" fill="#F3B38A"/>
<path d="M99.7176 64.868C98.069 66.0599 97.0204 69.2989 98.1498 69.9011C99.7301 70.7124 101.241 68.0634 101.699 66.3664C102.133 64.8925 101.086 63.8749 99.7176 64.868Z" fill="#F3B38A"/>
<path d="M102.079 66.3234C100.618 67.3827 100.002 70.2279 101.163 70.8291C102.777 71.703 104.358 69.2743 104.534 67.7126C104.662 66.6607 103.292 65.4302 102.079 66.3234Z" fill="#F3B38A"/>
<path d="M124.731 76.2058C123.413 77.8327 123.576 80.1468 125.152 80.7994C126.695 81.4213 128.225 78.3587 127.794 76.6561C127.506 75.5209 125.804 74.872 124.731 76.2058Z" fill="#F3B38A"/>
<path d="M127.855 76.5587C126.38 78.2538 126.432 81.1111 127.721 81.7404C130.106 82.9093 131.197 78.9702 130.921 77.1359C130.726 75.9028 129.052 75.1577 127.855 76.5587Z" fill="#F3B38A"/>
<path d="M131.308 77.3152C129.76 78.6947 129.382 82.0411 130.76 82.4772C132.747 83.0543 133.776 80.2605 133.917 78.5411C133.998 76.9822 132.576 76.1662 131.308 77.3152Z" fill="#F3B38A"/>
<path d="M133.696 78.6113C132.303 79.8592 132.324 82.7174 133.767 83.1833C135.787 83.823 136.949 81.2159 136.808 79.6636C136.682 78.619 134.842 77.593 133.696 78.6113Z" fill="#F3B38A"/>
<path d="M129.384 86.4565C126.742 83.0397 123.527 82.8163 122.868 84.1698C121.939 86.0711 124.897 86.2068 125.587 88.0607C125.966 89.0661 130.309 87.6999 129.384 86.4565Z" fill="#F3B38A"/>
<path d="M151.665 80.435C150.978 83.0281 151.575 84.9482 152.028 87.4126C152.334 89.1825 157.506 84.6473 155.125 80.3653C154.388 79.0528 152.237 78.29 151.665 80.435Z" fill="#F3B38A"/>
<path d="M154.865 80.1506C154.024 82.8753 155.206 86.3666 156.769 86.5749C159.607 86.9681 159.197 81.6437 158.182 79.5134C157.535 78.0394 155.561 77.8749 154.865 80.1506Z" fill="#F3B38A"/>
<path d="M158.562 79.4704C157.551 81.8507 158.471 86.1437 160.056 86.0337C162.275 85.8734 162.224 81.9678 161.684 79.7919C161.184 77.9006 159.393 77.5084 158.562 79.4704Z" fill="#F3B38A"/>
<path d="M161.361 80.6908C161.143 83.016 162.924 87.4109 164.543 87.3635C165.304 87.3412 165.532 82.0933 164.873 80.2067C163.731 77.0001 161.555 78.6521 161.361 80.6908Z" fill="#F3B38A"/>
<path d="M17.8714 142.232C18.8712 141.663 19.7273 140.526 20.3304 139.428C21.1446 137.943 20.2383 136.286 20.6231 134.242C20.9547 132.549 21.569 131.832 21.9107 130.488C22.4785 128.184 18.992 128.445 18.2971 132.913C18.1374 133.966 17.6463 134.552 16.8855 134.606C16.4104 134.651 15.771 134.511 15.2932 133.382C14.6446 131.844 14.4589 130.929 14.3088 129.059C14.1559 127.094 13.048 126.142 12.2797 127.022C10.8644 128.588 13.3245 133.408 12.6001 133.62C12.1595 133.76 10.9378 132.175 10.0027 129.535C9.2039 127.207 7.13061 127.999 7.89675 130.295C8.87192 133.221 11.3669 134.895 10.7088 135.2C9.76965 135.672 6.50587 130.526 5.17091 131.582C4.36341 132.209 4.76659 132.96 5.90624 133.911C7.63113 135.322 9.80035 136.719 9.21873 137.467C8.7286 138.085 6.11237 135.525 4.9633 135.336C3.8469 135.179 3.33144 137.1 6.38187 138.217C8.98332 139.189 9.75236 140.501 10.6661 141.332C13.0164 143.486 14.5519 143.854 15.8466 143.594C16.6896 143.093 16.7475 142.9 17.8714 142.232Z" fill="#FFF9EB"/>
<path d="M15.8327 136.606C16.0269 136.728 15.1353 137.739 15.3377 139.226C15.5038 140.555 16.3503 141.261 16.1954 141.392C16.0096 141.557 14.2688 140.686 14.1 139.262C13.9601 137.741 15.6069 136.486 15.8327 136.606Z" fill="#F3B38A"/>
<path d="M85.075 114.756C90.8471 118.779 102.363 121.523 108.604 119.879C114.309 118.346 121.909 118.631 130.591 123.332C139.661 128.244 149.541 136.944 135.514 151.459C123.429 163.979 92.1243 172.107 62.0344 151.23C54.2854 145.866 52.4214 135.375 54.9387 128.059C58.0761 119.136 75.3462 107.957 85.075 114.756Z" fill="#FFF9EB"/>
<path fill-rule="evenodd" clip-rule="evenodd" d="M67.5775 115.593C61.6633 118.648 56.5839 123.658 55.0258 128.089C52.5191 135.375 54.3789 145.819 62.087 151.154L62.0871 151.154C92.1429 172.008 123.397 163.88 135.448 151.395L135.448 151.395C142.448 144.151 143.46 138.385 141.629 133.828C139.792 129.257 135.081 125.868 130.548 123.413C121.885 118.723 114.309 118.441 108.628 119.968L108.628 119.968C105.486 120.795 101.03 120.517 96.6437 119.532C92.2559 118.547 87.9216 116.852 85.0226 114.831L85.0225 114.831C80.2008 111.461 73.4932 112.538 67.5775 115.593ZM85.1279 114.68C80.2208 111.251 73.429 112.364 67.4931 115.43C61.5558 118.496 56.4315 123.537 54.8522 128.028L54.852 128.029C52.3242 135.376 54.1925 145.914 61.9823 151.306C92.1061 172.206 123.461 164.078 135.58 151.522C142.607 144.251 143.669 138.41 141.8 133.76C139.936 129.124 135.173 125.708 130.635 123.251C121.933 118.54 114.309 118.25 108.581 119.79C105.481 120.606 101.059 120.335 96.684 119.353C92.3106 118.371 88.001 116.683 85.1279 114.68Z" fill="#FFF9EB"/>
<path d="M47.7683 135.925C51.7457 137.237 62.0863 139.984 72.2361 137.304C74.9152 136.59 81.1295 134.026 86.5861 128.37C88.991 125.886 90.6658 123.422 92.2034 121.694C93.5254 120.194 95.9123 119.266 97.6392 119.66C101.06 120.418 77.285 101.484 47.7683 135.925Z" fill="#F3B38A"/>
<path d="M91.9002 154.706C91.7294 154.298 90.4776 154.939 88.7806 154.48C87.596 154.165 87.0715 153.609 86.9175 153.772C86.7335 154 87.3392 155.158 88.4043 155.73C88.5975 155.82 89.824 156.482 90.9498 155.878C91.4502 155.609 92.0364 155.02 91.9002 154.706Z" fill="#F3B38A"/>
<path d="M97.0173 158.05C96.7532 157.709 95.6656 158.535 93.9163 158.459C92.7075 158.399 92.0588 157.942 91.9374 158.136C91.7861 158.394 92.642 159.417 93.764 159.766C93.988 159.823 95.3023 160.229 96.2947 159.406C96.7913 159.01 97.2161 158.33 97.0173 158.05Z" fill="#F3B38A"/>
<path d="M105.105 156.543C104.809 156.202 103.82 157.152 102.043 157.204C100.837 157.239 100.158 156.846 100.037 157.041C99.9173 157.298 100.835 158.256 102.018 158.507C102.242 158.564 103.584 158.843 104.51 157.926C104.942 157.5 105.334 156.79 105.105 156.543Z" fill="#F3B38A"/>
<path d="M111.353 158.393C111.089 158.051 110.036 158.971 108.257 158.96C107.05 158.964 106.37 158.539 106.281 158.732C106.161 158.99 107.048 159.98 108.2 160.264C108.424 160.321 109.767 160.631 110.695 159.778C111.159 159.351 111.551 158.641 111.353 158.393Z" fill="#F3B38A"/>
<path d="M100.264 153.953C99.9991 153.579 98.8807 154.438 97.067 154.332C95.8265 154.273 95.1451 153.785 95.0237 153.979C94.8725 154.238 95.7283 155.261 96.9138 155.607C97.1378 155.664 98.4838 156.07 99.5079 155.245C100.006 154.913 100.463 154.233 100.264 153.953Z" fill="#F3B38A"/>
<path d="M127.519 112.781C121.628 115.558 114.508 120.817 111.481 128.085C109.849 132.008 107.55 140.271 110.433 142.188C114.322 144.805 125.673 134.34 131.508 127.498C136.237 121.959 142.448 110.596 140.181 108.058C139.789 107.656 131.843 110.748 127.519 112.781Z" fill="#F3B38A"/>
<path d="M117.003 123.571C128.312 110.565 141.038 112.352 148.002 99.6012C150.355 95.3392 151.818 92.1516 151.972 86.5565C152.047 83.6954 165.255 82.4189 165.214 85.3425C165.003 99.8335 150.46 149.845 123.465 158.704C116.858 160.868 110.083 151.886 109.049 146.961C107.136 138.059 113.715 127.352 117.003 123.571Z" fill="#FFF9EB"/>
<path d="M137.632 141.359C137.219 141.371 137.289 142.671 136.279 143.971C135.574 144.85 134.852 145.125 134.952 145.313C135.055 145.564 136.323 145.463 137.192 144.771C137.347 144.639 138.372 143.847 138.273 142.642C138.225 142.072 137.918 141.35 137.632 141.359Z" fill="#F3B38A"/>
<path d="M132.129 142.187C131.745 142.071 131.433 143.351 130.033 144.377C129.101 145.071 128.34 145.125 128.346 145.347C128.387 145.632 129.632 145.849 130.699 145.405C130.887 145.336 132.11 144.792 132.393 143.609C132.503 143.034 132.449 142.273 132.129 142.187Z" fill="#F3B38A"/>
<path d="M132.486 147.863C132.07 147.748 131.79 149.027 130.39 150.052C129.458 150.747 128.697 150.801 128.703 151.023C128.743 151.308 129.989 151.525 131.056 151.081C131.244 151.012 132.467 150.468 132.75 149.284C132.86 148.709 132.806 147.949 132.486 147.863Z" fill="#F3B38A"/>
<path d="M43.6476 85.2846C44.661 88.4314 42.9179 91.8178 39.7711 92.8312C36.6243 93.8446 33.2379 92.1015 32.2245 88.9547C31.2111 85.8079 32.9542 82.4215 36.101 81.4081C39.2478 80.3947 42.6342 82.1378 43.6476 85.2846Z" fill="#FFF9EB"/>
<path d="M41.6012 85.9162C42.2647 87.9615 41.121 90.1233 39.1075 90.7858C37.0622 91.4493 34.9004 90.3056 34.2379 88.2921C33.5744 86.2468 34.7181 84.085 36.7316 83.4225C38.7778 82.7907 40.9387 83.9027 41.6012 85.9162Z" fill="#AB5027"/>
<path d="M69.7994 76.9264C70.8128 80.0732 69.0697 83.4596 65.9229 84.473C62.7761 85.4864 59.3897 83.7433 58.3763 80.5965C57.3629 77.4497 59.106 74.0633 62.2528 73.0499C65.4303 72.0038 68.8167 73.7469 69.7994 76.9264Z" fill="#FFF9EB"/>
<path d="M67.7847 77.5569C68.4482 79.6022 67.3044 81.764 65.2909 82.4265C63.2456 83.09 61.0838 81.9463 60.4213 79.9327C59.7578 77.8875 60.9015 75.7257 62.9151 75.0631C64.9603 74.3997 67.1221 75.5434 67.7847 77.5569Z" fill="#AB5027"/>
<path d="M87.2776 93.4399C80.8221 81.2725 66.2777 73.8211 49.7531 79.0066C33.2975 84.3808 25.7499 98.8962 27.5473 112.534C29.7159 129.084 44.2327 142.095 67.6241 134.929C90.84 127.197 95.1106 108.172 87.2776 93.4399Z" fill="#FFF9EB"/>
<path d="M67.3365 124.042C67.4755 124.451 67.1488 125.223 66.5317 125.845L65.9155 126.498L66.2673 127.663C66.5921 127.908 66.9142 128.057 67.2651 128.11C67.6805 128.193 68.1249 128.18 68.502 128.042C68.8791 127.904 69.2535 127.671 69.5298 127.345C69.8061 127.019 70.0171 126.632 70.1301 126.152L70.216 125.832L72.0064 126.224L71.9205 126.544C71.7533 127.343 71.392 128.021 70.9308 128.543C70.4397 129.129 69.7853 129.561 69.0609 129.773C68.3692 130.016 67.6075 130.038 66.8402 129.87C66.5201 129.784 66.1999 129.698 65.9096 129.548C65.7593 129.838 65.5455 130.13 65.3299 130.359C64.8071 130.946 64.1517 131.346 63.4591 131.557C62.7347 131.769 61.973 131.791 61.2374 131.622C60.5336 131.452 59.856 131.091 59.2689 130.568L59.0085 130.353L60.2389 128.983L60.4993 129.198C60.8587 129.537 61.2778 129.747 61.6614 129.831C62.0777 129.946 62.5221 129.933 62.8992 129.795C63.309 129.687 63.6516 129.455 63.9597 129.128C64.2061 128.867 64.3872 128.544 64.503 128.159L64.1512 126.995L63.257 126.83C62.3637 126.697 61.6832 126.241 61.5442 125.832C61.3333 125.139 62.378 123.934 63.9518 123.443C65.5584 122.983 67.1265 123.381 67.3365 124.042Z" fill="#AB5027"/>
<path d="M59.994 114.125C62.3372 121.457 58.3421 129.293 51.073 131.634C43.803 133.944 35.9969 129.885 33.6537 122.552C30.6807 113.237 39.0346 90.4706 43.9 88.4856C49.5822 86.1908 57.8953 107.547 59.994 114.125Z" fill="#AB5027"/>
<path d="M61.7564 113.565C64.0996 120.897 71.9066 124.989 79.1757 122.647C86.4458 120.338 90.4399 112.47 88.0967 105.137C85.1237 95.8221 65.1229 82.1141 59.9813 83.3448C54.0508 84.7574 59.6577 106.987 61.7564 113.565Z" fill="#AB5027"/>
<path d="M57.9541 114.979C59.9119 121.084 56.5461 127.631 50.4094 129.589C44.3043 131.547 37.7574 128.181 35.7987 122.045C33.8409 115.94 37.2067 109.393 43.3434 107.434C49.4485 105.476 55.9963 108.874 57.9541 114.979Z" fill="#F49426"/>
<path d="M55.8457 115.644C57.4199 120.585 54.6853 125.906 49.7443 127.481C44.8034 129.055 39.482 126.32 37.9077 121.379C36.3335 116.438 39.0681 111.117 44.0091 109.543C48.9818 107.967 54.2714 110.703 55.8457 115.644Z" fill="#030304"/>
<path d="M44.1122 116.306C44.8102 118.445 43.6067 120.736 41.4671 121.434C39.3276 122.132 37.037 120.928 36.339 118.789C35.641 116.649 36.8444 114.359 38.984 113.661C41.1236 112.963 43.445 114.133 44.1122 116.306Z" fill="white"/>
<path d="M56.7694 121.144C57.0829 122.088 56.5414 123.12 55.5977 123.434C54.6539 123.747 53.6216 123.206 53.308 122.262C52.9945 121.318 53.536 120.286 54.4797 119.972C55.4235 119.659 56.4558 120.2 56.7694 121.144Z" fill="white"/>
<path d="M85.1967 112.401C85.5103 113.345 84.9688 114.377 84.025 114.691C83.0812 115.004 82.0489 114.463 81.7353 113.519C81.4218 112.575 81.9633 111.543 82.9071 111.229C83.8508 110.916 84.8822 111.425 85.1967 112.401Z" fill="white"/>
<path d="M86.0889 105.99C88.0467 112.095 84.6809 118.642 78.5441 120.601C72.4391 122.559 65.8922 119.193 63.9334 113.056C61.9757 106.951 65.3414 100.404 71.4782 98.4457C77.5832 96.4879 84.1311 99.8854 86.0889 105.99Z" fill="#F49426"/>
<path d="M83.98 106.656C85.5542 111.597 82.8196 116.918 77.8786 118.492C72.9376 120.067 67.6162 117.332 66.042 112.391C64.4678 107.45 67.2024 102.129 72.1434 100.554C77.0843 98.9801 82.4057 101.715 83.98 106.656Z" fill="#030304"/>
<path d="M72.2464 107.317C72.9444 109.457 71.7409 111.747 69.6013 112.445C67.4618 113.143 65.1712 111.94 64.4732 109.8C63.7752 107.661 64.9786 105.37 67.1182 104.672C69.2578 103.974 71.5483 105.178 72.2464 107.317Z" fill="white"/>
<path d="M84.8719 112.157C85.1855 113.101 84.644 114.133 83.7002 114.446C82.7564 114.76 81.7241 114.218 81.4105 113.275C81.097 112.331 81.6385 111.299 82.5823 110.985C83.5578 110.671 84.5584 111.213 84.8719 112.157Z" fill="white"/>
<path d="M146.392 45.8711C146.392 45.8711 145.532 55.4184 145.434 61.7169C145.297 70.8885 150.555 80.8778 150.555 80.8778C150.555 80.8778 156.673 70.2697 152.315 56.2582C150.731 51.153 146.392 45.8711 146.392 45.8711Z" fill="#357C50"/>
<path d="M160.819 49.4922C160.819 49.4922 156.04 57.2028 153.346 62.4714C149.428 70.1595 150.356 80.8775 150.356 80.8775C150.356 80.8775 160.638 74.5236 162.223 60.8208C162.812 55.8235 160.819 49.4922 160.819 49.4922Z" fill="#4D9071"/>
<path d="M52.4828 36.2139C52.4828 36.2139 42.8848 36.5831 37.0237 39.0704C29.5301 42.2379 23.5117 47.3291 23.5117 47.3291C23.5117 47.3291 33.6408 50.9824 44.8122 44.0062C48.8835 41.4606 52.4828 36.2139 52.4828 36.2139Z" fill="#357C50"/>
<path d="M30.7544 2.41406C30.7544 2.41406 35.2236 8.83937 38.5189 12.7861C43.3177 18.5441 52.4827 21.7281 52.4827 21.7281C52.4827 21.7281 51.2882 11.604 40.6197 5.42652C36.7477 3.19578 30.7544 2.41406 30.7544 2.41406Z" fill="#315539"/>
<path d="M52.4829 54.3208C52.4829 54.3208 58.7102 53.5158 62.1114 52.9593C67.0908 52.1543 70.5898 48.8152 70.5898 48.8152C70.5898 48.8152 64.3136 46.8872 57.3155 50.3854C54.7707 51.6674 52.4829 54.3208 52.4829 54.3208Z" fill="#315539"/>
<path d="M57.3115 61.5636C57.3115 61.5636 62.4912 58.1071 65.2612 56.0993C69.3105 53.179 70.5899 48.2852 70.5899 48.2852C70.5899 48.2852 63.8203 48.9582 59.4604 55.4947C57.8829 57.8789 57.3115 61.5636 57.3115 61.5636Z" fill="#357C50"/>
<path d="M129.905 57.611C129.905 57.611 135.158 66.5809 138.206 71.4223C142.652 78.4886 150.153 81.8521 150.153 81.8521C150.153 81.8521 149.194 71.2154 139.188 62.6469C135.555 59.5235 129.905 57.611 129.905 57.611Z" fill="#4D9071"/>
<path d="M18.4356 119.376C14.5406 117.18 8.2831 121.956 5.78739 124.55C3.31336 127.126 1.9747 132.481 5.91271 136.15C9.82904 139.836 14.6983 140.132 17.2676 136.653C20.7191 131.958 23.1174 122.013 18.4356 119.376Z" fill="#FFE8AE"/>
<path d="M17.2677 136.653C19.9537 133.008 21.9991 126.22 20.5862 122.123C20.481 125.941 18.8327 130.469 16.7955 133.23C14.2263 136.709 9.35695 136.413 5.44063 132.727C4.48555 131.813 3.83516 130.832 3.4285 129.797C3.24003 131.959 3.86739 134.287 5.87357 136.145C9.81159 139.814 14.6985 140.131 17.2677 136.653Z" fill="#FFD36D"/>
<circle cx="12.6266" cy="127.627" r="4" transform="rotate(39.0985 12.6266 127.627)" fill="url(#paint0_linear)"/>
<path fill-rule="evenodd" clip-rule="evenodd" d="M12.0668 129.637L10.7738 128.586C10.5243 128.384 10.3753 128.173 10.3327 127.959C10.2856 127.75 10.3504 127.543 10.5171 127.338L11.105 126.614L12.001 127.343L11.5974 127.839C11.4614 128.007 11.492 128.166 11.6791 128.318L12.1725 128.719C12.3357 128.843 12.4791 128.852 12.5983 128.751L13.0501 128.195L13.9348 128.914L13.3557 129.627C13.2723 129.729 13.1751 129.803 13.0796 129.851C12.9741 129.899 12.8704 129.923 12.7585 129.921C12.6466 129.92 12.5321 129.899 12.4138 129.847C12.2967 129.806 12.1802 129.729 12.0668 129.637ZM14.2463 128.531L13.9348 128.914L14.5416 129.407L14.8531 129.024L14.2463 128.531ZM13.3616 127.812L14.2463 128.531L15.0316 127.564L14.1469 126.845L13.3616 127.812ZM11.4108 126.227L11.0993 126.61L10.4926 126.117L10.8041 125.733L11.4108 126.227ZM11.4108 126.227L12.1961 125.26L13.0921 125.988L12.3068 126.955L11.4108 126.227Z" fill="white"/>
<path opacity="0.6" d="M15.1522 120.597C14.3508 120.672 13.6123 121.09 12.9305 121.534C12.3531 121.929 11.8108 122.368 11.2861 122.828C10.7789 123.311 10.3068 123.836 10.097 124.508C9.88721 125.181 10.0616 125.973 10.6346 126.37C10.7833 126.466 10.9537 126.543 11.1324 126.542C11.3503 126.545 11.5414 126.426 11.7325 126.308C12.7354 125.64 13.5577 124.615 14.7238 124.282C15.4808 124.064 16.4092 124.103 16.9464 123.524C18.2242 122.132 16.7375 120.427 15.1522 120.597Z" fill="white"/>
<defs>
<linearGradient id="paint0_linear" x1="8.63043" y1="127.633" x2="16.6336" y2="127.633" gradientUnits="userSpaceOnUse">
<stop stop-color="#F95252"/>
<stop offset="0.9848" stop-color="#B90973"/>
</linearGradient>
</defs>
</svg>
