<svg width="51" height="84" viewBox="0 0 51 84" fill="none" xmlns="http://www.w3.org/2000/svg">
<path d="M25.0958 9.18555V10.0506C25.0958 10.0506 25.0367 10.0506 24.9185 10.0506C24.8002 10.0506 24.6229 10.0506 24.416 10.0804C24.2091 10.0804 23.943 10.14 23.6179 10.1699C23.2927 10.2295 22.938 10.2892 22.5538 10.4383C21.7557 10.6769 20.8394 11.0945 19.864 11.7508C18.8885 12.407 17.8835 13.3316 16.9672 14.4651C15.0755 16.7619 13.5089 19.9833 12.5334 23.6521C12.0605 25.4418 11.7058 27.3806 11.5284 29.3791C11.4398 30.3634 11.4102 31.3776 11.3806 32.3917C11.3806 33.4357 11.3806 34.4499 11.3806 35.4938C11.3806 52.0782 11.3806 68.6626 11.3806 68.6626H10.5234C10.5234 68.6626 10.5234 52.0782 10.5234 35.4938C10.5234 33.4357 10.4643 31.3477 10.6712 29.3194C10.8486 27.2911 11.2033 25.2927 11.6762 23.4135C12.6517 19.6552 14.3069 16.3144 16.2578 13.8984C17.2332 12.7053 18.2973 11.7209 19.3615 11.0051C20.396 10.2892 21.4306 9.84176 22.2878 9.57331C22.7311 9.42417 23.1154 9.36451 23.4701 9.30486C23.8248 9.27503 24.1204 9.21537 24.3569 9.21537C24.5933 9.21537 24.7707 9.18555 24.9185 9.18555C25.0367 9.18555 25.0958 9.18555 25.0958 9.18555Z" fill="#C17A49"/>
<path d="M25.0953 8.43998V9.305C25.0953 9.305 25.0361 9.305 24.9179 9.305C24.7997 9.305 24.6223 9.305 24.3859 9.33482C24.1494 9.33482 23.8538 9.39448 23.4991 9.42431C23.174 9.48396 22.7601 9.57345 22.3463 9.69276C21.4891 9.96121 20.4841 10.3788 19.4496 11.0947C18.415 11.8105 17.3805 12.765 16.3755 13.9582C14.4246 16.3444 12.7989 19.6553 11.8235 23.4136C11.3505 25.2928 10.9958 27.2614 10.8185 29.2898C10.6411 31.3181 10.6707 33.406 10.6707 35.4641C10.6707 52.0485 10.6707 68.6329 10.6707 68.6329H9.81348C9.81348 68.6329 9.81348 52.0485 9.81348 35.4641C9.81348 34.4202 9.81348 33.3762 9.81348 32.362C9.81348 31.3181 9.87259 30.2442 9.96127 29.2301C10.1386 27.1421 10.4933 25.1138 10.9958 23.2048C12.0008 19.357 13.6857 15.9268 15.7252 13.4213C16.7597 12.1685 17.8534 11.1543 18.9766 10.3788C20.0999 9.6331 21.164 9.15586 22.1098 8.85758C22.5828 8.70844 22.9966 8.61895 23.3809 8.5593C23.7651 8.52947 24.0903 8.46981 24.3267 8.43998C24.5928 8.43998 24.7997 8.41016 24.9179 8.41016C25.0361 8.43998 25.0953 8.43998 25.0953 8.43998Z" fill="#DC9A6D"/>
<path d="M25.0957 9.30495V8.43994C25.0957 8.43994 25.1548 8.43994 25.3026 8.43994C25.4504 8.43994 25.6869 8.43994 25.9529 8.52943C26.5145 8.64874 27.283 9.00667 27.9924 9.66289C29.4113 10.9455 30.6232 13.2422 31.5395 16.0461C32.4558 18.8499 33.1061 22.2205 33.4608 25.8595C33.6381 27.679 33.7268 29.5582 33.7564 31.4672C33.7564 33.3463 33.7564 35.2851 33.7564 37.1941C33.7859 52.5555 33.7859 67.917 33.7859 67.917H32.9287C32.9287 67.917 32.8992 52.5555 32.8992 37.1941C32.8992 35.2851 32.8992 33.3463 32.8992 31.4672C32.8696 29.588 32.7809 27.7088 32.6036 25.9191C32.2489 22.3398 31.6281 19.0289 30.7414 16.2847C30.298 14.9126 29.7955 13.6897 29.2339 12.6755C28.6723 11.6614 28.0516 10.8262 27.4604 10.2893C26.8397 9.72255 26.2485 9.45409 25.8051 9.36461C25.5982 9.30495 25.4208 9.30495 25.3026 9.30495C25.1548 9.30495 25.0957 9.30495 25.0957 9.30495Z" fill="#C17A49"/>
<path d="M25.0957 10.0506V9.18555C25.0957 9.18555 25.1548 9.18555 25.2731 9.18555C25.3913 9.18555 25.5686 9.18555 25.7755 9.2452C26.2189 9.33469 26.8397 9.63297 27.4899 10.1997C28.1107 10.7664 28.7314 11.6016 29.293 12.6158C29.8546 13.6597 30.3571 14.8827 30.8005 16.2548C31.6873 18.999 32.3376 22.3099 32.6923 25.9191C32.8696 27.7087 32.9583 29.5879 32.9878 31.4671C32.9878 33.3462 32.9878 35.285 32.9878 37.194C33.0174 52.5555 33.0174 67.9169 33.0174 67.9169H32.1602C32.1602 67.9169 32.1306 52.5555 32.1306 37.194C32.1306 35.285 32.1306 33.3462 32.1306 31.4671C32.1011 29.5879 32.0124 27.7684 31.8351 26.0085C31.5099 22.4888 30.8596 19.2078 30.0024 16.5531C29.5886 15.2108 29.0861 14.0475 28.5541 13.0632C28.022 12.1087 27.4604 11.3332 26.9283 10.8559C26.3963 10.3787 25.9233 10.1699 25.6278 10.1102C25.48 10.0506 25.3617 10.0804 25.2731 10.0506C25.1844 10.0506 25.0957 10.0506 25.0957 10.0506Z" fill="#DC9A6D"/>
<path d="M25.0959 9.18563V10.0506C25.1255 8.6189 25.0959 9.66288 25.1255 9.33477C25.1255 9.33477 25.1255 9.33477 25.0959 9.33477C25.0664 9.33477 25.0959 9.39443 25.1255 9.39443C25.155 9.39443 25.155 9.45408 25.1846 9.45408C25.2142 9.48391 25.2437 9.51374 25.2733 9.54357C25.3028 9.5734 25.362 9.60322 25.4211 9.63305C25.4506 9.63305 25.4802 9.66288 25.5098 9.69271C25.5393 9.72254 25.5984 9.75237 25.5984 9.75237V9.78219C25.5689 9.81202 25.5689 9.87168 25.5393 9.96116C25.4506 10.2893 25.3324 10.8858 25.2437 11.6614C25.0368 13.2124 24.8595 15.4793 24.7412 18.2235C24.5934 20.9677 24.5048 24.1593 24.4752 27.5895C24.4161 31.0197 24.4456 34.6886 24.4456 38.3276C24.4456 52.9731 24.4456 67.6485 24.4456 67.6485H23.5884C23.5884 67.6485 23.5884 53.003 23.5884 38.3276C23.5884 34.6587 23.5589 30.9899 23.618 27.5597C23.6771 24.1295 23.7658 20.908 23.884 18.1639C24.0318 15.4197 24.2092 13.1229 24.4161 11.542C24.5343 10.7367 24.623 10.1103 24.7412 9.69271C24.8003 9.48391 24.8595 9.33477 24.9481 9.21546C24.9777 9.18563 24.9777 9.1558 25.0073 9.1558C25.0368 9.12598 25.0664 9.12598 25.0664 9.12598C25.0664 9.18563 25.0664 9.18563 25.0959 9.18563Z" fill="#C17A49"/>
<path d="M25.0959 8.43994V9.30495C25.1255 9.30495 25.0959 9.30495 25.0663 9.30495C25.0368 9.30495 25.0663 9.30495 25.0368 9.30495L25.0072 9.33478C24.9481 9.42427 24.889 9.57341 24.8299 9.75237C24.7116 10.17 24.5934 10.7665 24.5047 11.5719C24.2978 13.1528 24.1205 15.4495 23.9727 18.1937C23.8249 20.9379 23.7362 24.1295 23.7066 27.5597C23.6475 30.9899 23.6771 34.6588 23.6771 38.3276C23.6771 52.9731 23.6771 67.6485 23.6771 67.6485H22.8199C22.8199 67.6485 22.8199 53.003 22.8199 38.3276C22.8199 34.6588 22.7903 30.9899 22.8494 27.5597C22.9086 24.1295 22.9972 20.908 23.1155 18.134C23.2633 15.3899 23.4406 13.0931 23.6475 11.4526C23.7658 10.6472 23.8544 9.991 24.0022 9.51375C24.0909 9.27512 24.15 9.06633 24.3274 8.79788C24.3569 8.76805 24.3865 8.73822 24.4161 8.70839C24.4456 8.67857 24.4752 8.64874 24.5343 8.61891C24.623 8.55925 24.7116 8.52943 24.7708 8.4996C24.8003 8.4996 24.8594 8.46977 24.889 8.46977C24.889 8.46977 24.889 8.46977 24.9186 8.46977C24.9777 8.43994 25.0368 8.43994 25.0959 8.43994Z" fill="#DC9A6D"/>
<path d="M25.0957 9.30495V8.43994C25.0957 8.43994 25.1548 8.43994 25.3026 8.43994C25.4504 8.43994 25.6278 8.43994 25.8938 8.46977C26.1598 8.46977 26.485 8.52943 26.8397 8.58908C27.2239 8.67857 27.6377 8.73822 28.1107 8.88736C29.0566 9.15581 30.1502 9.66289 31.2439 10.4086C32.3376 11.1543 33.4608 12.1983 34.4953 13.451C36.5644 15.9566 38.2197 19.4166 39.2247 23.2645C39.7272 25.2033 40.0819 27.2316 40.2593 29.3195C40.3479 30.3635 40.3775 31.4075 40.4071 32.4813C40.4071 33.5253 40.4071 34.5693 40.4071 35.5834C40.4366 52.1976 40.4366 68.8118 40.4366 68.8118H39.5794C39.5794 68.8118 39.5499 52.1976 39.5499 35.5834C39.5499 33.4955 39.5794 31.4373 39.4021 29.3792C39.2543 27.3509 38.87 25.3524 38.3971 23.4732C37.4216 19.7149 35.7959 16.404 33.845 13.9879C32.8696 12.7948 31.8055 11.8403 30.771 11.1245C29.7364 10.4086 28.7314 9.991 27.8742 9.72254C27.4604 9.5734 27.0466 9.51375 26.7214 9.45409C26.3667 9.42427 26.0711 9.36461 25.8347 9.36461C25.5982 9.36461 25.4208 9.33478 25.3026 9.33478C25.1548 9.30495 25.0957 9.30495 25.0957 9.30495Z" fill="#C17A49"/>
<path d="M25.0957 10.0506V9.18555C25.0957 9.18555 25.1548 9.18555 25.2731 9.18555C25.3913 9.18555 25.5982 9.18555 25.8347 9.21537C26.0711 9.21537 26.3667 9.27503 26.7214 9.30486C27.0761 9.36451 27.4604 9.454 27.9038 9.57331C28.761 9.84176 29.7955 10.2892 30.8301 11.0051C31.8646 11.7209 32.9287 12.7053 33.9337 13.8984C35.9142 16.3144 37.5399 19.6552 38.5153 23.4135C38.9882 25.2927 39.3429 27.2911 39.5203 29.3493C39.6976 31.3776 39.6385 33.4655 39.6681 35.5535C39.6976 52.1677 39.6977 68.7819 39.6977 68.7819H38.8404C38.8404 68.7819 38.8109 52.1677 38.8109 35.5535C38.8109 34.5095 38.8109 33.4655 38.8109 32.4514C38.8109 31.4372 38.7813 30.4231 38.6927 29.4388C38.5449 27.4403 38.1902 25.5015 37.7172 23.6521C36.7713 19.9833 35.1752 16.7619 33.2834 14.4651C32.3376 13.3316 31.3326 12.407 30.3867 11.7508C29.4113 11.0945 28.4654 10.6769 27.6969 10.4383C27.3126 10.319 26.9283 10.2594 26.6327 10.1699C26.3076 10.14 26.0416 10.0804 25.8347 10.0804C25.6278 10.0804 25.4504 10.0506 25.3322 10.0506C25.1548 10.0506 25.0957 10.0506 25.0957 10.0506Z" fill="#DC9A6D"/>
<path d="M50.3974 72.3615C50.3974 72.6598 50.2496 72.958 49.954 73.2563C49.215 74.002 47.6189 74.6881 45.3133 75.2846C40.7022 74.0915 33.4012 73.3458 25.1839 73.3458C16.9666 73.3458 9.66566 74.0915 5.05452 75.2846C2.71939 74.6881 1.09367 73.9722 0.384262 73.1967C0.118234 72.9282 0 72.6299 0 72.3615C0 69.677 11.2618 67.4995 25.1839 67.4995C39.106 67.4995 50.3974 69.6471 50.3974 72.3615Z" fill="#A06C48"/>
<path d="M45.3135 75.2845C40.7023 76.4478 33.4014 77.1935 25.1841 77.1935C16.9668 77.1935 9.66583 76.4478 5.05469 75.2845C9.66583 74.0914 16.9668 73.3457 25.1841 73.3457C33.4014 73.3457 40.7023 74.0914 45.3135 75.2845Z" fill="#84593C"/>
<path d="M49.392 72.3317H49.8354C49.8354 72.3317 49.8354 72.3616 49.8354 72.451C49.8354 72.5107 49.8354 72.63 49.7763 72.7493C49.6876 73.0178 49.4807 73.3161 49.1851 73.6143C48.5348 74.1811 47.5003 74.6881 46.1702 75.1057C43.4803 75.9707 39.5195 76.627 34.7605 77.0446C30.0016 77.4323 24.415 77.5516 18.4738 77.2235C15.4883 77.0446 12.4143 76.7761 9.3106 76.269C7.77356 76.0006 6.20695 75.7023 4.6699 75.225C3.90138 74.9864 3.13286 74.718 2.39389 74.36C2.00963 74.1512 1.65493 73.9723 1.30023 73.6442C1.21155 73.5845 1.12287 73.495 1.06376 73.4055C0.975082 73.3161 0.915965 73.2266 0.827289 73.1073C0.679496 72.8985 0.59082 72.63 0.59082 72.3317C0.59082 72.0335 0.679496 71.765 0.827289 71.5562C0.886406 71.4369 0.975082 71.3474 1.06376 71.2579C1.15243 71.1684 1.21155 71.079 1.30023 71.0193C1.62537 70.721 2.00963 70.5122 2.39389 70.3034C3.13286 69.9157 3.90138 69.6472 4.6699 69.4384C6.20695 68.9612 7.77356 68.6629 9.3106 68.3944C12.4143 67.8874 15.4883 67.6189 18.4738 67.4399C24.4446 67.1118 30.0016 67.2311 34.7605 67.6189C39.5195 68.0067 43.4803 68.6629 46.1702 69.5577C47.5298 70.0051 48.5644 70.4824 49.1851 71.0491C49.5103 71.3474 49.7172 71.6457 49.7763 71.9141C49.8354 72.0335 49.8354 72.1528 49.8354 72.2124C49.8354 72.2721 49.8354 72.3317 49.8354 72.3317H49.392C49.392 72.3317 49.392 72.2422 49.3329 72.0633C49.2738 71.8843 49.126 71.6457 48.86 71.3772C48.2984 70.8702 47.3229 70.3929 45.9928 69.9753C43.3621 69.1103 39.4308 68.4541 34.6719 68.0663C29.9425 67.6786 24.3855 67.5592 18.4442 67.8874C15.4883 68.0663 12.4143 68.3348 9.34016 68.8419C7.80311 69.1103 6.26607 69.4086 4.75858 69.856C3.99006 70.0946 3.25109 70.3631 2.54169 70.6912C2.18698 70.8702 1.83228 71.079 1.53669 71.3474C1.24111 71.6159 0.975082 71.944 0.975082 72.3317C0.975082 72.7195 1.24111 73.0774 1.53669 73.3161C1.83228 73.5845 2.18698 73.7635 2.54169 73.9723C3.25109 74.3302 3.99006 74.5987 4.75858 74.8075C6.26607 75.2549 7.80311 75.583 9.34016 75.8216C12.4143 76.3287 15.4883 76.5971 18.4442 76.7761C24.3855 77.1042 29.9425 76.9849 34.6719 76.5971C39.4012 76.2094 43.3325 75.5532 45.9928 74.6881C47.3229 74.2706 48.2984 73.7933 48.86 73.2862C49.126 73.0476 49.2738 72.7792 49.3329 72.6002C49.392 72.451 49.3625 72.3317 49.392 72.3317Z" fill="#C17A49"/>
<path d="M49.0076 72.3317H49.451C49.451 72.3317 49.451 72.3615 49.451 72.4212C49.451 72.4808 49.451 72.5405 49.4214 72.63C49.3623 72.809 49.2145 73.0774 48.9189 73.3459C48.3573 73.8529 47.3523 74.3302 46.0222 74.7776C43.3619 75.6426 39.4306 76.2988 34.7012 76.6866C29.9718 77.0744 24.4148 77.1937 18.4736 76.8656C15.5177 76.6866 12.4436 76.4181 9.36951 75.9111C7.83246 75.6426 6.29542 75.3443 4.75837 74.8969C3.98985 74.6583 3.25088 74.3898 2.54148 74.0319C2.18677 73.8529 1.83207 73.6441 1.53648 73.3757C1.2409 73.1072 0.974871 72.7791 0.945312 72.3317C0.945312 71.9141 1.2409 71.5562 1.53648 71.2877C1.83207 71.0193 2.18677 70.8105 2.54148 70.6315C3.25088 70.2736 3.98985 70.0051 4.75837 69.7665C6.26586 69.3191 7.83246 68.991 9.36951 68.7523C12.4436 68.2453 15.5177 67.9768 18.4736 67.7978C24.4148 67.4697 29.9718 67.5891 34.7012 67.9768C39.4306 68.3646 43.3619 69.0208 46.0222 69.8858C47.3523 70.3034 48.3573 70.8105 48.9189 71.3176C49.1849 71.586 49.3623 71.8246 49.4214 72.0334C49.451 72.1229 49.451 72.2124 49.451 72.2422C49.451 72.3019 49.451 72.3317 49.451 72.3317H49.0076C48.978 72.3317 49.0962 72.0931 48.5938 71.6457C48.1208 71.1982 47.1454 70.721 45.8744 70.3034C43.2732 69.4682 39.3715 68.812 34.6421 68.4242C29.9127 68.0365 24.3853 67.9172 18.4736 68.2453C15.5177 68.4242 12.4732 68.6927 9.39907 69.1998C7.86202 69.4682 6.32497 69.7665 4.84705 70.2139C4.10808 70.4525 3.36912 70.6912 2.68927 71.0491C2.36412 71.2281 2.03898 71.407 1.77295 71.6457C1.50693 71.8843 1.32957 72.1229 1.32957 72.3615C1.32957 72.5703 1.50693 72.8388 1.77295 73.0774C2.03898 73.316 2.36412 73.495 2.68927 73.674C3.36912 74.0021 4.10808 74.2705 4.84705 74.5091C6.32497 74.9566 7.86202 75.2548 9.39907 75.5233C12.4436 76.0304 15.5177 76.2988 18.4736 76.4778C24.3853 76.8059 29.9423 76.6568 34.6421 76.2988C39.3715 75.9111 43.2732 75.2548 45.8744 74.4197C47.1749 74.0021 48.1208 73.5248 48.5938 73.0774C49.0962 72.5703 48.978 72.3317 49.0076 72.3317Z" fill="#C17A49"/>
<path d="M49.747 55.2105C49.6583 54.9421 49.4514 54.6438 49.1558 54.3455C48.5056 53.7788 47.471 53.2717 46.1409 52.8541C43.451 51.9891 39.4902 51.3329 34.7312 50.9153C29.9723 50.5275 24.3857 50.4082 18.4445 50.7363C15.4591 50.9153 12.385 51.1837 9.28131 51.6908C7.74426 51.9593 6.17765 52.2576 4.64061 52.7348C3.87208 52.9734 3.10356 53.2419 2.3646 53.5998C1.98034 53.8086 1.62563 53.9876 1.27093 54.3157C1.18225 54.3753 1.09358 54.4648 1.03446 54.5543C0.945785 54.6438 0.886668 54.7333 0.797992 54.8526C0.650199 55.0614 0.561523 55.3298 0.561523 55.6281H0.945785C0.945785 55.2105 1.24137 54.8526 1.53696 54.5841C1.83254 54.3157 2.18725 54.1069 2.54195 53.9279C3.25135 53.57 3.99032 53.3015 4.75884 53.0629C6.26633 52.6155 7.83294 52.2874 9.36998 52.0488C12.4441 51.5417 15.5182 51.2732 18.474 51.0943C24.4153 50.7662 29.9723 50.8855 34.7017 51.2732C39.4311 51.661 43.3624 52.3172 46.0226 53.1822C47.3528 53.5998 48.3578 54.1069 48.9194 54.614C49.1854 54.8824 49.3627 55.121 49.4219 55.3298C49.4514 55.4193 49.4514 55.5088 49.4514 55.5386C49.4514 55.5983 49.4514 55.6281 49.4514 55.6281H49.8357C49.8357 55.6281 49.8357 55.5983 49.8357 55.5088C49.7766 55.4491 49.8061 55.3298 49.747 55.2105Z" fill="#A1A1BF"/>
<path d="M48.8605 54.6437C48.2989 54.1366 47.3234 53.6594 45.9933 53.2418C43.3626 52.3767 39.4313 51.7205 34.6724 51.3328C29.943 50.945 24.386 50.8257 18.4447 51.1538C15.4888 51.3328 12.4148 51.6012 9.34066 52.1083C7.80362 52.3767 6.26657 52.675 4.75908 53.1225C3.99056 53.3611 3.2516 53.6295 2.54219 53.9576C2.18749 54.1366 1.83278 54.3454 1.5372 54.6139C1.24161 54.8823 0.975586 55.2104 0.975586 55.5982H1.35985C1.35985 55.3894 1.5372 55.1209 1.80323 54.8823C2.06925 54.6437 2.3944 54.4647 2.71954 54.2857C3.39939 53.9576 4.13835 53.6892 4.87732 53.4506C6.35525 53.0031 7.89229 52.7049 9.42934 52.4364C12.4739 51.9293 15.548 51.6609 18.5038 51.4819C24.4155 51.1538 29.9726 51.3029 34.6724 51.6609C39.4017 52.0486 43.3035 52.7049 45.9046 53.54C47.2052 53.9576 48.1511 54.4349 48.624 54.8823C49.097 55.3297 49.0083 55.5683 49.0378 55.5683H49.4221C49.4221 55.5683 49.4221 55.4789 49.363 55.2999C49.2743 55.1508 49.1265 54.9121 48.8605 54.6437Z" fill="#A06C48"/>
<path d="M1.56676 54.614C1.86234 54.3455 2.21705 54.1666 2.57175 53.9578C3.28116 53.5998 4.02012 53.3314 4.78864 53.1226C6.29613 52.6752 7.83318 52.3471 9.37022 52.1084C12.4443 51.6014 15.5184 51.3329 18.4743 51.1539C24.4155 50.8258 29.9726 50.9451 34.7019 51.3329C39.4313 51.7207 43.3626 52.3769 46.0229 53.2419C47.353 53.6595 48.3284 54.1367 48.89 54.6438C49.1561 54.8824 49.3039 55.1509 49.363 55.3299C49.4221 55.5088 49.3925 55.5983 49.4221 55.5983H49.4812C49.4812 55.5983 49.4812 55.5685 49.4812 55.5088C49.4812 55.4492 49.4812 55.3895 49.4517 55.3C49.3925 55.1211 49.2448 54.8526 48.9492 54.5842C48.3876 54.0771 47.3826 53.5998 46.0524 53.1524C43.3922 52.2874 39.4609 51.6312 34.7315 51.2434C30.0021 50.8557 24.4451 50.7363 18.5038 51.0644C15.548 51.2434 12.4739 51.5119 9.39978 52.0189C7.86274 52.2874 6.32569 52.5857 4.78864 53.0331C4.02012 53.2717 3.28116 53.5402 2.57175 53.8981C2.21705 54.0771 1.86234 54.2859 1.56676 54.5543C1.27117 54.8228 1.00514 55.1509 0.975586 55.5983H1.0347C1.00514 55.2106 1.27117 54.8824 1.56676 54.614Z" fill="#A06C48"/>
<path d="M49.4219 55.6876C49.4219 55.7473 49.4219 55.8069 49.3923 55.8964C49.3332 56.0754 49.1854 56.3438 48.8898 56.6123C48.3282 57.1194 47.3232 57.5966 45.9931 58.044C43.3328 58.9091 39.4015 59.5653 34.6721 59.953C29.9428 60.3408 24.3857 60.4601 18.4445 60.132C15.4886 59.953 12.4145 59.6846 9.34042 59.1775C7.80338 58.9091 6.26633 58.6108 4.72928 58.1634C3.96076 57.9247 3.2218 57.6563 2.51239 57.2983C2.15769 57.1194 1.80298 56.9106 1.5074 56.6421C1.21181 56.3737 0.945785 56.0456 0.916226 55.5981H0.561523C0.561523 55.8964 0.650199 56.1649 0.797992 56.3737C0.857109 56.493 0.945785 56.5825 1.03446 56.672C1.12314 56.7614 1.18225 56.8509 1.27093 56.9106C1.62563 57.2089 1.98034 57.4177 2.3646 57.6264C3.10356 58.0142 3.87208 58.2827 4.64061 58.4915C6.17765 58.9687 7.74426 59.267 9.28131 59.5354C12.385 60.0425 15.4591 60.311 18.4445 60.4899C24.4153 60.818 29.9723 60.6987 34.7312 60.311C39.4902 59.9232 43.451 59.267 46.1409 58.3721C47.5006 57.9247 48.5351 57.4475 49.1558 56.8807C49.481 56.5825 49.6879 56.2842 49.747 56.0157C49.8061 55.8964 49.8061 55.7771 49.8061 55.7175C49.8061 55.6578 49.8061 55.5981 49.8061 55.5981H49.4219C49.4514 55.5981 49.4514 55.628 49.4219 55.6876Z" fill="#A1A1BF"/>
<path d="M48.6238 56.2842C48.1508 56.7317 47.1754 57.2089 45.9044 57.6265C43.3032 58.4617 39.4015 59.1179 34.6721 59.5057C29.9427 59.8934 24.4153 60.0127 18.5036 59.6846C15.5477 59.5057 12.5032 59.2372 9.42908 58.7301C7.89203 58.4617 6.35499 58.1634 4.87706 57.716C4.13809 57.4774 3.39913 57.2387 2.71928 56.8808C2.39414 56.7018 2.06899 56.5229 1.80296 56.2842C1.53694 56.0456 1.35959 55.807 1.35959 55.5684H1.00488C1.00488 55.9561 1.27091 56.3141 1.5665 56.5527C1.86208 56.8211 2.21678 57.0001 2.57149 57.2089C3.28089 57.5668 4.01986 57.8353 4.78838 58.0441C6.29587 58.4915 7.83292 58.8196 9.36996 59.0582C12.4441 59.5653 15.5181 59.8338 18.474 60.0127C24.4153 60.3408 29.9723 60.2215 34.7017 59.8338C39.431 59.446 43.3623 58.7898 46.0226 57.9248C47.3527 57.5072 48.3282 57.0299 48.8898 56.5229C49.1558 56.2842 49.3036 56.0158 49.3627 55.8368C49.4218 55.6578 49.3923 55.5684 49.4218 55.5684H49.0376C48.9785 55.5982 49.0967 55.8368 48.6238 56.2842Z" fill="#A06C48"/>
<path d="M1.50693 56.6421C1.80251 56.9106 2.15721 57.1194 2.51192 57.2983C3.22132 57.6563 3.96029 57.9247 4.72881 58.1633C6.2363 58.6108 7.8029 58.9389 9.33995 59.1775C12.414 59.6846 15.4881 59.953 18.444 60.132C24.3853 60.4601 29.9423 60.3408 34.6717 59.953C39.401 59.5653 43.3323 58.9091 45.9926 58.044C47.3227 57.6264 48.3277 57.1194 48.8893 56.6123C49.1554 56.3438 49.3327 56.1052 49.3918 55.8964C49.4214 55.8069 49.4214 55.7175 49.4214 55.6876C49.4214 55.628 49.4214 55.5981 49.4214 55.5981H49.3623C49.3623 55.5981 49.3623 55.6876 49.3032 55.8666C49.244 56.0456 49.0962 56.2842 48.8302 56.5526C48.2686 57.0597 47.2932 57.537 45.963 57.9546C43.3323 58.8196 39.401 59.4758 34.6421 59.8635C29.9127 60.2513 24.3557 60.3706 18.4144 60.0425C15.4586 59.8635 12.3845 59.5951 9.31039 59.088C7.77334 58.8196 6.2363 58.5213 4.72881 58.0739C3.96029 57.8352 3.22132 57.5668 2.51192 57.2387C2.15721 57.0597 1.80251 56.8509 1.50693 56.5825C1.21134 56.314 0.945312 55.9859 0.945312 55.5981C0.945312 56.0456 1.21134 56.3737 1.50693 56.6421Z" fill="#A06C48"/>
<path d="M49.747 55.2105C49.6583 54.9421 49.4514 54.6438 49.1558 54.3455C48.5056 53.7788 47.471 53.2717 46.1409 52.8541C43.451 51.9891 39.4902 51.3329 34.7312 50.9153C29.9723 50.5275 24.3857 50.4082 18.4445 50.7363C15.4591 50.9153 12.385 51.1837 9.28131 51.6908C7.74426 51.9593 6.17765 52.2576 4.64061 52.7348C3.87208 52.9734 3.10356 53.2419 2.3646 53.5998C1.98034 53.8086 1.62563 53.9876 1.27093 54.3157C1.18225 54.3753 1.09358 54.4648 1.03446 54.5543C0.945785 54.6438 0.886668 54.7333 0.797992 54.8526C0.650199 55.0614 0.561523 55.3298 0.561523 55.6281H0.945785C0.945785 55.2105 1.24137 54.8526 1.53696 54.5841C1.83254 54.3157 2.18725 54.1069 2.54195 53.9279C3.25135 53.57 3.99032 53.3015 4.75884 53.0629C6.26633 52.6155 7.83294 52.2874 9.36998 52.0488C12.4441 51.5417 15.5182 51.2732 18.474 51.0943C24.4153 50.7662 29.9723 50.8855 34.7017 51.2732C39.4311 51.661 43.3624 52.3172 46.0226 53.1822C47.3528 53.5998 48.3578 54.1069 48.9194 54.614C49.1854 54.8824 49.3627 55.121 49.4219 55.3298C49.4514 55.4193 49.4514 55.5088 49.4514 55.5386C49.4514 55.5983 49.4514 55.6281 49.4514 55.6281H49.8357C49.8357 55.6281 49.8357 55.5983 49.8357 55.5088C49.7766 55.4491 49.8061 55.3298 49.747 55.2105Z" fill="#C17A49"/>
<path d="M48.8605 54.6437C48.2989 54.1366 47.3234 53.6594 45.9933 53.2418C43.3626 52.3767 39.4313 51.7205 34.6724 51.3328C29.943 50.945 24.386 50.8257 18.4447 51.1538C15.4888 51.3328 12.4148 51.6012 9.34066 52.1083C7.80362 52.3767 6.26657 52.675 4.75908 53.1225C3.99056 53.3611 3.2516 53.6295 2.54219 53.9576C2.18749 54.1366 1.83278 54.3454 1.5372 54.6139C1.24161 54.8823 0.975586 55.2104 0.975586 55.5982H1.35985C1.35985 55.3894 1.5372 55.1209 1.80323 54.8823C2.06925 54.6437 2.3944 54.4647 2.71954 54.2857C3.39939 53.9576 4.13835 53.6892 4.87732 53.4506C6.35525 53.0031 7.89229 52.7049 9.42934 52.4364C12.4739 51.9293 15.548 51.6609 18.5038 51.4819C24.4155 51.1538 29.9726 51.3029 34.6724 51.6609C39.4017 52.0486 43.3035 52.7049 45.9046 53.54C47.2052 53.9576 48.1511 54.4349 48.624 54.8823C49.097 55.3297 49.0083 55.5683 49.0378 55.5683H49.4221C49.4221 55.5683 49.4221 55.4789 49.363 55.2999C49.2743 55.1508 49.1265 54.9121 48.8605 54.6437Z" fill="#C17A49"/>
<path d="M1.56676 54.614C1.86234 54.3455 2.21705 54.1666 2.57175 53.9578C3.28116 53.5998 4.02012 53.3314 4.78864 53.1226C6.29613 52.6752 7.83318 52.3471 9.37022 52.1084C12.4443 51.6014 15.5184 51.3329 18.4743 51.1539C24.4155 50.8258 29.9726 50.9451 34.7019 51.3329C39.4313 51.7207 43.3626 52.3769 46.0229 53.2419C47.353 53.6595 48.3284 54.1367 48.89 54.6438C49.1561 54.8824 49.3039 55.1509 49.363 55.3299C49.4221 55.5088 49.3925 55.5983 49.4221 55.5983H49.4812C49.4812 55.5983 49.4812 55.5685 49.4812 55.5088C49.4812 55.4492 49.4812 55.3895 49.4517 55.3C49.3925 55.1211 49.2448 54.8526 48.9492 54.5842C48.3876 54.0771 47.3826 53.5998 46.0524 53.1524C43.3922 52.2874 39.4609 51.6312 34.7315 51.2434C30.0021 50.8557 24.4451 50.7363 18.5038 51.0644C15.548 51.2434 12.4739 51.5119 9.39978 52.0189C7.86274 52.2874 6.32569 52.5857 4.78864 53.0331C4.02012 53.2717 3.28116 53.5402 2.57175 53.8981C2.21705 54.0771 1.86234 54.2859 1.56676 54.5543C1.27117 54.8228 1.00514 55.1509 0.975586 55.5983H1.0347C1.00514 55.2106 1.27117 54.8824 1.56676 54.614Z" fill="#C17A49"/>
<path d="M49.747 39.9683C49.6583 39.6999 49.4514 39.4016 49.1558 39.1033C48.5056 38.5366 47.471 38.0295 46.1409 37.6119C43.451 36.7469 39.4902 36.0907 34.7312 35.6731C29.9723 35.2853 24.3857 35.166 18.4445 35.4941C15.4591 35.6731 12.385 35.9416 9.28131 36.4486C7.74426 36.7171 6.17765 37.0154 4.64061 37.4926C3.87208 37.7312 3.10356 37.9997 2.3646 38.3576C1.98034 38.5664 1.62563 38.7454 1.27093 39.0735C1.18225 39.1332 1.09358 39.2226 1.03446 39.3121C0.945785 39.4016 0.886668 39.4911 0.797992 39.6104C0.650199 39.8192 0.561523 40.0877 0.561523 40.3859H0.945785C0.945785 39.9683 1.24137 39.6104 1.53696 39.342C1.83254 39.0735 2.18725 38.8647 2.54195 38.6857C3.25135 38.3278 3.99032 38.0593 4.75884 37.8207C6.26633 37.3733 7.83294 37.0452 9.36998 36.8066C12.4441 36.2995 15.5182 36.031 18.474 35.8521C24.4153 35.524 29.9723 35.6433 34.7017 36.031C39.4311 36.4188 43.3624 37.075 46.0226 37.94C47.3528 38.3576 48.3578 38.8647 48.9194 39.3718C49.1854 39.6402 49.3627 39.8789 49.4219 40.0877C49.4514 40.1771 49.4514 40.2666 49.4514 40.2965C49.4514 40.3561 49.4514 40.3859 49.4514 40.3859H49.8357C49.8357 40.3859 49.8357 40.3561 49.8357 40.2666C49.7766 40.207 49.8061 40.0877 49.747 39.9683Z" fill="#C17A49"/>
<path d="M48.8605 39.4318C48.2989 38.9247 47.3234 38.4474 45.9933 38.0299C43.3626 37.1648 39.4313 36.5086 34.6724 36.1209C29.943 35.7331 24.386 35.6138 18.4447 35.9419C15.4888 36.1209 12.4148 36.3893 9.34066 36.8964C7.80362 37.1648 6.26657 37.4631 4.75908 37.9105C3.99056 38.1492 3.2516 38.4176 2.54219 38.7457C2.18749 38.9247 1.83278 39.1335 1.5372 39.4019C1.24161 39.6704 0.975586 39.9985 0.975586 40.3863H1.35985C1.35985 40.1775 1.5372 39.909 1.80323 39.6704C2.06925 39.4318 2.3944 39.2528 2.71954 39.0738C3.39939 38.7457 4.13835 38.4773 4.87732 38.2387C6.35525 37.7912 7.89229 37.493 9.42934 37.2245C12.4739 36.7174 15.548 36.449 18.5038 36.27C24.4155 35.9419 29.9726 36.091 34.6724 36.449C39.4017 36.8367 43.3035 37.4929 45.9046 38.3281C47.2052 38.7457 48.1511 39.223 48.624 39.6704C49.097 40.1178 49.0083 40.3564 49.0378 40.3564H49.4221C49.4221 40.3564 49.4221 40.267 49.363 40.088C49.2743 39.909 49.1265 39.6704 48.8605 39.4318Z" fill="#C17A49"/>
<path d="M1.56676 39.4016C1.86234 39.1331 2.21705 38.9542 2.57175 38.7454C3.28116 38.3874 4.02012 38.119 4.78864 37.9102C6.29613 37.4628 7.83318 37.1347 9.37022 36.896C12.4443 36.389 15.5184 36.1205 18.4743 35.9415C24.4155 35.6134 29.9726 35.7327 34.7019 36.1205C39.4313 36.5083 43.3626 37.1645 46.0229 38.0295C47.353 38.4471 48.3284 38.9243 48.89 39.4314C49.1561 39.67 49.3039 39.9385 49.363 40.1175C49.4221 40.2964 49.3925 40.3859 49.4221 40.3859H49.4812C49.4812 40.3859 49.4812 40.3561 49.4812 40.2964C49.4812 40.2368 49.4812 40.1771 49.4517 40.0876C49.3925 39.9087 49.2448 39.6402 48.9492 39.3718C48.3876 38.8647 47.3826 38.3874 46.0524 37.94C43.3922 37.075 39.4609 36.4188 34.7315 36.031C30.0021 35.6432 24.4451 35.5239 18.5038 35.852C15.548 36.031 12.4739 36.2995 9.39978 36.8065C7.86274 37.075 6.32569 37.3733 4.78864 37.8207C4.02012 38.0593 3.28116 38.3278 2.57175 38.6857C2.21705 38.8647 1.86234 39.0735 1.56676 39.3419C1.27117 39.6104 1.00514 39.9385 0.975586 40.3859H1.0347C1.00514 39.9683 1.27117 39.6402 1.56676 39.4016Z" fill="#C17A49"/>
<path d="M49.4219 55.6876C49.4219 55.7473 49.4219 55.8069 49.3923 55.8964C49.3332 56.0754 49.1854 56.3438 48.8898 56.6123C48.3282 57.1194 47.3232 57.5966 45.9931 58.044C43.3328 58.9091 39.4015 59.5653 34.6721 59.953C29.9428 60.3408 24.3857 60.4601 18.4445 60.132C15.4886 59.953 12.4145 59.6846 9.34042 59.1775C7.80338 58.9091 6.26633 58.6108 4.72928 58.1634C3.96076 57.9247 3.2218 57.6563 2.51239 57.2983C2.15769 57.1194 1.80298 56.9106 1.5074 56.6421C1.21181 56.3737 0.945785 56.0456 0.916226 55.5981H0.561523C0.561523 55.8964 0.650199 56.1649 0.797992 56.3737C0.857109 56.493 0.945785 56.5825 1.03446 56.672C1.12314 56.7614 1.18225 56.8509 1.27093 56.9106C1.62563 57.2089 1.98034 57.4177 2.3646 57.6264C3.10356 58.0142 3.87208 58.2827 4.64061 58.4915C6.17765 58.9687 7.74426 59.267 9.28131 59.5354C12.385 60.0425 15.4591 60.311 18.4445 60.4899C24.4153 60.818 29.9723 60.6987 34.7312 60.311C39.4902 59.9232 43.451 59.267 46.1409 58.3721C47.5006 57.9247 48.5351 57.4475 49.1558 56.8807C49.481 56.5825 49.6879 56.2842 49.747 56.0157C49.8061 55.8964 49.8061 55.7771 49.8061 55.7175C49.8061 55.6578 49.8061 55.5981 49.8061 55.5981H49.4219C49.4514 55.5981 49.4514 55.628 49.4219 55.6876Z" fill="#A1A1BF"/>
<path d="M48.6238 56.2842C48.1508 56.7317 47.1754 57.2089 45.9044 57.6265C43.3032 58.4617 39.4015 59.1179 34.6721 59.5057C29.9427 59.8934 24.4153 60.0127 18.5036 59.6846C15.5477 59.5057 12.5032 59.2372 9.42908 58.7301C7.89203 58.4617 6.35499 58.1634 4.87706 57.716C4.13809 57.4774 3.39913 57.2387 2.71928 56.8808C2.39414 56.7018 2.06899 56.5229 1.80296 56.2842C1.53694 56.0456 1.35959 55.807 1.35959 55.5684H1.00488C1.00488 55.9561 1.27091 56.3141 1.5665 56.5527C1.86208 56.8211 2.21678 57.0001 2.57149 57.2089C3.28089 57.5668 4.01986 57.8353 4.78838 58.0441C6.29587 58.4915 7.83292 58.8196 9.36996 59.0582C12.4441 59.5653 15.5181 59.8338 18.474 60.0127C24.4153 60.3408 29.9723 60.2215 34.7017 59.8338C39.431 59.446 43.3623 58.7898 46.0226 57.9248C47.3527 57.5072 48.3282 57.0299 48.8898 56.5229C49.1558 56.2842 49.3036 56.0158 49.3627 55.8368C49.4218 55.6578 49.3923 55.5684 49.4218 55.5684H49.0376C48.9785 55.5982 49.0967 55.8368 48.6238 56.2842Z" fill="#A06C48"/>
<path d="M1.50693 56.6421C1.80251 56.9106 2.15721 57.1194 2.51192 57.2983C3.22132 57.6563 3.96029 57.9247 4.72881 58.1633C6.2363 58.6108 7.8029 58.9389 9.33995 59.1775C12.414 59.6846 15.4881 59.953 18.444 60.132C24.3853 60.4601 29.9423 60.3408 34.6717 59.953C39.401 59.5653 43.3323 58.9091 45.9926 58.044C47.3227 57.6264 48.3277 57.1194 48.8893 56.6123C49.1554 56.3438 49.3327 56.1052 49.3918 55.8964C49.4214 55.8069 49.4214 55.7175 49.4214 55.6876C49.4214 55.628 49.4214 55.5981 49.4214 55.5981H49.3623C49.3623 55.5981 49.3623 55.6876 49.3032 55.8666C49.244 56.0456 49.0962 56.2842 48.8302 56.5526C48.2686 57.0597 47.2932 57.537 45.963 57.9546C43.3323 58.8196 39.401 59.4758 34.6421 59.8635C29.9127 60.2513 24.3557 60.3706 18.4144 60.0425C15.4586 59.8635 12.3845 59.5951 9.31039 59.088C7.77334 58.8196 6.2363 58.5213 4.72881 58.0739C3.96029 57.8352 3.22132 57.5668 2.51192 57.2387C2.15721 57.0597 1.80251 56.8509 1.50693 56.5825C1.21134 56.314 0.945312 55.9859 0.945312 55.5981C0.945312 56.0456 1.21134 56.3737 1.50693 56.6421Z" fill="#A06C48"/>
<path d="M49.4219 55.6876C49.4219 55.7473 49.4219 55.8069 49.3923 55.8964C49.3332 56.0754 49.1854 56.3438 48.8898 56.6123C48.3282 57.1194 47.3232 57.5966 45.9931 58.044C43.3328 58.9091 39.4015 59.5653 34.6721 59.953C29.9428 60.3408 24.3857 60.4601 18.4445 60.132C15.4886 59.953 12.4145 59.6846 9.34042 59.1775C7.80338 58.9091 6.26633 58.6108 4.72928 58.1634C3.96076 57.9247 3.2218 57.6563 2.51239 57.2983C2.15769 57.1194 1.80298 56.9106 1.5074 56.6421C1.21181 56.3737 0.945785 56.0456 0.916226 55.5981H0.561523C0.561523 55.8964 0.650199 56.1649 0.797992 56.3737C0.857109 56.493 0.945785 56.5825 1.03446 56.672C1.12314 56.7614 1.18225 56.8509 1.27093 56.9106C1.62563 57.2089 1.98034 57.4177 2.3646 57.6264C3.10356 58.0142 3.87208 58.2827 4.64061 58.4915C6.17765 58.9687 7.74426 59.267 9.28131 59.5354C12.385 60.0425 15.4591 60.311 18.4445 60.4899C24.4153 60.818 29.9723 60.6987 34.7312 60.311C39.4902 59.9232 43.451 59.267 46.1409 58.3721C47.5006 57.9247 48.5351 57.4475 49.1558 56.8807C49.481 56.5825 49.6879 56.2842 49.747 56.0157C49.8061 55.8964 49.8061 55.7771 49.8061 55.7175C49.8061 55.6578 49.8061 55.5981 49.8061 55.5981H49.4219C49.4514 55.5981 49.4514 55.628 49.4219 55.6876Z" fill="#C17A49"/>
<path d="M48.6238 56.2842C48.1508 56.7317 47.1754 57.2089 45.9044 57.6265C43.3032 58.4617 39.4015 59.1179 34.6721 59.5057C29.9427 59.8934 24.4153 60.0127 18.5036 59.6846C15.5477 59.5057 12.5032 59.2372 9.42908 58.7301C7.89203 58.4617 6.35499 58.1634 4.87706 57.716C4.13809 57.4774 3.39913 57.2387 2.71928 56.8808C2.39414 56.7018 2.06899 56.5229 1.80296 56.2842C1.53694 56.0456 1.35959 55.807 1.35959 55.5684H1.00488C1.00488 55.9561 1.27091 56.3141 1.5665 56.5527C1.86208 56.8211 2.21678 57.0001 2.57149 57.2089C3.28089 57.5668 4.01986 57.8353 4.78838 58.0441C6.29587 58.4915 7.83292 58.8196 9.36996 59.0582C12.4441 59.5653 15.5181 59.8338 18.474 60.0127C24.4153 60.3408 29.9723 60.2215 34.7017 59.8338C39.431 59.446 43.3623 58.7898 46.0226 57.9248C47.3527 57.5072 48.3282 57.0299 48.8898 56.5229C49.1558 56.2842 49.3036 56.0158 49.3627 55.8368C49.4218 55.6578 49.3923 55.5684 49.4218 55.5684H49.0376C48.9785 55.5982 49.0967 55.8368 48.6238 56.2842Z" fill="#C17A49"/>
<path d="M1.50693 56.6421C1.80251 56.9106 2.15721 57.1194 2.51192 57.2983C3.22132 57.6563 3.96029 57.9247 4.72881 58.1633C6.2363 58.6108 7.8029 58.9389 9.33995 59.1775C12.414 59.6846 15.4881 59.953 18.444 60.132C24.3853 60.4601 29.9423 60.3408 34.6717 59.953C39.401 59.5653 43.3323 58.9091 45.9926 58.044C47.3227 57.6264 48.3277 57.1194 48.8893 56.6123C49.1554 56.3438 49.3327 56.1052 49.3918 55.8964C49.4214 55.8069 49.4214 55.7175 49.4214 55.6876C49.4214 55.628 49.4214 55.5981 49.4214 55.5981H49.3623C49.3623 55.5981 49.3623 55.6876 49.3032 55.8666C49.244 56.0456 49.0962 56.2842 48.8302 56.5526C48.2686 57.0597 47.2932 57.537 45.963 57.9546C43.3323 58.8196 39.401 59.4758 34.6421 59.8635C29.9127 60.2513 24.3557 60.3706 18.4144 60.0425C15.4586 59.8635 12.3845 59.5951 9.31039 59.088C7.77334 58.8196 6.2363 58.5213 4.72881 58.0739C3.96029 57.8352 3.22132 57.5668 2.51192 57.2387C2.15721 57.0597 1.80251 56.8509 1.50693 56.5825C1.21134 56.314 0.945312 55.9859 0.945312 55.5981C0.945312 56.0456 1.21134 56.3737 1.50693 56.6421Z" fill="#C17A49"/>
<path d="M49.4219 72.5104C49.4219 72.57 49.4219 72.6297 49.3923 72.7192C49.3332 72.8981 49.1854 73.1666 48.8898 73.435C48.3282 73.9421 47.3232 74.4194 45.9931 74.8668C43.3328 75.7318 39.4015 76.388 34.6721 76.7758C29.9428 77.1636 24.3857 77.2829 18.4445 76.9548C15.4886 76.7758 12.4145 76.5073 9.34042 76.0003C7.80338 75.7318 6.26633 75.4335 4.72928 74.9861C3.96076 74.7475 3.2218 74.479 2.51239 74.1211C2.15769 73.9421 1.80298 73.7333 1.5074 73.4649C1.21181 73.1964 0.945785 72.8683 0.916226 72.4209H0.561523C0.561523 72.7192 0.650199 72.9876 0.797992 73.1964C0.857109 73.3157 0.945785 73.4052 1.03446 73.4947C1.12314 73.5842 1.18225 73.6737 1.27093 73.7333C1.62563 74.0316 1.98034 74.2404 2.3646 74.4492C3.10356 74.837 3.87208 75.1054 4.64061 75.3142C6.17765 75.7915 7.74426 76.0898 9.28131 76.3582C12.385 76.8653 15.4591 77.1337 18.4445 77.3127C24.4153 77.6408 29.9723 77.5215 34.7312 77.1337C39.4902 76.746 43.451 76.0897 46.1409 75.1949C47.5006 74.7475 48.5351 74.2702 49.1558 73.7035C49.481 73.4052 49.6879 73.1069 49.747 72.8385C49.8061 72.7192 49.8061 72.5999 49.8061 72.5402C49.8061 72.4806 49.8061 72.4209 49.8061 72.4209H49.4219C49.4514 72.4209 49.4514 72.4507 49.4219 72.5104Z" fill="#C17A49"/>
<path d="M48.6238 73.107C48.1508 73.5544 47.1754 74.0317 45.9044 74.4492C43.3032 75.2844 39.4015 75.9406 34.6721 76.3284C29.9427 76.7162 24.4153 76.8355 18.5036 76.5074C15.5477 76.3284 12.5032 76.0599 9.42908 75.5529C7.89203 75.2844 6.35499 74.9861 4.87706 74.5387C4.13809 74.3001 3.39913 74.0615 2.71928 73.7035C2.39414 73.5246 2.06899 73.3456 1.80296 73.107C1.53694 72.8684 1.35959 72.6297 1.35959 72.3911H1.00488C1.00488 72.7789 1.27091 73.1368 1.5665 73.3754C1.86208 73.6439 2.21678 73.8229 2.57149 74.0316C3.28089 74.3896 4.01986 74.658 4.78838 74.8668C6.29587 75.3142 7.83292 75.6424 9.36996 75.881C12.4441 76.3881 15.5181 76.6565 18.474 76.8355C24.4153 77.1636 29.9723 77.0443 34.7017 76.6565C39.431 76.2687 43.3623 75.6125 46.0226 74.7475C47.3527 74.3299 48.3282 73.8527 48.8898 73.3456C49.1558 73.107 49.3036 72.8385 49.3627 72.6596C49.4218 72.4806 49.3923 72.3911 49.4218 72.3911H49.0376C48.9785 72.4209 49.0967 72.6596 48.6238 73.107Z" fill="#C17A49"/>
<path d="M1.50693 73.4649C1.80251 73.7333 2.15721 73.9421 2.51192 74.1211C3.22132 74.479 3.96029 74.7475 4.72881 74.9861C6.2363 75.4335 7.8029 75.7616 9.33995 76.0002C12.414 76.5073 15.4881 76.7758 18.444 76.9547C24.3853 77.2828 29.9423 77.1635 34.6717 76.7758C39.401 76.388 43.3323 75.7318 45.9926 74.8668C47.3227 74.4492 48.3277 73.9421 48.8893 73.435C49.1554 73.1666 49.3327 72.928 49.3918 72.7192C49.4214 72.6297 49.4214 72.5402 49.4214 72.5104C49.4214 72.4507 49.4214 72.4209 49.4214 72.4209H49.3623C49.3623 72.4209 49.3623 72.5104 49.3032 72.6893C49.244 72.8683 49.0962 73.1069 48.8302 73.3754C48.2686 73.8825 47.2932 74.3597 45.963 74.7773C43.3323 75.6423 39.401 76.2985 34.6421 76.6863C29.9127 77.074 24.3557 77.1934 18.4144 76.8652C15.4586 76.6863 12.3845 76.4178 9.31039 75.9108C7.77334 75.6423 6.2363 75.344 4.72881 74.8966C3.96029 74.658 3.22132 74.3895 2.51192 74.0614C2.15721 73.8825 1.80251 73.6737 1.50693 73.4052C1.21134 73.1368 0.945312 72.8087 0.945312 72.4209C0.945312 72.8683 1.21134 73.1964 1.50693 73.4649Z" fill="#C17A49"/>
<path d="M49.4219 40.4454C49.4219 40.5051 49.4219 40.5648 49.3923 40.6542C49.3332 40.8332 49.1854 41.1017 48.8898 41.3701C48.3282 41.8772 47.3232 42.3544 45.9931 42.8019C43.3328 43.6669 39.4015 44.3231 34.6721 44.7108C29.9428 45.0986 24.3857 45.2179 18.4445 44.8898C15.4886 44.7108 12.4145 44.4424 9.34042 43.9353C7.80338 43.6669 6.26633 43.3686 4.72928 42.9212C3.96076 42.6825 3.2218 42.4141 2.51239 42.0562C2.15769 41.8772 1.80298 41.6684 1.5074 41.3999C1.21181 41.1315 0.945785 40.8034 0.916226 40.356H0.561523C0.561523 40.6542 0.650199 40.9227 0.797992 41.1315C0.857109 41.2508 0.945785 41.3403 1.03446 41.4298C1.12314 41.5193 1.18225 41.6087 1.27093 41.6684C1.62563 41.9667 1.98034 42.1755 2.3646 42.3843C3.10356 42.772 3.87208 43.0405 4.64061 43.2493C6.17765 43.7265 7.74426 44.0248 9.28131 44.2932C12.385 44.8003 15.4591 45.0688 18.4445 45.2477C24.4153 45.5759 29.9723 45.4565 34.7312 45.0688C39.4902 44.681 43.451 44.0248 46.1409 43.13C47.5006 42.6825 48.5351 42.2053 49.1558 41.6386C49.481 41.3403 49.6879 41.042 49.747 40.7735C49.8061 40.6542 49.8061 40.5349 49.8061 40.4753C49.8061 40.4156 49.8061 40.356 49.8061 40.356H49.4219C49.4514 40.3858 49.4514 40.4156 49.4219 40.4454Z" fill="#C17A49"/>
<path d="M48.6238 41.042C48.1508 41.4895 47.1754 41.9667 45.9044 42.3843C43.3032 43.2195 39.4015 43.8757 34.6721 44.2635C29.9427 44.6512 24.4153 44.7705 18.5036 44.4424C15.5477 44.2635 12.5032 43.995 9.42908 43.4879C7.89203 43.2195 6.35499 42.9212 4.87706 42.4738C4.13809 42.2352 3.39913 41.9965 2.71928 41.6386C2.39414 41.4596 2.06899 41.2807 1.80296 41.042C1.53694 40.8034 1.35959 40.5648 1.35959 40.3262H1.00488C1.00488 40.7139 1.27091 41.0719 1.5665 41.3105C1.86208 41.5789 2.21678 41.7579 2.57149 41.9667C3.28089 42.3246 4.01986 42.5931 4.78838 42.8019C6.29587 43.2493 7.83292 43.5774 9.36996 43.816C12.4441 44.3231 15.5181 44.5916 18.474 44.7705C24.4153 45.0987 29.9723 44.9793 34.7017 44.5916C39.431 44.2038 43.3623 43.5476 46.0226 42.6826C47.3527 42.265 48.3282 41.7877 48.8898 41.2807C49.1558 41.042 49.3036 40.7736 49.3627 40.5946C49.4218 40.4157 49.3923 40.3262 49.4218 40.3262H49.0376C48.9785 40.356 49.0967 40.5946 48.6238 41.042Z" fill="#C17A49"/>
<path d="M1.50693 41.3999C1.80251 41.6684 2.15721 41.8772 2.51192 42.0562C3.22132 42.4141 3.96029 42.6825 4.72881 42.9212C6.2363 43.3686 7.8029 43.6967 9.33995 43.9353C12.414 44.4424 15.4881 44.7108 18.444 44.8898C24.3853 45.2179 29.9423 45.0986 34.6717 44.7108C39.401 44.3231 43.3323 43.6669 45.9926 42.8019C47.3227 42.3843 48.3277 41.8772 48.8893 41.3701C49.1554 41.1017 49.3327 40.863 49.3918 40.6542C49.4214 40.5648 49.4214 40.4753 49.4214 40.4454C49.4214 40.3858 49.4214 40.356 49.4214 40.356H49.3623C49.3623 40.356 49.3623 40.4454 49.3032 40.6244C49.244 40.8034 49.0962 41.042 48.8302 41.3105C48.2686 41.8175 47.2932 42.2948 45.963 42.7124C43.3323 43.5774 39.401 44.2336 34.6421 44.6214C29.9127 45.0091 24.3557 45.1284 18.4144 44.8003C15.4586 44.6214 12.3845 44.3529 9.31039 43.8458C7.77334 43.5774 6.2363 43.2791 4.72881 42.8317C3.96029 42.5931 3.22132 42.3246 2.51192 41.9965C2.15721 41.8175 1.80251 41.6087 1.50693 41.3403C1.21134 41.0718 0.945312 40.7437 0.945312 40.356C0.945312 40.8034 1.21134 41.1613 1.50693 41.3999Z" fill="#C17A49"/>
<path d="M49.2745 31.2285C49.1858 31.3777 49.0676 31.497 48.9198 31.6461C48.3582 32.1532 47.3532 32.6304 46.023 33.0778C43.5401 33.8832 39.934 34.5096 35.5889 34.8974V35.2851C39.9635 34.8675 43.5992 34.2411 46.1413 33.4358C47.501 32.9884 48.5355 32.5111 49.1563 31.9444C49.2449 31.8549 49.3336 31.7654 49.3927 31.7058C49.3336 31.5268 49.3041 31.3777 49.2745 31.2285Z" fill="#C17A49"/>
<path d="M49.127 30.6318H49.0087C48.9792 30.6318 49.0974 30.8705 48.5949 31.3179C48.122 31.7653 47.1465 32.2425 45.8755 32.6601C43.4517 33.4357 39.8751 34.0621 35.5596 34.4796V34.8674C39.9047 34.4796 43.5108 33.8533 45.9642 33.0479C47.2943 32.6303 48.2698 32.1531 48.8314 31.646C49.0087 31.467 49.127 31.3179 49.2156 31.1687C49.1861 30.9599 49.1565 30.8108 49.127 30.6318Z" fill="#C17A49"/>
<path d="M49.2449 31.1392C49.1563 31.2883 49.038 31.4374 48.8607 31.6164C48.2991 32.1235 47.3236 32.6007 45.9935 33.0183C43.5106 33.8237 39.9044 34.4501 35.5889 34.8378V34.8975C39.934 34.5097 43.5401 33.8833 46.023 33.078C47.3532 32.6604 48.3582 32.1533 48.9198 31.6462C49.0676 31.4971 49.1858 31.348 49.2745 31.2286C49.2449 31.1988 49.2449 31.169 49.2449 31.1392Z" fill="#C17A49"/>
<path d="M25.0947 9.30495V8.43994C25.0947 8.43994 25.1538 8.43994 25.2425 8.43994C25.3608 8.43994 25.5085 8.43994 25.745 8.46977C26.1884 8.46977 26.8091 8.52943 27.6072 8.64874C29.1738 8.91719 31.4203 9.63306 33.6372 11.1841C35.8836 12.7352 38.0414 15.1214 39.7558 18.0147C41.4406 20.908 42.6821 24.3084 43.3324 27.8281C43.6575 29.588 43.8644 31.3478 43.9235 33.1077C43.9531 33.9727 43.9531 34.8676 43.9531 35.6729C43.9531 36.5081 43.9531 37.3433 43.9531 38.1486C43.9531 41.3999 43.9531 44.4722 43.9531 47.0672C43.9531 52.2871 43.9531 75.1652 43.9531 75.1652H43.0959C43.0959 75.1652 43.0959 52.2871 43.0959 47.0672C43.0959 44.4423 43.0959 41.3999 43.0959 38.1486C43.0959 36.5081 43.1255 34.8377 43.0663 33.1077C43.0072 31.4075 42.8003 29.6775 42.4752 27.9475C41.8249 24.5471 40.6425 21.2362 38.9873 18.4323C37.3615 15.6285 35.2629 13.3616 33.1347 11.8702C31.0064 10.3788 28.9078 9.69272 27.4299 9.45409C26.6909 9.33478 26.0997 9.27513 25.6859 9.27513C25.3016 9.30495 25.0947 9.30495 25.0947 9.30495Z" fill="#C17A49"/>
<path d="M25.0947 10.0506V9.18555C25.0947 9.18555 25.3016 9.18555 25.7155 9.21537C26.1293 9.21537 26.7204 9.27503 27.4594 9.39434C28.9373 9.63297 31.0656 10.319 33.1938 11.8104C35.322 13.3018 37.4502 15.5986 39.0759 18.4024C40.7312 21.2361 41.9136 24.547 42.5638 27.9772C42.889 29.6774 43.0959 31.4372 43.155 33.1374C43.2141 34.8675 43.1846 36.5378 43.1846 38.1784C43.1846 41.4296 43.1846 44.5019 43.1846 47.0969C43.1846 52.3168 43.1846 75.1949 43.1846 75.1949H42.3274C42.3274 75.1949 42.3274 52.3168 42.3274 47.0969C42.3274 44.4721 42.3274 41.4296 42.3274 38.1784C42.3274 37.373 42.3274 36.5378 42.3274 35.7026C42.3274 34.8675 42.3274 34.0323 42.2978 33.1971C42.2387 31.5267 42.0318 29.8265 41.7362 28.1562C41.1155 24.8154 39.9331 21.594 38.337 18.8796C36.7408 16.1653 34.7308 13.958 32.6913 12.5561C30.6517 11.1244 28.6713 10.498 27.2821 10.2594C26.5727 10.14 26.0406 10.1102 25.6563 10.0804C25.479 10.0804 25.3312 10.0804 25.213 10.0506C25.1538 10.0506 25.0947 10.0506 25.0947 10.0506Z" fill="#C17A49"/>
<path d="M25.0947 9.18555V10.0506C25.0652 10.0506 24.8583 10.0506 24.4149 10.1102C24.0011 10.1699 23.3803 10.3488 22.6709 10.8261C21.2226 11.7508 19.5968 13.9282 18.3554 16.9408C17.1139 19.9236 16.168 23.682 15.6656 27.7982C15.4291 29.8563 15.2517 31.9741 15.2517 34.1516C15.2222 36.329 15.2517 38.5661 15.2517 40.8032C15.2517 58.6404 15.2517 76.5073 15.2517 76.5073H14.3945C14.3945 76.5073 14.3945 58.6702 14.3945 40.8032C14.3945 38.5661 14.3945 36.329 14.3945 34.1516C14.4241 31.9443 14.5719 29.7967 14.8379 27.7087C15.3404 23.5626 16.2863 19.7148 17.5869 16.6425C18.8283 13.5106 20.5427 11.1542 22.198 10.0804C23.0256 9.54348 23.7646 9.30486 24.2967 9.2452C24.5627 9.18555 24.7696 9.21537 24.8878 9.18555C25.0356 9.18555 25.0947 9.18555 25.0947 9.18555Z" fill="#C17A49"/>
<path d="M25.0944 8.43994V9.30495C25.0944 9.30495 24.8284 9.30495 24.3259 9.36461C23.8234 9.42427 23.0845 9.66289 22.2864 10.1998C20.6311 11.2438 18.9463 13.5704 17.6752 16.6426C16.4042 19.7149 15.4583 23.5329 14.9559 27.679C14.7194 29.767 14.542 31.9146 14.5125 34.092C14.4829 36.2993 14.5125 38.5066 14.5125 40.7437C14.5125 58.5808 14.5125 76.4478 14.5125 76.4478H13.6553C13.6553 76.4478 13.6553 58.6106 13.6553 40.7437C13.6553 38.5066 13.6553 36.2993 13.6553 34.0622C13.6848 31.8251 13.8326 29.6476 14.0987 27.5597C14.6011 23.3539 15.5766 19.4763 16.8772 16.2847C18.1777 13.1229 19.9513 10.677 21.7839 9.45409C22.7002 8.85753 23.5574 8.58908 24.1781 8.4996C24.4737 8.43994 24.7102 8.43994 24.858 8.43994C25.0353 8.43994 25.0944 8.43994 25.0944 8.43994Z" fill="#C17A49"/>
<path d="M25.0947 9.18555V10.0506C25.1243 10.0506 25.3312 10.0506 25.7746 10.1102C26.1884 10.1699 26.8091 10.3488 27.5185 10.8261C28.9669 11.7508 30.6222 13.9282 31.8341 16.9408C33.0755 19.9236 34.0214 23.682 34.5239 27.7982C34.7604 29.8563 34.9377 31.9741 34.9377 34.1516C34.9673 36.329 34.9377 38.5661 34.9377 40.8032C34.9377 58.6404 34.9377 76.5073 34.9377 76.5073H35.7949C35.7949 76.5073 35.7949 58.6702 35.7949 40.8032C35.7949 38.5661 35.7949 36.329 35.7949 34.1516C35.7654 31.9443 35.6176 29.7967 35.3516 27.7087C34.8491 23.5626 33.9032 19.7148 32.6026 16.6425C31.3316 13.5404 29.6172 11.2139 27.9619 10.14C27.1343 9.60314 26.3953 9.36451 25.8632 9.30486C25.5972 9.2452 25.3903 9.27503 25.2721 9.2452C25.1538 9.18555 25.0947 9.18555 25.0947 9.18555Z" fill="#C17A49"/>
<path d="M25.0947 8.43994V9.30495C25.0947 9.30495 25.3608 9.30495 25.8632 9.36461C26.3657 9.42427 27.1047 9.66289 27.9028 10.1998C29.5581 11.2438 31.2429 13.5704 32.5139 16.6426C33.785 19.7149 34.7308 23.5329 35.2333 27.679C35.4698 29.767 35.6471 31.9146 35.6767 34.092C35.7063 36.2993 35.6767 38.5066 35.6767 40.7437C35.6767 58.5808 35.6767 76.4478 35.6767 76.4478H36.5339C36.5339 76.4478 36.5339 58.6106 36.5339 40.7437C36.5339 38.5066 36.5339 36.2993 36.5339 34.0622C36.5043 31.8251 36.3565 29.6476 36.0905 27.5597C35.588 23.3539 34.6126 19.4763 33.312 16.2847C32.0114 13.1229 30.2379 10.6472 28.4053 9.45409C27.489 8.85753 26.6318 8.58908 26.011 8.4996C25.7155 8.43994 25.479 8.43994 25.3312 8.43994C25.1538 8.43994 25.0947 8.43994 25.0947 8.43994Z" fill="#C17A49"/>
<path d="M25.0954 9.18555V10.0506C25.0954 10.0506 25.0067 10.0506 24.8885 10.0506C24.7407 10.0506 24.5338 10.0506 24.2677 10.0804C24.0017 10.0804 23.6766 10.0804 23.2627 10.14C22.8785 10.1699 22.4351 10.1997 21.9326 10.2892C19.9522 10.5278 17.085 11.2437 14.07 12.9439C12.5625 13.8089 11.0255 14.9125 9.60667 16.2846C8.89727 16.9707 8.18786 17.7164 7.53757 18.5515C6.88728 19.3867 6.26655 20.2517 5.70494 21.1764C4.58171 23.0556 3.69496 25.1435 3.10378 27.3508C2.8082 28.4544 2.57173 29.5879 2.4535 30.7512C2.36482 31.2881 2.36482 31.8847 2.3057 32.4514C2.3057 33.0479 2.27614 33.6147 2.27614 34.2112C2.27614 53.4503 2.27614 72.7192 2.27614 72.7192H1.41895C1.41895 72.7192 1.41895 53.4801 1.41895 34.2112C1.41895 33.6147 1.4485 33.0181 1.4485 32.3917C1.50762 31.7952 1.50762 31.1986 1.5963 30.6021C1.74409 29.4089 1.951 28.2456 2.27614 27.0823C2.86732 24.7856 3.81319 22.638 4.96597 20.6992C5.52759 19.7148 6.17788 18.82 6.85772 17.9848C7.53757 17.1496 8.24698 16.3741 8.98594 15.6284C10.4639 14.1967 12.06 13.0632 13.6266 12.1683C16.7598 10.4085 19.7157 9.6628 21.7848 9.39434C22.3169 9.30486 22.7602 9.27503 23.1741 9.2452C23.5879 9.21538 23.913 9.21537 24.2086 9.18555C24.7998 9.18555 25.0954 9.18555 25.0954 9.18555Z" fill="#C17A49"/>
<path d="M25.0951 8.43998V9.305C25.0951 9.305 24.7995 9.305 24.2379 9.33482C23.9719 9.33482 23.6171 9.33482 23.2033 9.39448C22.7895 9.42431 22.3461 9.45414 21.8141 9.54362C19.745 9.81207 16.8187 10.5279 13.6855 12.2878C12.1484 13.1826 10.5523 14.3161 9.07433 15.7478C8.33536 16.4637 7.62596 17.2392 6.94611 18.0744C6.29582 18.9394 5.61597 19.8045 5.05436 20.7888C3.90157 22.7276 2.9557 24.8752 2.36453 27.1421C2.06894 28.2756 1.83247 29.4389 1.68468 30.632C1.596 31.2286 1.56644 31.8251 1.53689 32.4217C1.53689 33.0183 1.50733 33.6148 1.50733 34.2114C1.50733 53.4504 1.50733 72.7193 1.50733 72.7193H0.679688C0.679688 72.7193 0.679688 53.4803 0.679688 34.2114C0.679688 33.6148 0.709246 32.9884 0.709246 32.362C0.768363 31.7356 0.797922 31.1391 0.886598 30.5127C1.03439 29.2898 1.27086 28.0668 1.56645 26.9035C2.18718 24.5471 3.16261 22.31 4.34495 20.3115C4.93612 19.2974 5.61597 18.3727 6.29582 17.5077C7.00522 16.6427 7.74419 15.8373 8.51271 15.0916C10.0498 13.6301 11.705 12.4369 13.3012 11.5123C16.5526 9.69276 19.5972 8.91723 21.7254 8.64878C22.2575 8.5593 22.7304 8.52947 23.1442 8.49964C23.558 8.46981 23.9127 8.43998 24.2083 8.43998C24.5039 8.43998 24.7108 8.43998 24.8586 8.41016C25.0064 8.43998 25.0951 8.43998 25.0951 8.43998Z" fill="#C17A49"/>
<path d="M25.0947 9.30495V8.43994C25.0947 8.43994 25.1834 8.43994 25.3016 8.43994C25.4494 8.43994 25.6859 8.43994 25.9519 8.46977C26.2475 8.46977 26.6022 8.46977 27.016 8.52943C27.4299 8.55925 27.9028 8.58908 28.4644 8.67857C30.5926 8.94702 33.6667 9.69272 36.8886 11.5421C38.4848 12.4667 40.14 13.6598 41.6771 15.1214C42.4456 15.8671 43.1846 16.6725 43.894 17.5375C44.5738 18.4323 45.2537 19.3272 45.8449 20.3413C47.0272 22.3398 48.0026 24.5769 48.6234 26.9333C48.9485 28.1264 49.185 29.3195 49.3032 30.5425C49.3919 31.1689 49.4214 31.7654 49.4806 32.3918C49.4806 33.0182 49.5101 33.6446 49.5101 34.2412C49.5101 53.4802 49.5101 73.5843 49.5101 73.5843H48.6529C48.6529 73.5843 48.6529 53.4802 48.6529 34.2412C48.6529 33.6446 48.6234 33.048 48.6234 32.4515C48.5642 31.8549 48.5642 31.2584 48.4756 30.6618C48.3573 29.4687 48.1209 28.3054 47.7957 27.1719C47.2045 24.8752 46.2587 22.7276 45.1059 20.8186C44.5443 19.8342 43.894 18.9692 43.2141 18.1042C42.5343 17.269 41.8249 16.4935 41.0859 15.7776C39.608 14.3459 38.0118 13.2124 36.4748 12.3176C33.3416 10.5577 30.4153 9.81203 28.3462 9.5734C27.8437 9.48392 27.3707 9.45409 26.9569 9.42426C26.5431 9.39444 26.218 9.39444 25.9224 9.36461C25.3903 9.30495 25.0947 9.30495 25.0947 9.30495Z" fill="#C17A49"/>
<path d="M25.0947 10.0506V9.18555C25.0947 9.18555 25.3903 9.18555 25.9519 9.21537C26.218 9.21537 26.5727 9.21537 26.9865 9.27503C27.4003 9.30486 27.8437 9.33469 28.3757 9.42417C30.4448 9.69262 33.4007 10.4085 36.5339 12.1982C38.1005 13.093 39.6967 14.2563 41.1746 15.6582C41.9136 16.3741 42.623 17.1496 43.3028 18.0146C43.9827 18.8796 44.633 19.7745 45.1946 20.729C46.3474 22.6678 47.2932 24.8154 47.8844 27.1122C48.18 28.2456 48.4165 29.4388 48.5642 30.6319C48.6529 31.2284 48.6825 31.825 48.712 32.4216C48.712 33.0181 48.7416 33.6147 48.7416 34.2411C48.7416 53.4801 48.7416 73.5544 48.7416 73.5544L47.8844 73.614C47.8844 73.614 47.8844 53.4801 47.8844 34.2411C47.8844 33.6445 47.8548 33.0778 47.8548 32.4812C47.7957 31.9145 47.7957 31.3179 47.707 30.7512C47.5888 29.5879 47.3523 28.4544 47.0568 27.3508C46.4656 25.1435 45.5788 23.0556 44.4556 21.1764C43.894 20.2219 43.2733 19.3569 42.623 18.5515C41.9727 17.7462 41.2633 16.9707 40.5539 16.2846C39.1055 14.9125 37.5685 13.8089 36.0905 12.9439C33.0755 11.2437 30.2084 10.5278 28.2279 10.2892C27.7254 10.1997 27.2821 10.1699 26.8978 10.14C26.5431 10.0804 26.1884 10.0804 25.9224 10.0804C25.6563 10.0804 25.4494 10.0804 25.3016 10.0506C25.1834 10.0506 25.0947 10.0506 25.0947 10.0506Z" fill="#C17A49"/>
<path d="M28.82 4.86061H29.6772C29.6772 4.86061 29.6772 4.97992 29.6476 5.21855C29.6476 5.33786 29.6181 5.45717 29.5885 5.63614C29.559 5.78528 29.5294 5.99408 29.4703 6.17304C29.2634 6.9784 28.6722 8.14169 27.4898 8.94705C26.8987 9.33481 26.1597 9.63309 25.3321 9.7524C24.5044 9.84189 23.6177 9.72258 22.79 9.36464C22.3762 9.18567 21.992 8.91722 21.6372 8.64877C21.2825 8.35049 20.987 7.99255 20.7209 7.60479C20.4549 7.21702 20.248 6.7696 20.1298 6.32218C19.982 5.84494 19.9229 5.36769 19.9229 4.89044C19.9229 4.41319 19.982 3.93594 20.1298 3.4587C20.2776 3.01128 20.4845 2.56386 20.7209 2.17609C20.987 1.78833 21.3121 1.43039 21.6372 1.13211C21.992 0.833832 22.3762 0.595208 22.79 0.41624C23.6177 0.0583037 24.5044 -0.0610082 25.3321 0.0284758C26.1597 0.11796 26.8987 0.41624 27.4898 0.833832C28.7018 1.63919 29.2634 2.80248 29.4703 3.60784C29.5294 3.81663 29.559 3.9956 29.5885 4.14474C29.6181 4.29388 29.6476 4.44302 29.6476 4.56233C29.6476 4.80096 29.6772 4.92027 29.6772 4.92027H28.82C28.82 4.92027 28.82 4.83078 28.82 4.62199C28.82 4.5325 28.7904 4.41319 28.7904 4.29388C28.7904 4.14474 28.7313 3.9956 28.7018 3.84646C28.5244 3.19024 28.0515 2.23575 27.076 1.5497C26.5735 1.2216 25.9824 0.982972 25.3025 0.893488C24.6227 0.804004 23.8837 0.923316 23.2334 1.2216C22.9083 1.37074 22.5831 1.57953 22.2875 1.81816C21.992 2.05678 21.7555 2.35506 21.519 2.68317C21.3121 3.01128 21.1348 3.36921 21.0165 3.75698C20.8983 4.14474 20.8392 4.5325 20.8392 4.92027C20.8392 5.30803 20.8983 5.72562 21.0165 6.08356C21.1348 6.47132 21.3121 6.82926 21.519 7.15737C21.7259 7.48548 21.992 7.78376 22.2875 8.02238C22.5831 8.261 22.9083 8.4698 23.2334 8.61894C23.9133 8.91722 24.6522 9.0067 25.3025 8.94705C25.9824 8.85756 26.5735 8.61894 27.076 8.29083C28.081 7.60479 28.554 6.68012 28.7018 5.99408C28.7609 5.81511 28.7904 5.66597 28.7904 5.54666C28.82 5.42734 28.82 5.30803 28.82 5.21855C28.82 4.9501 28.82 4.86061 28.82 4.86061Z" fill="#C17A49"/>
<path d="M28.0811 4.8603H28.9678C28.9678 4.8603 28.9678 4.94978 28.9678 5.15858C28.9678 5.24806 28.9383 5.36737 28.9383 5.51652C28.9087 5.66566 28.8791 5.81479 28.8496 5.99376C28.6722 6.67981 28.1993 7.66413 27.1647 8.35017C26.6622 8.67828 26.0415 8.94673 25.3321 9.03622C24.6523 9.1257 23.8837 9.00639 23.1743 8.70811C22.7901 8.52914 22.4649 8.29052 22.1693 8.05189C21.8737 7.78344 21.6077 7.48516 21.3713 7.15705C21.1643 6.82895 20.987 6.44118 20.8688 6.05342C20.7505 5.66565 20.6914 5.24806 20.6914 4.83047C20.6914 4.41288 20.7505 4.02512 20.8688 3.60752C20.987 3.21976 21.1643 2.832 21.3713 2.50389C21.6077 2.17578 21.8737 1.8775 22.1693 1.60905C22.4649 1.37042 22.7901 1.1318 23.1448 0.982659C23.8542 0.684379 24.5931 0.565067 25.3025 0.654551C25.9824 0.744035 26.6327 0.982659 27.1352 1.3406C28.1697 2.02664 28.6427 3.01096 28.82 3.69701C28.8791 3.87598 28.9087 4.02512 28.9087 4.17425C28.9383 4.32339 28.9383 4.44271 28.9383 4.53219C28.9383 4.71116 28.9383 4.83047 28.9383 4.83047H28.0811C28.0811 4.83047 28.0811 4.74099 28.0811 4.59185C28.0811 4.50236 28.0811 4.41288 28.0515 4.32339C28.0515 4.20408 28.0219 4.08477 27.9628 3.96546C27.815 3.42856 27.4308 2.65303 26.6327 2.0863C26.2189 1.81784 25.7459 1.60905 25.1843 1.54939C24.6227 1.48974 24.0315 1.57922 23.4995 1.81784C23.2334 1.93716 22.9674 2.11612 22.7309 2.29509C22.4945 2.50389 22.2876 2.74251 22.1102 3.01096C21.9329 3.27942 21.8146 3.57769 21.6964 3.87597C21.6077 4.17425 21.5782 4.50236 21.5486 4.83047C21.5486 5.15858 21.6077 5.48669 21.6964 5.78497C21.7851 6.08325 21.9329 6.38153 22.1102 6.64998C22.2876 6.91843 22.4945 7.15705 22.7309 7.36585C22.9674 7.57465 23.2334 7.72379 23.4995 7.8431C24.0611 8.08172 24.6523 8.17121 25.1843 8.11155C25.7459 8.05189 26.2189 7.8431 26.6327 7.57465C27.4308 7.03774 27.815 6.26221 27.9628 5.69548C27.9924 5.54634 28.0219 5.42703 28.0515 5.33755C28.0811 5.21824 28.0811 5.12875 28.0811 5.0691C28.0811 4.94978 28.0811 4.8603 28.0811 4.8603Z" fill="#DC9A6D"/>
<path d="M45.3128 75.2842C40.7017 76.4475 33.4007 77.1932 25.1834 77.1932C16.9662 77.1932 9.66518 76.4475 5.05404 75.2842C2.71892 74.6877 1.0932 73.9718 0.383789 73.1963L3.8717 79.8181C3.8717 82.085 13.4191 83.9344 25.1834 83.9344C36.9478 83.9344 46.4952 82.085 46.4952 79.8181L49.9535 73.2559C49.2146 74.0016 47.5888 74.6877 45.3128 75.2842Z" fill="#C17A49"/>
<circle cx="24.6992" cy="47.5" r="21.5" fill="#4D9071"/>
<path d="M37.5655 46.8473C37.0181 43.8263 35.3453 41.0688 32.7704 39.1934C32.8515 38.9501 32.9022 38.6763 32.9022 38.4026C32.9022 37.0746 31.8276 36 30.4995 36C29.6176 36 28.8471 36.4765 28.4314 37.176C27.367 36.9023 26.2113 36.7603 24.9948 36.7502C23.7783 36.7603 22.6327 36.9124 21.5581 37.176C21.1222 36.4765 20.3517 36 19.4697 36C18.1417 36 17.0671 37.0746 17.0671 38.4026C17.0671 38.6763 17.1178 38.9399 17.1989 39.1934C14.6239 41.0688 12.9512 43.8364 12.4038 46.8473C11.2177 53.4368 15.1612 60.1784 24.9745 60.3C34.7979 60.1885 38.7516 53.4368 37.5655 46.8473Z" fill="#FFF0CF"/>
<path d="M32.0411 38.4026C32.0411 38.504 32.0309 38.5952 32.0106 38.6865C31.1794 38.1695 30.267 37.7437 29.2836 37.4294C29.5675 37.0847 30.0034 36.8617 30.49 36.8617C31.3517 36.8617 32.0411 37.5511 32.0411 38.4026ZM25.3603 51.4194C25.3603 54.5114 27.8441 57.0154 30.9056 57.0154C33.9672 57.0154 36.4509 54.5114 36.4509 51.4194C36.4509 47.4961 30.4799 39.8118 28.3814 39.6597C25.9179 39.4772 25.3603 48.662 25.3603 51.4194ZM17.9497 38.6865C17.9294 38.5952 17.9193 38.504 17.9193 38.4026C17.9193 37.5511 18.6086 36.8516 19.4703 36.8516C19.957 36.8516 20.3929 37.0746 20.6767 37.4193C19.6934 37.7538 18.781 38.1796 17.9497 38.6865ZM26.2018 56.1131C26.2018 56.2956 25.9889 56.5389 25.6746 56.7011L25.3603 56.8735V57.3601C25.4516 57.4919 25.5631 57.5831 25.6847 57.6541C25.8368 57.7453 25.999 57.7859 26.1713 57.7859C26.3336 57.7859 26.5059 57.7352 26.6478 57.6439C26.7897 57.5527 26.9215 57.431 27.0229 57.2587L27.0939 57.1472L27.7325 57.5223L27.6616 57.6338C27.4994 57.9177 27.2764 58.1305 27.0331 58.2826C26.7695 58.4448 26.4755 58.5259 26.1713 58.5259C25.8774 58.5259 25.5732 58.4549 25.3096 58.2927C25.1981 58.2319 25.0866 58.1508 24.9954 58.0494C24.894 58.1407 24.7926 58.2218 24.6811 58.2927C24.4175 58.4448 24.1134 58.5259 23.8194 58.5259C23.5254 58.5259 23.2213 58.4448 22.9577 58.2826C22.7144 58.1305 22.5015 57.9177 22.3292 57.6338L22.2582 57.5223L22.8969 57.1472L22.9678 57.2587C23.0692 57.431 23.201 57.5628 23.3429 57.6439C23.495 57.7352 23.6572 57.7859 23.8194 57.7859C23.9816 57.7859 24.154 57.7453 24.306 57.6541C24.4277 57.5831 24.5392 57.4817 24.6304 57.3601V56.8735L24.3162 56.7011C23.9917 56.5389 23.789 56.2855 23.789 56.1131C23.789 55.8293 24.3364 55.4947 25.0055 55.4947C25.6543 55.4947 26.2018 55.8293 26.2018 56.1131ZM24.6101 51.4194C24.6101 54.5114 22.1264 57.0154 19.0648 57.0154C16.0033 57.0154 13.5195 54.5114 13.5195 51.4194C13.5195 47.4961 19.4906 39.8118 21.5891 39.6597C24.0526 39.4772 24.6101 48.662 24.6101 51.4194Z" fill="#AB4F27"/>
<path d="M23.728 51.5002C23.728 54.0752 21.6397 56.1636 19.0647 56.1636C16.4897 56.1636 14.4014 54.0752 14.4014 51.5002C14.4014 48.9253 16.4897 46.8369 19.0647 46.8369C21.6397 46.8369 23.728 48.9253 23.728 51.5002ZM35.5688 51.5002C35.5688 54.0752 33.4805 56.1636 30.9055 56.1636C28.3305 56.1636 26.2422 54.0752 26.2422 51.5002C26.2422 48.9253 28.3305 46.8369 30.9055 46.8369C33.4805 46.8369 35.5688 48.9253 35.5688 51.5002Z" fill="#FF992B"/>
<path d="M22.8361 51.5006C22.8361 53.589 21.1432 55.2819 19.0548 55.2819C16.9664 55.2819 15.2734 53.589 15.2734 51.5006C15.2734 49.4122 16.9664 47.7192 19.0548 47.7192C21.1533 47.7192 22.8361 49.4122 22.8361 51.5006ZM34.6871 51.5006C34.6871 53.589 32.9941 55.2819 30.9057 55.2819C28.8174 55.2819 27.1244 53.589 27.1244 51.5006C27.1244 49.4122 28.8174 47.7192 30.9057 47.7192C32.9941 47.7192 34.6871 49.4122 34.6871 51.5006Z" fill="black"/>
<path d="M30.1145 50.3143C30.1145 51.2165 29.3846 51.9465 28.4824 51.9465C27.5801 51.9465 26.8502 51.2165 26.8502 50.3143C26.8502 49.412 27.5801 48.6821 28.4824 48.6821C29.3846 48.6821 30.1145 49.412 30.1145 50.3143ZM18.2839 50.3143C18.2839 51.2165 17.5539 51.9465 16.6517 51.9465C15.7494 51.9465 15.0195 51.2165 15.0195 50.3143C15.0195 49.412 15.7494 48.6821 16.6517 48.6821C17.5438 48.6821 18.2839 49.412 18.2839 50.3143ZM22.5113 53.7104C22.5113 54.1159 22.1869 54.4403 21.7814 54.4403C21.3759 54.4403 21.0514 54.1159 21.0514 53.7104C21.0514 53.3049 21.3759 52.9805 21.7814 52.9805C22.1869 52.9805 22.5113 53.315 22.5113 53.7104ZM34.3521 53.7104C34.3521 54.1159 34.0277 54.4403 33.6222 54.4403C33.2167 54.4403 32.8922 54.1159 32.8922 53.7104C32.8922 53.3049 33.2167 52.9805 33.6222 52.9805C34.0277 52.9805 34.3521 53.3049 34.3521 53.7104Z" fill="white"/>
</svg>
