<svg width="139" height="94" viewBox="0 0 139 94" fill="none" xmlns="http://www.w3.org/2000/svg">
<path d="M5.15153 75.4828C3.4799 76.1605 1.74814 76.9714 0.713887 78.4601C-0.320362 79.9487 -0.296309 82.3209 1.21898 83.3133C2.60199 84.221 4.98317 83.9911 5.35598 85.6129C5.57245 86.5327 4.86291 87.4404 4.83885 88.3844C4.80278 90.3572 7.37637 91.0834 9.33663 91.1802C18.9696 91.6764 28.5905 92.1847 38.2234 92.6809C64.0436 94.0244 90.1042 95.3557 115.624 91.1681C119.592 90.5145 123.633 89.7036 127.145 87.7188C128.347 87.041 129.61 85.976 129.55 84.5962C129.502 83.3254 128.359 82.3814 127.253 81.752C125.581 80.7959 123.765 80.1182 121.877 79.743C119.087 79.1862 116.021 79.2589 113.7 77.6129C112.761 76.9472 112.016 76.0516 111.114 75.3375C108.697 73.4253 105.438 73.038 102.359 72.8927C96.2857 72.6265 90.2004 73.0501 84.1272 72.8564C76.7312 72.6265 69.3952 71.4767 62.0352 70.811C54.4347 70.1333 46.8101 69.9517 39.1855 69.7823C33.6535 69.9154 28.386 69.0924 22.9983 70.4117C16.9251 71.8882 10.9842 73.1106 5.15153 75.4828Z" fill="#4D9071"/>
<path d="M17.5869 75.2769C17.5869 75.2769 27.5566 76.3782 40.3885 81.8245C53.2204 87.2708 69.4076 92.0514 69.4076 92.0514L117.753 81.4372L69.4076 75.2769H17.5869Z" fill="#357C50"/>
<path d="M100.699 79.1255C102.07 79.1739 103.453 79.2224 104.824 79.3797C104.993 79.3918 105.149 79.416 105.317 79.4402C105.341 79.4402 105.486 79.4644 105.365 79.4523C105.257 79.4402 105.365 79.4523 105.389 79.4523C105.486 79.4644 105.582 79.4765 105.69 79.5007C106.027 79.5491 106.364 79.6097 106.7 79.6823C107.362 79.8154 108.023 79.9969 108.673 80.2148C108.829 80.2632 108.985 80.3237 109.142 80.3842C109.214 80.4084 109.286 80.4447 109.358 80.469C109.394 80.4811 109.442 80.5053 109.478 80.5174C109.623 80.5779 109.406 80.4811 109.49 80.5174C109.767 80.6384 110.031 80.7715 110.284 80.9289C110.344 80.9652 110.416 81.0136 110.476 81.0499C110.501 81.062 110.525 81.0862 110.549 81.0983C110.645 81.1588 110.428 81.0015 110.513 81.0741C110.621 81.1709 110.741 81.2677 110.837 81.3888C110.861 81.413 110.885 81.4493 110.909 81.4735C110.97 81.5461 110.861 81.413 110.861 81.413C110.873 81.4614 110.957 81.5582 110.982 81.6066C111.018 81.6671 111.042 81.7276 111.078 81.7882C111.126 81.885 111.03 81.6429 111.066 81.7519C111.078 81.8003 111.102 81.8487 111.114 81.885C111.162 82.0181 111.186 82.1634 111.222 82.3086C111.234 82.3812 111.246 82.4417 111.258 82.5143C111.282 82.6596 111.258 82.4901 111.258 82.4659C111.27 82.5143 111.27 82.5628 111.282 82.6112C111.33 82.9742 111.354 83.3373 111.414 83.7004C111.523 84.4024 111.787 85.0196 112.22 85.5643C113.062 86.6293 114.433 87.1013 115.732 87.1981C116.453 87.2587 117.187 87.1981 117.909 87.1134C118.642 87.0287 119.376 86.944 120.121 86.8593C123.032 86.5567 125.99 86.363 128.913 86.714C128.985 86.7261 129.057 86.7261 129.129 86.7382C129.153 86.7382 129.201 86.7503 129.225 86.7503C129.117 86.7745 129.105 86.7382 129.189 86.7503C129.358 86.7745 129.526 86.7988 129.694 86.823C130.031 86.8714 130.356 86.944 130.692 87.0045C131.318 87.1376 131.943 87.295 132.556 87.4886C132.869 87.5854 133.17 87.6944 133.482 87.8033C133.627 87.8638 133.771 87.9122 133.927 87.9727C133.964 87.9848 134 88.009 134.048 88.0211C134.072 88.0332 134.204 88.0817 134.096 88.0453C134 87.9969 134.096 88.0453 134.108 88.0575C134.156 88.0817 134.204 88.0938 134.252 88.118C134.841 88.3842 135.419 88.6868 135.984 89.0136C136.261 89.183 136.537 89.3646 136.802 89.5461C137.162 89.8003 137.752 89.6187 137.944 89.2435C138.173 88.8078 138.028 88.36 137.644 88.0938C135.443 86.5567 132.845 85.6369 130.211 85.2012C127.289 84.7171 124.331 84.7776 121.396 85.0438C120.651 85.1165 119.917 85.1891 119.171 85.2738C118.426 85.3585 117.692 85.4553 116.947 85.5037C116.586 85.5279 116.225 85.5279 115.864 85.5037C115.78 85.5037 115.696 85.4916 115.624 85.4795C115.576 85.4795 115.527 85.4674 115.479 85.4674C115.515 85.4674 115.648 85.4916 115.491 85.4674C115.335 85.4432 115.179 85.4069 115.022 85.3706C114.89 85.3343 114.758 85.298 114.638 85.2496C114.601 85.2375 114.565 85.2254 114.541 85.2133C114.457 85.177 114.613 85.2496 114.613 85.2496C114.541 85.2133 114.469 85.177 114.397 85.1407C114.277 85.0801 114.156 85.0075 114.048 84.9349C113.988 84.8986 113.928 84.8502 113.868 84.8139C113.844 84.8018 113.772 84.7413 113.868 84.8139C113.976 84.8986 113.856 84.8018 113.832 84.7776C113.736 84.6929 113.639 84.596 113.543 84.4992C113.519 84.475 113.375 84.2935 113.459 84.4024C113.531 84.4992 113.471 84.4266 113.459 84.4024C113.435 84.354 113.399 84.3177 113.375 84.2692C113.315 84.1603 113.267 84.0514 113.206 83.9425C113.315 84.1361 113.206 83.9425 113.194 83.8699C113.17 83.7851 113.146 83.7004 113.122 83.6157C113.086 83.4705 113.086 83.3131 113.038 83.18C113.05 83.2042 113.062 83.3857 113.05 83.2284C113.05 83.2042 113.038 83.1679 113.038 83.1437C113.026 83.059 113.014 82.9621 113.014 82.8774C112.978 82.5143 112.942 82.1513 112.87 81.8003C112.725 81.1104 112.389 80.469 111.871 79.9969C111.33 79.5007 110.705 79.1982 110.031 78.9198C107.434 77.8305 104.572 77.6127 101.782 77.4916C101.433 77.4795 101.096 77.4674 100.747 77.4553C100.314 77.4432 99.8934 77.8547 99.9055 78.3025C99.8814 78.7503 100.23 79.1013 100.699 79.1255Z" fill="#CCD1DD"/>
<path d="M129.129 86.7261C129.081 86.7261 129.105 86.7503 129.189 86.7382C129.165 86.7261 129.141 86.7261 129.129 86.7261Z" fill="#B9BDC6"/>
<path d="M137.367 88.8199C137.102 88.6384 136.826 88.4568 136.549 88.2874C135.996 87.9485 135.419 87.6459 134.817 87.3918C134.769 87.3676 134.721 87.3555 134.673 87.3313C134.673 87.3313 134.673 87.3313 134.661 87.3313C134.637 87.3191 134.613 87.307 134.601 87.307C134.565 87.2949 134.529 87.2707 134.481 87.2586C134.336 87.1981 134.192 87.1376 134.036 87.0892C133.735 86.9803 133.422 86.8713 133.11 86.7745C132.496 86.5809 131.871 86.4235 131.246 86.2904C130.921 86.2178 130.584 86.1573 130.247 86.1089C130.091 86.0846 129.935 86.0604 129.778 86.0362C129.682 86.0604 129.67 86.0241 129.718 86.0241C129.706 86.0241 129.694 86.0241 129.694 86.0241C129.622 86.012 129.55 85.9999 129.478 85.9999C126.555 85.6611 123.609 85.8426 120.687 86.1452C119.953 86.2178 119.219 86.3146 118.474 86.3993C117.752 86.484 117.031 86.5446 116.297 86.484C114.998 86.3751 113.627 85.9031 112.785 84.8502C112.353 84.3055 112.088 83.6762 111.98 82.9863C111.92 82.6232 111.896 82.2601 111.847 81.897C111.847 81.8728 111.847 81.8607 111.835 81.8365C111.835 81.8244 111.835 81.8123 111.823 81.8002C111.811 81.7276 111.799 81.6671 111.787 81.5945C111.763 81.4492 111.727 81.304 111.679 81.1709C111.667 81.1346 111.655 81.0862 111.643 81.0498C111.619 81.0014 111.595 80.9409 111.559 80.8925C111.535 80.8562 111.451 80.7594 111.439 80.711C111.427 80.6989 111.415 80.6868 111.402 80.6747C111.306 80.5657 111.198 80.4689 111.09 80.3842C111.078 80.3721 111.054 80.36 111.042 80.3479C110.982 80.2995 110.909 80.2632 110.849 80.2269C110.597 80.0695 110.332 79.9485 110.056 79.8153C110.056 79.8153 110.056 79.8153 110.044 79.8153C110.007 79.8032 109.959 79.779 109.923 79.7669C109.851 79.7427 109.779 79.7064 109.707 79.6822C109.55 79.6217 109.394 79.5612 109.238 79.5128C108.588 79.2949 107.939 79.1134 107.265 78.9803C106.929 78.9076 106.592 78.8471 106.255 78.7987C106.159 78.7866 106.075 78.7745 105.979 78.7624C105.991 78.7624 105.907 78.7503 105.882 78.7503C105.714 78.7261 105.558 78.714 105.389 78.6898C104.018 78.5445 102.647 78.484 101.264 78.4356C100.795 78.4235 100.447 78.0604 100.423 77.5884C100.423 77.5521 100.423 77.5158 100.423 77.4795C100.074 77.5763 99.7852 77.9273 99.7972 78.2904C99.8213 78.7624 100.17 79.1134 100.639 79.1376C102.01 79.186 103.393 79.2344 104.764 79.3917C104.932 79.4039 105.089 79.4281 105.257 79.4523C105.281 79.4523 105.365 79.4644 105.353 79.4644C105.45 79.4765 105.534 79.4886 105.63 79.5007C105.967 79.5491 106.303 79.6096 106.64 79.6822C107.302 79.8154 107.963 79.9969 108.612 80.2147C108.769 80.2632 108.925 80.3237 109.081 80.3842C109.154 80.4084 109.226 80.4447 109.298 80.4689C109.334 80.481 109.382 80.5052 109.418 80.5173C109.418 80.5173 109.418 80.5173 109.43 80.5173C109.707 80.6383 109.971 80.7715 110.224 80.9288C110.284 80.9651 110.356 81.0135 110.416 81.0498C110.428 81.0619 110.452 81.0741 110.464 81.0862C110.573 81.183 110.681 81.2798 110.777 81.3766C110.789 81.3887 110.801 81.4008 110.813 81.4129C110.825 81.4613 110.909 81.5582 110.933 81.5945C110.958 81.6429 110.994 81.7034 111.018 81.7518C111.03 81.7881 111.042 81.8365 111.054 81.8728C111.102 82.006 111.126 82.1512 111.162 82.2964C111.174 82.3691 111.186 82.4296 111.198 82.5022C111.198 82.5143 111.198 82.5385 111.21 82.5385C111.21 82.5627 111.21 82.5748 111.222 82.599C111.27 82.9621 111.294 83.3252 111.354 83.6883C111.463 84.3902 111.727 85.0075 112.16 85.5521C113.002 86.6172 114.373 87.0892 115.672 87.186C116.393 87.2465 117.127 87.186 117.849 87.1013C118.582 87.0166 119.316 86.9319 120.061 86.8471C122.972 86.5446 125.93 86.3509 128.852 86.7019C128.925 86.714 128.997 86.714 129.069 86.7261C129.081 86.7261 129.093 86.7261 129.093 86.7261C129.105 86.7261 129.117 86.7261 129.129 86.7261C129.141 86.7261 129.153 86.7261 129.165 86.7261C129.321 86.7503 129.478 86.7745 129.634 86.7987C129.971 86.8471 130.296 86.9197 130.632 86.9803C131.258 87.1134 131.883 87.2707 132.496 87.4644C132.809 87.5612 133.11 87.6701 133.422 87.7791C133.567 87.8396 133.711 87.888 133.867 87.9485C133.903 87.9606 133.939 87.9848 133.988 87.9969C134 87.9969 134.024 88.009 134.048 88.0211C134.048 88.0211 134.048 88.0211 134.06 88.0211C134.108 88.0453 134.156 88.0574 134.204 88.0816C134.793 88.3479 135.371 88.6505 135.936 88.9772C136.212 89.1467 136.489 89.3282 136.754 89.5098C137.114 89.7639 137.704 89.5824 137.896 89.2072C137.956 89.0983 137.98 88.9893 137.992 88.8925C137.776 88.9651 137.547 88.953 137.367 88.8199Z" fill="#B9BDC6"/>
<path d="M17.5869 75.2772H69.4196L116.682 48.0699L69.6842 30.6055L17.5869 75.2772Z" fill="#A06C48"/>
<path d="M69.4196 75.2767L59.8829 53.9878L17.5869 75.2767H69.4196Z" fill="#84593C"/>
<path d="M8.51855 43.4705C8.62679 43.8941 17.5863 75.2769 17.5863 75.2769L79.9899 43.8699L68.084 14L8.51855 43.4705Z" fill="#C17A49"/>
<path d="M68.084 14L105.293 20.3782L116.682 48.0696L79.9899 43.8699L68.084 14Z" fill="#C17A49"/>
<path d="M68.084 14L80.0019 43.8699C80.0019 43.8699 74.6262 26.9864 76.6707 22.8351C80.0019 16.0454 99.809 19.4463 99.809 19.4463L68.084 14Z" fill="#DC9A6D"/>
<path d="M100.05 64.6506C99.6772 63.4645 99.1481 62.3268 98.8835 61.1165C98.4385 59.0227 98.8113 56.8563 99.1841 54.7625C99.7013 51.882 100.17 49.1226 100.687 46.2421L96.1656 45.7217C96.6707 48.4327 95.4079 51.1075 94.7946 53.7943C93.9407 57.5704 94.3737 61.5038 95.0111 65.3283C95.2396 66.696 95.4921 68.0636 95.5282 69.4433C95.5763 71.3072 95.2516 73.1468 95.0351 74.9985C94.8307 76.7171 94.7345 78.4479 94.6262 80.1665C94.5902 80.7837 94.6022 81.5099 95.0953 81.8609C95.3117 82.0182 95.6003 82.0787 95.8649 82.1271C97.0796 82.345 98.3664 82.5628 99.5329 82.1392C99.8817 82.0061 100.242 81.8003 100.399 81.4494C100.507 81.2073 100.495 80.9168 100.483 80.6506C100.303 75.2769 101.662 69.758 100.05 64.6506Z" fill="#AB5027"/>
<path d="M100.05 64.6507C99.677 63.4646 99.1478 62.3269 98.8833 61.1166C98.4383 59.0228 98.8111 56.8564 99.1839 54.7626C99.701 51.8821 100.17 49.1227 100.687 46.2422L99.208 46.0728C98.7269 48.7959 98.2699 51.4222 97.7889 54.1454C97.4161 56.2513 97.0433 58.4177 97.4882 60.4994C97.7528 61.7097 98.2819 62.8473 98.6548 64.0334C100.266 69.1408 98.9193 74.6719 99.0877 80.0213C99.0997 80.2876 99.1118 80.566 99.0035 80.8201C98.8472 81.1711 98.4984 81.3769 98.1376 81.51C97.0914 81.8973 95.9489 81.7641 94.8545 81.5705C94.9146 81.6794 94.9988 81.7762 95.107 81.8489C95.3235 82.0062 95.6121 82.0667 95.8767 82.1151C97.0914 82.333 98.3782 82.5508 99.5447 82.1272C99.8935 81.9941 100.254 81.7884 100.411 81.4374C100.519 81.1953 100.507 80.9048 100.495 80.6386C100.302 75.2891 101.661 69.7581 100.05 64.6507Z" fill="#834022"/>
<path d="M101.553 53.4556C101.95 52.9109 102.347 52.2211 103.02 52.209C103.586 52.209 104.03 52.7657 104.055 53.3346C104.079 53.9034 103.778 54.4359 103.405 54.8595C103.032 55.2831 102.575 55.6341 102.203 56.0456C101.337 57.0138 100.94 58.2967 100.338 59.4465C99.9296 60.2211 99.4365 60.9473 98.8472 61.6129C98.3782 62.1333 97.7649 62.6538 97.0674 62.5811C96.4059 62.5206 95.8888 61.9276 95.7084 61.2861C95.528 60.6447 95.6363 59.9548 95.7685 59.3013C96.0211 58.091 96.5743 56.0214 97.8491 55.4768C98.4504 55.2226 99.1479 55.2831 99.7853 54.9563C100.483 54.6054 101.096 54.0849 101.553 53.4556Z" fill="#AB5027"/>
<path d="M104.054 53.3222C104.03 52.8381 103.705 52.366 103.26 52.2329C103.333 52.3902 103.381 52.5597 103.393 52.7291C103.417 53.298 103.116 53.8305 102.743 54.2541C102.371 54.6777 101.914 55.0287 101.541 55.4402C100.675 56.4084 100.278 57.6913 99.6767 58.8411C99.2678 59.6157 98.7748 60.3418 98.1855 61.0075C97.7165 61.5279 97.1031 62.0483 96.4056 61.9757C96.2493 61.9636 96.1049 61.9152 95.9727 61.8547C96.2252 62.242 96.61 62.5325 97.067 62.5809C97.7645 62.6414 98.3779 62.1331 98.8469 61.6126C99.4242 60.9591 99.9293 60.2329 100.338 59.4462C100.939 58.2964 101.336 57.0135 102.202 56.0453C102.575 55.6217 103.032 55.2828 103.405 54.8592C103.778 54.4235 104.078 53.891 104.054 53.3222Z" fill="#834022"/>
<path d="M93.8324 76.9105C94.9268 77.3583 96.0813 77.6246 97.2479 77.7698C98.4144 77.9029 99.5809 77.8666 100.735 77.6972C101.036 77.6488 101.349 77.6004 101.649 77.5278C101.998 77.4309 102.299 77.1768 102.395 76.8137C102.515 76.3417 102.239 75.7728 101.746 75.6639C101.529 75.6155 101.301 75.6276 101.096 75.7486C100.928 75.8454 100.76 76.0512 100.711 76.2569C100.663 76.4748 100.675 76.7169 100.796 76.9105C100.904 77.092 101.084 77.2494 101.301 77.2978C101.313 77.2978 101.313 77.2978 101.325 77.2978C101.253 77.2736 101.192 77.2373 101.12 77.2131L101.132 77.2252C101.072 77.1768 101.024 77.1405 100.964 77.092L100.976 77.1042C100.928 77.0436 100.892 76.9952 100.844 76.9347C100.844 76.9468 100.856 76.9468 100.856 76.9589C100.832 76.8863 100.796 76.8258 100.772 76.7532C100.772 76.7653 100.772 76.7653 100.784 76.7774C100.772 76.7048 100.76 76.6321 100.76 76.5595C100.76 76.5716 100.76 76.5837 100.76 76.6079C100.772 76.5353 100.784 76.4627 100.784 76.3901C100.784 76.4022 100.784 76.4022 100.772 76.4143C100.796 76.3417 100.832 76.2811 100.856 76.2085C100.856 76.2206 100.844 76.2206 100.844 76.2327C100.892 76.1722 100.928 76.1238 100.976 76.0633C100.964 76.0754 100.952 76.0875 100.94 76.0996C101 76.0512 101.048 76.0149 101.108 75.9665C101.096 75.9786 101.072 75.9907 101.06 75.9907C101.132 75.9665 101.192 75.9302 101.265 75.906C101.096 75.9665 100.904 75.9907 100.723 76.027C100.531 76.0633 100.339 76.0875 100.146 76.1238C100.218 76.1117 100.29 76.0996 100.363 76.0996C99.2683 76.2448 98.1619 76.2448 97.0675 76.0996C97.1396 76.1117 97.2118 76.1238 97.2839 76.1238C96.2497 75.9786 95.2395 75.7123 94.2774 75.325C94.085 75.2524 93.7964 75.3129 93.628 75.4097C93.4596 75.5066 93.2913 75.7123 93.2431 75.9181C93.195 76.1359 93.2071 76.378 93.3273 76.5716C93.3754 76.6321 93.4115 76.6805 93.4596 76.7411C93.5679 76.8016 93.6881 76.8742 93.8324 76.9105Z" fill="#CCD1DD"/>
<path d="M101.649 76.8383C101.349 76.923 101.036 76.9593 100.735 77.0077C99.5809 77.1772 98.4144 77.2256 97.2478 77.0803C96.0693 76.9472 94.9268 76.6688 93.8324 76.221C93.6881 76.1847 93.5678 76.1121 93.4596 76.0032C93.4115 75.9427 93.3754 75.8943 93.3273 75.8337C93.3153 75.8095 93.2912 75.7732 93.2792 75.749C93.2672 75.7853 93.2431 75.8216 93.2431 75.8579C93.195 76.0758 93.2071 76.3179 93.3273 76.5115C93.3754 76.572 93.4115 76.6204 93.4596 76.6809C93.5678 76.7899 93.6881 76.8625 93.8324 76.8988C94.9268 77.3466 96.0813 77.6129 97.2478 77.7581C98.4144 77.8912 99.5809 77.8549 100.735 77.6855C101.036 77.6371 101.349 77.5887 101.649 77.516C101.998 77.4192 102.299 77.1651 102.395 76.802C102.443 76.6083 102.431 76.4026 102.359 76.221C102.251 76.5478 101.974 76.7536 101.649 76.8383Z" fill="#B9BDC6"/>
<path d="M93.9885 74.9504C94.7582 75.8581 95.5519 76.7537 96.3817 77.613C96.7665 78.0245 97.1634 78.436 97.6084 78.787C98.1014 79.1743 98.6186 79.5011 99.1958 79.7552C99.8452 80.0457 100.519 80.2757 101.204 80.4451C101.421 80.4935 101.661 80.4693 101.854 80.3604C102.022 80.2636 102.19 80.0578 102.238 79.8521C102.335 79.4164 102.106 78.9322 101.649 78.8112C101.072 78.666 100.495 78.4844 99.9414 78.2424C100.014 78.2666 100.074 78.3029 100.146 78.3271C99.6288 78.1092 99.1477 77.843 98.7028 77.5041C98.7629 77.5525 98.811 77.5888 98.8711 77.6372C98.342 77.2257 97.8729 76.7174 97.4039 76.2333C96.9109 75.7129 96.4298 75.1925 95.9608 74.6599C95.6962 74.3574 95.4316 74.0548 95.1671 73.7401C95.0348 73.5828 94.7702 73.498 94.5778 73.498C94.3733 73.498 94.1328 73.5949 93.9885 73.7401C93.8442 73.8974 93.736 74.1153 93.748 74.3331C93.76 74.5873 93.8442 74.7689 93.9885 74.9504Z" fill="#CCD1DD"/>
<path d="M101.674 79.8515C100.988 79.6821 100.315 79.44 99.6655 79.1617C99.0883 78.9075 98.5711 78.5807 98.0781 78.1934C97.6331 77.8425 97.2483 77.431 96.8514 77.0195C96.0216 76.1602 95.2279 75.2645 94.4582 74.3568C94.3019 74.1753 94.2177 73.9937 94.2177 73.7638C94.2177 73.7154 94.2177 73.6549 94.2297 73.6064C94.1455 73.6428 94.0613 73.7033 94.0012 73.7638C93.8569 73.9211 93.7487 74.139 93.7607 74.3568C93.7727 74.5868 93.8569 74.7683 94.0012 74.9499C94.7709 75.8576 95.5646 76.7532 96.3944 77.6125C96.7792 78.024 97.1761 78.4355 97.6211 78.7865C98.1141 79.1738 98.6313 79.5006 99.2085 79.7547C99.8579 80.0452 100.531 80.2751 101.217 80.4446C101.433 80.493 101.674 80.4688 101.866 80.3599C102.035 80.263 102.203 80.0573 102.251 79.8515C102.251 79.8273 102.263 79.8152 102.263 79.791C102.071 79.8878 101.866 79.8999 101.674 79.8515Z" fill="#B9BDC6"/>
<path d="M102.408 75.9183C102.552 75.4705 102.72 75.0348 102.901 74.6112C102.877 74.6838 102.84 74.7443 102.816 74.8169C103.129 74.0666 103.502 73.3283 103.911 72.6263C104.127 72.2511 104.007 71.6823 103.61 71.4765C103.213 71.2587 102.696 71.3676 102.468 71.7791C101.782 72.9531 101.229 74.1997 100.796 75.4826C100.724 75.6884 100.772 75.9546 100.88 76.1362C100.976 76.3056 101.181 76.475 101.385 76.5234C101.842 76.6203 102.263 76.3661 102.408 75.9183Z" fill="#CCD1DD"/>
<path d="M102.19 76.3057C102.286 76.2936 102.383 76.2694 102.491 76.2573C102.419 76.2694 102.347 76.2815 102.274 76.2815C102.852 76.2088 103.441 76.2088 104.03 76.2815C103.958 76.2693 103.886 76.2573 103.814 76.2573C104.391 76.342 104.968 76.4872 105.509 76.7172C105.437 76.693 105.377 76.6566 105.305 76.6324C105.353 76.6566 105.401 76.6687 105.437 76.693C105.654 76.7898 105.846 76.8382 106.087 76.7777C106.279 76.7293 106.496 76.5719 106.592 76.3904C106.7 76.1967 106.748 75.9547 106.676 75.7368C106.616 75.5432 106.484 75.3253 106.291 75.2285C105.93 75.0712 105.558 74.9138 105.185 74.817C104.788 74.7081 104.391 74.6476 103.994 74.5871C103.261 74.4902 102.515 74.5386 101.781 74.6718C101.589 74.7081 101.372 74.8896 101.276 75.0591C101.168 75.2406 101.132 75.5069 101.192 75.7126C101.252 75.9184 101.384 76.112 101.577 76.2209C101.757 76.342 101.962 76.3541 102.19 76.3057Z" fill="#CCD1DD"/>
<path d="M89.6959 76.5237C89.7377 73.2082 84.3383 70.8606 81.7432 70.181C79.1481 69.4808 75.1508 70.5311 74.1463 74.3614C73.1417 78.1918 74.6904 81.4661 77.9133 81.8986C82.2664 82.4546 89.654 80.4982 89.6959 76.5237Z" fill="#FFE8AE"/>
<path d="M77.9133 81.8782C81.2827 82.3313 86.4938 81.2398 88.6704 78.8716C86.1171 80.169 82.5384 80.7044 80.0061 80.3749C76.7832 79.9425 75.2345 76.6887 76.2391 72.8378C76.4902 71.8905 76.9088 71.1285 77.4529 70.5107C75.967 71.1491 74.6695 72.3847 74.1463 74.3411C73.1417 78.192 74.6904 81.4664 77.9133 81.8782Z" fill="#EDD7A4"/>
<path opacity="0.6" d="M87.729 74.835C87.3732 74.3408 86.85 74.0113 86.3059 73.7435C85.8455 73.517 85.3641 73.3111 84.8619 73.1463C84.3596 72.9816 83.8364 72.858 83.3341 72.961C82.8318 73.064 82.3505 73.4552 82.3086 73.9701C82.2877 74.0936 82.3086 74.2378 82.3714 74.3408C82.4551 74.4849 82.6016 74.5673 82.7481 74.6497C83.5643 75.0615 84.527 75.2469 85.1549 75.8853C85.5734 76.2971 85.8664 76.9149 86.4524 77.0385C87.8127 77.3474 88.3987 75.7823 87.729 74.835Z" fill="white"/>
<path d="M56.5143 74.1823C55.7175 76.7088 59.3061 79.75 61.1344 80.8685C62.9579 82.0026 66.2578 82.1213 67.9097 79.4231C69.5617 76.7249 69.1323 73.8631 66.7668 72.7889C63.5653 71.3594 57.4631 71.1518 56.5143 74.1823Z" fill="#EDD7A4"/>
<path d="M66.7624 72.8048C64.2895 71.681 60.0517 71.3138 57.8406 72.6233C60.0928 72.2199 62.9538 72.6358 64.8148 73.472C67.1803 74.5462 67.6144 77.3923 65.9577 80.1062C65.5471 80.7729 65.0512 81.2592 64.4924 81.6062C65.7763 81.4607 67.0538 80.8148 67.9053 79.439C69.562 76.7251 69.1327 73.8633 66.7624 72.8048Z" fill="#FFE8AE"/>
<path opacity="0.6" d="M57.6296 75.9282C57.7877 76.3883 58.112 76.761 58.4664 77.0913C58.7663 77.3708 59.087 77.6394 59.4332 77.8812C59.7794 78.1231 60.1511 78.3383 60.5591 78.3754C60.967 78.4125 61.4255 78.2243 61.5763 77.8401C61.6208 77.7504 61.638 77.6353 61.6137 77.5421C61.583 77.4125 61.4899 77.3157 61.3968 77.2189C60.8675 76.7156 60.1739 76.3517 59.8409 75.7186C59.6157 75.307 59.5341 74.7668 59.1144 74.5372C58.1451 73.9871 57.3359 75.0491 57.6296 75.9282Z" fill="white"/>
<path d="M38.6741 20.8093C38.6741 20.8093 42.132 17.8378 42.247 17.7582C43.7769 16.5997 43.9538 16.2371 46.7042 14.7779C48.9151 13.6017 53.0982 13.6813 53.0982 13.6813C53.0982 13.6813 53.5758 12.9119 53.1601 12.8588C44.794 11.9037 39.1428 19.2793 39.1959 19.2617L38.6741 20.8093Z" fill="#AB5027"/>
<path d="M49.8224 1.428C49.8224 1.428 49.3537 2.86953 48.9557 3.86887C47.806 6.72539 44.9495 12.8276 39.9351 17.4351C36.7514 20.3624 30.0655 25.8544 22.3007 27.8619C18.8428 28.7551 17.5605 28.7816 15.4203 28.7993C10.8304 28.8524 6.47049 27.4993 4.58678 26.8183C3.96772 26.5972 2.00441 25.8367 2.00441 25.8367L2.07516 29.2857C2.07516 29.2857 4.94053 29.9578 5.63034 30.1259C7.66439 30.6123 12.4046 31.4966 18.1707 30.8776C21.213 30.5504 31.339 28.1095 40.4923 19.2835C45.8604 14.1099 48.1951 9.67035 49.7959 6.2213C50.2292 5.27502 51.8034 1.3661 52.1571 0.313694C52.6082 -0.650272 50.5829 0.915067 50.5829 0.915067L49.8224 1.428Z" fill="#AB5027"/>
<path d="M40.545 41.5422C40.8137 40.1297 35.8071 36.881 34.2617 33.0065C31.9975 27.2928 33.9299 24.5543 33.9843 24.2491C34.1729 23.2433 31.514 23.6312 30.9488 24.3078C30.077 25.3617 28.7347 28.9016 29.7585 35.4538C30.4856 40.1111 33.0925 44.2099 33.6154 44.5888C35.9513 46.3049 40.2236 43.2031 40.545 41.5422Z" fill="#F3B38A"/>
<path d="M47.8846 45.439C51.4603 50.2139 54.0503 52.5623 60.3312 49.5535C61.4838 48.9964 64.434 49.9124 63.403 50.973C61.3994 53.0391 57.0868 55.1852 53.2553 55.6524C47.2457 56.3853 42.2942 53.5813 42.1081 52.9509C40.9915 49.1798 46.8678 44.0798 47.8846 45.439Z" fill="#FFF9EB"/>
<path d="M29.9148 43.6962C24.801 41.3874 22.6683 37.3934 22.8005 30.9433C22.8241 29.7509 23.7366 29.2436 23.1255 28.3848C22.5584 27.5728 20.141 27.8656 19.5477 28.7231C18.5398 30.1594 17.7889 34.4552 17.816 37.7966C17.858 43.7292 18.3572 47.2435 22.3814 49.8953C24.4548 51.2628 26.0681 49.7193 27.3221 48.4153C28.6703 47.0004 31.552 44.4373 29.9148 43.6962Z" fill="#F3B38A"/>
<path opacity="0.5" d="M30.1934 26.8082C30.3486 26.5514 30.4051 27.3371 31.8763 26.7666C32.8877 26.3759 33.1868 25.8619 33.1711 26.0092C33.1534 26.2246 33.2403 26.7498 33.2403 26.7498C33.2403 26.7498 32.4687 27.4885 31.4584 27.8452C30.4827 28.1802 29.7104 28.1689 29.7104 28.1689C29.7104 28.1689 30.0742 26.9979 30.1934 26.8082Z" fill="#FFF9EB"/>
<path opacity="0.5" d="M18.5902 31.1608C18.7454 30.904 18.6817 31.1408 20.1531 30.559C21.1645 30.1682 21.8156 30.0509 21.7999 30.1982C21.7822 30.4136 21.2114 31.2831 20.9412 31.582C20.6832 31.8585 20.1954 32.2192 19.5907 32.3037C18.5756 32.433 18.3689 32.1202 18.3689 32.1202C18.3689 32.1202 18.471 31.3505 18.5902 31.1608Z" fill="#FFF9EB"/>
<path d="M34.1862 22.4027C34.7165 22.9183 34.8398 23.7513 34.4108 24.0456C33.9817 24.3398 33.273 23.3191 33.2686 22.694C33.2696 22.2736 33.7557 21.9697 34.1862 22.4027Z" fill="#F3B38A"/>
<path d="M33.0755 22.7C33.6619 23.2399 33.871 24.246 33.5104 24.5308C32.8704 25.0461 32.2168 23.6975 32.168 23.037C32.1242 22.5926 32.5886 22.254 33.0755 22.7Z" fill="#F3B38A"/>
<path d="M32.0496 23.2038C32.6394 23.6301 33.0145 24.7887 32.6105 25.0041C32.0452 25.2944 31.5048 24.3468 31.3408 23.7398C31.1858 23.2125 31.5601 22.8485 32.0496 23.2038Z" fill="#F3B38A"/>
<path d="M31.2043 23.7247C31.7272 24.1036 31.9474 25.1214 31.532 25.3364C30.9547 25.649 30.3893 24.7803 30.3261 24.2216C30.2804 23.8453 30.7705 23.4052 31.2043 23.7247Z" fill="#F3B38A"/>
<path d="M23.1016 27.2594C23.5731 27.8413 23.5147 28.6691 22.9511 28.9025C22.3992 29.125 21.8518 28.0295 22.006 27.4204C22.1088 27.0144 22.7178 26.7822 23.1016 27.2594Z" fill="#F3B38A"/>
<path d="M21.9845 27.3859C22.5121 27.9923 22.4935 29.0144 22.0324 29.2395C21.1793 29.6576 20.7889 28.2485 20.8876 27.5924C20.9574 27.1513 21.556 26.8848 21.9845 27.3859Z" fill="#F3B38A"/>
<path d="M20.7485 27.6561C21.3022 28.1496 21.4375 29.3467 20.9444 29.5026C20.2338 29.7091 19.8654 28.7097 19.8153 28.0947C19.7862 27.537 20.2947 27.2452 20.7485 27.6561Z" fill="#F3B38A"/>
<path d="M19.8952 28.1201C20.3934 28.5665 20.3862 29.5889 19.87 29.7556C19.1474 29.9844 18.7316 29.0518 18.782 28.4965C18.827 28.1229 19.4854 27.7559 19.8952 28.1201Z" fill="#F3B38A"/>
<path d="M21.4373 30.9263C22.3821 29.7041 23.5321 29.6242 23.7679 30.1084C24.1002 30.7885 23.042 30.837 22.7953 31.5002C22.6598 31.8598 21.1061 31.3711 21.4373 30.9263Z" fill="#F3B38A"/>
<path d="M13.4678 28.7723C13.7133 29.6999 13.5 30.3867 13.3378 31.2683C13.2283 31.9014 11.3783 30.2791 12.23 28.7474C12.4937 28.2779 13.263 28.005 13.4678 28.7723Z" fill="#F3B38A"/>
<path d="M12.3225 28.6704C12.6234 29.6451 12.2005 30.8939 11.6415 30.9685C10.6261 31.1091 10.7728 29.2045 11.1361 28.4425C11.3674 27.9152 12.0736 27.8564 12.3225 28.6704Z" fill="#F3B38A"/>
<path d="M11.0003 28.4274C11.3617 29.2788 11.0326 30.8145 10.4657 30.7751C9.67195 30.7178 9.69017 29.3207 9.88342 28.5423C10.0623 27.8658 10.7028 27.7255 11.0003 28.4274Z" fill="#F3B38A"/>
<path d="M9.99869 28.8639C10.0766 29.6957 9.43964 31.2678 8.86064 31.2508C8.58817 31.2428 8.50684 29.3656 8.74251 28.6907C9.1511 27.5437 9.92916 28.1347 9.99869 28.8639Z" fill="#F3B38A"/>
<path d="M61.3262 50.8781C60.9686 50.6745 60.6623 50.2678 60.4466 49.8752C60.1554 49.3439 60.4795 48.7512 60.3419 48.02C60.2233 47.4143 60.0035 47.1579 59.8813 46.677C59.6782 45.853 60.9253 45.9463 61.1739 47.5444C61.2311 47.921 61.4067 48.1307 61.6789 48.1501C61.8488 48.1664 62.0775 48.1163 62.2485 47.7123C62.4805 47.1623 62.5469 46.8347 62.6006 46.1659C62.6553 45.463 63.0516 45.1224 63.3264 45.4372C63.8327 45.9975 62.9527 47.7215 63.2118 47.7973C63.3694 47.8474 63.8064 47.2807 64.1409 46.336C64.4267 45.5036 65.1683 45.7866 64.8942 46.6081C64.5454 47.6546 63.6529 48.2534 63.8884 48.3625C64.2243 48.5315 65.3918 46.6908 65.8693 47.0684C66.1582 47.2928 66.0139 47.5613 65.6063 47.9016C64.9893 48.4062 64.2133 48.9061 64.4214 49.1736C64.5967 49.3946 65.5325 48.4789 65.9436 48.4114C66.3429 48.3549 66.5273 49.0421 65.4361 49.4419C64.5056 49.7896 64.2305 50.2588 63.9036 50.556C63.0629 51.3267 62.5136 51.4584 62.0505 51.3652C61.749 51.186 61.7282 51.1172 61.3262 50.8781Z" fill="#FFF9EB"/>
<path d="M62.0565 48.8651C61.987 48.9086 62.3059 49.2701 62.2335 49.8021C62.1742 50.2776 61.8713 50.53 61.9268 50.5771C61.9932 50.6359 62.6159 50.3246 62.6763 49.815C62.7263 49.2711 62.1373 48.8221 62.0565 48.8651Z" fill="#F3B38A"/>
<path d="M37.2865 41.0492C35.2218 42.4886 31.1025 43.47 28.8699 42.8819C26.8293 42.3335 24.1106 42.4356 21.0048 44.1171C17.7604 45.8742 14.2262 48.9862 19.2441 54.1783C23.567 58.657 34.7649 61.5645 45.5284 54.0965C48.3003 52.1779 48.9671 48.4251 48.0666 45.808C46.9444 42.6163 40.7666 38.6173 37.2865 41.0492Z" fill="#FFF9EB"/>
<path fill-rule="evenodd" clip-rule="evenodd" d="M43.5461 41.3487C45.6616 42.4413 47.4786 44.2335 48.0359 45.8185C48.9326 48.4247 48.2674 52.1607 45.5101 54.0692L45.51 54.0692C34.7587 61.5287 23.5789 58.6213 19.2681 54.1552L19.2681 54.1552C16.7641 51.5642 16.4019 49.5015 17.057 47.8716C17.7142 46.2365 19.3994 45.0239 21.0208 44.1458C24.1196 42.468 26.8297 42.3673 28.8617 42.9134L28.8619 42.9134C29.9856 43.2094 31.5797 43.1099 33.1487 42.7577C34.7183 42.4053 36.2687 41.7988 37.3057 41.0759L37.3058 41.0759C39.0305 39.8706 41.4299 40.2558 43.5461 41.3487ZM37.2681 41.022C39.0234 39.7953 41.4529 40.1936 43.5763 41.2902C45.7001 42.3871 47.5331 44.1901 48.098 45.7968L48.0981 45.797C49.0023 48.425 48.334 52.1946 45.5475 54.1233C34.7719 61.5997 23.5558 58.6921 19.2208 54.2009C16.707 51.5998 16.3274 49.5104 16.9959 47.847C17.6624 46.1888 19.3665 44.9669 20.9895 44.0879C24.1024 42.4026 26.8297 42.2991 28.8788 42.8498C29.9876 43.1419 31.5695 43.0447 33.1343 42.6935C34.6987 42.3423 36.2403 41.7384 37.2681 41.022Z" fill="#FFF9EB"/>
<path d="M50.6321 48.6214C49.2094 49.091 45.5105 50.0734 41.8798 49.1148C40.9214 48.8594 38.6985 47.9421 36.7466 45.9191C35.8863 45.0303 35.2872 44.1492 34.7372 43.5309C34.2643 42.9943 33.4105 42.6625 32.7928 42.8035C31.569 43.0744 40.0737 36.3015 50.6321 48.6214Z" fill="#F3B38A"/>
<path d="M34.846 55.34C34.907 55.1941 35.3548 55.4231 35.9619 55.2591C36.3856 55.1466 36.5732 54.9475 36.6283 55.0059C36.6941 55.0874 36.4775 55.5015 36.0965 55.7062C36.0274 55.7383 35.5886 55.9754 35.1859 55.7591C35.0069 55.6629 34.7972 55.4522 34.846 55.34Z" fill="#F3B38A"/>
<path d="M33.0152 56.5365C33.1097 56.4142 33.4987 56.7097 34.1245 56.6826C34.5569 56.6612 34.789 56.4975 34.8324 56.567C34.8865 56.6595 34.5803 57.0255 34.179 57.1501C34.0988 57.1704 33.6287 57.3157 33.2737 57.0213C33.0961 56.8797 32.9441 56.6366 33.0152 56.5365Z" fill="#F3B38A"/>
<path d="M30.1227 55.9969C30.2286 55.875 30.5822 56.2149 31.218 56.2335C31.6494 56.2462 31.8921 56.1056 31.9355 56.175C31.9783 56.2672 31.6501 56.6098 31.227 56.6996C31.1469 56.72 30.6667 56.8196 30.3355 56.4917C30.1809 56.3395 30.0406 56.0854 30.1227 55.9969Z" fill="#F3B38A"/>
<path d="M27.8872 56.6584C27.9817 56.5362 28.3584 56.8654 28.9948 56.8613C29.4265 56.8626 29.6696 56.7107 29.7017 56.7798C29.7444 56.8719 29.4272 57.2262 29.0152 57.3278C28.9351 57.3482 28.4546 57.4591 28.1227 57.1539C27.9567 57.0013 27.8164 56.7472 27.8872 56.6584Z" fill="#F3B38A"/>
<path d="M31.8534 55.0704C31.9482 54.9368 32.3482 55.244 32.997 55.2062C33.4408 55.1851 33.6845 55.0104 33.7279 55.0799C33.782 55.1724 33.4759 55.5384 33.0518 55.6623C32.9717 55.6827 32.4902 55.8276 32.1239 55.5328C31.9456 55.414 31.7823 55.1706 31.8534 55.0704Z" fill="#F3B38A"/>
<path d="M22.1044 40.3426C24.2114 41.3361 26.7583 43.2174 27.8411 45.8171C28.425 47.2205 29.2473 50.1761 28.216 50.8618C26.825 51.7982 22.7646 48.0545 20.6774 45.6071C18.9857 43.6259 16.7641 39.5611 17.5747 38.6531C17.7153 38.5095 20.5576 39.6155 22.1044 40.3426Z" fill="#F3B38A"/>
<path d="M25.8667 44.2026C21.8216 39.5503 17.2692 40.1896 14.7781 35.6283C13.9365 34.1037 13.4131 32.9635 13.3582 30.962C13.3313 29.9386 8.60649 29.482 8.62128 30.5278C8.69661 35.7114 13.899 53.601 23.5553 56.7702C25.9188 57.5439 28.3424 54.3311 28.7122 52.5694C29.3963 49.3852 27.0429 45.5552 25.8667 44.2026Z" fill="#FFF9EB"/>
<path d="M18.4872 50.5654C18.6348 50.5697 18.6098 51.0348 18.9711 51.4999C19.2233 51.8141 19.4817 51.9126 19.4457 51.9797C19.4089 52.0695 18.9555 52.0335 18.6446 51.7858C18.5892 51.7387 18.2225 51.4552 18.2578 51.0245C18.2752 50.8205 18.385 50.5624 18.4872 50.5654Z" fill="#F3B38A"/>
<path d="M20.4557 50.8615C20.5932 50.8201 20.7048 51.2778 21.2054 51.6448C21.539 51.8931 21.8111 51.9125 21.8088 51.992C21.7944 52.0938 21.349 52.1716 20.9673 52.0127C20.8999 51.988 20.4624 51.7934 20.3612 51.37C20.3218 51.1644 20.3411 50.8922 20.4557 50.8615Z" fill="#F3B38A"/>
<path d="M20.3277 52.8918C20.4767 52.8507 20.5769 53.3081 21.0774 53.675C21.411 53.9234 21.6832 53.9428 21.6809 54.0222C21.6665 54.1241 21.2211 54.2019 20.8394 54.043C20.7719 54.0183 20.3345 53.8237 20.2333 53.4003C20.1939 53.1946 20.2132 52.9225 20.3277 52.8918Z" fill="#F3B38A"/>
<path d="M52.1061 30.5071C51.7435 31.6328 52.3671 32.8442 53.4927 33.2067C54.6184 33.5692 55.8297 32.9456 56.1922 31.82C56.5547 30.6944 55.9312 29.483 54.8056 29.1205C53.6799 28.758 52.4686 29.3815 52.1061 30.5071Z" fill="#FFF9EB"/>
<path d="M52.8377 30.7328C52.6004 31.4644 53.0095 32.2377 53.7297 32.4747C54.4614 32.7121 55.2347 32.3029 55.4717 31.5827C55.709 30.8511 55.2999 30.0778 54.5796 29.8408C53.8477 29.6148 53.0747 30.0125 52.8377 30.7328Z" fill="#AB5027"/>
<path d="M42.7514 27.517C42.3889 28.6426 43.0124 29.854 44.1381 30.2165C45.2637 30.579 46.4751 29.9555 46.8376 28.8298C47.2001 27.7042 46.5766 26.4928 45.4509 26.1303C44.3143 25.7561 43.1029 26.3797 42.7514 27.517Z" fill="#FFF9EB"/>
<path d="M43.4723 27.7427C43.235 28.4743 43.6441 29.2476 44.3644 29.4846C45.096 29.7219 45.8693 29.3128 46.1063 28.5926C46.3436 27.8609 45.9345 27.0876 45.2143 26.8506C44.4826 26.6133 43.7093 27.0224 43.4723 27.7427Z" fill="#AB5027"/>
<path d="M36.4993 33.4243C38.8085 29.0719 44.0112 26.4065 49.9222 28.2614C55.8086 30.1838 58.5084 35.3761 57.8655 40.2546C57.0897 46.1746 51.8969 50.8288 43.5296 48.2655C35.225 45.4996 33.6973 38.694 36.4993 33.4243Z" fill="#FFF9EB"/>
<path d="M43.633 44.3714C43.5833 44.5176 43.7002 44.7938 43.9209 45.0161L44.1413 45.2498L44.0155 45.6666C43.8993 45.7541 43.7841 45.8075 43.6585 45.8265C43.5099 45.8563 43.351 45.8516 43.2161 45.8022C43.0812 45.7528 42.9473 45.6693 42.8484 45.5528C42.7496 45.4363 42.6741 45.2977 42.6337 45.1261L42.603 45.0116L41.9625 45.1519L41.9933 45.2664C42.0531 45.5522 42.1823 45.7946 42.3473 45.9813C42.5229 46.191 42.757 46.3455 43.0161 46.4213C43.2636 46.5081 43.536 46.5161 43.8105 46.4559C43.925 46.4252 44.0396 46.3945 44.1434 46.3407C44.1972 46.4446 44.2737 46.5491 44.3508 46.6309C44.5378 46.8409 44.7722 46.9841 45.02 47.0595C45.2791 47.1353 45.5516 47.1433 45.8147 47.0828C46.0665 47.022 46.3089 46.8928 46.5189 46.7058L46.612 46.629L46.1719 46.1388L46.0787 46.2156C45.9502 46.3369 45.8003 46.412 45.663 46.4421C45.5141 46.4832 45.3552 46.4785 45.2203 46.4291C45.0737 46.3907 44.9511 46.3076 44.8409 46.1907C44.7528 46.0972 44.688 45.9817 44.6466 45.8441L44.7724 45.4274L45.0923 45.3686C45.4118 45.3212 45.6552 45.1579 45.705 45.0116C45.7804 44.7638 45.4067 44.3325 44.8437 44.1569C44.2691 43.9923 43.7081 44.135 43.633 44.3714Z" fill="#AB5027"/>
<path d="M46.2589 40.8236C45.4207 43.4465 46.8498 46.2495 49.45 47.087C52.0506 47.9132 54.8429 46.4611 55.6811 43.8381C56.7446 40.5059 53.7563 32.3622 52.0159 31.6522C49.9833 30.8313 47.0096 38.4708 46.2589 40.8236Z" fill="#AB5027"/>
<path d="M45.6285 40.6231C44.7903 43.246 41.9977 44.7095 39.3974 43.872C36.7969 43.0458 35.3681 40.2314 36.2063 37.6085C37.2698 34.2763 44.4243 29.3728 46.2635 29.813C48.3849 30.3184 46.3792 38.2703 45.6285 40.6231Z" fill="#AB5027"/>
<path d="M46.9879 41.1289C46.2876 43.3127 47.4916 45.6546 49.6868 46.3553C51.8706 47.0556 54.2125 45.8516 54.9132 43.6564C55.6135 41.4726 54.4095 39.1307 52.2143 38.43C50.0305 37.7297 47.6883 38.945 46.9879 41.1289Z" fill="#F49426"/>
<path d="M47.7428 41.3668C47.1797 43.1342 48.1579 45.0377 49.9254 45.6009C51.6928 46.164 53.5963 45.1858 54.1594 43.4183C54.7226 41.6509 53.7443 39.7474 51.9769 39.1843C50.1981 38.6208 48.306 39.5993 47.7428 41.3668Z" fill="#030304"/>
<path d="M51.9402 41.6035C51.6905 42.3688 52.121 43.1882 52.8864 43.4379C53.6517 43.6876 54.4711 43.2571 54.7208 42.4917C54.9705 41.7264 54.54 40.907 53.7746 40.6573C53.0093 40.4077 52.1789 40.8265 51.9402 41.6035Z" fill="white"/>
<path d="M47.4132 43.3341C47.301 43.6717 47.4947 44.041 47.8323 44.1532C48.1699 44.2653 48.5392 44.0716 48.6514 43.734C48.7635 43.3964 48.5698 43.0271 48.2322 42.915C47.8946 42.8028 47.5253 42.9965 47.4132 43.3341Z" fill="white"/>
<path d="M37.2432 40.2071C37.1311 40.5447 37.3248 40.914 37.6624 41.0261C38 41.1383 38.3692 40.9446 38.4814 40.607C38.5936 40.2694 38.3999 39.9001 38.0623 39.7879C37.7247 39.6758 37.3557 39.8581 37.2432 40.2071Z" fill="white"/>
<path d="M36.9245 37.9135C36.2241 40.0974 37.4281 42.4393 39.6233 43.1399C41.8071 43.8402 44.1491 42.6363 44.8497 40.4411C45.55 38.2572 44.3461 35.9153 42.1509 35.2147C39.967 34.5144 37.6248 35.7297 36.9245 37.9135Z" fill="#F49426"/>
<path d="M37.6793 38.1519C37.1162 39.9194 38.0944 41.8229 39.8619 42.386C41.6293 42.9491 43.5328 41.9709 44.096 40.2035C44.6591 38.4361 43.6809 36.5325 41.9134 35.9694C40.146 35.4063 38.2425 36.3845 37.6793 38.1519Z" fill="#030304"/>
<path d="M41.8768 38.3883C41.6271 39.1536 42.0576 39.973 42.8229 40.2227C43.5883 40.4724 44.4076 40.0419 44.6573 39.2765C44.907 38.5112 44.4765 37.6918 43.7112 37.4421C42.9458 37.1924 42.1264 37.6229 41.8768 38.3883Z" fill="white"/>
<path d="M37.3595 40.1193C37.2473 40.4569 37.441 40.8262 37.7786 40.9383C38.1162 41.0505 38.4855 40.8568 38.5976 40.5192C38.7098 40.1816 38.5161 39.8123 38.1785 39.7001C37.8296 39.5876 37.4716 39.7817 37.3595 40.1193Z" fill="white"/>
<path d="M15.3537 16.4082C15.3537 16.4082 15.6614 19.8234 15.6963 22.0764C15.7453 25.3572 13.8644 28.9305 13.8644 28.9305C13.8644 28.9305 11.676 25.1359 13.2352 20.1238C13.8015 18.2976 15.3537 16.4082 15.3537 16.4082Z" fill="#357C50"/>
<path d="M10.1929 17.7041C10.1929 17.7041 11.9021 20.4623 12.8661 22.3469C14.2675 25.097 13.9354 28.931 13.9354 28.931C13.9354 28.931 10.2577 26.6581 9.69061 21.7565C9.47999 19.9689 10.1929 17.7041 10.1929 17.7041Z" fill="#4D9071"/>
<path d="M48.9463 12.9541C48.9463 12.9541 52.3796 13.0862 54.4762 13.9759C57.1567 15.1089 59.3096 16.9301 59.3096 16.9301C59.3096 16.9301 55.6863 18.237 51.6901 15.7415C50.2338 14.8309 48.9463 12.9541 48.9463 12.9541Z" fill="#357C50"/>
<path d="M56.7178 0.863281C56.7178 0.863281 55.1191 3.16169 53.9403 4.57347C52.2237 6.63316 48.9453 7.77213 48.9453 7.77213C48.9453 7.77213 49.3726 4.15061 53.1889 1.94087C54.5739 1.14291 56.7178 0.863281 56.7178 0.863281Z" fill="#315539"/>
<path d="M48.9453 19.431C48.9453 19.431 46.7177 19.143 45.5011 18.944C43.7199 18.656 42.4683 17.4616 42.4683 17.4616C42.4683 17.4616 44.7133 16.7719 47.2166 18.0232C48.1269 18.4818 48.9453 19.431 48.9453 19.431Z" fill="#315539"/>
<path d="M47.2178 22.0218C47.2178 22.0218 45.3649 20.7854 44.3741 20.0672C42.9256 19.0226 42.4679 17.272 42.4679 17.272C42.4679 17.272 44.8895 17.5127 46.4491 19.8509C47.0134 20.7038 47.2178 22.0218 47.2178 22.0218Z" fill="#357C50"/>
<path d="M21.2502 20.6081C21.2502 20.6081 19.3713 23.8167 18.281 25.5486C16.6905 28.0763 14.0074 29.2794 14.0074 29.2794C14.0074 29.2794 14.3506 25.4746 17.9299 22.4095C19.2292 21.2922 21.2502 20.6081 21.2502 20.6081Z" fill="#4D9071"/>
<path d="M68.0768 68.2248C64.9585 69.4398 64.7911 75.2471 65.1259 77.883C65.4608 80.4984 67.9512 83.7521 71.9485 83.1961C75.9458 82.6607 78.4153 80.0041 77.5991 76.9151C76.4899 72.7553 71.8229 66.7626 68.0768 68.2248Z" fill="#FFE8AE"/>
<path d="M77.5991 76.9148C76.7411 73.6817 73.7483 69.3571 70.6928 68.2656C72.8694 70.0984 74.732 73.1462 75.3807 75.5968C76.1969 78.6858 73.7274 81.3423 69.7301 81.8778C68.7465 82.0013 67.8675 81.919 67.0723 81.6718C68.2442 82.7839 69.8976 83.5046 71.9276 83.2163C75.9249 82.6603 78.4153 80.0038 77.5991 76.9148Z" fill="#EDD7A4"/>
<path opacity="0.6" d="M67.2401 70.6754C66.9052 71.1696 66.8006 71.7875 66.7378 72.3847C66.6959 72.8995 66.6959 73.4143 66.7169 73.9292C66.7587 74.444 66.8424 74.9588 67.1354 75.3913C67.4284 75.8237 67.9726 76.0915 68.4748 75.9473C68.6004 75.9061 68.726 75.8443 68.8097 75.7414C68.9143 75.6178 68.9353 75.4531 68.9562 75.2883C69.0399 74.4028 68.8306 73.4555 69.1864 72.6318C69.4166 72.0963 69.877 71.5815 69.7933 71.0049C69.584 69.6251 67.8888 69.6869 67.2401 70.6754Z" fill="white"/>
</svg>
