<svg width="66" height="55" viewBox="0 0 66 55" fill="none" xmlns="http://www.w3.org/2000/svg">
<path d="M2.76298 24.0033L10.3058 35.5299C10.8545 36.3931 11.7694 36.9427 12.7717 37.1001L48.8721 42.6873L49.8396 42.8534L53.8052 43.4568C54.8424 43.6054 55.819 42.9173 56.0025 41.8714L59.6573 18.3652C59.806 17.328 59.1179 16.3515 58.072 16.1679L54.1064 15.5646L53.139 15.3985L16.9688 9.82865C15.9665 9.67127 14.9291 9.96712 14.1617 10.603L3.4713 19.2706C2.05868 20.4379 1.75262 22.4774 2.76298 24.0033Z" fill="#E03E36"/>
<path d="M23.7841 15.9939L21.7821 15.6996L19.0563 16.912L18.7786 18.8008L21.2981 17.6937L21.3571 17.7024L20.1736 25.7544L22.3034 26.0675L23.7841 15.9939ZM28.6148 27.2213C31.1479 27.5936 32.9611 25.8903 33.454 22.5709C33.9433 19.2761 32.6716 17.1595 30.1482 16.7886C27.62 16.417 25.8085 18.0753 25.3184 21.3751C24.822 24.6839 26.0774 26.8433 28.6148 27.2213ZM28.8743 25.4555C27.7184 25.2855 27.1414 24.0148 27.4876 21.6939C27.8287 19.4074 28.7406 18.3656 29.8916 18.5348C31.0377 18.7032 31.6161 19.9641 31.2799 22.2513C30.9436 24.5737 30.0253 25.6246 28.8743 25.4555ZM38.151 28.623C40.6841 28.9953 42.4973 27.292 42.9902 23.9726C43.4795 20.6778 42.2078 18.5612 39.6845 18.1903C37.1562 17.8187 35.3447 19.477 34.8546 22.7768C34.3582 26.0856 35.6136 28.245 38.151 28.623ZM38.4105 26.8572C37.2546 26.6873 36.6776 25.4165 37.0238 23.0956C37.3649 20.8091 38.2768 19.7673 39.4278 19.9365C40.5739 20.1049 41.1523 21.3658 40.8161 23.653C40.4798 25.9754 39.5615 27.0263 38.4105 26.8572ZM47.6872 30.0247C50.2203 30.397 52.0335 28.6937 52.5264 25.3743C53.0157 22.0795 51.744 19.9629 49.2207 19.592C46.6924 19.2204 44.8809 20.8787 44.3908 24.1785C43.8944 27.4873 45.1498 29.6467 47.6872 30.0247ZM47.9467 28.2589C46.7908 28.089 46.2138 26.8182 46.56 24.4973C46.9011 22.2108 47.813 21.169 48.964 21.3382C50.1101 21.5067 50.6885 22.7675 50.3523 25.0547C50.016 27.3771 49.0977 28.428 47.9467 28.2589ZM16.9205 28.5066L18.6829 28.7656L17.9842 33.5186L19.1872 33.6954L19.8858 28.9425L21.6482 29.2015L21.7957 28.1981L17.068 27.5032L16.9205 28.5066ZM21.7281 34.0689L22.9451 34.2477L23.2451 32.2072L24.1333 32.3377L24.9239 34.5386L26.2674 34.7361L25.3736 32.319C26.0698 32.1342 26.5163 31.617 26.6319 30.83C26.8001 29.686 26.1522 28.8385 24.8453 28.6463L22.5742 28.3125L21.7281 34.0689ZM23.3889 31.229L23.645 29.4864L24.4657 29.607C25.1684 29.7103 25.4626 30.0723 25.3784 30.6457C25.2945 31.2163 24.9123 31.453 24.2152 31.3505L23.3889 31.229ZM28.9096 29.2437L27.5295 29.0409L28.8744 32.1789L26.6497 34.7923L28.0438 34.9972L29.5131 33.206L29.558 33.2126L30.4497 35.3508L31.8495 35.5566L30.4765 32.4144L32.6562 29.7945L31.2818 29.5924L29.827 31.3829L29.782 31.3762L28.9096 29.2437Z" fill="white"/>
<circle cx="8.84868" cy="22.3928" r="2.5" transform="rotate(-14.0085 8.84868 22.3928)" fill="#EA9C00"/>
</svg>
